G04 #@! TF.FileFunction,Copper,L2,Bot,Signal*
%FSLAX46Y46*%
G04 Gerber Fmt 4.6, Leading zero omitted, Abs format (unit mm)*
G04 Created by KiCad (PCBNEW 4.0.6) date Mon Jul 10 19:21:00 2017*
%MOMM*%
%LPD*%
G01*
G04 APERTURE LIST*
%ADD10C,0.100000*%
%ADD11O,1.524000X3.000000*%
%ADD12R,2.000000X2.000000*%
%ADD13O,2.000000X2.000000*%
%ADD14R,3.000000X3.000000*%
%ADD15O,3.000000X3.000000*%
%ADD16C,2.000000*%
%ADD17C,1.000000*%
G04 APERTURE END LIST*
D10*
D11*
X17839800Y-210561800D03*
X15299800Y-210561800D03*
X12759800Y-210561800D03*
X10219800Y-210561800D03*
X17839800Y-252228400D03*
X15299800Y-252228400D03*
X12759800Y-252228400D03*
X10219800Y-252228400D03*
X24108700Y-266117400D03*
X26648700Y-266117400D03*
X29188700Y-266117400D03*
X31728700Y-266117400D03*
X24108700Y-210561800D03*
X26648700Y-210561800D03*
X29188700Y-210561800D03*
X31728700Y-210561800D03*
X45617600Y-224450700D03*
X43077600Y-224450700D03*
X40537600Y-224450700D03*
X37997600Y-224450700D03*
X45617600Y-266117300D03*
X43077600Y-266117300D03*
X40537600Y-266117300D03*
X37997600Y-266117300D03*
X59506400Y-43895100D03*
X56966400Y-43895100D03*
X54426400Y-43895100D03*
X51886400Y-43895100D03*
X59506400Y-71672900D03*
X56966400Y-71672900D03*
X54426400Y-71672900D03*
X51886400Y-71672900D03*
X51886400Y-266117300D03*
X54426400Y-266117300D03*
X56966400Y-266117300D03*
X59506400Y-266117300D03*
X51886400Y-224450700D03*
X54426400Y-224450700D03*
X56966400Y-224450700D03*
X59506400Y-224450700D03*
X65775300Y-155006200D03*
X68315300Y-155006200D03*
X70855300Y-155006200D03*
X73395300Y-155006200D03*
X65775300Y-30006200D03*
X68315300Y-30006200D03*
X70855300Y-30006200D03*
X73395300Y-30006200D03*
X73395300Y-210561800D03*
X70855300Y-210561800D03*
X68315300Y-210561800D03*
X65775300Y-210561800D03*
X73395300Y-252228400D03*
X70855300Y-252228400D03*
X68315300Y-252228400D03*
X65775300Y-252228400D03*
X79664200Y-252228400D03*
X82204200Y-252228400D03*
X84744200Y-252228400D03*
X87284200Y-252228400D03*
X79664200Y-30006200D03*
X82204200Y-30006200D03*
X84744200Y-30006200D03*
X87284200Y-30006200D03*
X101173100Y-57784000D03*
X98633100Y-57784000D03*
X96093100Y-57784000D03*
X93553100Y-57784000D03*
X101173100Y-238339600D03*
X98633100Y-238339600D03*
X96093100Y-238339600D03*
X93553100Y-238339600D03*
X107442000Y-210561800D03*
X109982000Y-210561800D03*
X112522000Y-210561800D03*
X115062000Y-210561800D03*
X107442000Y-127228400D03*
X109982000Y-127228400D03*
X112522000Y-127228400D03*
X115062000Y-127228400D03*
X128950900Y-99450600D03*
X126410900Y-99450600D03*
X123870900Y-99450600D03*
X121330900Y-99450600D03*
X128950900Y-182784000D03*
X126410900Y-182784000D03*
X123870900Y-182784000D03*
X121330900Y-182784000D03*
X135219800Y-155006300D03*
X137759800Y-155006300D03*
X140299800Y-155006300D03*
X142839800Y-155006300D03*
X135219800Y-71672900D03*
X137759800Y-71672900D03*
X140299800Y-71672900D03*
X142839800Y-71672900D03*
X156728700Y-43895100D03*
X154188700Y-43895100D03*
X151648700Y-43895100D03*
X149108700Y-43895100D03*
X156728700Y-141117300D03*
X154188700Y-141117300D03*
X151648700Y-141117300D03*
X149108700Y-141117300D03*
X162997600Y-113339600D03*
X165537600Y-113339600D03*
X168077600Y-113339600D03*
X170617600Y-113339600D03*
X162997600Y-30006200D03*
X165537600Y-30006200D03*
X168077600Y-30006200D03*
X170617600Y-30006200D03*
X184506400Y-30006200D03*
X181966400Y-30006200D03*
X179426400Y-30006200D03*
X176886400Y-30006200D03*
X184506400Y-85561800D03*
X181966400Y-85561800D03*
X179426400Y-85561800D03*
X176886400Y-85561800D03*
X190775300Y-57784000D03*
X193315300Y-57784000D03*
X195855300Y-57784000D03*
X198395300Y-57784000D03*
X190775300Y-30006200D03*
X193315300Y-30006200D03*
X195855300Y-30006200D03*
X198395300Y-30006200D03*
D12*
X76454000Y-65278000D03*
D13*
X76454000Y-71310000D03*
D12*
X20828000Y-231394000D03*
D13*
X20828000Y-237426000D03*
D14*
X34798000Y-239014000D03*
D15*
X34798000Y-245046000D03*
D16*
X34798000Y-245046000D02*
X32303961Y-242551961D01*
X32303961Y-242551961D02*
X12719271Y-242551960D01*
X11919960Y-242551960D02*
X10219800Y-240851800D01*
X12719271Y-242551960D02*
X11919960Y-242551960D01*
X10219800Y-240851800D02*
X10219800Y-210561800D01*
X34798000Y-238760000D02*
X17839800Y-221801800D01*
X17839800Y-221801800D02*
X17839800Y-210561800D01*
X34798000Y-239014000D02*
X34798000Y-238760000D01*
X22098000Y-250952000D02*
X24108700Y-252962700D01*
X24108700Y-252962700D02*
X24108700Y-266117400D01*
X19812000Y-250952000D02*
X22098000Y-250952000D01*
X18535600Y-252228400D02*
X19812000Y-250952000D01*
X17839800Y-252228400D02*
X18535600Y-252228400D01*
D17*
X26648700Y-266117400D02*
X26648700Y-252532838D01*
X26648700Y-252532838D02*
X22967852Y-248851990D01*
X22967852Y-248851990D02*
X17844931Y-248851990D01*
X17844931Y-248851990D02*
X15977790Y-250719131D01*
X15977790Y-250719131D02*
X15977790Y-251206000D01*
X12759800Y-252228400D02*
X12759800Y-251397121D01*
X12759800Y-251397121D02*
X16904941Y-247251980D01*
X16904941Y-247251980D02*
X23630597Y-247251980D01*
X23630597Y-247251980D02*
X29188700Y-252810083D01*
X29188700Y-263617400D02*
X29188700Y-266117400D01*
X29188700Y-252810083D02*
X29188700Y-263617400D01*
D16*
X31728700Y-266117400D02*
X31728700Y-252380221D01*
X31728700Y-252380221D02*
X24500449Y-245151970D01*
X24500449Y-245151970D02*
X13796230Y-245151970D01*
X13796230Y-245151970D02*
X10219800Y-248728400D01*
X10219800Y-248728400D02*
X10219800Y-252228400D01*
X24108700Y-210561800D02*
X24108700Y-223827179D01*
X24108700Y-223827179D02*
X32649550Y-232368029D01*
X41200271Y-232368029D02*
X45617600Y-227950700D01*
X32649550Y-232368029D02*
X41200271Y-232368029D01*
X45617600Y-227950700D02*
X45617600Y-224450700D01*
D17*
X43077600Y-224450700D02*
X43077600Y-226950700D01*
X43077600Y-226950700D02*
X39760280Y-230268020D01*
X39760280Y-230268020D02*
X33519403Y-230268020D01*
X33519403Y-230268020D02*
X26648700Y-223397317D01*
X26648700Y-213061800D02*
X26648700Y-210561800D01*
X26648700Y-223397317D02*
X26648700Y-213061800D01*
X29188700Y-210561800D02*
X29188700Y-223674562D01*
X29188700Y-223674562D02*
X34182148Y-228668010D01*
X34182148Y-228668010D02*
X38820290Y-228668010D01*
X38820290Y-228668010D02*
X40537600Y-226950700D01*
X40537600Y-226950700D02*
X40537600Y-224450700D01*
D16*
X35052000Y-226568000D02*
X31728700Y-223244700D01*
X31728700Y-223244700D02*
X31728700Y-210561800D01*
X36830000Y-226568000D02*
X35052000Y-226568000D01*
X37997600Y-225400400D02*
X36830000Y-226568000D01*
X37997600Y-224450700D02*
X37997600Y-225400400D01*
X50546000Y-263398000D02*
X51886400Y-264738400D01*
X51886400Y-264738400D02*
X51886400Y-266117300D01*
X48260000Y-263398000D02*
X50546000Y-263398000D01*
X45617600Y-266040400D02*
X48260000Y-263398000D01*
X45617600Y-266117300D02*
X45617600Y-266040400D01*
D17*
X54426400Y-266117300D02*
X54426400Y-263617300D01*
X54426400Y-263617300D02*
X52107090Y-261297990D01*
X52107090Y-261297990D02*
X45396910Y-261297990D01*
X45396910Y-261297990D02*
X43077600Y-263617300D01*
X43077600Y-263617300D02*
X43077600Y-266117300D01*
X40537600Y-266117300D02*
X40537600Y-263617300D01*
X40537600Y-263617300D02*
X44456920Y-259697980D01*
X44456920Y-259697980D02*
X53047080Y-259697980D01*
X53047080Y-259697980D02*
X56966400Y-263617300D01*
X56966400Y-263617300D02*
X56966400Y-266117300D01*
D16*
X59506400Y-266117300D02*
X59506400Y-262617300D01*
X59506400Y-262617300D02*
X54487071Y-257597971D01*
X54487071Y-257597971D02*
X43016929Y-257597971D01*
X43016929Y-257597971D02*
X37997600Y-262617300D01*
X37997600Y-262617300D02*
X37997600Y-266117300D01*
X61976000Y-46990000D02*
X65775300Y-43190700D01*
X65775300Y-43190700D02*
X65775300Y-30006200D01*
X60706000Y-46990000D02*
X61976000Y-46990000D01*
X59506400Y-45790400D02*
X60706000Y-46990000D01*
X59506400Y-43895100D02*
X59506400Y-45790400D01*
D17*
X68315300Y-30006200D02*
X68315300Y-43620562D01*
X68315300Y-43620562D02*
X62845853Y-49090009D01*
X62845853Y-49090009D02*
X59661309Y-49090009D01*
X59661309Y-49090009D02*
X56966400Y-46395100D01*
X56966400Y-46395100D02*
X56966400Y-43895100D01*
X54426400Y-43895100D02*
X54426400Y-46395100D01*
X54426400Y-46395100D02*
X58721319Y-50690019D01*
X70855300Y-43343317D02*
X70855300Y-32506200D01*
X58721319Y-50690019D02*
X63508598Y-50690019D01*
X63508598Y-50690019D02*
X70855300Y-43343317D01*
X70855300Y-32506200D02*
X70855300Y-30006200D01*
D16*
X73395300Y-30006200D02*
X73395300Y-43773179D01*
X73395300Y-43773179D02*
X64378451Y-52790028D01*
X64378451Y-52790028D02*
X57281328Y-52790028D01*
X57281328Y-52790028D02*
X51886400Y-47395100D01*
X51886400Y-47395100D02*
X51886400Y-43895100D01*
X73395300Y-210561800D02*
X73395300Y-224113179D01*
X73395300Y-224113179D02*
X64886450Y-232622029D01*
X64886450Y-232622029D02*
X56557729Y-232622029D01*
X56557729Y-232622029D02*
X51886400Y-227950700D01*
X51886400Y-227950700D02*
X51886400Y-224450700D01*
D17*
X54426400Y-224450700D02*
X54426400Y-226950700D01*
X57997720Y-230522020D02*
X64016597Y-230522020D01*
X54426400Y-226950700D02*
X57997720Y-230522020D01*
X70855300Y-213061800D02*
X70855300Y-210561800D01*
X64016597Y-230522020D02*
X70855300Y-223683317D01*
X70855300Y-223683317D02*
X70855300Y-213061800D01*
X68315300Y-210561800D02*
X68315300Y-223960562D01*
X68315300Y-223960562D02*
X63353852Y-228922010D01*
X58937710Y-228922010D02*
X56966400Y-226950700D01*
X63353852Y-228922010D02*
X58937710Y-228922010D01*
X56966400Y-226950700D02*
X56966400Y-224450700D01*
D16*
X62484000Y-226822000D02*
X65775300Y-223530700D01*
X65775300Y-223530700D02*
X65775300Y-210561800D01*
X61214000Y-226822000D02*
X62484000Y-226822000D01*
X59506400Y-225114400D02*
X61214000Y-226822000D01*
X59506400Y-224450700D02*
X59506400Y-225114400D01*
X190775300Y-30006200D02*
X190775300Y-30744200D01*
X190775300Y-30744200D02*
X165862000Y-55657500D01*
X117485551Y-146345970D02*
X70935530Y-146345970D01*
X165862000Y-55657500D02*
X165862000Y-83296076D01*
X70935530Y-146345970D02*
X65775300Y-151506200D01*
X165862000Y-83296076D02*
X138217973Y-110940103D01*
X138217973Y-110940103D02*
X138217972Y-134070028D01*
X138217972Y-134070028D02*
X134267591Y-138020409D01*
X125631590Y-138199931D02*
X117485551Y-146345970D01*
X134267591Y-138020409D02*
X134267591Y-138199931D01*
X134267591Y-138199931D02*
X125631590Y-138199931D01*
X65775300Y-151506200D02*
X65775300Y-155006200D01*
D17*
X193315300Y-30006200D02*
X193315300Y-32259946D01*
X193315300Y-32259946D02*
X168511981Y-57063264D01*
X135137443Y-140299941D02*
X126501442Y-140299941D01*
X168511981Y-57063264D02*
X168511981Y-83615956D01*
X168511981Y-83615956D02*
X140317982Y-111809956D01*
X140317982Y-111809956D02*
X140317982Y-135119402D01*
X140317982Y-135119402D02*
X135137443Y-140299941D01*
X72375520Y-148445980D02*
X68315300Y-152506200D01*
X126501442Y-140299941D02*
X118355404Y-148445980D01*
X118355404Y-148445980D02*
X72375520Y-148445980D01*
X68315300Y-152506200D02*
X68315300Y-155006200D01*
X195855300Y-30006200D02*
X195855300Y-31982700D01*
X195855300Y-31982700D02*
X170111991Y-57726009D01*
X170111991Y-57726009D02*
X170111991Y-84278700D01*
X170111991Y-84278700D02*
X141917991Y-112472700D01*
X141917991Y-112472700D02*
X141917990Y-135782148D01*
X141917990Y-135782148D02*
X135800187Y-141899951D01*
X119018148Y-150045990D02*
X73315510Y-150045990D01*
X135800187Y-141899951D02*
X127164187Y-141899951D01*
X127164187Y-141899951D02*
X119018148Y-150045990D01*
X73315510Y-150045990D02*
X70855300Y-152506200D01*
X70855300Y-152506200D02*
X70855300Y-155006200D01*
D16*
X73395300Y-155006200D02*
X73395300Y-153680700D01*
X73395300Y-153680700D02*
X74930000Y-152146000D01*
X128034039Y-143999961D02*
X136670039Y-143999961D01*
X74930000Y-152146000D02*
X119888000Y-152146000D01*
X119888000Y-152146000D02*
X128034039Y-143999961D01*
X136670039Y-143999961D02*
X144018000Y-136652000D01*
X173217610Y-57726943D02*
X198395300Y-32549253D01*
X144018000Y-136652000D02*
X144018000Y-113342553D01*
X144018000Y-113342553D02*
X173217610Y-84142943D01*
X173217610Y-84142943D02*
X173217610Y-57726943D01*
X198395300Y-32549253D02*
X198395300Y-30006200D01*
X73395300Y-252228400D02*
X73395300Y-249946700D01*
X73395300Y-249946700D02*
X74422000Y-248920000D01*
X74422000Y-248920000D02*
X78232000Y-248920000D01*
X78232000Y-248920000D02*
X79664200Y-250352200D01*
X79664200Y-250352200D02*
X79664200Y-252228400D01*
D17*
X82204200Y-252228400D02*
X82204200Y-249728400D01*
X82204200Y-249728400D02*
X79295790Y-246819990D01*
X79295790Y-246819990D02*
X73552147Y-246819991D01*
X73552147Y-246819991D02*
X70855300Y-249516838D01*
X70855300Y-249516838D02*
X70855300Y-249728400D01*
X70855300Y-249728400D02*
X70855300Y-252228400D01*
X68315300Y-252228400D02*
X68315300Y-249728400D01*
X68315300Y-249728400D02*
X72823718Y-245219982D01*
X72823718Y-245219982D02*
X80235782Y-245219982D01*
X80235782Y-245219982D02*
X84744200Y-249728400D01*
X84744200Y-249728400D02*
X84744200Y-252228400D01*
D16*
X87284200Y-252228400D02*
X87284200Y-249298538D01*
X87284200Y-249298538D02*
X81105635Y-243119973D01*
X81105635Y-243119973D02*
X71383727Y-243119973D01*
X71383727Y-243119973D02*
X65775300Y-248728400D01*
X65775300Y-248728400D02*
X65775300Y-252228400D01*
X79664200Y-30006200D02*
X79664200Y-58402679D01*
X79664200Y-58402679D02*
X87259551Y-65998030D01*
X87259551Y-65998030D02*
X95888933Y-65998029D01*
X95888933Y-65998029D02*
X100995110Y-60891852D01*
X100995110Y-60891852D02*
X100995110Y-57961990D01*
X100995110Y-57961990D02*
X101173100Y-57784000D01*
D17*
X98633100Y-57784000D02*
X98633100Y-60284000D01*
X98633100Y-60284000D02*
X95019080Y-63898020D01*
X95019080Y-63898020D02*
X88129403Y-63898020D01*
X88129403Y-63898020D02*
X82204200Y-57972817D01*
X82204200Y-57972817D02*
X82204200Y-32506200D01*
X82204200Y-32506200D02*
X82204200Y-30006200D01*
X84744200Y-30006200D02*
X84744200Y-58250062D01*
X84744200Y-58250062D02*
X88792148Y-62298010D01*
X88792148Y-62298010D02*
X94079090Y-62298010D01*
X94079090Y-62298010D02*
X96093100Y-60284000D01*
X96093100Y-60284000D02*
X96093100Y-57784000D01*
D16*
X93553100Y-57784000D02*
X93553100Y-57830900D01*
X93553100Y-57830900D02*
X91186000Y-60198000D01*
X91186000Y-60198000D02*
X89662000Y-60198000D01*
X89662000Y-60198000D02*
X87284200Y-57820200D01*
X87284200Y-57820200D02*
X87284200Y-30006200D01*
X107442000Y-210561800D02*
X107442000Y-210058000D01*
X107442000Y-210058000D02*
X105156000Y-207772000D01*
X105156000Y-207772000D02*
X103124000Y-207772000D01*
X103124000Y-207772000D02*
X101173100Y-209722900D01*
X101173100Y-209722900D02*
X101173100Y-238339600D01*
D17*
X98633100Y-238339600D02*
X98633100Y-209293038D01*
X98633100Y-209293038D02*
X102254147Y-205671991D01*
X102254147Y-205671991D02*
X107592191Y-205671991D01*
X107592191Y-205671991D02*
X109982000Y-208061800D01*
X109982000Y-208061800D02*
X109982000Y-210561800D01*
X112522000Y-210561800D02*
X112522000Y-208061800D01*
X108532181Y-204071981D02*
X101591402Y-204071981D01*
X112522000Y-208061800D02*
X108532181Y-204071981D01*
X101591402Y-204071981D02*
X96093100Y-209570283D01*
X96093100Y-209570283D02*
X96093100Y-235839600D01*
X96093100Y-235839600D02*
X96093100Y-238339600D01*
D16*
X93553100Y-238339600D02*
X93553100Y-209140421D01*
X115062000Y-207061800D02*
X115062000Y-210561800D01*
X93553100Y-209140421D02*
X100721549Y-201971972D01*
X100721549Y-201971972D02*
X109972172Y-201971972D01*
X109972172Y-201971972D02*
X115062000Y-207061800D01*
X128950900Y-99450600D02*
X128950900Y-127409579D01*
X128950900Y-127409579D02*
X121020451Y-135340028D01*
X121020451Y-135340028D02*
X112053628Y-135340028D01*
X112053628Y-135340028D02*
X107442000Y-130728400D01*
X107442000Y-130728400D02*
X107442000Y-127228400D01*
D17*
X109982000Y-127228400D02*
X109982000Y-129728400D01*
X109982000Y-129728400D02*
X113493619Y-133240019D01*
X113493619Y-133240019D02*
X120150598Y-133240019D01*
X120150598Y-133240019D02*
X126410900Y-126979717D01*
X126410900Y-126979717D02*
X126410900Y-101950600D01*
X126410900Y-101950600D02*
X126410900Y-99450600D01*
X123870900Y-99450600D02*
X123870900Y-127256962D01*
X119487853Y-131640009D02*
X114433609Y-131640009D01*
X123870900Y-127256962D02*
X119487853Y-131640009D01*
X114433609Y-131640009D02*
X112522000Y-129728400D01*
X112522000Y-129728400D02*
X112522000Y-127228400D01*
D16*
X118618000Y-129540000D02*
X121330900Y-126827100D01*
X121330900Y-126827100D02*
X121330900Y-99450600D01*
X116332000Y-129540000D02*
X118618000Y-129540000D01*
X115062000Y-128270000D02*
X116332000Y-129540000D01*
X115062000Y-127228400D02*
X115062000Y-128270000D01*
X135219800Y-155006300D02*
X135219800Y-154015800D01*
X128950900Y-155275100D02*
X128950900Y-182784000D01*
X135219800Y-154015800D02*
X133604000Y-152400000D01*
X133604000Y-152400000D02*
X131826000Y-152400000D01*
X131826000Y-152400000D02*
X128950900Y-155275100D01*
D17*
X126410900Y-182784000D02*
X126410900Y-154845238D01*
X126410900Y-154845238D02*
X130956148Y-150299990D01*
X130956148Y-150299990D02*
X135553490Y-150299990D01*
X135553490Y-150299990D02*
X137759800Y-152506300D01*
X137759800Y-152506300D02*
X137759800Y-155006300D01*
X140299800Y-155006300D02*
X140299800Y-152506300D01*
X140299800Y-152506300D02*
X136493480Y-148699980D01*
X136493480Y-148699980D02*
X130293403Y-148699980D01*
X123870900Y-180284000D02*
X123870900Y-182784000D01*
X130293403Y-148699980D02*
X123870900Y-155122483D01*
X123870900Y-155122483D02*
X123870900Y-180284000D01*
D16*
X121330900Y-182784000D02*
X121330900Y-154692621D01*
X121330900Y-154692621D02*
X129423550Y-146599971D01*
X137933471Y-146599971D02*
X142839800Y-151506300D01*
X129423550Y-146599971D02*
X137933471Y-146599971D01*
X142839800Y-151506300D02*
X142839800Y-155006300D01*
X156728700Y-43895100D02*
X156728700Y-71437779D01*
X156728700Y-71437779D02*
X148198449Y-79968030D01*
X148198449Y-79968030D02*
X140585067Y-79968029D01*
X140585067Y-79968029D02*
X135397790Y-74780752D01*
X135397790Y-74780752D02*
X135397790Y-71850890D01*
X135397790Y-71850890D02*
X135219800Y-71672900D01*
D17*
X137759800Y-71672900D02*
X137759800Y-74172900D01*
X137759800Y-74172900D02*
X141454920Y-77868020D01*
X141454920Y-77868020D02*
X147328597Y-77868020D01*
X147328597Y-77868020D02*
X154188700Y-71007917D01*
X154188700Y-71007917D02*
X154188700Y-46395100D01*
X154188700Y-46395100D02*
X154188700Y-43895100D01*
X151648700Y-43895100D02*
X151648700Y-71285162D01*
X151648700Y-71285162D02*
X146665852Y-76268010D01*
X146665852Y-76268010D02*
X142394910Y-76268010D01*
X142394910Y-76268010D02*
X140299800Y-74172900D01*
X140299800Y-74172900D02*
X140299800Y-71672900D01*
D16*
X145796000Y-74168000D02*
X149108700Y-70855300D01*
X149108700Y-70855300D02*
X149108700Y-43895100D01*
X145034000Y-74168000D02*
X145796000Y-74168000D01*
X142839800Y-71973800D02*
X145034000Y-74168000D01*
X142839800Y-71672900D02*
X142839800Y-71973800D01*
X162997600Y-113339600D02*
X162997600Y-112451600D01*
X162997600Y-112451600D02*
X161036000Y-110490000D01*
X161036000Y-110490000D02*
X158750000Y-110490000D01*
X158750000Y-110490000D02*
X156728700Y-112511300D01*
X156728700Y-112511300D02*
X156728700Y-141117300D01*
D17*
X154188700Y-141117300D02*
X154188700Y-112081438D01*
X154188700Y-112081438D02*
X157880148Y-108389990D01*
X157880148Y-108389990D02*
X163087990Y-108389990D01*
X163087990Y-108389990D02*
X165537600Y-110839600D01*
X165537600Y-110839600D02*
X165537600Y-113339600D01*
X168077600Y-113339600D02*
X168077600Y-110839600D01*
X168077600Y-110839600D02*
X164027980Y-106789980D01*
X164027980Y-106789980D02*
X157217403Y-106789980D01*
X157217403Y-106789980D02*
X151648700Y-112358683D01*
X151648700Y-112358683D02*
X151648700Y-138617300D01*
X151648700Y-138617300D02*
X151648700Y-141117300D01*
D16*
X149108700Y-141117300D02*
X149108700Y-111928821D01*
X149108700Y-111928821D02*
X156347550Y-104689971D01*
X156347550Y-104689971D02*
X165467971Y-104689971D01*
X165467971Y-104689971D02*
X170617600Y-109839600D01*
X170617600Y-109839600D02*
X170617600Y-113339600D01*
X184506400Y-30006200D02*
X184506400Y-32936062D01*
X184506400Y-32936062D02*
X178876433Y-38566029D01*
X178876433Y-38566029D02*
X168057429Y-38566029D01*
X168057429Y-38566029D02*
X162997600Y-33506200D01*
X162997600Y-33506200D02*
X162997600Y-30006200D01*
D17*
X165537600Y-30006200D02*
X165537600Y-32506200D01*
X169497420Y-36466020D02*
X178006580Y-36466020D01*
X165537600Y-32506200D02*
X169497420Y-36466020D01*
X178006580Y-36466020D02*
X181966400Y-32506200D01*
X181966400Y-32506200D02*
X181966400Y-30006200D01*
X179426400Y-30006200D02*
X179426400Y-32506200D01*
X179426400Y-32506200D02*
X177066590Y-34866010D01*
X177066590Y-34866010D02*
X170437410Y-34866010D01*
X170437410Y-34866010D02*
X168077600Y-32506200D01*
X168077600Y-32506200D02*
X168077600Y-30006200D01*
D16*
X172466000Y-32766000D02*
X170617600Y-30917600D01*
X170617600Y-30917600D02*
X170617600Y-30006200D01*
X175664986Y-32766000D02*
X172466000Y-32766000D01*
X176886400Y-30006200D02*
X176886400Y-31544586D01*
X176886400Y-31544586D02*
X175664986Y-32766000D01*
X187960000Y-54864000D02*
X184506400Y-58317600D01*
X184506400Y-58317600D02*
X184506400Y-85561800D01*
X189230000Y-54864000D02*
X187960000Y-54864000D01*
X190775300Y-56409300D02*
X189230000Y-54864000D01*
X190775300Y-57784000D02*
X190775300Y-56409300D01*
D17*
X181966400Y-85561800D02*
X181966400Y-57887738D01*
X181966400Y-57887738D02*
X187090148Y-52763990D01*
X187090148Y-52763990D02*
X190795290Y-52763990D01*
X190795290Y-52763990D02*
X193315300Y-55284000D01*
X193315300Y-55284000D02*
X193315300Y-57784000D01*
X195855300Y-57784000D02*
X195855300Y-55284000D01*
X195855300Y-55284000D02*
X191735280Y-51163980D01*
X179426400Y-58164983D02*
X179426400Y-83061800D01*
X191735280Y-51163980D02*
X186427403Y-51163980D01*
X179426400Y-83061800D02*
X179426400Y-85561800D01*
X186427403Y-51163980D02*
X179426400Y-58164983D01*
D16*
X176886400Y-85561800D02*
X176886400Y-57735121D01*
X176886400Y-57735121D02*
X185557550Y-49063971D01*
X185557550Y-49063971D02*
X193175271Y-49063971D01*
X193175271Y-49063971D02*
X198395300Y-54284000D01*
X198395300Y-54284000D02*
X198395300Y-57784000D01*
D17*
X20828000Y-231394000D02*
X20828000Y-227759862D01*
X20828000Y-227759862D02*
X15299800Y-222231662D01*
X15299800Y-222231662D02*
X15299800Y-213061800D01*
X15299800Y-213061800D02*
X15299800Y-210561800D01*
X12759800Y-210561800D02*
X12759800Y-229357800D01*
X12759800Y-229357800D02*
X20828000Y-237426000D01*
X56966400Y-71672900D02*
X56966400Y-69172900D01*
X56966400Y-69172900D02*
X60861300Y-65278000D01*
X60861300Y-65278000D02*
X74454000Y-65278000D01*
X74454000Y-65278000D02*
X76454000Y-65278000D01*
X54426400Y-71672900D02*
X54426400Y-69172900D01*
X54426400Y-69172900D02*
X60421301Y-63177999D01*
X78554001Y-69209999D02*
X77453999Y-70310001D01*
X77453999Y-70310001D02*
X76454000Y-71310000D01*
X60421301Y-63177999D02*
X78334001Y-63177999D01*
X78334001Y-63177999D02*
X78554001Y-63397999D01*
X78554001Y-63397999D02*
X78554001Y-69209999D01*
M02*
