<?xml version="1.0" standalone="no"?>
 <!DOCTYPE svg PUBLIC "-//W3C//DTD SVG 1.1//EN" 
 "http://www.w3.org/Graphics/SVG/1.1/DTD/svg11.dtd"> 
<svg xmlns="http://www.w3.org/2000/svg" version="1.1" 
    width="21.0007cm" height="29.7002cm" viewBox="0 0 82680 116930 ">
<title>SVG Picture created as y-Edge.Cuts.svg date 2017/07/10 19:19:27 </title>
  <desc>Picture generated by PCBNEW </desc>
<g style="fill:#000000; fill-opacity:1;stroke:#000000; stroke-opacity:1;
stroke-linecap:round; stroke-linejoin:round; "
 transform="translate(0 0) scale(1 1)">
</g>
<g style="fill:#000000; fill-opacity:0.0; 
stroke:#000000; stroke-width:-0.000393701; stroke-opacity:1; 
stroke-linecap:round; stroke-linejoin:round;">
</g>
<g style="fill:#000000; fill-opacity:0.0; 
stroke:#000000; stroke-width:59.0551; stroke-opacity:1; 
stroke-linecap:round; stroke-linejoin:round;">
<path d="M23874 11026
L24661 11026
" />
<path d="M23874 11026
L23874 11813
" />
<path d="M25449 11026
L29342 11026
" />
<path d="M29342 11026
L30129 11026
" />
<path d="M24661 11026
L25449 11026
" />
<path d="M30917 11026
L34810 11026
" />
<path d="M34810 11026
L35597 11026
" />
<path d="M30129 11026
L30917 11026
" />
<path d="M36385 11026
L36385 11813
" />
<path d="M35597 11026
L36385 11026
" />
<path d="M62150 11026
L62938 11026
" />
<path d="M62150 11026
L62150 11813
" />
<path d="M63725 11026
L67618 11026
" />
<path d="M67618 11026
L68406 11026
" />
<path d="M62938 11026
L63725 11026
" />
<path d="M69193 11026
L73086 11026
" />
<path d="M73086 11026
L73874 11026
" />
<path d="M68406 11026
L69193 11026
" />
<path d="M74661 11026
L78555 11026
" />
<path d="M78555 11026
L79342 11026
" />
<path d="M73874 11026
L74661 11026
" />
<path d="M80129 11026
L80129 11813
" />
<path d="M79342 11026
L80129 11026
" />
<path d="M18406 16494
L19193 16494
" />
<path d="M18406 16494
L18406 17281
" />
<path d="M23874 11813
L23874 12600
" />
<path d="M19981 16494
L23874 16494
" />
<path d="M19193 16494
L19981 16494
" />
<path d="M23874 12600
L23874 16494
" />
<path d="M36385 11813
L36385 12600
" />
<path d="M36385 12600
L36385 16494
" />
<path d="M36385 16494
L36385 17281
" />
<path d="M56682 16494
L57470 16494
" />
<path d="M56682 16494
L56682 17281
" />
<path d="M62150 11813
L62150 12600
" />
<path d="M58257 16494
L62150 16494
" />
<path d="M57470 16494
L58257 16494
" />
<path d="M62150 12600
L62150 16494
" />
<path d="M80129 11813
L80129 12600
" />
<path d="M80129 12600
L80129 16494
" />
<path d="M80129 16494
L80129 17281
" />
<path d="M18406 17281
L18406 18068
" />
<path d="M18406 21962
L18406 22749
" />
<path d="M18406 18068
L18406 21962
" />
<path d="M36385 17281
L36385 18068
" />
<path d="M36385 18068
L36385 21962
" />
<path d="M36385 21962
L40278 21962
" />
<path d="M40278 21962
L41065 21962
" />
<path d="M41853 21962
L41853 22749
" />
<path d="M41065 21962
L41853 21962
" />
<path d="M56682 17281
L56682 18068
" />
<path d="M56682 21962
L56682 22749
" />
<path d="M56682 18068
L56682 21962
" />
<path d="M80129 17281
L80129 18068
" />
<path d="M80129 18068
L80129 21962
" />
<path d="M80129 21962
L80129 22749
" />
<path d="M18406 22749
L18406 23537
" />
<path d="M18406 27430
L18406 28217
" />
<path d="M18406 23537
L18406 27430
" />
<path d="M41853 22749
L41853 23537
" />
<path d="M41853 23537
L41853 27430
" />
<path d="M41853 27430
L41853 28217
" />
<path d="M51214 27430
L52002 27430
" />
<path d="M51214 27430
L51214 28217
" />
<path d="M56682 22749
L56682 23537
" />
<path d="M52789 27430
L56682 27430
" />
<path d="M52002 27430
L52789 27430
" />
<path d="M56682 23537
L56682 27430
" />
<path d="M74661 23537
L78555 23537
" />
<path d="M78555 23537
L79342 23537
" />
<path d="M74661 23537
L74661 27430
" />
<path d="M74661 27430
L74661 28217
" />
<path d="M80129 22749
L80129 23537
" />
<path d="M79342 23537
L80129 23537
" />
<path d="M18406 28217
L18406 29005
" />
<path d="M18406 29005
L19193 29005
" />
<path d="M19981 29005
L23874 29005
" />
<path d="M23874 29005
L23874 32898
" />
<path d="M23874 32898
L23874 33685
" />
<path d="M19193 29005
L19981 29005
" />
<path d="M41853 28217
L41853 29005
" />
<path d="M41853 29005
L41853 32898
" />
<path d="M41853 32898
L41853 33685
" />
<path d="M51214 28217
L51214 29005
" />
<path d="M51214 32898
L51214 33685
" />
<path d="M51214 29005
L51214 32898
" />
<path d="M74661 28217
L74661 29005
" />
<path d="M74661 29005
L74661 32898
" />
<path d="M74661 32898
L74661 33685
" />
<path d="M23874 33685
L23874 34473
" />
<path d="M23874 38366
L23874 39153
" />
<path d="M23874 34473
L23874 38366
" />
<path d="M41853 33685
L41853 34473
" />
<path d="M45746 38366
L46534 38366
" />
<path d="M45746 38366
L45746 39153
" />
<path d="M41853 38366
L41853 39153
" />
<path d="M41853 34473
L41853 38366
" />
<path d="M51214 33685
L51214 34473
" />
<path d="M47321 38366
L51214 38366
" />
<path d="M46534 38366
L47321 38366
" />
<path d="M51214 34473
L51214 38366
" />
<path d="M69193 34473
L73086 34473
" />
<path d="M73086 34473
L73874 34473
" />
<path d="M69193 34473
L69193 38366
" />
<path d="M69193 38366
L69193 39153
" />
<path d="M74661 33685
L74661 34473
" />
<path d="M73874 34473
L74661 34473
" />
<path d="M23874 39153
L23874 39941
" />
<path d="M23874 43834
L23874 44621
" />
<path d="M23874 39941
L23874 43834
" />
<path d="M41853 39153
L41853 39941
" />
<path d="M45746 39153
L45746 39941
" />
<path d="M45746 43834
L45746 44621
" />
<path d="M41853 43834
L41853 44621
" />
<path d="M45746 39941
L45746 43834
" />
<path d="M41853 39941
L41853 43834
" />
<path d="M69193 39153
L69193 39941
" />
<path d="M69193 39941
L69193 43834
" />
<path d="M69193 43834
L69193 44621
" />
<path d="M23874 44621
L23874 45409
" />
<path d="M23874 49302
L23874 50089
" />
<path d="M23874 45409
L23874 49302
" />
<path d="M41853 44621
L41853 45409
" />
<path d="M45746 44621
L45746 45409
" />
<path d="M45746 45409
L45746 49302
" />
<path d="M41853 49302
L45746 49302
" />
<path d="M41853 45409
L41853 49302
" />
<path d="M63725 45409
L67618 45409
" />
<path d="M67618 45409
L68406 45409
" />
<path d="M63725 45409
L63725 49302
" />
<path d="M63725 49302
L63725 50089
" />
<path d="M69193 44621
L69193 45409
" />
<path d="M68406 45409
L69193 45409
" />
<path d="M23874 50089
L23874 50877
" />
<path d="M23874 54770
L23874 55557
" />
<path d="M23874 50877
L23874 54770
" />
<path d="M63725 50089
L63725 50877
" />
<path d="M63725 50877
L63725 54770
" />
<path d="M63725 54770
L63725 55557
" />
<path d="M23874 55557
L23874 56345
" />
<path d="M23874 60238
L23874 61026
" />
<path d="M23874 56345
L23874 60238
" />
<path d="M58257 56345
L62150 56345
" />
<path d="M62150 56345
L62938 56345
" />
<path d="M58257 56345
L58257 60238
" />
<path d="M58257 60238
L58257 61026
" />
<path d="M63725 55557
L63725 56345
" />
<path d="M62938 56345
L63725 56345
" />
<path d="M23874 61026
L23874 61813
" />
<path d="M23874 61813
L24661 61813
" />
<path d="M25449 61813
L29342 61813
" />
<path d="M29342 61813
L29342 65706
" />
<path d="M29342 65706
L29342 66494
" />
<path d="M24661 61813
L25449 61813
" />
<path d="M52789 61813
L56682 61813
" />
<path d="M56682 61813
L57470 61813
" />
<path d="M52789 61813
L52789 65706
" />
<path d="M52789 65706
L52789 66494
" />
<path d="M58257 61026
L58257 61813
" />
<path d="M57470 61813
L58257 61813
" />
<path d="M29342 66494
L29342 67281
" />
<path d="M29342 71174
L29342 71962
" />
<path d="M29342 67281
L29342 71174
" />
<path d="M52789 66494
L52789 67281
" />
<path d="M52789 67281
L52789 71174
" />
<path d="M52789 71174
L52789 71962
" />
<path d="M29342 71962
L29342 72749
" />
<path d="M29342 76642
L29342 77430
" />
<path d="M29342 72749
L29342 76642
" />
<path d="M47321 72749
L51214 72749
" />
<path d="M51214 72749
L52002 72749
" />
<path d="M47321 72749
L47321 76642
" />
<path d="M47321 76642
L47321 77430
" />
<path d="M52789 71962
L52789 72749
" />
<path d="M52002 72749
L52789 72749
" />
<path d="M2002 82110
L2789 82110
" />
<path d="M2002 82110
L2002 82898
" />
<path d="M3576 82110
L7470 82110
" />
<path d="M7470 82110
L8257 82110
" />
<path d="M2789 82110
L3576 82110
" />
<path d="M9044 82110
L12938 82110
" />
<path d="M12938 82110
L13725 82110
" />
<path d="M8257 82110
L9044 82110
" />
<path d="M14513 82110
L14513 82898
" />
<path d="M13725 82110
L14513 82110
" />
<path d="M23874 82110
L24661 82110
" />
<path d="M23874 82110
L23874 82898
" />
<path d="M29342 77430
L29342 78217
" />
<path d="M25449 82110
L29342 82110
" />
<path d="M24661 82110
L25449 82110
" />
<path d="M29342 78217
L29342 82110
" />
<path d="M47321 77430
L47321 78217
" />
<path d="M47321 78217
L47321 82110
" />
<path d="M47321 82110
L47321 82898
" />
<path d="M2002 82898
L2002 83685
" />
<path d="M2002 87579
L2002 88366
" />
<path d="M2002 83685
L2002 87579
" />
<path d="M14513 82898
L14513 83685
" />
<path d="M14513 83685
L14513 87579
" />
<path d="M14513 87579
L18406 87579
" />
<path d="M18406 87579
L19193 87579
" />
<path d="M23874 82898
L23874 83685
" />
<path d="M19981 87579
L23874 87579
" />
<path d="M19193 87579
L19981 87579
" />
<path d="M23874 83685
L23874 87579
" />
<path d="M41853 83685
L45746 83685
" />
<path d="M45746 83685
L46534 83685
" />
<path d="M41853 83685
L41853 87579
" />
<path d="M41853 87579
L41853 88366
" />
<path d="M47321 82898
L47321 83685
" />
<path d="M46534 83685
L47321 83685
" />
<path d="M2002 88366
L2002 89153
" />
<path d="M2002 93047
L2002 93834
" />
<path d="M2002 89153
L2002 93047
" />
<path d="M41853 88366
L41853 89153
" />
<path d="M41853 89153
L41853 93047
" />
<path d="M41853 93047
L41853 93834
" />
<path d="M2002 93834
L2002 94621
" />
<path d="M2002 98515
L2002 99302
" />
<path d="M2002 94621
L2002 98515
" />
<path d="M36385 94621
L40278 94621
" />
<path d="M40278 94621
L41065 94621
" />
<path d="M36385 94621
L36385 98515
" />
<path d="M36385 98515
L36385 99302
" />
<path d="M41853 93834
L41853 94621
" />
<path d="M41065 94621
L41853 94621
" />
<path d="M2002 99302
L2002 100089
" />
<path d="M2002 100089
L2789 100089
" />
<path d="M3576 100089
L7470 100089
" />
<path d="M7470 100089
L7470 103983
" />
<path d="M7470 103983
L7470 104770
" />
<path d="M2789 100089
L3576 100089
" />
<path d="M25449 100089
L29342 100089
" />
<path d="M29342 100089
L30129 100089
" />
<path d="M25449 100089
L25449 103983
" />
<path d="M25449 103983
L25449 104770
" />
<path d="M30917 100089
L34810 100089
" />
<path d="M34810 100089
L35597 100089
" />
<path d="M30129 100089
L30917 100089
" />
<path d="M36385 99302
L36385 100089
" />
<path d="M35597 100089
L36385 100089
" />
<path d="M7470 104770
L7470 105557
" />
<path d="M7470 105557
L8257 105557
" />
<path d="M9044 105557
L12938 105557
" />
<path d="M12938 105557
L13725 105557
" />
<path d="M8257 105557
L9044 105557
" />
<path d="M14513 105557
L18406 105557
" />
<path d="M18406 105557
L19193 105557
" />
<path d="M13725 105557
L14513 105557
" />
<path d="M19981 105557
L23874 105557
" />
<path d="M23874 105557
L24661 105557
" />
<path d="M19193 105557
L19981 105557
" />
<path d="M25449 104770
L25449 105557
" />
<path d="M24661 105557
L25449 105557
" />
</g> 
</svg>
