G04 #@! TF.FileFunction,Profile,NP*
%FSLAX46Y46*%
G04 Gerber Fmt 4.6, Leading zero omitted, Abs format (unit mm)*
G04 Created by KiCad (PCBNEW 4.0.6) date Mon Jul 10 19:21:00 2017*
%MOMM*%
%LPD*%
G01*
G04 APERTURE LIST*
%ADD10C,0.100000*%
%ADD11C,0.150000*%
G04 APERTURE END LIST*
D10*
D11*
X60640900Y-28006200D02*
X62640900Y-28006200D01*
X60640900Y-28006200D02*
X60640900Y-30006200D01*
X64640900Y-28006200D02*
X74529800Y-28006200D01*
X74529800Y-28006200D02*
X76529800Y-28006200D01*
X62640900Y-28006200D02*
X64640900Y-28006200D01*
X78529800Y-28006200D02*
X88418700Y-28006200D01*
X88418700Y-28006200D02*
X90418700Y-28006200D01*
X76529800Y-28006200D02*
X78529800Y-28006200D01*
X92418700Y-28006200D02*
X92418700Y-30006200D01*
X90418700Y-28006200D02*
X92418700Y-28006200D01*
X157863100Y-28006200D02*
X159863100Y-28006200D01*
X157863100Y-28006200D02*
X157863100Y-30006200D01*
X161863100Y-28006200D02*
X171752000Y-28006200D01*
X171752000Y-28006200D02*
X173752000Y-28006200D01*
X159863100Y-28006200D02*
X161863100Y-28006200D01*
X175752000Y-28006200D02*
X185640900Y-28006200D01*
X185640900Y-28006200D02*
X187640900Y-28006200D01*
X173752000Y-28006200D02*
X175752000Y-28006200D01*
X189640900Y-28006200D02*
X199529800Y-28006200D01*
X199529800Y-28006200D02*
X201529800Y-28006200D01*
X187640900Y-28006200D02*
X189640900Y-28006200D01*
X203529800Y-28006200D02*
X203529800Y-30006200D01*
X201529800Y-28006200D02*
X203529800Y-28006200D01*
X46752000Y-41895100D02*
X48752000Y-41895100D01*
X46752000Y-41895100D02*
X46752000Y-43895100D01*
X60640900Y-30006200D02*
X60640900Y-32006200D01*
X50752000Y-41895100D02*
X60640900Y-41895100D01*
X48752000Y-41895100D02*
X50752000Y-41895100D01*
X60640900Y-32006200D02*
X60640900Y-41895100D01*
X92418700Y-30006200D02*
X92418700Y-32006200D01*
X92418700Y-32006200D02*
X92418700Y-41895100D01*
X92418700Y-41895100D02*
X92418700Y-43895100D01*
X143974200Y-41895100D02*
X145974200Y-41895100D01*
X143974200Y-41895100D02*
X143974200Y-43895100D01*
X157863100Y-30006200D02*
X157863100Y-32006200D01*
X147974200Y-41895100D02*
X157863100Y-41895100D01*
X145974200Y-41895100D02*
X147974200Y-41895100D01*
X157863100Y-32006200D02*
X157863100Y-41895100D01*
X203529800Y-30006200D02*
X203529800Y-32006200D01*
X203529800Y-32006200D02*
X203529800Y-41895100D01*
X203529800Y-41895100D02*
X203529800Y-43895100D01*
X46752000Y-43895100D02*
X46752000Y-45895100D01*
X46752000Y-55784000D02*
X46752000Y-57784000D01*
X46752000Y-45895100D02*
X46752000Y-55784000D01*
X92418700Y-43895100D02*
X92418700Y-45895100D01*
X92418700Y-45895100D02*
X92418700Y-55784000D01*
X92418700Y-55784000D02*
X102307600Y-55784000D01*
X102307600Y-55784000D02*
X104307600Y-55784000D01*
X106307600Y-55784000D02*
X106307600Y-57784000D01*
X104307600Y-55784000D02*
X106307600Y-55784000D01*
X143974200Y-43895100D02*
X143974200Y-45895100D01*
X143974200Y-55784000D02*
X143974200Y-57784000D01*
X143974200Y-45895100D02*
X143974200Y-55784000D01*
X203529800Y-43895100D02*
X203529800Y-45895100D01*
X203529800Y-45895100D02*
X203529800Y-55784000D01*
X203529800Y-55784000D02*
X203529800Y-57784000D01*
X46752000Y-57784000D02*
X46752000Y-59784000D01*
X46752000Y-69672900D02*
X46752000Y-71672900D01*
X46752000Y-59784000D02*
X46752000Y-69672900D01*
X106307600Y-57784000D02*
X106307600Y-59784000D01*
X106307600Y-59784000D02*
X106307600Y-69672900D01*
X106307600Y-69672900D02*
X106307600Y-71672900D01*
X130085300Y-69672900D02*
X132085300Y-69672900D01*
X130085300Y-69672900D02*
X130085300Y-71672900D01*
X143974200Y-57784000D02*
X143974200Y-59784000D01*
X134085300Y-69672900D02*
X143974200Y-69672900D01*
X132085300Y-69672900D02*
X134085300Y-69672900D01*
X143974200Y-59784000D02*
X143974200Y-69672900D01*
X189640900Y-59784000D02*
X199529800Y-59784000D01*
X199529800Y-59784000D02*
X201529800Y-59784000D01*
X189640900Y-59784000D02*
X189640900Y-69672900D01*
X189640900Y-69672900D02*
X189640900Y-71672900D01*
X203529800Y-57784000D02*
X203529800Y-59784000D01*
X201529800Y-59784000D02*
X203529800Y-59784000D01*
X46752000Y-71672900D02*
X46752000Y-73672900D01*
X46752000Y-73672900D02*
X48752000Y-73672900D01*
X50752000Y-73672900D02*
X60640900Y-73672900D01*
X60640900Y-73672900D02*
X60640900Y-83561800D01*
X60640900Y-83561800D02*
X60640900Y-85561800D01*
X48752000Y-73672900D02*
X50752000Y-73672900D01*
X106307600Y-71672900D02*
X106307600Y-73672900D01*
X106307600Y-73672900D02*
X106307600Y-83561800D01*
X106307600Y-83561800D02*
X106307600Y-85561800D01*
X130085300Y-71672900D02*
X130085300Y-73672900D01*
X130085300Y-83561800D02*
X130085300Y-85561800D01*
X130085300Y-73672900D02*
X130085300Y-83561800D01*
X189640900Y-71672900D02*
X189640900Y-73672900D01*
X189640900Y-73672900D02*
X189640900Y-83561800D01*
X189640900Y-83561800D02*
X189640900Y-85561800D01*
X60640900Y-85561800D02*
X60640900Y-87561800D01*
X60640900Y-97450700D02*
X60640900Y-99450700D01*
X60640900Y-87561800D02*
X60640900Y-97450700D01*
X106307600Y-85561800D02*
X106307600Y-87561800D01*
X116196400Y-97450700D02*
X118196400Y-97450700D01*
X116196400Y-97450700D02*
X116196400Y-99450700D01*
X106307600Y-97450700D02*
X106307600Y-99450700D01*
X106307600Y-87561800D02*
X106307600Y-97450700D01*
X130085300Y-85561800D02*
X130085300Y-87561800D01*
X120196400Y-97450700D02*
X130085300Y-97450700D01*
X118196400Y-97450700D02*
X120196400Y-97450700D01*
X130085300Y-87561800D02*
X130085300Y-97450700D01*
X175752000Y-87561800D02*
X185640900Y-87561800D01*
X185640900Y-87561800D02*
X187640900Y-87561800D01*
X175752000Y-87561800D02*
X175752000Y-97450700D01*
X175752000Y-97450700D02*
X175752000Y-99450700D01*
X189640900Y-85561800D02*
X189640900Y-87561800D01*
X187640900Y-87561800D02*
X189640900Y-87561800D01*
X60640900Y-99450700D02*
X60640900Y-101450700D01*
X60640900Y-111339600D02*
X60640900Y-113339600D01*
X60640900Y-101450700D02*
X60640900Y-111339600D01*
X106307600Y-99450700D02*
X106307600Y-101450700D01*
X116196400Y-99450700D02*
X116196400Y-101450700D01*
X116196400Y-111339600D02*
X116196400Y-113339600D01*
X106307600Y-111339600D02*
X106307600Y-113339600D01*
X116196400Y-101450700D02*
X116196400Y-111339600D01*
X106307600Y-101450700D02*
X106307600Y-111339600D01*
X175752000Y-99450700D02*
X175752000Y-101450700D01*
X175752000Y-101450700D02*
X175752000Y-111339600D01*
X175752000Y-111339600D02*
X175752000Y-113339600D01*
X60640900Y-113339600D02*
X60640900Y-115339600D01*
X60640900Y-125228400D02*
X60640900Y-127228400D01*
X60640900Y-115339600D02*
X60640900Y-125228400D01*
X106307600Y-113339600D02*
X106307600Y-115339600D01*
X116196400Y-113339600D02*
X116196400Y-115339600D01*
X116196400Y-115339600D02*
X116196400Y-125228400D01*
X106307600Y-125228400D02*
X116196400Y-125228400D01*
X106307600Y-115339600D02*
X106307600Y-125228400D01*
X161863100Y-115339600D02*
X171752000Y-115339600D01*
X171752000Y-115339600D02*
X173752000Y-115339600D01*
X161863100Y-115339600D02*
X161863100Y-125228400D01*
X161863100Y-125228400D02*
X161863100Y-127228400D01*
X175752000Y-113339600D02*
X175752000Y-115339600D01*
X173752000Y-115339600D02*
X175752000Y-115339600D01*
X60640900Y-127228400D02*
X60640900Y-129228400D01*
X60640900Y-139117300D02*
X60640900Y-141117300D01*
X60640900Y-129228400D02*
X60640900Y-139117300D01*
X161863100Y-127228400D02*
X161863100Y-129228400D01*
X161863100Y-129228400D02*
X161863100Y-139117300D01*
X161863100Y-139117300D02*
X161863100Y-141117300D01*
X60640900Y-141117300D02*
X60640900Y-143117300D01*
X60640900Y-153006200D02*
X60640900Y-155006200D01*
X60640900Y-143117300D02*
X60640900Y-153006200D01*
X147974200Y-143117300D02*
X157863100Y-143117300D01*
X157863100Y-143117300D02*
X159863100Y-143117300D01*
X147974200Y-143117300D02*
X147974200Y-153006200D01*
X147974200Y-153006200D02*
X147974200Y-155006200D01*
X161863100Y-141117300D02*
X161863100Y-143117300D01*
X159863100Y-143117300D02*
X161863100Y-143117300D01*
X60640900Y-155006200D02*
X60640900Y-157006200D01*
X60640900Y-157006200D02*
X62640900Y-157006200D01*
X64640900Y-157006200D02*
X74529800Y-157006200D01*
X74529800Y-157006200D02*
X74529800Y-166895100D01*
X74529800Y-166895100D02*
X74529800Y-168895100D01*
X62640900Y-157006200D02*
X64640900Y-157006200D01*
X134085300Y-157006200D02*
X143974200Y-157006200D01*
X143974200Y-157006200D02*
X145974200Y-157006200D01*
X134085300Y-157006200D02*
X134085300Y-166895100D01*
X134085300Y-166895100D02*
X134085300Y-168895100D01*
X147974200Y-155006200D02*
X147974200Y-157006200D01*
X145974200Y-157006200D02*
X147974200Y-157006200D01*
X74529800Y-168895100D02*
X74529800Y-170895100D01*
X74529800Y-180784000D02*
X74529800Y-182784000D01*
X74529800Y-170895100D02*
X74529800Y-180784000D01*
X134085300Y-168895100D02*
X134085300Y-170895100D01*
X134085300Y-170895100D02*
X134085300Y-180784000D01*
X134085300Y-180784000D02*
X134085300Y-182784000D01*
X74529800Y-182784000D02*
X74529800Y-184784000D01*
X74529800Y-194672900D02*
X74529800Y-196672900D01*
X74529800Y-184784000D02*
X74529800Y-194672900D01*
X120196400Y-184784000D02*
X130085300Y-184784000D01*
X130085300Y-184784000D02*
X132085300Y-184784000D01*
X120196400Y-184784000D02*
X120196400Y-194672900D01*
X120196400Y-194672900D02*
X120196400Y-196672900D01*
X134085300Y-182784000D02*
X134085300Y-184784000D01*
X132085300Y-184784000D02*
X134085300Y-184784000D01*
X5085300Y-208561800D02*
X7085300Y-208561800D01*
X5085300Y-208561800D02*
X5085300Y-210561800D01*
X9085300Y-208561800D02*
X18974200Y-208561800D01*
X18974200Y-208561800D02*
X20974200Y-208561800D01*
X7085300Y-208561800D02*
X9085300Y-208561800D01*
X22974200Y-208561800D02*
X32863100Y-208561800D01*
X32863100Y-208561800D02*
X34863100Y-208561800D01*
X20974200Y-208561800D02*
X22974200Y-208561800D01*
X36863100Y-208561800D02*
X36863100Y-210561800D01*
X34863100Y-208561800D02*
X36863100Y-208561800D01*
X60640900Y-208561800D02*
X62640900Y-208561800D01*
X60640900Y-208561800D02*
X60640900Y-210561800D01*
X74529800Y-196672900D02*
X74529800Y-198672900D01*
X64640900Y-208561800D02*
X74529800Y-208561800D01*
X62640900Y-208561800D02*
X64640900Y-208561800D01*
X74529800Y-198672900D02*
X74529800Y-208561800D01*
X120196400Y-196672900D02*
X120196400Y-198672900D01*
X120196400Y-198672900D02*
X120196400Y-208561800D01*
X120196400Y-208561800D02*
X120196400Y-210561800D01*
X5085300Y-210561800D02*
X5085300Y-212561800D01*
X5085300Y-222450700D02*
X5085300Y-224450700D01*
X5085300Y-212561800D02*
X5085300Y-222450700D01*
X36863100Y-210561800D02*
X36863100Y-212561800D01*
X36863100Y-212561800D02*
X36863100Y-222450700D01*
X36863100Y-222450700D02*
X46752000Y-222450700D01*
X46752000Y-222450700D02*
X48752000Y-222450700D01*
X60640900Y-210561800D02*
X60640900Y-212561800D01*
X50752000Y-222450700D02*
X60640900Y-222450700D01*
X48752000Y-222450700D02*
X50752000Y-222450700D01*
X60640900Y-212561800D02*
X60640900Y-222450700D01*
X106307600Y-212561800D02*
X116196400Y-212561800D01*
X116196400Y-212561800D02*
X118196400Y-212561800D01*
X106307600Y-212561800D02*
X106307600Y-222450700D01*
X106307600Y-222450700D02*
X106307600Y-224450700D01*
X120196400Y-210561800D02*
X120196400Y-212561800D01*
X118196400Y-212561800D02*
X120196400Y-212561800D01*
X5085300Y-224450700D02*
X5085300Y-226450700D01*
X5085300Y-236339600D02*
X5085300Y-238339600D01*
X5085300Y-226450700D02*
X5085300Y-236339600D01*
X106307600Y-224450700D02*
X106307600Y-226450700D01*
X106307600Y-226450700D02*
X106307600Y-236339600D01*
X106307600Y-236339600D02*
X106307600Y-238339600D01*
X5085300Y-238339600D02*
X5085300Y-240339600D01*
X5085300Y-250228400D02*
X5085300Y-252228400D01*
X5085300Y-240339600D02*
X5085300Y-250228400D01*
X92418700Y-240339600D02*
X102307600Y-240339600D01*
X102307600Y-240339600D02*
X104307600Y-240339600D01*
X92418700Y-240339600D02*
X92418700Y-250228400D01*
X92418700Y-250228400D02*
X92418700Y-252228400D01*
X106307600Y-238339600D02*
X106307600Y-240339600D01*
X104307600Y-240339600D02*
X106307600Y-240339600D01*
X5085300Y-252228400D02*
X5085300Y-254228400D01*
X5085300Y-254228400D02*
X7085300Y-254228400D01*
X9085300Y-254228400D02*
X18974200Y-254228400D01*
X18974200Y-254228400D02*
X18974200Y-264117300D01*
X18974200Y-264117300D02*
X18974200Y-266117300D01*
X7085300Y-254228400D02*
X9085300Y-254228400D01*
X64640900Y-254228400D02*
X74529800Y-254228400D01*
X74529800Y-254228400D02*
X76529800Y-254228400D01*
X64640900Y-254228400D02*
X64640900Y-264117300D01*
X64640900Y-264117300D02*
X64640900Y-266117300D01*
X78529800Y-254228400D02*
X88418700Y-254228400D01*
X88418700Y-254228400D02*
X90418700Y-254228400D01*
X76529800Y-254228400D02*
X78529800Y-254228400D01*
X92418700Y-252228400D02*
X92418700Y-254228400D01*
X90418700Y-254228400D02*
X92418700Y-254228400D01*
X18974200Y-266117300D02*
X18974200Y-268117300D01*
X18974200Y-268117300D02*
X20974200Y-268117300D01*
X22974200Y-268117300D02*
X32863100Y-268117300D01*
X32863100Y-268117300D02*
X34863100Y-268117300D01*
X20974200Y-268117300D02*
X22974200Y-268117300D01*
X36863100Y-268117300D02*
X46752000Y-268117300D01*
X46752000Y-268117300D02*
X48752000Y-268117300D01*
X34863100Y-268117300D02*
X36863100Y-268117300D01*
X50752000Y-268117300D02*
X60640900Y-268117300D01*
X60640900Y-268117300D02*
X62640900Y-268117300D01*
X48752000Y-268117300D02*
X50752000Y-268117300D01*
X64640900Y-266117300D02*
X64640900Y-268117300D01*
X62640900Y-268117300D02*
X64640900Y-268117300D01*
M02*
