M48
;DRILL file {KiCad 4.0.6} date Mon Jul 10 19:21:01 2017
;FORMAT={-:-/ absolute / metric / decimal}
FMAT,2
METRIC,TZ
T1C0.600
%
G90
G05
M71
T1
X10.22Y-210.562
X10.22Y-252.228
X12.76Y-210.562
X12.76Y-252.228
X15.3Y-210.562
X15.3Y-252.228
X17.84Y-210.562
X17.84Y-252.228
X20.828Y-231.394
X20.828Y-237.426
X24.109Y-210.562
X24.109Y-266.117
X26.649Y-210.562
X26.649Y-266.117
X29.189Y-210.562
X29.189Y-266.117
X31.729Y-210.562
X31.729Y-266.117
X34.798Y-239.014
X34.798Y-245.046
X37.998Y-224.451
X37.998Y-266.117
X40.538Y-224.451
X40.538Y-266.117
X43.078Y-224.451
X43.078Y-266.117
X45.618Y-224.451
X45.618Y-266.117
X51.886Y-43.895
X51.886Y-71.673
X51.886Y-224.451
X51.886Y-266.117
X54.426Y-43.895
X54.426Y-71.673
X54.426Y-224.451
X54.426Y-266.117
X56.966Y-43.895
X56.966Y-71.673
X56.966Y-224.451
X56.966Y-266.117
X59.506Y-43.895
X59.506Y-71.673
X59.506Y-224.451
X59.506Y-266.117
X65.775Y-30.006
X65.775Y-155.006
X65.775Y-210.562
X65.775Y-252.228
X68.315Y-30.006
X68.315Y-155.006
X68.315Y-210.562
X68.315Y-252.228
X70.855Y-30.006
X70.855Y-155.006
X70.855Y-210.562
X70.855Y-252.228
X73.395Y-30.006
X73.395Y-155.006
X73.395Y-210.562
X73.395Y-252.228
X76.454Y-65.278
X76.454Y-71.31
X79.664Y-30.006
X79.664Y-252.228
X82.204Y-30.006
X82.204Y-252.228
X84.744Y-30.006
X84.744Y-252.228
X87.284Y-30.006
X87.284Y-252.228
X93.553Y-57.784
X93.553Y-238.34
X96.093Y-57.784
X96.093Y-238.34
X98.633Y-57.784
X98.633Y-238.34
X101.173Y-57.784
X101.173Y-238.34
X107.442Y-127.228
X107.442Y-210.562
X109.982Y-127.228
X109.982Y-210.562
X112.522Y-127.228
X112.522Y-210.562
X115.062Y-127.228
X115.062Y-210.562
X121.331Y-99.451
X121.331Y-182.784
X123.871Y-99.451
X123.871Y-182.784
X126.411Y-99.451
X126.411Y-182.784
X128.951Y-99.451
X128.951Y-182.784
X135.22Y-71.673
X135.22Y-155.006
X137.76Y-71.673
X137.76Y-155.006
X140.3Y-71.673
X140.3Y-155.006
X142.84Y-71.673
X142.84Y-155.006
X149.109Y-43.895
X149.109Y-141.117
X151.649Y-43.895
X151.649Y-141.117
X154.189Y-43.895
X154.189Y-141.117
X156.729Y-43.895
X156.729Y-141.117
X162.998Y-30.006
X162.998Y-113.34
X165.538Y-30.006
X165.538Y-113.34
X168.078Y-30.006
X168.078Y-113.34
X170.618Y-30.006
X170.618Y-113.34
X176.886Y-30.006
X176.886Y-85.562
X179.426Y-30.006
X179.426Y-85.562
X181.966Y-30.006
X181.966Y-85.562
X184.506Y-30.006
X184.506Y-85.562
X190.775Y-30.006
X190.775Y-57.784
X193.315Y-30.006
X193.315Y-57.784
X195.855Y-30.006
X195.855Y-57.784
X198.395Y-30.006
X198.395Y-57.784
T0
M30
