G04 #@! TF.FileFunction,Copper,L2,Bot,Signal*
%FSLAX46Y46*%
G04 Gerber Fmt 4.6, Leading zero omitted, Abs format (unit mm)*
G04 Created by KiCad (PCBNEW 4.0.6) date Mon Jul 10 19:19:49 2017*
%MOMM*%
%LPD*%
G01*
G04 APERTURE LIST*
%ADD10C,0.100000*%
%ADD11O,1.524000X3.000000*%
%ADD12R,2.000000X2.000000*%
%ADD13O,2.000000X2.000000*%
%ADD14R,3.000000X3.000000*%
%ADD15O,3.000000X3.000000*%
%ADD16C,2.000000*%
%ADD17C,1.000000*%
G04 APERTURE END LIST*
D10*
D11*
X42840700Y-205313100D03*
X40300700Y-205313100D03*
X37760700Y-205313100D03*
X35220700Y-205313100D03*
X42840700Y-246979700D03*
X40300700Y-246979700D03*
X37760700Y-246979700D03*
X35220700Y-246979700D03*
X49109600Y-260868700D03*
X51649600Y-260868700D03*
X54189600Y-260868700D03*
X56729600Y-260868700D03*
X49109600Y-205313100D03*
X51649600Y-205313100D03*
X54189600Y-205313100D03*
X56729600Y-205313100D03*
X70618400Y-219202000D03*
X68078400Y-219202000D03*
X65538400Y-219202000D03*
X62998400Y-219202000D03*
X70618400Y-260868600D03*
X68078400Y-260868600D03*
X65538400Y-260868600D03*
X62998400Y-260868600D03*
X76887300Y-260868600D03*
X79427300Y-260868600D03*
X81967300Y-260868600D03*
X84507300Y-260868600D03*
X76887300Y-219202000D03*
X79427300Y-219202000D03*
X81967300Y-219202000D03*
X84507300Y-219202000D03*
X98396200Y-191424200D03*
X95856200Y-191424200D03*
X93316200Y-191424200D03*
X90776200Y-191424200D03*
X98396200Y-246979800D03*
X95856200Y-246979800D03*
X93316200Y-246979800D03*
X90776200Y-246979800D03*
X104665100Y-246979800D03*
X107205100Y-246979800D03*
X109745100Y-246979800D03*
X112285100Y-246979800D03*
X104665100Y-121979800D03*
X107205100Y-121979800D03*
X109745100Y-121979800D03*
X112285100Y-121979800D03*
X126174000Y-52535300D03*
X123634000Y-52535300D03*
X121094000Y-52535300D03*
X118554000Y-52535300D03*
X126174000Y-233090900D03*
X123634000Y-233090900D03*
X121094000Y-233090900D03*
X118554000Y-233090900D03*
X132442900Y-205313100D03*
X134982900Y-205313100D03*
X137522900Y-205313100D03*
X140062900Y-205313100D03*
X132442900Y-24757500D03*
X134982900Y-24757500D03*
X137522900Y-24757500D03*
X140062900Y-24757500D03*
X153951800Y-24757500D03*
X151411800Y-24757500D03*
X148871800Y-24757500D03*
X146331800Y-24757500D03*
X153951800Y-135868700D03*
X151411800Y-135868700D03*
X148871800Y-135868700D03*
X146331800Y-135868700D03*
X160220700Y-66424200D03*
X162760700Y-66424200D03*
X165300700Y-66424200D03*
X167840700Y-66424200D03*
X160220700Y-24757600D03*
X162760700Y-24757600D03*
X165300700Y-24757600D03*
X167840700Y-24757600D03*
D12*
X156972000Y-36322000D03*
D13*
X156972000Y-42354000D03*
D12*
X45974000Y-227330000D03*
D13*
X45974000Y-233362000D03*
D14*
X59944000Y-234950000D03*
D15*
X59944000Y-240982000D03*
D16*
X35220700Y-205313100D02*
X35220700Y-226456702D01*
X35220700Y-226456702D02*
X46843659Y-238079661D01*
X46843659Y-238079661D02*
X57041661Y-238079661D01*
X57041661Y-238079661D02*
X58444001Y-239482001D01*
X58444001Y-239482001D02*
X59944000Y-240982000D01*
X42840700Y-205313100D02*
X42840700Y-219316698D01*
X42840700Y-219316698D02*
X58474002Y-234950000D01*
X58474002Y-234950000D02*
X59944000Y-234950000D01*
X46573700Y-246979700D02*
X49109600Y-249515600D01*
X49109600Y-249515600D02*
X49109600Y-260868700D01*
X42840700Y-246979700D02*
X46573700Y-246979700D01*
D17*
X51649600Y-260868700D02*
X51649600Y-249085738D01*
X51649600Y-249085738D02*
X46943552Y-244379690D01*
X40400710Y-244379690D02*
X40300700Y-244479700D01*
X46943552Y-244379690D02*
X40400710Y-244379690D01*
X40300700Y-244479700D02*
X40300700Y-246979700D01*
X37760700Y-246979700D02*
X37760700Y-244479700D01*
X37760700Y-244479700D02*
X39460720Y-242779680D01*
X47606297Y-242779680D02*
X54189600Y-249362983D01*
X39460720Y-242779680D02*
X47606297Y-242779680D01*
X54189600Y-249362983D02*
X54189600Y-258368700D01*
X54189600Y-258368700D02*
X54189600Y-260868700D01*
D16*
X56729600Y-260868700D02*
X56729600Y-248933121D01*
X56729600Y-248933121D02*
X48476150Y-240679671D01*
X48476150Y-240679671D02*
X38020729Y-240679671D01*
X38020729Y-240679671D02*
X35220700Y-243479700D01*
X35220700Y-243479700D02*
X35220700Y-246979700D01*
X49109600Y-205313100D02*
X49109600Y-220888079D01*
X49109600Y-220888079D02*
X56017550Y-227796029D01*
X65524371Y-227796029D02*
X70618400Y-222702000D01*
X56017550Y-227796029D02*
X65524371Y-227796029D01*
X70618400Y-222702000D02*
X70618400Y-219202000D01*
D17*
X68078400Y-219202000D02*
X68078400Y-221702000D01*
X68078400Y-221702000D02*
X64084380Y-225696020D01*
X64084380Y-225696020D02*
X56887403Y-225696020D01*
X56887403Y-225696020D02*
X51649600Y-220458217D01*
X51649600Y-220458217D02*
X51649600Y-207813100D01*
X51649600Y-207813100D02*
X51649600Y-205313100D01*
X54189600Y-205313100D02*
X54189600Y-220735462D01*
X54189600Y-220735462D02*
X57550148Y-224096010D01*
X57550148Y-224096010D02*
X63144390Y-224096010D01*
X63144390Y-224096010D02*
X65538400Y-221702000D01*
X65538400Y-221702000D02*
X65538400Y-219202000D01*
D16*
X60706000Y-221996000D02*
X62998400Y-219703600D01*
X62998400Y-219703600D02*
X62998400Y-219202000D01*
X58420000Y-221996000D02*
X60706000Y-221996000D01*
X56642000Y-220218000D02*
X58420000Y-221996000D01*
X56642000Y-208900700D02*
X56642000Y-220218000D01*
X56729600Y-205313100D02*
X56729600Y-208813100D01*
X56729600Y-208813100D02*
X56642000Y-208900700D01*
X70618400Y-260868600D02*
X70618400Y-259835600D01*
X70618400Y-259835600D02*
X71882000Y-258572000D01*
X71882000Y-258572000D02*
X76200000Y-258572000D01*
X76200000Y-258572000D02*
X76887300Y-259259300D01*
X76887300Y-259259300D02*
X76887300Y-260868600D01*
D17*
X68078400Y-260868600D02*
X68078400Y-258368600D01*
X68078400Y-258368600D02*
X69975009Y-256471991D01*
X69975009Y-256471991D02*
X77530691Y-256471991D01*
X77530691Y-256471991D02*
X79427300Y-258368600D01*
X79427300Y-258368600D02*
X79427300Y-260868600D01*
X81967300Y-260868600D02*
X81967300Y-258368600D01*
X69035019Y-254871981D02*
X65538400Y-258368600D01*
X81967300Y-258368600D02*
X78470681Y-254871981D01*
X78470681Y-254871981D02*
X69035019Y-254871981D01*
X65538400Y-258368600D02*
X65538400Y-260868600D01*
D16*
X62998400Y-260868600D02*
X62998400Y-257938738D01*
X84507300Y-257368600D02*
X84507300Y-260868600D01*
X62998400Y-257938738D02*
X68165166Y-252771972D01*
X68165166Y-252771972D02*
X79910672Y-252771972D01*
X79910672Y-252771972D02*
X84507300Y-257368600D01*
X98396200Y-191424200D02*
X98396200Y-216277579D01*
X98396200Y-216277579D02*
X89171750Y-225502029D01*
X89171750Y-225502029D02*
X79687329Y-225502029D01*
X79687329Y-225502029D02*
X76887300Y-222702000D01*
X76887300Y-222702000D02*
X76887300Y-219202000D01*
D17*
X79427300Y-219202000D02*
X79427300Y-221702000D01*
X95856200Y-215847717D02*
X95856200Y-193924200D01*
X79427300Y-221702000D02*
X81127320Y-223402020D01*
X81127320Y-223402020D02*
X88301897Y-223402020D01*
X95856200Y-193924200D02*
X95856200Y-191424200D01*
X88301897Y-223402020D02*
X95856200Y-215847717D01*
X93316200Y-191424200D02*
X93316200Y-216124962D01*
X93316200Y-216124962D02*
X87639152Y-221802010D01*
X87639152Y-221802010D02*
X82067310Y-221802010D01*
X82067310Y-221802010D02*
X81967300Y-221702000D01*
X81967300Y-221702000D02*
X81967300Y-219202000D01*
D16*
X84507300Y-219202000D02*
X87269300Y-219202000D01*
X87269300Y-219202000D02*
X90776200Y-215695100D01*
X90776200Y-215695100D02*
X90776200Y-191424200D01*
X103378000Y-244348000D02*
X104665100Y-245635100D01*
X104665100Y-245635100D02*
X104665100Y-246979800D01*
X100330000Y-244348000D02*
X103378000Y-244348000D01*
X98396200Y-246281800D02*
X100330000Y-244348000D01*
X98396200Y-246979800D02*
X98396200Y-246281800D01*
D17*
X95856200Y-246979800D02*
X95856200Y-245851938D01*
X95856200Y-245851938D02*
X99460147Y-242247991D01*
X99460147Y-242247991D02*
X104973291Y-242247991D01*
X104973291Y-242247991D02*
X107205100Y-244479800D01*
X107205100Y-244479800D02*
X107205100Y-246979800D01*
X109745100Y-246979800D02*
X109745100Y-244479800D01*
X93316200Y-244479800D02*
X93316200Y-246979800D01*
X109745100Y-244479800D02*
X105913281Y-240647981D01*
X105913281Y-240647981D02*
X97148019Y-240647981D01*
X97148019Y-240647981D02*
X93316200Y-244479800D01*
D16*
X90776200Y-246979800D02*
X90776200Y-244049938D01*
X90776200Y-244049938D02*
X96278166Y-238547972D01*
X96278166Y-238547972D02*
X107353272Y-238547972D01*
X107353272Y-238547972D02*
X112285100Y-243479800D01*
X112285100Y-243479800D02*
X112285100Y-246979800D01*
X126174000Y-52535300D02*
X126174000Y-119055379D01*
X126174000Y-119055379D02*
X116949550Y-128279829D01*
X116949550Y-128279829D02*
X107465129Y-128279829D01*
X107465129Y-128279829D02*
X104665100Y-125479800D01*
X104665100Y-125479800D02*
X104665100Y-121979800D01*
D17*
X107205100Y-121979800D02*
X107205100Y-124479800D01*
X107205100Y-124479800D02*
X108905120Y-126179820D01*
X108905120Y-126179820D02*
X116079697Y-126179820D01*
X116079697Y-126179820D02*
X123634000Y-118625517D01*
X123634000Y-118625517D02*
X123634000Y-55035300D01*
X123634000Y-55035300D02*
X123634000Y-52535300D01*
X121094000Y-52535300D02*
X121094000Y-118902762D01*
X121094000Y-118902762D02*
X115416952Y-124579810D01*
X115416952Y-124579810D02*
X109845110Y-124579810D01*
X109845110Y-124579810D02*
X109745100Y-124479800D01*
X109745100Y-124479800D02*
X109745100Y-121979800D01*
D16*
X118618000Y-118408900D02*
X118554000Y-118344900D01*
X118554000Y-118344900D02*
X118554000Y-52535300D01*
X112285100Y-121979800D02*
X115047100Y-121979800D01*
X115047100Y-121979800D02*
X118618000Y-118408900D01*
X130556000Y-203962000D02*
X131907100Y-205313100D01*
X131907100Y-205313100D02*
X132442900Y-205313100D01*
X128270000Y-203962000D02*
X130556000Y-203962000D01*
X126174000Y-206058000D02*
X128270000Y-203962000D01*
X126174000Y-233090900D02*
X126174000Y-206058000D01*
D17*
X134982900Y-205313100D02*
X134982900Y-202813100D01*
X134982900Y-202813100D02*
X134031790Y-201861990D01*
X134031790Y-201861990D02*
X127400147Y-201861991D01*
X127400147Y-201861991D02*
X123634000Y-205628138D01*
X123634000Y-205628138D02*
X123634000Y-230590900D01*
X123634000Y-230590900D02*
X123634000Y-233090900D01*
X121094000Y-233090900D02*
X121094000Y-205905384D01*
X121094000Y-205905384D02*
X126737403Y-200261982D01*
X126737403Y-200261982D02*
X134971782Y-200261982D01*
X137522900Y-202813100D02*
X137522900Y-205313100D01*
X134971782Y-200261982D02*
X137522900Y-202813100D01*
D16*
X140062900Y-205313100D02*
X140062900Y-201813100D01*
X140062900Y-201813100D02*
X136411772Y-198161972D01*
X118554000Y-205475523D02*
X118554000Y-229590900D01*
X118554000Y-229590900D02*
X118554000Y-233090900D01*
X136411772Y-198161972D02*
X125867550Y-198161973D01*
X125867550Y-198161973D02*
X118554000Y-205475523D01*
X132442900Y-24757500D02*
X132442900Y-27687362D01*
X132442900Y-27687362D02*
X137987567Y-33232029D01*
X137987567Y-33232029D02*
X148977271Y-33232029D01*
X148977271Y-33232029D02*
X153951800Y-28257500D01*
X153951800Y-28257500D02*
X153951800Y-24757500D01*
D17*
X151411800Y-24757500D02*
X151411800Y-27257500D01*
X151411800Y-27257500D02*
X147537280Y-31132020D01*
X147537280Y-31132020D02*
X138857420Y-31132020D01*
X134982900Y-27257500D02*
X134982900Y-24757500D01*
X138857420Y-31132020D02*
X134982900Y-27257500D01*
X148871800Y-24757500D02*
X148871800Y-27257500D01*
X148871800Y-27257500D02*
X146597290Y-29532010D01*
X146597290Y-29532010D02*
X139797410Y-29532010D01*
X139797410Y-29532010D02*
X137522900Y-27257500D01*
X137522900Y-27257500D02*
X137522900Y-24757500D01*
D16*
X145034000Y-27432000D02*
X146331800Y-26134200D01*
X146331800Y-26134200D02*
X146331800Y-24757500D01*
X141732000Y-27432000D02*
X145034000Y-27432000D01*
X140062900Y-25762900D02*
X141732000Y-27432000D01*
X140062900Y-24757500D02*
X140062900Y-25762900D01*
X157603800Y-66424200D02*
X153951800Y-70076200D01*
X153951800Y-70076200D02*
X153951800Y-135868700D01*
X160220700Y-66424200D02*
X157603800Y-66424200D01*
D17*
X151411800Y-135868700D02*
X151411800Y-69646338D01*
X151411800Y-69646338D02*
X157233948Y-63824190D01*
X157233948Y-63824190D02*
X162660690Y-63824190D01*
X162660690Y-63824190D02*
X162760700Y-63924200D01*
X162760700Y-63924200D02*
X162760700Y-66424200D01*
X165300700Y-66424200D02*
X165300700Y-64201445D01*
X165300700Y-64201445D02*
X163323435Y-62224180D01*
X163323435Y-62224180D02*
X156571203Y-62224180D01*
X148871800Y-69923583D02*
X148871800Y-133368700D01*
X148871800Y-133368700D02*
X148871800Y-135868700D01*
X156571203Y-62224180D02*
X148871800Y-69923583D01*
D16*
X146331800Y-135868700D02*
X146331800Y-69493721D01*
X146331800Y-69493721D02*
X155701350Y-60124171D01*
X155701350Y-60124171D02*
X165040671Y-60124171D01*
X165040671Y-60124171D02*
X167840700Y-62924200D01*
X167840700Y-62924200D02*
X167840700Y-66424200D01*
D17*
X45974000Y-227330000D02*
X43974000Y-227330000D01*
X43974000Y-227330000D02*
X40300700Y-223656700D01*
X40300700Y-223656700D02*
X40300700Y-207813100D01*
X40300700Y-207813100D02*
X40300700Y-205313100D01*
X37760700Y-205313100D02*
X37760700Y-225148700D01*
X37760700Y-225148700D02*
X45974000Y-233362000D01*
X162760700Y-24757600D02*
X162760700Y-32533300D01*
X162760700Y-32533300D02*
X158972000Y-36322000D01*
X158972000Y-36322000D02*
X156972000Y-36322000D01*
X165300700Y-24757600D02*
X165300700Y-34025300D01*
X165300700Y-34025300D02*
X156972000Y-42354000D01*
M02*
