M48
;DRILL file {KiCad 4.0.6} date Mon Jul 10 19:19:51 2017
;FORMAT={-:-/ absolute / metric / decimal}
FMAT,2
METRIC,TZ
T1C0.600
%
G90
G05
M71
T1
X35.221Y-205.313
X35.221Y-246.98
X37.761Y-205.313
X37.761Y-246.98
X40.301Y-205.313
X40.301Y-246.98
X42.841Y-205.313
X42.841Y-246.98
X45.974Y-227.33
X45.974Y-233.362
X49.11Y-205.313
X49.11Y-260.869
X51.65Y-205.313
X51.65Y-260.869
X54.19Y-205.313
X54.19Y-260.869
X56.73Y-205.313
X56.73Y-260.869
X59.944Y-234.95
X59.944Y-240.982
X62.998Y-219.202
X62.998Y-260.869
X65.538Y-219.202
X65.538Y-260.869
X68.078Y-219.202
X68.078Y-260.869
X70.618Y-219.202
X70.618Y-260.869
X76.887Y-219.202
X76.887Y-260.869
X79.427Y-219.202
X79.427Y-260.869
X81.967Y-219.202
X81.967Y-260.869
X84.507Y-219.202
X84.507Y-260.869
X90.776Y-191.424
X90.776Y-246.98
X93.316Y-191.424
X93.316Y-246.98
X95.856Y-191.424
X95.856Y-246.98
X98.396Y-191.424
X98.396Y-246.98
X104.665Y-121.98
X104.665Y-246.98
X107.205Y-121.98
X107.205Y-246.98
X109.745Y-121.98
X109.745Y-246.98
X112.285Y-121.98
X112.285Y-246.98
X118.554Y-52.535
X118.554Y-233.091
X121.094Y-52.535
X121.094Y-233.091
X123.634Y-52.535
X123.634Y-233.091
X126.174Y-52.535
X126.174Y-233.091
X132.443Y-24.758
X132.443Y-205.313
X134.983Y-24.758
X134.983Y-205.313
X137.523Y-24.758
X137.523Y-205.313
X140.063Y-24.758
X140.063Y-205.313
X146.332Y-24.758
X146.332Y-135.869
X148.872Y-24.758
X148.872Y-135.869
X151.412Y-24.758
X151.412Y-135.869
X153.952Y-24.758
X153.952Y-135.869
X156.972Y-36.322
X156.972Y-42.354
X160.221Y-24.758
X160.221Y-66.424
X162.761Y-24.758
X162.761Y-66.424
X165.301Y-24.758
X165.301Y-66.424
X167.841Y-24.758
X167.841Y-66.424
T0
M30
