G04 #@! TF.FileFunction,Profile,NP*
%FSLAX46Y46*%
G04 Gerber Fmt 4.6, Leading zero omitted, Abs format (unit mm)*
G04 Created by KiCad (PCBNEW 4.0.6) date Mon Jul 10 19:19:00 2017*
%MOMM*%
%LPD*%
G01*
G04 APERTURE LIST*
%ADD10C,0.100000*%
%ADD11C,0.150000*%
G04 APERTURE END LIST*
D10*
D11*
X85010000Y-32977300D02*
X87010000Y-32977300D01*
X85010000Y-32977300D02*
X85010000Y-34977300D01*
X89010000Y-32977300D02*
X98898900Y-32977300D01*
X98898900Y-32977300D02*
X100898900Y-32977300D01*
X87010000Y-32977300D02*
X89010000Y-32977300D01*
X102898900Y-32977300D02*
X112787800Y-32977300D01*
X112787800Y-32977300D02*
X114787800Y-32977300D01*
X100898900Y-32977300D02*
X102898900Y-32977300D01*
X116787800Y-32977300D02*
X126676700Y-32977300D01*
X126676700Y-32977300D02*
X128676700Y-32977300D01*
X114787800Y-32977300D02*
X116787800Y-32977300D01*
X130676700Y-32977300D02*
X140565600Y-32977300D01*
X140565600Y-32977300D02*
X142565600Y-32977300D01*
X128676700Y-32977300D02*
X130676700Y-32977300D01*
X144565600Y-32977300D02*
X144565600Y-34977300D01*
X142565600Y-32977300D02*
X144565600Y-32977300D01*
X71121100Y-46866200D02*
X73121100Y-46866200D01*
X71121100Y-46866200D02*
X71121100Y-48866200D01*
X85010000Y-34977300D02*
X85010000Y-36977300D01*
X75121100Y-46866200D02*
X85010000Y-46866200D01*
X73121100Y-46866200D02*
X75121100Y-46866200D01*
X85010000Y-36977300D02*
X85010000Y-46866200D01*
X144565600Y-34977300D02*
X144565600Y-36977300D01*
X144565600Y-36977300D02*
X144565600Y-46866200D01*
X144565600Y-46866200D02*
X154454400Y-46866200D01*
X154454400Y-46866200D02*
X156454400Y-46866200D01*
X158454400Y-46866200D02*
X158454400Y-48866200D01*
X156454400Y-46866200D02*
X158454400Y-46866200D01*
X57232200Y-60755100D02*
X59232200Y-60755100D01*
X57232200Y-60755100D02*
X57232200Y-62755100D01*
X71121100Y-48866200D02*
X71121100Y-50866200D01*
X61232200Y-60755100D02*
X71121100Y-60755100D01*
X59232200Y-60755100D02*
X61232200Y-60755100D01*
X71121100Y-50866200D02*
X71121100Y-60755100D01*
X158454400Y-48866200D02*
X158454400Y-50866200D01*
X158454400Y-50866200D02*
X158454400Y-60755100D01*
X158454400Y-60755100D02*
X158454400Y-62755100D01*
X57232200Y-62755100D02*
X57232200Y-64755100D01*
X57232200Y-74644000D02*
X57232200Y-76644000D01*
X57232200Y-64755100D02*
X57232200Y-74644000D01*
X112787800Y-74644000D02*
X112787800Y-76644000D01*
X102898900Y-74644000D02*
X102898900Y-76644000D01*
X102898900Y-64755100D02*
X112787800Y-64755100D01*
X112787800Y-64755100D02*
X112787800Y-74644000D01*
X102898900Y-64755100D02*
X102898900Y-74644000D01*
X158454400Y-62755100D02*
X158454400Y-64755100D01*
X158454400Y-64755100D02*
X158454400Y-74644000D01*
X158454400Y-74644000D02*
X158454400Y-76644000D01*
X57232200Y-76644000D02*
X57232200Y-78644000D01*
X57232200Y-88532900D02*
X57232200Y-90532900D01*
X57232200Y-78644000D02*
X57232200Y-88532900D01*
X98898900Y-78644000D02*
X100898900Y-78644000D01*
X98898900Y-88532900D02*
X100898900Y-88532900D01*
X89010000Y-78644000D02*
X98898900Y-78644000D01*
X89010000Y-88532900D02*
X98898900Y-88532900D01*
X89010000Y-78644000D02*
X89010000Y-88532900D01*
X102898900Y-76644000D02*
X102898900Y-78644000D01*
X112787800Y-76644000D02*
X112787800Y-78644000D01*
X112787800Y-78644000D02*
X114787800Y-78644000D01*
X112787800Y-88532900D02*
X114787800Y-88532900D01*
X112787800Y-88532900D02*
X112787800Y-90532900D01*
X102898900Y-88532900D02*
X102898900Y-90532900D01*
X100898900Y-88532900D02*
X102898900Y-88532900D01*
X100898900Y-78644000D02*
X102898900Y-78644000D01*
X114787800Y-88532900D02*
X116787800Y-88532900D01*
X114787800Y-78644000D02*
X116787800Y-78644000D01*
X116787800Y-78644000D02*
X126676700Y-78644000D01*
X126676700Y-78644000D02*
X126676700Y-88532900D01*
X116787800Y-88532900D02*
X126676700Y-88532900D01*
X158454400Y-76644000D02*
X158454400Y-78644000D01*
X158454400Y-78644000D02*
X158454400Y-88532900D01*
X158454400Y-88532900D02*
X158454400Y-90532900D01*
X57232200Y-90532900D02*
X57232200Y-92532900D01*
X57232200Y-102421800D02*
X57232200Y-104421800D01*
X57232200Y-92532900D02*
X57232200Y-102421800D01*
X102898900Y-90532900D02*
X102898900Y-92532900D01*
X112787800Y-90532900D02*
X112787800Y-92532900D01*
X112787800Y-92532900D02*
X112787800Y-102421800D01*
X102898900Y-102421800D02*
X112787800Y-102421800D01*
X102898900Y-92532900D02*
X102898900Y-102421800D01*
X158454400Y-90532900D02*
X158454400Y-92532900D01*
X158454400Y-92532900D02*
X158454400Y-102421800D01*
X158454400Y-102421800D02*
X158454400Y-104421800D01*
X43343300Y-116310700D02*
X45343300Y-116310700D01*
X43343300Y-116310700D02*
X43343300Y-118310700D01*
X57232200Y-104421800D02*
X57232200Y-106421800D01*
X47343300Y-116310700D02*
X57232200Y-116310700D01*
X45343300Y-116310700D02*
X47343300Y-116310700D01*
X57232200Y-106421800D02*
X57232200Y-116310700D01*
X154454400Y-106421800D02*
X156454400Y-106421800D01*
X154454400Y-116310700D02*
X156454400Y-116310700D01*
X154454400Y-116310700D02*
X154454400Y-118310700D01*
X144565600Y-116310700D02*
X144565600Y-118310700D01*
X144565600Y-106421800D02*
X154454400Y-106421800D01*
X144565600Y-106421800D02*
X144565600Y-116310700D01*
X158454400Y-104421800D02*
X158454400Y-106421800D01*
X168343300Y-116310700D02*
X170343300Y-116310700D01*
X156454400Y-116310700D02*
X158454400Y-116310700D01*
X156454400Y-106421800D02*
X158454400Y-106421800D01*
X158454400Y-116310700D02*
X168343300Y-116310700D01*
X172343300Y-116310700D02*
X182232200Y-116310700D01*
X182232200Y-116310700D02*
X184232200Y-116310700D01*
X170343300Y-116310700D02*
X172343300Y-116310700D01*
X186232200Y-116310700D02*
X186232200Y-118310700D01*
X184232200Y-116310700D02*
X186232200Y-116310700D01*
X29454400Y-130199600D02*
X31454400Y-130199600D01*
X29454400Y-130199600D02*
X29454400Y-132199600D01*
X43343300Y-118310700D02*
X43343300Y-120310700D01*
X33454400Y-130199600D02*
X43343300Y-130199600D01*
X31454400Y-130199600D02*
X33454400Y-130199600D01*
X43343300Y-120310700D02*
X43343300Y-130199600D01*
X126676700Y-120310700D02*
X128676700Y-120310700D01*
X126676700Y-130199600D02*
X128676700Y-130199600D01*
X116787800Y-120310700D02*
X126676700Y-120310700D01*
X116787800Y-130199600D02*
X126676700Y-130199600D01*
X116787800Y-120310700D02*
X116787800Y-130199600D01*
X140565600Y-120310700D02*
X142565600Y-120310700D01*
X140565600Y-130199600D02*
X142565600Y-130199600D01*
X140565600Y-130199600D02*
X140565600Y-132199600D01*
X130676700Y-130199600D02*
X130676700Y-132199600D01*
X128676700Y-130199600D02*
X130676700Y-130199600D01*
X128676700Y-120310700D02*
X130676700Y-120310700D01*
X130676700Y-120310700D02*
X140565600Y-120310700D01*
X144565600Y-118310700D02*
X144565600Y-120310700D01*
X154454400Y-118310700D02*
X154454400Y-120310700D01*
X142565600Y-130199600D02*
X144565600Y-130199600D01*
X142565600Y-120310700D02*
X144565600Y-120310700D01*
X154454400Y-120310700D02*
X154454400Y-130199600D01*
X144565600Y-130199600D02*
X154454400Y-130199600D01*
X186232200Y-118310700D02*
X186232200Y-120310700D01*
X186232200Y-120310700D02*
X186232200Y-130199600D01*
X186232200Y-130199600D02*
X186232200Y-132199600D01*
X29454400Y-132199600D02*
X29454400Y-134199600D01*
X29454400Y-144088400D02*
X29454400Y-146088400D01*
X29454400Y-134199600D02*
X29454400Y-144088400D01*
X130676700Y-132199600D02*
X130676700Y-134199600D01*
X140565600Y-132199600D02*
X140565600Y-134199600D01*
X140565600Y-144088400D02*
X140565600Y-146088400D01*
X130676700Y-144088400D02*
X130676700Y-146088400D01*
X140565600Y-134199600D02*
X140565600Y-144088400D01*
X130676700Y-134199600D02*
X130676700Y-144088400D01*
X186232200Y-132199600D02*
X186232200Y-134199600D01*
X186232200Y-134199600D02*
X186232200Y-144088400D01*
X186232200Y-144088400D02*
X186232200Y-146088400D01*
X29454400Y-146088400D02*
X29454400Y-148088400D01*
X29454400Y-157977300D02*
X29454400Y-159977300D01*
X29454400Y-148088400D02*
X29454400Y-157977300D01*
X85010000Y-157977300D02*
X85010000Y-159977300D01*
X75121100Y-157977300D02*
X75121100Y-159977300D01*
X75121100Y-148088400D02*
X85010000Y-148088400D01*
X85010000Y-148088400D02*
X85010000Y-157977300D01*
X75121100Y-148088400D02*
X75121100Y-157977300D01*
X130676700Y-146088400D02*
X130676700Y-148088400D01*
X140565600Y-146088400D02*
X140565600Y-148088400D01*
X140565600Y-148088400D02*
X140565600Y-157977300D01*
X130676700Y-157977300D02*
X140565600Y-157977300D01*
X130676700Y-148088400D02*
X130676700Y-157977300D01*
X172343300Y-148088400D02*
X182232200Y-148088400D01*
X182232200Y-148088400D02*
X184232200Y-148088400D01*
X172343300Y-148088400D02*
X172343300Y-157977300D01*
X172343300Y-157977300D02*
X172343300Y-159977300D01*
X186232200Y-146088400D02*
X186232200Y-148088400D01*
X184232200Y-148088400D02*
X186232200Y-148088400D01*
X29454400Y-159977300D02*
X29454400Y-161977300D01*
X29454400Y-171866200D02*
X29454400Y-173866200D01*
X29454400Y-161977300D02*
X29454400Y-171866200D01*
X71121100Y-161977300D02*
X73121100Y-161977300D01*
X71121100Y-171866200D02*
X73121100Y-171866200D01*
X61232200Y-161977300D02*
X71121100Y-161977300D01*
X61232200Y-171866200D02*
X71121100Y-171866200D01*
X61232200Y-161977300D02*
X61232200Y-171866200D01*
X75121100Y-159977300D02*
X75121100Y-161977300D01*
X85010000Y-159977300D02*
X85010000Y-161977300D01*
X85010000Y-161977300D02*
X87010000Y-161977300D01*
X75121100Y-171866200D02*
X75121100Y-173866200D01*
X73121100Y-171866200D02*
X75121100Y-171866200D01*
X73121100Y-161977300D02*
X75121100Y-161977300D01*
X89010000Y-161977300D02*
X98898900Y-161977300D01*
X98898900Y-161977300D02*
X98898900Y-171866200D01*
X98898900Y-171866200D02*
X98898900Y-173866200D01*
X87010000Y-161977300D02*
X89010000Y-161977300D01*
X172343300Y-159977300D02*
X172343300Y-161977300D01*
X172343300Y-161977300D02*
X172343300Y-171866200D01*
X172343300Y-171866200D02*
X172343300Y-173866200D01*
X29454400Y-173866200D02*
X29454400Y-175866200D01*
X29454400Y-185755100D02*
X29454400Y-187755100D01*
X29454400Y-175866200D02*
X29454400Y-185755100D01*
X75121100Y-173866200D02*
X75121100Y-175866200D01*
X75121100Y-175866200D02*
X75121100Y-185755100D01*
X75121100Y-185755100D02*
X85010000Y-185755100D01*
X85010000Y-185755100D02*
X87010000Y-185755100D01*
X98898900Y-173866200D02*
X98898900Y-175866200D01*
X89010000Y-185755100D02*
X98898900Y-185755100D01*
X87010000Y-185755100D02*
X89010000Y-185755100D01*
X98898900Y-175866200D02*
X98898900Y-185755100D01*
X168343300Y-175866200D02*
X170343300Y-175866200D01*
X168343300Y-185755100D02*
X170343300Y-185755100D01*
X158454400Y-175866200D02*
X168343300Y-175866200D01*
X158454400Y-185755100D02*
X168343300Y-185755100D01*
X158454400Y-175866200D02*
X158454400Y-185755100D01*
X172343300Y-173866200D02*
X172343300Y-175866200D01*
X172343300Y-185755100D02*
X172343300Y-187755100D01*
X170343300Y-185755100D02*
X172343300Y-185755100D01*
X170343300Y-175866200D02*
X172343300Y-175866200D01*
X29454400Y-187755100D02*
X29454400Y-189755100D01*
X29454400Y-199644000D02*
X29454400Y-201644000D01*
X29454400Y-189755100D02*
X29454400Y-199644000D01*
X172343300Y-187755100D02*
X172343300Y-189755100D01*
X172343300Y-189755100D02*
X172343300Y-199644000D01*
X172343300Y-199644000D02*
X172343300Y-201644000D01*
X29454400Y-201644000D02*
X29454400Y-203644000D01*
X29454400Y-203644000D02*
X31454400Y-203644000D01*
X33454400Y-203644000D02*
X43343300Y-203644000D01*
X43343300Y-203644000D02*
X43343300Y-213532900D01*
X43343300Y-213532900D02*
X43343300Y-215532900D01*
X31454400Y-203644000D02*
X33454400Y-203644000D01*
X126676700Y-213532900D02*
X126676700Y-215532900D01*
X116787800Y-213532900D02*
X116787800Y-215532900D01*
X116787800Y-203644000D02*
X126676700Y-203644000D01*
X126676700Y-203644000D02*
X126676700Y-213532900D01*
X116787800Y-203644000D02*
X116787800Y-213532900D01*
X172343300Y-201644000D02*
X172343300Y-203644000D01*
X172343300Y-203644000D02*
X172343300Y-213532900D01*
X172343300Y-213532900D02*
X172343300Y-215532900D01*
X43343300Y-215532900D02*
X43343300Y-217532900D01*
X43343300Y-217532900D02*
X45343300Y-217532900D01*
X47343300Y-217532900D02*
X57232200Y-217532900D01*
X57232200Y-217532900D02*
X59232200Y-217532900D01*
X45343300Y-217532900D02*
X47343300Y-217532900D01*
X61232200Y-217532900D02*
X71121100Y-217532900D01*
X71121100Y-217532900D02*
X73121100Y-217532900D01*
X59232200Y-217532900D02*
X61232200Y-217532900D01*
X75121100Y-217532900D02*
X85010000Y-217532900D01*
X85010000Y-217532900D02*
X87010000Y-217532900D01*
X73121100Y-217532900D02*
X75121100Y-217532900D01*
X89010000Y-217532900D02*
X98898900Y-217532900D01*
X98898900Y-217532900D02*
X100898900Y-217532900D01*
X87010000Y-217532900D02*
X89010000Y-217532900D01*
X102898900Y-217532900D02*
X112787800Y-217532900D01*
X112787800Y-217532900D02*
X114787800Y-217532900D01*
X100898900Y-217532900D02*
X102898900Y-217532900D01*
X116787800Y-215532900D02*
X116787800Y-217532900D01*
X126676700Y-215532900D02*
X126676700Y-217532900D01*
X126676700Y-217532900D02*
X128676700Y-217532900D01*
X114787800Y-217532900D02*
X116787800Y-217532900D01*
X130676700Y-217532900D02*
X140565600Y-217532900D01*
X140565600Y-217532900D02*
X142565600Y-217532900D01*
X128676700Y-217532900D02*
X130676700Y-217532900D01*
X144565600Y-217532900D02*
X154454400Y-217532900D01*
X154454400Y-217532900D02*
X156454400Y-217532900D01*
X142565600Y-217532900D02*
X144565600Y-217532900D01*
X158454400Y-217532900D02*
X168343300Y-217532900D01*
X168343300Y-217532900D02*
X170343300Y-217532900D01*
X156454400Y-217532900D02*
X158454400Y-217532900D01*
X172343300Y-215532900D02*
X172343300Y-217532900D01*
X170343300Y-217532900D02*
X172343300Y-217532900D01*
M02*
