G04 #@! TF.FileFunction,Copper,L2,Bot,Signal*
%FSLAX46Y46*%
G04 Gerber Fmt 4.6, Leading zero omitted, Abs format (unit mm)*
G04 Created by KiCad (PCBNEW 4.0.6) date Mon Jul 10 19:19:00 2017*
%MOMM*%
%LPD*%
G01*
G04 APERTURE LIST*
%ADD10C,0.100000*%
%ADD11O,1.524000X3.000000*%
%ADD12R,2.000000X2.000000*%
%ADD13O,2.000000X2.000000*%
%ADD14R,3.000000X3.000000*%
%ADD15O,3.000000X3.000000*%
%ADD16C,0.600000*%
%ADD17C,2.000000*%
%ADD18C,1.000000*%
G04 APERTURE END LIST*
D10*
D11*
X42208900Y-132199600D03*
X39668900Y-132199600D03*
X37128900Y-132199600D03*
X34588900Y-132199600D03*
X42208900Y-201644000D03*
X39668900Y-201644000D03*
X37128900Y-201644000D03*
X34588900Y-201644000D03*
X48477800Y-215532900D03*
X51017800Y-215532900D03*
X53557800Y-215532900D03*
X56097800Y-215532900D03*
X48477800Y-118310700D03*
X51017800Y-118310700D03*
X53557800Y-118310700D03*
X56097800Y-118310700D03*
X62366700Y-159977300D03*
X64906700Y-159977300D03*
X67446700Y-159977300D03*
X69986700Y-159977300D03*
X62366700Y-62755100D03*
X64906700Y-62755100D03*
X67446700Y-62755100D03*
X69986700Y-62755100D03*
X69986700Y-173866300D03*
X67446700Y-173866300D03*
X64906700Y-173866300D03*
X62366700Y-173866300D03*
X69986700Y-215532900D03*
X67446700Y-215532900D03*
X64906700Y-215532900D03*
X62366700Y-215532900D03*
X83875600Y-48866200D03*
X81335600Y-48866200D03*
X78795600Y-48866200D03*
X76255600Y-48866200D03*
X83875600Y-146088400D03*
X81335600Y-146088400D03*
X78795600Y-146088400D03*
X76255600Y-146088400D03*
X76255600Y-215532900D03*
X78795600Y-215532900D03*
X81335600Y-215532900D03*
X83875600Y-215532900D03*
X76255600Y-187755100D03*
X78795600Y-187755100D03*
X81335600Y-187755100D03*
X83875600Y-187755100D03*
X90144400Y-76644000D03*
X92684400Y-76644000D03*
X95224400Y-76644000D03*
X97764400Y-76644000D03*
X90144400Y-34977400D03*
X92684400Y-34977400D03*
X95224400Y-34977400D03*
X97764400Y-34977400D03*
X90144400Y-159977300D03*
X92684400Y-159977300D03*
X95224400Y-159977300D03*
X97764400Y-159977300D03*
X90144400Y-90532900D03*
X92684400Y-90532900D03*
X95224400Y-90532900D03*
X97764400Y-90532900D03*
X97764400Y-187755100D03*
X95224400Y-187755100D03*
X92684400Y-187755100D03*
X90144400Y-187755100D03*
X97764400Y-215532900D03*
X95224400Y-215532900D03*
X92684400Y-215532900D03*
X90144400Y-215532900D03*
X111653300Y-34977300D03*
X109113300Y-34977300D03*
X106573300Y-34977300D03*
X104033300Y-34977300D03*
X111653300Y-62755100D03*
X109113300Y-62755100D03*
X106573300Y-62755100D03*
X104033300Y-62755100D03*
X111653300Y-104421700D03*
X109113300Y-104421700D03*
X106573300Y-104421700D03*
X104033300Y-104421700D03*
X111653300Y-215532900D03*
X109113300Y-215532900D03*
X106573300Y-215532900D03*
X104033300Y-215532900D03*
X117922200Y-76644000D03*
X120462200Y-76644000D03*
X123002200Y-76644000D03*
X125542200Y-76644000D03*
X117922200Y-34977400D03*
X120462200Y-34977400D03*
X123002200Y-34977400D03*
X125542200Y-34977400D03*
X125542200Y-90532900D03*
X123002200Y-90532900D03*
X120462200Y-90532900D03*
X117922200Y-90532900D03*
X125542200Y-118310700D03*
X123002200Y-118310700D03*
X120462200Y-118310700D03*
X117922200Y-118310700D03*
X117922200Y-201644000D03*
X120462200Y-201644000D03*
X123002200Y-201644000D03*
X125542200Y-201644000D03*
X117922200Y-132199600D03*
X120462200Y-132199600D03*
X123002200Y-132199600D03*
X125542200Y-132199600D03*
X131811100Y-118310700D03*
X134351100Y-118310700D03*
X136891100Y-118310700D03*
X139431100Y-118310700D03*
X131811100Y-34977300D03*
X134351100Y-34977300D03*
X136891100Y-34977300D03*
X139431100Y-34977300D03*
X139431100Y-159977300D03*
X136891100Y-159977300D03*
X134351100Y-159977300D03*
X131811100Y-159977300D03*
X139431100Y-215532900D03*
X136891100Y-215532900D03*
X134351100Y-215532900D03*
X131811100Y-215532900D03*
X153320000Y-48866200D03*
X150780000Y-48866200D03*
X148240000Y-48866200D03*
X145700000Y-48866200D03*
X153320000Y-104421800D03*
X150780000Y-104421800D03*
X148240000Y-104421800D03*
X145700000Y-104421800D03*
X145700000Y-215532900D03*
X148240000Y-215532900D03*
X150780000Y-215532900D03*
X153320000Y-215532900D03*
X145700000Y-132199500D03*
X148240000Y-132199500D03*
X150780000Y-132199500D03*
X153320000Y-132199500D03*
X167208900Y-118310600D03*
X164668900Y-118310600D03*
X162128900Y-118310600D03*
X159588900Y-118310600D03*
X167208900Y-173866200D03*
X164668900Y-173866200D03*
X162128900Y-173866200D03*
X159588900Y-173866200D03*
X167208900Y-187755100D03*
X164668900Y-187755100D03*
X162128900Y-187755100D03*
X159588900Y-187755100D03*
X167208900Y-215532900D03*
X164668900Y-215532900D03*
X162128900Y-215532900D03*
X159588900Y-215532900D03*
X173477800Y-146088500D03*
X176017800Y-146088500D03*
X178557800Y-146088500D03*
X181097800Y-146088500D03*
X173477800Y-118310700D03*
X176017800Y-118310700D03*
X178557800Y-118310700D03*
X181097800Y-118310700D03*
D12*
X73152000Y-70866000D03*
D13*
X73152000Y-76898000D03*
D12*
X128778000Y-94742000D03*
D13*
X128778000Y-100774000D03*
D14*
X100838000Y-124206000D03*
D15*
X100838000Y-130238000D03*
D16*
X149647970Y-146008030D03*
X171704000Y-125984000D03*
X180086000Y-131826000D03*
X156718000Y-149860000D03*
D17*
X105918000Y-118364000D02*
X105918000Y-125158000D01*
X105918000Y-125158000D02*
X100838000Y-130238000D01*
X117668200Y-106613800D02*
X105918000Y-118364000D01*
X117922200Y-106613800D02*
X117668200Y-106613800D01*
X117922200Y-90532900D02*
X117922200Y-106613800D01*
X94488000Y-133858000D02*
X94488000Y-127056000D01*
X94488000Y-127056000D02*
X97338000Y-124206000D01*
X97338000Y-124206000D02*
X100838000Y-124206000D01*
X95758000Y-135128000D02*
X94488000Y-133858000D01*
X104902000Y-135128000D02*
X95758000Y-135128000D01*
X109474000Y-130556000D02*
X104902000Y-135128000D01*
X109474000Y-119581931D02*
X109474000Y-130556000D01*
X125542200Y-90532900D02*
X129448902Y-90532900D01*
X129448902Y-90532900D02*
X131378001Y-92461999D01*
X131378001Y-92461999D02*
X131378001Y-102022001D01*
X131378001Y-102022001D02*
X125468041Y-107931961D01*
X125468041Y-107931961D02*
X121123970Y-107931961D01*
X121123970Y-107931961D02*
X109474000Y-119581931D01*
X47244000Y-134366000D02*
X48477800Y-133132200D01*
X48477800Y-133132200D02*
X48477800Y-118310700D01*
X43434000Y-134366000D02*
X47244000Y-134366000D01*
X42208900Y-133140900D02*
X43434000Y-134366000D01*
X42208900Y-132199600D02*
X42208900Y-133140900D01*
D18*
X51017800Y-118310700D02*
X51017800Y-133562062D01*
X48113853Y-136466009D02*
X41435309Y-136466009D01*
X51017800Y-133562062D02*
X48113853Y-136466009D01*
X41435309Y-136466009D02*
X39668900Y-134699600D01*
X39668900Y-134699600D02*
X39668900Y-132199600D01*
X37128900Y-132199600D02*
X37128900Y-134699600D01*
X37128900Y-134699600D02*
X40495319Y-138066019D01*
X40495319Y-138066019D02*
X48776598Y-138066019D01*
X48776598Y-138066019D02*
X53557800Y-133284817D01*
X53557800Y-133284817D02*
X53557800Y-120810700D01*
X53557800Y-120810700D02*
X53557800Y-118310700D01*
D17*
X56097800Y-118310700D02*
X56097800Y-133714679D01*
X56097800Y-133714679D02*
X49646451Y-140166028D01*
X49646451Y-140166028D02*
X39055328Y-140166028D01*
X39055328Y-140166028D02*
X34588900Y-135699600D01*
X34588900Y-135699600D02*
X34588900Y-132199600D01*
X50038000Y-157480000D02*
X42208900Y-165309100D01*
X42208900Y-165309100D02*
X42208900Y-201644000D01*
X60706000Y-157480000D02*
X50038000Y-157480000D01*
X62366700Y-159140700D02*
X60706000Y-157480000D01*
X62366700Y-159977300D02*
X62366700Y-159140700D01*
D18*
X39668900Y-201644000D02*
X39668900Y-164879238D01*
X39668900Y-164879238D02*
X49168148Y-155379990D01*
X49168148Y-155379990D02*
X62809390Y-155379990D01*
X62809390Y-155379990D02*
X64906700Y-157477300D01*
X64906700Y-157477300D02*
X64906700Y-159977300D01*
X67446700Y-159977300D02*
X67446700Y-157477300D01*
X67446700Y-157477300D02*
X63749380Y-153779980D01*
X63749380Y-153779980D02*
X48505403Y-153779980D01*
X37128900Y-199144000D02*
X37128900Y-201644000D01*
X48505403Y-153779980D02*
X37128900Y-165156483D01*
X37128900Y-165156483D02*
X37128900Y-199144000D01*
D17*
X34588900Y-201644000D02*
X34588900Y-164726621D01*
X34588900Y-164726621D02*
X47635550Y-151679971D01*
X47635550Y-151679971D02*
X65189371Y-151679971D01*
X65189371Y-151679971D02*
X69986700Y-156477300D01*
X69986700Y-156477300D02*
X69986700Y-159977300D01*
X69986700Y-215532900D02*
X69986700Y-212603038D01*
X69986700Y-212603038D02*
X64689632Y-207305970D01*
X64689632Y-207305970D02*
X53774867Y-207305971D01*
X53774867Y-207305971D02*
X48655790Y-212425048D01*
X48655790Y-212425048D02*
X48655790Y-215354910D01*
X48655790Y-215354910D02*
X48477800Y-215532900D01*
D18*
X51017800Y-215532900D02*
X51017800Y-213032900D01*
X51017800Y-213032900D02*
X54644720Y-209405980D01*
X54644720Y-209405980D02*
X63819780Y-209405980D01*
X63819780Y-209405980D02*
X67446700Y-213032900D01*
X67446700Y-213032900D02*
X67446700Y-215532900D01*
X64906700Y-215532900D02*
X64906700Y-213032900D01*
X64906700Y-213032900D02*
X62879790Y-211005990D01*
X62879790Y-211005990D02*
X55584710Y-211005990D01*
X55584710Y-211005990D02*
X53557800Y-213032900D01*
X53557800Y-213032900D02*
X53557800Y-215532900D01*
D17*
X56097800Y-215532900D02*
X56097800Y-215174200D01*
X56097800Y-215174200D02*
X58166000Y-213106000D01*
X58166000Y-213106000D02*
X60706000Y-213106000D01*
X60706000Y-213106000D02*
X62366700Y-214766700D01*
X62366700Y-214766700D02*
X62366700Y-215532900D01*
X71628000Y-190754000D02*
X69986700Y-189112700D01*
X69986700Y-189112700D02*
X69986700Y-173866300D01*
X73914000Y-190754000D02*
X71628000Y-190754000D01*
X76255600Y-188412400D02*
X73914000Y-190754000D01*
X76255600Y-187755100D02*
X76255600Y-188412400D01*
D18*
X67446700Y-173866300D02*
X67446700Y-189542562D01*
X67446700Y-189542562D02*
X70758147Y-192854009D01*
X70758147Y-192854009D02*
X76196691Y-192854009D01*
X76196691Y-192854009D02*
X78795600Y-190255100D01*
X78795600Y-190255100D02*
X78795600Y-187755100D01*
X81335600Y-187755100D02*
X81335600Y-190255100D01*
X77136681Y-194454019D02*
X70095402Y-194454019D01*
X64906700Y-176366300D02*
X64906700Y-173866300D01*
X81335600Y-190255100D02*
X77136681Y-194454019D01*
X70095402Y-194454019D02*
X64906700Y-189265317D01*
X64906700Y-189265317D02*
X64906700Y-176366300D01*
D17*
X62366700Y-173866300D02*
X62366700Y-189695179D01*
X62366700Y-189695179D02*
X69225549Y-196554028D01*
X69225549Y-196554028D02*
X78576672Y-196554028D01*
X78576672Y-196554028D02*
X83875600Y-191255100D01*
X83875600Y-191255100D02*
X83875600Y-187755100D01*
X85090000Y-51054000D02*
X83875600Y-49839600D01*
X83875600Y-49839600D02*
X83875600Y-48866200D01*
X87122000Y-51054000D02*
X85090000Y-51054000D01*
X90144400Y-48031600D02*
X87122000Y-51054000D01*
X90144400Y-34977400D02*
X90144400Y-48031600D01*
D18*
X81335600Y-48866200D02*
X81335600Y-51366200D01*
X81335600Y-51366200D02*
X83123410Y-53154010D01*
X83123410Y-53154010D02*
X87991853Y-53154009D01*
X87991853Y-53154009D02*
X92684400Y-48461462D01*
X92684400Y-48461462D02*
X92684400Y-37477400D01*
X92684400Y-37477400D02*
X92684400Y-34977400D01*
X95224400Y-34977400D02*
X95224400Y-48184216D01*
X95224400Y-48184216D02*
X88654597Y-54754018D01*
X88654597Y-54754018D02*
X82183418Y-54754018D01*
X82183418Y-54754018D02*
X78795600Y-51366200D01*
X78795600Y-51366200D02*
X78795600Y-48866200D01*
D17*
X76255600Y-48866200D02*
X76255600Y-52366200D01*
X89524450Y-56854027D02*
X97764400Y-48614077D01*
X76255600Y-52366200D02*
X80743428Y-56854028D01*
X80743428Y-56854028D02*
X89524450Y-56854027D01*
X97764400Y-48614077D02*
X97764400Y-38477400D01*
X97764400Y-38477400D02*
X97764400Y-34977400D01*
X88392000Y-144526000D02*
X90144400Y-146278400D01*
X90144400Y-146278400D02*
X90144400Y-159977300D01*
X85598000Y-144526000D02*
X88392000Y-144526000D01*
X84035600Y-146088400D02*
X85598000Y-144526000D01*
X83875600Y-146088400D02*
X84035600Y-146088400D01*
D18*
X81335600Y-146088400D02*
X81335600Y-145257121D01*
X81335600Y-145257121D02*
X84166731Y-142425990D01*
X92684400Y-145848538D02*
X92684400Y-157477300D01*
X84166731Y-142425990D02*
X89261853Y-142425991D01*
X92684400Y-157477300D02*
X92684400Y-159977300D01*
X89261853Y-142425991D02*
X92684400Y-145848538D01*
X95224400Y-159977300D02*
X95224400Y-146125783D01*
X81558018Y-140825982D02*
X78795600Y-143588400D01*
X95224400Y-146125783D02*
X89924597Y-140825982D01*
X89924597Y-140825982D02*
X81558018Y-140825982D01*
X78795600Y-143588400D02*
X78795600Y-146088400D01*
D17*
X76255600Y-146088400D02*
X76255600Y-143158538D01*
X76255600Y-143158538D02*
X80688166Y-138725972D01*
X97764400Y-145695923D02*
X97764400Y-156477300D01*
X80688166Y-138725972D02*
X90794450Y-138725973D01*
X90794450Y-138725973D02*
X97764400Y-145695923D01*
X97764400Y-156477300D02*
X97764400Y-159977300D01*
X97764400Y-215532900D02*
X97676900Y-215532900D01*
X97586410Y-215442410D02*
X97586410Y-212425048D01*
X97676900Y-215532900D02*
X97586410Y-215442410D01*
X97586410Y-212425048D02*
X92467333Y-207305971D01*
X92467333Y-207305971D02*
X80982529Y-207305971D01*
X76255600Y-212032900D02*
X76255600Y-215532900D01*
X80982529Y-207305971D02*
X76255600Y-212032900D01*
D18*
X78795600Y-215532900D02*
X78795600Y-213032900D01*
X78795600Y-213032900D02*
X82422520Y-209405980D01*
X82422520Y-209405980D02*
X91597480Y-209405980D01*
X91597480Y-209405980D02*
X95224400Y-213032900D01*
X95224400Y-213032900D02*
X95224400Y-215532900D01*
X92684400Y-215532900D02*
X92684400Y-213032900D01*
X92684400Y-213032900D02*
X90657490Y-211005990D01*
X90657490Y-211005990D02*
X83362510Y-211005990D01*
X83362510Y-211005990D02*
X81335600Y-213032900D01*
X81335600Y-213032900D02*
X81335600Y-215532900D01*
D17*
X88392000Y-213106000D02*
X90144400Y-214858400D01*
X90144400Y-214858400D02*
X90144400Y-215532900D01*
X85598000Y-213106000D02*
X88392000Y-213106000D01*
X83875600Y-214828400D02*
X85598000Y-213106000D01*
X83875600Y-215532900D02*
X83875600Y-214828400D01*
X90144400Y-76644000D02*
X90144400Y-63197121D01*
X90144400Y-63197121D02*
X98181550Y-55159971D01*
X98181550Y-55159971D02*
X107558171Y-55159971D01*
X107558171Y-55159971D02*
X111653300Y-59255100D01*
X111653300Y-59255100D02*
X111653300Y-62755100D01*
D18*
X109113300Y-62755100D02*
X109113300Y-60255100D01*
X109113300Y-60255100D02*
X106118180Y-57259980D01*
X92684400Y-74144000D02*
X92684400Y-76644000D01*
X106118180Y-57259980D02*
X99051403Y-57259980D01*
X99051403Y-57259980D02*
X92684400Y-63626983D01*
X92684400Y-63626983D02*
X92684400Y-74144000D01*
X95224400Y-76644000D02*
X95224400Y-63349738D01*
X95224400Y-63349738D02*
X99714148Y-58859990D01*
X106573300Y-60255100D02*
X106573300Y-62755100D01*
X99714148Y-58859990D02*
X105178190Y-58859990D01*
X105178190Y-58859990D02*
X106573300Y-60255100D01*
D17*
X100584000Y-60960000D02*
X97764400Y-63779600D01*
X97764400Y-63779600D02*
X97764400Y-76644000D01*
X103378000Y-60960000D02*
X100584000Y-60960000D01*
X104033300Y-61615300D02*
X103378000Y-60960000D01*
X104033300Y-62755100D02*
X104033300Y-61615300D01*
X90144400Y-90532900D02*
X90144400Y-106474879D01*
X90144400Y-106474879D02*
X96911549Y-113242028D01*
X96911549Y-113242028D02*
X106332972Y-113242028D01*
X106332972Y-113242028D02*
X111653300Y-107921700D01*
X111653300Y-107921700D02*
X111653300Y-104421700D01*
D18*
X109113300Y-104421700D02*
X109113300Y-106921700D01*
X97781402Y-111142019D02*
X92684400Y-106045017D01*
X109113300Y-106921700D02*
X104892981Y-111142019D01*
X104892981Y-111142019D02*
X97781402Y-111142019D01*
X92684400Y-106045017D02*
X92684400Y-93032900D01*
X92684400Y-93032900D02*
X92684400Y-90532900D01*
X95224400Y-90532900D02*
X95224400Y-106322262D01*
X103952991Y-109542009D02*
X106573300Y-106921700D01*
X95224400Y-106322262D02*
X98444147Y-109542009D01*
X98444147Y-109542009D02*
X103952991Y-109542009D01*
X106573300Y-106921700D02*
X106573300Y-104421700D01*
D17*
X99314000Y-107442000D02*
X97764400Y-105892400D01*
X97764400Y-105892400D02*
X97764400Y-90532900D01*
X102616000Y-107442000D02*
X99314000Y-107442000D01*
X104033300Y-106024700D02*
X102616000Y-107442000D01*
X104033300Y-104421700D02*
X104033300Y-106024700D01*
X97764400Y-187755100D02*
X97764400Y-191255100D01*
X97764400Y-191255100D02*
X99041300Y-192532000D01*
X99041300Y-192532000D02*
X100822075Y-192532000D01*
X100822075Y-192532000D02*
X107910142Y-185443933D01*
X167208900Y-212032900D02*
X167208900Y-215532900D01*
X107910142Y-185443933D02*
X141202411Y-185443934D01*
X167208900Y-211450423D02*
X167208900Y-212032900D01*
X141202411Y-185443934D02*
X167208900Y-211450423D01*
D18*
X100887957Y-195435980D02*
X97899980Y-195435980D01*
X95224400Y-192760400D02*
X95224400Y-190255100D01*
X97899980Y-195435980D02*
X95224400Y-192760400D01*
X95224400Y-190255100D02*
X95224400Y-187755100D01*
X108779994Y-187543943D02*
X100887957Y-195435980D01*
X164668900Y-215532900D02*
X164668900Y-211880284D01*
X164668900Y-211880284D02*
X140332558Y-187543943D01*
X140332558Y-187543943D02*
X108779994Y-187543943D01*
X139669814Y-189143952D02*
X162128900Y-211603038D01*
X162128900Y-211603038D02*
X162128900Y-215532900D01*
X101550701Y-197035990D02*
X109442740Y-189143951D01*
X109442740Y-189143951D02*
X139669814Y-189143952D01*
X95435990Y-197035990D02*
X101550701Y-197035990D01*
X92684400Y-194470390D02*
X93980000Y-195765990D01*
X93980000Y-195765990D02*
X94165990Y-195765990D01*
X94165990Y-195765990D02*
X95435990Y-197035990D01*
X92684400Y-187755100D02*
X92684400Y-194470390D01*
D17*
X159588900Y-215532900D02*
X159588900Y-212032900D01*
X159588900Y-212032900D02*
X138799961Y-191243961D01*
X138799961Y-191243961D02*
X110312592Y-191243961D01*
X110312592Y-191243961D02*
X102420553Y-199136000D01*
X102420553Y-199136000D02*
X94234000Y-199136000D01*
X94234000Y-199136000D02*
X90144400Y-195046400D01*
X90144400Y-195046400D02*
X90144400Y-187755100D01*
X115316000Y-37338000D02*
X117676600Y-34977400D01*
X117676600Y-34977400D02*
X117922200Y-34977400D01*
X113538000Y-37338000D02*
X115316000Y-37338000D01*
X111653300Y-35453300D02*
X113538000Y-37338000D01*
X111653300Y-34977300D02*
X111653300Y-35453300D01*
D18*
X120462200Y-34977400D02*
X120462200Y-37477400D01*
X120462200Y-37477400D02*
X118501590Y-39438010D01*
X118501590Y-39438010D02*
X111074010Y-39438010D01*
X111074010Y-39438010D02*
X109113300Y-37477300D01*
X109113300Y-37477300D02*
X109113300Y-34977300D01*
X106573300Y-34977300D02*
X106573300Y-37477300D01*
X106573300Y-37477300D02*
X110134020Y-41038020D01*
X110134020Y-41038020D02*
X119441580Y-41038020D01*
X119441580Y-41038020D02*
X123002200Y-37477400D01*
X123002200Y-37477400D02*
X123002200Y-34977400D01*
D17*
X125542200Y-34977400D02*
X125542200Y-38477400D01*
X125542200Y-38477400D02*
X120881571Y-43138029D01*
X120881571Y-43138029D02*
X108694029Y-43138029D01*
X108694029Y-43138029D02*
X104033300Y-38477300D01*
X104033300Y-38477300D02*
X104033300Y-34977300D01*
X113792000Y-199644000D02*
X111653300Y-201782700D01*
X111653300Y-201782700D02*
X111653300Y-215532900D01*
X116586000Y-199644000D02*
X113792000Y-199644000D01*
X117922200Y-200980200D02*
X116586000Y-199644000D01*
X117922200Y-201644000D02*
X117922200Y-200980200D01*
D18*
X109113300Y-215532900D02*
X109113300Y-201352838D01*
X120462200Y-199144000D02*
X120462200Y-201644000D01*
X109113300Y-201352838D02*
X112922148Y-197543990D01*
X118862190Y-197543990D02*
X120462200Y-199144000D01*
X112922148Y-197543990D02*
X118862190Y-197543990D01*
X123002200Y-201644000D02*
X123002200Y-199144000D01*
X123002200Y-199144000D02*
X119802180Y-195943980D01*
X119802180Y-195943980D02*
X112259403Y-195943980D01*
X106573300Y-213032900D02*
X106573300Y-215532900D01*
X112259403Y-195943980D02*
X106573300Y-201630083D01*
X106573300Y-201630083D02*
X106573300Y-213032900D01*
D17*
X104033300Y-215532900D02*
X104033300Y-201200221D01*
X104033300Y-201200221D02*
X111389551Y-193843970D01*
X111389551Y-193843970D02*
X120672033Y-193843971D01*
X120672033Y-193843971D02*
X125364210Y-198536148D01*
X125364210Y-198536148D02*
X125364210Y-201466010D01*
X125364210Y-201466010D02*
X125542200Y-201644000D01*
X153320000Y-104421800D02*
X153320000Y-88729522D01*
X153320000Y-88729522D02*
X134228449Y-69637971D01*
X134228449Y-69637971D02*
X121428229Y-69637971D01*
X121428229Y-69637971D02*
X117922200Y-73144000D01*
X117922200Y-73144000D02*
X117922200Y-76644000D01*
D18*
X120462200Y-76644000D02*
X120462200Y-74144000D01*
X120462200Y-74144000D02*
X122868220Y-71737980D01*
X122868220Y-71737980D02*
X133358596Y-71737980D01*
X133358596Y-71737980D02*
X150780000Y-89159384D01*
X150780000Y-89159384D02*
X150780000Y-101921800D01*
X150780000Y-101921800D02*
X150780000Y-104421800D01*
X148240000Y-104421800D02*
X148240000Y-88882138D01*
X148240000Y-88882138D02*
X132695852Y-73337990D01*
X132695852Y-73337990D02*
X123808210Y-73337990D01*
X123808210Y-73337990D02*
X123002200Y-74144000D01*
X123002200Y-74144000D02*
X123002200Y-76644000D01*
D17*
X131826000Y-75438000D02*
X145700000Y-89312000D01*
X145700000Y-89312000D02*
X145700000Y-104421800D01*
X126492000Y-75438000D02*
X131826000Y-75438000D01*
X125542200Y-76387800D02*
X126492000Y-75438000D01*
X125542200Y-76644000D02*
X125542200Y-76387800D01*
X130048000Y-116332000D02*
X131811100Y-118095100D01*
X131811100Y-118095100D02*
X131811100Y-118310700D01*
X127000000Y-116332000D02*
X130048000Y-116332000D01*
X125542200Y-117789800D02*
X127000000Y-116332000D01*
X125542200Y-118310700D02*
X125542200Y-117789800D01*
D18*
X134351100Y-118310700D02*
X134351100Y-115810700D01*
X134351100Y-115810700D02*
X132772390Y-114231990D01*
X132772390Y-114231990D02*
X124580910Y-114231990D01*
X124580910Y-114231990D02*
X123002200Y-115810700D01*
X123002200Y-115810700D02*
X123002200Y-118310700D01*
X120462200Y-118310700D02*
X120462200Y-116087946D01*
X120462200Y-116087946D02*
X123918165Y-112631980D01*
X123918165Y-112631980D02*
X133712380Y-112631980D01*
X133712380Y-112631980D02*
X136891100Y-115810700D01*
X136891100Y-115810700D02*
X136891100Y-118310700D01*
D17*
X139431100Y-118310700D02*
X139431100Y-115380838D01*
X139431100Y-115380838D02*
X134582233Y-110531971D01*
X134582233Y-110531971D02*
X122200929Y-110531971D01*
X122200929Y-110531971D02*
X117922200Y-114810700D01*
X117922200Y-114810700D02*
X117922200Y-118310700D01*
X117922200Y-132199600D02*
X117922200Y-160922679D01*
X117922200Y-160922679D02*
X124851549Y-167852028D01*
X124851549Y-167852028D02*
X135056372Y-167852028D01*
X135056372Y-167852028D02*
X139431100Y-163477300D01*
X139431100Y-163477300D02*
X139431100Y-159977300D01*
D18*
X136891100Y-159977300D02*
X136891100Y-162200055D01*
X136891100Y-162200055D02*
X133339136Y-165752019D01*
X133339136Y-165752019D02*
X125721402Y-165752019D01*
X120462200Y-160492817D02*
X120462200Y-134699600D01*
X125721402Y-165752019D02*
X120462200Y-160492817D01*
X120462200Y-134699600D02*
X120462200Y-132199600D01*
X123002200Y-132199600D02*
X123002200Y-160770062D01*
X123002200Y-160770062D02*
X126384147Y-164152009D01*
X126384147Y-164152009D02*
X132676391Y-164152009D01*
X132676391Y-164152009D02*
X134351100Y-162477300D01*
X134351100Y-162477300D02*
X134351100Y-159977300D01*
D17*
X125476000Y-160274000D02*
X125542200Y-160207800D01*
X125542200Y-160207800D02*
X125542200Y-132199600D01*
X127254000Y-162052000D02*
X125476000Y-160274000D01*
X131274786Y-162052000D02*
X127254000Y-162052000D01*
X131811100Y-159977300D02*
X131811100Y-161515686D01*
X131811100Y-161515686D02*
X131274786Y-162052000D01*
X131811100Y-34977300D02*
X131811100Y-49589579D01*
X131811100Y-49589579D02*
X139329550Y-57108029D01*
X139329550Y-57108029D02*
X148578171Y-57108029D01*
X148578171Y-57108029D02*
X153320000Y-52366200D01*
X153320000Y-52366200D02*
X153320000Y-48866200D01*
D18*
X150780000Y-48866200D02*
X150780000Y-51366200D01*
X150780000Y-51366200D02*
X147138180Y-55008020D01*
X134351100Y-49159717D02*
X134351100Y-37477300D01*
X147138180Y-55008020D02*
X140199403Y-55008020D01*
X140199403Y-55008020D02*
X134351100Y-49159717D01*
X134351100Y-37477300D02*
X134351100Y-34977300D01*
X136891100Y-34977300D02*
X136891100Y-49436962D01*
X136891100Y-49436962D02*
X140862148Y-53408010D01*
X140862148Y-53408010D02*
X146198190Y-53408010D01*
X146198190Y-53408010D02*
X148240000Y-51366200D01*
X148240000Y-51366200D02*
X148240000Y-48866200D01*
D17*
X141732000Y-51308000D02*
X139431100Y-49007100D01*
X139431100Y-49007100D02*
X139431100Y-34977300D01*
X144272000Y-51308000D02*
X141732000Y-51308000D01*
X145700000Y-49880000D02*
X144272000Y-51308000D01*
X145700000Y-48866200D02*
X145700000Y-49880000D01*
X139431100Y-215532900D02*
X139431100Y-215152900D01*
X139431100Y-215152900D02*
X141224000Y-213360000D01*
X141224000Y-213360000D02*
X143527100Y-213360000D01*
X143527100Y-213360000D02*
X145700000Y-215532900D01*
D18*
X148240000Y-215532900D02*
X148240000Y-213032900D01*
X136891100Y-213032900D02*
X136891100Y-215532900D01*
X148240000Y-213032900D02*
X146467090Y-211259990D01*
X146467090Y-211259990D02*
X138664010Y-211259990D01*
X138664010Y-211259990D02*
X136891100Y-213032900D01*
X134351100Y-215532900D02*
X134351100Y-213032900D01*
X134351100Y-213032900D02*
X137724020Y-209659980D01*
X137724020Y-209659980D02*
X147429980Y-209659980D01*
X147429980Y-209659980D02*
X150780000Y-213010000D01*
X150780000Y-213010000D02*
X150780000Y-213032900D01*
X150780000Y-213032900D02*
X150780000Y-215532900D01*
D17*
X153320000Y-215532900D02*
X153320000Y-212032900D01*
X153320000Y-212032900D02*
X148847071Y-207559971D01*
X148847071Y-207559971D02*
X136284029Y-207559971D01*
X136284029Y-207559971D02*
X131811100Y-212032900D01*
X131811100Y-212032900D02*
X131811100Y-215532900D01*
X167208900Y-118310600D02*
X167208900Y-131823579D01*
X167208900Y-131823579D02*
X159120450Y-139912029D01*
X145700000Y-135699500D02*
X145700000Y-132199500D01*
X159120450Y-139912029D02*
X149912529Y-139912029D01*
X149912529Y-139912029D02*
X145700000Y-135699500D01*
D18*
X148240000Y-132199500D02*
X148240000Y-134422255D01*
X148240000Y-134422255D02*
X151629765Y-137812020D01*
X151629765Y-137812020D02*
X158250597Y-137812020D01*
X158250597Y-137812020D02*
X164668900Y-131393717D01*
X164668900Y-131393717D02*
X164668900Y-120810600D01*
X164668900Y-120810600D02*
X164668900Y-118310600D01*
X162128900Y-118310600D02*
X162128900Y-131670962D01*
X162128900Y-131670962D02*
X157587852Y-136212010D01*
X157587852Y-136212010D02*
X152292510Y-136212010D01*
X152292510Y-136212010D02*
X150780000Y-134699500D01*
X150780000Y-134699500D02*
X150780000Y-132199500D01*
D17*
X156718000Y-134112000D02*
X159588900Y-131241100D01*
X159588900Y-131241100D02*
X159588900Y-118310600D01*
X154432000Y-134112000D02*
X156718000Y-134112000D01*
X153320000Y-133000000D02*
X154432000Y-134112000D01*
X153320000Y-132199500D02*
X153320000Y-133000000D01*
X170246300Y-146745700D02*
X167208900Y-149783100D01*
X167208900Y-149783100D02*
X167208900Y-173866200D01*
X170246300Y-146558000D02*
X170246300Y-146745700D01*
X173477800Y-146088500D02*
X170715800Y-146088500D01*
X170715800Y-146088500D02*
X170246300Y-146558000D01*
D18*
X164668900Y-173866200D02*
X164668900Y-149165538D01*
X164668900Y-149165538D02*
X170345948Y-143488490D01*
X170345948Y-143488490D02*
X175917790Y-143488490D01*
X175917790Y-143488490D02*
X176017800Y-143588500D01*
X176017800Y-143588500D02*
X176017800Y-146088500D01*
X178557800Y-146088500D02*
X178557800Y-143588500D01*
X178557800Y-143588500D02*
X176857780Y-141888480D01*
X176857780Y-141888480D02*
X169683203Y-141888480D01*
X169683203Y-141888480D02*
X162128900Y-149442783D01*
X162128900Y-149442783D02*
X162128900Y-171366200D01*
X162128900Y-171366200D02*
X162128900Y-173866200D01*
D17*
X159588900Y-173866200D02*
X159588900Y-149012921D01*
X159588900Y-149012921D02*
X168813350Y-139788471D01*
X168813350Y-139788471D02*
X178297771Y-139788471D01*
X178297771Y-139788471D02*
X181097800Y-142588500D01*
X181097800Y-142588500D02*
X181097800Y-146088500D01*
D18*
X123002200Y-90532900D02*
X123002200Y-93032900D01*
X123002200Y-93032900D02*
X124711300Y-94742000D01*
X124711300Y-94742000D02*
X126778000Y-94742000D01*
X126778000Y-94742000D02*
X128778000Y-94742000D01*
X120462200Y-95062200D02*
X126174000Y-100774000D01*
X126174000Y-100774000D02*
X128778000Y-100774000D01*
X120462200Y-90532900D02*
X120462200Y-95062200D01*
X64906700Y-62755100D02*
X64906700Y-75066700D01*
X64906700Y-75066700D02*
X71374000Y-81534000D01*
X71374000Y-81534000D02*
X75946000Y-81534000D01*
X73660000Y-70866000D02*
X73152000Y-70866000D01*
X75946000Y-81534000D02*
X77470000Y-80010000D01*
X77470000Y-80010000D02*
X77470000Y-74676000D01*
X77470000Y-74676000D02*
X73660000Y-70866000D01*
X67446700Y-62755100D02*
X67446700Y-71192700D01*
X67446700Y-71192700D02*
X73152000Y-76898000D01*
D17*
X173477800Y-118310700D02*
X173477800Y-124210200D01*
X173477800Y-124210200D02*
X171704000Y-125984000D01*
X167208900Y-187755100D02*
X167208900Y-190684963D01*
X154924450Y-194055129D02*
X149647970Y-188778649D01*
X167208900Y-190684963D02*
X163838734Y-194055129D01*
X163838734Y-194055129D02*
X154924450Y-194055129D01*
X149647970Y-188778649D02*
X149647970Y-146008030D01*
D18*
X176017800Y-118310700D02*
X176017800Y-125984541D01*
X176017800Y-125984541D02*
X157806351Y-144195990D01*
X157806351Y-144195990D02*
X156641393Y-144195990D01*
X156641393Y-144195990D02*
X151747980Y-149089403D01*
X162968880Y-191955120D02*
X164668900Y-190255100D01*
X151747980Y-149089403D02*
X151747980Y-187908797D01*
X151747980Y-187908797D02*
X155794303Y-191955120D01*
X164668900Y-190255100D02*
X164668900Y-187755100D01*
X155794303Y-191955120D02*
X162968880Y-191955120D01*
X157304138Y-145796000D02*
X159835959Y-145796000D01*
X159835959Y-145796000D02*
X178557800Y-127074159D01*
X178557800Y-127074159D02*
X178557800Y-120810700D01*
X178557800Y-120810700D02*
X178557800Y-118310700D01*
X162128900Y-188586379D02*
X160360169Y-190355110D01*
X160360169Y-190355110D02*
X156457048Y-190355110D01*
X153347990Y-149752148D02*
X157304138Y-145796000D01*
X156457048Y-190355110D02*
X153347990Y-187246052D01*
X153347990Y-187246052D02*
X153347990Y-149752148D01*
X162128900Y-187755100D02*
X162128900Y-188586379D01*
D17*
X180086000Y-131826000D02*
X181097800Y-130814200D01*
X181097800Y-130814200D02*
X181097800Y-118310700D01*
X155448000Y-151130000D02*
X156718000Y-149860000D01*
X155448000Y-166116000D02*
X155448000Y-151130000D01*
X155448000Y-186376200D02*
X155448000Y-166116000D01*
X159588900Y-187755100D02*
X156826900Y-187755100D01*
X156826900Y-187755100D02*
X155448000Y-186376200D01*
M02*
