M48
;DRILL file {KiCad 4.0.6} date Mon Jul 10 19:19:01 2017
;FORMAT={-:-/ absolute / metric / decimal}
FMAT,2
METRIC,TZ
T1C0.600
%
G90
G05
M71
T1
X34.589Y-132.2
X34.589Y-201.644
X37.129Y-132.2
X37.129Y-201.644
X39.669Y-132.2
X39.669Y-201.644
X42.209Y-132.2
X42.209Y-201.644
X48.478Y-118.311
X48.478Y-215.533
X51.018Y-118.311
X51.018Y-215.533
X53.558Y-118.311
X53.558Y-215.533
X56.098Y-118.311
X56.098Y-215.533
X62.367Y-62.755
X62.367Y-159.977
X62.367Y-173.866
X62.367Y-215.533
X64.907Y-62.755
X64.907Y-159.977
X64.907Y-173.866
X64.907Y-215.533
X67.447Y-62.755
X67.447Y-159.977
X67.447Y-173.866
X67.447Y-215.533
X69.987Y-62.755
X69.987Y-159.977
X69.987Y-173.866
X69.987Y-215.533
X73.152Y-70.866
X73.152Y-76.898
X76.256Y-48.866
X76.256Y-146.088
X76.256Y-187.755
X76.256Y-215.533
X78.796Y-48.866
X78.796Y-146.088
X78.796Y-187.755
X78.796Y-215.533
X81.336Y-48.866
X81.336Y-146.088
X81.336Y-187.755
X81.336Y-215.533
X83.876Y-48.866
X83.876Y-146.088
X83.876Y-187.755
X83.876Y-215.533
X90.144Y-34.977
X90.144Y-76.644
X90.144Y-90.533
X90.144Y-159.977
X90.144Y-187.755
X90.144Y-215.533
X92.684Y-34.977
X92.684Y-76.644
X92.684Y-90.533
X92.684Y-159.977
X92.684Y-187.755
X92.684Y-215.533
X95.224Y-34.977
X95.224Y-76.644
X95.224Y-90.533
X95.224Y-159.977
X95.224Y-187.755
X95.224Y-215.533
X97.764Y-34.977
X97.764Y-76.644
X97.764Y-90.533
X97.764Y-159.977
X97.764Y-187.755
X97.764Y-215.533
X100.838Y-124.206
X100.838Y-130.238
X104.033Y-34.977
X104.033Y-62.755
X104.033Y-104.422
X104.033Y-215.533
X106.573Y-34.977
X106.573Y-62.755
X106.573Y-104.422
X106.573Y-215.533
X109.113Y-34.977
X109.113Y-62.755
X109.113Y-104.422
X109.113Y-215.533
X111.653Y-34.977
X111.653Y-62.755
X111.653Y-104.422
X111.653Y-215.533
X117.922Y-34.977
X117.922Y-76.644
X117.922Y-90.533
X117.922Y-118.311
X117.922Y-132.2
X117.922Y-201.644
X120.462Y-34.977
X120.462Y-76.644
X120.462Y-90.533
X120.462Y-118.311
X120.462Y-132.2
X120.462Y-201.644
X123.002Y-34.977
X123.002Y-76.644
X123.002Y-90.533
X123.002Y-118.311
X123.002Y-132.2
X123.002Y-201.644
X125.542Y-34.977
X125.542Y-76.644
X125.542Y-90.533
X125.542Y-118.311
X125.542Y-132.2
X125.542Y-201.644
X128.778Y-94.742
X128.778Y-100.774
X131.811Y-34.977
X131.811Y-118.311
X131.811Y-159.977
X131.811Y-215.533
X134.351Y-34.977
X134.351Y-118.311
X134.351Y-159.977
X134.351Y-215.533
X136.891Y-34.977
X136.891Y-118.311
X136.891Y-159.977
X136.891Y-215.533
X139.431Y-34.977
X139.431Y-118.311
X139.431Y-159.977
X139.431Y-215.533
X145.7Y-48.866
X145.7Y-104.422
X145.7Y-132.2
X145.7Y-215.533
X148.24Y-48.866
X148.24Y-104.422
X148.24Y-132.2
X148.24Y-215.533
X149.648Y-146.008
X150.78Y-48.866
X150.78Y-104.422
X150.78Y-132.2
X150.78Y-215.533
X153.32Y-48.866
X153.32Y-104.422
X153.32Y-132.2
X153.32Y-215.533
X156.718Y-149.86
X159.589Y-118.311
X159.589Y-173.866
X159.589Y-187.755
X159.589Y-215.533
X162.129Y-118.311
X162.129Y-173.866
X162.129Y-187.755
X162.129Y-215.533
X164.669Y-118.311
X164.669Y-173.866
X164.669Y-187.755
X164.669Y-215.533
X167.209Y-118.311
X167.209Y-173.866
X167.209Y-187.755
X167.209Y-215.533
X171.704Y-125.984
X173.478Y-118.311
X173.478Y-146.088
X176.018Y-118.311
X176.018Y-146.088
X178.558Y-118.311
X178.558Y-146.088
X180.086Y-131.826
X181.098Y-118.311
X181.098Y-146.088
T0
M30
