G04 #@! TF.FileFunction,Copper,L2,Bot,Signal*
%FSLAX46Y46*%
G04 Gerber Fmt 4.6, Leading zero omitted, Abs format (unit mm)*
G04 Created by KiCad (PCBNEW 4.0.6) date Mon Jul 10 19:20:08 2017*
%MOMM*%
%LPD*%
G01*
G04 APERTURE LIST*
%ADD10C,0.100000*%
%ADD11O,1.524000X3.000000*%
%ADD12R,2.000000X2.000000*%
%ADD13O,2.000000X2.000000*%
%ADD14R,3.000000X3.000000*%
%ADD15O,3.000000X3.000000*%
%ADD16C,0.600000*%
%ADD17C,2.000000*%
%ADD18C,1.000000*%
G04 APERTURE END LIST*
D10*
D11*
X25293300Y-170316700D03*
X22753300Y-170316700D03*
X20213300Y-170316700D03*
X17673300Y-170316700D03*
X25293300Y-239761100D03*
X22753300Y-239761100D03*
X20213300Y-239761100D03*
X17673300Y-239761100D03*
X31562200Y-253650000D03*
X34102200Y-253650000D03*
X36642200Y-253650000D03*
X39182200Y-253650000D03*
X31562200Y-128650000D03*
X34102200Y-128650000D03*
X36642200Y-128650000D03*
X39182200Y-128650000D03*
X53071100Y-114761100D03*
X50531100Y-114761100D03*
X47991100Y-114761100D03*
X45451100Y-114761100D03*
X53071100Y-267538900D03*
X50531100Y-267538900D03*
X47991100Y-267538900D03*
X45451100Y-267538900D03*
X66960000Y-114761100D03*
X64420000Y-114761100D03*
X61880000Y-114761100D03*
X59340000Y-114761100D03*
X66960000Y-184205500D03*
X64420000Y-184205500D03*
X61880000Y-184205500D03*
X59340000Y-184205500D03*
X59340000Y-267538900D03*
X61880000Y-267538900D03*
X64420000Y-267538900D03*
X66960000Y-267538900D03*
X59340000Y-225872300D03*
X61880000Y-225872300D03*
X64420000Y-225872300D03*
X66960000Y-225872300D03*
X73228900Y-156427800D03*
X75768900Y-156427800D03*
X78308900Y-156427800D03*
X80848900Y-156427800D03*
X73228900Y-100872200D03*
X75768900Y-100872200D03*
X78308900Y-100872200D03*
X80848900Y-100872200D03*
X80848900Y-225872300D03*
X78308900Y-225872300D03*
X75768900Y-225872300D03*
X73228900Y-225872300D03*
X80848900Y-267538900D03*
X78308900Y-267538900D03*
X75768900Y-267538900D03*
X73228900Y-267538900D03*
X94737800Y-100872300D03*
X92197800Y-100872300D03*
X89657800Y-100872300D03*
X87117800Y-100872300D03*
X94737800Y-142538900D03*
X92197800Y-142538900D03*
X89657800Y-142538900D03*
X87117800Y-142538900D03*
X87117800Y-253650000D03*
X89657800Y-253650000D03*
X92197800Y-253650000D03*
X94737800Y-253650000D03*
X87117800Y-225872200D03*
X89657800Y-225872200D03*
X92197800Y-225872200D03*
X94737800Y-225872200D03*
X101006700Y-142538900D03*
X103546700Y-142538900D03*
X106086700Y-142538900D03*
X108626700Y-142538900D03*
X101006700Y-100872300D03*
X103546700Y-100872300D03*
X106086700Y-100872300D03*
X108626700Y-100872300D03*
X108626700Y-211983400D03*
X106086700Y-211983400D03*
X103546700Y-211983400D03*
X101006700Y-211983400D03*
X108626700Y-253650000D03*
X106086700Y-253650000D03*
X103546700Y-253650000D03*
X101006700Y-253650000D03*
X122515600Y-114761100D03*
X119975600Y-114761100D03*
X117435600Y-114761100D03*
X114895600Y-114761100D03*
X122515600Y-156427700D03*
X119975600Y-156427700D03*
X117435600Y-156427700D03*
X114895600Y-156427700D03*
X114895600Y-267538900D03*
X117435600Y-267538900D03*
X119975600Y-267538900D03*
X122515600Y-267538900D03*
X114895600Y-170316700D03*
X117435600Y-170316700D03*
X119975600Y-170316700D03*
X122515600Y-170316700D03*
X128784400Y-267538900D03*
X131324400Y-267538900D03*
X133864400Y-267538900D03*
X136404400Y-267538900D03*
X128784400Y-100872300D03*
X131324400Y-100872300D03*
X133864400Y-100872300D03*
X136404400Y-100872300D03*
X150293300Y-45316700D03*
X147753300Y-45316700D03*
X145213300Y-45316700D03*
X142673300Y-45316700D03*
X150293300Y-239761100D03*
X147753300Y-239761100D03*
X145213300Y-239761100D03*
X142673300Y-239761100D03*
X156562200Y-170316600D03*
X159102200Y-170316600D03*
X161642200Y-170316600D03*
X164182200Y-170316600D03*
X156562200Y-31427800D03*
X159102200Y-31427800D03*
X161642200Y-31427800D03*
X164182200Y-31427800D03*
X178071100Y-31427700D03*
X175531100Y-31427700D03*
X172991100Y-31427700D03*
X170451100Y-31427700D03*
X178071100Y-114761100D03*
X175531100Y-114761100D03*
X172991100Y-114761100D03*
X170451100Y-114761100D03*
X184340000Y-45316600D03*
X186880000Y-45316600D03*
X189420000Y-45316600D03*
X191960000Y-45316600D03*
X184340000Y-31427800D03*
X186880000Y-31427800D03*
X189420000Y-31427800D03*
X191960000Y-31427800D03*
D12*
X56134000Y-168656000D03*
D13*
X56134000Y-174688000D03*
D12*
X28448000Y-179832000D03*
D13*
X28448000Y-185864000D03*
D14*
X28448000Y-194056000D03*
D15*
X28448000Y-200088000D03*
D16*
X169313305Y-44853306D03*
X181864000Y-35306000D03*
X166370000Y-62230000D03*
X191960000Y-36766000D03*
X170451100Y-61993100D03*
X190754000Y-40640000D03*
D17*
X17673300Y-170316700D02*
X17673300Y-189313300D01*
X17673300Y-189313300D02*
X28448000Y-200088000D01*
X34290000Y-176022000D02*
X28584700Y-170316700D01*
X28584700Y-170316700D02*
X25293300Y-170316700D01*
X34290000Y-187706000D02*
X34290000Y-176022000D01*
X28448000Y-193548000D02*
X34290000Y-187706000D01*
X28448000Y-194056000D02*
X28448000Y-193548000D01*
X30226000Y-237236000D02*
X31562200Y-238572200D01*
X31562200Y-238572200D02*
X31562200Y-253650000D01*
X26670000Y-237236000D02*
X30226000Y-237236000D01*
X25293300Y-238612700D02*
X26670000Y-237236000D01*
X25293300Y-239761100D02*
X25293300Y-238612700D01*
D18*
X26240138Y-234696000D02*
X30655862Y-234696000D01*
X30655862Y-234696000D02*
X34102200Y-238142338D01*
X34102200Y-238142338D02*
X34102200Y-251150000D01*
X34102200Y-251150000D02*
X34102200Y-253650000D01*
X22753300Y-239761100D02*
X22753300Y-238182838D01*
X22753300Y-238182838D02*
X26240138Y-234696000D01*
X20213300Y-239761100D02*
X20213300Y-237261100D01*
X20213300Y-237261100D02*
X24378410Y-233095990D01*
X24378410Y-233095990D02*
X31318607Y-233095990D01*
X31318607Y-233095990D02*
X36642200Y-238419583D01*
X36642200Y-238419583D02*
X36642200Y-253650000D01*
D17*
X17673300Y-239761100D02*
X17673300Y-236831238D01*
X17673300Y-236831238D02*
X23508558Y-230995980D01*
X23508558Y-230995980D02*
X32188460Y-230995981D01*
X32188460Y-230995981D02*
X39182200Y-237989721D01*
X39182200Y-237989721D02*
X39182200Y-250150000D01*
X39182200Y-250150000D02*
X39182200Y-253650000D01*
X31562200Y-128650000D02*
X31562200Y-132150000D01*
X31562200Y-132150000D02*
X35768230Y-136356030D01*
X35768230Y-136356030D02*
X46090450Y-136356029D01*
X46090450Y-136356029D02*
X53071100Y-129375379D01*
X53071100Y-129375379D02*
X53071100Y-118261100D01*
X53071100Y-118261100D02*
X53071100Y-114761100D01*
D18*
X50531100Y-114761100D02*
X50531100Y-128945517D01*
X50531100Y-128945517D02*
X45220597Y-134256020D01*
X45220597Y-134256020D02*
X37208220Y-134256020D01*
X37208220Y-134256020D02*
X34102200Y-131150000D01*
X34102200Y-131150000D02*
X34102200Y-128650000D01*
X47991100Y-114761100D02*
X47991100Y-129222762D01*
X47991100Y-129222762D02*
X44557852Y-132656010D01*
X44557852Y-132656010D02*
X38148210Y-132656010D01*
X38148210Y-132656010D02*
X36642200Y-131150000D01*
X36642200Y-131150000D02*
X36642200Y-128650000D01*
D17*
X43688000Y-130556000D02*
X45451100Y-128792900D01*
X45451100Y-128792900D02*
X45451100Y-114761100D01*
X40386000Y-130556000D02*
X43688000Y-130556000D01*
X39182200Y-129352200D02*
X40386000Y-130556000D01*
X39182200Y-128650000D02*
X39182200Y-129352200D01*
X57404000Y-265176000D02*
X59340000Y-267112000D01*
X59340000Y-267112000D02*
X59340000Y-267538900D01*
X54610000Y-265176000D02*
X57404000Y-265176000D01*
X53071100Y-266714900D02*
X54610000Y-265176000D01*
X53071100Y-267538900D02*
X53071100Y-266714900D01*
D18*
X50531100Y-267538900D02*
X50531100Y-266285038D01*
X50531100Y-266285038D02*
X53740148Y-263075990D01*
X53740148Y-263075990D02*
X59917090Y-263075990D01*
X59917090Y-263075990D02*
X61880000Y-265038900D01*
X61880000Y-265038900D02*
X61880000Y-267538900D01*
X64420000Y-267538900D02*
X64420000Y-265316146D01*
X64420000Y-265316146D02*
X60579834Y-261475980D01*
X60579834Y-261475980D02*
X51554020Y-261475980D01*
X51554020Y-261475980D02*
X47991100Y-265038900D01*
X47991100Y-265038900D02*
X47991100Y-267538900D01*
D17*
X45451100Y-267538900D02*
X45451100Y-264609038D01*
X66782010Y-267360910D02*
X66960000Y-267538900D01*
X45451100Y-264609038D02*
X50684168Y-259375970D01*
X50684168Y-259375970D02*
X61449687Y-259375971D01*
X61449687Y-259375971D02*
X66782010Y-264708294D01*
X66782010Y-264708294D02*
X66782010Y-267360910D01*
X70104000Y-114300000D02*
X73228900Y-111175100D01*
X73228900Y-111175100D02*
X73228900Y-100872200D01*
X70104000Y-114379100D02*
X70104000Y-114300000D01*
X66960000Y-114761100D02*
X69722000Y-114761100D01*
X69722000Y-114761100D02*
X70104000Y-114379100D01*
D18*
X75768900Y-100872200D02*
X75768900Y-111684062D01*
X64520010Y-117361110D02*
X64420000Y-117261100D01*
X75768900Y-111684062D02*
X70091852Y-117361110D01*
X70091852Y-117361110D02*
X64520010Y-117361110D01*
X64420000Y-117261100D02*
X64420000Y-114761100D01*
X61880000Y-114761100D02*
X61880000Y-117261100D01*
X61880000Y-117261100D02*
X63580020Y-118961120D01*
X63580020Y-118961120D02*
X70754597Y-118961120D01*
X78308900Y-111406817D02*
X78308900Y-103372200D01*
X70754597Y-118961120D02*
X78308900Y-111406817D01*
X78308900Y-103372200D02*
X78308900Y-100872200D01*
D17*
X80848900Y-100872200D02*
X80848900Y-111836679D01*
X62140029Y-121061129D02*
X59340000Y-118261100D01*
X80848900Y-111836679D02*
X71624450Y-121061129D01*
X71624450Y-121061129D02*
X62140029Y-121061129D01*
X59340000Y-118261100D02*
X59340000Y-114761100D01*
X80848900Y-225872300D02*
X80848900Y-228802162D01*
X80848900Y-228802162D02*
X76013034Y-233638028D01*
X76013034Y-233638028D02*
X63605728Y-233638028D01*
X63605728Y-233638028D02*
X59340000Y-229372300D01*
X59340000Y-229372300D02*
X59340000Y-225872300D01*
D18*
X61880000Y-225872300D02*
X61880000Y-228372300D01*
X61880000Y-228372300D02*
X65045719Y-231538019D01*
X65045719Y-231538019D02*
X75143181Y-231538019D01*
X75143181Y-231538019D02*
X78308900Y-228372300D01*
X78308900Y-228372300D02*
X78308900Y-225872300D01*
X64420000Y-225872300D02*
X64420000Y-228372300D01*
X64420000Y-228372300D02*
X65985709Y-229938009D01*
X65985709Y-229938009D02*
X74203191Y-229938009D01*
X74203191Y-229938009D02*
X75768900Y-228372300D01*
X75768900Y-228372300D02*
X75768900Y-225872300D01*
D17*
X66960000Y-225872300D02*
X66960000Y-226980000D01*
X66960000Y-226980000D02*
X67818000Y-227838000D01*
X67818000Y-227838000D02*
X72898000Y-227838000D01*
X72898000Y-227838000D02*
X73228900Y-227507100D01*
X73228900Y-227507100D02*
X73228900Y-225872300D01*
X73228900Y-156427800D02*
X73228900Y-145390621D01*
X73228900Y-145390621D02*
X82380650Y-136238871D01*
X82380650Y-136238871D02*
X91937771Y-136238871D01*
X94737800Y-139038900D02*
X94737800Y-142538900D01*
X91937771Y-136238871D02*
X94737800Y-139038900D01*
D18*
X92197800Y-142538900D02*
X92197800Y-140038900D01*
X92197800Y-140038900D02*
X90497780Y-138338880D01*
X90497780Y-138338880D02*
X83250503Y-138338880D01*
X83250503Y-138338880D02*
X75768900Y-145820483D01*
X75768900Y-145820483D02*
X75768900Y-153927800D01*
X75768900Y-153927800D02*
X75768900Y-156427800D01*
X78308900Y-156427800D02*
X78308900Y-145543238D01*
X78308900Y-145543238D02*
X83913248Y-139938890D01*
X83913248Y-139938890D02*
X89557790Y-139938890D01*
X89557790Y-139938890D02*
X89657800Y-140038900D01*
X89657800Y-140038900D02*
X89657800Y-142538900D01*
D17*
X83566000Y-143256000D02*
X80848900Y-145973100D01*
X80848900Y-145973100D02*
X80848900Y-156427800D01*
X83638700Y-143256000D02*
X83566000Y-143256000D01*
X87117800Y-142538900D02*
X84355800Y-142538900D01*
X84355800Y-142538900D02*
X83638700Y-143256000D01*
X84582000Y-253492000D02*
X86959800Y-253492000D01*
X86959800Y-253492000D02*
X87117800Y-253650000D01*
X80848900Y-257225100D02*
X84582000Y-253492000D01*
X80848900Y-267538900D02*
X80848900Y-257225100D01*
D18*
X78308900Y-267538900D02*
X78308900Y-256795238D01*
X78308900Y-256795238D02*
X84054148Y-251049990D01*
X84054148Y-251049990D02*
X89557790Y-251049990D01*
X89557790Y-251049990D02*
X89657800Y-251150000D01*
X89657800Y-251150000D02*
X89657800Y-253650000D01*
X75768900Y-267538900D02*
X75768900Y-257072484D01*
X75768900Y-257072484D02*
X83391403Y-249449980D01*
X83391403Y-249449980D02*
X90497780Y-249449980D01*
X90497780Y-249449980D02*
X92197800Y-251150000D01*
X92197800Y-251150000D02*
X92197800Y-253650000D01*
D17*
X73228900Y-267538900D02*
X73228900Y-256642621D01*
X73228900Y-256642621D02*
X82521550Y-247349971D01*
X82521550Y-247349971D02*
X91937771Y-247349971D01*
X91937771Y-247349971D02*
X94737800Y-250150000D01*
X94737800Y-250150000D02*
X94737800Y-253650000D01*
X96774000Y-102870000D02*
X94776300Y-100872300D01*
X94776300Y-100872300D02*
X94737800Y-100872300D01*
X99568000Y-102870000D02*
X96774000Y-102870000D01*
X101006700Y-101431300D02*
X99568000Y-102870000D01*
X101006700Y-100872300D02*
X101006700Y-101431300D01*
D18*
X92197800Y-100872300D02*
X92197800Y-103372300D01*
X92197800Y-103372300D02*
X93795510Y-104970010D01*
X93795510Y-104970010D02*
X101948990Y-104970010D01*
X101948990Y-104970010D02*
X103546700Y-103372300D01*
X103546700Y-103372300D02*
X103546700Y-100872300D01*
X106086700Y-100872300D02*
X106086700Y-103372300D01*
X106086700Y-103372300D02*
X102888980Y-106570020D01*
X89657800Y-103627800D02*
X89657800Y-103372300D01*
X102888980Y-106570020D02*
X92600020Y-106570020D01*
X92600020Y-106570020D02*
X89657800Y-103627800D01*
X89657800Y-103372300D02*
X89657800Y-100872300D01*
D17*
X87117800Y-100872300D02*
X87117800Y-104372300D01*
X91415529Y-108670029D02*
X104328971Y-108670029D01*
X87117800Y-104372300D02*
X91415529Y-108670029D01*
X104328971Y-108670029D02*
X108626700Y-104372300D01*
X108626700Y-104372300D02*
X108626700Y-100872300D01*
X108626700Y-211983400D02*
X108626700Y-222947779D01*
X89917829Y-232172229D02*
X87117800Y-229372200D01*
X108626700Y-222947779D02*
X99402250Y-232172229D01*
X99402250Y-232172229D02*
X89917829Y-232172229D01*
X87117800Y-229372200D02*
X87117800Y-225872200D01*
D18*
X89657800Y-225872200D02*
X89657800Y-228372200D01*
X89657800Y-228372200D02*
X91357820Y-230072220D01*
X91357820Y-230072220D02*
X98532397Y-230072220D01*
X98532397Y-230072220D02*
X106086700Y-222517917D01*
X106086700Y-222517917D02*
X106086700Y-214483400D01*
X106086700Y-214483400D02*
X106086700Y-211983400D01*
X92197800Y-225872200D02*
X92197800Y-228372200D01*
X103546700Y-222795162D02*
X103546700Y-214483400D01*
X92197800Y-228372200D02*
X92297810Y-228472210D01*
X92297810Y-228472210D02*
X97869652Y-228472210D01*
X97869652Y-228472210D02*
X103546700Y-222795162D01*
X103546700Y-214483400D02*
X103546700Y-211983400D01*
D17*
X94737800Y-225872200D02*
X97499800Y-225872200D01*
X97499800Y-225872200D02*
X101006700Y-222365300D01*
X101006700Y-222365300D02*
X101006700Y-211983400D01*
X101006700Y-142538900D02*
X101006700Y-139609038D01*
X101006700Y-139609038D02*
X104376868Y-136238870D01*
X104376868Y-136238870D02*
X113291150Y-136238871D01*
X113291150Y-136238871D02*
X122515600Y-145463321D01*
X122515600Y-145463321D02*
X122515600Y-152927700D01*
X122515600Y-152927700D02*
X122515600Y-156427700D01*
D18*
X103546700Y-142538900D02*
X103546700Y-140038900D01*
X103546700Y-140038900D02*
X105246720Y-138338880D01*
X105246720Y-138338880D02*
X112421297Y-138338880D01*
X112421297Y-138338880D02*
X119975600Y-145893183D01*
X119975600Y-145893183D02*
X119975600Y-153927700D01*
X119975600Y-153927700D02*
X119975600Y-156427700D01*
X106086700Y-142538900D02*
X106086700Y-141707621D01*
X106086700Y-141707621D02*
X107855431Y-139938890D01*
X107855431Y-139938890D02*
X111758552Y-139938890D01*
X111758552Y-139938890D02*
X117435600Y-145615938D01*
X117435600Y-145615938D02*
X117435600Y-153927700D01*
X117435600Y-153927700D02*
X117435600Y-156427700D01*
D17*
X108626700Y-142538900D02*
X111388700Y-142538900D01*
X114895600Y-146045800D02*
X114895600Y-156427700D01*
X111388700Y-142538900D02*
X114895600Y-146045800D01*
X108626700Y-253650000D02*
X111388700Y-253650000D01*
X111388700Y-253650000D02*
X114895600Y-257156900D01*
X114895600Y-257156900D02*
X114895600Y-267538900D01*
D18*
X117435600Y-267538900D02*
X117435600Y-256727038D01*
X117435600Y-256727038D02*
X111758552Y-251049990D01*
X106086700Y-251150000D02*
X106086700Y-253650000D01*
X111758552Y-251049990D02*
X106186710Y-251049990D01*
X106186710Y-251049990D02*
X106086700Y-251150000D01*
X103546700Y-253650000D02*
X103546700Y-251150000D01*
X119975600Y-265038900D02*
X119975600Y-267538900D01*
X103546700Y-251150000D02*
X105246720Y-249449980D01*
X112421297Y-249449980D02*
X119975600Y-257004283D01*
X105246720Y-249449980D02*
X112421297Y-249449980D01*
X119975600Y-257004283D02*
X119975600Y-265038900D01*
D17*
X122515600Y-267538900D02*
X122515600Y-256574421D01*
X122515600Y-256574421D02*
X113291150Y-247349971D01*
X113291150Y-247349971D02*
X103806729Y-247349971D01*
X103806729Y-247349971D02*
X101006700Y-250150000D01*
X101006700Y-250150000D02*
X101006700Y-253650000D01*
X184340000Y-31427800D02*
X184340000Y-32830000D01*
X184340000Y-32830000D02*
X181864000Y-35306000D01*
X160569971Y-53596640D02*
X169313305Y-44853306D01*
X160569970Y-86614000D02*
X160569971Y-53596640D01*
X160569970Y-115707552D02*
X160569970Y-86614000D01*
X159474761Y-116802761D02*
X160569970Y-115707552D01*
X156972000Y-119305522D02*
X159474761Y-116802761D01*
X125846448Y-127549970D02*
X122515600Y-124219122D01*
X122515600Y-124219122D02*
X122515600Y-114761100D01*
X148727552Y-127549970D02*
X125846448Y-127549970D01*
X156972000Y-119305522D02*
X148727552Y-127549970D01*
D18*
X186880000Y-31427800D02*
X186880000Y-37218560D01*
X162669980Y-116577404D02*
X149597404Y-129649980D01*
X119975600Y-117261100D02*
X119975600Y-114761100D01*
X186880000Y-37218560D02*
X186182000Y-37916560D01*
X186182000Y-37916560D02*
X179219913Y-37916560D01*
X179219913Y-37916560D02*
X162669980Y-54466493D01*
X149597404Y-129649980D02*
X124976595Y-129649979D01*
X162669980Y-54466493D02*
X162669980Y-116577404D01*
X124976595Y-129649979D02*
X119975600Y-124648984D01*
X119975600Y-124648984D02*
X119975600Y-117261100D01*
X150260148Y-131249990D02*
X124313852Y-131249990D01*
X117435600Y-117261100D02*
X117435600Y-114761100D01*
X124313852Y-131249990D02*
X117435600Y-124371738D01*
X117435600Y-124371738D02*
X117435600Y-117261100D01*
X164269990Y-117240148D02*
X150260148Y-131249990D01*
X187960000Y-39516570D02*
X179882658Y-39516570D01*
X179882658Y-39516570D02*
X164269990Y-55129238D01*
X164269990Y-55129238D02*
X164269990Y-117240148D01*
X189420000Y-38056570D02*
X187960000Y-39516570D01*
X189420000Y-31427800D02*
X189420000Y-38056570D01*
D17*
X123444000Y-133350000D02*
X114895600Y-124801600D01*
X114895600Y-124801600D02*
X114895600Y-114761100D01*
X151130000Y-133350000D02*
X123444000Y-133350000D01*
X166370000Y-118110000D02*
X151130000Y-133350000D01*
X166370000Y-62230000D02*
X166370000Y-118110000D01*
X191960000Y-31427800D02*
X191960000Y-36766000D01*
X114895600Y-170316700D02*
X114895600Y-205902078D01*
X114895600Y-205902078D02*
X128784400Y-219790878D01*
X128784400Y-219790878D02*
X128784400Y-267538900D01*
D18*
X117435600Y-170316700D02*
X117435600Y-205472216D01*
X117435600Y-205472216D02*
X131324400Y-219361016D01*
X131324400Y-219361016D02*
X131324400Y-265038900D01*
X131324400Y-265038900D02*
X131324400Y-267538900D01*
X133864400Y-267538900D02*
X133864400Y-219638262D01*
X133864400Y-219638262D02*
X119975600Y-205749462D01*
X119975600Y-205749462D02*
X119975600Y-172816700D01*
X119975600Y-172816700D02*
X119975600Y-170316700D01*
D17*
X122515600Y-205319600D02*
X136404400Y-219208400D01*
X136404400Y-219208400D02*
X136404400Y-267538900D01*
X122515600Y-170316700D02*
X122515600Y-205319600D01*
X150293300Y-45316700D02*
X150293300Y-102257179D01*
X150293300Y-102257179D02*
X143880450Y-108670029D01*
X143880450Y-108670029D02*
X133082129Y-108670029D01*
X133082129Y-108670029D02*
X128784400Y-104372300D01*
X128784400Y-104372300D02*
X128784400Y-100872300D01*
D18*
X131324400Y-100872300D02*
X131324400Y-103372300D01*
X131324400Y-103372300D02*
X134522120Y-106570020D01*
X134522120Y-106570020D02*
X143010597Y-106570020D01*
X147753300Y-47816700D02*
X147753300Y-45316700D01*
X143010597Y-106570020D02*
X147753300Y-101827317D01*
X147753300Y-101827317D02*
X147753300Y-47816700D01*
X145213300Y-45316700D02*
X145213300Y-102104562D01*
X145213300Y-102104562D02*
X142347852Y-104970010D01*
X142347852Y-104970010D02*
X135462110Y-104970010D01*
X135462110Y-104970010D02*
X133864400Y-103372300D01*
X133864400Y-103372300D02*
X133864400Y-100872300D01*
D17*
X141478000Y-102870000D02*
X142673300Y-101674700D01*
X142673300Y-101674700D02*
X142673300Y-45316700D01*
X137668000Y-102870000D02*
X141478000Y-102870000D01*
X136404400Y-101606400D02*
X137668000Y-102870000D01*
X136404400Y-100872300D02*
X136404400Y-101606400D01*
X150368000Y-172212000D02*
X152263400Y-170316600D01*
X152263400Y-170316600D02*
X156562200Y-170316600D01*
X150368000Y-236186400D02*
X150368000Y-172212000D01*
X150293300Y-239761100D02*
X150293300Y-236261100D01*
X150293300Y-236261100D02*
X150368000Y-236186400D01*
D18*
X159102200Y-170316600D02*
X159102200Y-167816600D01*
X159002190Y-167716590D02*
X151893548Y-167716590D01*
X147753300Y-237261100D02*
X147753300Y-239761100D01*
X159102200Y-167816600D02*
X159002190Y-167716590D01*
X151893548Y-167716590D02*
X147753300Y-171856838D01*
X147753300Y-171856838D02*
X147753300Y-237261100D01*
X145213300Y-239761100D02*
X145213300Y-172134083D01*
X159942180Y-166116580D02*
X161642200Y-167816600D01*
X145213300Y-172134083D02*
X151230803Y-166116580D01*
X151230803Y-166116580D02*
X159942180Y-166116580D01*
X161642200Y-167816600D02*
X161642200Y-170316600D01*
D17*
X164182200Y-170316600D02*
X164182200Y-166816600D01*
X164182200Y-166816600D02*
X161382170Y-164016570D01*
X161382170Y-164016570D02*
X150360950Y-164016571D01*
X150360950Y-164016571D02*
X142673300Y-171704221D01*
X142673300Y-171704221D02*
X142673300Y-236261100D01*
X142673300Y-236261100D02*
X142673300Y-239761100D01*
X178071100Y-31427700D02*
X178071100Y-34927700D01*
X178071100Y-34927700D02*
X173416771Y-39582029D01*
X173416771Y-39582029D02*
X161216429Y-39582029D01*
X161216429Y-39582029D02*
X156562200Y-34927800D01*
X156562200Y-34927800D02*
X156562200Y-31427800D01*
D18*
X159102200Y-31427800D02*
X159102200Y-33927800D01*
X159102200Y-33927800D02*
X162656420Y-37482020D01*
X162656420Y-37482020D02*
X171976780Y-37482020D01*
X171976780Y-37482020D02*
X175531100Y-33927700D01*
X175531100Y-33927700D02*
X175531100Y-31427700D01*
X172991100Y-31427700D02*
X172991100Y-33927700D01*
X161642200Y-33927800D02*
X161642200Y-31427800D01*
X172991100Y-33927700D02*
X171036790Y-35882010D01*
X171036790Y-35882010D02*
X163596410Y-35882010D01*
X163596410Y-35882010D02*
X161642200Y-33927800D01*
D17*
X169418000Y-33782000D02*
X170451100Y-32748900D01*
X170451100Y-32748900D02*
X170451100Y-31427700D01*
X165100000Y-33782000D02*
X169418000Y-33782000D01*
X164182200Y-32864200D02*
X165100000Y-33782000D01*
X164182200Y-31427800D02*
X164182200Y-32864200D01*
X178071100Y-114761100D02*
X178071100Y-111261100D01*
X178071100Y-111261100D02*
X178054000Y-111244000D01*
X181102000Y-52578000D02*
X181102000Y-45792600D01*
X178054000Y-111244000D02*
X178054000Y-55626000D01*
X178054000Y-55626000D02*
X181102000Y-52578000D01*
X181102000Y-45792600D02*
X181578000Y-45316600D01*
X181578000Y-45316600D02*
X184340000Y-45316600D01*
D18*
X175531100Y-114761100D02*
X175531100Y-48393638D01*
X175531100Y-48393638D02*
X181208148Y-42716590D01*
X181208148Y-42716590D02*
X186779990Y-42716590D01*
X186779990Y-42716590D02*
X186880000Y-42816600D01*
X186880000Y-42816600D02*
X186880000Y-45316600D01*
X172991100Y-114761100D02*
X172991100Y-48670884D01*
X172991100Y-48670884D02*
X180545403Y-41116580D01*
X180545403Y-41116580D02*
X187719980Y-41116580D01*
X187719980Y-41116580D02*
X189420000Y-42816600D01*
X189420000Y-42816600D02*
X189420000Y-45316600D01*
D17*
X191960000Y-45316600D02*
X191960000Y-41846000D01*
X191960000Y-41846000D02*
X190754000Y-40640000D01*
X170451100Y-114761100D02*
X170451100Y-61993100D01*
D18*
X28448000Y-179832000D02*
X26448000Y-179832000D01*
X26448000Y-179832000D02*
X22753300Y-176137300D01*
X22753300Y-176137300D02*
X22753300Y-172816700D01*
X22753300Y-172816700D02*
X22753300Y-170316700D01*
X20213300Y-170316700D02*
X20213300Y-177629300D01*
X20213300Y-177629300D02*
X28448000Y-185864000D01*
X56134000Y-168656000D02*
X58134000Y-168656000D01*
X58134000Y-168656000D02*
X64420000Y-174942000D01*
X64420000Y-181705500D02*
X64420000Y-184205500D01*
X64420000Y-174942000D02*
X64420000Y-181705500D01*
X56134000Y-174688000D02*
X61880000Y-180434000D01*
X61880000Y-180434000D02*
X61880000Y-184205500D01*
M02*
