M48
;DRILL file {KiCad 4.0.6} date Mon Jul 10 19:20:09 2017
;FORMAT={-:-/ absolute / metric / decimal}
FMAT,2
METRIC,TZ
T1C0.600
%
G90
G05
M71
T1
X17.673Y-170.317
X17.673Y-239.761
X20.213Y-170.317
X20.213Y-239.761
X22.753Y-170.317
X22.753Y-239.761
X25.293Y-170.317
X25.293Y-239.761
X28.448Y-179.832
X28.448Y-185.864
X28.448Y-194.056
X28.448Y-200.088
X31.562Y-128.65
X31.562Y-253.65
X34.102Y-128.65
X34.102Y-253.65
X36.642Y-128.65
X36.642Y-253.65
X39.182Y-128.65
X39.182Y-253.65
X45.451Y-114.761
X45.451Y-267.539
X47.991Y-114.761
X47.991Y-267.539
X50.531Y-114.761
X50.531Y-267.539
X53.071Y-114.761
X53.071Y-267.539
X56.134Y-168.656
X56.134Y-174.688
X59.34Y-114.761
X59.34Y-184.206
X59.34Y-225.872
X59.34Y-267.539
X61.88Y-114.761
X61.88Y-184.206
X61.88Y-225.872
X61.88Y-267.539
X64.42Y-114.761
X64.42Y-184.206
X64.42Y-225.872
X64.42Y-267.539
X66.96Y-114.761
X66.96Y-184.206
X66.96Y-225.872
X66.96Y-267.539
X73.229Y-100.872
X73.229Y-156.428
X73.229Y-225.872
X73.229Y-267.539
X75.769Y-100.872
X75.769Y-156.428
X75.769Y-225.872
X75.769Y-267.539
X78.309Y-100.872
X78.309Y-156.428
X78.309Y-225.872
X78.309Y-267.539
X80.849Y-100.872
X80.849Y-156.428
X80.849Y-225.872
X80.849Y-267.539
X87.118Y-100.872
X87.118Y-142.539
X87.118Y-225.872
X87.118Y-253.65
X89.658Y-100.872
X89.658Y-142.539
X89.658Y-225.872
X89.658Y-253.65
X92.198Y-100.872
X92.198Y-142.539
X92.198Y-225.872
X92.198Y-253.65
X94.738Y-100.872
X94.738Y-142.539
X94.738Y-225.872
X94.738Y-253.65
X101.007Y-100.872
X101.007Y-142.539
X101.007Y-211.983
X101.007Y-253.65
X103.547Y-100.872
X103.547Y-142.539
X103.547Y-211.983
X103.547Y-253.65
X106.087Y-100.872
X106.087Y-142.539
X106.087Y-211.983
X106.087Y-253.65
X108.627Y-100.872
X108.627Y-142.539
X108.627Y-211.983
X108.627Y-253.65
X114.896Y-114.761
X114.896Y-156.428
X114.896Y-170.317
X114.896Y-267.539
X117.436Y-114.761
X117.436Y-156.428
X117.436Y-170.317
X117.436Y-267.539
X119.976Y-114.761
X119.976Y-156.428
X119.976Y-170.317
X119.976Y-267.539
X122.516Y-114.761
X122.516Y-156.428
X122.516Y-170.317
X122.516Y-267.539
X128.784Y-100.872
X128.784Y-267.539
X131.324Y-100.872
X131.324Y-267.539
X133.864Y-100.872
X133.864Y-267.539
X136.404Y-100.872
X136.404Y-267.539
X142.673Y-45.317
X142.673Y-239.761
X145.213Y-45.317
X145.213Y-239.761
X147.753Y-45.317
X147.753Y-239.761
X150.293Y-45.317
X150.293Y-239.761
X156.562Y-31.428
X156.562Y-170.317
X159.102Y-31.428
X159.102Y-170.317
X161.642Y-31.428
X161.642Y-170.317
X164.182Y-31.428
X164.182Y-170.317
X166.37Y-62.23
X169.313Y-44.853
X170.451Y-31.428
X170.451Y-61.993
X170.451Y-114.761
X172.991Y-31.428
X172.991Y-114.761
X175.531Y-31.428
X175.531Y-114.761
X178.071Y-31.428
X178.071Y-114.761
X181.864Y-35.306
X184.34Y-31.428
X184.34Y-45.317
X186.88Y-31.428
X186.88Y-45.317
X189.42Y-31.428
X189.42Y-45.317
X190.754Y-40.64
X191.96Y-31.428
X191.96Y-36.766
X191.96Y-45.317
T0
M30
