G04 #@! TF.FileFunction,Copper,L2,Bot,Signal*
%FSLAX46Y46*%
G04 Gerber Fmt 4.6, Leading zero omitted, Abs format (unit mm)*
G04 Created by KiCad (PCBNEW 4.0.6) date Mon Jul 10 19:20:19 2017*
%MOMM*%
%LPD*%
G01*
G04 APERTURE LIST*
%ADD10C,0.100000*%
%ADD11O,1.524000X3.000000*%
%ADD12R,2.000000X2.000000*%
%ADD13O,2.000000X2.000000*%
%ADD14R,3.000000X3.000000*%
%ADD15O,3.000000X3.000000*%
%ADD16C,2.000000*%
%ADD17C,1.000000*%
G04 APERTURE END LIST*
D10*
D11*
X68014400Y-63961100D03*
X65474400Y-63961100D03*
X62934400Y-63961100D03*
X60394400Y-63961100D03*
X68014400Y-216738900D03*
X65474400Y-216738900D03*
X62934400Y-216738900D03*
X60394400Y-216738900D03*
X40236700Y-105627700D03*
X37696700Y-105627700D03*
X35156700Y-105627700D03*
X32616700Y-105627700D03*
X40236700Y-188961100D03*
X37696700Y-188961100D03*
X35156700Y-188961100D03*
X32616700Y-188961100D03*
X46505600Y-202850000D03*
X49045600Y-202850000D03*
X51585600Y-202850000D03*
X54125600Y-202850000D03*
X46505600Y-91738800D03*
X49045600Y-91738800D03*
X51585600Y-91738800D03*
X54125600Y-91738800D03*
X74283300Y-147294500D03*
X76823300Y-147294500D03*
X79363300Y-147294500D03*
X81903300Y-147294500D03*
X74283300Y-63961100D03*
X76823300Y-63961100D03*
X79363300Y-63961100D03*
X81903300Y-63961100D03*
X74283300Y-216738900D03*
X76823300Y-216738900D03*
X79363300Y-216738900D03*
X81903300Y-216738900D03*
X74283300Y-175072300D03*
X76823300Y-175072300D03*
X79363300Y-175072300D03*
X81903300Y-175072300D03*
X95792200Y-50072300D03*
X93252200Y-50072300D03*
X90712200Y-50072300D03*
X88172200Y-50072300D03*
X95792200Y-91738900D03*
X93252200Y-91738900D03*
X90712200Y-91738900D03*
X88172200Y-91738900D03*
X88172200Y-147294500D03*
X90712200Y-147294500D03*
X93252200Y-147294500D03*
X95792200Y-147294500D03*
X88172200Y-119516700D03*
X90712200Y-119516700D03*
X93252200Y-119516700D03*
X95792200Y-119516700D03*
X95792200Y-175072300D03*
X93252200Y-175072300D03*
X90712200Y-175072300D03*
X88172200Y-175072300D03*
X95792200Y-216738900D03*
X93252200Y-216738900D03*
X90712200Y-216738900D03*
X88172200Y-216738900D03*
X102061100Y-91738900D03*
X104601100Y-91738900D03*
X107141100Y-91738900D03*
X109681100Y-91738900D03*
X102061100Y-50072300D03*
X104601100Y-50072300D03*
X107141100Y-50072300D03*
X109681100Y-50072300D03*
X109681100Y-119516700D03*
X107141100Y-119516700D03*
X104601100Y-119516700D03*
X102061100Y-119516700D03*
X109681100Y-147294500D03*
X107141100Y-147294500D03*
X104601100Y-147294500D03*
X102061100Y-147294500D03*
X102061100Y-216738900D03*
X104601100Y-216738900D03*
X107141100Y-216738900D03*
X109681100Y-216738900D03*
X102061100Y-188961100D03*
X104601100Y-188961100D03*
X107141100Y-188961100D03*
X109681100Y-188961100D03*
X123570000Y-50072200D03*
X121030000Y-50072200D03*
X118490000Y-50072200D03*
X115950000Y-50072200D03*
X123570000Y-77850000D03*
X121030000Y-77850000D03*
X118490000Y-77850000D03*
X115950000Y-77850000D03*
X115950000Y-147294500D03*
X118490000Y-147294500D03*
X121030000Y-147294500D03*
X123570000Y-147294500D03*
X115950000Y-119516700D03*
X118490000Y-119516700D03*
X121030000Y-119516700D03*
X123570000Y-119516700D03*
X123570000Y-175072300D03*
X121030000Y-175072300D03*
X118490000Y-175072300D03*
X115950000Y-175072300D03*
X123570000Y-216738900D03*
X121030000Y-216738900D03*
X118490000Y-216738900D03*
X115950000Y-216738900D03*
X129838900Y-91738900D03*
X132378900Y-91738900D03*
X134918900Y-91738900D03*
X137458900Y-91738900D03*
X129838900Y-50072300D03*
X132378900Y-50072300D03*
X134918900Y-50072300D03*
X137458900Y-50072300D03*
X137458900Y-105627800D03*
X134918900Y-105627800D03*
X132378900Y-105627800D03*
X129838900Y-105627800D03*
X137458900Y-147294400D03*
X134918900Y-147294400D03*
X132378900Y-147294400D03*
X129838900Y-147294400D03*
X129838900Y-216738900D03*
X132378900Y-216738900D03*
X134918900Y-216738900D03*
X137458900Y-216738900D03*
X129838900Y-175072300D03*
X132378900Y-175072300D03*
X134918900Y-175072300D03*
X137458900Y-175072300D03*
X151347800Y-50072200D03*
X148807800Y-50072200D03*
X146267800Y-50072200D03*
X143727800Y-50072200D03*
X151347800Y-133405600D03*
X148807800Y-133405600D03*
X146267800Y-133405600D03*
X143727800Y-133405600D03*
X151347800Y-175072200D03*
X148807800Y-175072200D03*
X146267800Y-175072200D03*
X143727800Y-175072200D03*
X151347800Y-202850000D03*
X148807800Y-202850000D03*
X146267800Y-202850000D03*
X143727800Y-202850000D03*
X157616700Y-133405500D03*
X160156700Y-133405500D03*
X162696700Y-133405500D03*
X165236700Y-133405500D03*
X157616700Y-63961100D03*
X160156700Y-63961100D03*
X162696700Y-63961100D03*
X165236700Y-63961100D03*
X179125600Y-77850000D03*
X176585600Y-77850000D03*
X174045600Y-77850000D03*
X171505600Y-77850000D03*
X179125600Y-105627800D03*
X176585600Y-105627800D03*
X174045600Y-105627800D03*
X171505600Y-105627800D03*
D12*
X98806000Y-127762000D03*
D13*
X98806000Y-133794000D03*
D12*
X43434000Y-114300000D03*
D13*
X43434000Y-120332000D03*
D14*
X43180000Y-126238000D03*
D15*
X43180000Y-132270000D03*
D16*
X32616700Y-105627700D02*
X32616700Y-127866700D01*
X32616700Y-127866700D02*
X37020000Y-132270000D01*
X37020000Y-132270000D02*
X43180000Y-132270000D01*
X40236700Y-105627700D02*
X42998700Y-105627700D01*
X42998700Y-105627700D02*
X49276000Y-111905000D01*
X49276000Y-111905000D02*
X49276000Y-123642000D01*
X49276000Y-123642000D02*
X46680000Y-126238000D01*
X46680000Y-126238000D02*
X43180000Y-126238000D01*
D17*
X43434000Y-114300000D02*
X41434000Y-114300000D01*
X41434000Y-114300000D02*
X37696700Y-110562700D01*
X37696700Y-110562700D02*
X37696700Y-108127700D01*
X37696700Y-108127700D02*
X37696700Y-105627700D01*
X35156700Y-105627700D02*
X35156700Y-112054700D01*
X35156700Y-112054700D02*
X43434000Y-120332000D01*
X93252200Y-119516700D02*
X93252200Y-124208200D01*
X93252200Y-124208200D02*
X96806000Y-127762000D01*
X96806000Y-127762000D02*
X98806000Y-127762000D01*
X90712200Y-119516700D02*
X90712200Y-125700200D01*
X90712200Y-125700200D02*
X98806000Y-133794000D01*
D16*
X44450000Y-186690000D02*
X46505600Y-188745600D01*
X46505600Y-188745600D02*
X46505600Y-202850000D01*
X41910000Y-186690000D02*
X44450000Y-186690000D01*
X40236700Y-188363300D02*
X41910000Y-186690000D01*
X40236700Y-188961100D02*
X40236700Y-188363300D01*
D17*
X49045600Y-200350000D02*
X49045600Y-202850000D01*
X46050011Y-184480011D02*
X49045600Y-187475600D01*
X49045600Y-187475600D02*
X49045600Y-200350000D01*
X37696700Y-186461100D02*
X39677789Y-184480011D01*
X37696700Y-188961100D02*
X37696700Y-186461100D01*
X39677789Y-184480011D02*
X46050011Y-184480011D01*
X46990000Y-182880000D02*
X51585600Y-187475600D01*
X51585600Y-187475600D02*
X51585600Y-202850000D01*
X38737800Y-182880000D02*
X46990000Y-182880000D01*
X35156700Y-188961100D02*
X35156700Y-186461100D01*
X35156700Y-186461100D02*
X38737800Y-182880000D01*
D16*
X48260000Y-180340000D02*
X54125600Y-186205600D01*
X54125600Y-186205600D02*
X54125600Y-202850000D01*
X37737800Y-180340000D02*
X48260000Y-180340000D01*
X32616700Y-188961100D02*
X32616700Y-185461100D01*
X32616700Y-185461100D02*
X37737800Y-180340000D01*
X68014400Y-63961100D02*
X68014400Y-92588079D01*
X68014400Y-92588079D02*
X60822451Y-99780028D01*
X60822451Y-99780028D02*
X51046828Y-99780028D01*
X51046828Y-99780028D02*
X46505600Y-95238800D01*
X46505600Y-95238800D02*
X46505600Y-91738800D01*
D17*
X59952598Y-97680019D02*
X52486819Y-97680019D01*
X52486819Y-97680019D02*
X49045600Y-94238800D01*
X49045600Y-94238800D02*
X49045600Y-91738800D01*
X65474400Y-63961100D02*
X65474400Y-92158217D01*
X65474400Y-92158217D02*
X59952598Y-97680019D01*
X62934400Y-63961100D02*
X62934400Y-92435462D01*
X62934400Y-92435462D02*
X59289853Y-96080009D01*
X59289853Y-96080009D02*
X53426809Y-96080009D01*
X53426809Y-96080009D02*
X51585600Y-94238800D01*
X51585600Y-94238800D02*
X51585600Y-91738800D01*
D16*
X54125600Y-91738800D02*
X54125600Y-93277186D01*
X54125600Y-93277186D02*
X54828414Y-93980000D01*
X54828414Y-93980000D02*
X58420000Y-93980000D01*
X58420000Y-93980000D02*
X60394400Y-92005600D01*
X60394400Y-92005600D02*
X60394400Y-63961100D01*
X68014400Y-216738900D02*
X68014400Y-216465600D01*
X68014400Y-216465600D02*
X68580000Y-215900000D01*
X68580000Y-215900000D02*
X73444400Y-215900000D01*
X73444400Y-215900000D02*
X74283300Y-216738900D01*
D17*
X65474400Y-216738900D02*
X65474400Y-214238900D01*
X65474400Y-214238900D02*
X65913310Y-213799990D01*
X65913310Y-213799990D02*
X76384390Y-213799990D01*
X76384390Y-213799990D02*
X76823300Y-214238900D01*
X76823300Y-214238900D02*
X76823300Y-216738900D01*
X62934400Y-216738900D02*
X62934400Y-214516145D01*
X62934400Y-214516145D02*
X65250565Y-212199980D01*
X65250565Y-212199980D02*
X77324380Y-212199980D01*
X77324380Y-212199980D02*
X79363300Y-214238900D01*
X79363300Y-214238900D02*
X79363300Y-216738900D01*
D16*
X60394400Y-216738900D02*
X60394400Y-214086283D01*
X81725310Y-213060910D02*
X81725310Y-216560910D01*
X60394400Y-214086283D02*
X64380712Y-210099971D01*
X64380712Y-210099971D02*
X78764371Y-210099971D01*
X78764371Y-210099971D02*
X81725310Y-213060910D01*
X81725310Y-216560910D02*
X81903300Y-216738900D01*
X74283300Y-147294500D02*
X74283300Y-137783300D01*
X72390000Y-135890000D02*
X68580000Y-135890000D01*
X74283300Y-137783300D02*
X72390000Y-135890000D01*
X64330010Y-140139990D02*
X64330010Y-195140010D01*
X68580000Y-135890000D02*
X64330010Y-140139990D01*
X64330010Y-195140010D02*
X69850000Y-200660000D01*
X131970020Y-194419980D02*
X146417780Y-194419980D01*
X69850000Y-200660000D02*
X125730000Y-200660000D01*
X125730000Y-200660000D02*
X131970020Y-194419980D01*
X146417780Y-194419980D02*
X151347800Y-199350000D01*
X151347800Y-199350000D02*
X151347800Y-202850000D01*
D17*
X148807800Y-202850000D02*
X148807800Y-200350000D01*
X62230000Y-196697384D02*
X62230000Y-139270138D01*
X148807800Y-200350000D02*
X144977790Y-196519990D01*
X144977790Y-196519990D02*
X136067393Y-196519990D01*
X136067393Y-196519990D02*
X129387383Y-203200000D01*
X68732616Y-203200000D02*
X62230000Y-196697384D01*
X129387383Y-203200000D02*
X68732616Y-203200000D01*
X62230000Y-139270138D02*
X68150138Y-133350000D01*
X68150138Y-133350000D02*
X73660000Y-133350000D01*
X73660000Y-133350000D02*
X76823300Y-136513300D01*
X76823300Y-136513300D02*
X76823300Y-147294500D01*
X68580000Y-131640010D02*
X66909852Y-131640010D01*
X66909852Y-131640010D02*
X60520010Y-138029852D01*
X60520010Y-197250148D02*
X68179852Y-204909990D01*
X60520010Y-138029852D02*
X60520010Y-197250148D01*
X136730138Y-198120000D02*
X144037800Y-198120000D01*
X68179852Y-204909990D02*
X129940148Y-204909990D01*
X129940148Y-204909990D02*
X136730138Y-198120000D01*
X144037800Y-198120000D02*
X146267800Y-200350000D01*
X146267800Y-200350000D02*
X146267800Y-202850000D01*
X67749990Y-131640010D02*
X68580000Y-131640010D01*
X68580000Y-131640010D02*
X75760010Y-131640010D01*
X79363300Y-135243300D02*
X79363300Y-144794500D01*
X75760010Y-131640010D02*
X79363300Y-135243300D01*
X79363300Y-144794500D02*
X79363300Y-147294500D01*
D16*
X143727800Y-202850000D02*
X143727800Y-202147800D01*
X143727800Y-202147800D02*
X142240000Y-200660000D01*
X130810000Y-207010000D02*
X67310000Y-207010000D01*
X142240000Y-200660000D02*
X137160000Y-200660000D01*
X137160000Y-200660000D02*
X130810000Y-207010000D01*
X81903300Y-133973300D02*
X81903300Y-147294500D01*
X67310000Y-207010000D02*
X58420000Y-198120000D01*
X58420000Y-198120000D02*
X58420000Y-137160000D01*
X58420000Y-137160000D02*
X66040000Y-129540000D01*
X66040000Y-129540000D02*
X77470000Y-129540000D01*
X77470000Y-129540000D02*
X81903300Y-133973300D01*
X143727800Y-202850000D02*
X143727800Y-203588000D01*
X74283300Y-63961100D02*
X74283300Y-67461100D01*
X95792200Y-53572300D02*
X95792200Y-50072300D01*
X74283300Y-67461100D02*
X79932227Y-73110027D01*
X88762452Y-73110026D02*
X95792200Y-66080278D01*
X79932227Y-73110027D02*
X88762452Y-73110026D01*
X95792200Y-66080278D02*
X95792200Y-53572300D01*
D17*
X76823300Y-63961100D02*
X76823300Y-66461100D01*
X76823300Y-66461100D02*
X81372217Y-71010017D01*
X81372217Y-71010017D02*
X87892599Y-71010017D01*
X87892599Y-71010017D02*
X93252200Y-65650416D01*
X93252200Y-65650416D02*
X93252200Y-52572300D01*
X93252200Y-52572300D02*
X93252200Y-50072300D01*
X79363300Y-63961100D02*
X79363300Y-66461100D01*
X79363300Y-66461100D02*
X82312210Y-69410010D01*
X82312210Y-69410010D02*
X87229853Y-69410009D01*
X87229853Y-69410009D02*
X90712200Y-65927662D01*
X90712200Y-65927662D02*
X90712200Y-52572300D01*
X90712200Y-52572300D02*
X90712200Y-50072300D01*
D16*
X86360000Y-67310000D02*
X88172200Y-65497800D01*
X88172200Y-65497800D02*
X88172200Y-50072300D01*
X83713814Y-67310000D02*
X86360000Y-67310000D01*
X81903300Y-63961100D02*
X81903300Y-65499486D01*
X81903300Y-65499486D02*
X83713814Y-67310000D01*
X74283300Y-175072300D02*
X74283300Y-178572300D01*
X74283300Y-178572300D02*
X79238028Y-183527028D01*
X79238028Y-183527028D02*
X90837472Y-183527028D01*
X90837472Y-183527028D02*
X95792200Y-178572300D01*
X95792200Y-178572300D02*
X95792200Y-175072300D01*
D17*
X76823300Y-175072300D02*
X76823300Y-177572300D01*
X76823300Y-177572300D02*
X80678019Y-181427019D01*
X80678019Y-181427019D02*
X89397481Y-181427019D01*
X89397481Y-181427019D02*
X93252200Y-177572300D01*
X93252200Y-177572300D02*
X93252200Y-175072300D01*
X90712200Y-177572300D02*
X90712200Y-175072300D01*
X79363300Y-175072300D02*
X79363300Y-177572300D01*
X79363300Y-177572300D02*
X81618009Y-179827009D01*
X81618009Y-179827009D02*
X88457491Y-179827009D01*
X88457491Y-179827009D02*
X90712200Y-177572300D01*
D16*
X83820000Y-177727000D02*
X87411866Y-177727000D01*
X87411866Y-177727000D02*
X88172200Y-176966666D01*
X88172200Y-176966666D02*
X88172200Y-175072300D01*
X81903300Y-175072300D02*
X81903300Y-175810300D01*
X81903300Y-175810300D02*
X83820000Y-177727000D01*
X98690200Y-87630000D02*
X102061100Y-91000900D01*
X102061100Y-91000900D02*
X102061100Y-91738900D01*
X98362714Y-87630000D02*
X98690200Y-87630000D01*
X95792200Y-91738900D02*
X95792200Y-90200514D01*
X95792200Y-90200514D02*
X98362714Y-87630000D01*
D17*
X93252200Y-91738900D02*
X93252200Y-89238900D01*
X93252200Y-89238900D02*
X96961109Y-85529991D01*
X96961109Y-85529991D02*
X100892191Y-85529991D01*
X100892191Y-85529991D02*
X104601100Y-89238900D01*
X104601100Y-89238900D02*
X104601100Y-91738900D01*
X90712200Y-91738900D02*
X90712200Y-89238900D01*
X90712200Y-89238900D02*
X96021119Y-83929981D01*
X96021119Y-83929981D02*
X101832181Y-83929981D01*
X101832181Y-83929981D02*
X107141100Y-89238900D01*
X107141100Y-89238900D02*
X107141100Y-91738900D01*
D16*
X88172200Y-91738900D02*
X88172200Y-88238900D01*
X88172200Y-88238900D02*
X94581128Y-81829972D01*
X103272172Y-81829972D02*
X109681100Y-88238900D01*
X94581128Y-81829972D02*
X103272172Y-81829972D01*
X109681100Y-88238900D02*
X109681100Y-91738900D01*
X88172200Y-147294500D02*
X88172200Y-143794500D01*
X88172200Y-143794500D02*
X92986729Y-138979971D01*
X92986729Y-138979971D02*
X104866571Y-138979971D01*
X104866571Y-138979971D02*
X109681100Y-143794500D01*
X109681100Y-143794500D02*
X109681100Y-147294500D01*
D17*
X90712200Y-147294500D02*
X90712200Y-144794500D01*
X90712200Y-144794500D02*
X94426720Y-141079980D01*
X94426720Y-141079980D02*
X103426580Y-141079980D01*
X103426580Y-141079980D02*
X107141100Y-144794500D01*
X107141100Y-144794500D02*
X107141100Y-147294500D01*
X93252200Y-147294500D02*
X93252200Y-144794500D01*
X93252200Y-144794500D02*
X95366710Y-142679990D01*
X95366710Y-142679990D02*
X102486590Y-142679990D01*
X102486590Y-142679990D02*
X104601100Y-144794500D01*
X104601100Y-144794500D02*
X104601100Y-147294500D01*
D16*
X100330000Y-144780000D02*
X100330000Y-145563400D01*
X100330000Y-145563400D02*
X102061100Y-147294500D01*
X97790000Y-144780000D02*
X100330000Y-144780000D01*
X95792200Y-146777800D02*
X97790000Y-144780000D01*
X95792200Y-147294500D02*
X95792200Y-146777800D01*
X95792200Y-216738900D02*
X95792200Y-216627800D01*
X95792200Y-216627800D02*
X96520000Y-215900000D01*
X96520000Y-215900000D02*
X101222200Y-215900000D01*
X101222200Y-215900000D02*
X102061100Y-216738900D01*
D17*
X93252200Y-216738900D02*
X93252200Y-215907621D01*
X93252200Y-215907621D02*
X95359831Y-213799990D01*
X95359831Y-213799990D02*
X104162190Y-213799990D01*
X104162190Y-213799990D02*
X104601100Y-214238900D01*
X104601100Y-214238900D02*
X104601100Y-216738900D01*
X90712200Y-216738900D02*
X90712200Y-214238900D01*
X90712200Y-214238900D02*
X92751120Y-212199980D01*
X92751120Y-212199980D02*
X105102180Y-212199980D01*
X105102180Y-212199980D02*
X107141100Y-214238900D01*
X107141100Y-214238900D02*
X107141100Y-216738900D01*
D16*
X88172200Y-216738900D02*
X88172200Y-213238900D01*
X88172200Y-213238900D02*
X91311129Y-210099971D01*
X91311129Y-210099971D02*
X106542171Y-210099971D01*
X106542171Y-210099971D02*
X109681100Y-213238900D01*
X109681100Y-213238900D02*
X109681100Y-216738900D01*
X102061100Y-50072300D02*
X102061100Y-53572300D01*
X102061100Y-53572300D02*
X107628828Y-59140028D01*
X107628828Y-59140028D02*
X118002172Y-59140028D01*
X118002172Y-59140028D02*
X123570000Y-53572200D01*
X123570000Y-53572200D02*
X123570000Y-50072200D01*
D17*
X104601100Y-50072300D02*
X104601100Y-52572300D01*
X104601100Y-52572300D02*
X109068819Y-57040019D01*
X109068819Y-57040019D02*
X116562181Y-57040019D01*
X116562181Y-57040019D02*
X121030000Y-52572200D01*
X121030000Y-52572200D02*
X121030000Y-50072200D01*
X107141100Y-50072300D02*
X107141100Y-51690962D01*
X107141100Y-51690962D02*
X110890147Y-55440009D01*
X110890147Y-55440009D02*
X115622191Y-55440009D01*
X115622191Y-55440009D02*
X118490000Y-52572200D01*
X118490000Y-52572200D02*
X118490000Y-50072200D01*
D16*
X114300000Y-53340000D02*
X115950000Y-51690000D01*
X115950000Y-51690000D02*
X115950000Y-50072200D01*
X111760000Y-53340000D02*
X114300000Y-53340000D01*
X109681100Y-51261100D02*
X111760000Y-53340000D01*
X109681100Y-50072300D02*
X109681100Y-51261100D01*
X114300000Y-121920000D02*
X110490000Y-121920000D01*
X110490000Y-121920000D02*
X109681100Y-121111100D01*
X109681100Y-121111100D02*
X109681100Y-119516700D01*
X115950000Y-120270000D02*
X114300000Y-121920000D01*
X115950000Y-119516700D02*
X115950000Y-120270000D01*
D17*
X118490000Y-119516700D02*
X118490000Y-122016700D01*
X118490000Y-122016700D02*
X116486691Y-124020009D01*
X116486691Y-124020009D02*
X109144409Y-124020009D01*
X109144409Y-124020009D02*
X107141100Y-122016700D01*
X107141100Y-122016700D02*
X107141100Y-119516700D01*
X121030000Y-119516700D02*
X121030000Y-122016700D01*
X117426681Y-125620019D02*
X108481665Y-125620019D01*
X105279090Y-120194690D02*
X104601100Y-119516700D01*
X121030000Y-122016700D02*
X117426681Y-125620019D01*
X105279090Y-122417444D02*
X105279090Y-120194690D01*
X108481665Y-125620019D02*
X105279090Y-122417444D01*
D16*
X123570000Y-119516700D02*
X123570000Y-123016700D01*
X123570000Y-123016700D02*
X118866672Y-127720028D01*
X118866672Y-127720028D02*
X107611812Y-127720028D01*
X107611812Y-127720028D02*
X102239090Y-122347306D01*
X102239090Y-122347306D02*
X102239090Y-119694690D01*
X102239090Y-119694690D02*
X102061100Y-119516700D01*
X102061100Y-188961100D02*
X102061100Y-192231100D01*
X102061100Y-192231100D02*
X106130027Y-196300027D01*
X116702452Y-196300026D02*
X123570000Y-189432478D01*
X106130027Y-196300027D02*
X116702452Y-196300026D01*
X123570000Y-189432478D02*
X123570000Y-178572300D01*
X123570000Y-178572300D02*
X123570000Y-175072300D01*
D17*
X104601100Y-188961100D02*
X104601100Y-191461100D01*
X104601100Y-191461100D02*
X107340017Y-194200017D01*
X107340017Y-194200017D02*
X115832599Y-194200017D01*
X115832599Y-194200017D02*
X121030000Y-189002616D01*
X121030000Y-189002616D02*
X121030000Y-177572300D01*
X121030000Y-177572300D02*
X121030000Y-175072300D01*
X107141100Y-188961100D02*
X107141100Y-191461100D01*
X107141100Y-191461100D02*
X108280010Y-192600010D01*
X118490000Y-189279862D02*
X118490000Y-177572300D01*
X108280010Y-192600010D02*
X115169853Y-192600009D01*
X115169853Y-192600009D02*
X118490000Y-189279862D01*
X118490000Y-177572300D02*
X118490000Y-175072300D01*
D16*
X114300000Y-190500000D02*
X115950000Y-188850000D01*
X115950000Y-188850000D02*
X115950000Y-175072300D01*
X110142200Y-190500000D02*
X114300000Y-190500000D01*
X109681100Y-188961100D02*
X109681100Y-190038900D01*
X109681100Y-190038900D02*
X110142200Y-190500000D01*
X127000000Y-73660000D02*
X129838900Y-76498900D01*
X129838900Y-76498900D02*
X129838900Y-91738900D01*
X124260000Y-73660000D02*
X127000000Y-73660000D01*
X123570000Y-77850000D02*
X123570000Y-74350000D01*
X123570000Y-74350000D02*
X124260000Y-73660000D01*
D17*
X121030000Y-77850000D02*
X121030000Y-73920138D01*
X121030000Y-73920138D02*
X123390148Y-71559990D01*
X132378900Y-76069038D02*
X132378900Y-89238900D01*
X123390148Y-71559990D02*
X127869853Y-71559991D01*
X127869853Y-71559991D02*
X132378900Y-76069038D01*
X132378900Y-89238900D02*
X132378900Y-91738900D01*
X118490000Y-77850000D02*
X118490000Y-74197384D01*
X118490000Y-74197384D02*
X122727404Y-69959981D01*
X122727404Y-69959981D02*
X128532599Y-69959983D01*
X128532599Y-69959983D02*
X134918900Y-76346284D01*
X134918900Y-76346284D02*
X134918900Y-89238900D01*
X134918900Y-89238900D02*
X134918900Y-91738900D01*
D16*
X115950000Y-77850000D02*
X115950000Y-73767523D01*
X115950000Y-73767523D02*
X121857553Y-67859972D01*
X137458900Y-88238900D02*
X137458900Y-91738900D01*
X121857553Y-67859972D02*
X129402452Y-67859974D01*
X129402452Y-67859974D02*
X137458900Y-75916422D01*
X137458900Y-75916422D02*
X137458900Y-88238900D01*
X115950000Y-147294500D02*
X115950000Y-143794500D01*
X115950000Y-143794500D02*
X120764529Y-138979971D01*
X120764529Y-138979971D02*
X132644471Y-138979971D01*
X132644471Y-138979971D02*
X137458900Y-143794400D01*
X137458900Y-143794400D02*
X137458900Y-147294400D01*
D17*
X118490000Y-147294500D02*
X118490000Y-144794500D01*
X118490000Y-144794500D02*
X122204520Y-141079980D01*
X122204520Y-141079980D02*
X131204480Y-141079980D01*
X134918900Y-144794400D02*
X134918900Y-147294400D01*
X131204480Y-141079980D02*
X134918900Y-144794400D01*
X121030000Y-147294500D02*
X121030000Y-144794500D01*
X121030000Y-144794500D02*
X123144510Y-142679990D01*
X123144510Y-142679990D02*
X130264490Y-142679990D01*
X130264490Y-142679990D02*
X132378900Y-144794400D01*
X132378900Y-144794400D02*
X132378900Y-147294400D01*
D16*
X128270000Y-144780000D02*
X128270000Y-145725500D01*
X128270000Y-145725500D02*
X129838900Y-147294400D01*
X125730000Y-144780000D02*
X128270000Y-144780000D01*
X123570000Y-146940000D02*
X125730000Y-144780000D01*
X123570000Y-147294500D02*
X123570000Y-146940000D01*
X123570000Y-216738900D02*
X123621100Y-216738900D01*
X123621100Y-216738900D02*
X124460000Y-215900000D01*
X124460000Y-215900000D02*
X129000000Y-215900000D01*
X129000000Y-215900000D02*
X129838900Y-216738900D01*
D17*
X121030000Y-216738900D02*
X121030000Y-214238900D01*
X121030000Y-214238900D02*
X121468910Y-213799990D01*
X121468910Y-213799990D02*
X131939990Y-213799990D01*
X131939990Y-213799990D02*
X132378900Y-214238900D01*
X132378900Y-214238900D02*
X132378900Y-216738900D01*
X118490000Y-216738900D02*
X118490000Y-214238900D01*
X118490000Y-214238900D02*
X120528920Y-212199980D01*
X120528920Y-212199980D02*
X133459980Y-212199980D01*
X133459980Y-212199980D02*
X134918900Y-213658900D01*
X134918900Y-213658900D02*
X134918900Y-214238900D01*
X134918900Y-214238900D02*
X134918900Y-216738900D01*
D16*
X115950000Y-216738900D02*
X115950000Y-213809038D01*
X119659068Y-210099970D02*
X134329833Y-210099971D01*
X134329833Y-210099971D02*
X137458900Y-213229038D01*
X115950000Y-213809038D02*
X119659068Y-210099970D01*
X137458900Y-213229038D02*
X137458900Y-213238900D01*
X137458900Y-213238900D02*
X137458900Y-216738900D01*
X129838900Y-50072300D02*
X129838900Y-53572300D01*
X129838900Y-53572300D02*
X135406628Y-59140028D01*
X135406628Y-59140028D02*
X145779972Y-59140028D01*
X145779972Y-59140028D02*
X151347800Y-53572200D01*
X151347800Y-53572200D02*
X151347800Y-50072200D01*
D17*
X132378900Y-50072300D02*
X132378900Y-52572300D01*
X132378900Y-52572300D02*
X136846619Y-57040019D01*
X136846619Y-57040019D02*
X144339981Y-57040019D01*
X144339981Y-57040019D02*
X148807800Y-52572200D01*
X148807800Y-52572200D02*
X148807800Y-50072200D01*
X134918900Y-50072300D02*
X134918900Y-52572300D01*
X134918900Y-52572300D02*
X137786609Y-55440009D01*
X137786609Y-55440009D02*
X143399991Y-55440009D01*
X143399991Y-55440009D02*
X146267800Y-52572200D01*
X146267800Y-52572200D02*
X146267800Y-50072200D01*
D16*
X142240000Y-53340000D02*
X143727800Y-51852200D01*
X143727800Y-51852200D02*
X143727800Y-50072200D01*
X139988600Y-53340000D02*
X142240000Y-53340000D01*
X137458900Y-50072300D02*
X137458900Y-50810300D01*
X137458900Y-50810300D02*
X139988600Y-53340000D01*
X175337771Y-98339971D02*
X155660029Y-98339971D01*
X179125600Y-105627800D02*
X179125600Y-102127800D01*
X155660029Y-98339971D02*
X143510000Y-110490000D01*
X137458900Y-106365800D02*
X137458900Y-105627800D01*
X179125600Y-102127800D02*
X175337771Y-98339971D01*
X141583100Y-110490000D02*
X137458900Y-106365800D01*
X143510000Y-110490000D02*
X141583100Y-110490000D01*
D17*
X176585600Y-105627800D02*
X176585600Y-103127800D01*
X173897781Y-100439981D02*
X158640019Y-100439981D01*
X134918900Y-108127800D02*
X134918900Y-105627800D01*
X176585600Y-103127800D02*
X173897781Y-100439981D01*
X134918900Y-110788900D02*
X134918900Y-108127800D01*
X158640019Y-100439981D02*
X145110010Y-113969990D01*
X145110010Y-113969990D02*
X138099990Y-113969990D01*
X138099990Y-113969990D02*
X134918900Y-110788900D01*
X135890000Y-115570000D02*
X132378900Y-112058900D01*
X132378900Y-112058900D02*
X132378900Y-105627800D01*
X148590000Y-115570000D02*
X135890000Y-115570000D01*
X162120009Y-102039991D02*
X148590000Y-115570000D01*
X174045600Y-105627800D02*
X174045600Y-103127800D01*
X174045600Y-103127800D02*
X172957791Y-102039991D01*
X172957791Y-102039991D02*
X162120009Y-102039991D01*
D16*
X134620000Y-119380000D02*
X129838900Y-114598900D01*
X129838900Y-114598900D02*
X129838900Y-109127800D01*
X129838900Y-109127800D02*
X129838900Y-105627800D01*
X148590000Y-119380000D02*
X134620000Y-119380000D01*
X163830000Y-104140000D02*
X148590000Y-119380000D01*
X170180000Y-104140000D02*
X163830000Y-104140000D01*
X171505600Y-105465600D02*
X170180000Y-104140000D01*
X171505600Y-105627800D02*
X171505600Y-105465600D01*
X129838900Y-175072300D02*
X129838900Y-178572300D01*
X129838900Y-178572300D02*
X134866629Y-183600029D01*
X134866629Y-183600029D02*
X146319971Y-183600029D01*
X146319971Y-183600029D02*
X151347800Y-178572200D01*
X151347800Y-178572200D02*
X151347800Y-175072200D01*
D17*
X132378900Y-175072300D02*
X132378900Y-177572300D01*
X132378900Y-177572300D02*
X136306620Y-181500020D01*
X136306620Y-181500020D02*
X144879980Y-181500020D01*
X148807800Y-177572200D02*
X148807800Y-175072200D01*
X144879980Y-181500020D02*
X148807800Y-177572200D01*
X134918900Y-175072300D02*
X134918900Y-177572300D01*
X134918900Y-177572300D02*
X137246610Y-179900010D01*
X137246610Y-179900010D02*
X143939990Y-179900010D01*
X143939990Y-179900010D02*
X146267800Y-177572200D01*
X146267800Y-177572200D02*
X146267800Y-175072200D01*
D16*
X137458900Y-175072300D02*
X137458900Y-176231100D01*
X137458900Y-176231100D02*
X139027800Y-177800000D01*
X139027800Y-177800000D02*
X142240000Y-177800000D01*
X142240000Y-177800000D02*
X143727800Y-176312200D01*
X143727800Y-176312200D02*
X143727800Y-175072200D01*
X154475400Y-129540000D02*
X154489200Y-129540000D01*
X154489200Y-129540000D02*
X157616700Y-132667500D01*
X157616700Y-132667500D02*
X157616700Y-133405500D01*
X151347800Y-133405600D02*
X151347800Y-132667600D01*
X151347800Y-132667600D02*
X154475400Y-129540000D01*
D17*
X148807800Y-133405600D02*
X148807800Y-130905600D01*
X160156700Y-130905500D02*
X160156700Y-133405500D01*
X148807800Y-130905600D02*
X152273410Y-127439990D01*
X156691190Y-127439990D02*
X160156700Y-130905500D01*
X152273410Y-127439990D02*
X156691190Y-127439990D01*
X146267800Y-133405600D02*
X146267800Y-130905600D01*
X146267800Y-130905600D02*
X151333420Y-125839980D01*
X151333420Y-125839980D02*
X157631180Y-125839980D01*
X157631180Y-125839980D02*
X162696700Y-130905500D01*
X162696700Y-130905500D02*
X162696700Y-133405500D01*
D16*
X143727800Y-133405600D02*
X143727800Y-129905600D01*
X143727800Y-129905600D02*
X149893429Y-123739971D01*
X149893429Y-123739971D02*
X159071171Y-123739971D01*
X159071171Y-123739971D02*
X165236700Y-129905500D01*
X165236700Y-129905500D02*
X165236700Y-133405500D01*
X157616700Y-63961100D02*
X157616700Y-79459177D01*
X157616700Y-79459177D02*
X165237549Y-87080026D01*
X165237549Y-87080026D02*
X173395574Y-87080026D01*
X173395574Y-87080026D02*
X179125600Y-81350000D01*
X179125600Y-81350000D02*
X179125600Y-77850000D01*
D17*
X160156700Y-63961100D02*
X160156700Y-79029316D01*
X160156700Y-79029316D02*
X166107402Y-84980017D01*
X166107402Y-84980017D02*
X171955583Y-84980017D01*
X171955583Y-84980017D02*
X176585600Y-80350000D01*
X176585600Y-80350000D02*
X176585600Y-77850000D01*
X162696700Y-63961100D02*
X162696700Y-79306562D01*
X174045600Y-80384262D02*
X174045600Y-80350000D01*
X162696700Y-79306562D02*
X166770148Y-83380010D01*
X166770148Y-83380010D02*
X171049853Y-83380009D01*
X171049853Y-83380009D02*
X174045600Y-80384262D01*
X174045600Y-80350000D02*
X174045600Y-77850000D01*
D16*
X170180000Y-81280000D02*
X171505600Y-79954400D01*
X171505600Y-79954400D02*
X171505600Y-77850000D01*
X167640000Y-81280000D02*
X170180000Y-81280000D01*
X165100000Y-78740000D02*
X167640000Y-81280000D01*
X165100000Y-67597800D02*
X165100000Y-78740000D01*
X165236700Y-63961100D02*
X165236700Y-67461100D01*
X165236700Y-67461100D02*
X165100000Y-67597800D01*
M02*
