G04 #@! TF.FileFunction,Profile,NP*
%FSLAX46Y46*%
G04 Gerber Fmt 4.6, Leading zero omitted, Abs format (unit mm)*
G04 Created by KiCad (PCBNEW 4.0.6) date Mon Jul 10 19:20:19 2017*
%MOMM*%
%LPD*%
G01*
G04 APERTURE LIST*
%ADD10C,0.100000*%
%ADD11C,0.150000*%
G04 APERTURE END LIST*
D10*
D11*
X83037800Y-48072200D02*
X85037800Y-48072200D01*
X83037800Y-48072200D02*
X83037800Y-50072200D01*
X87037800Y-48072200D02*
X96926700Y-48072200D01*
X96926700Y-48072200D02*
X98926700Y-48072200D01*
X85037800Y-48072200D02*
X87037800Y-48072200D01*
X100926700Y-48072200D02*
X110815600Y-48072200D01*
X110815600Y-48072200D02*
X112815600Y-48072200D01*
X98926700Y-48072200D02*
X100926700Y-48072200D01*
X114815600Y-48072200D02*
X124704400Y-48072200D01*
X124704400Y-48072200D02*
X126704400Y-48072200D01*
X112815600Y-48072200D02*
X114815600Y-48072200D01*
X128704400Y-48072200D02*
X138593300Y-48072200D01*
X138593300Y-48072200D02*
X140593300Y-48072200D01*
X126704400Y-48072200D02*
X128704400Y-48072200D01*
X142593300Y-48072200D02*
X152482200Y-48072200D01*
X152482200Y-48072200D02*
X154482200Y-48072200D01*
X140593300Y-48072200D02*
X142593300Y-48072200D01*
X156482200Y-48072200D02*
X156482200Y-50072200D01*
X154482200Y-48072200D02*
X156482200Y-48072200D01*
X55260000Y-61961100D02*
X57260000Y-61961100D01*
X55260000Y-61961100D02*
X55260000Y-63961100D01*
X59260000Y-61961100D02*
X69148900Y-61961100D01*
X69148900Y-61961100D02*
X71148900Y-61961100D01*
X57260000Y-61961100D02*
X59260000Y-61961100D01*
X83037800Y-50072200D02*
X83037800Y-52072200D01*
X73148900Y-61961100D02*
X83037800Y-61961100D01*
X71148900Y-61961100D02*
X73148900Y-61961100D01*
X83037800Y-52072200D02*
X83037800Y-61961100D01*
X156482200Y-50072200D02*
X156482200Y-52072200D01*
X156482200Y-52072200D02*
X156482200Y-61961100D01*
X156482200Y-61961100D02*
X166371100Y-61961100D01*
X166371100Y-61961100D02*
X168371100Y-61961100D01*
X170371100Y-61961100D02*
X170371100Y-63961100D01*
X168371100Y-61961100D02*
X170371100Y-61961100D01*
X55260000Y-63961100D02*
X55260000Y-65961100D01*
X55260000Y-75850000D02*
X55260000Y-77850000D01*
X55260000Y-65961100D02*
X55260000Y-75850000D01*
X170371100Y-63961100D02*
X170371100Y-65961100D01*
X170371100Y-65961100D02*
X170371100Y-75850000D01*
X170371100Y-75850000D02*
X180260000Y-75850000D01*
X180260000Y-75850000D02*
X182260000Y-75850000D01*
X184260000Y-75850000D02*
X184260000Y-77850000D01*
X182260000Y-75850000D02*
X184260000Y-75850000D01*
X41371100Y-89738900D02*
X43371100Y-89738900D01*
X41371100Y-89738900D02*
X41371100Y-91738900D01*
X55260000Y-77850000D02*
X55260000Y-79850000D01*
X45371100Y-89738900D02*
X55260000Y-89738900D01*
X43371100Y-89738900D02*
X45371100Y-89738900D01*
X55260000Y-79850000D02*
X55260000Y-89738900D01*
X124704400Y-89738900D02*
X124704400Y-91738900D01*
X114815600Y-89738900D02*
X114815600Y-91738900D01*
X114815600Y-79850000D02*
X124704400Y-79850000D01*
X124704400Y-79850000D02*
X124704400Y-89738900D01*
X114815600Y-79850000D02*
X114815600Y-89738900D01*
X184260000Y-77850000D02*
X184260000Y-79850000D01*
X184260000Y-79850000D02*
X184260000Y-89738900D01*
X184260000Y-89738900D02*
X184260000Y-91738900D01*
X27482200Y-103627800D02*
X29482200Y-103627800D01*
X27482200Y-103627800D02*
X27482200Y-105627800D01*
X41371100Y-91738900D02*
X41371100Y-93738900D01*
X31482200Y-103627800D02*
X41371100Y-103627800D01*
X29482200Y-103627800D02*
X31482200Y-103627800D01*
X41371100Y-93738900D02*
X41371100Y-103627800D01*
X87037800Y-93738900D02*
X96926700Y-93738900D01*
X96926700Y-93738900D02*
X98926700Y-93738900D01*
X87037800Y-93738900D02*
X87037800Y-103627800D01*
X87037800Y-103627800D02*
X87037800Y-105627800D01*
X100926700Y-93738900D02*
X110815600Y-93738900D01*
X110815600Y-93738900D02*
X112815600Y-93738900D01*
X98926700Y-93738900D02*
X100926700Y-93738900D01*
X114815600Y-91738900D02*
X114815600Y-93738900D01*
X124704400Y-91738900D02*
X124704400Y-93738900D01*
X124704400Y-93738900D02*
X126704400Y-93738900D01*
X124704400Y-103627800D02*
X126704400Y-103627800D01*
X124704400Y-103627800D02*
X124704400Y-105627800D01*
X112815600Y-93738900D02*
X114815600Y-93738900D01*
X126704400Y-103627800D02*
X128704400Y-103627800D01*
X126704400Y-93738900D02*
X128704400Y-93738900D01*
X128704400Y-93738900D02*
X138593300Y-93738900D01*
X138593300Y-93738900D02*
X138593300Y-103627800D01*
X128704400Y-103627800D02*
X138593300Y-103627800D01*
X184260000Y-91738900D02*
X184260000Y-93738900D01*
X184260000Y-93738900D02*
X184260000Y-103627800D01*
X184260000Y-103627800D02*
X184260000Y-105627800D01*
X27482200Y-105627800D02*
X27482200Y-107627800D01*
X27482200Y-117516700D02*
X27482200Y-119516700D01*
X27482200Y-107627800D02*
X27482200Y-117516700D01*
X87037800Y-105627800D02*
X87037800Y-107627800D01*
X87037800Y-107627800D02*
X87037800Y-117516700D01*
X87037800Y-117516700D02*
X96926700Y-117516700D01*
X96926700Y-117516700D02*
X98926700Y-117516700D01*
X100926700Y-117516700D02*
X110815600Y-117516700D01*
X110815600Y-117516700D02*
X112815600Y-117516700D01*
X98926700Y-117516700D02*
X100926700Y-117516700D01*
X124704400Y-105627800D02*
X124704400Y-107627800D01*
X114815600Y-117516700D02*
X124704400Y-117516700D01*
X112815600Y-117516700D02*
X114815600Y-117516700D01*
X124704400Y-107627800D02*
X124704400Y-117516700D01*
X170371100Y-107627800D02*
X180260000Y-107627800D01*
X180260000Y-107627800D02*
X182260000Y-107627800D01*
X170371100Y-107627800D02*
X170371100Y-117516700D01*
X170371100Y-117516700D02*
X170371100Y-119516700D01*
X184260000Y-105627800D02*
X184260000Y-107627800D01*
X182260000Y-107627800D02*
X184260000Y-107627800D01*
X27482200Y-119516700D02*
X27482200Y-121516700D01*
X27482200Y-131405600D02*
X27482200Y-133405600D01*
X27482200Y-121516700D02*
X27482200Y-131405600D01*
X170371100Y-119516700D02*
X170371100Y-121516700D01*
X170371100Y-121516700D02*
X170371100Y-131405600D01*
X170371100Y-131405600D02*
X170371100Y-133405600D01*
X27482200Y-133405600D02*
X27482200Y-135405600D01*
X27482200Y-145294400D02*
X27482200Y-147294400D01*
X27482200Y-135405600D02*
X27482200Y-145294400D01*
X142593300Y-135405600D02*
X152482200Y-135405600D01*
X152482200Y-135405600D02*
X154482200Y-135405600D01*
X142593300Y-135405600D02*
X142593300Y-145294400D01*
X142593300Y-145294400D02*
X142593300Y-147294400D01*
X156482200Y-135405600D02*
X166371100Y-135405600D01*
X166371100Y-135405600D02*
X168371100Y-135405600D01*
X154482200Y-135405600D02*
X156482200Y-135405600D01*
X170371100Y-133405600D02*
X170371100Y-135405600D01*
X168371100Y-135405600D02*
X170371100Y-135405600D01*
X27482200Y-147294400D02*
X27482200Y-149294400D01*
X27482200Y-159183300D02*
X27482200Y-161183300D01*
X27482200Y-149294400D02*
X27482200Y-159183300D01*
X73148900Y-149294400D02*
X83037800Y-149294400D01*
X83037800Y-149294400D02*
X85037800Y-149294400D01*
X73148900Y-149294400D02*
X73148900Y-159183300D01*
X73148900Y-159183300D02*
X73148900Y-161183300D01*
X87037800Y-149294400D02*
X96926700Y-149294400D01*
X96926700Y-149294400D02*
X98926700Y-149294400D01*
X85037800Y-149294400D02*
X87037800Y-149294400D01*
X100926700Y-149294400D02*
X110815600Y-149294400D01*
X110815600Y-149294400D02*
X112815600Y-149294400D01*
X98926700Y-149294400D02*
X100926700Y-149294400D01*
X114815600Y-149294400D02*
X124704400Y-149294400D01*
X124704400Y-149294400D02*
X126704400Y-149294400D01*
X112815600Y-149294400D02*
X114815600Y-149294400D01*
X128704400Y-149294400D02*
X138593300Y-149294400D01*
X138593300Y-149294400D02*
X140593300Y-149294400D01*
X126704400Y-149294400D02*
X128704400Y-149294400D01*
X142593300Y-147294400D02*
X142593300Y-149294400D01*
X140593300Y-149294400D02*
X142593300Y-149294400D01*
X27482200Y-161183300D02*
X27482200Y-163183300D01*
X27482200Y-173072200D02*
X27482200Y-175072200D01*
X27482200Y-163183300D02*
X27482200Y-173072200D01*
X73148900Y-161183300D02*
X73148900Y-163183300D01*
X73148900Y-163183300D02*
X73148900Y-173072200D01*
X73148900Y-173072200D02*
X83037800Y-173072200D01*
X83037800Y-173072200D02*
X85037800Y-173072200D01*
X87037800Y-173072200D02*
X96926700Y-173072200D01*
X96926700Y-173072200D02*
X98926700Y-173072200D01*
X85037800Y-173072200D02*
X87037800Y-173072200D01*
X110815600Y-173072200D02*
X112815600Y-173072200D01*
X110815600Y-173072200D02*
X110815600Y-175072200D01*
X100926700Y-173072200D02*
X100926700Y-175072200D01*
X98926700Y-173072200D02*
X100926700Y-173072200D01*
X114815600Y-173072200D02*
X124704400Y-173072200D01*
X124704400Y-173072200D02*
X126704400Y-173072200D01*
X112815600Y-173072200D02*
X114815600Y-173072200D01*
X128704400Y-173072200D02*
X138593300Y-173072200D01*
X138593300Y-173072200D02*
X140593300Y-173072200D01*
X126704400Y-173072200D02*
X128704400Y-173072200D01*
X142593300Y-173072200D02*
X152482200Y-173072200D01*
X152482200Y-173072200D02*
X154482200Y-173072200D01*
X140593300Y-173072200D02*
X142593300Y-173072200D01*
X156482200Y-173072200D02*
X156482200Y-175072200D01*
X154482200Y-173072200D02*
X156482200Y-173072200D01*
X27482200Y-175072200D02*
X27482200Y-177072200D01*
X27482200Y-186961100D02*
X27482200Y-188961100D01*
X27482200Y-177072200D02*
X27482200Y-186961100D01*
X100926700Y-175072200D02*
X100926700Y-177072200D01*
X110815600Y-175072200D02*
X110815600Y-177072200D01*
X110815600Y-177072200D02*
X110815600Y-186961100D01*
X100926700Y-186961100D02*
X110815600Y-186961100D01*
X100926700Y-177072200D02*
X100926700Y-186961100D01*
X156482200Y-175072200D02*
X156482200Y-177072200D01*
X156482200Y-177072200D02*
X156482200Y-186961100D01*
X156482200Y-186961100D02*
X156482200Y-188961100D01*
X27482200Y-188961100D02*
X27482200Y-190961100D01*
X27482200Y-190961100D02*
X29482200Y-190961100D01*
X31482200Y-190961100D02*
X41371100Y-190961100D01*
X41371100Y-190961100D02*
X41371100Y-200850000D01*
X41371100Y-200850000D02*
X41371100Y-202850000D01*
X29482200Y-190961100D02*
X31482200Y-190961100D01*
X156482200Y-188961100D02*
X156482200Y-190961100D01*
X156482200Y-190961100D02*
X156482200Y-200850000D01*
X156482200Y-200850000D02*
X156482200Y-202850000D01*
X41371100Y-202850000D02*
X41371100Y-204850000D01*
X41371100Y-204850000D02*
X43371100Y-204850000D01*
X45371100Y-204850000D02*
X55260000Y-204850000D01*
X55260000Y-204850000D02*
X55260000Y-214738900D01*
X55260000Y-214738900D02*
X55260000Y-216738900D01*
X43371100Y-204850000D02*
X45371100Y-204850000D01*
X142593300Y-204850000D02*
X152482200Y-204850000D01*
X152482200Y-204850000D02*
X154482200Y-204850000D01*
X142593300Y-204850000D02*
X142593300Y-214738900D01*
X142593300Y-214738900D02*
X142593300Y-216738900D01*
X156482200Y-202850000D02*
X156482200Y-204850000D01*
X154482200Y-204850000D02*
X156482200Y-204850000D01*
X55260000Y-216738900D02*
X55260000Y-218738900D01*
X55260000Y-218738900D02*
X57260000Y-218738900D01*
X59260000Y-218738900D02*
X69148900Y-218738900D01*
X69148900Y-218738900D02*
X71148900Y-218738900D01*
X57260000Y-218738900D02*
X59260000Y-218738900D01*
X73148900Y-218738900D02*
X83037800Y-218738900D01*
X83037800Y-218738900D02*
X85037800Y-218738900D01*
X71148900Y-218738900D02*
X73148900Y-218738900D01*
X87037800Y-218738900D02*
X96926700Y-218738900D01*
X96926700Y-218738900D02*
X98926700Y-218738900D01*
X85037800Y-218738900D02*
X87037800Y-218738900D01*
X100926700Y-218738900D02*
X110815600Y-218738900D01*
X110815600Y-218738900D02*
X112815600Y-218738900D01*
X98926700Y-218738900D02*
X100926700Y-218738900D01*
X114815600Y-218738900D02*
X124704400Y-218738900D01*
X124704400Y-218738900D02*
X126704400Y-218738900D01*
X112815600Y-218738900D02*
X114815600Y-218738900D01*
X128704400Y-218738900D02*
X138593300Y-218738900D01*
X138593300Y-218738900D02*
X140593300Y-218738900D01*
X126704400Y-218738900D02*
X128704400Y-218738900D01*
X142593300Y-216738900D02*
X142593300Y-218738900D01*
X140593300Y-218738900D02*
X142593300Y-218738900D01*
M02*
