M48
;DRILL file {KiCad 4.0.6} date Mon Jul 10 19:20:21 2017
;FORMAT={-:-/ absolute / metric / decimal}
FMAT,2
METRIC,TZ
T1C0.600
%
G90
G05
M71
T1
X32.617Y-105.628
X32.617Y-188.961
X35.157Y-105.628
X35.157Y-188.961
X37.697Y-105.628
X37.697Y-188.961
X40.237Y-105.628
X40.237Y-188.961
X43.18Y-126.238
X43.18Y-132.27
X43.434Y-114.3
X43.434Y-120.332
X46.506Y-91.739
X46.506Y-202.85
X49.046Y-91.739
X49.046Y-202.85
X51.586Y-91.739
X51.586Y-202.85
X54.126Y-91.739
X54.126Y-202.85
X60.394Y-63.961
X60.394Y-216.739
X62.934Y-63.961
X62.934Y-216.739
X65.474Y-63.961
X65.474Y-216.739
X68.014Y-63.961
X68.014Y-216.739
X74.283Y-63.961
X74.283Y-147.294
X74.283Y-175.072
X74.283Y-216.739
X76.823Y-63.961
X76.823Y-147.294
X76.823Y-175.072
X76.823Y-216.739
X79.363Y-63.961
X79.363Y-147.294
X79.363Y-175.072
X79.363Y-216.739
X81.903Y-63.961
X81.903Y-147.294
X81.903Y-175.072
X81.903Y-216.739
X88.172Y-50.072
X88.172Y-91.739
X88.172Y-119.517
X88.172Y-147.294
X88.172Y-175.072
X88.172Y-216.739
X90.712Y-50.072
X90.712Y-91.739
X90.712Y-119.517
X90.712Y-147.294
X90.712Y-175.072
X90.712Y-216.739
X93.252Y-50.072
X93.252Y-91.739
X93.252Y-119.517
X93.252Y-147.294
X93.252Y-175.072
X93.252Y-216.739
X95.792Y-50.072
X95.792Y-91.739
X95.792Y-119.517
X95.792Y-147.294
X95.792Y-175.072
X95.792Y-216.739
X98.806Y-127.762
X98.806Y-133.794
X102.061Y-50.072
X102.061Y-91.739
X102.061Y-119.517
X102.061Y-147.294
X102.061Y-188.961
X102.061Y-216.739
X104.601Y-50.072
X104.601Y-91.739
X104.601Y-119.517
X104.601Y-147.294
X104.601Y-188.961
X104.601Y-216.739
X107.141Y-50.072
X107.141Y-91.739
X107.141Y-119.517
X107.141Y-147.294
X107.141Y-188.961
X107.141Y-216.739
X109.681Y-50.072
X109.681Y-91.739
X109.681Y-119.517
X109.681Y-147.294
X109.681Y-188.961
X109.681Y-216.739
X115.95Y-50.072
X115.95Y-77.85
X115.95Y-119.517
X115.95Y-147.294
X115.95Y-175.072
X115.95Y-216.739
X118.49Y-50.072
X118.49Y-77.85
X118.49Y-119.517
X118.49Y-147.294
X118.49Y-175.072
X118.49Y-216.739
X121.03Y-50.072
X121.03Y-77.85
X121.03Y-119.517
X121.03Y-147.294
X121.03Y-175.072
X121.03Y-216.739
X123.57Y-50.072
X123.57Y-77.85
X123.57Y-119.517
X123.57Y-147.294
X123.57Y-175.072
X123.57Y-216.739
X129.839Y-50.072
X129.839Y-91.739
X129.839Y-105.628
X129.839Y-147.294
X129.839Y-175.072
X129.839Y-216.739
X132.379Y-50.072
X132.379Y-91.739
X132.379Y-105.628
X132.379Y-147.294
X132.379Y-175.072
X132.379Y-216.739
X134.919Y-50.072
X134.919Y-91.739
X134.919Y-105.628
X134.919Y-147.294
X134.919Y-175.072
X134.919Y-216.739
X137.459Y-50.072
X137.459Y-91.739
X137.459Y-105.628
X137.459Y-147.294
X137.459Y-175.072
X137.459Y-216.739
X143.728Y-50.072
X143.728Y-133.406
X143.728Y-175.072
X143.728Y-202.85
X146.268Y-50.072
X146.268Y-133.406
X146.268Y-175.072
X146.268Y-202.85
X148.808Y-50.072
X148.808Y-133.406
X148.808Y-175.072
X148.808Y-202.85
X151.348Y-50.072
X151.348Y-133.406
X151.348Y-175.072
X151.348Y-202.85
X157.617Y-63.961
X157.617Y-133.405
X160.157Y-63.961
X160.157Y-133.405
X162.697Y-63.961
X162.697Y-133.405
X165.237Y-63.961
X165.237Y-133.405
X171.506Y-77.85
X171.506Y-105.628
X174.046Y-77.85
X174.046Y-105.628
X176.586Y-77.85
X176.586Y-105.628
X179.126Y-77.85
X179.126Y-105.628
T0
M30
