<?xml version="1.0" standalone="no"?>
 <!DOCTYPE svg PUBLIC "-//W3C//DTD SVG 1.1//EN" 
 "http://www.w3.org/Graphics/SVG/1.1/DTD/svg11.dtd"> 
<svg xmlns="http://www.w3.org/2000/svg" version="1.1" 
    width="118.9cm" height="84.0994cm" viewBox="0 0 468110 331100 ">
<title>SVG Picture created as sign-F.Cu.svg date 2017/07/10 00:28:36 </title>
  <desc>Picture generated by PCBNEW </desc>
<g style="fill:#000000; fill-opacity:1;stroke:#000000; stroke-opacity:1;
stroke-linecap:round; stroke-linejoin:round; "
 transform="translate(0 0) scale(1 1)">
</g>
<g style="fill:#000000; fill-opacity:0.0; 
stroke:#000000; stroke-width:-0.000393701; stroke-opacity:1; 
stroke-linecap:round; stroke-linejoin:round;">
</g>
<g style="fill:#000000; fill-opacity:0.0; 
stroke:#000000; stroke-width:600; stroke-opacity:1; 
stroke-linecap:round; stroke-linejoin:round;">
<path d="M32777 47390
L32777 47972
" />
<path d="M31777 47390
L31777 47972
" />
<path d="M30777 47390
L30777 47972
" />
<path d="M29777 47390
L29777 47972
" />
<path d="M32777 107539
L32777 108120
" />
<path d="M31777 107539
L31777 108120
" />
<path d="M30777 107539
L30777 108120
" />
<path d="M29777 107539
L29777 108120
" />
<path d="M21841 63795
L21841 64376
" />
<path d="M20841 63795
L20841 64376
" />
<path d="M19841 63795
L19841 64376
" />
<path d="M18841 63795
L18841 64376
" />
<path d="M21841 96603
L21841 97184
" />
<path d="M20841 96603
L20841 97184
" />
<path d="M19841 96603
L19841 97184
" />
<path d="M18841 96603
L18841 97184
" />
<path d="M24309 102652
L24309 102071
" />
<path d="M25309 102652
L25309 102071
" />
<path d="M26309 102652
L26309 102071
" />
<path d="M27309 102652
L27309 102071
" />
<path d="M24309 58908
L24309 58327
" />
<path d="M25309 58908
L25309 58327
" />
<path d="M26309 58908
L26309 58327
" />
<path d="M27309 58908
L27309 58327
" />
<path d="M35245 80780
L35245 80199
" />
<path d="M36245 80780
L36245 80199
" />
<path d="M37245 80780
L37245 80199
" />
<path d="M38245 80780
L38245 80199
" />
<path d="M35245 47972
L35245 47390
" />
<path d="M36245 47972
L36245 47390
" />
<path d="M37245 47972
L37245 47390
" />
<path d="M38245 47972
L38245 47390
" />
<path d="M35245 108120
L35245 107539
" />
<path d="M36245 108120
L36245 107539
" />
<path d="M37245 108120
L37245 107539
" />
<path d="M38245 108120
L38245 107539
" />
<path d="M35245 91716
L35245 91135
" />
<path d="M36245 91716
L36245 91135
" />
<path d="M37245 91716
L37245 91135
" />
<path d="M38245 91716
L38245 91135
" />
<path d="M43713 41922
L43713 42504
" />
<path d="M42713 41922
L42713 42504
" />
<path d="M41713 41922
L41713 42504
" />
<path d="M40713 41922
L40713 42504
" />
<path d="M43713 58327
L43713 58908
" />
<path d="M42713 58327
L42713 58908
" />
<path d="M41713 58327
L41713 58908
" />
<path d="M40713 58327
L40713 58908
" />
<path d="M40713 80780
L40713 80199
" />
<path d="M41713 80780
L41713 80199
" />
<path d="M42713 80780
L42713 80199
" />
<path d="M43713 80780
L43713 80199
" />
<path d="M40713 69844
L40713 69263
" />
<path d="M41713 69844
L41713 69263
" />
<path d="M42713 69844
L42713 69263
" />
<path d="M43713 69844
L43713 69263
" />
<path d="M43713 91135
L43713 91716
" />
<path d="M42713 91135
L42713 91716
" />
<path d="M41713 91135
L41713 91716
" />
<path d="M40713 91135
L40713 91716
" />
<path d="M43713 107539
L43713 108120
" />
<path d="M42713 107539
L42713 108120
" />
<path d="M41713 107539
L41713 108120
" />
<path d="M40713 107539
L40713 108120
" />
<path d="M46181 58908
L46181 58327
" />
<path d="M47181 58908
L47181 58327
" />
<path d="M48181 58908
L48181 58327
" />
<path d="M49181 58908
L49181 58327
" />
<path d="M46181 42504
L46181 41922
" />
<path d="M47181 42504
L47181 41922
" />
<path d="M48181 42504
L48181 41922
" />
<path d="M49181 42504
L49181 41922
" />
<path d="M49181 69263
L49181 69844
" />
<path d="M48181 69263
L48181 69844
" />
<path d="M47181 69263
L47181 69844
" />
<path d="M46181 69263
L46181 69844
" />
<path d="M49181 80199
L49181 80780
" />
<path d="M48181 80199
L48181 80780
" />
<path d="M47181 80199
L47181 80780
" />
<path d="M46181 80199
L46181 80780
" />
<path d="M46181 108120
L46181 107539
" />
<path d="M47181 108120
L47181 107539
" />
<path d="M48181 108120
L48181 107539
" />
<path d="M49181 108120
L49181 107539
" />
<path d="M46181 97184
L46181 96603
" />
<path d="M47181 97184
L47181 96603
" />
<path d="M48181 97184
L48181 96603
" />
<path d="M49181 97184
L49181 96603
" />
<path d="M54649 41922
L54649 42504
" />
<path d="M53649 41922
L53649 42504
" />
<path d="M52649 41922
L52649 42504
" />
<path d="M51649 41922
L51649 42504
" />
<path d="M54649 52859
L54649 53440
" />
<path d="M53649 52859
L53649 53440
" />
<path d="M52649 52859
L52649 53440
" />
<path d="M51649 52859
L51649 53440
" />
<path d="M51649 80780
L51649 80199
" />
<path d="M52649 80780
L52649 80199
" />
<path d="M53649 80780
L53649 80199
" />
<path d="M54649 80780
L54649 80199
" />
<path d="M51649 69844
L51649 69263
" />
<path d="M52649 69844
L52649 69263
" />
<path d="M53649 69844
L53649 69263
" />
<path d="M54649 69844
L54649 69263
" />
<path d="M54649 91135
L54649 91716
" />
<path d="M53649 91135
L53649 91716
" />
<path d="M52649 91135
L52649 91716
" />
<path d="M51649 91135
L51649 91716
" />
<path d="M54649 107539
L54649 108120
" />
<path d="M53649 107539
L53649 108120
" />
<path d="M52649 107539
L52649 108120
" />
<path d="M51649 107539
L51649 108120
" />
<path d="M57117 58908
L57117 58327
" />
<path d="M58117 58908
L58117 58327
" />
<path d="M59117 58908
L59117 58327
" />
<path d="M60117 58908
L60117 58327
" />
<path d="M57117 42504
L57117 41922
" />
<path d="M58117 42504
L58117 41922
" />
<path d="M59117 42504
L59117 41922
" />
<path d="M60117 42504
L60117 41922
" />
<path d="M60117 63795
L60117 64376
" />
<path d="M59117 63795
L59117 64376
" />
<path d="M58117 63795
L58117 64376
" />
<path d="M57117 63795
L57117 64376
" />
<path d="M60117 80199
L60117 80780
" />
<path d="M59117 80199
L59117 80780
" />
<path d="M58117 80199
L58117 80780
" />
<path d="M57117 80199
L57117 80780
" />
<path d="M57117 108120
L57117 107539
" />
<path d="M58117 108120
L58117 107539
" />
<path d="M59117 108120
L59117 107539
" />
<path d="M60117 108120
L60117 107539
" />
<path d="M57117 91716
L57117 91135
" />
<path d="M58117 91716
L58117 91135
" />
<path d="M59117 91716
L59117 91135
" />
<path d="M60117 91716
L60117 91135
" />
<path d="M60117 173156
L60117 173737
" />
<path d="M59117 173156
L59117 173737
" />
<path d="M58117 173156
L58117 173737
" />
<path d="M57117 173156
L57117 173737
" />
<path d="M60117 200496
L60117 201077
" />
<path d="M59117 200496
L59117 201077
" />
<path d="M58117 200496
L58117 201077
" />
<path d="M57117 200496
L57117 201077
" />
<path d="M65585 41922
L65585 42504
" />
<path d="M64585 41922
L64585 42504
" />
<path d="M63585 41922
L63585 42504
" />
<path d="M62585 41922
L62585 42504
" />
<path d="M65585 74731
L65585 75312
" />
<path d="M64585 74731
L64585 75312
" />
<path d="M63585 74731
L63585 75312
" />
<path d="M62585 74731
L62585 75312
" />
<path d="M65585 91135
L65585 91716
" />
<path d="M64585 91135
L64585 91716
" />
<path d="M63585 91135
L63585 91716
" />
<path d="M62585 91135
L62585 91716
" />
<path d="M65585 102071
L65585 102652
" />
<path d="M64585 102071
L64585 102652
" />
<path d="M63585 102071
L63585 102652
" />
<path d="M62585 102071
L62585 102652
" />
<path d="M62585 206546
L62585 205964
" />
<path d="M63585 206546
L63585 205964
" />
<path d="M64585 206546
L64585 205964
" />
<path d="M65585 206546
L65585 205964
" />
<path d="M62585 168269
L62585 167688
" />
<path d="M63585 168269
L63585 167688
" />
<path d="M64585 168269
L64585 167688
" />
<path d="M65585 168269
L65585 167688
" />
<path d="M68053 75312
L68053 74731
" />
<path d="M69053 75312
L69053 74731
" />
<path d="M70053 75312
L70053 74731
" />
<path d="M71053 75312
L71053 74731
" />
<path d="M68053 47972
L68053 47390
" />
<path d="M69053 47972
L69053 47390
" />
<path d="M70053 47972
L70053 47390
" />
<path d="M71053 47972
L71053 47390
" />
<path d="M68053 184673
L68053 184092
" />
<path d="M69053 184673
L69053 184092
" />
<path d="M70053 184673
L70053 184092
" />
<path d="M71053 184673
L71053 184092
" />
<path d="M68053 146397
L68053 145816
" />
<path d="M69053 146397
L69053 145816
" />
<path d="M70053 146397
L70053 145816
" />
<path d="M71053 146397
L71053 145816
" />
<path d="M71053 189560
L71053 190141
" />
<path d="M70053 189560
L70053 190141
" />
<path d="M69053 189560
L69053 190141
" />
<path d="M68053 189560
L68053 190141
" />
<path d="M71053 205964
L71053 206546
" />
<path d="M70053 205964
L70053 206546
" />
<path d="M69053 205964
L69053 206546
" />
<path d="M68053 205964
L68053 206546
" />
<path d="M76521 52859
L76521 53440
" />
<path d="M75521 52859
L75521 53440
" />
<path d="M74521 52859
L74521 53440
" />
<path d="M73521 52859
L73521 53440
" />
<path d="M76521 63795
L76521 64376
" />
<path d="M75521 63795
L75521 64376
" />
<path d="M74521 63795
L74521 64376
" />
<path d="M73521 63795
L73521 64376
" />
<path d="M76521 140348
L76521 140929
" />
<path d="M75521 140348
L75521 140929
" />
<path d="M74521 140348
L74521 140929
" />
<path d="M73521 140348
L73521 140929
" />
<path d="M76521 178624
L76521 179205
" />
<path d="M75521 178624
L75521 179205
" />
<path d="M74521 178624
L74521 179205
" />
<path d="M73521 178624
L73521 179205
" />
<path d="M73521 206546
L73521 205964
" />
<path d="M74521 206546
L74521 205964
" />
<path d="M75521 206546
L75521 205964
" />
<path d="M76521 206546
L76521 205964
" />
<path d="M73521 195609
L73521 195028
" />
<path d="M74521 195609
L74521 195028
" />
<path d="M75521 195609
L75521 195028
" />
<path d="M76521 195609
L76521 195028
" />
<path d="M78989 151865
L78989 151284
" />
<path d="M79989 151865
L79989 151284
" />
<path d="M80989 151865
L80989 151284
" />
<path d="M81989 151865
L81989 151284
" />
<path d="M78989 135461
L78989 134880
" />
<path d="M79989 135461
L79989 134880
" />
<path d="M80989 135461
L80989 134880
" />
<path d="M81989 135461
L81989 134880
" />
<path d="M78989 184673
L78989 184092
" />
<path d="M79989 184673
L79989 184092
" />
<path d="M80989 184673
L80989 184092
" />
<path d="M81989 184673
L81989 184092
" />
<path d="M78989 157333
L78989 156752
" />
<path d="M79989 157333
L79989 156752
" />
<path d="M80989 157333
L80989 156752
" />
<path d="M81989 157333
L81989 156752
" />
<path d="M81989 195028
L81989 195609
" />
<path d="M80989 195028
L80989 195609
" />
<path d="M79989 195028
L79989 195609
" />
<path d="M78989 195028
L78989 195609
" />
<path d="M81989 205964
L81989 206546
" />
<path d="M80989 205964
L80989 206546
" />
<path d="M79989 205964
L79989 206546
" />
<path d="M78989 205964
L78989 206546
" />
<path d="M87457 69263
L87457 69844
" />
<path d="M86457 69263
L86457 69844
" />
<path d="M85457 69263
L85457 69844
" />
<path d="M84457 69263
L84457 69844
" />
<path d="M87457 96603
L87457 97184
" />
<path d="M86457 96603
L86457 97184
" />
<path d="M85457 96603
L85457 97184
" />
<path d="M84457 96603
L84457 97184
" />
<path d="M87457 134880
L87457 135461
" />
<path d="M86457 134880
L86457 135461
" />
<path d="M85457 134880
L85457 135461
" />
<path d="M84457 134880
L84457 135461
" />
<path d="M87457 145816
L87457 146397
" />
<path d="M86457 145816
L86457 146397
" />
<path d="M85457 145816
L85457 146397
" />
<path d="M84457 145816
L84457 146397
" />
<path d="M87457 162220
L87457 162801
" />
<path d="M86457 162220
L86457 162801
" />
<path d="M85457 162220
L85457 162801
" />
<path d="M84457 162220
L84457 162801
" />
<path d="M87457 205964
L87457 206546
" />
<path d="M86457 205964
L86457 206546
" />
<path d="M85457 205964
L85457 206546
" />
<path d="M84457 205964
L84457 206546
" />
<path d="M89926 102652
L89926 102071
" />
<path d="M90926 102652
L90926 102071
" />
<path d="M91926 102652
L91926 102071
" />
<path d="M92926 102652
L92926 102071
" />
<path d="M89926 53440
L89926 52859
" />
<path d="M90926 53440
L90926 52859
" />
<path d="M91926 53440
L91926 52859
" />
<path d="M92926 53440
L92926 52859
" />
<path d="M89926 151865
L89926 151284
" />
<path d="M90926 151865
L90926 151284
" />
<path d="M91926 151865
L91926 151284
" />
<path d="M92926 151865
L92926 151284
" />
<path d="M89926 135461
L89926 134880
" />
<path d="M90926 135461
L90926 134880
" />
<path d="M91926 135461
L91926 134880
" />
<path d="M92926 135461
L92926 134880
" />
<path d="M92926 156752
L92926 157333
" />
<path d="M91926 156752
L91926 157333
" />
<path d="M90926 156752
L90926 157333
" />
<path d="M89926 156752
L89926 157333
" />
<path d="M92926 167688
L92926 168269
" />
<path d="M91926 167688
L91926 168269
" />
<path d="M90926 167688
L90926 168269
" />
<path d="M89926 167688
L89926 168269
" />
<path d="M89926 201077
L89926 200496
" />
<path d="M90926 201077
L90926 200496
" />
<path d="M91926 201077
L91926 200496
" />
<path d="M92926 201077
L92926 200496
" />
<path d="M89926 173737
L89926 173156
" />
<path d="M90926 173737
L90926 173156
" />
<path d="M91926 173737
L91926 173156
" />
<path d="M92926 173737
L92926 173156
" />
<path d="M98394 47390
L98394 47972
" />
<path d="M97394 47390
L97394 47972
" />
<path d="M96394 47390
L96394 47972
" />
<path d="M95394 47390
L95394 47972
" />
<path d="M98394 107539
L98394 108120
" />
<path d="M97394 107539
L97394 108120
" />
<path d="M96394 107539
L96394 108120
" />
<path d="M95394 107539
L95394 108120
" />
<path d="M95394 168269
L95394 167688
" />
<path d="M96394 168269
L96394 167688
" />
<path d="M97394 168269
L97394 167688
" />
<path d="M98394 168269
L98394 167688
" />
<path d="M95394 135461
L95394 134880
" />
<path d="M96394 135461
L96394 134880
" />
<path d="M97394 135461
L97394 134880
" />
<path d="M98394 135461
L98394 134880
" />
<path d="M98394 184092
L98394 184673
" />
<path d="M97394 184092
L97394 184673
" />
<path d="M96394 184092
L96394 184673
" />
<path d="M95394 184092
L95394 184673
" />
<path d="M98394 205964
L98394 206546
" />
<path d="M97394 205964
L97394 206546
" />
<path d="M96394 205964
L96394 206546
" />
<path d="M95394 205964
L95394 206546
" />
<path d="M103862 47390
L103862 47972
" />
<path d="M102862 47390
L102862 47972
" />
<path d="M101862 47390
L101862 47972
" />
<path d="M100862 47390
L100862 47972
" />
<path d="M103862 74731
L103862 75312
" />
<path d="M102862 74731
L102862 75312
" />
<path d="M101862 74731
L101862 75312
" />
<path d="M100862 74731
L100862 75312
" />
<path d="M100862 108120
L100862 107539
" />
<path d="M101862 108120
L101862 107539
" />
<path d="M102862 108120
L102862 107539
" />
<path d="M103862 108120
L103862 107539
" />
<path d="M100862 91716
L100862 91135
" />
<path d="M101862 91716
L101862 91135
" />
<path d="M102862 91716
L102862 91135
" />
<path d="M103862 91716
L103862 91135
" />
<path d="M103862 140348
L103862 140929
" />
<path d="M102862 140348
L102862 140929
" />
<path d="M101862 140348
L101862 140929
" />
<path d="M100862 140348
L100862 140929
" />
<path d="M103862 162220
L103862 162801
" />
<path d="M102862 162220
L102862 162801
" />
<path d="M101862 162220
L101862 162801
" />
<path d="M100862 162220
L100862 162801
" />
<path d="M100862 206546
L100862 205964
" />
<path d="M101862 206546
L101862 205964
" />
<path d="M102862 206546
L102862 205964
" />
<path d="M103862 206546
L103862 205964
" />
<path d="M100862 173737
L100862 173156
" />
<path d="M101862 173737
L101862 173156
" />
<path d="M102862 173737
L102862 173156
" />
<path d="M103862 173737
L103862 173156
" />
<path d="M106330 64376
L106330 63795
" />
<path d="M107330 64376
L107330 63795
" />
<path d="M108330 64376
L108330 63795
" />
<path d="M109330 64376
L109330 63795
" />
<path d="M106330 42504
L106330 41922
" />
<path d="M107330 42504
L107330 41922
" />
<path d="M108330 42504
L108330 41922
" />
<path d="M109330 42504
L109330 41922
" />
<path d="M109330 91135
L109330 91716
" />
<path d="M108330 91135
L108330 91716
" />
<path d="M107330 91135
L107330 91716
" />
<path d="M106330 91135
L106330 91716
" />
<path d="M109330 107539
L109330 108120
" />
<path d="M108330 107539
L108330 108120
" />
<path d="M107330 107539
L107330 108120
" />
<path d="M106330 107539
L106330 108120
" />
<path d="M109330 167688
L109330 168269
" />
<path d="M108330 167688
L108330 168269
" />
<path d="M107330 167688
L107330 168269
" />
<path d="M106330 167688
L106330 168269
" />
<path d="M109330 189560
L109330 190141
" />
<path d="M108330 189560
L108330 190141
" />
<path d="M107330 189560
L107330 190141
" />
<path d="M106330 189560
L106330 190141
" />
<path d="M109330 195028
L109330 195609
" />
<path d="M108330 195028
L108330 195609
" />
<path d="M107330 195028
L107330 195609
" />
<path d="M106330 195028
L106330 195609
" />
<path d="M109330 205964
L109330 206546
" />
<path d="M108330 205964
L108330 206546
" />
<path d="M107330 205964
L107330 206546
" />
<path d="M106330 205964
L106330 206546
" />
<path d="M114798 41922
L114798 42504
" />
<path d="M113798 41922
L113798 42504
" />
<path d="M112798 41922
L112798 42504
" />
<path d="M111798 41922
L111798 42504
" />
<path d="M114798 58327
L114798 58908
" />
<path d="M113798 58327
L113798 58908
" />
<path d="M112798 58327
L112798 58908
" />
<path d="M111798 58327
L111798 58908
" />
<path d="M111798 102652
L111798 102071
" />
<path d="M112798 102652
L112798 102071
" />
<path d="M113798 102652
L113798 102071
" />
<path d="M114798 102652
L114798 102071
" />
<path d="M111798 91716
L111798 91135
" />
<path d="M112798 91716
L112798 91135
" />
<path d="M113798 91716
L113798 91135
" />
<path d="M114798 91716
L114798 91135
" />
<path d="M111798 179205
L111798 178624
" />
<path d="M112798 179205
L112798 178624
" />
<path d="M113798 179205
L113798 178624
" />
<path d="M114798 179205
L114798 178624
" />
<path d="M111798 168269
L111798 167688
" />
<path d="M112798 168269
L112798 167688
" />
<path d="M113798 168269
L113798 167688
" />
<path d="M114798 168269
L114798 167688
" />
<path d="M117266 58908
L117266 58327
" />
<path d="M118266 58908
L118266 58327
" />
<path d="M119266 58908
L119266 58327
" />
<path d="M120266 58908
L120266 58327
" />
<path d="M117266 42504
L117266 41922
" />
<path d="M118266 42504
L118266 41922
" />
<path d="M119266 42504
L119266 41922
" />
<path d="M120266 42504
L120266 41922
" />
<path d="M120266 85667
L120266 86248
" />
<path d="M119266 85667
L119266 86248
" />
<path d="M118266 85667
L118266 86248
" />
<path d="M117266 85667
L117266 86248
" />
<path d="M120266 102071
L120266 102652
" />
<path d="M119266 102071
L119266 102652
" />
<path d="M118266 102071
L118266 102652
" />
<path d="M117266 102071
L117266 102652
" />
<path d="M120266 244241
L120266 244822
" />
<path d="M119266 244241
L119266 244822
" />
<path d="M118266 244241
L118266 244822
" />
<path d="M117266 244241
L117266 244822
" />
<path d="M120266 260645
L120266 261226
" />
<path d="M119266 260645
L119266 261226
" />
<path d="M118266 260645
L118266 261226
" />
<path d="M117266 260645
L117266 261226
" />
<path d="M125734 47390
L125734 47972
" />
<path d="M124734 47390
L124734 47972
" />
<path d="M123734 47390
L123734 47972
" />
<path d="M122734 47390
L122734 47972
" />
<path d="M125734 63795
L125734 64376
" />
<path d="M124734 63795
L124734 64376
" />
<path d="M123734 63795
L123734 64376
" />
<path d="M122734 63795
L122734 64376
" />
<path d="M122734 108120
L122734 107539
" />
<path d="M123734 108120
L123734 107539
" />
<path d="M124734 108120
L124734 107539
" />
<path d="M125734 108120
L125734 107539
" />
<path d="M122734 69844
L122734 69263
" />
<path d="M123734 69844
L123734 69263
" />
<path d="M124734 69844
L124734 69263
" />
<path d="M125734 69844
L125734 69263
" />
<path d="M122734 266694
L122734 266113
" />
<path d="M123734 266694
L123734 266113
" />
<path d="M124734 266694
L124734 266113
" />
<path d="M125734 266694
L125734 266113
" />
<path d="M122734 244822
L122734 244241
" />
<path d="M123734 244822
L123734 244241
" />
<path d="M124734 244822
L124734 244241
" />
<path d="M125734 244822
L125734 244241
" />
<path d="M128202 108120
L128202 107539
" />
<path d="M129202 108120
L129202 107539
" />
<path d="M130202 108120
L130202 107539
" />
<path d="M131202 108120
L131202 107539
" />
<path d="M128202 42504
L128202 41922
" />
<path d="M129202 42504
L129202 41922
" />
<path d="M130202 42504
L130202 41922
" />
<path d="M131202 42504
L131202 41922
" />
<path d="M131202 249709
L131202 250290
" />
<path d="M130202 249709
L130202 250290
" />
<path d="M129202 249709
L129202 250290
" />
<path d="M128202 249709
L128202 250290
" />
<path d="M131202 266113
L131202 266694
" />
<path d="M130202 266113
L130202 266694
" />
<path d="M129202 266113
L129202 266694
" />
<path d="M128202 266113
L128202 266694
" />
<path d="M136670 20050
L136670 20631
" />
<path d="M135670 20050
L135670 20631
" />
<path d="M134670 20050
L134670 20631
" />
<path d="M133670 20050
L133670 20631
" />
<path d="M136670 96603
L136670 97184
" />
<path d="M135670 96603
L135670 97184
" />
<path d="M134670 96603
L134670 97184
" />
<path d="M133670 96603
L133670 97184
" />
<path d="M133670 266694
L133670 266113
" />
<path d="M134670 266694
L134670 266113
" />
<path d="M135670 266694
L135670 266113
" />
<path d="M136670 266694
L136670 266113
" />
<path d="M133670 250290
L133670 249709
" />
<path d="M134670 250290
L134670 249709
" />
<path d="M135670 250290
L135670 249709
" />
<path d="M136670 250290
L136670 249709
" />
<path d="M139138 69844
L139138 69263
" />
<path d="M140138 69844
L140138 69263
" />
<path d="M141138 69844
L141138 69263
" />
<path d="M142138 69844
L142138 69263
" />
<path d="M139138 15163
L139138 14582
" />
<path d="M140138 15163
L140138 14582
" />
<path d="M141138 15163
L141138 14582
" />
<path d="M142138 15163
L142138 14582
" />
<path d="M142138 238773
L142138 239354
" />
<path d="M141138 238773
L141138 239354
" />
<path d="M140138 238773
L140138 239354
" />
<path d="M139138 238773
L139138 239354
" />
<path d="M142138 260645
L142138 261226
" />
<path d="M141138 260645
L141138 261226
" />
<path d="M140138 260645
L140138 261226
" />
<path d="M139138 260645
L139138 261226
" />
<path d="M147606 14582
L147606 15163
" />
<path d="M146606 14582
L146606 15163
" />
<path d="M145606 14582
L145606 15163
" />
<path d="M144606 14582
L144606 15163
" />
<path d="M147606 47390
L147606 47972
" />
<path d="M146606 47390
L146606 47972
" />
<path d="M145606 47390
L145606 47972
" />
<path d="M144606 47390
L144606 47972
" />
<path d="M144606 261226
L144606 260645
" />
<path d="M145606 261226
L145606 260645
" />
<path d="M146606 261226
L146606 260645
" />
<path d="M147606 261226
L147606 260645
" />
<path d="M144606 212014
L144606 211432
" />
<path d="M145606 212014
L145606 211432
" />
<path d="M146606 212014
L146606 211432
" />
<path d="M147606 212014
L147606 211432
" />
<path d="M150074 20631
L150074 20050
" />
<path d="M151074 20631
L151074 20050
" />
<path d="M152074 20631
L152074 20050
" />
<path d="M153074 20631
L153074 20050
" />
<path d="M150074 15163
L150074 14582
" />
<path d="M151074 15163
L151074 14582
" />
<path d="M152074 15163
L152074 14582
" />
<path d="M153074 15163
L153074 14582
" />
<path d="M153074 184092
L153074 184673
" />
<path d="M152074 184092
L152074 184673
" />
<path d="M151074 184092
L151074 184673
" />
<path d="M150074 184092
L150074 184673
" />
<path d="M153074 255177
L153074 255758
" />
<path d="M152074 255177
L152074 255758
" />
<path d="M151074 255177
L151074 255758
" />
<path d="M150074 255177
L150074 255758
" />
<path d="M158542 69263
L158542 69844
" />
<path d="M157542 69263
L157542 69844
" />
<path d="M156542 69263
L156542 69844
" />
<path d="M155542 69263
L155542 69844
" />
<path d="M158542 96603
L158542 97184
" />
<path d="M157542 96603
L157542 97184
" />
<path d="M156542 96603
L156542 97184
" />
<path d="M155542 96603
L155542 97184
" />
<path d="M155542 244822
L155542 244241
" />
<path d="M156542 244822
L156542 244241
" />
<path d="M157542 244822
L157542 244241
" />
<path d="M158542 244822
L158542 244241
" />
<path d="M155542 173737
L155542 173156
" />
<path d="M156542 173737
L156542 173156
" />
<path d="M157542 173737
L157542 173156
" />
<path d="M158542 173737
L158542 173156
" />
<path d="M161010 102652
L161010 102071
" />
<path d="M162010 102652
L162010 102071
" />
<path d="M163010 102652
L163010 102071
" />
<path d="M164010 102652
L164010 102071
" />
<path d="M161010 53440
L161010 52859
" />
<path d="M162010 53440
L162010 52859
" />
<path d="M163010 53440
L163010 52859
" />
<path d="M164010 53440
L164010 52859
" />
<path d="M164010 151284
L164010 151865
" />
<path d="M163010 151284
L163010 151865
" />
<path d="M162010 151284
L162010 151865
" />
<path d="M161010 151284
L161010 151865
" />
<path d="M164010 162220
L164010 162801
" />
<path d="M163010 162220
L163010 162801
" />
<path d="M162010 162220
L162010 162801
" />
<path d="M161010 162220
L161010 162801
" />
<path d="M164010 173156
L164010 173737
" />
<path d="M163010 173156
L163010 173737
" />
<path d="M162010 173156
L162010 173737
" />
<path d="M161010 173156
L161010 173737
" />
<path d="M164010 216901
L164010 217482
" />
<path d="M163010 216901
L163010 217482
" />
<path d="M162010 216901
L162010 217482
" />
<path d="M161010 216901
L161010 217482
" />
<path d="M169479 47390
L169479 47972
" />
<path d="M168479 47390
L168479 47972
" />
<path d="M167479 47390
L167479 47972
" />
<path d="M166479 47390
L166479 47972
" />
<path d="M169479 107539
L169479 108120
" />
<path d="M168479 107539
L168479 108120
" />
<path d="M167479 107539
L167479 108120
" />
<path d="M166479 107539
L166479 108120
" />
<path d="M166479 162801
L166479 162220
" />
<path d="M167479 162801
L167479 162220
" />
<path d="M168479 162801
L168479 162220
" />
<path d="M169479 162801
L169479 162220
" />
<path d="M166479 146397
L166479 145816
" />
<path d="M167479 146397
L167479 145816
" />
<path d="M168479 146397
L168479 145816
" />
<path d="M169479 146397
L169479 145816
" />
<path d="M166479 190141
L166479 189560
" />
<path d="M167479 190141
L167479 189560
" />
<path d="M168479 190141
L168479 189560
" />
<path d="M169479 190141
L169479 189560
" />
<path d="M166479 173737
L166479 173156
" />
<path d="M167479 173737
L167479 173156
" />
<path d="M168479 173737
L168479 173156
" />
<path d="M169479 173737
L169479 173156
" />
<path d="M174947 47390
L174947 47972
" />
<path d="M173947 47390
L173947 47972
" />
<path d="M172947 47390
L172947 47972
" />
<path d="M171947 47390
L171947 47972
" />
<path d="M174947 74731
L174947 75312
" />
<path d="M173947 74731
L173947 75312
" />
<path d="M172947 74731
L172947 75312
" />
<path d="M171947 74731
L171947 75312
" />
<path d="M171947 108120
L171947 107539
" />
<path d="M172947 108120
L172947 107539
" />
<path d="M173947 108120
L173947 107539
" />
<path d="M174947 108120
L174947 107539
" />
<path d="M171947 91716
L171947 91135
" />
<path d="M172947 91716
L172947 91135
" />
<path d="M173947 91716
L173947 91135
" />
<path d="M174947 91716
L174947 91135
" />
<path d="M174947 145816
L174947 146397
" />
<path d="M173947 145816
L173947 146397
" />
<path d="M172947 145816
L172947 146397
" />
<path d="M171947 145816
L171947 146397
" />
<path d="M174947 156752
L174947 157333
" />
<path d="M173947 156752
L173947 157333
" />
<path d="M172947 156752
L172947 157333
" />
<path d="M171947 156752
L171947 157333
" />
<path d="M177415 64376
L177415 63795
" />
<path d="M178415 64376
L178415 63795
" />
<path d="M179415 64376
L179415 63795
" />
<path d="M180415 64376
L180415 63795
" />
<path d="M177415 42504
L177415 41922
" />
<path d="M178415 42504
L178415 41922
" />
<path d="M179415 42504
L179415 41922
" />
<path d="M180415 42504
L180415 41922
" />
<path d="M180415 91135
L180415 91716
" />
<path d="M179415 91135
L179415 91716
" />
<path d="M178415 91135
L178415 91716
" />
<path d="M177415 91135
L177415 91716
" />
<path d="M180415 107539
L180415 108120
" />
<path d="M179415 107539
L179415 108120
" />
<path d="M178415 107539
L178415 108120
" />
<path d="M177415 107539
L177415 108120
" />
<path d="M180415 227837
L180415 228418
" />
<path d="M179415 227837
L179415 228418
" />
<path d="M178415 227837
L178415 228418
" />
<path d="M177415 227837
L177415 228418
" />
<path d="M180415 238773
L180415 239354
" />
<path d="M179415 238773
L179415 239354
" />
<path d="M178415 238773
L178415 239354
" />
<path d="M177415 238773
L177415 239354
" />
<path d="M185883 41922
L185883 42504
" />
<path d="M184883 41922
L184883 42504
" />
<path d="M183883 41922
L183883 42504
" />
<path d="M182883 41922
L182883 42504
" />
<path d="M185883 58327
L185883 58908
" />
<path d="M184883 58327
L184883 58908
" />
<path d="M183883 58327
L183883 58908
" />
<path d="M182883 58327
L182883 58908
" />
<path d="M182883 102652
L182883 102071
" />
<path d="M183883 102652
L183883 102071
" />
<path d="M184883 102652
L184883 102071
" />
<path d="M185883 102652
L185883 102071
" />
<path d="M182883 91716
L182883 91135
" />
<path d="M183883 91716
L183883 91135
" />
<path d="M184883 91716
L184883 91135
" />
<path d="M185883 91716
L185883 91135
" />
<path d="M182883 239354
L182883 238773
" />
<path d="M183883 239354
L183883 238773
" />
<path d="M184883 239354
L184883 238773
" />
<path d="M185883 239354
L185883 238773
" />
<path d="M182883 212014
L182883 211432
" />
<path d="M183883 212014
L183883 211432
" />
<path d="M184883 212014
L184883 211432
" />
<path d="M185883 212014
L185883 211432
" />
<path d="M188351 58908
L188351 58327
" />
<path d="M189351 58908
L189351 58327
" />
<path d="M190351 58908
L190351 58327
" />
<path d="M191351 58908
L191351 58327
" />
<path d="M188351 42504
L188351 41922
" />
<path d="M189351 42504
L189351 41922
" />
<path d="M190351 42504
L190351 41922
" />
<path d="M191351 42504
L191351 41922
" />
<path d="M191351 85667
L191351 86248
" />
<path d="M190351 85667
L190351 86248
" />
<path d="M189351 85667
L189351 86248
" />
<path d="M188351 85667
L188351 86248
" />
<path d="M191351 102071
L191351 102652
" />
<path d="M190351 102071
L190351 102652
" />
<path d="M189351 102071
L189351 102652
" />
<path d="M188351 102071
L188351 102652
" />
<path d="M191351 184092
L191351 184673
" />
<path d="M190351 184092
L190351 184673
" />
<path d="M189351 184092
L189351 184673
" />
<path d="M188351 184092
L188351 184673
" />
<path d="M191351 238773
L191351 239354
" />
<path d="M190351 238773
L190351 239354
" />
<path d="M189351 238773
L189351 239354
" />
<path d="M188351 238773
L188351 239354
" />
<path d="M196819 47390
L196819 47972
" />
<path d="M195819 47390
L195819 47972
" />
<path d="M194819 47390
L194819 47972
" />
<path d="M193819 47390
L193819 47972
" />
<path d="M196819 63795
L196819 64376
" />
<path d="M195819 63795
L195819 64376
" />
<path d="M194819 63795
L194819 64376
" />
<path d="M193819 63795
L193819 64376
" />
<path d="M193819 108120
L193819 107539
" />
<path d="M194819 108120
L194819 107539
" />
<path d="M195819 108120
L195819 107539
" />
<path d="M196819 108120
L196819 107539
" />
<path d="M193819 69844
L193819 69263
" />
<path d="M194819 69844
L194819 69263
" />
<path d="M195819 69844
L195819 69263
" />
<path d="M196819 69844
L196819 69263
" />
<path d="M193819 239354
L193819 238773
" />
<path d="M194819 239354
L194819 238773
" />
<path d="M195819 239354
L195819 238773
" />
<path d="M196819 239354
L196819 238773
" />
<path d="M193819 173737
L193819 173156
" />
<path d="M194819 173737
L194819 173156
" />
<path d="M195819 173737
L195819 173156
" />
<path d="M196819 173737
L196819 173156
" />
<path d="M199287 108120
L199287 107539
" />
<path d="M200287 108120
L200287 107539
" />
<path d="M201287 108120
L201287 107539
" />
<path d="M202287 108120
L202287 107539
" />
<path d="M199287 42504
L199287 41922
" />
<path d="M200287 42504
L200287 41922
" />
<path d="M201287 42504
L201287 41922
" />
<path d="M202287 42504
L202287 41922
" />
<path d="M202287 151284
L202287 151865
" />
<path d="M201287 151284
L201287 151865
" />
<path d="M200287 151284
L200287 151865
" />
<path d="M199287 151284
L199287 151865
" />
<path d="M202287 162220
L202287 162801
" />
<path d="M201287 162220
L201287 162801
" />
<path d="M200287 162220
L200287 162801
" />
<path d="M199287 162220
L199287 162801
" />
<path d="M202287 173156
L202287 173737
" />
<path d="M201287 173156
L201287 173737
" />
<path d="M200287 173156
L200287 173737
" />
<path d="M199287 173156
L199287 173737
" />
<path d="M202287 216901
L202287 217482
" />
<path d="M201287 216901
L201287 217482
" />
<path d="M200287 216901
L200287 217482
" />
<path d="M199287 216901
L199287 217482
" />
<path d="M207755 20050
L207755 20631
" />
<path d="M206755 20050
L206755 20631
" />
<path d="M205755 20050
L205755 20631
" />
<path d="M204755 20050
L204755 20631
" />
<path d="M207755 96603
L207755 97184
" />
<path d="M206755 96603
L206755 97184
" />
<path d="M205755 96603
L205755 97184
" />
<path d="M204755 96603
L204755 97184
" />
<path d="M204755 162801
L204755 162220
" />
<path d="M205755 162801
L205755 162220
" />
<path d="M206755 162801
L206755 162220
" />
<path d="M207755 162801
L207755 162220
" />
<path d="M204755 146397
L204755 145816
" />
<path d="M205755 146397
L205755 145816
" />
<path d="M206755 146397
L206755 145816
" />
<path d="M207755 146397
L207755 145816
" />
<path d="M204755 190141
L204755 189560
" />
<path d="M205755 190141
L205755 189560
" />
<path d="M206755 190141
L206755 189560
" />
<path d="M207755 190141
L207755 189560
" />
<path d="M204755 173737
L204755 173156
" />
<path d="M205755 173737
L205755 173156
" />
<path d="M206755 173737
L206755 173156
" />
<path d="M207755 173737
L207755 173156
" />
<path d="M210223 69844
L210223 69263
" />
<path d="M211223 69844
L211223 69263
" />
<path d="M212223 69844
L212223 69263
" />
<path d="M213223 69844
L213223 69263
" />
<path d="M210223 15163
L210223 14582
" />
<path d="M211223 15163
L211223 14582
" />
<path d="M212223 15163
L212223 14582
" />
<path d="M213223 15163
L213223 14582
" />
<path d="M213223 113007
L213223 113588
" />
<path d="M212223 113007
L212223 113588
" />
<path d="M211223 113007
L211223 113588
" />
<path d="M210223 113007
L210223 113588
" />
<path d="M213223 129411
L213223 129993
" />
<path d="M212223 129411
L212223 129993
" />
<path d="M211223 129411
L211223 129993
" />
<path d="M210223 129411
L210223 129993
" />
<path d="M213223 145816
L213223 146397
" />
<path d="M212223 145816
L212223 146397
" />
<path d="M211223 145816
L211223 146397
" />
<path d="M210223 145816
L210223 146397
" />
<path d="M213223 156752
L213223 157333
" />
<path d="M212223 156752
L212223 157333
" />
<path d="M211223 156752
L211223 157333
" />
<path d="M210223 156752
L210223 157333
" />
<path d="M218691 14582
L218691 15163
" />
<path d="M217691 14582
L217691 15163
" />
<path d="M216691 14582
L216691 15163
" />
<path d="M215691 14582
L215691 15163
" />
<path d="M218691 47390
L218691 47972
" />
<path d="M217691 47390
L217691 47972
" />
<path d="M216691 47390
L216691 47972
" />
<path d="M215691 47390
L215691 47972
" />
<path d="M215691 135461
L215691 134880
" />
<path d="M216691 135461
L216691 134880
" />
<path d="M217691 135461
L217691 134880
" />
<path d="M218691 135461
L218691 134880
" />
<path d="M215691 113588
L215691 113007
" />
<path d="M216691 113588
L216691 113007
" />
<path d="M217691 113588
L217691 113007
" />
<path d="M218691 113588
L218691 113007
" />
<path d="M218691 227837
L218691 228418
" />
<path d="M217691 227837
L217691 228418
" />
<path d="M216691 227837
L216691 228418
" />
<path d="M215691 227837
L215691 228418
" />
<path d="M218691 238773
L218691 239354
" />
<path d="M217691 238773
L217691 239354
" />
<path d="M216691 238773
L216691 239354
" />
<path d="M215691 238773
L215691 239354
" />
<path d="M221159 20631
L221159 20050
" />
<path d="M222159 20631
L222159 20050
" />
<path d="M223159 20631
L223159 20050
" />
<path d="M224159 20631
L224159 20050
" />
<path d="M221159 15163
L221159 14582
" />
<path d="M222159 15163
L222159 14582
" />
<path d="M223159 15163
L223159 14582
" />
<path d="M224159 15163
L224159 14582
" />
<path d="M224159 118475
L224159 119056
" />
<path d="M223159 118475
L223159 119056
" />
<path d="M222159 118475
L222159 119056
" />
<path d="M221159 118475
L221159 119056
" />
<path d="M224159 134880
L224159 135461
" />
<path d="M223159 134880
L223159 135461
" />
<path d="M222159 134880
L222159 135461
" />
<path d="M221159 134880
L221159 135461
" />
<path d="M221159 239354
L221159 238773
" />
<path d="M222159 239354
L222159 238773
" />
<path d="M223159 239354
L223159 238773
" />
<path d="M224159 239354
L224159 238773
" />
<path d="M221159 212014
L221159 211432
" />
<path d="M222159 212014
L222159 211432
" />
<path d="M223159 212014
L223159 211432
" />
<path d="M224159 212014
L224159 211432
" />
<path d="M229627 47390
L229627 47972
" />
<path d="M228627 47390
L228627 47972
" />
<path d="M227627 47390
L227627 47972
" />
<path d="M226627 47390
L226627 47972
" />
<path d="M229627 58327
L229627 58908
" />
<path d="M228627 58327
L228627 58908
" />
<path d="M227627 58327
L227627 58908
" />
<path d="M226627 58327
L226627 58908
" />
<path d="M226627 135461
L226627 134880
" />
<path d="M227627 135461
L227627 134880
" />
<path d="M228627 135461
L228627 134880
" />
<path d="M229627 135461
L229627 134880
" />
<path d="M226627 119056
L226627 118475
" />
<path d="M227627 119056
L227627 118475
" />
<path d="M228627 119056
L228627 118475
" />
<path d="M229627 119056
L229627 118475
" />
<path d="M229627 184092
L229627 184673
" />
<path d="M228627 184092
L228627 184673
" />
<path d="M227627 184092
L227627 184673
" />
<path d="M226627 184092
L226627 184673
" />
<path d="M229627 238773
L229627 239354
" />
<path d="M228627 238773
L228627 239354
" />
<path d="M227627 238773
L227627 239354
" />
<path d="M226627 238773
L226627 239354
" />
<path d="M232095 91716
L232095 91135
" />
<path d="M233095 91716
L233095 91135
" />
<path d="M234095 91716
L234095 91135
" />
<path d="M235095 91716
L235095 91135
" />
<path d="M232095 42504
L232095 41922
" />
<path d="M233095 42504
L233095 41922
" />
<path d="M234095 42504
L234095 41922
" />
<path d="M235095 42504
L235095 41922
" />
<path d="M235095 113007
L235095 113588
" />
<path d="M234095 113007
L234095 113588
" />
<path d="M233095 113007
L233095 113588
" />
<path d="M232095 113007
L232095 113588
" />
<path d="M235095 129411
L235095 129993
" />
<path d="M234095 129411
L234095 129993
" />
<path d="M233095 129411
L233095 129993
" />
<path d="M232095 129411
L232095 129993
" />
<path d="M232095 239354
L232095 238773
" />
<path d="M233095 239354
L233095 238773
" />
<path d="M234095 239354
L234095 238773
" />
<path d="M235095 239354
L235095 238773
" />
<path d="M232095 173737
L232095 173156
" />
<path d="M233095 173737
L233095 173156
" />
<path d="M234095 173737
L234095 173156
" />
<path d="M235095 173737
L235095 173156
" />
<path d="M237563 129993
L237563 129411
" />
<path d="M238563 129993
L238563 129411
" />
<path d="M239563 129993
L239563 129411
" />
<path d="M240563 129993
L240563 129411
" />
<path d="M237563 42504
L237563 41922
" />
<path d="M238563 42504
L238563 41922
" />
<path d="M239563 42504
L239563 41922
" />
<path d="M240563 42504
L240563 41922
" />
<path d="M240563 173156
L240563 173737
" />
<path d="M239563 173156
L239563 173737
" />
<path d="M238563 173156
L238563 173737
" />
<path d="M237563 173156
L237563 173737
" />
<path d="M240563 216901
L240563 217482
" />
<path d="M239563 216901
L239563 217482
" />
<path d="M238563 216901
L238563 217482
" />
<path d="M237563 216901
L237563 217482
" />
<path d="M246031 52859
L246031 53440
" />
<path d="M245031 52859
L245031 53440
" />
<path d="M244031 52859
L244031 53440
" />
<path d="M243031 52859
L243031 53440
" />
<path d="M246031 123943
L246031 124525
" />
<path d="M245031 123943
L245031 124525
" />
<path d="M244031 123943
L244031 124525
" />
<path d="M243031 123943
L243031 124525
" />
<path d="M243031 201077
L243031 200496
" />
<path d="M244031 201077
L244031 200496
" />
<path d="M245031 201077
L245031 200496
" />
<path d="M246031 201077
L246031 200496
" />
<path d="M243031 184673
L243031 184092
" />
<path d="M244031 184673
L244031 184092
" />
<path d="M245031 184673
L245031 184092
" />
<path d="M246031 184673
L246031 184092
" />
<path d="M248500 113588
L248500 113007
" />
<path d="M249500 113588
L249500 113007
" />
<path d="M250500 113588
L250500 113007
" />
<path d="M251500 113588
L251500 113007
" />
<path d="M248500 80780
L248500 80199
" />
<path d="M249500 80780
L249500 80199
" />
<path d="M250500 80780
L250500 80199
" />
<path d="M251500 80780
L251500 80199
" />
<path d="M251500 178624
L251500 179205
" />
<path d="M250500 178624
L250500 179205
" />
<path d="M249500 178624
L249500 179205
" />
<path d="M248500 178624
L248500 179205
" />
<path d="M251500 195028
L251500 195609
" />
<path d="M250500 195028
L250500 195609
" />
<path d="M249500 195028
L249500 195609
" />
<path d="M248500 195028
L248500 195609
" />
<path d="M256968 69263
L256968 69844
" />
<path d="M255968 69263
L255968 69844
" />
<path d="M254968 69263
L254968 69844
" />
<path d="M253968 69263
L253968 69844
" />
<path d="M256968 102071
L256968 102652
" />
<path d="M255968 102071
L255968 102652
" />
<path d="M254968 102071
L254968 102652
" />
<path d="M253968 102071
L253968 102652
" />
<path d="M253968 190141
L253968 189560
" />
<path d="M254968 190141
L254968 189560
" />
<path d="M255968 190141
L255968 189560
" />
<path d="M256968 190141
L256968 189560
" />
<path d="M253968 173737
L253968 173156
" />
<path d="M254968 173737
L254968 173156
" />
<path d="M255968 173737
L255968 173156
" />
<path d="M256968 173737
L256968 173156
" />
<path d="M253968 239354
L253968 238773
" />
<path d="M254968 239354
L254968 238773
" />
<path d="M255968 239354
L255968 238773
" />
<path d="M256968 239354
L256968 238773
" />
<path d="M253968 228418
L253968 227837
" />
<path d="M254968 228418
L254968 227837
" />
<path d="M255968 228418
L255968 227837
" />
<path d="M256968 228418
L256968 227837
" />
<path d="M259436 91716
L259436 91135
" />
<path d="M260436 91716
L260436 91135
" />
<path d="M261436 91716
L261436 91135
" />
<path d="M262436 91716
L262436 91135
" />
<path d="M259436 58908
L259436 58327
" />
<path d="M260436 58908
L260436 58327
" />
<path d="M261436 58908
L261436 58327
" />
<path d="M262436 58908
L262436 58327
" />
<path d="M262436 173156
L262436 173737
" />
<path d="M261436 173156
L261436 173737
" />
<path d="M260436 173156
L260436 173737
" />
<path d="M259436 173156
L259436 173737
" />
<path d="M262436 189560
L262436 190141
" />
<path d="M261436 189560
L261436 190141
" />
<path d="M260436 189560
L260436 190141
" />
<path d="M259436 189560
L259436 190141
" />
<path d="M262436 205964
L262436 206546
" />
<path d="M261436 205964
L261436 206546
" />
<path d="M260436 205964
L260436 206546
" />
<path d="M259436 205964
L259436 206546
" />
<path d="M262436 238773
L262436 239354
" />
<path d="M261436 238773
L261436 239354
" />
<path d="M260436 238773
L260436 239354
" />
<path d="M259436 238773
L259436 239354
" />
<path d="M267904 47390
L267904 47972
" />
<path d="M266904 47390
L266904 47972
" />
<path d="M265904 47390
L265904 47972
" />
<path d="M264904 47390
L264904 47972
" />
<path d="M267904 85667
L267904 86248
" />
<path d="M266904 85667
L266904 86248
" />
<path d="M265904 85667
L265904 86248
" />
<path d="M264904 85667
L264904 86248
" />
<path d="M264904 239354
L264904 238773
" />
<path d="M265904 239354
L265904 238773
" />
<path d="M266904 239354
L266904 238773
" />
<path d="M267904 239354
L267904 238773
" />
<path d="M264904 173737
L264904 173156
" />
<path d="M265904 173737
L265904 173156
" />
<path d="M266904 173737
L266904 173156
" />
<path d="M267904 173737
L267904 173156
" />
<path d="M270372 75312
L270372 74731
" />
<path d="M271372 75312
L271372 74731
" />
<path d="M272372 75312
L272372 74731
" />
<path d="M273372 75312
L273372 74731
" />
<path d="M270372 42504
L270372 41922
" />
<path d="M271372 42504
L271372 41922
" />
<path d="M272372 42504
L272372 41922
" />
<path d="M273372 42504
L273372 41922
" />
<path d="M273372 173156
L273372 173737
" />
<path d="M272372 173156
L272372 173737
" />
<path d="M271372 173156
L271372 173737
" />
<path d="M270372 173156
L270372 173737
" />
<path d="M273372 233305
L273372 233886
" />
<path d="M272372 233305
L272372 233886
" />
<path d="M271372 233305
L271372 233886
" />
<path d="M270372 233305
L270372 233886
" />
<path d="M278840 41922
L278840 42504
" />
<path d="M277840 41922
L277840 42504
" />
<path d="M276840 41922
L276840 42504
" />
<path d="M275840 41922
L275840 42504
" />
<path d="M278840 63795
L278840 64376
" />
<path d="M277840 63795
L277840 64376
" />
<path d="M276840 63795
L276840 64376
" />
<path d="M275840 63795
L275840 64376
" />
<path d="M275840 212014
L275840 211432
" />
<path d="M276840 212014
L276840 211432
" />
<path d="M277840 212014
L277840 211432
" />
<path d="M278840 212014
L278840 211432
" />
<path d="M275840 179205
L275840 178624
" />
<path d="M276840 179205
L276840 178624
" />
<path d="M277840 179205
L277840 178624
" />
<path d="M278840 179205
L278840 178624
" />
<path d="M281308 53440
L281308 52859
" />
<path d="M282308 53440
L282308 52859
" />
<path d="M283308 53440
L283308 52859
" />
<path d="M284308 53440
L284308 52859
" />
<path d="M281308 42504
L281308 41922
" />
<path d="M282308 42504
L282308 41922
" />
<path d="M283308 42504
L283308 41922
" />
<path d="M284308 42504
L284308 41922
" />
<path d="M284308 184092
L284308 184673
" />
<path d="M283308 184092
L283308 184673
" />
<path d="M282308 184092
L282308 184673
" />
<path d="M281308 184092
L281308 184673
" />
<path d="M284308 195028
L284308 195609
" />
<path d="M283308 195028
L283308 195609
" />
<path d="M282308 195028
L282308 195609
" />
<path d="M281308 195028
L281308 195609
" />
<path d="M286776 195609
L286776 195028
" />
<path d="M287776 195609
L287776 195028
" />
<path d="M288776 195609
L288776 195028
" />
<path d="M289776 195609
L289776 195028
" />
<path d="M286776 179205
L286776 178624
" />
<path d="M287776 179205
L287776 178624
" />
<path d="M288776 179205
L288776 178624
" />
<path d="M289776 179205
L289776 178624
" />
<path d="M286776 239354
L286776 238773
" />
<path d="M287776 239354
L287776 238773
" />
<path d="M288776 239354
L288776 238773
" />
<path d="M289776 239354
L289776 238773
" />
<path d="M286776 233886
L286776 233305
" />
<path d="M287776 233886
L287776 233305
" />
<path d="M288776 233886
L288776 233305
" />
<path d="M289776 233886
L289776 233305
" />
<path d="M295244 173156
L295244 173737
" />
<path d="M294244 173156
L294244 173737
" />
<path d="M293244 173156
L293244 173737
" />
<path d="M292244 173156
L292244 173737
" />
<path d="M295244 189560
L295244 190141
" />
<path d="M294244 189560
L294244 190141
" />
<path d="M293244 189560
L293244 190141
" />
<path d="M292244 189560
L292244 190141
" />
<path d="M295244 222369
L295244 222950
" />
<path d="M294244 222369
L294244 222950
" />
<path d="M293244 222369
L293244 222950
" />
<path d="M292244 222369
L292244 222950
" />
<path d="M295244 238773
L295244 239354
" />
<path d="M294244 238773
L294244 239354
" />
<path d="M293244 238773
L293244 239354
" />
<path d="M292244 238773
L292244 239354
" />
<path d="M297712 239354
L297712 238773
" />
<path d="M298712 239354
L298712 238773
" />
<path d="M299712 239354
L299712 238773
" />
<path d="M300712 239354
L300712 238773
" />
<path d="M297712 173737
L297712 173156
" />
<path d="M298712 173737
L298712 173156
" />
<path d="M299712 173737
L299712 173156
" />
<path d="M300712 173737
L300712 173156
" />
<path d="M306180 173156
L306180 173737
" />
<path d="M305180 173156
L305180 173737
" />
<path d="M304180 173156
L304180 173737
" />
<path d="M303180 173156
L303180 173737
" />
<path d="M306180 238773
L306180 239354
" />
<path d="M305180 238773
L305180 239354
" />
<path d="M304180 238773
L304180 239354
" />
<path d="M303180 238773
L303180 239354
" />
<path d="M308648 228418
L308648 227837
" />
<path d="M309648 228418
L309648 227837
" />
<path d="M310648 228418
L310648 227837
" />
<path d="M311648 228418
L311648 227837
" />
<path d="M308648 179205
L308648 178624
" />
<path d="M309648 179205
L309648 178624
" />
<path d="M310648 179205
L310648 178624
" />
<path d="M311648 179205
L311648 178624
" />
<path d="M317116 184092
L317116 184673
" />
<path d="M316116 184092
L316116 184673
" />
<path d="M315116 184092
L315116 184673
" />
<path d="M314116 184092
L314116 184673
" />
<path d="M317116 205964
L317116 206546
" />
<path d="M316116 205964
L316116 206546
" />
<path d="M315116 205964
L315116 206546
" />
<path d="M314116 205964
L314116 206546
" />
</g>
<g style="fill:#000000; fill-opacity:0.0; 
stroke:#000000; stroke-width:0; stroke-opacity:1; 
stroke-linecap:round; stroke-linejoin:round;">
</g>
<g style="fill:#000000; fill-opacity:1.0; 
stroke:#000000; stroke-width:0; stroke-opacity:1; 
stroke-linecap:round; stroke-linejoin:round;">
<polyline style="fill-rule:evenodd;"
points="312406,198693
312406,197906
313193,197906
313193,198693
312406,198693
" /> 
</g>
<g style="fill:#000000; fill-opacity:1.0; 
stroke:#000000; stroke-width:787.402; stroke-opacity:1; 
stroke-linecap:round; stroke-linejoin:round;">
</g>
<g style="fill:#000000; fill-opacity:0.0; 
stroke:#000000; stroke-width:787.402; stroke-opacity:1; 
stroke-linecap:round; stroke-linejoin:round;">
<path d="M312800 200674
L312800 200674
" />
</g>
<g style="fill:#000000; fill-opacity:0.0; 
stroke:#000000; stroke-width:0; stroke-opacity:1; 
stroke-linecap:round; stroke-linejoin:round;">
</g>
<g style="fill:#000000; fill-opacity:1.0; 
stroke:#000000; stroke-width:0; stroke-opacity:1; 
stroke-linecap:round; stroke-linejoin:round;">
<polyline style="fill-rule:evenodd;"
points="235906,56493
235906,55706
236693,55706
236693,56493
235906,56493
" /> 
</g>
<g style="fill:#000000; fill-opacity:1.0; 
stroke:#000000; stroke-width:787.402; stroke-opacity:1; 
stroke-linecap:round; stroke-linejoin:round;">
</g>
<g style="fill:#000000; fill-opacity:0.0; 
stroke:#000000; stroke-width:787.402; stroke-opacity:1; 
stroke-linecap:round; stroke-linejoin:round;">
<path d="M236300 58474
L236300 58474
" />
</g>
<g style="fill:#000000; fill-opacity:0.0; 
stroke:#000000; stroke-width:0; stroke-opacity:1; 
stroke-linecap:round; stroke-linejoin:round;">
</g>
<g style="fill:#000000; fill-opacity:1.0; 
stroke:#000000; stroke-width:0; stroke-opacity:1; 
stroke-linecap:round; stroke-linejoin:round;">
<polyline style="fill-rule:evenodd;"
points="209193,158306
209193,159093
208406,159093
208406,158306
209193,158306
" /> 
</g>
<g style="fill:#000000; fill-opacity:1.0; 
stroke:#000000; stroke-width:787.402; stroke-opacity:1; 
stroke-linecap:round; stroke-linejoin:round;">
</g>
<g style="fill:#000000; fill-opacity:0.0; 
stroke:#000000; stroke-width:787.402; stroke-opacity:1; 
stroke-linecap:round; stroke-linejoin:round;">
<path d="M208800 156325
L208800 156325
" />
</g>
<g style="fill:#000000; fill-opacity:0.0; 
stroke:#000000; stroke-width:0; stroke-opacity:1; 
stroke-linecap:round; stroke-linejoin:round;">
</g>
<g style="fill:#000000; fill-opacity:1.0; 
stroke:#000000; stroke-width:0; stroke-opacity:1; 
stroke-linecap:round; stroke-linejoin:round;">
<polyline style="fill-rule:evenodd;"
points="203206,178693
203206,177906
203993,177906
203993,178693
203206,178693
" /> 
</g>
<g style="fill:#000000; fill-opacity:1.0; 
stroke:#000000; stroke-width:787.402; stroke-opacity:1; 
stroke-linecap:round; stroke-linejoin:round;">
</g>
<g style="fill:#000000; fill-opacity:0.0; 
stroke:#000000; stroke-width:787.402; stroke-opacity:1; 
stroke-linecap:round; stroke-linejoin:round;">
<path d="M203600 180674
L203600 180674
" />
</g>
<g style="fill:#000000; fill-opacity:0.0; 
stroke:#000000; stroke-width:0; stroke-opacity:1; 
stroke-linecap:round; stroke-linejoin:round;">
</g>
<g style="fill:#000000; fill-opacity:1.0; 
stroke:#000000; stroke-width:0; stroke-opacity:1; 
stroke-linecap:round; stroke-linejoin:round;">
<polyline style="fill-rule:evenodd;"
points="219506,230493
219506,229706
220293,229706
220293,230493
219506,230493
" /> 
</g>
<g style="fill:#000000; fill-opacity:1.0; 
stroke:#000000; stroke-width:787.402; stroke-opacity:1; 
stroke-linecap:round; stroke-linejoin:round;">
</g>
<g style="fill:#000000; fill-opacity:0.0; 
stroke:#000000; stroke-width:787.402; stroke-opacity:1; 
stroke-linecap:round; stroke-linejoin:round;">
<path d="M219900 232474
L219900 232474
" />
</g>
<g style="fill:#000000; fill-opacity:0.0; 
stroke:#000000; stroke-width:0; stroke-opacity:1; 
stroke-linecap:round; stroke-linejoin:round;">
</g>
<g style="fill:#000000; fill-opacity:1.0; 
stroke:#000000; stroke-width:0; stroke-opacity:1; 
stroke-linecap:round; stroke-linejoin:round;">
<polyline style="fill-rule:evenodd;"
points="214006,121893
214006,121106
214793,121106
214793,121893
214006,121893
" /> 
</g>
<g style="fill:#000000; fill-opacity:1.0; 
stroke:#000000; stroke-width:787.402; stroke-opacity:1; 
stroke-linecap:round; stroke-linejoin:round;">
</g>
<g style="fill:#000000; fill-opacity:0.0; 
stroke:#000000; stroke-width:787.402; stroke-opacity:1; 
stroke-linecap:round; stroke-linejoin:round;">
<path d="M214400 123874
L214400 123874
" />
</g>
<g style="fill:#000000; fill-opacity:0.0; 
stroke:#000000; stroke-width:0; stroke-opacity:1; 
stroke-linecap:round; stroke-linejoin:round;">
</g>
<g style="fill:#000000; fill-opacity:1.0; 
stroke:#000000; stroke-width:0; stroke-opacity:1; 
stroke-linecap:round; stroke-linejoin:round;">
<polyline style="fill-rule:evenodd;"
points="203106,153693
203106,152906
203893,152906
203893,153693
203106,153693
" /> 
</g>
<g style="fill:#000000; fill-opacity:1.0; 
stroke:#000000; stroke-width:787.402; stroke-opacity:1; 
stroke-linecap:round; stroke-linejoin:round;">
</g>
<g style="fill:#000000; fill-opacity:0.0; 
stroke:#000000; stroke-width:787.402; stroke-opacity:1; 
stroke-linecap:round; stroke-linejoin:round;">
<path d="M203500 155674
L203500 155674
" />
</g>
<g style="fill:#000000; fill-opacity:0.0; 
stroke:#000000; stroke-width:0; stroke-opacity:1; 
stroke-linecap:round; stroke-linejoin:round;">
</g>
<g style="fill:#000000; fill-opacity:1.0; 
stroke:#000000; stroke-width:0; stroke-opacity:1; 
stroke-linecap:round; stroke-linejoin:round;">
<polyline style="fill-rule:evenodd;"
points="170893,158106
170893,158893
170106,158893
170106,158106
170893,158106
" /> 
</g>
<g style="fill:#000000; fill-opacity:1.0; 
stroke:#000000; stroke-width:787.402; stroke-opacity:1; 
stroke-linecap:round; stroke-linejoin:round;">
</g>
<g style="fill:#000000; fill-opacity:0.0; 
stroke:#000000; stroke-width:787.402; stroke-opacity:1; 
stroke-linecap:round; stroke-linejoin:round;">
<path d="M170500 156125
L170500 156125
" />
</g>
<g style="fill:#000000; fill-opacity:0.0; 
stroke:#000000; stroke-width:0; stroke-opacity:1; 
stroke-linecap:round; stroke-linejoin:round;">
</g>
<g style="fill:#000000; fill-opacity:1.0; 
stroke:#000000; stroke-width:0; stroke-opacity:1; 
stroke-linecap:round; stroke-linejoin:round;">
<polyline style="fill-rule:evenodd;"
points="164806,178393
164806,177606
165593,177606
165593,178393
164806,178393
" /> 
</g>
<g style="fill:#000000; fill-opacity:1.0; 
stroke:#000000; stroke-width:787.402; stroke-opacity:1; 
stroke-linecap:round; stroke-linejoin:round;">
</g>
<g style="fill:#000000; fill-opacity:0.0; 
stroke:#000000; stroke-width:787.402; stroke-opacity:1; 
stroke-linecap:round; stroke-linejoin:round;">
<path d="M165200 180374
L165200 180374
" />
</g>
<g style="fill:#000000; fill-opacity:0.0; 
stroke:#000000; stroke-width:0; stroke-opacity:1; 
stroke-linecap:round; stroke-linejoin:round;">
</g>
<g style="fill:#000000; fill-opacity:1.0; 
stroke:#000000; stroke-width:0; stroke-opacity:1; 
stroke-linecap:round; stroke-linejoin:round;">
<polyline style="fill-rule:evenodd;"
points="181206,230593
181206,229806
181993,229806
181993,230593
181206,230593
" /> 
</g>
<g style="fill:#000000; fill-opacity:1.0; 
stroke:#000000; stroke-width:787.402; stroke-opacity:1; 
stroke-linecap:round; stroke-linejoin:round;">
</g>
<g style="fill:#000000; fill-opacity:0.0; 
stroke:#000000; stroke-width:787.402; stroke-opacity:1; 
stroke-linecap:round; stroke-linejoin:round;">
<path d="M181600 232574
L181600 232574
" />
</g>
<g style="fill:#000000; fill-opacity:0.0; 
stroke:#000000; stroke-width:0; stroke-opacity:1; 
stroke-linecap:round; stroke-linejoin:round;">
</g>
<g style="fill:#000000; fill-opacity:1.0; 
stroke:#000000; stroke-width:0; stroke-opacity:1; 
stroke-linecap:round; stroke-linejoin:round;">
<polyline style="fill-rule:evenodd;"
points="164906,153793
164906,153006
165693,153006
165693,153793
164906,153793
" /> 
</g>
<g style="fill:#000000; fill-opacity:1.0; 
stroke:#000000; stroke-width:787.402; stroke-opacity:1; 
stroke-linecap:round; stroke-linejoin:round;">
</g>
<g style="fill:#000000; fill-opacity:0.0; 
stroke:#000000; stroke-width:787.402; stroke-opacity:1; 
stroke-linecap:round; stroke-linejoin:round;">
<path d="M165300 155774
L165300 155774
" />
</g>
<g style="fill:#000000; fill-opacity:0.0; 
stroke:#000000; stroke-width:0; stroke-opacity:1; 
stroke-linecap:round; stroke-linejoin:round;">
</g>
<g style="fill:#000000; fill-opacity:1.0; 
stroke:#000000; stroke-width:0; stroke-opacity:1; 
stroke-linecap:round; stroke-linejoin:round;">
<polyline style="fill-rule:evenodd;"
points="121106,253593
121106,252806
121893,252806
121893,253593
121106,253593
" /> 
</g>
<g style="fill:#000000; fill-opacity:1.0; 
stroke:#000000; stroke-width:787.402; stroke-opacity:1; 
stroke-linecap:round; stroke-linejoin:round;">
</g>
<g style="fill:#000000; fill-opacity:0.0; 
stroke:#000000; stroke-width:787.402; stroke-opacity:1; 
stroke-linecap:round; stroke-linejoin:round;">
<path d="M121500 255574
L121500 255574
" />
</g>
<g style="fill:#000000; fill-opacity:0.0; 
stroke:#000000; stroke-width:0; stroke-opacity:1; 
stroke-linecap:round; stroke-linejoin:round;">
</g>
<g style="fill:#000000; fill-opacity:1.0; 
stroke:#000000; stroke-width:0; stroke-opacity:1; 
stroke-linecap:round; stroke-linejoin:round;">
<polyline style="fill-rule:evenodd;"
points="71906,149693
71906,148906
72693,148906
72693,149693
71906,149693
" /> 
</g>
<g style="fill:#000000; fill-opacity:1.0; 
stroke:#000000; stroke-width:787.402; stroke-opacity:1; 
stroke-linecap:round; stroke-linejoin:round;">
</g>
<g style="fill:#000000; fill-opacity:0.0; 
stroke:#000000; stroke-width:787.402; stroke-opacity:1; 
stroke-linecap:round; stroke-linejoin:round;">
<path d="M72300 151674
L72300 151674
" />
</g>
<g style="fill:#000000; fill-opacity:0.0; 
stroke:#000000; stroke-width:0; stroke-opacity:1; 
stroke-linecap:round; stroke-linejoin:round;">
</g>
<g style="fill:#000000; fill-opacity:1.0; 
stroke:#000000; stroke-width:0; stroke-opacity:1; 
stroke-linecap:round; stroke-linejoin:round;">
<polyline style="fill-rule:evenodd;"
points="93806,159093
93806,158306
94593,158306
94593,159093
93806,159093
" /> 
</g>
<g style="fill:#000000; fill-opacity:1.0; 
stroke:#000000; stroke-width:787.402; stroke-opacity:1; 
stroke-linecap:round; stroke-linejoin:round;">
</g>
<g style="fill:#000000; fill-opacity:0.0; 
stroke:#000000; stroke-width:787.402; stroke-opacity:1; 
stroke-linecap:round; stroke-linejoin:round;">
<path d="M94200 161074
L94200 161074
" />
</g>
<g style="fill:#000000; fill-opacity:0.0; 
stroke:#000000; stroke-width:0; stroke-opacity:1; 
stroke-linecap:round; stroke-linejoin:round;">
</g>
<g style="fill:#000000; fill-opacity:1.0; 
stroke:#000000; stroke-width:0; stroke-opacity:1; 
stroke-linecap:round; stroke-linejoin:round;">
<polyline style="fill-rule:evenodd;"
points="170306,68593
170306,67806
171093,67806
171093,68593
170306,68593
" /> 
</g>
<g style="fill:#000000; fill-opacity:1.0; 
stroke:#000000; stroke-width:787.402; stroke-opacity:1; 
stroke-linecap:round; stroke-linejoin:round;">
</g>
<g style="fill:#000000; fill-opacity:0.0; 
stroke:#000000; stroke-width:787.402; stroke-opacity:1; 
stroke-linecap:round; stroke-linejoin:round;">
<path d="M170700 70574
L170700 70574
" />
</g>
<g style="fill:#000000; fill-opacity:0.0; 
stroke:#000000; stroke-width:0; stroke-opacity:1; 
stroke-linecap:round; stroke-linejoin:round;">
</g>
<g style="fill:#000000; fill-opacity:1.0; 
stroke:#000000; stroke-width:0; stroke-opacity:1; 
stroke-linecap:round; stroke-linejoin:round;">
<polyline style="fill-rule:evenodd;"
points="159406,72793
159406,72006
160193,72006
160193,72793
159406,72793
" /> 
</g>
<g style="fill:#000000; fill-opacity:1.0; 
stroke:#000000; stroke-width:787.402; stroke-opacity:1; 
stroke-linecap:round; stroke-linejoin:round;">
</g>
<g style="fill:#000000; fill-opacity:0.0; 
stroke:#000000; stroke-width:787.402; stroke-opacity:1; 
stroke-linecap:round; stroke-linejoin:round;">
<path d="M159800 74774
L159800 74774
" />
</g>
<g style="fill:#000000; fill-opacity:0.0; 
stroke:#000000; stroke-width:0; stroke-opacity:1; 
stroke-linecap:round; stroke-linejoin:round;">
</g>
<g style="fill:#000000; fill-opacity:1.0; 
stroke:#000000; stroke-width:0; stroke-opacity:1; 
stroke-linecap:round; stroke-linejoin:round;">
<polyline style="fill-rule:evenodd;"
points="99206,69293
99206,68506
99993,68506
99993,69293
99206,69293
" /> 
</g>
<g style="fill:#000000; fill-opacity:1.0; 
stroke:#000000; stroke-width:787.402; stroke-opacity:1; 
stroke-linecap:round; stroke-linejoin:round;">
</g>
<g style="fill:#000000; fill-opacity:0.0; 
stroke:#000000; stroke-width:787.402; stroke-opacity:1; 
stroke-linecap:round; stroke-linejoin:round;">
<path d="M99600 71274
L99600 71274
" />
</g>
<g style="fill:#000000; fill-opacity:0.0; 
stroke:#000000; stroke-width:0; stroke-opacity:1; 
stroke-linecap:round; stroke-linejoin:round;">
</g>
<g style="fill:#000000; fill-opacity:1.0; 
stroke:#000000; stroke-width:0; stroke-opacity:1; 
stroke-linecap:round; stroke-linejoin:round;">
<polyline style="fill-rule:evenodd;"
points="88306,73693
88306,72906
89093,72906
89093,73693
88306,73693
" /> 
</g>
<g style="fill:#000000; fill-opacity:1.0; 
stroke:#000000; stroke-width:787.402; stroke-opacity:1; 
stroke-linecap:round; stroke-linejoin:round;">
</g>
<g style="fill:#000000; fill-opacity:0.0; 
stroke:#000000; stroke-width:787.402; stroke-opacity:1; 
stroke-linecap:round; stroke-linejoin:round;">
<path d="M88700 75674
L88700 75674
" />
</g>
<g style="fill:#000000; fill-opacity:0.0; 
stroke:#000000; stroke-width:0; stroke-opacity:1; 
stroke-linecap:round; stroke-linejoin:round;">
</g>
<g style="fill:#000000; fill-opacity:1.0; 
stroke:#000000; stroke-width:0; stroke-opacity:1; 
stroke-linecap:round; stroke-linejoin:round;">
<polyline style="fill-rule:evenodd;"
points="44506,73193
44506,72406
45293,72406
45293,73193
44506,73193
" /> 
</g>
<g style="fill:#000000; fill-opacity:1.0; 
stroke:#000000; stroke-width:787.402; stroke-opacity:1; 
stroke-linecap:round; stroke-linejoin:round;">
</g>
<g style="fill:#000000; fill-opacity:0.0; 
stroke:#000000; stroke-width:787.402; stroke-opacity:1; 
stroke-linecap:round; stroke-linejoin:round;">
<path d="M44900 75174
L44900 75174
" />
</g>
<g style="fill:#000000; fill-opacity:0.0; 
stroke:#000000; stroke-width:0; stroke-opacity:1; 
stroke-linecap:round; stroke-linejoin:round;">
</g>
<g style="fill:#000000; fill-opacity:1.0; 
stroke:#000000; stroke-width:0; stroke-opacity:1; 
stroke-linecap:round; stroke-linejoin:round;">
<polyline style="fill-rule:evenodd;"
points="22706,67893
22706,67106
23493,67106
23493,67893
22706,67893
" /> 
</g>
<g style="fill:#000000; fill-opacity:1.0; 
stroke:#000000; stroke-width:787.402; stroke-opacity:1; 
stroke-linecap:round; stroke-linejoin:round;">
</g>
<g style="fill:#000000; fill-opacity:0.0; 
stroke:#000000; stroke-width:787.402; stroke-opacity:1; 
stroke-linecap:round; stroke-linejoin:round;">
<path d="M23100 69874
L23100 69874
" />
</g>
<g style="fill:#000000; fill-opacity:0.0; 
stroke:#000000; stroke-width:0; stroke-opacity:1; 
stroke-linecap:round; stroke-linejoin:round;">
</g>
<g style="fill:#000000; fill-opacity:1.0; 
stroke:#000000; stroke-width:0; stroke-opacity:1; 
stroke-linecap:round; stroke-linejoin:round;">
<polyline style="fill-rule:evenodd;"
points="186509,231790
186509,230609
187690,230609
187690,231790
186509,231790
" /> 
</g>
<g style="fill:#000000; fill-opacity:1.0; 
stroke:#000000; stroke-width:1181.1; stroke-opacity:1; 
stroke-linecap:round; stroke-linejoin:round;">
</g>
<g style="fill:#000000; fill-opacity:0.0; 
stroke:#000000; stroke-width:1181.1; stroke-opacity:1; 
stroke-linecap:round; stroke-linejoin:round;">
<path d="M187100 233574
L187100 233574
" />
</g>
<g style="fill:#000000; fill-opacity:0.0; 
stroke:#000000; stroke-width:0; stroke-opacity:1; 
stroke-linecap:round; stroke-linejoin:round;">
</g>
<g style="fill:#000000; fill-opacity:1.0; 
stroke:#000000; stroke-width:0; stroke-opacity:1; 
stroke-linecap:round; stroke-linejoin:round;">
<polyline style="fill-rule:evenodd;"
points="82609,170890
82609,169709
83790,169709
83790,170890
82609,170890
" /> 
</g>
<g style="fill:#000000; fill-opacity:1.0; 
stroke:#000000; stroke-width:1181.1; stroke-opacity:1; 
stroke-linecap:round; stroke-linejoin:round;">
</g>
<g style="fill:#000000; fill-opacity:0.0; 
stroke:#000000; stroke-width:1181.1; stroke-opacity:1; 
stroke-linecap:round; stroke-linejoin:round;">
<path d="M83200 172674
L83200 172674
" />
</g>
<g style="fill:#000000; fill-opacity:0.0; 
stroke:#000000; stroke-width:0; stroke-opacity:1; 
stroke-linecap:round; stroke-linejoin:round;">
</g>
<g style="fill:#000000; fill-opacity:1.0; 
stroke:#000000; stroke-width:0; stroke-opacity:1; 
stroke-linecap:round; stroke-linejoin:round;">
<polyline style="fill-rule:evenodd;"
points="224809,230590
224809,229409
225990,229409
225990,230590
224809,230590
" /> 
</g>
<g style="fill:#000000; fill-opacity:1.0; 
stroke:#000000; stroke-width:1181.1; stroke-opacity:1; 
stroke-linecap:round; stroke-linejoin:round;">
</g>
<g style="fill:#000000; fill-opacity:0.0; 
stroke:#000000; stroke-width:1181.1; stroke-opacity:1; 
stroke-linecap:round; stroke-linejoin:round;">
<path d="M225400 232374
L225400 232374
" />
</g>
<g style="fill:#000000; fill-opacity:0.0; 
stroke:#000000; stroke-width:0; stroke-opacity:1; 
stroke-linecap:round; stroke-linejoin:round;">
</g>
<g style="fill:#000000; fill-opacity:1.0; 
stroke:#000000; stroke-width:0; stroke-opacity:1; 
stroke-linecap:round; stroke-linejoin:round;">
<polyline style="fill-rule:evenodd;"
points="159209,78290
159209,77109
160390,77109
160390,78290
159209,78290
" /> 
</g>
<g style="fill:#000000; fill-opacity:1.0; 
stroke:#000000; stroke-width:1181.1; stroke-opacity:1; 
stroke-linecap:round; stroke-linejoin:round;">
</g>
<g style="fill:#000000; fill-opacity:0.0; 
stroke:#000000; stroke-width:1181.1; stroke-opacity:1; 
stroke-linecap:round; stroke-linejoin:round;">
<path d="M159800 80074
L159800 80074
" />
</g>
<g style="fill:#000000; fill-opacity:0.0; 
stroke:#000000; stroke-width:0; stroke-opacity:1; 
stroke-linecap:round; stroke-linejoin:round;">
</g>
<g style="fill:#000000; fill-opacity:1.0; 
stroke:#000000; stroke-width:0; stroke-opacity:1; 
stroke-linecap:round; stroke-linejoin:round;">
<polyline style="fill-rule:evenodd;"
points="22509,71890
22509,70709
23690,70709
23690,71890
22509,71890
" /> 
</g>
<g style="fill:#000000; fill-opacity:1.0; 
stroke:#000000; stroke-width:1181.1; stroke-opacity:1; 
stroke-linecap:round; stroke-linejoin:round;">
</g>
<g style="fill:#000000; fill-opacity:0.0; 
stroke:#000000; stroke-width:1181.1; stroke-opacity:1; 
stroke-linecap:round; stroke-linejoin:round;">
<path d="M23100 73674
L23100 73674
" />
</g>
<g style="fill:#000000; fill-opacity:0.0; 
stroke:#000000; stroke-width:0; stroke-opacity:1; 
stroke-linecap:round; stroke-linejoin:round;">
</g>
<g style="fill:#000000; fill-opacity:1.0; 
stroke:#000000; stroke-width:0; stroke-opacity:1; 
stroke-linecap:round; stroke-linejoin:round;">
<polyline style="fill-rule:evenodd;"
points="88109,79490
88109,78309
89290,78309
89290,79490
88109,79490
" /> 
</g>
<g style="fill:#000000; fill-opacity:1.0; 
stroke:#000000; stroke-width:1181.1; stroke-opacity:1; 
stroke-linecap:round; stroke-linejoin:round;">
</g>
<g style="fill:#000000; fill-opacity:0.0; 
stroke:#000000; stroke-width:1181.1; stroke-opacity:1; 
stroke-linecap:round; stroke-linejoin:round;">
<path d="M88700 81274
L88700 81274
" />
</g>
<g style="fill:#000000; fill-opacity:0.0; 
stroke:#000000; stroke-width:0; stroke-opacity:1; 
stroke-linecap:round; stroke-linejoin:round;">
</g>
<g style="fill:#000000; fill-opacity:1.0; 
stroke:#000000; stroke-width:0; stroke-opacity:1; 
stroke-linecap:round; stroke-linejoin:round;">
<polyline style="fill-rule:evenodd;"
points="208409,151690
208409,150509
209590,150509
209590,151690
208409,151690
" /> 
</g>
<g style="fill:#000000; fill-opacity:1.0; 
stroke:#000000; stroke-width:1181.1; stroke-opacity:1; 
stroke-linecap:round; stroke-linejoin:round;">
</g>
<g style="fill:#000000; fill-opacity:0.0; 
stroke:#000000; stroke-width:1181.1; stroke-opacity:1; 
stroke-linecap:round; stroke-linejoin:round;">
<path d="M209000 153474
L209000 153474
" />
</g>
<g style="fill:#000000; fill-opacity:0.0; 
stroke:#000000; stroke-width:0; stroke-opacity:1; 
stroke-linecap:round; stroke-linejoin:round;">
</g>
<g style="fill:#000000; fill-opacity:1.0; 
stroke:#000000; stroke-width:0; stroke-opacity:1; 
stroke-linecap:round; stroke-linejoin:round;">
<polyline style="fill-rule:evenodd;"
points="170109,151390
170109,150209
171290,150209
171290,151390
170109,151390
" /> 
</g>
<g style="fill:#000000; fill-opacity:1.0; 
stroke:#000000; stroke-width:1181.1; stroke-opacity:1; 
stroke-linecap:round; stroke-linejoin:round;">
</g>
<g style="fill:#000000; fill-opacity:0.0; 
stroke:#000000; stroke-width:1181.1; stroke-opacity:1; 
stroke-linecap:round; stroke-linejoin:round;">
<path d="M170700 153174
L170700 153174
" />
</g>
<g style="fill:#000000; fill-opacity:0.0; 
stroke:#000000; stroke-width:0; stroke-opacity:1; 
stroke-linecap:round; stroke-linejoin:round;">
</g>
<g style="fill:#000000; fill-opacity:1.0; 
stroke:#000000; stroke-width:0; stroke-opacity:1; 
stroke-linecap:round; stroke-linejoin:round;">
<polyline style="fill-rule:evenodd;"
points="219309,125090
219309,123909
220490,123909
220490,125090
219309,125090
" /> 
</g>
<g style="fill:#000000; fill-opacity:1.0; 
stroke:#000000; stroke-width:1181.1; stroke-opacity:1; 
stroke-linecap:round; stroke-linejoin:round;">
</g>
<g style="fill:#000000; fill-opacity:0.0; 
stroke:#000000; stroke-width:1181.1; stroke-opacity:1; 
stroke-linecap:round; stroke-linejoin:round;">
<path d="M219900 126874
L219900 126874
" />
</g>
<g style="fill:#000000; fill-opacity:0.0; 
stroke:#000000; stroke-width:0; stroke-opacity:1; 
stroke-linecap:round; stroke-linejoin:round;">
</g>
<g style="fill:#000000; fill-opacity:1.0; 
stroke:#000000; stroke-width:0; stroke-opacity:1; 
stroke-linecap:round; stroke-linejoin:round;">
<polyline style="fill-rule:evenodd;"
points="126409,256790
126409,255609
127590,255609
127590,256790
126409,256790
" /> 
</g>
<g style="fill:#000000; fill-opacity:1.0; 
stroke:#000000; stroke-width:1181.1; stroke-opacity:1; 
stroke-linecap:round; stroke-linejoin:round;">
</g>
<g style="fill:#000000; fill-opacity:0.0; 
stroke:#000000; stroke-width:1181.1; stroke-opacity:1; 
stroke-linecap:round; stroke-linejoin:round;">
<path d="M127000 258574
L127000 258574
" />
</g>
<g style="fill:#000000; fill-opacity:1.0; 
stroke:#000000; stroke-width:0; stroke-opacity:1; 
stroke-linecap:round; stroke-linejoin:round;">
<circle cx="144159" cy="20158.8" r="118.11" /> 
</g>
<g style="fill:#000000; fill-opacity:1.0; 
stroke:#000000; stroke-width:39.3701; stroke-opacity:1; 
stroke-linecap:round; stroke-linejoin:round;">
</g>
<g style="fill:#000000; fill-opacity:1.0; 
stroke:#000000; stroke-width:0; stroke-opacity:1; 
stroke-linecap:round; stroke-linejoin:round;">
<circle cx="149100" cy="16400" r="118.11" /> 
</g>
<g style="fill:#000000; fill-opacity:1.0; 
stroke:#000000; stroke-width:39.3701; stroke-opacity:1; 
stroke-linecap:round; stroke-linejoin:round;">
</g>
<g style="fill:#000000; fill-opacity:1.0; 
stroke:#000000; stroke-width:0; stroke-opacity:1; 
stroke-linecap:round; stroke-linejoin:round;">
<circle cx="143000" cy="27000" r="118.11" /> 
</g>
<g style="fill:#000000; fill-opacity:1.0; 
stroke:#000000; stroke-width:39.3701; stroke-opacity:1; 
stroke-linecap:round; stroke-linejoin:round;">
</g>
<g style="fill:#000000; fill-opacity:1.0; 
stroke:#000000; stroke-width:0; stroke-opacity:1; 
stroke-linecap:round; stroke-linejoin:round;">
<circle cx="153075" cy="16974.8" r="118.11" /> 
</g>
<g style="fill:#000000; fill-opacity:1.0; 
stroke:#000000; stroke-width:39.3701; stroke-opacity:1; 
stroke-linecap:round; stroke-linejoin:round;">
</g>
<g style="fill:#000000; fill-opacity:1.0; 
stroke:#000000; stroke-width:0; stroke-opacity:1; 
stroke-linecap:round; stroke-linejoin:round;">
<circle cx="144607" cy="26906.7" r="118.11" /> 
</g>
<g style="fill:#000000; fill-opacity:1.0; 
stroke:#000000; stroke-width:39.3701; stroke-opacity:1; 
stroke-linecap:round; stroke-linejoin:round;">
</g>
<g style="fill:#000000; fill-opacity:1.0; 
stroke:#000000; stroke-width:0; stroke-opacity:1; 
stroke-linecap:round; stroke-linejoin:round;">
<circle cx="152600" cy="18500" r="118.11" /> 
</g>
<g style="fill:#000000; fill-opacity:1.0; 
stroke:#000000; stroke-width:39.3701; stroke-opacity:1; 
stroke-linecap:round; stroke-linejoin:round;">
</g>
<g style="fill:#000000; fill-opacity:1.0; 
stroke:#000000; stroke-width:0; stroke-opacity:1; 
stroke-linecap:round; stroke-linejoin:round;">
<circle cx="219900" cy="15500" r="118.11" /> 
</g>
<g style="fill:#000000; fill-opacity:1.0; 
stroke:#000000; stroke-width:39.3701; stroke-opacity:1; 
stroke-linecap:round; stroke-linejoin:round;">
</g>
<g style="fill:#000000; fill-opacity:1.0; 
stroke:#000000; stroke-width:0; stroke-opacity:1; 
stroke-linecap:round; stroke-linejoin:round;">
<circle cx="215800" cy="19300" r="118.11" /> 
</g>
<g style="fill:#000000; fill-opacity:1.0; 
stroke:#000000; stroke-width:39.3701; stroke-opacity:1; 
stroke-linecap:round; stroke-linejoin:round;">
</g>
<g style="fill:#000000; fill-opacity:1.0; 
stroke:#000000; stroke-width:0; stroke-opacity:1; 
stroke-linecap:round; stroke-linejoin:round;">
<circle cx="224100" cy="17100" r="118.11" /> 
</g>
<g style="fill:#000000; fill-opacity:1.0; 
stroke:#000000; stroke-width:39.3701; stroke-opacity:1; 
stroke-linecap:round; stroke-linejoin:round;">
</g>
<g style="fill:#000000; fill-opacity:1.0; 
stroke:#000000; stroke-width:0; stroke-opacity:1; 
stroke-linecap:round; stroke-linejoin:round;">
<circle cx="213700" cy="25800" r="118.11" /> 
</g>
<g style="fill:#000000; fill-opacity:1.0; 
stroke:#000000; stroke-width:39.3701; stroke-opacity:1; 
stroke-linecap:round; stroke-linejoin:round;">
</g>
<g style="fill:#000000; fill-opacity:1.0; 
stroke:#000000; stroke-width:0; stroke-opacity:1; 
stroke-linecap:round; stroke-linejoin:round;">
<circle cx="223700" cy="18500" r="118.11" /> 
</g>
<g style="fill:#000000; fill-opacity:1.0; 
stroke:#000000; stroke-width:39.3701; stroke-opacity:1; 
stroke-linecap:round; stroke-linejoin:round;">
</g>
<g style="fill:#000000; fill-opacity:1.0; 
stroke:#000000; stroke-width:0; stroke-opacity:1; 
stroke-linecap:round; stroke-linejoin:round;">
<circle cx="215700" cy="25000" r="118.11" /> 
</g>
<g style="fill:#000000; fill-opacity:1.0; 
stroke:#000000; stroke-width:39.3701; stroke-opacity:1; 
stroke-linecap:round; stroke-linejoin:round;">
</g>
<g style="fill:#000000; fill-opacity:1.0; 
stroke:#000000; stroke-width:0; stroke-opacity:1; 
stroke-linecap:round; stroke-linejoin:round;">
<circle cx="296500" cy="237500" r="118.11" /> 
</g>
<g style="fill:#000000; fill-opacity:1.0; 
stroke:#000000; stroke-width:39.3701; stroke-opacity:1; 
stroke-linecap:round; stroke-linejoin:round;">
</g>
<g style="fill:#000000; fill-opacity:1.0; 
stroke:#000000; stroke-width:0; stroke-opacity:1; 
stroke-linecap:round; stroke-linejoin:round;">
<circle cx="286800" cy="236000" r="118.11" /> 
</g>
<g style="fill:#000000; fill-opacity:1.0; 
stroke:#000000; stroke-width:39.3701; stroke-opacity:1; 
stroke-linecap:round; stroke-linejoin:round;">
</g>
<g style="fill:#000000; fill-opacity:1.0; 
stroke:#000000; stroke-width:0; stroke-opacity:1; 
stroke-linecap:round; stroke-linejoin:round;">
<circle cx="102417" cy="178883" r="118.11" /> 
</g>
<g style="fill:#000000; fill-opacity:1.0; 
stroke:#000000; stroke-width:39.3701; stroke-opacity:1; 
stroke-linecap:round; stroke-linejoin:round;">
</g>
<g style="fill:#000000; fill-opacity:1.0; 
stroke:#000000; stroke-width:0; stroke-opacity:1; 
stroke-linecap:round; stroke-linejoin:round;">
<circle cx="111100" cy="171000" r="118.11" /> 
</g>
<g style="fill:#000000; fill-opacity:1.0; 
stroke:#000000; stroke-width:39.3701; stroke-opacity:1; 
stroke-linecap:round; stroke-linejoin:round;">
</g>
<g style="fill:#000000; fill-opacity:1.0; 
stroke:#000000; stroke-width:0; stroke-opacity:1; 
stroke-linecap:round; stroke-linejoin:round;">
<circle cx="114400" cy="173300" r="118.11" /> 
</g>
<g style="fill:#000000; fill-opacity:1.0; 
stroke:#000000; stroke-width:39.3701; stroke-opacity:1; 
stroke-linecap:round; stroke-linejoin:round;">
</g>
<g style="fill:#000000; fill-opacity:1.0; 
stroke:#000000; stroke-width:0; stroke-opacity:1; 
stroke-linecap:round; stroke-linejoin:round;">
<circle cx="105200" cy="180400" r="118.11" /> 
</g>
<g style="fill:#000000; fill-opacity:1.0; 
stroke:#000000; stroke-width:39.3701; stroke-opacity:1; 
stroke-linecap:round; stroke-linejoin:round;">
</g>
<g style="fill:#000000; fill-opacity:1.0; 
stroke:#000000; stroke-width:787.402; stroke-opacity:1; 
stroke-linecap:round; stroke-linejoin:round;">
</g>
<g style="fill:#000000; fill-opacity:0.0; 
stroke:#000000; stroke-width:787.402; stroke-opacity:1; 
stroke-linecap:round; stroke-linejoin:round;">
<path d="M149100 16400
L147917 16400
" />
<path d="M147917 16400
L144158 20158
" />
<path d="M153074 16974
L150387 16974
" />
<path d="M150387 16974
L143000 24362
" />
<path d="M143000 24362
L143000 27000
" />
<path d="M152600 18500
L150310 18500
" />
<path d="M150310 18500
L144606 24203
" />
<path d="M144606 24203
L144606 26906
" />
<path d="M216400 19300
L216400 19000
" />
<path d="M216400 19000
L219900 15500
" />
<path d="M215800 19300
L216400 19300
" />
<path d="M221347 17100
L224100 17100
" />
<path d="M213700 25800
L213700 24747
" />
<path d="M213700 24747
L221347 17100
" />
<path d="M215700 25000
L215700 24195
" />
<path d="M215700 24195
L221395 18500
" />
<path d="M221395 18500
L223700 18500
" />
<path d="M287700 236900
L295900 236900
" />
<path d="M295900 236900
L296500 237500
" />
<path d="M286800 236000
L287700 236900
" />
<path d="M111100 171000
L103216 178883
" />
<path d="M103216 178883
L102416 178883
" />
<path d="M105200 180400
L107300 180400
" />
<path d="M107300 180400
L114400 173300
" />
</g> 
</svg>
