G04 #@! TF.FileFunction,Copper,L2,Bot,Signal*
%FSLAX46Y46*%
G04 Gerber Fmt 4.6, Leading zero omitted, Abs format (unit mm)*
G04 Created by KiCad (PCBNEW 4.0.6) date Mon Jul 10 00:27:29 2017*
%MOMM*%
%LPD*%
G01*
G04 APERTURE LIST*
%ADD10C,0.100000*%
%ADD11O,1.524000X3.000000*%
%ADD12R,2.000000X2.000000*%
%ADD13O,2.000000X2.000000*%
%ADD14R,3.000000X3.000000*%
%ADD15O,3.000000X3.000000*%
%ADD16C,0.600000*%
%ADD17C,2.000000*%
%ADD18C,1.000000*%
G04 APERTURE END LIST*
D10*
D11*
X83254400Y-121111100D03*
X80714400Y-121111100D03*
X78174400Y-121111100D03*
X75634400Y-121111100D03*
X83254400Y-273888900D03*
X80714400Y-273888900D03*
X78174400Y-273888900D03*
X75634400Y-273888900D03*
X55476700Y-162777700D03*
X52936700Y-162777700D03*
X50396700Y-162777700D03*
X47856700Y-162777700D03*
X55476700Y-246111100D03*
X52936700Y-246111100D03*
X50396700Y-246111100D03*
X47856700Y-246111100D03*
X61745600Y-260000000D03*
X64285600Y-260000000D03*
X66825600Y-260000000D03*
X69365600Y-260000000D03*
X61745600Y-148888800D03*
X64285600Y-148888800D03*
X66825600Y-148888800D03*
X69365600Y-148888800D03*
X89523300Y-204444500D03*
X92063300Y-204444500D03*
X94603300Y-204444500D03*
X97143300Y-204444500D03*
X89523300Y-121111100D03*
X92063300Y-121111100D03*
X94603300Y-121111100D03*
X97143300Y-121111100D03*
X89523300Y-273888900D03*
X92063300Y-273888900D03*
X94603300Y-273888900D03*
X97143300Y-273888900D03*
X89523300Y-232222300D03*
X92063300Y-232222300D03*
X94603300Y-232222300D03*
X97143300Y-232222300D03*
X111032200Y-107222300D03*
X108492200Y-107222300D03*
X105952200Y-107222300D03*
X103412200Y-107222300D03*
X111032200Y-148888900D03*
X108492200Y-148888900D03*
X105952200Y-148888900D03*
X103412200Y-148888900D03*
X103412200Y-204444500D03*
X105952200Y-204444500D03*
X108492200Y-204444500D03*
X111032200Y-204444500D03*
X103412200Y-176666700D03*
X105952200Y-176666700D03*
X108492200Y-176666700D03*
X111032200Y-176666700D03*
X111032200Y-232222300D03*
X108492200Y-232222300D03*
X105952200Y-232222300D03*
X103412200Y-232222300D03*
X111032200Y-273888900D03*
X108492200Y-273888900D03*
X105952200Y-273888900D03*
X103412200Y-273888900D03*
X117301100Y-148888900D03*
X119841100Y-148888900D03*
X122381100Y-148888900D03*
X124921100Y-148888900D03*
X117301100Y-107222300D03*
X119841100Y-107222300D03*
X122381100Y-107222300D03*
X124921100Y-107222300D03*
X124921100Y-176666700D03*
X122381100Y-176666700D03*
X119841100Y-176666700D03*
X117301100Y-176666700D03*
X124921100Y-204444500D03*
X122381100Y-204444500D03*
X119841100Y-204444500D03*
X117301100Y-204444500D03*
X117301100Y-273888900D03*
X119841100Y-273888900D03*
X122381100Y-273888900D03*
X124921100Y-273888900D03*
X117301100Y-246111100D03*
X119841100Y-246111100D03*
X122381100Y-246111100D03*
X124921100Y-246111100D03*
X138810000Y-107222200D03*
X136270000Y-107222200D03*
X133730000Y-107222200D03*
X131190000Y-107222200D03*
X138810000Y-135000000D03*
X136270000Y-135000000D03*
X133730000Y-135000000D03*
X131190000Y-135000000D03*
X131190000Y-204444500D03*
X133730000Y-204444500D03*
X136270000Y-204444500D03*
X138810000Y-204444500D03*
X131190000Y-176666700D03*
X133730000Y-176666700D03*
X136270000Y-176666700D03*
X138810000Y-176666700D03*
X138810000Y-232222300D03*
X136270000Y-232222300D03*
X133730000Y-232222300D03*
X131190000Y-232222300D03*
X138810000Y-273888900D03*
X136270000Y-273888900D03*
X133730000Y-273888900D03*
X131190000Y-273888900D03*
X145078900Y-148888900D03*
X147618900Y-148888900D03*
X150158900Y-148888900D03*
X152698900Y-148888900D03*
X145078900Y-107222300D03*
X147618900Y-107222300D03*
X150158900Y-107222300D03*
X152698900Y-107222300D03*
X152698900Y-162777800D03*
X150158900Y-162777800D03*
X147618900Y-162777800D03*
X145078900Y-162777800D03*
X152698900Y-204444400D03*
X150158900Y-204444400D03*
X147618900Y-204444400D03*
X145078900Y-204444400D03*
X145078900Y-273888900D03*
X147618900Y-273888900D03*
X150158900Y-273888900D03*
X152698900Y-273888900D03*
X145078900Y-232222300D03*
X147618900Y-232222300D03*
X150158900Y-232222300D03*
X152698900Y-232222300D03*
X152698900Y-440555600D03*
X150158900Y-440555600D03*
X147618900Y-440555600D03*
X145078900Y-440555600D03*
X152698900Y-510000000D03*
X150158900Y-510000000D03*
X147618900Y-510000000D03*
X145078900Y-510000000D03*
X166587800Y-107222200D03*
X164047800Y-107222200D03*
X161507800Y-107222200D03*
X158967800Y-107222200D03*
X166587800Y-190555600D03*
X164047800Y-190555600D03*
X161507800Y-190555600D03*
X158967800Y-190555600D03*
X166587800Y-232222200D03*
X164047800Y-232222200D03*
X161507800Y-232222200D03*
X158967800Y-232222200D03*
X166587800Y-260000000D03*
X164047800Y-260000000D03*
X161507800Y-260000000D03*
X158967800Y-260000000D03*
X158967800Y-523888900D03*
X161507800Y-523888900D03*
X164047800Y-523888900D03*
X166587800Y-523888900D03*
X158967800Y-426666700D03*
X161507800Y-426666700D03*
X164047800Y-426666700D03*
X166587800Y-426666700D03*
X172856700Y-190555500D03*
X175396700Y-190555500D03*
X177936700Y-190555500D03*
X180476700Y-190555500D03*
X172856700Y-121111100D03*
X175396700Y-121111100D03*
X177936700Y-121111100D03*
X180476700Y-121111100D03*
X172856700Y-468333300D03*
X175396700Y-468333300D03*
X177936700Y-468333300D03*
X180476700Y-468333300D03*
X172856700Y-371111100D03*
X175396700Y-371111100D03*
X177936700Y-371111100D03*
X180476700Y-371111100D03*
X180476700Y-482222300D03*
X177936700Y-482222300D03*
X175396700Y-482222300D03*
X172856700Y-482222300D03*
X180476700Y-523888900D03*
X177936700Y-523888900D03*
X175396700Y-523888900D03*
X172856700Y-523888900D03*
X194365600Y-135000000D03*
X191825600Y-135000000D03*
X189285600Y-135000000D03*
X186745600Y-135000000D03*
X194365600Y-162777800D03*
X191825600Y-162777800D03*
X189285600Y-162777800D03*
X186745600Y-162777800D03*
X194365600Y-357222200D03*
X191825600Y-357222200D03*
X189285600Y-357222200D03*
X186745600Y-357222200D03*
X194365600Y-454444400D03*
X191825600Y-454444400D03*
X189285600Y-454444400D03*
X186745600Y-454444400D03*
X186745600Y-523888900D03*
X189285600Y-523888900D03*
X191825600Y-523888900D03*
X194365600Y-523888900D03*
X186745600Y-496111100D03*
X189285600Y-496111100D03*
X191825600Y-496111100D03*
X194365600Y-496111100D03*
X200634400Y-385000000D03*
X203174400Y-385000000D03*
X205714400Y-385000000D03*
X208254400Y-385000000D03*
X200634400Y-343333400D03*
X203174400Y-343333400D03*
X205714400Y-343333400D03*
X208254400Y-343333400D03*
X200634400Y-468333300D03*
X203174400Y-468333300D03*
X205714400Y-468333300D03*
X208254400Y-468333300D03*
X200634400Y-398888900D03*
X203174400Y-398888900D03*
X205714400Y-398888900D03*
X208254400Y-398888900D03*
X208254400Y-496111100D03*
X205714400Y-496111100D03*
X203174400Y-496111100D03*
X200634400Y-496111100D03*
X208254400Y-523888900D03*
X205714400Y-523888900D03*
X203174400Y-523888900D03*
X200634400Y-523888900D03*
X222143300Y-176666700D03*
X219603300Y-176666700D03*
X217063300Y-176666700D03*
X214523300Y-176666700D03*
X222143300Y-246111100D03*
X219603300Y-246111100D03*
X217063300Y-246111100D03*
X214523300Y-246111100D03*
X222143300Y-343333300D03*
X219603300Y-343333300D03*
X217063300Y-343333300D03*
X214523300Y-343333300D03*
X222143300Y-371111100D03*
X219603300Y-371111100D03*
X217063300Y-371111100D03*
X214523300Y-371111100D03*
X222143300Y-412777700D03*
X219603300Y-412777700D03*
X217063300Y-412777700D03*
X214523300Y-412777700D03*
X222143300Y-523888900D03*
X219603300Y-523888900D03*
X217063300Y-523888900D03*
X214523300Y-523888900D03*
X228412200Y-260000000D03*
X230952200Y-260000000D03*
X233492200Y-260000000D03*
X236032200Y-260000000D03*
X228412200Y-135000000D03*
X230952200Y-135000000D03*
X233492200Y-135000000D03*
X236032200Y-135000000D03*
X228412200Y-385000000D03*
X230952200Y-385000000D03*
X233492200Y-385000000D03*
X236032200Y-385000000D03*
X228412200Y-343333400D03*
X230952200Y-343333400D03*
X233492200Y-343333400D03*
X236032200Y-343333400D03*
X236032200Y-398888900D03*
X233492200Y-398888900D03*
X230952200Y-398888900D03*
X228412200Y-398888900D03*
X236032200Y-426666700D03*
X233492200Y-426666700D03*
X230952200Y-426666700D03*
X228412200Y-426666700D03*
X228412200Y-510000000D03*
X230952200Y-510000000D03*
X233492200Y-510000000D03*
X236032200Y-510000000D03*
X228412200Y-440555600D03*
X230952200Y-440555600D03*
X233492200Y-440555600D03*
X236032200Y-440555600D03*
X249921100Y-121111100D03*
X247381100Y-121111100D03*
X244841100Y-121111100D03*
X242301100Y-121111100D03*
X249921100Y-273888900D03*
X247381100Y-273888900D03*
X244841100Y-273888900D03*
X242301100Y-273888900D03*
X242301100Y-426666700D03*
X244841100Y-426666700D03*
X247381100Y-426666700D03*
X249921100Y-426666700D03*
X242301100Y-343333300D03*
X244841100Y-343333300D03*
X247381100Y-343333300D03*
X249921100Y-343333300D03*
X249921100Y-468333300D03*
X247381100Y-468333300D03*
X244841100Y-468333300D03*
X242301100Y-468333300D03*
X249921100Y-523888900D03*
X247381100Y-523888900D03*
X244841100Y-523888900D03*
X242301100Y-523888900D03*
X263810000Y-121111100D03*
X261270000Y-121111100D03*
X258730000Y-121111100D03*
X256190000Y-121111100D03*
X263810000Y-190555500D03*
X261270000Y-190555500D03*
X258730000Y-190555500D03*
X256190000Y-190555500D03*
X256190000Y-273888900D03*
X258730000Y-273888900D03*
X261270000Y-273888900D03*
X263810000Y-273888900D03*
X256190000Y-232222300D03*
X258730000Y-232222300D03*
X261270000Y-232222300D03*
X263810000Y-232222300D03*
X263810000Y-357222200D03*
X261270000Y-357222200D03*
X258730000Y-357222200D03*
X256190000Y-357222200D03*
X263810000Y-412777800D03*
X261270000Y-412777800D03*
X258730000Y-412777800D03*
X256190000Y-412777800D03*
X256190000Y-523888900D03*
X258730000Y-523888900D03*
X261270000Y-523888900D03*
X263810000Y-523888900D03*
X256190000Y-440555500D03*
X258730000Y-440555500D03*
X261270000Y-440555500D03*
X263810000Y-440555500D03*
X270078900Y-162777800D03*
X272618900Y-162777800D03*
X275158900Y-162777800D03*
X277698900Y-162777800D03*
X270078900Y-107222200D03*
X272618900Y-107222200D03*
X275158900Y-107222200D03*
X277698900Y-107222200D03*
X277698900Y-232222300D03*
X275158900Y-232222300D03*
X272618900Y-232222300D03*
X270078900Y-232222300D03*
X277698900Y-273888900D03*
X275158900Y-273888900D03*
X272618900Y-273888900D03*
X270078900Y-273888900D03*
X277698900Y-426666600D03*
X275158900Y-426666600D03*
X272618900Y-426666600D03*
X270078900Y-426666600D03*
X277698900Y-482222200D03*
X275158900Y-482222200D03*
X272618900Y-482222200D03*
X270078900Y-482222200D03*
X277698900Y-496111100D03*
X275158900Y-496111100D03*
X272618900Y-496111100D03*
X270078900Y-496111100D03*
X277698900Y-523888900D03*
X275158900Y-523888900D03*
X272618900Y-523888900D03*
X270078900Y-523888900D03*
X291587800Y-107222300D03*
X289047800Y-107222300D03*
X286507800Y-107222300D03*
X283967800Y-107222300D03*
X291587800Y-148888900D03*
X289047800Y-148888900D03*
X286507800Y-148888900D03*
X283967800Y-148888900D03*
X283967800Y-260000000D03*
X286507800Y-260000000D03*
X289047800Y-260000000D03*
X291587800Y-260000000D03*
X283967800Y-232222200D03*
X286507800Y-232222200D03*
X289047800Y-232222200D03*
X291587800Y-232222200D03*
X283967800Y-454444500D03*
X286507800Y-454444500D03*
X289047800Y-454444500D03*
X291587800Y-454444500D03*
X283967800Y-426666700D03*
X286507800Y-426666700D03*
X289047800Y-426666700D03*
X291587800Y-426666700D03*
X297856700Y-148888900D03*
X300396700Y-148888900D03*
X302936700Y-148888900D03*
X305476700Y-148888900D03*
X297856700Y-107222300D03*
X300396700Y-107222300D03*
X302936700Y-107222300D03*
X305476700Y-107222300D03*
X305476700Y-218333400D03*
X302936700Y-218333400D03*
X300396700Y-218333400D03*
X297856700Y-218333400D03*
X305476700Y-260000000D03*
X302936700Y-260000000D03*
X300396700Y-260000000D03*
X297856700Y-260000000D03*
X305476700Y-621111100D03*
X302936700Y-621111100D03*
X300396700Y-621111100D03*
X297856700Y-621111100D03*
X305476700Y-662777700D03*
X302936700Y-662777700D03*
X300396700Y-662777700D03*
X297856700Y-662777700D03*
X319365600Y-121111100D03*
X316825600Y-121111100D03*
X314285600Y-121111100D03*
X311745600Y-121111100D03*
X319365600Y-162777700D03*
X316825600Y-162777700D03*
X314285600Y-162777700D03*
X311745600Y-162777700D03*
X311745600Y-273888900D03*
X314285600Y-273888900D03*
X316825600Y-273888900D03*
X319365600Y-273888900D03*
X311745600Y-176666700D03*
X314285600Y-176666700D03*
X316825600Y-176666700D03*
X319365600Y-176666700D03*
X311745600Y-676666700D03*
X314285600Y-676666700D03*
X316825600Y-676666700D03*
X319365600Y-676666700D03*
X311745600Y-621111100D03*
X314285600Y-621111100D03*
X316825600Y-621111100D03*
X319365600Y-621111100D03*
X325634400Y-273888900D03*
X328174400Y-273888900D03*
X330714400Y-273888900D03*
X333254400Y-273888900D03*
X325634400Y-107222300D03*
X328174400Y-107222300D03*
X330714400Y-107222300D03*
X333254400Y-107222300D03*
X333254400Y-635000000D03*
X330714400Y-635000000D03*
X328174400Y-635000000D03*
X325634400Y-635000000D03*
X333254400Y-676666600D03*
X330714400Y-676666600D03*
X328174400Y-676666600D03*
X325634400Y-676666600D03*
X347143300Y-51666700D03*
X344603300Y-51666700D03*
X342063300Y-51666700D03*
X339523300Y-51666700D03*
X347143300Y-246111100D03*
X344603300Y-246111100D03*
X342063300Y-246111100D03*
X339523300Y-246111100D03*
X339523300Y-676666600D03*
X342063300Y-676666600D03*
X344603300Y-676666600D03*
X347143300Y-676666600D03*
X339523300Y-635000000D03*
X342063300Y-635000000D03*
X344603300Y-635000000D03*
X347143300Y-635000000D03*
X353412200Y-176666600D03*
X355952200Y-176666600D03*
X358492200Y-176666600D03*
X361032200Y-176666600D03*
X353412200Y-37777800D03*
X355952200Y-37777800D03*
X358492200Y-37777800D03*
X361032200Y-37777800D03*
X361032200Y-607222200D03*
X358492200Y-607222200D03*
X355952200Y-607222200D03*
X353412200Y-607222200D03*
X361032200Y-662777800D03*
X358492200Y-662777800D03*
X355952200Y-662777800D03*
X353412200Y-662777800D03*
X374921100Y-37777700D03*
X372381100Y-37777700D03*
X369841100Y-37777700D03*
X367301100Y-37777700D03*
X374921100Y-121111100D03*
X372381100Y-121111100D03*
X369841100Y-121111100D03*
X367301100Y-121111100D03*
X367301100Y-662777800D03*
X369841100Y-662777800D03*
X372381100Y-662777800D03*
X374921100Y-662777800D03*
X367301100Y-537777800D03*
X369841100Y-537777800D03*
X372381100Y-537777800D03*
X374921100Y-537777800D03*
X381190000Y-51666600D03*
X383730000Y-51666600D03*
X386270000Y-51666600D03*
X388810000Y-51666600D03*
X381190000Y-37777800D03*
X383730000Y-37777800D03*
X386270000Y-37777800D03*
X388810000Y-37777800D03*
X388810000Y-468333300D03*
X386270000Y-468333300D03*
X383730000Y-468333300D03*
X381190000Y-468333300D03*
X388810000Y-648888900D03*
X386270000Y-648888900D03*
X383730000Y-648888900D03*
X381190000Y-648888900D03*
X402698900Y-176666700D03*
X400158900Y-176666700D03*
X397618900Y-176666700D03*
X395078900Y-176666700D03*
X402698900Y-246111100D03*
X400158900Y-246111100D03*
X397618900Y-246111100D03*
X395078900Y-246111100D03*
X395078900Y-621111100D03*
X397618900Y-621111100D03*
X400158900Y-621111100D03*
X402698900Y-621111100D03*
X395078900Y-440555500D03*
X397618900Y-440555500D03*
X400158900Y-440555500D03*
X402698900Y-440555500D03*
X408967800Y-260000000D03*
X411507800Y-260000000D03*
X414047800Y-260000000D03*
X416587800Y-260000000D03*
X408967800Y-135000000D03*
X411507800Y-135000000D03*
X414047800Y-135000000D03*
X416587800Y-135000000D03*
X416587800Y-385000000D03*
X414047800Y-385000000D03*
X411507800Y-385000000D03*
X408967800Y-385000000D03*
X416587800Y-412777800D03*
X414047800Y-412777800D03*
X411507800Y-412777800D03*
X408967800Y-412777800D03*
X416587800Y-440555500D03*
X414047800Y-440555500D03*
X411507800Y-440555500D03*
X408967800Y-440555500D03*
X416587800Y-551666700D03*
X414047800Y-551666700D03*
X411507800Y-551666700D03*
X408967800Y-551666700D03*
X430476700Y-121111100D03*
X427936700Y-121111100D03*
X425396700Y-121111100D03*
X422856700Y-121111100D03*
X430476700Y-273888900D03*
X427936700Y-273888900D03*
X425396700Y-273888900D03*
X422856700Y-273888900D03*
X422856700Y-412777700D03*
X425396700Y-412777700D03*
X427936700Y-412777700D03*
X430476700Y-412777700D03*
X422856700Y-371111100D03*
X425396700Y-371111100D03*
X427936700Y-371111100D03*
X430476700Y-371111100D03*
X422856700Y-482222200D03*
X425396700Y-482222200D03*
X427936700Y-482222200D03*
X430476700Y-482222200D03*
X422856700Y-440555600D03*
X425396700Y-440555600D03*
X427936700Y-440555600D03*
X430476700Y-440555600D03*
X444365600Y-121111100D03*
X441825600Y-121111100D03*
X439285600Y-121111100D03*
X436745600Y-121111100D03*
X444365600Y-190555500D03*
X441825600Y-190555500D03*
X439285600Y-190555500D03*
X436745600Y-190555500D03*
X436745600Y-273888900D03*
X439285600Y-273888900D03*
X441825600Y-273888900D03*
X444365600Y-273888900D03*
X436745600Y-232222300D03*
X439285600Y-232222300D03*
X441825600Y-232222300D03*
X444365600Y-232222300D03*
X444365600Y-371111100D03*
X441825600Y-371111100D03*
X439285600Y-371111100D03*
X436745600Y-371111100D03*
X444365600Y-398888900D03*
X441825600Y-398888900D03*
X439285600Y-398888900D03*
X436745600Y-398888900D03*
X450634400Y-162777800D03*
X453174400Y-162777800D03*
X455714400Y-162777800D03*
X458254400Y-162777800D03*
X450634400Y-107222200D03*
X453174400Y-107222200D03*
X455714400Y-107222200D03*
X458254400Y-107222200D03*
X458254400Y-232222300D03*
X455714400Y-232222300D03*
X453174400Y-232222300D03*
X450634400Y-232222300D03*
X458254400Y-273888900D03*
X455714400Y-273888900D03*
X453174400Y-273888900D03*
X450634400Y-273888900D03*
X458254400Y-579444400D03*
X455714400Y-579444400D03*
X453174400Y-579444400D03*
X450634400Y-579444400D03*
X458254400Y-607222200D03*
X455714400Y-607222200D03*
X453174400Y-607222200D03*
X450634400Y-607222200D03*
X472143300Y-107222300D03*
X469603300Y-107222300D03*
X467063300Y-107222300D03*
X464523300Y-107222300D03*
X472143300Y-148888900D03*
X469603300Y-148888900D03*
X467063300Y-148888900D03*
X464523300Y-148888900D03*
X464523300Y-260000000D03*
X467063300Y-260000000D03*
X469603300Y-260000000D03*
X472143300Y-260000000D03*
X464523300Y-232222200D03*
X467063300Y-232222200D03*
X469603300Y-232222200D03*
X472143300Y-232222200D03*
X464523300Y-607222200D03*
X467063300Y-607222200D03*
X469603300Y-607222200D03*
X472143300Y-607222200D03*
X464523300Y-537777800D03*
X467063300Y-537777800D03*
X469603300Y-537777800D03*
X472143300Y-537777800D03*
X478412200Y-148888900D03*
X480952200Y-148888900D03*
X483492200Y-148888900D03*
X486032200Y-148888900D03*
X478412200Y-107222300D03*
X480952200Y-107222300D03*
X483492200Y-107222300D03*
X486032200Y-107222300D03*
X486032200Y-218333400D03*
X483492200Y-218333400D03*
X480952200Y-218333400D03*
X478412200Y-218333400D03*
X486032200Y-260000000D03*
X483492200Y-260000000D03*
X480952200Y-260000000D03*
X478412200Y-260000000D03*
X486032200Y-468333400D03*
X483492200Y-468333400D03*
X480952200Y-468333400D03*
X478412200Y-468333400D03*
X486032200Y-607222200D03*
X483492200Y-607222200D03*
X480952200Y-607222200D03*
X478412200Y-607222200D03*
X499921100Y-121111100D03*
X497381100Y-121111100D03*
X494841100Y-121111100D03*
X492301100Y-121111100D03*
X499921100Y-162777700D03*
X497381100Y-162777700D03*
X494841100Y-162777700D03*
X492301100Y-162777700D03*
X492301100Y-273888900D03*
X494841100Y-273888900D03*
X497381100Y-273888900D03*
X499921100Y-273888900D03*
X492301100Y-176666700D03*
X494841100Y-176666700D03*
X497381100Y-176666700D03*
X499921100Y-176666700D03*
X492301100Y-607222200D03*
X494841100Y-607222200D03*
X497381100Y-607222200D03*
X499921100Y-607222200D03*
X492301100Y-440555600D03*
X494841100Y-440555600D03*
X497381100Y-440555600D03*
X499921100Y-440555600D03*
X506190000Y-273888900D03*
X508730000Y-273888900D03*
X511270000Y-273888900D03*
X513810000Y-273888900D03*
X506190000Y-107222300D03*
X508730000Y-107222300D03*
X511270000Y-107222300D03*
X513810000Y-107222300D03*
X513810000Y-385000000D03*
X511270000Y-385000000D03*
X508730000Y-385000000D03*
X506190000Y-385000000D03*
X513810000Y-412777800D03*
X511270000Y-412777800D03*
X508730000Y-412777800D03*
X506190000Y-412777800D03*
X513810000Y-440555500D03*
X511270000Y-440555500D03*
X508730000Y-440555500D03*
X506190000Y-440555500D03*
X513810000Y-551666700D03*
X511270000Y-551666700D03*
X508730000Y-551666700D03*
X506190000Y-551666700D03*
X527698900Y-51666700D03*
X525158900Y-51666700D03*
X522618900Y-51666700D03*
X520078900Y-51666700D03*
X527698900Y-246111100D03*
X525158900Y-246111100D03*
X522618900Y-246111100D03*
X520078900Y-246111100D03*
X520078900Y-412777700D03*
X522618900Y-412777700D03*
X525158900Y-412777700D03*
X527698900Y-412777700D03*
X520078900Y-371111100D03*
X522618900Y-371111100D03*
X525158900Y-371111100D03*
X527698900Y-371111100D03*
X520078900Y-482222200D03*
X522618900Y-482222200D03*
X525158900Y-482222200D03*
X527698900Y-482222200D03*
X520078900Y-440555600D03*
X522618900Y-440555600D03*
X525158900Y-440555600D03*
X527698900Y-440555600D03*
X533967800Y-176666600D03*
X536507800Y-176666600D03*
X539047800Y-176666600D03*
X541587800Y-176666600D03*
X533967800Y-37777800D03*
X536507800Y-37777800D03*
X539047800Y-37777800D03*
X541587800Y-37777800D03*
X541587800Y-287777800D03*
X539047800Y-287777800D03*
X536507800Y-287777800D03*
X533967800Y-287777800D03*
X541587800Y-329444400D03*
X539047800Y-329444400D03*
X536507800Y-329444400D03*
X533967800Y-329444400D03*
X541587800Y-371111100D03*
X539047800Y-371111100D03*
X536507800Y-371111100D03*
X533967800Y-371111100D03*
X541587800Y-398888900D03*
X539047800Y-398888900D03*
X536507800Y-398888900D03*
X533967800Y-398888900D03*
X555476700Y-37777700D03*
X552936700Y-37777700D03*
X550396700Y-37777700D03*
X547856700Y-37777700D03*
X555476700Y-121111100D03*
X552936700Y-121111100D03*
X550396700Y-121111100D03*
X547856700Y-121111100D03*
X547856700Y-343333400D03*
X550396700Y-343333400D03*
X552936700Y-343333400D03*
X555476700Y-343333400D03*
X547856700Y-287777800D03*
X550396700Y-287777800D03*
X552936700Y-287777800D03*
X555476700Y-287777800D03*
X555476700Y-579444400D03*
X552936700Y-579444400D03*
X550396700Y-579444400D03*
X547856700Y-579444400D03*
X555476700Y-607222200D03*
X552936700Y-607222200D03*
X550396700Y-607222200D03*
X547856700Y-607222200D03*
X561745600Y-51666600D03*
X564285600Y-51666600D03*
X566825600Y-51666600D03*
X569365600Y-51666600D03*
X561745600Y-37777800D03*
X564285600Y-37777800D03*
X566825600Y-37777800D03*
X569365600Y-37777800D03*
X569365600Y-301666700D03*
X566825600Y-301666700D03*
X564285600Y-301666700D03*
X561745600Y-301666700D03*
X569365600Y-343333300D03*
X566825600Y-343333300D03*
X564285600Y-343333300D03*
X561745600Y-343333300D03*
X561745600Y-607222200D03*
X564285600Y-607222200D03*
X566825600Y-607222200D03*
X569365600Y-607222200D03*
X561745600Y-537777800D03*
X564285600Y-537777800D03*
X566825600Y-537777800D03*
X569365600Y-537777800D03*
X583254400Y-121111100D03*
X580714400Y-121111100D03*
X578174400Y-121111100D03*
X575634400Y-121111100D03*
X583254400Y-148888900D03*
X580714400Y-148888900D03*
X578174400Y-148888900D03*
X575634400Y-148888900D03*
X575634400Y-343333300D03*
X578174400Y-343333300D03*
X580714400Y-343333300D03*
X583254400Y-343333300D03*
X575634400Y-301666700D03*
X578174400Y-301666700D03*
X580714400Y-301666700D03*
X583254400Y-301666700D03*
X583254400Y-468333400D03*
X580714400Y-468333400D03*
X578174400Y-468333400D03*
X575634400Y-468333400D03*
X583254400Y-607222200D03*
X580714400Y-607222200D03*
X578174400Y-607222200D03*
X575634400Y-607222200D03*
X589523300Y-232222200D03*
X592063300Y-232222200D03*
X594603300Y-232222200D03*
X597143300Y-232222200D03*
X589523300Y-107222200D03*
X592063300Y-107222200D03*
X594603300Y-107222200D03*
X597143300Y-107222200D03*
X597143300Y-287777800D03*
X594603300Y-287777800D03*
X592063300Y-287777800D03*
X589523300Y-287777800D03*
X597143300Y-329444400D03*
X594603300Y-329444400D03*
X592063300Y-329444400D03*
X589523300Y-329444400D03*
X589523300Y-607222200D03*
X592063300Y-607222200D03*
X594603300Y-607222200D03*
X597143300Y-607222200D03*
X589523300Y-440555600D03*
X592063300Y-440555600D03*
X594603300Y-440555600D03*
X597143300Y-440555600D03*
X603412200Y-329444400D03*
X605952200Y-329444400D03*
X608492200Y-329444400D03*
X611032200Y-329444400D03*
X603412200Y-107222200D03*
X605952200Y-107222200D03*
X608492200Y-107222200D03*
X611032200Y-107222200D03*
X611032200Y-440555500D03*
X608492200Y-440555500D03*
X605952200Y-440555500D03*
X603412200Y-440555500D03*
X611032200Y-551666700D03*
X608492200Y-551666700D03*
X605952200Y-551666700D03*
X603412200Y-551666700D03*
X624921100Y-135000000D03*
X622381100Y-135000000D03*
X619841100Y-135000000D03*
X617301100Y-135000000D03*
X624921100Y-315555600D03*
X622381100Y-315555600D03*
X619841100Y-315555600D03*
X617301100Y-315555600D03*
X617301100Y-510000000D03*
X619841100Y-510000000D03*
X622381100Y-510000000D03*
X624921100Y-510000000D03*
X617301100Y-468333400D03*
X619841100Y-468333400D03*
X622381100Y-468333400D03*
X624921100Y-468333400D03*
X631190000Y-287777800D03*
X633730000Y-287777800D03*
X636270000Y-287777800D03*
X638810000Y-287777800D03*
X631190000Y-204444400D03*
X633730000Y-204444400D03*
X636270000Y-204444400D03*
X638810000Y-204444400D03*
X638810000Y-454444500D03*
X636270000Y-454444500D03*
X633730000Y-454444500D03*
X631190000Y-454444500D03*
X638810000Y-496111100D03*
X636270000Y-496111100D03*
X633730000Y-496111100D03*
X631190000Y-496111100D03*
X652698900Y-176666600D03*
X650158900Y-176666600D03*
X647618900Y-176666600D03*
X645078900Y-176666600D03*
X652698900Y-260000000D03*
X650158900Y-260000000D03*
X647618900Y-260000000D03*
X645078900Y-260000000D03*
X645078900Y-482222200D03*
X647618900Y-482222200D03*
X650158900Y-482222200D03*
X652698900Y-482222200D03*
X645078900Y-440555600D03*
X647618900Y-440555600D03*
X650158900Y-440555600D03*
X652698900Y-440555600D03*
X645078900Y-607222200D03*
X647618900Y-607222200D03*
X650158900Y-607222200D03*
X652698900Y-607222200D03*
X645078900Y-579444400D03*
X647618900Y-579444400D03*
X650158900Y-579444400D03*
X652698900Y-579444400D03*
X658967800Y-232222300D03*
X661507800Y-232222300D03*
X664047800Y-232222300D03*
X666587800Y-232222300D03*
X658967800Y-148888900D03*
X661507800Y-148888900D03*
X664047800Y-148888900D03*
X666587800Y-148888900D03*
X666587800Y-440555600D03*
X664047800Y-440555600D03*
X661507800Y-440555600D03*
X658967800Y-440555600D03*
X666587800Y-482222200D03*
X664047800Y-482222200D03*
X661507800Y-482222200D03*
X658967800Y-482222200D03*
X666587800Y-523888900D03*
X664047800Y-523888900D03*
X661507800Y-523888900D03*
X658967800Y-523888900D03*
X666587800Y-607222300D03*
X664047800Y-607222300D03*
X661507800Y-607222300D03*
X658967800Y-607222300D03*
X680476700Y-121111100D03*
X677936700Y-121111100D03*
X675396700Y-121111100D03*
X672856700Y-121111100D03*
X680476700Y-218333300D03*
X677936700Y-218333300D03*
X675396700Y-218333300D03*
X672856700Y-218333300D03*
X672856700Y-607222200D03*
X675396700Y-607222200D03*
X677936700Y-607222200D03*
X680476700Y-607222200D03*
X672856700Y-440555600D03*
X675396700Y-440555600D03*
X677936700Y-440555600D03*
X680476700Y-440555600D03*
X686745600Y-190555600D03*
X689285600Y-190555600D03*
X691825600Y-190555600D03*
X694365600Y-190555600D03*
X686745600Y-107222200D03*
X689285600Y-107222200D03*
X691825600Y-107222200D03*
X694365600Y-107222200D03*
X694365600Y-440555500D03*
X691825600Y-440555500D03*
X689285600Y-440555500D03*
X686745600Y-440555500D03*
X694365600Y-593333300D03*
X691825600Y-593333300D03*
X689285600Y-593333300D03*
X686745600Y-593333300D03*
X708254400Y-107222200D03*
X705714400Y-107222200D03*
X703174400Y-107222200D03*
X700634400Y-107222200D03*
X708254400Y-162777800D03*
X705714400Y-162777800D03*
X703174400Y-162777800D03*
X700634400Y-162777800D03*
X700634400Y-537777800D03*
X703174400Y-537777800D03*
X705714400Y-537777800D03*
X708254400Y-537777800D03*
X700634400Y-454444400D03*
X703174400Y-454444400D03*
X705714400Y-454444400D03*
X708254400Y-454444400D03*
X714523300Y-135000000D03*
X717063300Y-135000000D03*
X719603300Y-135000000D03*
X722143300Y-135000000D03*
X714523300Y-107222200D03*
X717063300Y-107222200D03*
X719603300Y-107222200D03*
X722143300Y-107222200D03*
X722143300Y-468333300D03*
X719603300Y-468333300D03*
X717063300Y-468333300D03*
X714523300Y-468333300D03*
X722143300Y-496111100D03*
X719603300Y-496111100D03*
X717063300Y-496111100D03*
X714523300Y-496111100D03*
X728412200Y-496111100D03*
X730952200Y-496111100D03*
X733492200Y-496111100D03*
X736032200Y-496111100D03*
X728412200Y-454444500D03*
X730952200Y-454444500D03*
X733492200Y-454444500D03*
X736032200Y-454444500D03*
X728412200Y-607222200D03*
X730952200Y-607222200D03*
X733492200Y-607222200D03*
X736032200Y-607222200D03*
X728412200Y-593333400D03*
X730952200Y-593333400D03*
X733492200Y-593333400D03*
X736032200Y-593333400D03*
X749921100Y-440555600D03*
X747381100Y-440555600D03*
X744841100Y-440555600D03*
X742301100Y-440555600D03*
X749921100Y-482222200D03*
X747381100Y-482222200D03*
X744841100Y-482222200D03*
X742301100Y-482222200D03*
X749921100Y-565555600D03*
X747381100Y-565555600D03*
X744841100Y-565555600D03*
X742301100Y-565555600D03*
X749921100Y-607222200D03*
X747381100Y-607222200D03*
X744841100Y-607222200D03*
X742301100Y-607222200D03*
X756190000Y-607222200D03*
X758730000Y-607222200D03*
X761270000Y-607222200D03*
X763810000Y-607222200D03*
X756190000Y-440555600D03*
X758730000Y-440555600D03*
X761270000Y-440555600D03*
X763810000Y-440555600D03*
X777698900Y-440555600D03*
X775158900Y-440555600D03*
X772618900Y-440555600D03*
X770078900Y-440555600D03*
X777698900Y-607222200D03*
X775158900Y-607222200D03*
X772618900Y-607222200D03*
X770078900Y-607222200D03*
X783967800Y-579444400D03*
X786507800Y-579444400D03*
X789047800Y-579444400D03*
X791587800Y-579444400D03*
X783967800Y-454444400D03*
X786507800Y-454444400D03*
X789047800Y-454444400D03*
X791587800Y-454444400D03*
X805476700Y-468333300D03*
X802936700Y-468333300D03*
X800396700Y-468333300D03*
X797856700Y-468333300D03*
X805476700Y-523888900D03*
X802936700Y-523888900D03*
X800396700Y-523888900D03*
X797856700Y-523888900D03*
D12*
X794512000Y-503682000D03*
D13*
X794512000Y-509714000D03*
D12*
X600202000Y-142494000D03*
D13*
X600202000Y-148526000D03*
D12*
X530352000Y-403098000D03*
D13*
X530352000Y-397066000D03*
D12*
X517144000Y-452882000D03*
D13*
X517144000Y-458914000D03*
D12*
X558546000Y-584454000D03*
D13*
X558546000Y-590486000D03*
D12*
X544576000Y-308610000D03*
D13*
X544576000Y-314642000D03*
D12*
X516890000Y-389382000D03*
D13*
X516890000Y-395414000D03*
D12*
X433070000Y-402590000D03*
D13*
X433070000Y-396558000D03*
D12*
X419608000Y-452120000D03*
D13*
X419608000Y-458152000D03*
D12*
X461264000Y-584708000D03*
D13*
X461264000Y-590740000D03*
D12*
X419862000Y-389636000D03*
D13*
X419862000Y-395668000D03*
D12*
X308610000Y-643128000D03*
D13*
X308610000Y-649160000D03*
D12*
X183642000Y-379222000D03*
D13*
X183642000Y-385254000D03*
D12*
X239268000Y-403098000D03*
D13*
X239268000Y-409130000D03*
D12*
X433578000Y-173228000D03*
D13*
X433578000Y-179260000D03*
D12*
X405892000Y-183896000D03*
D13*
X405892000Y-189928000D03*
D12*
X252984000Y-175006000D03*
D13*
X252984000Y-181038000D03*
D12*
X225298000Y-186182000D03*
D13*
X225298000Y-192214000D03*
D12*
X114046000Y-184912000D03*
D13*
X114046000Y-190944000D03*
D12*
X58674000Y-171450000D03*
D13*
X58674000Y-177482000D03*
D14*
X475234000Y-587248000D03*
D15*
X475234000Y-593280000D03*
D14*
X211328000Y-432562000D03*
D15*
X211328000Y-438594000D03*
D14*
X572516000Y-584200000D03*
D15*
X572516000Y-590232000D03*
D14*
X405892000Y-197358000D03*
D15*
X405892000Y-203390000D03*
D14*
X58674000Y-181102000D03*
D15*
X58674000Y-187134000D03*
D14*
X225298000Y-200406000D03*
D15*
X225298000Y-206438000D03*
D14*
X530860000Y-383794000D03*
D15*
X530860000Y-389826000D03*
D14*
X433578000Y-383032000D03*
D15*
X433578000Y-389064000D03*
D14*
X558546000Y-316230000D03*
D15*
X558546000Y-322262000D03*
D14*
X322580000Y-650748000D03*
D15*
X322580000Y-656780000D03*
D16*
X366163305Y-51203306D03*
X378714000Y-41656000D03*
X363220000Y-68580000D03*
X388810000Y-43116000D03*
X367301100Y-68343100D03*
X387604000Y-46990000D03*
X558546000Y-39370000D03*
X548132000Y-49022000D03*
X569214000Y-43434000D03*
X542798000Y-65532000D03*
X568198000Y-46990000D03*
X547878000Y-63500000D03*
X753110000Y-603250000D03*
X728472000Y-599440000D03*
X260137970Y-454364030D03*
X282194000Y-434340000D03*
X290576000Y-440182000D03*
X267208000Y-458216000D03*
D17*
X550672000Y-593852000D02*
X568896000Y-593852000D01*
X568896000Y-593852000D02*
X572516000Y-590232000D01*
X547856700Y-579444400D02*
X547856700Y-591036700D01*
X547856700Y-591036700D02*
X550672000Y-593852000D01*
X450634400Y-579444400D02*
X450634400Y-583958402D01*
X450634400Y-583958402D02*
X461455997Y-594779999D01*
X461455997Y-594779999D02*
X473734001Y-594779999D01*
X473734001Y-594779999D02*
X475234000Y-593280000D01*
X297856700Y-621111100D02*
X297856700Y-642254702D01*
X297856700Y-642254702D02*
X309479659Y-653877661D01*
X309479659Y-653877661D02*
X319677661Y-653877661D01*
X319677661Y-653877661D02*
X321080001Y-655280001D01*
X321080001Y-655280001D02*
X322580000Y-656780000D01*
X216408000Y-426720000D02*
X216408000Y-433514000D01*
X216408000Y-433514000D02*
X211328000Y-438594000D01*
X228158200Y-414969800D02*
X216408000Y-426720000D01*
X228412200Y-414969800D02*
X228158200Y-414969800D01*
X228412200Y-398888900D02*
X228412200Y-414969800D01*
X408967800Y-385000000D02*
X408967800Y-388500000D01*
X408967800Y-388500000D02*
X418735801Y-398268001D01*
X418735801Y-398268001D02*
X424373999Y-398268001D01*
X424373999Y-398268001D02*
X432078001Y-390563999D01*
X432078001Y-390563999D02*
X433578000Y-389064000D01*
X506190000Y-385000000D02*
X506190000Y-388500000D01*
X515704001Y-398014001D02*
X522671999Y-398014001D01*
X506190000Y-388500000D02*
X515704001Y-398014001D01*
X522671999Y-398014001D02*
X529360001Y-391325999D01*
X529360001Y-391325999D02*
X530860000Y-389826000D01*
X558546000Y-322262000D02*
X556051961Y-319767961D01*
X556051961Y-319767961D02*
X536467271Y-319767960D01*
X535667960Y-319767960D02*
X533967800Y-318067800D01*
X536467271Y-319767960D02*
X535667960Y-319767960D01*
X533967800Y-318067800D02*
X533967800Y-287777800D01*
X405892000Y-203390000D02*
X395078900Y-192576900D01*
X395078900Y-192576900D02*
X395078900Y-176666700D01*
X214523300Y-176666700D02*
X214523300Y-195663300D01*
X214523300Y-195663300D02*
X225298000Y-206438000D01*
X58674000Y-187134000D02*
X56552680Y-187134000D01*
X56552680Y-187134000D02*
X47856700Y-178438020D01*
X47856700Y-178438020D02*
X47856700Y-166277700D01*
X47856700Y-166277700D02*
X47856700Y-162777700D01*
X555476700Y-579444400D02*
X571260400Y-579444400D01*
X572516000Y-580700000D02*
X572516000Y-584200000D01*
X571260400Y-579444400D02*
X572516000Y-580700000D01*
X458254400Y-579444400D02*
X470930400Y-579444400D01*
X475234000Y-583748000D02*
X475234000Y-587248000D01*
X470930400Y-579444400D02*
X475234000Y-583748000D01*
X305476700Y-621111100D02*
X305476700Y-635114698D01*
X305476700Y-635114698D02*
X321110002Y-650748000D01*
X321110002Y-650748000D02*
X322580000Y-650748000D01*
X204978000Y-442214000D02*
X204978000Y-435412000D01*
X204978000Y-435412000D02*
X207828000Y-432562000D01*
X207828000Y-432562000D02*
X211328000Y-432562000D01*
X206248000Y-443484000D02*
X204978000Y-442214000D01*
X215392000Y-443484000D02*
X206248000Y-443484000D01*
X219964000Y-438912000D02*
X215392000Y-443484000D01*
X219964000Y-427937931D02*
X219964000Y-438912000D01*
X236032200Y-398888900D02*
X239938902Y-398888900D01*
X239938902Y-398888900D02*
X241868001Y-400817999D01*
X241868001Y-400817999D02*
X241868001Y-410378001D01*
X241868001Y-410378001D02*
X235958041Y-416287961D01*
X235958041Y-416287961D02*
X231613970Y-416287961D01*
X231613970Y-416287961D02*
X219964000Y-427937931D01*
X416587800Y-385000000D02*
X431610000Y-385000000D01*
X431610000Y-385000000D02*
X433578000Y-383032000D01*
X513810000Y-385000000D02*
X529654000Y-385000000D01*
X529654000Y-385000000D02*
X530860000Y-383794000D01*
X558546000Y-315976000D02*
X541587800Y-299017800D01*
X541587800Y-299017800D02*
X541587800Y-287777800D01*
X558546000Y-316230000D02*
X558546000Y-315976000D01*
X412496000Y-181102000D02*
X408060700Y-176666700D01*
X408060700Y-176666700D02*
X402698900Y-176666700D01*
X412496000Y-194254000D02*
X412496000Y-181102000D01*
X405892000Y-197358000D02*
X409392000Y-197358000D01*
X409392000Y-197358000D02*
X412496000Y-194254000D01*
X231140000Y-182372000D02*
X225434700Y-176666700D01*
X225434700Y-176666700D02*
X222143300Y-176666700D01*
X231140000Y-194056000D02*
X231140000Y-182372000D01*
X225298000Y-199898000D02*
X231140000Y-194056000D01*
X225298000Y-200406000D02*
X225298000Y-199898000D01*
X64516000Y-169055000D02*
X64516000Y-178760000D01*
X64516000Y-178760000D02*
X62174000Y-181102000D01*
X62174000Y-181102000D02*
X58674000Y-181102000D01*
X55476700Y-162777700D02*
X58238700Y-162777700D01*
X58238700Y-162777700D02*
X64516000Y-169055000D01*
D18*
X58674000Y-171450000D02*
X56674000Y-171450000D01*
X56674000Y-171450000D02*
X52936700Y-167712700D01*
X52936700Y-167712700D02*
X52936700Y-165277700D01*
X52936700Y-165277700D02*
X52936700Y-162777700D01*
X50396700Y-162777700D02*
X50396700Y-169204700D01*
X50396700Y-169204700D02*
X58674000Y-177482000D01*
X108492200Y-176666700D02*
X108492200Y-181358200D01*
X108492200Y-181358200D02*
X112046000Y-184912000D01*
X112046000Y-184912000D02*
X114046000Y-184912000D01*
X105952200Y-176666700D02*
X105952200Y-182850200D01*
X105952200Y-182850200D02*
X114046000Y-190944000D01*
D17*
X59690000Y-243840000D02*
X61745600Y-245895600D01*
X61745600Y-245895600D02*
X61745600Y-260000000D01*
X57150000Y-243840000D02*
X59690000Y-243840000D01*
X55476700Y-245513300D02*
X57150000Y-243840000D01*
X55476700Y-246111100D02*
X55476700Y-245513300D01*
D18*
X64285600Y-257500000D02*
X64285600Y-260000000D01*
X61290011Y-241630011D02*
X64285600Y-244625600D01*
X64285600Y-244625600D02*
X64285600Y-257500000D01*
X52936700Y-243611100D02*
X54917789Y-241630011D01*
X52936700Y-246111100D02*
X52936700Y-243611100D01*
X54917789Y-241630011D02*
X61290011Y-241630011D01*
X62230000Y-240030000D02*
X66825600Y-244625600D01*
X66825600Y-244625600D02*
X66825600Y-260000000D01*
X53977800Y-240030000D02*
X62230000Y-240030000D01*
X50396700Y-246111100D02*
X50396700Y-243611100D01*
X50396700Y-243611100D02*
X53977800Y-240030000D01*
D17*
X63500000Y-237490000D02*
X69365600Y-243355600D01*
X69365600Y-243355600D02*
X69365600Y-260000000D01*
X52977800Y-237490000D02*
X63500000Y-237490000D01*
X47856700Y-246111100D02*
X47856700Y-242611100D01*
X47856700Y-242611100D02*
X52977800Y-237490000D01*
X83254400Y-121111100D02*
X83254400Y-149738079D01*
X83254400Y-149738079D02*
X76062451Y-156930028D01*
X76062451Y-156930028D02*
X66286828Y-156930028D01*
X66286828Y-156930028D02*
X61745600Y-152388800D01*
X61745600Y-152388800D02*
X61745600Y-148888800D01*
D18*
X75192598Y-154830019D02*
X67726819Y-154830019D01*
X67726819Y-154830019D02*
X64285600Y-151388800D01*
X64285600Y-151388800D02*
X64285600Y-148888800D01*
X80714400Y-121111100D02*
X80714400Y-149308217D01*
X80714400Y-149308217D02*
X75192598Y-154830019D01*
X78174400Y-121111100D02*
X78174400Y-149585462D01*
X78174400Y-149585462D02*
X74529853Y-153230009D01*
X74529853Y-153230009D02*
X68666809Y-153230009D01*
X68666809Y-153230009D02*
X66825600Y-151388800D01*
X66825600Y-151388800D02*
X66825600Y-148888800D01*
D17*
X69365600Y-148888800D02*
X69365600Y-150427186D01*
X69365600Y-150427186D02*
X70068414Y-151130000D01*
X70068414Y-151130000D02*
X73660000Y-151130000D01*
X73660000Y-151130000D02*
X75634400Y-149155600D01*
X75634400Y-149155600D02*
X75634400Y-121111100D01*
X83254400Y-273888900D02*
X83254400Y-273615600D01*
X83254400Y-273615600D02*
X83820000Y-273050000D01*
X83820000Y-273050000D02*
X88684400Y-273050000D01*
X88684400Y-273050000D02*
X89523300Y-273888900D01*
D18*
X80714400Y-273888900D02*
X80714400Y-271388900D01*
X80714400Y-271388900D02*
X81153310Y-270949990D01*
X81153310Y-270949990D02*
X91624390Y-270949990D01*
X91624390Y-270949990D02*
X92063300Y-271388900D01*
X92063300Y-271388900D02*
X92063300Y-273888900D01*
X78174400Y-273888900D02*
X78174400Y-271666145D01*
X78174400Y-271666145D02*
X80490565Y-269349980D01*
X80490565Y-269349980D02*
X92564380Y-269349980D01*
X92564380Y-269349980D02*
X94603300Y-271388900D01*
X94603300Y-271388900D02*
X94603300Y-273888900D01*
D17*
X75634400Y-273888900D02*
X75634400Y-271236283D01*
X96965310Y-270210910D02*
X96965310Y-273710910D01*
X75634400Y-271236283D02*
X79620712Y-267249971D01*
X79620712Y-267249971D02*
X94004371Y-267249971D01*
X94004371Y-267249971D02*
X96965310Y-270210910D01*
X96965310Y-273710910D02*
X97143300Y-273888900D01*
X89523300Y-204444500D02*
X89523300Y-194933300D01*
X87630000Y-193040000D02*
X83820000Y-193040000D01*
X89523300Y-194933300D02*
X87630000Y-193040000D01*
X79570010Y-197289990D02*
X79570010Y-252290010D01*
X83820000Y-193040000D02*
X79570010Y-197289990D01*
X79570010Y-252290010D02*
X85090000Y-257810000D01*
X147210020Y-251569980D02*
X161657780Y-251569980D01*
X85090000Y-257810000D02*
X140970000Y-257810000D01*
X140970000Y-257810000D02*
X147210020Y-251569980D01*
X161657780Y-251569980D02*
X166587800Y-256500000D01*
X166587800Y-256500000D02*
X166587800Y-260000000D01*
D18*
X164047800Y-260000000D02*
X164047800Y-257500000D01*
X77470000Y-253847384D02*
X77470000Y-196420138D01*
X164047800Y-257500000D02*
X160217790Y-253669990D01*
X160217790Y-253669990D02*
X151307393Y-253669990D01*
X151307393Y-253669990D02*
X144627383Y-260350000D01*
X83972616Y-260350000D02*
X77470000Y-253847384D01*
X144627383Y-260350000D02*
X83972616Y-260350000D01*
X77470000Y-196420138D02*
X83390138Y-190500000D01*
X83390138Y-190500000D02*
X88900000Y-190500000D01*
X88900000Y-190500000D02*
X92063300Y-193663300D01*
X92063300Y-193663300D02*
X92063300Y-204444500D01*
X83820000Y-188790010D02*
X82149852Y-188790010D01*
X82149852Y-188790010D02*
X75760010Y-195179852D01*
X75760010Y-254400148D02*
X83419852Y-262059990D01*
X75760010Y-195179852D02*
X75760010Y-254400148D01*
X151970138Y-255270000D02*
X159277800Y-255270000D01*
X83419852Y-262059990D02*
X145180148Y-262059990D01*
X145180148Y-262059990D02*
X151970138Y-255270000D01*
X159277800Y-255270000D02*
X161507800Y-257500000D01*
X161507800Y-257500000D02*
X161507800Y-260000000D01*
X82989990Y-188790010D02*
X83820000Y-188790010D01*
X83820000Y-188790010D02*
X91000010Y-188790010D01*
X94603300Y-192393300D02*
X94603300Y-201944500D01*
X91000010Y-188790010D02*
X94603300Y-192393300D01*
X94603300Y-201944500D02*
X94603300Y-204444500D01*
D17*
X158967800Y-260000000D02*
X158967800Y-259297800D01*
X158967800Y-259297800D02*
X157480000Y-257810000D01*
X146050000Y-264160000D02*
X82550000Y-264160000D01*
X157480000Y-257810000D02*
X152400000Y-257810000D01*
X152400000Y-257810000D02*
X146050000Y-264160000D01*
X97143300Y-191123300D02*
X97143300Y-204444500D01*
X82550000Y-264160000D02*
X73660000Y-255270000D01*
X73660000Y-255270000D02*
X73660000Y-194310000D01*
X73660000Y-194310000D02*
X81280000Y-186690000D01*
X81280000Y-186690000D02*
X92710000Y-186690000D01*
X92710000Y-186690000D02*
X97143300Y-191123300D01*
X158967800Y-260000000D02*
X158967800Y-260738000D01*
X89523300Y-121111100D02*
X89523300Y-124611100D01*
X111032200Y-110722300D02*
X111032200Y-107222300D01*
X89523300Y-124611100D02*
X95172227Y-130260027D01*
X104002452Y-130260026D02*
X111032200Y-123230278D01*
X95172227Y-130260027D02*
X104002452Y-130260026D01*
X111032200Y-123230278D02*
X111032200Y-110722300D01*
D18*
X92063300Y-121111100D02*
X92063300Y-123611100D01*
X92063300Y-123611100D02*
X96612217Y-128160017D01*
X96612217Y-128160017D02*
X103132599Y-128160017D01*
X103132599Y-128160017D02*
X108492200Y-122800416D01*
X108492200Y-122800416D02*
X108492200Y-109722300D01*
X108492200Y-109722300D02*
X108492200Y-107222300D01*
X94603300Y-121111100D02*
X94603300Y-123611100D01*
X94603300Y-123611100D02*
X97552210Y-126560010D01*
X97552210Y-126560010D02*
X102469853Y-126560009D01*
X102469853Y-126560009D02*
X105952200Y-123077662D01*
X105952200Y-123077662D02*
X105952200Y-109722300D01*
X105952200Y-109722300D02*
X105952200Y-107222300D01*
D17*
X101600000Y-124460000D02*
X103412200Y-122647800D01*
X103412200Y-122647800D02*
X103412200Y-107222300D01*
X98953814Y-124460000D02*
X101600000Y-124460000D01*
X97143300Y-121111100D02*
X97143300Y-122649486D01*
X97143300Y-122649486D02*
X98953814Y-124460000D01*
X89523300Y-232222300D02*
X89523300Y-235722300D01*
X89523300Y-235722300D02*
X94478028Y-240677028D01*
X94478028Y-240677028D02*
X106077472Y-240677028D01*
X106077472Y-240677028D02*
X111032200Y-235722300D01*
X111032200Y-235722300D02*
X111032200Y-232222300D01*
D18*
X92063300Y-232222300D02*
X92063300Y-234722300D01*
X92063300Y-234722300D02*
X95918019Y-238577019D01*
X95918019Y-238577019D02*
X104637481Y-238577019D01*
X104637481Y-238577019D02*
X108492200Y-234722300D01*
X108492200Y-234722300D02*
X108492200Y-232222300D01*
X105952200Y-234722300D02*
X105952200Y-232222300D01*
X94603300Y-232222300D02*
X94603300Y-234722300D01*
X94603300Y-234722300D02*
X96858009Y-236977009D01*
X96858009Y-236977009D02*
X103697491Y-236977009D01*
X103697491Y-236977009D02*
X105952200Y-234722300D01*
D17*
X99060000Y-234877000D02*
X102651866Y-234877000D01*
X102651866Y-234877000D02*
X103412200Y-234116666D01*
X103412200Y-234116666D02*
X103412200Y-232222300D01*
X97143300Y-232222300D02*
X97143300Y-232960300D01*
X97143300Y-232960300D02*
X99060000Y-234877000D01*
X113930200Y-144780000D02*
X117301100Y-148150900D01*
X117301100Y-148150900D02*
X117301100Y-148888900D01*
X113602714Y-144780000D02*
X113930200Y-144780000D01*
X111032200Y-148888900D02*
X111032200Y-147350514D01*
X111032200Y-147350514D02*
X113602714Y-144780000D01*
D18*
X108492200Y-148888900D02*
X108492200Y-146388900D01*
X108492200Y-146388900D02*
X112201109Y-142679991D01*
X112201109Y-142679991D02*
X116132191Y-142679991D01*
X116132191Y-142679991D02*
X119841100Y-146388900D01*
X119841100Y-146388900D02*
X119841100Y-148888900D01*
X105952200Y-148888900D02*
X105952200Y-146388900D01*
X105952200Y-146388900D02*
X111261119Y-141079981D01*
X111261119Y-141079981D02*
X117072181Y-141079981D01*
X117072181Y-141079981D02*
X122381100Y-146388900D01*
X122381100Y-146388900D02*
X122381100Y-148888900D01*
D17*
X103412200Y-148888900D02*
X103412200Y-145388900D01*
X103412200Y-145388900D02*
X109821128Y-138979972D01*
X118512172Y-138979972D02*
X124921100Y-145388900D01*
X109821128Y-138979972D02*
X118512172Y-138979972D01*
X124921100Y-145388900D02*
X124921100Y-148888900D01*
X103412200Y-204444500D02*
X103412200Y-200944500D01*
X103412200Y-200944500D02*
X108226729Y-196129971D01*
X108226729Y-196129971D02*
X120106571Y-196129971D01*
X120106571Y-196129971D02*
X124921100Y-200944500D01*
X124921100Y-200944500D02*
X124921100Y-204444500D01*
D18*
X105952200Y-204444500D02*
X105952200Y-201944500D01*
X105952200Y-201944500D02*
X109666720Y-198229980D01*
X109666720Y-198229980D02*
X118666580Y-198229980D01*
X118666580Y-198229980D02*
X122381100Y-201944500D01*
X122381100Y-201944500D02*
X122381100Y-204444500D01*
X108492200Y-204444500D02*
X108492200Y-201944500D01*
X108492200Y-201944500D02*
X110606710Y-199829990D01*
X110606710Y-199829990D02*
X117726590Y-199829990D01*
X117726590Y-199829990D02*
X119841100Y-201944500D01*
X119841100Y-201944500D02*
X119841100Y-204444500D01*
D17*
X115570000Y-201930000D02*
X115570000Y-202713400D01*
X115570000Y-202713400D02*
X117301100Y-204444500D01*
X113030000Y-201930000D02*
X115570000Y-201930000D01*
X111032200Y-203927800D02*
X113030000Y-201930000D01*
X111032200Y-204444500D02*
X111032200Y-203927800D01*
X111032200Y-273888900D02*
X111032200Y-273777800D01*
X111032200Y-273777800D02*
X111760000Y-273050000D01*
X111760000Y-273050000D02*
X116462200Y-273050000D01*
X116462200Y-273050000D02*
X117301100Y-273888900D01*
D18*
X108492200Y-273888900D02*
X108492200Y-273057621D01*
X108492200Y-273057621D02*
X110599831Y-270949990D01*
X110599831Y-270949990D02*
X119402190Y-270949990D01*
X119402190Y-270949990D02*
X119841100Y-271388900D01*
X119841100Y-271388900D02*
X119841100Y-273888900D01*
X105952200Y-273888900D02*
X105952200Y-271388900D01*
X105952200Y-271388900D02*
X107991120Y-269349980D01*
X107991120Y-269349980D02*
X120342180Y-269349980D01*
X120342180Y-269349980D02*
X122381100Y-271388900D01*
X122381100Y-271388900D02*
X122381100Y-273888900D01*
D17*
X103412200Y-273888900D02*
X103412200Y-270388900D01*
X103412200Y-270388900D02*
X106551129Y-267249971D01*
X106551129Y-267249971D02*
X121782171Y-267249971D01*
X121782171Y-267249971D02*
X124921100Y-270388900D01*
X124921100Y-270388900D02*
X124921100Y-273888900D01*
X117301100Y-107222300D02*
X117301100Y-110722300D01*
X117301100Y-110722300D02*
X122868828Y-116290028D01*
X122868828Y-116290028D02*
X133242172Y-116290028D01*
X133242172Y-116290028D02*
X138810000Y-110722200D01*
X138810000Y-110722200D02*
X138810000Y-107222200D01*
D18*
X119841100Y-107222300D02*
X119841100Y-109722300D01*
X119841100Y-109722300D02*
X124308819Y-114190019D01*
X124308819Y-114190019D02*
X131802181Y-114190019D01*
X131802181Y-114190019D02*
X136270000Y-109722200D01*
X136270000Y-109722200D02*
X136270000Y-107222200D01*
X122381100Y-107222300D02*
X122381100Y-108840962D01*
X122381100Y-108840962D02*
X126130147Y-112590009D01*
X126130147Y-112590009D02*
X130862191Y-112590009D01*
X130862191Y-112590009D02*
X133730000Y-109722200D01*
X133730000Y-109722200D02*
X133730000Y-107222200D01*
D17*
X129540000Y-110490000D02*
X131190000Y-108840000D01*
X131190000Y-108840000D02*
X131190000Y-107222200D01*
X127000000Y-110490000D02*
X129540000Y-110490000D01*
X124921100Y-108411100D02*
X127000000Y-110490000D01*
X124921100Y-107222300D02*
X124921100Y-108411100D01*
X129540000Y-179070000D02*
X125730000Y-179070000D01*
X125730000Y-179070000D02*
X124921100Y-178261100D01*
X124921100Y-178261100D02*
X124921100Y-176666700D01*
X131190000Y-177420000D02*
X129540000Y-179070000D01*
X131190000Y-176666700D02*
X131190000Y-177420000D01*
D18*
X133730000Y-176666700D02*
X133730000Y-179166700D01*
X133730000Y-179166700D02*
X131726691Y-181170009D01*
X131726691Y-181170009D02*
X124384409Y-181170009D01*
X124384409Y-181170009D02*
X122381100Y-179166700D01*
X122381100Y-179166700D02*
X122381100Y-176666700D01*
X136270000Y-176666700D02*
X136270000Y-179166700D01*
X132666681Y-182770019D02*
X123721665Y-182770019D01*
X120519090Y-177344690D02*
X119841100Y-176666700D01*
X136270000Y-179166700D02*
X132666681Y-182770019D01*
X120519090Y-179567444D02*
X120519090Y-177344690D01*
X123721665Y-182770019D02*
X120519090Y-179567444D01*
D17*
X138810000Y-176666700D02*
X138810000Y-180166700D01*
X138810000Y-180166700D02*
X134106672Y-184870028D01*
X134106672Y-184870028D02*
X122851812Y-184870028D01*
X122851812Y-184870028D02*
X117479090Y-179497306D01*
X117479090Y-179497306D02*
X117479090Y-176844690D01*
X117479090Y-176844690D02*
X117301100Y-176666700D01*
X117301100Y-246111100D02*
X117301100Y-249381100D01*
X117301100Y-249381100D02*
X121370027Y-253450027D01*
X131942452Y-253450026D02*
X138810000Y-246582478D01*
X121370027Y-253450027D02*
X131942452Y-253450026D01*
X138810000Y-246582478D02*
X138810000Y-235722300D01*
X138810000Y-235722300D02*
X138810000Y-232222300D01*
D18*
X119841100Y-246111100D02*
X119841100Y-248611100D01*
X119841100Y-248611100D02*
X122580017Y-251350017D01*
X122580017Y-251350017D02*
X131072599Y-251350017D01*
X131072599Y-251350017D02*
X136270000Y-246152616D01*
X136270000Y-246152616D02*
X136270000Y-234722300D01*
X136270000Y-234722300D02*
X136270000Y-232222300D01*
X122381100Y-246111100D02*
X122381100Y-248611100D01*
X122381100Y-248611100D02*
X123520010Y-249750010D01*
X133730000Y-246429862D02*
X133730000Y-234722300D01*
X123520010Y-249750010D02*
X130409853Y-249750009D01*
X130409853Y-249750009D02*
X133730000Y-246429862D01*
X133730000Y-234722300D02*
X133730000Y-232222300D01*
D17*
X129540000Y-247650000D02*
X131190000Y-246000000D01*
X131190000Y-246000000D02*
X131190000Y-232222300D01*
X125382200Y-247650000D02*
X129540000Y-247650000D01*
X124921100Y-246111100D02*
X124921100Y-247188900D01*
X124921100Y-247188900D02*
X125382200Y-247650000D01*
X142240000Y-130810000D02*
X145078900Y-133648900D01*
X145078900Y-133648900D02*
X145078900Y-148888900D01*
X139500000Y-130810000D02*
X142240000Y-130810000D01*
X138810000Y-135000000D02*
X138810000Y-131500000D01*
X138810000Y-131500000D02*
X139500000Y-130810000D01*
D18*
X136270000Y-135000000D02*
X136270000Y-131070138D01*
X136270000Y-131070138D02*
X138630148Y-128709990D01*
X147618900Y-133219038D02*
X147618900Y-146388900D01*
X138630148Y-128709990D02*
X143109853Y-128709991D01*
X143109853Y-128709991D02*
X147618900Y-133219038D01*
X147618900Y-146388900D02*
X147618900Y-148888900D01*
X133730000Y-135000000D02*
X133730000Y-131347384D01*
X133730000Y-131347384D02*
X137967404Y-127109981D01*
X137967404Y-127109981D02*
X143772599Y-127109983D01*
X143772599Y-127109983D02*
X150158900Y-133496284D01*
X150158900Y-133496284D02*
X150158900Y-146388900D01*
X150158900Y-146388900D02*
X150158900Y-148888900D01*
D17*
X131190000Y-135000000D02*
X131190000Y-130917523D01*
X131190000Y-130917523D02*
X137097553Y-125009972D01*
X152698900Y-145388900D02*
X152698900Y-148888900D01*
X137097553Y-125009972D02*
X144642452Y-125009974D01*
X144642452Y-125009974D02*
X152698900Y-133066422D01*
X152698900Y-133066422D02*
X152698900Y-145388900D01*
X131190000Y-204444500D02*
X131190000Y-200944500D01*
X131190000Y-200944500D02*
X136004529Y-196129971D01*
X136004529Y-196129971D02*
X147884471Y-196129971D01*
X147884471Y-196129971D02*
X152698900Y-200944400D01*
X152698900Y-200944400D02*
X152698900Y-204444400D01*
D18*
X133730000Y-204444500D02*
X133730000Y-201944500D01*
X133730000Y-201944500D02*
X137444520Y-198229980D01*
X137444520Y-198229980D02*
X146444480Y-198229980D01*
X150158900Y-201944400D02*
X150158900Y-204444400D01*
X146444480Y-198229980D02*
X150158900Y-201944400D01*
X136270000Y-204444500D02*
X136270000Y-201944500D01*
X136270000Y-201944500D02*
X138384510Y-199829990D01*
X138384510Y-199829990D02*
X145504490Y-199829990D01*
X145504490Y-199829990D02*
X147618900Y-201944400D01*
X147618900Y-201944400D02*
X147618900Y-204444400D01*
D17*
X143510000Y-201930000D02*
X143510000Y-202875500D01*
X143510000Y-202875500D02*
X145078900Y-204444400D01*
X140970000Y-201930000D02*
X143510000Y-201930000D01*
X138810000Y-204090000D02*
X140970000Y-201930000D01*
X138810000Y-204444500D02*
X138810000Y-204090000D01*
X138810000Y-273888900D02*
X138861100Y-273888900D01*
X138861100Y-273888900D02*
X139700000Y-273050000D01*
X139700000Y-273050000D02*
X144240000Y-273050000D01*
X144240000Y-273050000D02*
X145078900Y-273888900D01*
D18*
X136270000Y-273888900D02*
X136270000Y-271388900D01*
X136270000Y-271388900D02*
X136708910Y-270949990D01*
X136708910Y-270949990D02*
X147179990Y-270949990D01*
X147179990Y-270949990D02*
X147618900Y-271388900D01*
X147618900Y-271388900D02*
X147618900Y-273888900D01*
X133730000Y-273888900D02*
X133730000Y-271388900D01*
X133730000Y-271388900D02*
X135768920Y-269349980D01*
X135768920Y-269349980D02*
X148699980Y-269349980D01*
X148699980Y-269349980D02*
X150158900Y-270808900D01*
X150158900Y-270808900D02*
X150158900Y-271388900D01*
X150158900Y-271388900D02*
X150158900Y-273888900D01*
D17*
X131190000Y-273888900D02*
X131190000Y-270959038D01*
X134899068Y-267249970D02*
X149569833Y-267249971D01*
X149569833Y-267249971D02*
X152698900Y-270379038D01*
X131190000Y-270959038D02*
X134899068Y-267249970D01*
X152698900Y-270379038D02*
X152698900Y-270388900D01*
X152698900Y-270388900D02*
X152698900Y-273888900D01*
X145078900Y-107222300D02*
X145078900Y-110722300D01*
X145078900Y-110722300D02*
X150646628Y-116290028D01*
X150646628Y-116290028D02*
X161019972Y-116290028D01*
X161019972Y-116290028D02*
X166587800Y-110722200D01*
X166587800Y-110722200D02*
X166587800Y-107222200D01*
D18*
X147618900Y-107222300D02*
X147618900Y-109722300D01*
X147618900Y-109722300D02*
X152086619Y-114190019D01*
X152086619Y-114190019D02*
X159579981Y-114190019D01*
X159579981Y-114190019D02*
X164047800Y-109722200D01*
X164047800Y-109722200D02*
X164047800Y-107222200D01*
X150158900Y-107222300D02*
X150158900Y-109722300D01*
X150158900Y-109722300D02*
X153026609Y-112590009D01*
X153026609Y-112590009D02*
X158639991Y-112590009D01*
X158639991Y-112590009D02*
X161507800Y-109722200D01*
X161507800Y-109722200D02*
X161507800Y-107222200D01*
D17*
X157480000Y-110490000D02*
X158967800Y-109002200D01*
X158967800Y-109002200D02*
X158967800Y-107222200D01*
X155228600Y-110490000D02*
X157480000Y-110490000D01*
X152698900Y-107222300D02*
X152698900Y-107960300D01*
X152698900Y-107960300D02*
X155228600Y-110490000D01*
X190577771Y-155489971D02*
X170900029Y-155489971D01*
X194365600Y-162777800D02*
X194365600Y-159277800D01*
X170900029Y-155489971D02*
X158750000Y-167640000D01*
X152698900Y-163515800D02*
X152698900Y-162777800D01*
X194365600Y-159277800D02*
X190577771Y-155489971D01*
X156823100Y-167640000D02*
X152698900Y-163515800D01*
X158750000Y-167640000D02*
X156823100Y-167640000D01*
D18*
X191825600Y-162777800D02*
X191825600Y-160277800D01*
X189137781Y-157589981D02*
X173880019Y-157589981D01*
X150158900Y-165277800D02*
X150158900Y-162777800D01*
X191825600Y-160277800D02*
X189137781Y-157589981D01*
X150158900Y-167938900D02*
X150158900Y-165277800D01*
X173880019Y-157589981D02*
X160350010Y-171119990D01*
X160350010Y-171119990D02*
X153339990Y-171119990D01*
X153339990Y-171119990D02*
X150158900Y-167938900D01*
X151130000Y-172720000D02*
X147618900Y-169208900D01*
X147618900Y-169208900D02*
X147618900Y-162777800D01*
X163830000Y-172720000D02*
X151130000Y-172720000D01*
X177360009Y-159189991D02*
X163830000Y-172720000D01*
X189285600Y-162777800D02*
X189285600Y-160277800D01*
X189285600Y-160277800D02*
X188197791Y-159189991D01*
X188197791Y-159189991D02*
X177360009Y-159189991D01*
D17*
X149860000Y-176530000D02*
X145078900Y-171748900D01*
X145078900Y-171748900D02*
X145078900Y-166277800D01*
X145078900Y-166277800D02*
X145078900Y-162777800D01*
X163830000Y-176530000D02*
X149860000Y-176530000D01*
X179070000Y-161290000D02*
X163830000Y-176530000D01*
X185420000Y-161290000D02*
X179070000Y-161290000D01*
X186745600Y-162615600D02*
X185420000Y-161290000D01*
X186745600Y-162777800D02*
X186745600Y-162615600D01*
X145078900Y-232222300D02*
X145078900Y-235722300D01*
X145078900Y-235722300D02*
X150106629Y-240750029D01*
X150106629Y-240750029D02*
X161559971Y-240750029D01*
X161559971Y-240750029D02*
X166587800Y-235722200D01*
X166587800Y-235722200D02*
X166587800Y-232222200D01*
D18*
X147618900Y-232222300D02*
X147618900Y-234722300D01*
X147618900Y-234722300D02*
X151546620Y-238650020D01*
X151546620Y-238650020D02*
X160119980Y-238650020D01*
X164047800Y-234722200D02*
X164047800Y-232222200D01*
X160119980Y-238650020D02*
X164047800Y-234722200D01*
X150158900Y-232222300D02*
X150158900Y-234722300D01*
X150158900Y-234722300D02*
X152486610Y-237050010D01*
X152486610Y-237050010D02*
X159179990Y-237050010D01*
X159179990Y-237050010D02*
X161507800Y-234722200D01*
X161507800Y-234722200D02*
X161507800Y-232222200D01*
D17*
X152698900Y-232222300D02*
X152698900Y-233381100D01*
X152698900Y-233381100D02*
X154267800Y-234950000D01*
X154267800Y-234950000D02*
X157480000Y-234950000D01*
X157480000Y-234950000D02*
X158967800Y-233462200D01*
X158967800Y-233462200D02*
X158967800Y-232222200D01*
X169715400Y-186690000D02*
X169729200Y-186690000D01*
X169729200Y-186690000D02*
X172856700Y-189817500D01*
X172856700Y-189817500D02*
X172856700Y-190555500D01*
X166587800Y-190555600D02*
X166587800Y-189817600D01*
X166587800Y-189817600D02*
X169715400Y-186690000D01*
D18*
X164047800Y-190555600D02*
X164047800Y-188055600D01*
X175396700Y-188055500D02*
X175396700Y-190555500D01*
X164047800Y-188055600D02*
X167513410Y-184589990D01*
X171931190Y-184589990D02*
X175396700Y-188055500D01*
X167513410Y-184589990D02*
X171931190Y-184589990D01*
X161507800Y-190555600D02*
X161507800Y-188055600D01*
X161507800Y-188055600D02*
X166573420Y-182989980D01*
X166573420Y-182989980D02*
X172871180Y-182989980D01*
X172871180Y-182989980D02*
X177936700Y-188055500D01*
X177936700Y-188055500D02*
X177936700Y-190555500D01*
D17*
X158967800Y-190555600D02*
X158967800Y-187055600D01*
X158967800Y-187055600D02*
X165133429Y-180889971D01*
X165133429Y-180889971D02*
X174311171Y-180889971D01*
X174311171Y-180889971D02*
X180476700Y-187055500D01*
X180476700Y-187055500D02*
X180476700Y-190555500D01*
X172856700Y-121111100D02*
X172856700Y-136609177D01*
X172856700Y-136609177D02*
X180477549Y-144230026D01*
X180477549Y-144230026D02*
X188635574Y-144230026D01*
X188635574Y-144230026D02*
X194365600Y-138500000D01*
X194365600Y-138500000D02*
X194365600Y-135000000D01*
D18*
X175396700Y-121111100D02*
X175396700Y-136179316D01*
X175396700Y-136179316D02*
X181347402Y-142130017D01*
X181347402Y-142130017D02*
X187195583Y-142130017D01*
X187195583Y-142130017D02*
X191825600Y-137500000D01*
X191825600Y-137500000D02*
X191825600Y-135000000D01*
X177936700Y-121111100D02*
X177936700Y-136456562D01*
X189285600Y-137534262D02*
X189285600Y-137500000D01*
X177936700Y-136456562D02*
X182010148Y-140530010D01*
X182010148Y-140530010D02*
X186289853Y-140530009D01*
X186289853Y-140530009D02*
X189285600Y-137534262D01*
X189285600Y-137500000D02*
X189285600Y-135000000D01*
D17*
X185420000Y-138430000D02*
X186745600Y-137104400D01*
X186745600Y-137104400D02*
X186745600Y-135000000D01*
X182880000Y-138430000D02*
X185420000Y-138430000D01*
X180340000Y-135890000D02*
X182880000Y-138430000D01*
X180340000Y-124747800D02*
X180340000Y-135890000D01*
X180476700Y-121111100D02*
X180476700Y-124611100D01*
X180476700Y-124611100D02*
X180340000Y-124747800D01*
X458254400Y-607222200D02*
X458254400Y-607021600D01*
X458254400Y-607021600D02*
X459994000Y-605282000D01*
X459994000Y-605282000D02*
X462583100Y-605282000D01*
X462583100Y-605282000D02*
X464523300Y-607222200D01*
D18*
X455714400Y-607222200D02*
X455714400Y-604722200D01*
X455714400Y-604722200D02*
X457254610Y-603181990D01*
X457254610Y-603181990D02*
X465523090Y-603181990D01*
X465523090Y-603181990D02*
X467063300Y-604722200D01*
X467063300Y-604722200D02*
X467063300Y-607222200D01*
X469603300Y-607222200D02*
X469603300Y-604999445D01*
X469603300Y-604999445D02*
X466185835Y-601581980D01*
X466185835Y-601581980D02*
X456314620Y-601581980D01*
X456314620Y-601581980D02*
X453174400Y-604722200D01*
X453174400Y-604722200D02*
X453174400Y-607222200D01*
D17*
X450634400Y-607222200D02*
X450634400Y-604292338D01*
X450634400Y-604292338D02*
X455444767Y-599481971D01*
X455444767Y-599481971D02*
X467903071Y-599481971D01*
X467903071Y-599481971D02*
X472143300Y-603722200D01*
X472143300Y-603722200D02*
X472143300Y-607222200D01*
X486032200Y-468333400D02*
X486032200Y-539186279D01*
X469049529Y-545804029D02*
X464523300Y-541277800D01*
X486032200Y-539186279D02*
X479414450Y-545804029D01*
X479414450Y-545804029D02*
X469049529Y-545804029D01*
X464523300Y-541277800D02*
X464523300Y-537777800D01*
D18*
X467063300Y-537777800D02*
X467063300Y-540277800D01*
X467063300Y-540277800D02*
X470489520Y-543704020D01*
X470489520Y-543704020D02*
X478544597Y-543704020D01*
X478544597Y-543704020D02*
X483492200Y-538756417D01*
X483492200Y-538756417D02*
X483492200Y-470833400D01*
X483492200Y-470833400D02*
X483492200Y-468333400D01*
X480952200Y-468333400D02*
X480952200Y-539033662D01*
X480952200Y-539033662D02*
X477881852Y-542104010D01*
X469603300Y-540277800D02*
X469603300Y-537777800D01*
X477881852Y-542104010D02*
X471429510Y-542104010D01*
X471429510Y-542104010D02*
X469603300Y-540277800D01*
D17*
X477012000Y-540004000D02*
X478412200Y-538603800D01*
X478412200Y-538603800D02*
X478412200Y-468333400D01*
X473631500Y-540004000D02*
X477012000Y-540004000D01*
X472143300Y-537777800D02*
X472143300Y-538515800D01*
X472143300Y-538515800D02*
X473631500Y-540004000D01*
X490474000Y-605028000D02*
X492301100Y-606855100D01*
X492301100Y-606855100D02*
X492301100Y-607222200D01*
X487934000Y-605028000D02*
X490474000Y-605028000D01*
X486032200Y-606929800D02*
X487934000Y-605028000D01*
X486032200Y-607222200D02*
X486032200Y-606929800D01*
D18*
X483492200Y-607222200D02*
X483492200Y-604722200D01*
X483492200Y-604722200D02*
X485286410Y-602927990D01*
X485286410Y-602927990D02*
X493046890Y-602927990D01*
X493046890Y-602927990D02*
X494841100Y-604722200D01*
X494841100Y-604722200D02*
X494841100Y-607222200D01*
X497381100Y-607222200D02*
X497381100Y-604722200D01*
X497381100Y-604722200D02*
X493986880Y-601327980D01*
X493986880Y-601327980D02*
X484346420Y-601327980D01*
X484346420Y-601327980D02*
X480952200Y-604722200D01*
X480952200Y-604722200D02*
X480952200Y-607222200D01*
D17*
X478412200Y-607222200D02*
X478412200Y-603722200D01*
X478412200Y-603722200D02*
X482906429Y-599227971D01*
X482906429Y-599227971D02*
X495426871Y-599227971D01*
X495426871Y-599227971D02*
X499921100Y-603722200D01*
X499921100Y-603722200D02*
X499921100Y-607222200D01*
X492301100Y-440555600D02*
X492301100Y-443485462D01*
X492301100Y-443485462D02*
X497337667Y-448522029D01*
X497337667Y-448522029D02*
X509343471Y-448522029D01*
X509343471Y-448522029D02*
X513810000Y-444055500D01*
X513810000Y-444055500D02*
X513810000Y-440555500D01*
D18*
X511270000Y-440555500D02*
X511270000Y-443055500D01*
X511270000Y-443055500D02*
X507903480Y-446422020D01*
X507903480Y-446422020D02*
X498207520Y-446422020D01*
X498207520Y-446422020D02*
X494841100Y-443055600D01*
X494841100Y-443055600D02*
X494841100Y-440555600D01*
X497381100Y-440555600D02*
X497381100Y-442438962D01*
X499764148Y-444822010D02*
X506963490Y-444822010D01*
X497381100Y-442438962D02*
X499764148Y-444822010D01*
X506963490Y-444822010D02*
X508730000Y-443055500D01*
X508730000Y-443055500D02*
X508730000Y-440555500D01*
D17*
X506190000Y-440555500D02*
X506190000Y-441230000D01*
X506190000Y-441230000D02*
X504698000Y-442722000D01*
X504698000Y-442722000D02*
X500634000Y-442722000D01*
X500634000Y-442722000D02*
X499921100Y-442009100D01*
X499921100Y-442009100D02*
X499921100Y-440555600D01*
X514858000Y-480822000D02*
X513810000Y-481870000D01*
X513810000Y-481870000D02*
X513810000Y-551666700D01*
X518922000Y-480822000D02*
X514858000Y-480822000D01*
X520078900Y-481978900D02*
X518922000Y-480822000D01*
X520078900Y-482222200D02*
X520078900Y-481978900D01*
D18*
X511270000Y-551666700D02*
X511270000Y-481440138D01*
X522618900Y-479722200D02*
X522618900Y-482222200D01*
X511270000Y-481440138D02*
X513988148Y-478721990D01*
X513988148Y-478721990D02*
X521618690Y-478721990D01*
X521618690Y-478721990D02*
X522618900Y-479722200D01*
X525158900Y-482222200D02*
X525158900Y-479722200D01*
X525158900Y-479722200D02*
X522558680Y-477121980D01*
X513325403Y-477121980D02*
X508730000Y-481717383D01*
X522558680Y-477121980D02*
X513325403Y-477121980D01*
X508730000Y-481717383D02*
X508730000Y-549166700D01*
X508730000Y-549166700D02*
X508730000Y-551666700D01*
D17*
X506190000Y-551666700D02*
X506190000Y-481287521D01*
X527698900Y-478722200D02*
X527698900Y-482222200D01*
X506190000Y-481287521D02*
X512455550Y-475021971D01*
X512455550Y-475021971D02*
X523998671Y-475021971D01*
X523998671Y-475021971D02*
X527698900Y-478722200D01*
X227076000Y-243586000D02*
X228412200Y-244922200D01*
X228412200Y-244922200D02*
X228412200Y-260000000D01*
X223520000Y-243586000D02*
X227076000Y-243586000D01*
X222143300Y-244962700D02*
X223520000Y-243586000D01*
X222143300Y-246111100D02*
X222143300Y-244962700D01*
D18*
X223090138Y-241046000D02*
X227505862Y-241046000D01*
X227505862Y-241046000D02*
X230952200Y-244492338D01*
X230952200Y-244492338D02*
X230952200Y-257500000D01*
X230952200Y-257500000D02*
X230952200Y-260000000D01*
X219603300Y-246111100D02*
X219603300Y-244532838D01*
X219603300Y-244532838D02*
X223090138Y-241046000D01*
X217063300Y-246111100D02*
X217063300Y-243611100D01*
X217063300Y-243611100D02*
X221228410Y-239445990D01*
X221228410Y-239445990D02*
X228168607Y-239445990D01*
X228168607Y-239445990D02*
X233492200Y-244769583D01*
X233492200Y-244769583D02*
X233492200Y-260000000D01*
D17*
X214523300Y-246111100D02*
X214523300Y-243181238D01*
X214523300Y-243181238D02*
X220358558Y-237345980D01*
X220358558Y-237345980D02*
X229038460Y-237345981D01*
X229038460Y-237345981D02*
X236032200Y-244339721D01*
X236032200Y-244339721D02*
X236032200Y-256500000D01*
X236032200Y-256500000D02*
X236032200Y-260000000D01*
X228412200Y-135000000D02*
X228412200Y-138500000D01*
X228412200Y-138500000D02*
X232618230Y-142706030D01*
X232618230Y-142706030D02*
X242940450Y-142706029D01*
X242940450Y-142706029D02*
X249921100Y-135725379D01*
X249921100Y-135725379D02*
X249921100Y-124611100D01*
X249921100Y-124611100D02*
X249921100Y-121111100D01*
D18*
X247381100Y-121111100D02*
X247381100Y-135295517D01*
X247381100Y-135295517D02*
X242070597Y-140606020D01*
X242070597Y-140606020D02*
X234058220Y-140606020D01*
X234058220Y-140606020D02*
X230952200Y-137500000D01*
X230952200Y-137500000D02*
X230952200Y-135000000D01*
X244841100Y-121111100D02*
X244841100Y-135572762D01*
X244841100Y-135572762D02*
X241407852Y-139006010D01*
X241407852Y-139006010D02*
X234998210Y-139006010D01*
X234998210Y-139006010D02*
X233492200Y-137500000D01*
X233492200Y-137500000D02*
X233492200Y-135000000D01*
D17*
X240538000Y-136906000D02*
X242301100Y-135142900D01*
X242301100Y-135142900D02*
X242301100Y-121111100D01*
X237236000Y-136906000D02*
X240538000Y-136906000D01*
X236032200Y-135702200D02*
X237236000Y-136906000D01*
X236032200Y-135000000D02*
X236032200Y-135702200D01*
X254254000Y-271526000D02*
X256190000Y-273462000D01*
X256190000Y-273462000D02*
X256190000Y-273888900D01*
X251460000Y-271526000D02*
X254254000Y-271526000D01*
X249921100Y-273064900D02*
X251460000Y-271526000D01*
X249921100Y-273888900D02*
X249921100Y-273064900D01*
D18*
X247381100Y-273888900D02*
X247381100Y-272635038D01*
X247381100Y-272635038D02*
X250590148Y-269425990D01*
X250590148Y-269425990D02*
X256767090Y-269425990D01*
X256767090Y-269425990D02*
X258730000Y-271388900D01*
X258730000Y-271388900D02*
X258730000Y-273888900D01*
X261270000Y-273888900D02*
X261270000Y-271666146D01*
X261270000Y-271666146D02*
X257429834Y-267825980D01*
X257429834Y-267825980D02*
X248404020Y-267825980D01*
X248404020Y-267825980D02*
X244841100Y-271388900D01*
X244841100Y-271388900D02*
X244841100Y-273888900D01*
D17*
X242301100Y-273888900D02*
X242301100Y-270959038D01*
X263632010Y-273710910D02*
X263810000Y-273888900D01*
X242301100Y-270959038D02*
X247534168Y-265725970D01*
X247534168Y-265725970D02*
X258299687Y-265725971D01*
X258299687Y-265725971D02*
X263632010Y-271058294D01*
X263632010Y-271058294D02*
X263632010Y-273710910D01*
X266954000Y-120650000D02*
X270078900Y-117525100D01*
X270078900Y-117525100D02*
X270078900Y-107222200D01*
X266954000Y-120729100D02*
X266954000Y-120650000D01*
X263810000Y-121111100D02*
X266572000Y-121111100D01*
X266572000Y-121111100D02*
X266954000Y-120729100D01*
D18*
X272618900Y-107222200D02*
X272618900Y-118034062D01*
X261370010Y-123711110D02*
X261270000Y-123611100D01*
X272618900Y-118034062D02*
X266941852Y-123711110D01*
X266941852Y-123711110D02*
X261370010Y-123711110D01*
X261270000Y-123611100D02*
X261270000Y-121111100D01*
X258730000Y-121111100D02*
X258730000Y-123611100D01*
X258730000Y-123611100D02*
X260430020Y-125311120D01*
X260430020Y-125311120D02*
X267604597Y-125311120D01*
X275158900Y-117756817D02*
X275158900Y-109722200D01*
X267604597Y-125311120D02*
X275158900Y-117756817D01*
X275158900Y-109722200D02*
X275158900Y-107222200D01*
D17*
X277698900Y-107222200D02*
X277698900Y-118186679D01*
X258990029Y-127411129D02*
X256190000Y-124611100D01*
X277698900Y-118186679D02*
X268474450Y-127411129D01*
X268474450Y-127411129D02*
X258990029Y-127411129D01*
X256190000Y-124611100D02*
X256190000Y-121111100D01*
X277698900Y-232222300D02*
X277698900Y-235152162D01*
X277698900Y-235152162D02*
X272863034Y-239988028D01*
X272863034Y-239988028D02*
X260455728Y-239988028D01*
X260455728Y-239988028D02*
X256190000Y-235722300D01*
X256190000Y-235722300D02*
X256190000Y-232222300D01*
D18*
X258730000Y-232222300D02*
X258730000Y-234722300D01*
X258730000Y-234722300D02*
X261895719Y-237888019D01*
X261895719Y-237888019D02*
X271993181Y-237888019D01*
X271993181Y-237888019D02*
X275158900Y-234722300D01*
X275158900Y-234722300D02*
X275158900Y-232222300D01*
X261270000Y-232222300D02*
X261270000Y-234722300D01*
X261270000Y-234722300D02*
X262835709Y-236288009D01*
X262835709Y-236288009D02*
X271053191Y-236288009D01*
X271053191Y-236288009D02*
X272618900Y-234722300D01*
X272618900Y-234722300D02*
X272618900Y-232222300D01*
D17*
X263810000Y-232222300D02*
X263810000Y-233330000D01*
X263810000Y-233330000D02*
X264668000Y-234188000D01*
X264668000Y-234188000D02*
X269748000Y-234188000D01*
X269748000Y-234188000D02*
X270078900Y-233857100D01*
X270078900Y-233857100D02*
X270078900Y-232222300D01*
X270078900Y-162777800D02*
X270078900Y-151740621D01*
X270078900Y-151740621D02*
X279230650Y-142588871D01*
X279230650Y-142588871D02*
X288787771Y-142588871D01*
X291587800Y-145388900D02*
X291587800Y-148888900D01*
X288787771Y-142588871D02*
X291587800Y-145388900D01*
D18*
X289047800Y-148888900D02*
X289047800Y-146388900D01*
X289047800Y-146388900D02*
X287347780Y-144688880D01*
X287347780Y-144688880D02*
X280100503Y-144688880D01*
X280100503Y-144688880D02*
X272618900Y-152170483D01*
X272618900Y-152170483D02*
X272618900Y-160277800D01*
X272618900Y-160277800D02*
X272618900Y-162777800D01*
X275158900Y-162777800D02*
X275158900Y-151893238D01*
X275158900Y-151893238D02*
X280763248Y-146288890D01*
X280763248Y-146288890D02*
X286407790Y-146288890D01*
X286407790Y-146288890D02*
X286507800Y-146388900D01*
X286507800Y-146388900D02*
X286507800Y-148888900D01*
D17*
X280416000Y-149606000D02*
X277698900Y-152323100D01*
X277698900Y-152323100D02*
X277698900Y-162777800D01*
X280488700Y-149606000D02*
X280416000Y-149606000D01*
X283967800Y-148888900D02*
X281205800Y-148888900D01*
X281205800Y-148888900D02*
X280488700Y-149606000D01*
X281432000Y-259842000D02*
X283809800Y-259842000D01*
X283809800Y-259842000D02*
X283967800Y-260000000D01*
X277698900Y-263575100D02*
X281432000Y-259842000D01*
X277698900Y-273888900D02*
X277698900Y-263575100D01*
D18*
X275158900Y-273888900D02*
X275158900Y-263145238D01*
X275158900Y-263145238D02*
X280904148Y-257399990D01*
X280904148Y-257399990D02*
X286407790Y-257399990D01*
X286407790Y-257399990D02*
X286507800Y-257500000D01*
X286507800Y-257500000D02*
X286507800Y-260000000D01*
X272618900Y-273888900D02*
X272618900Y-263422484D01*
X272618900Y-263422484D02*
X280241403Y-255799980D01*
X280241403Y-255799980D02*
X287347780Y-255799980D01*
X287347780Y-255799980D02*
X289047800Y-257500000D01*
X289047800Y-257500000D02*
X289047800Y-260000000D01*
D17*
X270078900Y-273888900D02*
X270078900Y-262992621D01*
X270078900Y-262992621D02*
X279371550Y-253699971D01*
X279371550Y-253699971D02*
X288787771Y-253699971D01*
X288787771Y-253699971D02*
X291587800Y-256500000D01*
X291587800Y-256500000D02*
X291587800Y-260000000D01*
X293624000Y-109220000D02*
X291626300Y-107222300D01*
X291626300Y-107222300D02*
X291587800Y-107222300D01*
X296418000Y-109220000D02*
X293624000Y-109220000D01*
X297856700Y-107781300D02*
X296418000Y-109220000D01*
X297856700Y-107222300D02*
X297856700Y-107781300D01*
D18*
X289047800Y-107222300D02*
X289047800Y-109722300D01*
X289047800Y-109722300D02*
X290645510Y-111320010D01*
X290645510Y-111320010D02*
X298798990Y-111320010D01*
X298798990Y-111320010D02*
X300396700Y-109722300D01*
X300396700Y-109722300D02*
X300396700Y-107222300D01*
X302936700Y-107222300D02*
X302936700Y-109722300D01*
X302936700Y-109722300D02*
X299738980Y-112920020D01*
X286507800Y-109977800D02*
X286507800Y-109722300D01*
X299738980Y-112920020D02*
X289450020Y-112920020D01*
X289450020Y-112920020D02*
X286507800Y-109977800D01*
X286507800Y-109722300D02*
X286507800Y-107222300D01*
D17*
X283967800Y-107222300D02*
X283967800Y-110722300D01*
X288265529Y-115020029D02*
X301178971Y-115020029D01*
X283967800Y-110722300D02*
X288265529Y-115020029D01*
X301178971Y-115020029D02*
X305476700Y-110722300D01*
X305476700Y-110722300D02*
X305476700Y-107222300D01*
X305476700Y-218333400D02*
X305476700Y-229297779D01*
X286767829Y-238522229D02*
X283967800Y-235722200D01*
X305476700Y-229297779D02*
X296252250Y-238522229D01*
X296252250Y-238522229D02*
X286767829Y-238522229D01*
X283967800Y-235722200D02*
X283967800Y-232222200D01*
D18*
X286507800Y-232222200D02*
X286507800Y-234722200D01*
X286507800Y-234722200D02*
X288207820Y-236422220D01*
X288207820Y-236422220D02*
X295382397Y-236422220D01*
X295382397Y-236422220D02*
X302936700Y-228867917D01*
X302936700Y-228867917D02*
X302936700Y-220833400D01*
X302936700Y-220833400D02*
X302936700Y-218333400D01*
X289047800Y-232222200D02*
X289047800Y-234722200D01*
X300396700Y-229145162D02*
X300396700Y-220833400D01*
X289047800Y-234722200D02*
X289147810Y-234822210D01*
X289147810Y-234822210D02*
X294719652Y-234822210D01*
X294719652Y-234822210D02*
X300396700Y-229145162D01*
X300396700Y-220833400D02*
X300396700Y-218333400D01*
D17*
X291587800Y-232222200D02*
X294349800Y-232222200D01*
X294349800Y-232222200D02*
X297856700Y-228715300D01*
X297856700Y-228715300D02*
X297856700Y-218333400D01*
X297856700Y-148888900D02*
X297856700Y-145959038D01*
X297856700Y-145959038D02*
X301226868Y-142588870D01*
X301226868Y-142588870D02*
X310141150Y-142588871D01*
X310141150Y-142588871D02*
X319365600Y-151813321D01*
X319365600Y-151813321D02*
X319365600Y-159277700D01*
X319365600Y-159277700D02*
X319365600Y-162777700D01*
D18*
X300396700Y-148888900D02*
X300396700Y-146388900D01*
X300396700Y-146388900D02*
X302096720Y-144688880D01*
X302096720Y-144688880D02*
X309271297Y-144688880D01*
X309271297Y-144688880D02*
X316825600Y-152243183D01*
X316825600Y-152243183D02*
X316825600Y-160277700D01*
X316825600Y-160277700D02*
X316825600Y-162777700D01*
X302936700Y-148888900D02*
X302936700Y-148057621D01*
X302936700Y-148057621D02*
X304705431Y-146288890D01*
X304705431Y-146288890D02*
X308608552Y-146288890D01*
X308608552Y-146288890D02*
X314285600Y-151965938D01*
X314285600Y-151965938D02*
X314285600Y-160277700D01*
X314285600Y-160277700D02*
X314285600Y-162777700D01*
D17*
X305476700Y-148888900D02*
X308238700Y-148888900D01*
X311745600Y-152395800D02*
X311745600Y-162777700D01*
X308238700Y-148888900D02*
X311745600Y-152395800D01*
X305476700Y-260000000D02*
X308238700Y-260000000D01*
X308238700Y-260000000D02*
X311745600Y-263506900D01*
X311745600Y-263506900D02*
X311745600Y-273888900D01*
D18*
X314285600Y-273888900D02*
X314285600Y-263077038D01*
X314285600Y-263077038D02*
X308608552Y-257399990D01*
X302936700Y-257500000D02*
X302936700Y-260000000D01*
X308608552Y-257399990D02*
X303036710Y-257399990D01*
X303036710Y-257399990D02*
X302936700Y-257500000D01*
X300396700Y-260000000D02*
X300396700Y-257500000D01*
X316825600Y-271388900D02*
X316825600Y-273888900D01*
X300396700Y-257500000D02*
X302096720Y-255799980D01*
X309271297Y-255799980D02*
X316825600Y-263354283D01*
X302096720Y-255799980D02*
X309271297Y-255799980D01*
X316825600Y-263354283D02*
X316825600Y-271388900D01*
D17*
X319365600Y-273888900D02*
X319365600Y-262924421D01*
X319365600Y-262924421D02*
X310141150Y-253699971D01*
X310141150Y-253699971D02*
X300656729Y-253699971D01*
X300656729Y-253699971D02*
X297856700Y-256500000D01*
X297856700Y-256500000D02*
X297856700Y-260000000D01*
X309209700Y-662777700D02*
X311745600Y-665313600D01*
X311745600Y-665313600D02*
X311745600Y-676666700D01*
X305476700Y-662777700D02*
X309209700Y-662777700D01*
D18*
X314285600Y-676666700D02*
X314285600Y-664883738D01*
X314285600Y-664883738D02*
X309579552Y-660177690D01*
X303036710Y-660177690D02*
X302936700Y-660277700D01*
X309579552Y-660177690D02*
X303036710Y-660177690D01*
X302936700Y-660277700D02*
X302936700Y-662777700D01*
X300396700Y-662777700D02*
X300396700Y-660277700D01*
X300396700Y-660277700D02*
X302096720Y-658577680D01*
X310242297Y-658577680D02*
X316825600Y-665160983D01*
X302096720Y-658577680D02*
X310242297Y-658577680D01*
X316825600Y-665160983D02*
X316825600Y-674166700D01*
X316825600Y-674166700D02*
X316825600Y-676666700D01*
D17*
X319365600Y-676666700D02*
X319365600Y-664731121D01*
X319365600Y-664731121D02*
X311112150Y-656477671D01*
X311112150Y-656477671D02*
X300656729Y-656477671D01*
X300656729Y-656477671D02*
X297856700Y-659277700D01*
X297856700Y-659277700D02*
X297856700Y-662777700D01*
X381190000Y-37777800D02*
X381190000Y-39180000D01*
X381190000Y-39180000D02*
X378714000Y-41656000D01*
X357419971Y-59946640D02*
X366163305Y-51203306D01*
X357419970Y-92964000D02*
X357419971Y-59946640D01*
X357419970Y-122057552D02*
X357419970Y-92964000D01*
X356324761Y-123152761D02*
X357419970Y-122057552D01*
X353822000Y-125655522D02*
X356324761Y-123152761D01*
X322696448Y-133899970D02*
X319365600Y-130569122D01*
X319365600Y-130569122D02*
X319365600Y-121111100D01*
X345577552Y-133899970D02*
X322696448Y-133899970D01*
X353822000Y-125655522D02*
X345577552Y-133899970D01*
D18*
X383730000Y-37777800D02*
X383730000Y-43568560D01*
X359519980Y-122927404D02*
X346447404Y-135999980D01*
X316825600Y-123611100D02*
X316825600Y-121111100D01*
X383730000Y-43568560D02*
X383032000Y-44266560D01*
X383032000Y-44266560D02*
X376069913Y-44266560D01*
X376069913Y-44266560D02*
X359519980Y-60816493D01*
X346447404Y-135999980D02*
X321826595Y-135999979D01*
X359519980Y-60816493D02*
X359519980Y-122927404D01*
X321826595Y-135999979D02*
X316825600Y-130998984D01*
X316825600Y-130998984D02*
X316825600Y-123611100D01*
X347110148Y-137599990D02*
X321163852Y-137599990D01*
X314285600Y-123611100D02*
X314285600Y-121111100D01*
X321163852Y-137599990D02*
X314285600Y-130721738D01*
X314285600Y-130721738D02*
X314285600Y-123611100D01*
X361119990Y-123590148D02*
X347110148Y-137599990D01*
X384810000Y-45866570D02*
X376732658Y-45866570D01*
X376732658Y-45866570D02*
X361119990Y-61479238D01*
X361119990Y-61479238D02*
X361119990Y-123590148D01*
X386270000Y-44406570D02*
X384810000Y-45866570D01*
X386270000Y-37777800D02*
X386270000Y-44406570D01*
D17*
X320294000Y-139700000D02*
X311745600Y-131151600D01*
X311745600Y-131151600D02*
X311745600Y-121111100D01*
X347980000Y-139700000D02*
X320294000Y-139700000D01*
X363220000Y-124460000D02*
X347980000Y-139700000D01*
X363220000Y-68580000D02*
X363220000Y-124460000D01*
X388810000Y-37777800D02*
X388810000Y-43116000D01*
X311745600Y-176666700D02*
X311745600Y-212252078D01*
X311745600Y-212252078D02*
X325634400Y-226140878D01*
X325634400Y-226140878D02*
X325634400Y-273888900D01*
D18*
X314285600Y-176666700D02*
X314285600Y-211822216D01*
X314285600Y-211822216D02*
X328174400Y-225711016D01*
X328174400Y-225711016D02*
X328174400Y-271388900D01*
X328174400Y-271388900D02*
X328174400Y-273888900D01*
X330714400Y-273888900D02*
X330714400Y-225988262D01*
X330714400Y-225988262D02*
X316825600Y-212099462D01*
X316825600Y-212099462D02*
X316825600Y-179166700D01*
X316825600Y-179166700D02*
X316825600Y-176666700D01*
D17*
X319365600Y-211669600D02*
X333254400Y-225558400D01*
X333254400Y-225558400D02*
X333254400Y-273888900D01*
X319365600Y-176666700D02*
X319365600Y-211669600D01*
X311745600Y-621111100D02*
X311745600Y-636686079D01*
X311745600Y-636686079D02*
X318653550Y-643594029D01*
X328160371Y-643594029D02*
X333254400Y-638500000D01*
X318653550Y-643594029D02*
X328160371Y-643594029D01*
X333254400Y-638500000D02*
X333254400Y-635000000D01*
D18*
X330714400Y-635000000D02*
X330714400Y-637500000D01*
X330714400Y-637500000D02*
X326720380Y-641494020D01*
X326720380Y-641494020D02*
X319523403Y-641494020D01*
X319523403Y-641494020D02*
X314285600Y-636256217D01*
X314285600Y-636256217D02*
X314285600Y-623611100D01*
X314285600Y-623611100D02*
X314285600Y-621111100D01*
X316825600Y-621111100D02*
X316825600Y-636533462D01*
X316825600Y-636533462D02*
X320186148Y-639894010D01*
X320186148Y-639894010D02*
X325780390Y-639894010D01*
X325780390Y-639894010D02*
X328174400Y-637500000D01*
X328174400Y-637500000D02*
X328174400Y-635000000D01*
D17*
X323342000Y-637794000D02*
X325634400Y-635501600D01*
X325634400Y-635501600D02*
X325634400Y-635000000D01*
X321056000Y-637794000D02*
X323342000Y-637794000D01*
X319278000Y-636016000D02*
X321056000Y-637794000D01*
X319278000Y-624698700D02*
X319278000Y-636016000D01*
X319365600Y-621111100D02*
X319365600Y-624611100D01*
X319365600Y-624611100D02*
X319278000Y-624698700D01*
X347143300Y-51666700D02*
X347143300Y-108607179D01*
X347143300Y-108607179D02*
X340730450Y-115020029D01*
X340730450Y-115020029D02*
X329932129Y-115020029D01*
X329932129Y-115020029D02*
X325634400Y-110722300D01*
X325634400Y-110722300D02*
X325634400Y-107222300D01*
D18*
X328174400Y-107222300D02*
X328174400Y-109722300D01*
X328174400Y-109722300D02*
X331372120Y-112920020D01*
X331372120Y-112920020D02*
X339860597Y-112920020D01*
X344603300Y-54166700D02*
X344603300Y-51666700D01*
X339860597Y-112920020D02*
X344603300Y-108177317D01*
X344603300Y-108177317D02*
X344603300Y-54166700D01*
X342063300Y-51666700D02*
X342063300Y-108454562D01*
X342063300Y-108454562D02*
X339197852Y-111320010D01*
X339197852Y-111320010D02*
X332312110Y-111320010D01*
X332312110Y-111320010D02*
X330714400Y-109722300D01*
X330714400Y-109722300D02*
X330714400Y-107222300D01*
D17*
X338328000Y-109220000D02*
X339523300Y-108024700D01*
X339523300Y-108024700D02*
X339523300Y-51666700D01*
X334518000Y-109220000D02*
X338328000Y-109220000D01*
X333254400Y-107956400D02*
X334518000Y-109220000D01*
X333254400Y-107222300D02*
X333254400Y-107956400D01*
X333254400Y-676666600D02*
X333254400Y-675633600D01*
X333254400Y-675633600D02*
X334518000Y-674370000D01*
X334518000Y-674370000D02*
X338836000Y-674370000D01*
X338836000Y-674370000D02*
X339523300Y-675057300D01*
X339523300Y-675057300D02*
X339523300Y-676666600D01*
D18*
X330714400Y-676666600D02*
X330714400Y-674166600D01*
X330714400Y-674166600D02*
X332611009Y-672269991D01*
X332611009Y-672269991D02*
X340166691Y-672269991D01*
X340166691Y-672269991D02*
X342063300Y-674166600D01*
X342063300Y-674166600D02*
X342063300Y-676666600D01*
X344603300Y-676666600D02*
X344603300Y-674166600D01*
X331671019Y-670669981D02*
X328174400Y-674166600D01*
X344603300Y-674166600D02*
X341106681Y-670669981D01*
X341106681Y-670669981D02*
X331671019Y-670669981D01*
X328174400Y-674166600D02*
X328174400Y-676666600D01*
D17*
X325634400Y-676666600D02*
X325634400Y-673736738D01*
X347143300Y-673166600D02*
X347143300Y-676666600D01*
X325634400Y-673736738D02*
X330801166Y-668569972D01*
X330801166Y-668569972D02*
X342546672Y-668569972D01*
X342546672Y-668569972D02*
X347143300Y-673166600D01*
X347218000Y-178562000D02*
X349113400Y-176666600D01*
X349113400Y-176666600D02*
X353412200Y-176666600D01*
X347218000Y-242536400D02*
X347218000Y-178562000D01*
X347143300Y-246111100D02*
X347143300Y-242611100D01*
X347143300Y-242611100D02*
X347218000Y-242536400D01*
D18*
X355952200Y-176666600D02*
X355952200Y-174166600D01*
X355852190Y-174066590D02*
X348743548Y-174066590D01*
X344603300Y-243611100D02*
X344603300Y-246111100D01*
X355952200Y-174166600D02*
X355852190Y-174066590D01*
X348743548Y-174066590D02*
X344603300Y-178206838D01*
X344603300Y-178206838D02*
X344603300Y-243611100D01*
X342063300Y-246111100D02*
X342063300Y-178484083D01*
X356792180Y-172466580D02*
X358492200Y-174166600D01*
X342063300Y-178484083D02*
X348080803Y-172466580D01*
X348080803Y-172466580D02*
X356792180Y-172466580D01*
X358492200Y-174166600D02*
X358492200Y-176666600D01*
D17*
X361032200Y-176666600D02*
X361032200Y-173166600D01*
X361032200Y-173166600D02*
X358232170Y-170366570D01*
X358232170Y-170366570D02*
X347210950Y-170366571D01*
X347210950Y-170366571D02*
X339523300Y-178054221D01*
X339523300Y-178054221D02*
X339523300Y-242611100D01*
X339523300Y-242611100D02*
X339523300Y-246111100D01*
X361032200Y-607222200D02*
X361032200Y-632075579D01*
X361032200Y-632075579D02*
X351807750Y-641300029D01*
X351807750Y-641300029D02*
X342323329Y-641300029D01*
X342323329Y-641300029D02*
X339523300Y-638500000D01*
X339523300Y-638500000D02*
X339523300Y-635000000D01*
D18*
X342063300Y-635000000D02*
X342063300Y-637500000D01*
X358492200Y-631645717D02*
X358492200Y-609722200D01*
X342063300Y-637500000D02*
X343763320Y-639200020D01*
X343763320Y-639200020D02*
X350937897Y-639200020D01*
X358492200Y-609722200D02*
X358492200Y-607222200D01*
X350937897Y-639200020D02*
X358492200Y-631645717D01*
X355952200Y-607222200D02*
X355952200Y-631922962D01*
X355952200Y-631922962D02*
X350275152Y-637600010D01*
X350275152Y-637600010D02*
X344703310Y-637600010D01*
X344703310Y-637600010D02*
X344603300Y-637500000D01*
X344603300Y-637500000D02*
X344603300Y-635000000D01*
D17*
X347143300Y-635000000D02*
X349905300Y-635000000D01*
X349905300Y-635000000D02*
X353412200Y-631493100D01*
X353412200Y-631493100D02*
X353412200Y-607222200D01*
X374921100Y-37777700D02*
X374921100Y-41277700D01*
X374921100Y-41277700D02*
X370266771Y-45932029D01*
X370266771Y-45932029D02*
X358066429Y-45932029D01*
X358066429Y-45932029D02*
X353412200Y-41277800D01*
X353412200Y-41277800D02*
X353412200Y-37777800D01*
D18*
X355952200Y-37777800D02*
X355952200Y-40277800D01*
X355952200Y-40277800D02*
X359506420Y-43832020D01*
X359506420Y-43832020D02*
X368826780Y-43832020D01*
X368826780Y-43832020D02*
X372381100Y-40277700D01*
X372381100Y-40277700D02*
X372381100Y-37777700D01*
X369841100Y-37777700D02*
X369841100Y-40277700D01*
X358492200Y-40277800D02*
X358492200Y-37777800D01*
X369841100Y-40277700D02*
X367886790Y-42232010D01*
X367886790Y-42232010D02*
X360446410Y-42232010D01*
X360446410Y-42232010D02*
X358492200Y-40277800D01*
D17*
X366268000Y-40132000D02*
X367301100Y-39098900D01*
X367301100Y-39098900D02*
X367301100Y-37777700D01*
X361950000Y-40132000D02*
X366268000Y-40132000D01*
X361032200Y-39214200D02*
X361950000Y-40132000D01*
X361032200Y-37777800D02*
X361032200Y-39214200D01*
X366014000Y-660146000D02*
X367301100Y-661433100D01*
X367301100Y-661433100D02*
X367301100Y-662777800D01*
X362966000Y-660146000D02*
X366014000Y-660146000D01*
X361032200Y-662079800D02*
X362966000Y-660146000D01*
X361032200Y-662777800D02*
X361032200Y-662079800D01*
D18*
X358492200Y-662777800D02*
X358492200Y-661649938D01*
X358492200Y-661649938D02*
X362096147Y-658045991D01*
X362096147Y-658045991D02*
X367609291Y-658045991D01*
X367609291Y-658045991D02*
X369841100Y-660277800D01*
X369841100Y-660277800D02*
X369841100Y-662777800D01*
X372381100Y-662777800D02*
X372381100Y-660277800D01*
X355952200Y-660277800D02*
X355952200Y-662777800D01*
X372381100Y-660277800D02*
X368549281Y-656445981D01*
X368549281Y-656445981D02*
X359784019Y-656445981D01*
X359784019Y-656445981D02*
X355952200Y-660277800D01*
D17*
X353412200Y-662777800D02*
X353412200Y-659847938D01*
X353412200Y-659847938D02*
X358914166Y-654345972D01*
X358914166Y-654345972D02*
X369989272Y-654345972D01*
X369989272Y-654345972D02*
X374921100Y-659277800D01*
X374921100Y-659277800D02*
X374921100Y-662777800D01*
X374921100Y-121111100D02*
X374921100Y-117611100D01*
X374921100Y-117611100D02*
X374904000Y-117594000D01*
X377952000Y-58928000D02*
X377952000Y-52142600D01*
X374904000Y-117594000D02*
X374904000Y-61976000D01*
X374904000Y-61976000D02*
X377952000Y-58928000D01*
X377952000Y-52142600D02*
X378428000Y-51666600D01*
X378428000Y-51666600D02*
X381190000Y-51666600D01*
D18*
X372381100Y-121111100D02*
X372381100Y-54743638D01*
X372381100Y-54743638D02*
X378058148Y-49066590D01*
X378058148Y-49066590D02*
X383629990Y-49066590D01*
X383629990Y-49066590D02*
X383730000Y-49166600D01*
X383730000Y-49166600D02*
X383730000Y-51666600D01*
X369841100Y-121111100D02*
X369841100Y-55020884D01*
X369841100Y-55020884D02*
X377395403Y-47466580D01*
X377395403Y-47466580D02*
X384569980Y-47466580D01*
X384569980Y-47466580D02*
X386270000Y-49166600D01*
X386270000Y-49166600D02*
X386270000Y-51666600D01*
D17*
X388810000Y-51666600D02*
X388810000Y-48196000D01*
X388810000Y-48196000D02*
X387604000Y-46990000D01*
X367301100Y-121111100D02*
X367301100Y-68343100D01*
X388810000Y-468333300D02*
X388810000Y-534853379D01*
X388810000Y-534853379D02*
X379585550Y-544077829D01*
X379585550Y-544077829D02*
X370101129Y-544077829D01*
X370101129Y-544077829D02*
X367301100Y-541277800D01*
X367301100Y-541277800D02*
X367301100Y-537777800D01*
D18*
X369841100Y-537777800D02*
X369841100Y-540277800D01*
X369841100Y-540277800D02*
X371541120Y-541977820D01*
X371541120Y-541977820D02*
X378715697Y-541977820D01*
X378715697Y-541977820D02*
X386270000Y-534423517D01*
X386270000Y-534423517D02*
X386270000Y-470833300D01*
X386270000Y-470833300D02*
X386270000Y-468333300D01*
X383730000Y-468333300D02*
X383730000Y-534700762D01*
X383730000Y-534700762D02*
X378052952Y-540377810D01*
X378052952Y-540377810D02*
X372481110Y-540377810D01*
X372481110Y-540377810D02*
X372381100Y-540277800D01*
X372381100Y-540277800D02*
X372381100Y-537777800D01*
D17*
X381254000Y-534206900D02*
X381190000Y-534142900D01*
X381190000Y-534142900D02*
X381190000Y-468333300D01*
X374921100Y-537777800D02*
X377683100Y-537777800D01*
X377683100Y-537777800D02*
X381254000Y-534206900D01*
X393192000Y-619760000D02*
X394543100Y-621111100D01*
X394543100Y-621111100D02*
X395078900Y-621111100D01*
X390906000Y-619760000D02*
X393192000Y-619760000D01*
X388810000Y-621856000D02*
X390906000Y-619760000D01*
X388810000Y-648888900D02*
X388810000Y-621856000D01*
D18*
X397618900Y-621111100D02*
X397618900Y-618611100D01*
X397618900Y-618611100D02*
X396667790Y-617659990D01*
X396667790Y-617659990D02*
X390036147Y-617659991D01*
X390036147Y-617659991D02*
X386270000Y-621426138D01*
X386270000Y-621426138D02*
X386270000Y-646388900D01*
X386270000Y-646388900D02*
X386270000Y-648888900D01*
X383730000Y-648888900D02*
X383730000Y-621703384D01*
X383730000Y-621703384D02*
X389373403Y-616059982D01*
X389373403Y-616059982D02*
X397607782Y-616059982D01*
X400158900Y-618611100D02*
X400158900Y-621111100D01*
X397607782Y-616059982D02*
X400158900Y-618611100D01*
D17*
X402698900Y-621111100D02*
X402698900Y-617611100D01*
X402698900Y-617611100D02*
X399047772Y-613959972D01*
X381190000Y-621273523D02*
X381190000Y-645388900D01*
X381190000Y-645388900D02*
X381190000Y-648888900D01*
X399047772Y-613959972D02*
X388503550Y-613959973D01*
X388503550Y-613959973D02*
X381190000Y-621273523D01*
X402698900Y-246111100D02*
X405460900Y-246111100D01*
X405460900Y-246111100D02*
X408967800Y-249618000D01*
X408967800Y-249618000D02*
X408967800Y-260000000D01*
D18*
X400158900Y-246111100D02*
X400158900Y-245279821D01*
X400158900Y-245279821D02*
X401927631Y-243511090D01*
X401927631Y-243511090D02*
X405830752Y-243511090D01*
X405830752Y-243511090D02*
X411507800Y-249188138D01*
X411507800Y-257500000D02*
X411507800Y-260000000D01*
X411507800Y-249188138D02*
X411507800Y-257500000D01*
X414047800Y-260000000D02*
X414047800Y-249465384D01*
X414047800Y-249465384D02*
X406493497Y-241911080D01*
X406493497Y-241911080D02*
X399318920Y-241911080D01*
X399318920Y-241911080D02*
X397618900Y-243611100D01*
X397618900Y-243611100D02*
X397618900Y-246111100D01*
D17*
X395078900Y-246111100D02*
X395078900Y-243181238D01*
X395078900Y-243181238D02*
X398449068Y-239811070D01*
X398449068Y-239811070D02*
X407363350Y-239811071D01*
X407363350Y-239811071D02*
X416587800Y-249035521D01*
X416587800Y-249035521D02*
X416587800Y-256500000D01*
X416587800Y-256500000D02*
X416587800Y-260000000D01*
X395078900Y-440555500D02*
X395078900Y-443485362D01*
X395078900Y-443485362D02*
X400623567Y-449030029D01*
X400623567Y-449030029D02*
X411613271Y-449030029D01*
X411613271Y-449030029D02*
X416587800Y-444055500D01*
X416587800Y-444055500D02*
X416587800Y-440555500D01*
D18*
X414047800Y-440555500D02*
X414047800Y-443055500D01*
X414047800Y-443055500D02*
X410173280Y-446930020D01*
X410173280Y-446930020D02*
X401493420Y-446930020D01*
X397618900Y-443055500D02*
X397618900Y-440555500D01*
X401493420Y-446930020D02*
X397618900Y-443055500D01*
X411507800Y-440555500D02*
X411507800Y-443055500D01*
X411507800Y-443055500D02*
X409233290Y-445330010D01*
X409233290Y-445330010D02*
X402433410Y-445330010D01*
X402433410Y-445330010D02*
X400158900Y-443055500D01*
X400158900Y-443055500D02*
X400158900Y-440555500D01*
D17*
X407670000Y-443230000D02*
X408967800Y-441932200D01*
X408967800Y-441932200D02*
X408967800Y-440555500D01*
X404368000Y-443230000D02*
X407670000Y-443230000D01*
X402698900Y-441560900D02*
X404368000Y-443230000D01*
X402698900Y-440555500D02*
X402698900Y-441560900D01*
X430476700Y-121111100D02*
X430476700Y-136525779D01*
X430476700Y-136525779D02*
X423280450Y-143722029D01*
X423280450Y-143722029D02*
X414189829Y-143722029D01*
X414189829Y-143722029D02*
X408967800Y-138500000D01*
X408967800Y-138500000D02*
X408967800Y-135000000D01*
D18*
X411507800Y-135000000D02*
X411507800Y-137500000D01*
X411507800Y-137500000D02*
X415629820Y-141622020D01*
X415629820Y-141622020D02*
X422410597Y-141622020D01*
X427936700Y-123611100D02*
X427936700Y-121111100D01*
X422410597Y-141622020D02*
X427936700Y-136095917D01*
X427936700Y-136095917D02*
X427936700Y-123611100D01*
X425396700Y-121111100D02*
X425396700Y-136373162D01*
X425396700Y-136373162D02*
X421747852Y-140022010D01*
X421747852Y-140022010D02*
X416569810Y-140022010D01*
X416569810Y-140022010D02*
X414047800Y-137500000D01*
X414047800Y-137500000D02*
X414047800Y-135000000D01*
D17*
X418592000Y-137922000D02*
X416587800Y-135917800D01*
X416587800Y-135917800D02*
X416587800Y-135000000D01*
X420878000Y-137922000D02*
X418592000Y-137922000D01*
X422910000Y-135890000D02*
X420878000Y-137922000D01*
X422910000Y-124664400D02*
X422910000Y-135890000D01*
X422856700Y-121111100D02*
X422856700Y-124611100D01*
X422856700Y-124611100D02*
X422910000Y-124664400D01*
X421386000Y-410972000D02*
X422856700Y-412442700D01*
X422856700Y-412442700D02*
X422856700Y-412777700D01*
X418338000Y-410972000D02*
X421386000Y-410972000D01*
X416587800Y-412722200D02*
X418338000Y-410972000D01*
X416587800Y-412777800D02*
X416587800Y-412722200D01*
D18*
X414047800Y-412777800D02*
X414047800Y-411946521D01*
X414047800Y-411946521D02*
X417122331Y-408871990D01*
X425396700Y-410277700D02*
X425396700Y-412777700D01*
X417122331Y-408871990D02*
X423990990Y-408871990D01*
X423990990Y-408871990D02*
X425396700Y-410277700D01*
X427936700Y-412777700D02*
X427936700Y-410277700D01*
X427936700Y-410277700D02*
X424930980Y-407271980D01*
X424930980Y-407271980D02*
X414513620Y-407271980D01*
X414513620Y-407271980D02*
X411507800Y-410277800D01*
X411507800Y-410277800D02*
X411507800Y-412777800D01*
D17*
X408967800Y-412777800D02*
X408967800Y-409847938D01*
X408967800Y-409847938D02*
X413643767Y-405171971D01*
X413643767Y-405171971D02*
X426370971Y-405171971D01*
X430476700Y-409277700D02*
X430476700Y-412777700D01*
X426370971Y-405171971D02*
X430476700Y-409277700D01*
X420239800Y-482222200D02*
X416587800Y-485874200D01*
X416587800Y-485874200D02*
X416587800Y-551666700D01*
X422856700Y-482222200D02*
X420239800Y-482222200D01*
D18*
X414047800Y-551666700D02*
X414047800Y-485444338D01*
X414047800Y-485444338D02*
X419869948Y-479622190D01*
X419869948Y-479622190D02*
X425296690Y-479622190D01*
X425296690Y-479622190D02*
X425396700Y-479722200D01*
X425396700Y-479722200D02*
X425396700Y-482222200D01*
X427936700Y-482222200D02*
X427936700Y-479999445D01*
X427936700Y-479999445D02*
X425959435Y-478022180D01*
X425959435Y-478022180D02*
X419207203Y-478022180D01*
X411507800Y-485721583D02*
X411507800Y-549166700D01*
X411507800Y-549166700D02*
X411507800Y-551666700D01*
X419207203Y-478022180D02*
X411507800Y-485721583D01*
D17*
X408967800Y-551666700D02*
X408967800Y-485291721D01*
X408967800Y-485291721D02*
X418337350Y-475922171D01*
X418337350Y-475922171D02*
X427676671Y-475922171D01*
X427676671Y-475922171D02*
X430476700Y-478722200D01*
X430476700Y-478722200D02*
X430476700Y-482222200D01*
X435102000Y-272034000D02*
X436745600Y-273677600D01*
X436745600Y-273677600D02*
X436745600Y-273888900D01*
X431800000Y-272034000D02*
X435102000Y-272034000D01*
X430476700Y-273357300D02*
X431800000Y-272034000D01*
X430476700Y-273888900D02*
X430476700Y-273357300D01*
D18*
X439285600Y-273888900D02*
X439285600Y-273057621D01*
X439285600Y-273057621D02*
X436161970Y-269933991D01*
X436161970Y-269933991D02*
X429391609Y-269933991D01*
X429391609Y-269933991D02*
X427936700Y-271388900D01*
X427936700Y-271388900D02*
X427936700Y-273888900D01*
X425396700Y-273888900D02*
X425396700Y-271666145D01*
X425396700Y-271666145D02*
X428728864Y-268333981D01*
X428728864Y-268333981D02*
X438770681Y-268333981D01*
X438770681Y-268333981D02*
X441825600Y-271388900D01*
X441825600Y-271388900D02*
X441825600Y-273888900D01*
D17*
X444365600Y-273888900D02*
X444365600Y-270959038D01*
X444365600Y-270959038D02*
X439640534Y-266233972D01*
X439640534Y-266233972D02*
X427011628Y-266233972D01*
X427011628Y-266233972D02*
X422856700Y-270388900D01*
X422856700Y-270388900D02*
X422856700Y-273888900D01*
X422856700Y-371111100D02*
X422856700Y-374611100D01*
X422856700Y-374611100D02*
X427171628Y-378926028D01*
X427171628Y-378926028D02*
X440050672Y-378926028D01*
X440050672Y-378926028D02*
X444365600Y-374611100D01*
X444365600Y-374611100D02*
X444365600Y-371111100D01*
D18*
X441825600Y-371111100D02*
X441825600Y-373611100D01*
X441825600Y-373611100D02*
X438610681Y-376826019D01*
X438610681Y-376826019D02*
X428611619Y-376826019D01*
X428611619Y-376826019D02*
X425396700Y-373611100D01*
X425396700Y-373611100D02*
X425396700Y-371111100D01*
X427936700Y-371111100D02*
X427936700Y-373611100D01*
X427936700Y-373611100D02*
X429551609Y-375226009D01*
X429551609Y-375226009D02*
X437670691Y-375226009D01*
X437670691Y-375226009D02*
X439285600Y-373611100D01*
X439285600Y-373611100D02*
X439285600Y-371111100D01*
D17*
X435864000Y-373126000D02*
X436745600Y-372244400D01*
X436745600Y-372244400D02*
X436745600Y-371111100D01*
X431800000Y-373126000D02*
X435864000Y-373126000D01*
X430476700Y-371802700D02*
X431800000Y-373126000D01*
X430476700Y-371111100D02*
X430476700Y-371802700D01*
X444365600Y-121111100D02*
X447127600Y-121111100D01*
X447127600Y-121111100D02*
X450634400Y-117604300D01*
X450634400Y-117604300D02*
X450634400Y-107222200D01*
D18*
X453174400Y-107222200D02*
X453174400Y-118034162D01*
X453174400Y-118034162D02*
X447497452Y-123711110D01*
X447497452Y-123711110D02*
X441925610Y-123711110D01*
X441925610Y-123711110D02*
X441825600Y-123611100D01*
X441825600Y-123611100D02*
X441825600Y-121111100D01*
X439285600Y-121111100D02*
X439285600Y-123611100D01*
X439285600Y-123611100D02*
X440985620Y-125311120D01*
X440985620Y-125311120D02*
X448160197Y-125311120D01*
X448160197Y-125311120D02*
X455714400Y-117756917D01*
X455714400Y-117756917D02*
X455714400Y-109722200D01*
X455714400Y-109722200D02*
X455714400Y-107222200D01*
D17*
X458254400Y-107222200D02*
X458254400Y-118186779D01*
X458254400Y-118186779D02*
X449030050Y-127411129D01*
X449030050Y-127411129D02*
X439545629Y-127411129D01*
X439545629Y-127411129D02*
X436745600Y-124611100D01*
X436745600Y-124611100D02*
X436745600Y-121111100D01*
X458254400Y-232222300D02*
X458254400Y-235722300D01*
X458254400Y-235722300D02*
X453226671Y-240750029D01*
X453226671Y-240750029D02*
X441773329Y-240750029D01*
X441773329Y-240750029D02*
X436745600Y-235722300D01*
X436745600Y-235722300D02*
X436745600Y-232222300D01*
D18*
X439285600Y-232222300D02*
X439285600Y-234722300D01*
X439285600Y-234722300D02*
X443213320Y-238650020D01*
X443213320Y-238650020D02*
X451509434Y-238650020D01*
X451509434Y-238650020D02*
X455714400Y-234445054D01*
X455714400Y-234445054D02*
X455714400Y-232222300D01*
X453174400Y-232222300D02*
X453174400Y-234722300D01*
X453174400Y-234722300D02*
X450846690Y-237050010D01*
X450846690Y-237050010D02*
X444153310Y-237050010D01*
X444153310Y-237050010D02*
X441825600Y-234722300D01*
X441825600Y-234722300D02*
X441825600Y-232222300D01*
D17*
X449580000Y-234950000D02*
X450634400Y-233895600D01*
X450634400Y-233895600D02*
X450634400Y-232222300D01*
X446024000Y-234950000D02*
X449580000Y-234950000D01*
X444365600Y-233291600D02*
X446024000Y-234950000D01*
X444365600Y-232222300D02*
X444365600Y-233291600D01*
X472143300Y-148888900D02*
X472143300Y-145388900D01*
X459858850Y-142588871D02*
X450634400Y-151813321D01*
X450634400Y-151813321D02*
X450634400Y-159277800D01*
X472143300Y-145388900D02*
X469343270Y-142588870D01*
X469343270Y-142588870D02*
X459858850Y-142588871D01*
X450634400Y-159277800D02*
X450634400Y-162777800D01*
D18*
X453174400Y-162777800D02*
X453174400Y-152243184D01*
X453174400Y-152243184D02*
X460728703Y-144688880D01*
X469603300Y-146388900D02*
X469603300Y-148888900D01*
X460728703Y-144688880D02*
X467903280Y-144688880D01*
X467903280Y-144688880D02*
X469603300Y-146388900D01*
X455714400Y-162777800D02*
X455714400Y-151965938D01*
X455714400Y-151965938D02*
X461391448Y-146288890D01*
X461391448Y-146288890D02*
X466963290Y-146288890D01*
X466963290Y-146288890D02*
X467063300Y-146388900D01*
X467063300Y-146388900D02*
X467063300Y-148888900D01*
D17*
X464523300Y-148888900D02*
X461761300Y-148888900D01*
X461761300Y-148888900D02*
X458254400Y-152395800D01*
X458254400Y-152395800D02*
X458254400Y-162777800D01*
X464523300Y-260000000D02*
X460598000Y-260000000D01*
X458254400Y-273888900D02*
X458254400Y-270388900D01*
X458216000Y-262382000D02*
X460598000Y-260000000D01*
X458254400Y-270388900D02*
X458216000Y-270350500D01*
X458216000Y-270350500D02*
X458216000Y-262382000D01*
D18*
X467063300Y-260000000D02*
X467063300Y-257500000D01*
X467063300Y-257500000D02*
X466963290Y-257399990D01*
X466963290Y-257399990D02*
X460228148Y-257399990D01*
X455714400Y-271388900D02*
X455714400Y-273888900D01*
X460228148Y-257399990D02*
X455714400Y-261913738D01*
X455714400Y-261913738D02*
X455714400Y-271388900D01*
X469603300Y-260000000D02*
X469603300Y-257500000D01*
X469603300Y-257500000D02*
X467903280Y-255799980D01*
X467903280Y-255799980D02*
X459565403Y-255799980D01*
X453174400Y-271388900D02*
X453174400Y-273888900D01*
X459565403Y-255799980D02*
X453174400Y-262190983D01*
X453174400Y-262190983D02*
X453174400Y-271388900D01*
D17*
X450634400Y-273888900D02*
X450634400Y-261761121D01*
X450634400Y-261761121D02*
X458695550Y-253699971D01*
X458695550Y-253699971D02*
X469343271Y-253699971D01*
X469343271Y-253699971D02*
X472143300Y-256500000D01*
X472143300Y-256500000D02*
X472143300Y-260000000D01*
X477520000Y-109474000D02*
X478412200Y-108581800D01*
X478412200Y-108581800D02*
X478412200Y-107222300D01*
X473710000Y-109474000D02*
X477520000Y-109474000D01*
X472143300Y-107907300D02*
X473710000Y-109474000D01*
X472143300Y-107222300D02*
X472143300Y-107907300D01*
D18*
X480952200Y-107222300D02*
X480952200Y-109722300D01*
X479100490Y-111574010D02*
X471455010Y-111574010D01*
X480952200Y-109722300D02*
X479100490Y-111574010D01*
X471455010Y-111574010D02*
X469603300Y-109722300D01*
X469603300Y-109722300D02*
X469603300Y-107222300D01*
X467063300Y-107222300D02*
X467063300Y-109722300D01*
X467063300Y-109722300D02*
X470515020Y-113174020D01*
X470515020Y-113174020D02*
X480040480Y-113174020D01*
X480040480Y-113174020D02*
X483492200Y-109722300D01*
X483492200Y-109722300D02*
X483492200Y-107222300D01*
D17*
X486032200Y-107222300D02*
X486032200Y-110722300D01*
X486032200Y-110722300D02*
X481480471Y-115274029D01*
X469075029Y-115274029D02*
X464523300Y-110722300D01*
X481480471Y-115274029D02*
X469075029Y-115274029D01*
X464523300Y-110722300D02*
X464523300Y-107222300D01*
X486032200Y-218333400D02*
X486032200Y-229297779D01*
X486032200Y-229297779D02*
X476807750Y-238522229D01*
X476807750Y-238522229D02*
X467323329Y-238522229D01*
X467323329Y-238522229D02*
X464523300Y-235722200D01*
X464523300Y-235722200D02*
X464523300Y-232222200D01*
D18*
X467063300Y-232222200D02*
X467063300Y-234722200D01*
X467063300Y-234722200D02*
X468763320Y-236422220D01*
X468763320Y-236422220D02*
X475937897Y-236422220D01*
X475937897Y-236422220D02*
X483492200Y-228867917D01*
X483492200Y-228867917D02*
X483492200Y-218333400D01*
X480952200Y-218333400D02*
X480952200Y-229145162D01*
X480952200Y-229145162D02*
X475275152Y-234822210D01*
X475275152Y-234822210D02*
X469703310Y-234822210D01*
X469703310Y-234822210D02*
X469603300Y-234722200D01*
X469603300Y-234722200D02*
X469603300Y-232222200D01*
D17*
X472143300Y-232222200D02*
X474905300Y-232222200D01*
X474905300Y-232222200D02*
X478412200Y-228715300D01*
X478412200Y-228715300D02*
X478412200Y-218333400D01*
X478412200Y-148888900D02*
X478412200Y-145959038D01*
X492675350Y-142588871D02*
X499921100Y-149834621D01*
X478412200Y-145959038D02*
X481782368Y-142588870D01*
X481782368Y-142588870D02*
X492675350Y-142588871D01*
X499921100Y-149834621D02*
X499921100Y-159277700D01*
X499921100Y-159277700D02*
X499921100Y-162777700D01*
D18*
X497381100Y-162777700D02*
X497381100Y-150264484D01*
X480952200Y-146388900D02*
X480952200Y-148888900D01*
X497381100Y-150264484D02*
X491805497Y-144688880D01*
X491805497Y-144688880D02*
X482652220Y-144688880D01*
X482652220Y-144688880D02*
X480952200Y-146388900D01*
X483492200Y-148888900D02*
X483492200Y-146388900D01*
X483492200Y-146388900D02*
X483592210Y-146288890D01*
X483592210Y-146288890D02*
X491142752Y-146288890D01*
X491142752Y-146288890D02*
X494841100Y-149987238D01*
X494841100Y-149987238D02*
X494841100Y-160277700D01*
X494841100Y-160277700D02*
X494841100Y-162777700D01*
D17*
X492252000Y-150368000D02*
X490772900Y-148888900D01*
X490772900Y-148888900D02*
X486032200Y-148888900D01*
X492252000Y-159228600D02*
X492252000Y-150368000D01*
X492301100Y-162777700D02*
X492301100Y-159277700D01*
X492301100Y-159277700D02*
X492252000Y-159228600D01*
X486032200Y-260000000D02*
X488794200Y-260000000D01*
X488794200Y-260000000D02*
X492301100Y-263506900D01*
X492301100Y-263506900D02*
X492301100Y-273888900D01*
D18*
X494841100Y-273888900D02*
X494841100Y-263077038D01*
X494841100Y-263077038D02*
X489164052Y-257399990D01*
X489164052Y-257399990D02*
X483592210Y-257399990D01*
X483592210Y-257399990D02*
X483492200Y-257500000D01*
X483492200Y-257500000D02*
X483492200Y-260000000D01*
X480952200Y-260000000D02*
X480952200Y-257500000D01*
X480952200Y-257500000D02*
X482652220Y-255799980D01*
X482652220Y-255799980D02*
X489826797Y-255799980D01*
X489826797Y-255799980D02*
X497381100Y-263354283D01*
X497381100Y-271388900D02*
X497381100Y-273888900D01*
X497381100Y-263354283D02*
X497381100Y-271388900D01*
D17*
X499921100Y-273888900D02*
X499921100Y-262924421D01*
X499921100Y-262924421D02*
X490696650Y-253699971D01*
X478412200Y-256500000D02*
X478412200Y-260000000D01*
X490696650Y-253699971D02*
X481212229Y-253699971D01*
X481212229Y-253699971D02*
X478412200Y-256500000D01*
X558546000Y-39370000D02*
X560138200Y-37777800D01*
X560138200Y-37777800D02*
X561745600Y-37777800D01*
X536049980Y-66184020D02*
X536049980Y-61104020D01*
X536049980Y-61104020D02*
X548132000Y-49022000D01*
X533654000Y-110923522D02*
X536049980Y-108527542D01*
X536049980Y-108527542D02*
X536049980Y-66184020D01*
X533654000Y-110923522D02*
X514089532Y-130487990D01*
X514089532Y-130487990D02*
X507227852Y-130487990D01*
X500126000Y-121316000D02*
X499921100Y-121111100D01*
X507227852Y-130487990D02*
X500126000Y-123386138D01*
X500126000Y-123386138D02*
X500126000Y-121316000D01*
D18*
X536702000Y-110845384D02*
X536041384Y-111506000D01*
X536041384Y-111506000D02*
X514959384Y-132588000D01*
X538149990Y-63469883D02*
X538149990Y-109397394D01*
X538149990Y-109397394D02*
X536041384Y-111506000D01*
X543814000Y-57658000D02*
X543814000Y-57805874D01*
X543814000Y-57805874D02*
X538149990Y-63469883D01*
X551688000Y-49784000D02*
X543814000Y-57658000D01*
X551835874Y-49784000D02*
X551688000Y-49784000D01*
X564285600Y-37777800D02*
X564285600Y-38609079D01*
X564285600Y-38609079D02*
X562516869Y-40377810D01*
X562516869Y-40377810D02*
X561242063Y-40377810D01*
X561242063Y-40377810D02*
X551835874Y-49784000D01*
X514959384Y-132588000D02*
X506358000Y-132588000D01*
X506358000Y-132588000D02*
X497381100Y-123611100D01*
X497381100Y-123611100D02*
X497381100Y-121111100D01*
X566825600Y-37777800D02*
X566825600Y-44190970D01*
X566825600Y-44190970D02*
X565150000Y-45866570D01*
X539750000Y-64132628D02*
X539750000Y-110060138D01*
X565150000Y-45866570D02*
X558016058Y-45866570D01*
X558016058Y-45866570D02*
X539750000Y-64132628D01*
X539750000Y-110060138D02*
X515444138Y-134366000D01*
X515444138Y-134366000D02*
X505596000Y-134366000D01*
X505596000Y-134366000D02*
X494841100Y-123611100D01*
X494841100Y-123611100D02*
X494841100Y-121111100D01*
D17*
X569365600Y-37777800D02*
X569365600Y-43282400D01*
X569365600Y-43282400D02*
X569214000Y-43434000D01*
X542798000Y-87122000D02*
X542798000Y-65532000D01*
X542798000Y-87122000D02*
X542798000Y-109982000D01*
X542798000Y-109982000D02*
X516128000Y-136652000D01*
X516128000Y-136652000D02*
X504342000Y-136652000D01*
X504342000Y-136652000D02*
X492301100Y-124611100D01*
X492301100Y-124611100D02*
X492301100Y-121111100D01*
X492301100Y-219505100D02*
X506190000Y-233394000D01*
X506190000Y-233394000D02*
X506190000Y-273888900D01*
X492301100Y-176666700D02*
X492301100Y-219505100D01*
D18*
X494841100Y-176666700D02*
X494841100Y-216203100D01*
X494841100Y-216203100D02*
X508730000Y-230092000D01*
X508730000Y-230092000D02*
X508730000Y-271388900D01*
X508730000Y-271388900D02*
X508730000Y-273888900D01*
X497381100Y-176666700D02*
X497381100Y-185215100D01*
X497381100Y-185215100D02*
X511270000Y-199104000D01*
X511270000Y-199104000D02*
X511270000Y-271388900D01*
X511270000Y-271388900D02*
X511270000Y-273888900D01*
D17*
X499921100Y-176666700D02*
X499921100Y-180166700D01*
X499921100Y-180166700D02*
X513810000Y-194055600D01*
X513810000Y-270388900D02*
X513810000Y-273888900D01*
X513810000Y-194055600D02*
X513810000Y-270388900D01*
X527698900Y-51666700D02*
X527698900Y-104297879D01*
X527698900Y-104297879D02*
X518474450Y-113522329D01*
X508990029Y-113522329D02*
X506190000Y-110722300D01*
X518474450Y-113522329D02*
X508990029Y-113522329D01*
X506190000Y-110722300D02*
X506190000Y-107222300D01*
D18*
X525158900Y-51666700D02*
X525158900Y-103868016D01*
X517604597Y-111422320D02*
X510430020Y-111422320D01*
X508730000Y-109722300D02*
X508730000Y-107222300D01*
X525158900Y-103868016D02*
X517604597Y-111422320D01*
X510430020Y-111422320D02*
X508730000Y-109722300D01*
X522618900Y-51666700D02*
X522618900Y-104145262D01*
X522618900Y-104145262D02*
X516941852Y-109822310D01*
X516941852Y-109822310D02*
X511370010Y-109822310D01*
X511370010Y-109822310D02*
X511270000Y-109722300D01*
X511270000Y-109722300D02*
X511270000Y-107222300D01*
D17*
X520078900Y-51666700D02*
X520078900Y-103715400D01*
X520078900Y-103715400D02*
X516572000Y-107222300D01*
X516572000Y-107222300D02*
X513810000Y-107222300D01*
X519176000Y-410464000D02*
X520078900Y-411366900D01*
X520078900Y-411366900D02*
X520078900Y-412777700D01*
X515620000Y-410464000D02*
X519176000Y-410464000D01*
X513810000Y-412274000D02*
X515620000Y-410464000D01*
X513810000Y-412777800D02*
X513810000Y-412274000D01*
D18*
X522618900Y-412777700D02*
X522618900Y-410277700D01*
X522618900Y-410277700D02*
X520705190Y-408363990D01*
X520705190Y-408363990D02*
X513183810Y-408363990D01*
X513183810Y-408363990D02*
X511270000Y-410277800D01*
X511270000Y-410277800D02*
X511270000Y-412777800D01*
X508730000Y-412777800D02*
X508730000Y-410277800D01*
X508730000Y-410277800D02*
X512243820Y-406763980D01*
X512243820Y-406763980D02*
X521645180Y-406763980D01*
X521645180Y-406763980D02*
X525158900Y-410277700D01*
X525158900Y-410277700D02*
X525158900Y-412777700D01*
D17*
X527698900Y-412777700D02*
X527698900Y-409847838D01*
X527698900Y-409847838D02*
X522515033Y-404663971D01*
X522515033Y-404663971D02*
X510803829Y-404663971D01*
X510803829Y-404663971D02*
X506190000Y-409277800D01*
X506190000Y-409277800D02*
X506190000Y-412777800D01*
X527698900Y-179437100D02*
X530469400Y-176666600D01*
X530469400Y-176666600D02*
X533967800Y-176666600D01*
X527698900Y-246111100D02*
X527698900Y-179437100D01*
D18*
X536507800Y-176666600D02*
X536507800Y-174166600D01*
X536407790Y-174066590D02*
X530099548Y-174066590D01*
X536507800Y-174166600D02*
X536407790Y-174066590D01*
X530099548Y-174066590D02*
X525158900Y-179007238D01*
X525158900Y-179007238D02*
X525158900Y-243611100D01*
X525158900Y-243611100D02*
X525158900Y-246111100D01*
X522618900Y-246111100D02*
X522618900Y-179284483D01*
X522618900Y-179284483D02*
X529436803Y-172466580D01*
X529436803Y-172466580D02*
X537347780Y-172466580D01*
X537347780Y-172466580D02*
X539047800Y-174166600D01*
X539047800Y-174166600D02*
X539047800Y-176666600D01*
D17*
X541587800Y-176666600D02*
X541587800Y-173736738D01*
X541587800Y-173736738D02*
X538217632Y-170366570D01*
X538217632Y-170366570D02*
X528566950Y-170366571D01*
X528566950Y-170366571D02*
X520078900Y-178854621D01*
X520078900Y-178854621D02*
X520078900Y-242611100D01*
X520078900Y-242611100D02*
X520078900Y-246111100D01*
X541587800Y-371111100D02*
X541587800Y-374040962D01*
X520078900Y-374611100D02*
X520078900Y-371111100D01*
X541587800Y-374040962D02*
X536956733Y-378672029D01*
X536956733Y-378672029D02*
X524139829Y-378672029D01*
X524139829Y-378672029D02*
X520078900Y-374611100D01*
D18*
X522618900Y-371111100D02*
X522618900Y-373611100D01*
X522618900Y-373611100D02*
X525579820Y-376572020D01*
X525579820Y-376572020D02*
X536086880Y-376572020D01*
X536086880Y-376572020D02*
X539047800Y-373611100D01*
X539047800Y-373611100D02*
X539047800Y-371111100D01*
X536507800Y-371111100D02*
X536507800Y-373611100D01*
X536507800Y-373611100D02*
X535146890Y-374972010D01*
X535146890Y-374972010D02*
X526519810Y-374972010D01*
X525158900Y-373611100D02*
X525158900Y-371111100D01*
X526519810Y-374972010D02*
X525158900Y-373611100D01*
D17*
X532130000Y-372872000D02*
X533890900Y-371111100D01*
X533890900Y-371111100D02*
X533967800Y-371111100D01*
X529336000Y-372872000D02*
X532130000Y-372872000D01*
X527698900Y-371234900D02*
X529336000Y-372872000D01*
X527698900Y-371111100D02*
X527698900Y-371234900D01*
X555476700Y-37777700D02*
X555476700Y-40707562D01*
X555476700Y-40707562D02*
X550760233Y-45424029D01*
X550760233Y-45424029D02*
X538114029Y-45424029D01*
X538114029Y-45424029D02*
X533967800Y-41277800D01*
X533967800Y-41277800D02*
X533967800Y-37777800D01*
D18*
X536507800Y-37777800D02*
X536507800Y-40000555D01*
X536507800Y-40000555D02*
X539831265Y-43324020D01*
X539831265Y-43324020D02*
X549890380Y-43324020D01*
X549890380Y-43324020D02*
X552936700Y-40277700D01*
X552936700Y-40277700D02*
X552936700Y-37777700D01*
X550396700Y-37777700D02*
X550396700Y-40277700D01*
X550396700Y-40277700D02*
X548950390Y-41724010D01*
X548950390Y-41724010D02*
X540494010Y-41724010D01*
X540494010Y-41724010D02*
X539047800Y-40277800D01*
X539047800Y-40277800D02*
X539047800Y-37777800D01*
D17*
X546354000Y-39624000D02*
X547856700Y-38121300D01*
X547856700Y-38121300D02*
X547856700Y-37777700D01*
X543306000Y-39624000D02*
X546354000Y-39624000D01*
X541587800Y-37905800D02*
X543306000Y-39624000D01*
X541587800Y-37777800D02*
X541587800Y-37905800D01*
X559562000Y-51816000D02*
X561596200Y-51816000D01*
X561596200Y-51816000D02*
X561745600Y-51666600D01*
X555498000Y-55880000D02*
X559562000Y-51816000D01*
X555498000Y-117589800D02*
X555498000Y-55880000D01*
X555476700Y-121111100D02*
X555476700Y-117611100D01*
X555476700Y-117611100D02*
X555498000Y-117589800D01*
D18*
X564285600Y-51666600D02*
X564285600Y-50835321D01*
X564285600Y-50835321D02*
X562516869Y-49066590D01*
X562516869Y-49066590D02*
X559341548Y-49066590D01*
X559341548Y-49066590D02*
X552936700Y-55471438D01*
X552936700Y-55471438D02*
X552936700Y-118611100D01*
X552936700Y-118611100D02*
X552936700Y-121111100D01*
X550396700Y-121111100D02*
X550396700Y-55748683D01*
X550396700Y-55748683D02*
X558678803Y-47466580D01*
X558678803Y-47466580D02*
X565125580Y-47466580D01*
X565125580Y-47466580D02*
X566825600Y-49166600D01*
X566825600Y-49166600D02*
X566825600Y-51666600D01*
D17*
X568198000Y-46990000D02*
X569365600Y-48157600D01*
X569365600Y-48157600D02*
X569365600Y-51666600D01*
X547878000Y-117589800D02*
X547878000Y-63500000D01*
X547856700Y-121111100D02*
X547856700Y-117611100D01*
X547856700Y-117611100D02*
X547878000Y-117589800D01*
X157734000Y-442722000D02*
X158967800Y-441488200D01*
X158967800Y-441488200D02*
X158967800Y-426666700D01*
X153924000Y-442722000D02*
X157734000Y-442722000D01*
X152698900Y-441496900D02*
X153924000Y-442722000D01*
X152698900Y-440555600D02*
X152698900Y-441496900D01*
D18*
X161507800Y-426666700D02*
X161507800Y-441918062D01*
X158603853Y-444822009D02*
X151925309Y-444822009D01*
X161507800Y-441918062D02*
X158603853Y-444822009D01*
X151925309Y-444822009D02*
X150158900Y-443055600D01*
X150158900Y-443055600D02*
X150158900Y-440555600D01*
X147618900Y-440555600D02*
X147618900Y-443055600D01*
X147618900Y-443055600D02*
X150985319Y-446422019D01*
X150985319Y-446422019D02*
X159266598Y-446422019D01*
X159266598Y-446422019D02*
X164047800Y-441640817D01*
X164047800Y-441640817D02*
X164047800Y-429166700D01*
X164047800Y-429166700D02*
X164047800Y-426666700D01*
D17*
X166587800Y-426666700D02*
X166587800Y-442070679D01*
X166587800Y-442070679D02*
X160136451Y-448522028D01*
X160136451Y-448522028D02*
X149545328Y-448522028D01*
X149545328Y-448522028D02*
X145078900Y-444055600D01*
X145078900Y-444055600D02*
X145078900Y-440555600D01*
X160528000Y-465836000D02*
X152698900Y-473665100D01*
X152698900Y-473665100D02*
X152698900Y-510000000D01*
X171196000Y-465836000D02*
X160528000Y-465836000D01*
X172856700Y-467496700D02*
X171196000Y-465836000D01*
X172856700Y-468333300D02*
X172856700Y-467496700D01*
D18*
X150158900Y-510000000D02*
X150158900Y-473235238D01*
X150158900Y-473235238D02*
X159658148Y-463735990D01*
X159658148Y-463735990D02*
X173299390Y-463735990D01*
X173299390Y-463735990D02*
X175396700Y-465833300D01*
X175396700Y-465833300D02*
X175396700Y-468333300D01*
X177936700Y-468333300D02*
X177936700Y-465833300D01*
X177936700Y-465833300D02*
X174239380Y-462135980D01*
X174239380Y-462135980D02*
X158995403Y-462135980D01*
X147618900Y-507500000D02*
X147618900Y-510000000D01*
X158995403Y-462135980D02*
X147618900Y-473512483D01*
X147618900Y-473512483D02*
X147618900Y-507500000D01*
D17*
X145078900Y-510000000D02*
X145078900Y-473082621D01*
X145078900Y-473082621D02*
X158125550Y-460035971D01*
X158125550Y-460035971D02*
X175679371Y-460035971D01*
X175679371Y-460035971D02*
X180476700Y-464833300D01*
X180476700Y-464833300D02*
X180476700Y-468333300D01*
X180476700Y-523888900D02*
X180476700Y-520959038D01*
X180476700Y-520959038D02*
X175179632Y-515661970D01*
X175179632Y-515661970D02*
X164264867Y-515661971D01*
X164264867Y-515661971D02*
X159145790Y-520781048D01*
X159145790Y-520781048D02*
X159145790Y-523710910D01*
X159145790Y-523710910D02*
X158967800Y-523888900D01*
D18*
X161507800Y-523888900D02*
X161507800Y-521388900D01*
X161507800Y-521388900D02*
X165134720Y-517761980D01*
X165134720Y-517761980D02*
X174309780Y-517761980D01*
X174309780Y-517761980D02*
X177936700Y-521388900D01*
X177936700Y-521388900D02*
X177936700Y-523888900D01*
X175396700Y-523888900D02*
X175396700Y-521388900D01*
X175396700Y-521388900D02*
X173369790Y-519361990D01*
X173369790Y-519361990D02*
X166074710Y-519361990D01*
X166074710Y-519361990D02*
X164047800Y-521388900D01*
X164047800Y-521388900D02*
X164047800Y-523888900D01*
D17*
X166587800Y-523888900D02*
X166587800Y-523530200D01*
X166587800Y-523530200D02*
X168656000Y-521462000D01*
X168656000Y-521462000D02*
X171196000Y-521462000D01*
X171196000Y-521462000D02*
X172856700Y-523122700D01*
X172856700Y-523122700D02*
X172856700Y-523888900D01*
X182118000Y-499110000D02*
X180476700Y-497468700D01*
X180476700Y-497468700D02*
X180476700Y-482222300D01*
X184404000Y-499110000D02*
X182118000Y-499110000D01*
X186745600Y-496768400D02*
X184404000Y-499110000D01*
X186745600Y-496111100D02*
X186745600Y-496768400D01*
D18*
X177936700Y-482222300D02*
X177936700Y-497898562D01*
X177936700Y-497898562D02*
X181248147Y-501210009D01*
X181248147Y-501210009D02*
X186686691Y-501210009D01*
X186686691Y-501210009D02*
X189285600Y-498611100D01*
X189285600Y-498611100D02*
X189285600Y-496111100D01*
X191825600Y-496111100D02*
X191825600Y-498611100D01*
X187626681Y-502810019D02*
X180585402Y-502810019D01*
X175396700Y-484722300D02*
X175396700Y-482222300D01*
X191825600Y-498611100D02*
X187626681Y-502810019D01*
X180585402Y-502810019D02*
X175396700Y-497621317D01*
X175396700Y-497621317D02*
X175396700Y-484722300D01*
D17*
X172856700Y-482222300D02*
X172856700Y-498051179D01*
X172856700Y-498051179D02*
X179715549Y-504910028D01*
X179715549Y-504910028D02*
X189066672Y-504910028D01*
X189066672Y-504910028D02*
X194365600Y-499611100D01*
X194365600Y-499611100D02*
X194365600Y-496111100D01*
X195580000Y-359410000D02*
X194365600Y-358195600D01*
X194365600Y-358195600D02*
X194365600Y-357222200D01*
X197612000Y-359410000D02*
X195580000Y-359410000D01*
X200634400Y-356387600D02*
X197612000Y-359410000D01*
X200634400Y-343333400D02*
X200634400Y-356387600D01*
D18*
X191825600Y-357222200D02*
X191825600Y-359722200D01*
X191825600Y-359722200D02*
X193613410Y-361510010D01*
X193613410Y-361510010D02*
X198481853Y-361510009D01*
X198481853Y-361510009D02*
X203174400Y-356817462D01*
X203174400Y-356817462D02*
X203174400Y-345833400D01*
X203174400Y-345833400D02*
X203174400Y-343333400D01*
X205714400Y-343333400D02*
X205714400Y-356540216D01*
X205714400Y-356540216D02*
X199144597Y-363110018D01*
X199144597Y-363110018D02*
X192673418Y-363110018D01*
X192673418Y-363110018D02*
X189285600Y-359722200D01*
X189285600Y-359722200D02*
X189285600Y-357222200D01*
D17*
X186745600Y-357222200D02*
X186745600Y-360722200D01*
X200014450Y-365210027D02*
X208254400Y-356970077D01*
X186745600Y-360722200D02*
X191233428Y-365210028D01*
X191233428Y-365210028D02*
X200014450Y-365210027D01*
X208254400Y-356970077D02*
X208254400Y-346833400D01*
X208254400Y-346833400D02*
X208254400Y-343333400D01*
X198882000Y-452882000D02*
X200634400Y-454634400D01*
X200634400Y-454634400D02*
X200634400Y-468333300D01*
X196088000Y-452882000D02*
X198882000Y-452882000D01*
X194525600Y-454444400D02*
X196088000Y-452882000D01*
X194365600Y-454444400D02*
X194525600Y-454444400D01*
D18*
X191825600Y-454444400D02*
X191825600Y-453613121D01*
X191825600Y-453613121D02*
X194656731Y-450781990D01*
X203174400Y-454204538D02*
X203174400Y-465833300D01*
X194656731Y-450781990D02*
X199751853Y-450781991D01*
X203174400Y-465833300D02*
X203174400Y-468333300D01*
X199751853Y-450781991D02*
X203174400Y-454204538D01*
X205714400Y-468333300D02*
X205714400Y-454481783D01*
X192048018Y-449181982D02*
X189285600Y-451944400D01*
X205714400Y-454481783D02*
X200414597Y-449181982D01*
X200414597Y-449181982D02*
X192048018Y-449181982D01*
X189285600Y-451944400D02*
X189285600Y-454444400D01*
D17*
X186745600Y-454444400D02*
X186745600Y-451514538D01*
X186745600Y-451514538D02*
X191178166Y-447081972D01*
X208254400Y-454051923D02*
X208254400Y-464833300D01*
X191178166Y-447081972D02*
X201284450Y-447081973D01*
X201284450Y-447081973D02*
X208254400Y-454051923D01*
X208254400Y-464833300D02*
X208254400Y-468333300D01*
X208254400Y-523888900D02*
X208166900Y-523888900D01*
X208076410Y-523798410D02*
X208076410Y-520781048D01*
X208166900Y-523888900D02*
X208076410Y-523798410D01*
X208076410Y-520781048D02*
X202957333Y-515661971D01*
X202957333Y-515661971D02*
X191472529Y-515661971D01*
X186745600Y-520388900D02*
X186745600Y-523888900D01*
X191472529Y-515661971D02*
X186745600Y-520388900D01*
D18*
X189285600Y-523888900D02*
X189285600Y-521388900D01*
X189285600Y-521388900D02*
X192912520Y-517761980D01*
X192912520Y-517761980D02*
X202087480Y-517761980D01*
X202087480Y-517761980D02*
X205714400Y-521388900D01*
X205714400Y-521388900D02*
X205714400Y-523888900D01*
X203174400Y-523888900D02*
X203174400Y-521388900D01*
X203174400Y-521388900D02*
X201147490Y-519361990D01*
X201147490Y-519361990D02*
X193852510Y-519361990D01*
X193852510Y-519361990D02*
X191825600Y-521388900D01*
X191825600Y-521388900D02*
X191825600Y-523888900D01*
D17*
X198882000Y-521462000D02*
X200634400Y-523214400D01*
X200634400Y-523214400D02*
X200634400Y-523888900D01*
X196088000Y-521462000D02*
X198882000Y-521462000D01*
X194365600Y-523184400D02*
X196088000Y-521462000D01*
X194365600Y-523888900D02*
X194365600Y-523184400D01*
X200634400Y-385000000D02*
X200634400Y-371553121D01*
X200634400Y-371553121D02*
X208671550Y-363515971D01*
X208671550Y-363515971D02*
X218048171Y-363515971D01*
X218048171Y-363515971D02*
X222143300Y-367611100D01*
X222143300Y-367611100D02*
X222143300Y-371111100D01*
D18*
X219603300Y-371111100D02*
X219603300Y-368611100D01*
X219603300Y-368611100D02*
X216608180Y-365615980D01*
X203174400Y-382500000D02*
X203174400Y-385000000D01*
X216608180Y-365615980D02*
X209541403Y-365615980D01*
X209541403Y-365615980D02*
X203174400Y-371982983D01*
X203174400Y-371982983D02*
X203174400Y-382500000D01*
X205714400Y-385000000D02*
X205714400Y-371705738D01*
X205714400Y-371705738D02*
X210204148Y-367215990D01*
X217063300Y-368611100D02*
X217063300Y-371111100D01*
X210204148Y-367215990D02*
X215668190Y-367215990D01*
X215668190Y-367215990D02*
X217063300Y-368611100D01*
D17*
X211074000Y-369316000D02*
X208254400Y-372135600D01*
X208254400Y-372135600D02*
X208254400Y-385000000D01*
X213868000Y-369316000D02*
X211074000Y-369316000D01*
X214523300Y-369971300D02*
X213868000Y-369316000D01*
X214523300Y-371111100D02*
X214523300Y-369971300D01*
X200634400Y-398888900D02*
X200634400Y-414830879D01*
X200634400Y-414830879D02*
X207401549Y-421598028D01*
X207401549Y-421598028D02*
X216822972Y-421598028D01*
X216822972Y-421598028D02*
X222143300Y-416277700D01*
X222143300Y-416277700D02*
X222143300Y-412777700D01*
D18*
X219603300Y-412777700D02*
X219603300Y-415277700D01*
X208271402Y-419498019D02*
X203174400Y-414401017D01*
X219603300Y-415277700D02*
X215382981Y-419498019D01*
X215382981Y-419498019D02*
X208271402Y-419498019D01*
X203174400Y-414401017D02*
X203174400Y-401388900D01*
X203174400Y-401388900D02*
X203174400Y-398888900D01*
X205714400Y-398888900D02*
X205714400Y-414678262D01*
X214442991Y-417898009D02*
X217063300Y-415277700D01*
X205714400Y-414678262D02*
X208934147Y-417898009D01*
X208934147Y-417898009D02*
X214442991Y-417898009D01*
X217063300Y-415277700D02*
X217063300Y-412777700D01*
D17*
X209804000Y-415798000D02*
X208254400Y-414248400D01*
X208254400Y-414248400D02*
X208254400Y-398888900D01*
X213106000Y-415798000D02*
X209804000Y-415798000D01*
X214523300Y-414380700D02*
X213106000Y-415798000D01*
X214523300Y-412777700D02*
X214523300Y-414380700D01*
X208254400Y-496111100D02*
X208254400Y-499611100D01*
X208254400Y-499611100D02*
X209531300Y-500888000D01*
X209531300Y-500888000D02*
X211312075Y-500888000D01*
X211312075Y-500888000D02*
X218400142Y-493799933D01*
X277698900Y-520388900D02*
X277698900Y-523888900D01*
X218400142Y-493799933D02*
X251692411Y-493799934D01*
X277698900Y-519806423D02*
X277698900Y-520388900D01*
X251692411Y-493799934D02*
X277698900Y-519806423D01*
D18*
X211377957Y-503791980D02*
X208389980Y-503791980D01*
X205714400Y-501116400D02*
X205714400Y-498611100D01*
X208389980Y-503791980D02*
X205714400Y-501116400D01*
X205714400Y-498611100D02*
X205714400Y-496111100D01*
X219269994Y-495899943D02*
X211377957Y-503791980D01*
X275158900Y-523888900D02*
X275158900Y-520236284D01*
X275158900Y-520236284D02*
X250822558Y-495899943D01*
X250822558Y-495899943D02*
X219269994Y-495899943D01*
X250159814Y-497499952D02*
X272618900Y-519959038D01*
X272618900Y-519959038D02*
X272618900Y-523888900D01*
X212040701Y-505391990D02*
X219932740Y-497499951D01*
X219932740Y-497499951D02*
X250159814Y-497499952D01*
X205925990Y-505391990D02*
X212040701Y-505391990D01*
X203174400Y-502826390D02*
X204470000Y-504121990D01*
X204470000Y-504121990D02*
X204655990Y-504121990D01*
X204655990Y-504121990D02*
X205925990Y-505391990D01*
X203174400Y-496111100D02*
X203174400Y-502826390D01*
D17*
X270078900Y-523888900D02*
X270078900Y-520388900D01*
X270078900Y-520388900D02*
X249289961Y-499599961D01*
X249289961Y-499599961D02*
X220802592Y-499599961D01*
X220802592Y-499599961D02*
X212910553Y-507492000D01*
X212910553Y-507492000D02*
X204724000Y-507492000D01*
X204724000Y-507492000D02*
X200634400Y-503402400D01*
X200634400Y-503402400D02*
X200634400Y-496111100D01*
D18*
X225298000Y-186182000D02*
X223298000Y-186182000D01*
X223298000Y-186182000D02*
X219603300Y-182487300D01*
X219603300Y-182487300D02*
X219603300Y-179166700D01*
X219603300Y-179166700D02*
X219603300Y-176666700D01*
X217063300Y-176666700D02*
X217063300Y-183979300D01*
X217063300Y-183979300D02*
X225298000Y-192214000D01*
D17*
X225806000Y-345694000D02*
X228166600Y-343333400D01*
X228166600Y-343333400D02*
X228412200Y-343333400D01*
X224028000Y-345694000D02*
X225806000Y-345694000D01*
X222143300Y-343809300D02*
X224028000Y-345694000D01*
X222143300Y-343333300D02*
X222143300Y-343809300D01*
D18*
X230952200Y-343333400D02*
X230952200Y-345833400D01*
X230952200Y-345833400D02*
X228991590Y-347794010D01*
X228991590Y-347794010D02*
X221564010Y-347794010D01*
X221564010Y-347794010D02*
X219603300Y-345833300D01*
X219603300Y-345833300D02*
X219603300Y-343333300D01*
X217063300Y-343333300D02*
X217063300Y-345833300D01*
X217063300Y-345833300D02*
X220624020Y-349394020D01*
X220624020Y-349394020D02*
X229931580Y-349394020D01*
X229931580Y-349394020D02*
X233492200Y-345833400D01*
X233492200Y-345833400D02*
X233492200Y-343333400D01*
D17*
X236032200Y-343333400D02*
X236032200Y-346833400D01*
X236032200Y-346833400D02*
X231371571Y-351494029D01*
X231371571Y-351494029D02*
X219184029Y-351494029D01*
X219184029Y-351494029D02*
X214523300Y-346833300D01*
X214523300Y-346833300D02*
X214523300Y-343333300D01*
X224282000Y-508000000D02*
X222143300Y-510138700D01*
X222143300Y-510138700D02*
X222143300Y-523888900D01*
X227076000Y-508000000D02*
X224282000Y-508000000D01*
X228412200Y-509336200D02*
X227076000Y-508000000D01*
X228412200Y-510000000D02*
X228412200Y-509336200D01*
D18*
X219603300Y-523888900D02*
X219603300Y-509708838D01*
X230952200Y-507500000D02*
X230952200Y-510000000D01*
X219603300Y-509708838D02*
X223412148Y-505899990D01*
X229352190Y-505899990D02*
X230952200Y-507500000D01*
X223412148Y-505899990D02*
X229352190Y-505899990D01*
X233492200Y-510000000D02*
X233492200Y-507500000D01*
X233492200Y-507500000D02*
X230292180Y-504299980D01*
X230292180Y-504299980D02*
X222749403Y-504299980D01*
X217063300Y-521388900D02*
X217063300Y-523888900D01*
X222749403Y-504299980D02*
X217063300Y-509986083D01*
X217063300Y-509986083D02*
X217063300Y-521388900D01*
D17*
X214523300Y-523888900D02*
X214523300Y-509556221D01*
X214523300Y-509556221D02*
X221879551Y-502199970D01*
X221879551Y-502199970D02*
X231162033Y-502199971D01*
X231162033Y-502199971D02*
X235854210Y-506892148D01*
X235854210Y-506892148D02*
X235854210Y-509822010D01*
X235854210Y-509822010D02*
X236032200Y-510000000D01*
X263810000Y-412777800D02*
X263810000Y-397085522D01*
X263810000Y-397085522D02*
X244718449Y-377993971D01*
X244718449Y-377993971D02*
X231918229Y-377993971D01*
X231918229Y-377993971D02*
X228412200Y-381500000D01*
X228412200Y-381500000D02*
X228412200Y-385000000D01*
D18*
X230952200Y-385000000D02*
X230952200Y-382500000D01*
X230952200Y-382500000D02*
X233358220Y-380093980D01*
X233358220Y-380093980D02*
X243848596Y-380093980D01*
X243848596Y-380093980D02*
X261270000Y-397515384D01*
X261270000Y-397515384D02*
X261270000Y-410277800D01*
X261270000Y-410277800D02*
X261270000Y-412777800D01*
X258730000Y-412777800D02*
X258730000Y-397238138D01*
X258730000Y-397238138D02*
X243185852Y-381693990D01*
X243185852Y-381693990D02*
X234298210Y-381693990D01*
X234298210Y-381693990D02*
X233492200Y-382500000D01*
X233492200Y-382500000D02*
X233492200Y-385000000D01*
D17*
X242316000Y-383794000D02*
X256190000Y-397668000D01*
X256190000Y-397668000D02*
X256190000Y-412777800D01*
X236982000Y-383794000D02*
X242316000Y-383794000D01*
X236032200Y-384743800D02*
X236982000Y-383794000D01*
X236032200Y-385000000D02*
X236032200Y-384743800D01*
X240538000Y-424688000D02*
X242301100Y-426451100D01*
X242301100Y-426451100D02*
X242301100Y-426666700D01*
X237490000Y-424688000D02*
X240538000Y-424688000D01*
X236032200Y-426145800D02*
X237490000Y-424688000D01*
X236032200Y-426666700D02*
X236032200Y-426145800D01*
D18*
X244841100Y-426666700D02*
X244841100Y-424166700D01*
X244841100Y-424166700D02*
X243262390Y-422587990D01*
X243262390Y-422587990D02*
X235070910Y-422587990D01*
X235070910Y-422587990D02*
X233492200Y-424166700D01*
X233492200Y-424166700D02*
X233492200Y-426666700D01*
X230952200Y-426666700D02*
X230952200Y-424443946D01*
X230952200Y-424443946D02*
X234408165Y-420987980D01*
X234408165Y-420987980D02*
X244202380Y-420987980D01*
X244202380Y-420987980D02*
X247381100Y-424166700D01*
X247381100Y-424166700D02*
X247381100Y-426666700D01*
D17*
X249921100Y-426666700D02*
X249921100Y-423736838D01*
X249921100Y-423736838D02*
X245072233Y-418887971D01*
X245072233Y-418887971D02*
X232690929Y-418887971D01*
X232690929Y-418887971D02*
X228412200Y-423166700D01*
X228412200Y-423166700D02*
X228412200Y-426666700D01*
X228412200Y-440555600D02*
X228412200Y-469278679D01*
X228412200Y-469278679D02*
X235341549Y-476208028D01*
X235341549Y-476208028D02*
X245546372Y-476208028D01*
X245546372Y-476208028D02*
X249921100Y-471833300D01*
X249921100Y-471833300D02*
X249921100Y-468333300D01*
D18*
X247381100Y-468333300D02*
X247381100Y-470556055D01*
X247381100Y-470556055D02*
X243829136Y-474108019D01*
X243829136Y-474108019D02*
X236211402Y-474108019D01*
X230952200Y-468848817D02*
X230952200Y-443055600D01*
X236211402Y-474108019D02*
X230952200Y-468848817D01*
X230952200Y-443055600D02*
X230952200Y-440555600D01*
X233492200Y-440555600D02*
X233492200Y-469126062D01*
X233492200Y-469126062D02*
X236874147Y-472508009D01*
X236874147Y-472508009D02*
X243166391Y-472508009D01*
X243166391Y-472508009D02*
X244841100Y-470833300D01*
X244841100Y-470833300D02*
X244841100Y-468333300D01*
D17*
X235966000Y-468630000D02*
X236032200Y-468563800D01*
X236032200Y-468563800D02*
X236032200Y-440555600D01*
X237744000Y-470408000D02*
X235966000Y-468630000D01*
X241764786Y-470408000D02*
X237744000Y-470408000D01*
X242301100Y-468333300D02*
X242301100Y-469871686D01*
X242301100Y-469871686D02*
X241764786Y-470408000D01*
X242301100Y-343333300D02*
X242301100Y-357945579D01*
X242301100Y-357945579D02*
X249819550Y-365464029D01*
X249819550Y-365464029D02*
X259068171Y-365464029D01*
X259068171Y-365464029D02*
X263810000Y-360722200D01*
X263810000Y-360722200D02*
X263810000Y-357222200D01*
D18*
X261270000Y-357222200D02*
X261270000Y-359722200D01*
X261270000Y-359722200D02*
X257628180Y-363364020D01*
X244841100Y-357515717D02*
X244841100Y-345833300D01*
X257628180Y-363364020D02*
X250689403Y-363364020D01*
X250689403Y-363364020D02*
X244841100Y-357515717D01*
X244841100Y-345833300D02*
X244841100Y-343333300D01*
X247381100Y-343333300D02*
X247381100Y-357792962D01*
X247381100Y-357792962D02*
X251352148Y-361764010D01*
X251352148Y-361764010D02*
X256688190Y-361764010D01*
X256688190Y-361764010D02*
X258730000Y-359722200D01*
X258730000Y-359722200D02*
X258730000Y-357222200D01*
D17*
X252222000Y-359664000D02*
X249921100Y-357363100D01*
X249921100Y-357363100D02*
X249921100Y-343333300D01*
X254762000Y-359664000D02*
X252222000Y-359664000D01*
X256190000Y-358236000D02*
X254762000Y-359664000D01*
X256190000Y-357222200D02*
X256190000Y-358236000D01*
X249921100Y-523888900D02*
X249921100Y-523508900D01*
X249921100Y-523508900D02*
X251714000Y-521716000D01*
X251714000Y-521716000D02*
X254017100Y-521716000D01*
X254017100Y-521716000D02*
X256190000Y-523888900D01*
D18*
X258730000Y-523888900D02*
X258730000Y-521388900D01*
X247381100Y-521388900D02*
X247381100Y-523888900D01*
X258730000Y-521388900D02*
X256957090Y-519615990D01*
X256957090Y-519615990D02*
X249154010Y-519615990D01*
X249154010Y-519615990D02*
X247381100Y-521388900D01*
X244841100Y-523888900D02*
X244841100Y-521388900D01*
X244841100Y-521388900D02*
X248214020Y-518015980D01*
X248214020Y-518015980D02*
X257919980Y-518015980D01*
X257919980Y-518015980D02*
X261270000Y-521366000D01*
X261270000Y-521366000D02*
X261270000Y-521388900D01*
X261270000Y-521388900D02*
X261270000Y-523888900D01*
D17*
X263810000Y-523888900D02*
X263810000Y-520388900D01*
X263810000Y-520388900D02*
X259337071Y-515915971D01*
X259337071Y-515915971D02*
X246774029Y-515915971D01*
X246774029Y-515915971D02*
X242301100Y-520388900D01*
X242301100Y-520388900D02*
X242301100Y-523888900D01*
D18*
X252984000Y-175006000D02*
X254984000Y-175006000D01*
X254984000Y-175006000D02*
X261270000Y-181292000D01*
X261270000Y-188055500D02*
X261270000Y-190555500D01*
X261270000Y-181292000D02*
X261270000Y-188055500D01*
X252984000Y-181038000D02*
X258730000Y-186784000D01*
X258730000Y-186784000D02*
X258730000Y-190555500D01*
D17*
X277698900Y-426666600D02*
X277698900Y-440179579D01*
X277698900Y-440179579D02*
X269610450Y-448268029D01*
X256190000Y-444055500D02*
X256190000Y-440555500D01*
X269610450Y-448268029D02*
X260402529Y-448268029D01*
X260402529Y-448268029D02*
X256190000Y-444055500D01*
D18*
X258730000Y-440555500D02*
X258730000Y-442778255D01*
X258730000Y-442778255D02*
X262119765Y-446168020D01*
X262119765Y-446168020D02*
X268740597Y-446168020D01*
X268740597Y-446168020D02*
X275158900Y-439749717D01*
X275158900Y-439749717D02*
X275158900Y-429166600D01*
X275158900Y-429166600D02*
X275158900Y-426666600D01*
X272618900Y-426666600D02*
X272618900Y-440026962D01*
X272618900Y-440026962D02*
X268077852Y-444568010D01*
X268077852Y-444568010D02*
X262782510Y-444568010D01*
X262782510Y-444568010D02*
X261270000Y-443055500D01*
X261270000Y-443055500D02*
X261270000Y-440555500D01*
D17*
X267208000Y-442468000D02*
X270078900Y-439597100D01*
X270078900Y-439597100D02*
X270078900Y-426666600D01*
X264922000Y-442468000D02*
X267208000Y-442468000D01*
X263810000Y-441356000D02*
X264922000Y-442468000D01*
X263810000Y-440555500D02*
X263810000Y-441356000D01*
X280736300Y-455101700D02*
X277698900Y-458139100D01*
X277698900Y-458139100D02*
X277698900Y-482222200D01*
X280736300Y-454914000D02*
X280736300Y-455101700D01*
X283967800Y-454444500D02*
X281205800Y-454444500D01*
X281205800Y-454444500D02*
X280736300Y-454914000D01*
D18*
X275158900Y-482222200D02*
X275158900Y-457521538D01*
X275158900Y-457521538D02*
X280835948Y-451844490D01*
X280835948Y-451844490D02*
X286407790Y-451844490D01*
X286407790Y-451844490D02*
X286507800Y-451944500D01*
X286507800Y-451944500D02*
X286507800Y-454444500D01*
X289047800Y-454444500D02*
X289047800Y-451944500D01*
X289047800Y-451944500D02*
X287347780Y-450244480D01*
X287347780Y-450244480D02*
X280173203Y-450244480D01*
X280173203Y-450244480D02*
X272618900Y-457798783D01*
X272618900Y-457798783D02*
X272618900Y-479722200D01*
X272618900Y-479722200D02*
X272618900Y-482222200D01*
D17*
X270078900Y-482222200D02*
X270078900Y-457368921D01*
X270078900Y-457368921D02*
X279303350Y-448144471D01*
X279303350Y-448144471D02*
X288787771Y-448144471D01*
X288787771Y-448144471D02*
X291587800Y-450944500D01*
X291587800Y-450944500D02*
X291587800Y-454444500D01*
D18*
X405892000Y-183896000D02*
X403892000Y-183896000D01*
X403892000Y-183896000D02*
X400158900Y-180162900D01*
X400158900Y-180162900D02*
X400158900Y-179166700D01*
X400158900Y-179166700D02*
X400158900Y-176666700D01*
X397618900Y-176666700D02*
X397618900Y-181654900D01*
X397618900Y-181654900D02*
X405892000Y-189928000D01*
X433578000Y-173228000D02*
X435578000Y-173228000D01*
X435578000Y-173228000D02*
X441825600Y-179475600D01*
X441825600Y-179475600D02*
X441825600Y-188055500D01*
X441825600Y-188055500D02*
X441825600Y-190555500D01*
X433578000Y-179260000D02*
X434992213Y-179260000D01*
X434992213Y-179260000D02*
X439285600Y-183553387D01*
X439285600Y-183553387D02*
X439285600Y-188055500D01*
X439285600Y-188055500D02*
X439285600Y-190555500D01*
D17*
X545846000Y-328168000D02*
X547856700Y-330178700D01*
X547856700Y-330178700D02*
X547856700Y-343333400D01*
X543560000Y-328168000D02*
X545846000Y-328168000D01*
X542283600Y-329444400D02*
X543560000Y-328168000D01*
X541587800Y-329444400D02*
X542283600Y-329444400D01*
D18*
X550396700Y-343333400D02*
X550396700Y-329748838D01*
X550396700Y-329748838D02*
X546715852Y-326067990D01*
X546715852Y-326067990D02*
X541592931Y-326067990D01*
X541592931Y-326067990D02*
X539725790Y-327935131D01*
X539725790Y-327935131D02*
X539725790Y-328422000D01*
X536507800Y-329444400D02*
X536507800Y-328613121D01*
X536507800Y-328613121D02*
X540652941Y-324467980D01*
X540652941Y-324467980D02*
X547378597Y-324467980D01*
X547378597Y-324467980D02*
X552936700Y-330026083D01*
X552936700Y-340833400D02*
X552936700Y-343333400D01*
X552936700Y-330026083D02*
X552936700Y-340833400D01*
D17*
X555476700Y-343333400D02*
X555476700Y-329596221D01*
X555476700Y-329596221D02*
X548248449Y-322367970D01*
X548248449Y-322367970D02*
X537544230Y-322367970D01*
X537544230Y-322367970D02*
X533967800Y-325944400D01*
X533967800Y-325944400D02*
X533967800Y-329444400D01*
X547856700Y-287777800D02*
X547856700Y-301043179D01*
X547856700Y-301043179D02*
X556397550Y-309584029D01*
X564948271Y-309584029D02*
X569365600Y-305166700D01*
X556397550Y-309584029D02*
X564948271Y-309584029D01*
X569365600Y-305166700D02*
X569365600Y-301666700D01*
D18*
X566825600Y-301666700D02*
X566825600Y-304166700D01*
X566825600Y-304166700D02*
X563508280Y-307484020D01*
X563508280Y-307484020D02*
X557267403Y-307484020D01*
X557267403Y-307484020D02*
X550396700Y-300613317D01*
X550396700Y-290277800D02*
X550396700Y-287777800D01*
X550396700Y-300613317D02*
X550396700Y-290277800D01*
X552936700Y-287777800D02*
X552936700Y-300890562D01*
X552936700Y-300890562D02*
X557930148Y-305884010D01*
X557930148Y-305884010D02*
X562568290Y-305884010D01*
X562568290Y-305884010D02*
X564285600Y-304166700D01*
X564285600Y-304166700D02*
X564285600Y-301666700D01*
D17*
X558800000Y-303784000D02*
X555476700Y-300460700D01*
X555476700Y-300460700D02*
X555476700Y-287777800D01*
X560578000Y-303784000D02*
X558800000Y-303784000D01*
X561745600Y-302616400D02*
X560578000Y-303784000D01*
X561745600Y-301666700D02*
X561745600Y-302616400D01*
X560578000Y-605028000D02*
X561745600Y-606195600D01*
X561745600Y-606195600D02*
X561745600Y-607222200D01*
X557022000Y-605028000D02*
X560578000Y-605028000D01*
X555476700Y-606573300D02*
X557022000Y-605028000D01*
X555476700Y-607222200D02*
X555476700Y-606573300D01*
D18*
X552936700Y-607222200D02*
X552936700Y-604722200D01*
X552936700Y-604722200D02*
X554730910Y-602927990D01*
X554730910Y-602927990D02*
X562491390Y-602927990D01*
X562491390Y-602927990D02*
X564285600Y-604722200D01*
X564285600Y-604722200D02*
X564285600Y-607222200D01*
X566825600Y-607222200D02*
X566825600Y-604722200D01*
X553790920Y-601327980D02*
X550396700Y-604722200D01*
X566825600Y-604722200D02*
X563431380Y-601327980D01*
X563431380Y-601327980D02*
X553790920Y-601327980D01*
X550396700Y-604722200D02*
X550396700Y-607222200D01*
D17*
X547856700Y-607222200D02*
X547856700Y-603722200D01*
X547856700Y-603722200D02*
X552350929Y-599227971D01*
X552350929Y-599227971D02*
X564871371Y-599227971D01*
X564871371Y-599227971D02*
X569365600Y-603722200D01*
X569365600Y-603722200D02*
X569365600Y-607222200D01*
X574294000Y-340614000D02*
X575634400Y-341954400D01*
X575634400Y-341954400D02*
X575634400Y-343333300D01*
X572008000Y-340614000D02*
X574294000Y-340614000D01*
X569365600Y-343256400D02*
X572008000Y-340614000D01*
X569365600Y-343333300D02*
X569365600Y-343256400D01*
D18*
X578174400Y-343333300D02*
X578174400Y-340833300D01*
X578174400Y-340833300D02*
X575855090Y-338513990D01*
X575855090Y-338513990D02*
X569144910Y-338513990D01*
X569144910Y-338513990D02*
X566825600Y-340833300D01*
X566825600Y-340833300D02*
X566825600Y-343333300D01*
X564285600Y-343333300D02*
X564285600Y-340833300D01*
X564285600Y-340833300D02*
X568204920Y-336913980D01*
X568204920Y-336913980D02*
X576795080Y-336913980D01*
X576795080Y-336913980D02*
X580714400Y-340833300D01*
X580714400Y-340833300D02*
X580714400Y-343333300D01*
D17*
X583254400Y-343333300D02*
X583254400Y-339833300D01*
X583254400Y-339833300D02*
X578235071Y-334813971D01*
X578235071Y-334813971D02*
X566764929Y-334813971D01*
X566764929Y-334813971D02*
X561745600Y-339833300D01*
X561745600Y-339833300D02*
X561745600Y-343333300D01*
X561745600Y-537777800D02*
X561745600Y-540707662D01*
X567349966Y-546312028D02*
X575934450Y-546312027D01*
X561745600Y-540707662D02*
X567349966Y-546312028D01*
X575934450Y-546312027D02*
X583254400Y-538992077D01*
X583254400Y-538992077D02*
X583254400Y-471833400D01*
X583254400Y-471833400D02*
X583254400Y-468333400D01*
D18*
X580714400Y-468333400D02*
X580714400Y-538562216D01*
X580714400Y-538562216D02*
X575064597Y-544212018D01*
X575064597Y-544212018D02*
X568219818Y-544212018D01*
X568219818Y-544212018D02*
X564285600Y-540277800D01*
X564285600Y-540277800D02*
X564285600Y-537777800D01*
X566825600Y-537777800D02*
X566825600Y-540277800D01*
X578174400Y-470833400D02*
X578174400Y-468333400D01*
X566825600Y-540277800D02*
X569159810Y-542612010D01*
X569159810Y-542612010D02*
X574401853Y-542612009D01*
X578174400Y-538839462D02*
X578174400Y-470833400D01*
X574401853Y-542612009D02*
X578174400Y-538839462D01*
D17*
X573532000Y-540512000D02*
X575634400Y-538409600D01*
X575634400Y-538409600D02*
X575634400Y-468333400D01*
X571500000Y-540512000D02*
X573532000Y-540512000D01*
X569365600Y-538377600D02*
X571500000Y-540512000D01*
X569365600Y-537777800D02*
X569365600Y-538377600D01*
X585724000Y-124206000D02*
X589523300Y-120406700D01*
X589523300Y-120406700D02*
X589523300Y-107222200D01*
X584454000Y-124206000D02*
X585724000Y-124206000D01*
X583254400Y-123006400D02*
X584454000Y-124206000D01*
X583254400Y-121111100D02*
X583254400Y-123006400D01*
D18*
X592063300Y-107222200D02*
X592063300Y-120836562D01*
X592063300Y-120836562D02*
X586593853Y-126306009D01*
X586593853Y-126306009D02*
X583409309Y-126306009D01*
X583409309Y-126306009D02*
X580714400Y-123611100D01*
X580714400Y-123611100D02*
X580714400Y-121111100D01*
X578174400Y-121111100D02*
X578174400Y-123611100D01*
X578174400Y-123611100D02*
X582469319Y-127906019D01*
X594603300Y-120559317D02*
X594603300Y-109722200D01*
X582469319Y-127906019D02*
X587256598Y-127906019D01*
X587256598Y-127906019D02*
X594603300Y-120559317D01*
X594603300Y-109722200D02*
X594603300Y-107222200D01*
D17*
X597143300Y-107222200D02*
X597143300Y-120989179D01*
X597143300Y-120989179D02*
X588126451Y-130006028D01*
X588126451Y-130006028D02*
X581029328Y-130006028D01*
X581029328Y-130006028D02*
X575634400Y-124611100D01*
X575634400Y-124611100D02*
X575634400Y-121111100D01*
X597143300Y-287777800D02*
X597143300Y-301329179D01*
X597143300Y-301329179D02*
X588634450Y-309838029D01*
X588634450Y-309838029D02*
X580305729Y-309838029D01*
X580305729Y-309838029D02*
X575634400Y-305166700D01*
X575634400Y-305166700D02*
X575634400Y-301666700D01*
D18*
X578174400Y-301666700D02*
X578174400Y-304166700D01*
X581745720Y-307738020D02*
X587764597Y-307738020D01*
X578174400Y-304166700D02*
X581745720Y-307738020D01*
X594603300Y-290277800D02*
X594603300Y-287777800D01*
X587764597Y-307738020D02*
X594603300Y-300899317D01*
X594603300Y-300899317D02*
X594603300Y-290277800D01*
X592063300Y-287777800D02*
X592063300Y-301176562D01*
X592063300Y-301176562D02*
X587101852Y-306138010D01*
X582685710Y-306138010D02*
X580714400Y-304166700D01*
X587101852Y-306138010D02*
X582685710Y-306138010D01*
X580714400Y-304166700D02*
X580714400Y-301666700D01*
D17*
X586232000Y-304038000D02*
X589523300Y-300746700D01*
X589523300Y-300746700D02*
X589523300Y-287777800D01*
X584962000Y-304038000D02*
X586232000Y-304038000D01*
X583254400Y-302330400D02*
X584962000Y-304038000D01*
X583254400Y-301666700D02*
X583254400Y-302330400D01*
X588010000Y-604774000D02*
X589523300Y-606287300D01*
X589523300Y-606287300D02*
X589523300Y-607222200D01*
X585470000Y-604774000D02*
X588010000Y-604774000D01*
X583254400Y-606989600D02*
X585470000Y-604774000D01*
X583254400Y-607222200D02*
X583254400Y-606989600D01*
D18*
X592063300Y-607222200D02*
X592063300Y-604722200D01*
X592063300Y-604722200D02*
X590015090Y-602673990D01*
X590015090Y-602673990D02*
X582762610Y-602673990D01*
X582762610Y-602673990D02*
X580714400Y-604722200D01*
X580714400Y-604722200D02*
X580714400Y-607222200D01*
X578174400Y-607222200D02*
X578174400Y-604722200D01*
X578174400Y-604722200D02*
X581822620Y-601073980D01*
X581822620Y-601073980D02*
X590955080Y-601073980D01*
X590955080Y-601073980D02*
X594603300Y-604722200D01*
X594603300Y-604722200D02*
X594603300Y-607222200D01*
D17*
X597143300Y-607222200D02*
X597143300Y-604292338D01*
X597143300Y-604292338D02*
X591824933Y-598973971D01*
X591824933Y-598973971D02*
X580382629Y-598973971D01*
X580382629Y-598973971D02*
X575634400Y-603722200D01*
X575634400Y-603722200D02*
X575634400Y-607222200D01*
X714523300Y-107222200D02*
X714523300Y-107960200D01*
X714523300Y-107960200D02*
X689610000Y-132873500D01*
X641233551Y-223561970D02*
X594683530Y-223561970D01*
X689610000Y-132873500D02*
X689610000Y-160512076D01*
X594683530Y-223561970D02*
X589523300Y-228722200D01*
X689610000Y-160512076D02*
X661965973Y-188156103D01*
X661965973Y-188156103D02*
X661965972Y-211286028D01*
X661965972Y-211286028D02*
X658015591Y-215236409D01*
X649379590Y-215415931D02*
X641233551Y-223561970D01*
X658015591Y-215236409D02*
X658015591Y-215415931D01*
X658015591Y-215415931D02*
X649379590Y-215415931D01*
X589523300Y-228722200D02*
X589523300Y-232222200D01*
D18*
X717063300Y-107222200D02*
X717063300Y-109475946D01*
X717063300Y-109475946D02*
X692259981Y-134279264D01*
X658885443Y-217515941D02*
X650249442Y-217515941D01*
X692259981Y-134279264D02*
X692259981Y-160831956D01*
X692259981Y-160831956D02*
X664065982Y-189025956D01*
X664065982Y-189025956D02*
X664065982Y-212335402D01*
X664065982Y-212335402D02*
X658885443Y-217515941D01*
X596123520Y-225661980D02*
X592063300Y-229722200D01*
X650249442Y-217515941D02*
X642103404Y-225661980D01*
X642103404Y-225661980D02*
X596123520Y-225661980D01*
X592063300Y-229722200D02*
X592063300Y-232222200D01*
X719603300Y-107222200D02*
X719603300Y-109198700D01*
X719603300Y-109198700D02*
X693859991Y-134942009D01*
X693859991Y-134942009D02*
X693859991Y-161494700D01*
X693859991Y-161494700D02*
X665665991Y-189688700D01*
X665665991Y-189688700D02*
X665665990Y-212998148D01*
X665665990Y-212998148D02*
X659548187Y-219115951D01*
X642766148Y-227261990D02*
X597063510Y-227261990D01*
X659548187Y-219115951D02*
X650912187Y-219115951D01*
X650912187Y-219115951D02*
X642766148Y-227261990D01*
X597063510Y-227261990D02*
X594603300Y-229722200D01*
X594603300Y-229722200D02*
X594603300Y-232222200D01*
D17*
X597143300Y-232222200D02*
X597143300Y-230896700D01*
X597143300Y-230896700D02*
X598678000Y-229362000D01*
X651782039Y-221215961D02*
X660418039Y-221215961D01*
X598678000Y-229362000D02*
X643636000Y-229362000D01*
X643636000Y-229362000D02*
X651782039Y-221215961D01*
X660418039Y-221215961D02*
X667766000Y-213868000D01*
X696965610Y-134942943D02*
X722143300Y-109765253D01*
X667766000Y-213868000D02*
X667766000Y-190558553D01*
X667766000Y-190558553D02*
X696965610Y-161358943D01*
X696965610Y-161358943D02*
X696965610Y-134942943D01*
X722143300Y-109765253D02*
X722143300Y-107222200D01*
X597143300Y-329444400D02*
X597143300Y-327162700D01*
X597143300Y-327162700D02*
X598170000Y-326136000D01*
X598170000Y-326136000D02*
X601980000Y-326136000D01*
X601980000Y-326136000D02*
X603412200Y-327568200D01*
X603412200Y-327568200D02*
X603412200Y-329444400D01*
D18*
X605952200Y-329444400D02*
X605952200Y-326944400D01*
X605952200Y-326944400D02*
X603043790Y-324035990D01*
X603043790Y-324035990D02*
X597300147Y-324035991D01*
X597300147Y-324035991D02*
X594603300Y-326732838D01*
X594603300Y-326732838D02*
X594603300Y-326944400D01*
X594603300Y-326944400D02*
X594603300Y-329444400D01*
X592063300Y-329444400D02*
X592063300Y-326944400D01*
X592063300Y-326944400D02*
X596571718Y-322435982D01*
X596571718Y-322435982D02*
X603983782Y-322435982D01*
X603983782Y-322435982D02*
X608492200Y-326944400D01*
X608492200Y-326944400D02*
X608492200Y-329444400D01*
D17*
X611032200Y-329444400D02*
X611032200Y-326514538D01*
X611032200Y-326514538D02*
X604853635Y-320335973D01*
X604853635Y-320335973D02*
X595131727Y-320335973D01*
X595131727Y-320335973D02*
X589523300Y-325944400D01*
X589523300Y-325944400D02*
X589523300Y-329444400D01*
X611032200Y-440555500D02*
X611032200Y-443485362D01*
X611032200Y-443485362D02*
X605487533Y-449030029D01*
X605487533Y-449030029D02*
X594497729Y-449030029D01*
X594497729Y-449030029D02*
X589523300Y-444055600D01*
X589523300Y-444055600D02*
X589523300Y-440555600D01*
D18*
X592063300Y-440555600D02*
X592063300Y-442778355D01*
X592063300Y-442778355D02*
X596214965Y-446930020D01*
X596214965Y-446930020D02*
X604617680Y-446930020D01*
X604617680Y-446930020D02*
X608492200Y-443055500D01*
X608492200Y-443055500D02*
X608492200Y-440555500D01*
X605952200Y-440555500D02*
X605952200Y-443055500D01*
X605952200Y-443055500D02*
X603677690Y-445330010D01*
X603677690Y-445330010D02*
X596877710Y-445330010D01*
X596877710Y-445330010D02*
X594603300Y-443055600D01*
X594603300Y-443055600D02*
X594603300Y-440555600D01*
D17*
X601472000Y-443230000D02*
X603412200Y-441289800D01*
X603412200Y-441289800D02*
X603412200Y-440555500D01*
X598678000Y-443230000D02*
X601472000Y-443230000D01*
X597143300Y-441695300D02*
X598678000Y-443230000D01*
X597143300Y-440555600D02*
X597143300Y-441695300D01*
X603412200Y-107222200D02*
X603412200Y-135618679D01*
X603412200Y-135618679D02*
X611007551Y-143214030D01*
X611007551Y-143214030D02*
X619636933Y-143214029D01*
X619636933Y-143214029D02*
X624743110Y-138107852D01*
X624743110Y-138107852D02*
X624743110Y-135177990D01*
X624743110Y-135177990D02*
X624921100Y-135000000D01*
D18*
X622381100Y-135000000D02*
X622381100Y-137500000D01*
X622381100Y-137500000D02*
X618767080Y-141114020D01*
X618767080Y-141114020D02*
X611877403Y-141114020D01*
X611877403Y-141114020D02*
X605952200Y-135188817D01*
X605952200Y-135188817D02*
X605952200Y-109722200D01*
X605952200Y-109722200D02*
X605952200Y-107222200D01*
X608492200Y-107222200D02*
X608492200Y-135466062D01*
X608492200Y-135466062D02*
X612540148Y-139514010D01*
X612540148Y-139514010D02*
X617827090Y-139514010D01*
X617827090Y-139514010D02*
X619841100Y-137500000D01*
X619841100Y-137500000D02*
X619841100Y-135000000D01*
D17*
X617301100Y-135000000D02*
X617301100Y-135046900D01*
X617301100Y-135046900D02*
X614934000Y-137414000D01*
X614934000Y-137414000D02*
X613410000Y-137414000D01*
X613410000Y-137414000D02*
X611032200Y-135036200D01*
X611032200Y-135036200D02*
X611032200Y-107222200D01*
X613410000Y-507746000D02*
X611032200Y-510123800D01*
X611032200Y-510123800D02*
X611032200Y-551666700D01*
X615442000Y-507746000D02*
X613410000Y-507746000D01*
X617301100Y-509605100D02*
X615442000Y-507746000D01*
X617301100Y-510000000D02*
X617301100Y-509605100D01*
D18*
X608492200Y-551666700D02*
X608492200Y-509693938D01*
X608492200Y-509693938D02*
X612540148Y-505645990D01*
X612540148Y-505645990D02*
X617987090Y-505645990D01*
X617987090Y-505645990D02*
X619841100Y-507500000D01*
X619841100Y-507500000D02*
X619841100Y-510000000D01*
X622381100Y-510000000D02*
X622381100Y-507500000D01*
X622381100Y-507500000D02*
X618927080Y-504045980D01*
X605952200Y-549166700D02*
X605952200Y-551666700D01*
X618927080Y-504045980D02*
X611877403Y-504045980D01*
X611877403Y-504045980D02*
X605952200Y-509971183D01*
X605952200Y-509971183D02*
X605952200Y-549166700D01*
D17*
X603412200Y-551666700D02*
X603412200Y-509541321D01*
X603412200Y-509541321D02*
X611007550Y-501945971D01*
X611007550Y-501945971D02*
X620367071Y-501945971D01*
X624921100Y-506500000D02*
X624921100Y-510000000D01*
X620367071Y-501945971D02*
X624921100Y-506500000D01*
X631190000Y-287777800D02*
X631190000Y-287274000D01*
X631190000Y-287274000D02*
X628904000Y-284988000D01*
X628904000Y-284988000D02*
X626872000Y-284988000D01*
X626872000Y-284988000D02*
X624921100Y-286938900D01*
X624921100Y-286938900D02*
X624921100Y-315555600D01*
D18*
X622381100Y-315555600D02*
X622381100Y-286509038D01*
X622381100Y-286509038D02*
X626002147Y-282887991D01*
X626002147Y-282887991D02*
X631340191Y-282887991D01*
X631340191Y-282887991D02*
X633730000Y-285277800D01*
X633730000Y-285277800D02*
X633730000Y-287777800D01*
X636270000Y-287777800D02*
X636270000Y-285277800D01*
X632280181Y-281287981D02*
X625339402Y-281287981D01*
X636270000Y-285277800D02*
X632280181Y-281287981D01*
X625339402Y-281287981D02*
X619841100Y-286786283D01*
X619841100Y-286786283D02*
X619841100Y-313055600D01*
X619841100Y-313055600D02*
X619841100Y-315555600D01*
D17*
X617301100Y-315555600D02*
X617301100Y-286356421D01*
X638810000Y-284277800D02*
X638810000Y-287777800D01*
X617301100Y-286356421D02*
X624469549Y-279187972D01*
X624469549Y-279187972D02*
X633720172Y-279187972D01*
X633720172Y-279187972D02*
X638810000Y-284277800D01*
X638810000Y-454444500D02*
X638810000Y-468450479D01*
X638810000Y-468450479D02*
X630290450Y-476970029D01*
X630290450Y-476970029D02*
X622437729Y-476970029D01*
X622437729Y-476970029D02*
X617301100Y-471833400D01*
X617301100Y-471833400D02*
X617301100Y-468333400D01*
D18*
X619841100Y-468333400D02*
X619841100Y-470833400D01*
X623877720Y-474870020D02*
X629420597Y-474870020D01*
X619841100Y-470833400D02*
X623877720Y-474870020D01*
X629420597Y-474870020D02*
X636270000Y-468020617D01*
X636270000Y-468020617D02*
X636270000Y-456944500D01*
X636270000Y-456944500D02*
X636270000Y-454444500D01*
X633730000Y-454444500D02*
X633730000Y-468297862D01*
X624817710Y-473270010D02*
X622381100Y-470833400D01*
X633730000Y-468297862D02*
X628757852Y-473270010D01*
X622381100Y-470833400D02*
X622381100Y-468333400D01*
X628757852Y-473270010D02*
X624817710Y-473270010D01*
D17*
X627888000Y-471170000D02*
X631190000Y-467868000D01*
X631190000Y-467868000D02*
X631190000Y-454444500D01*
X626618000Y-471170000D02*
X627888000Y-471170000D01*
X624921100Y-469473100D02*
X626618000Y-471170000D01*
X624921100Y-468333400D02*
X624921100Y-469473100D01*
X652698900Y-176666600D02*
X652698900Y-204625579D01*
X652698900Y-204625579D02*
X644768451Y-212556028D01*
X644768451Y-212556028D02*
X635801628Y-212556028D01*
X635801628Y-212556028D02*
X631190000Y-207944400D01*
X631190000Y-207944400D02*
X631190000Y-204444400D01*
D18*
X633730000Y-204444400D02*
X633730000Y-206944400D01*
X633730000Y-206944400D02*
X637241619Y-210456019D01*
X637241619Y-210456019D02*
X643898598Y-210456019D01*
X643898598Y-210456019D02*
X650158900Y-204195717D01*
X650158900Y-204195717D02*
X650158900Y-179166600D01*
X650158900Y-179166600D02*
X650158900Y-176666600D01*
X647618900Y-176666600D02*
X647618900Y-204472962D01*
X643235853Y-208856009D02*
X638181609Y-208856009D01*
X647618900Y-204472962D02*
X643235853Y-208856009D01*
X638181609Y-208856009D02*
X636270000Y-206944400D01*
X636270000Y-206944400D02*
X636270000Y-204444400D01*
D17*
X642366000Y-206756000D02*
X645078900Y-204043100D01*
X645078900Y-204043100D02*
X645078900Y-176666600D01*
X640080000Y-206756000D02*
X642366000Y-206756000D01*
X638810000Y-205486000D02*
X640080000Y-206756000D01*
X638810000Y-204444400D02*
X638810000Y-205486000D01*
X643636000Y-479806000D02*
X645078900Y-481248900D01*
X645078900Y-481248900D02*
X645078900Y-482222200D01*
X640588000Y-479806000D02*
X643636000Y-479806000D01*
X638810000Y-481584000D02*
X640588000Y-479806000D01*
X638810000Y-496111100D02*
X638810000Y-481584000D01*
D18*
X647618900Y-482222200D02*
X647618900Y-479722200D01*
X645602690Y-477705990D02*
X639718147Y-477705991D01*
X639718147Y-477705991D02*
X636270000Y-481154138D01*
X647618900Y-479722200D02*
X645602690Y-477705990D01*
X636270000Y-481154138D02*
X636270000Y-493611100D01*
X636270000Y-493611100D02*
X636270000Y-496111100D01*
X633730000Y-496111100D02*
X633730000Y-481431384D01*
X633730000Y-481431384D02*
X639055403Y-476105982D01*
X646542682Y-476105982D02*
X650158900Y-479722200D01*
X639055403Y-476105982D02*
X646542682Y-476105982D01*
X650158900Y-479722200D02*
X650158900Y-482222200D01*
D17*
X652698900Y-482222200D02*
X652698900Y-478722200D01*
X652698900Y-478722200D02*
X646924700Y-472948000D01*
X646924700Y-472948000D02*
X639243522Y-472948000D01*
X639243522Y-472948000D02*
X631190000Y-481001522D01*
X631190000Y-481001522D02*
X631190000Y-492611100D01*
X631190000Y-492611100D02*
X631190000Y-496111100D01*
X658967800Y-232222300D02*
X658967800Y-231231800D01*
X652698900Y-232491100D02*
X652698900Y-260000000D01*
X658967800Y-231231800D02*
X657352000Y-229616000D01*
X657352000Y-229616000D02*
X655574000Y-229616000D01*
X655574000Y-229616000D02*
X652698900Y-232491100D01*
D18*
X650158900Y-260000000D02*
X650158900Y-232061238D01*
X650158900Y-232061238D02*
X654704148Y-227515990D01*
X654704148Y-227515990D02*
X659301490Y-227515990D01*
X659301490Y-227515990D02*
X661507800Y-229722300D01*
X661507800Y-229722300D02*
X661507800Y-232222300D01*
X664047800Y-232222300D02*
X664047800Y-229722300D01*
X664047800Y-229722300D02*
X660241480Y-225915980D01*
X660241480Y-225915980D02*
X654041403Y-225915980D01*
X647618900Y-257500000D02*
X647618900Y-260000000D01*
X654041403Y-225915980D02*
X647618900Y-232338483D01*
X647618900Y-232338483D02*
X647618900Y-257500000D01*
D17*
X645078900Y-260000000D02*
X645078900Y-231908621D01*
X645078900Y-231908621D02*
X653171550Y-223815971D01*
X661681471Y-223815971D02*
X666587800Y-228722300D01*
X653171550Y-223815971D02*
X661681471Y-223815971D01*
X666587800Y-228722300D02*
X666587800Y-232222300D01*
X666587800Y-440555600D02*
X666587800Y-443485462D01*
X666587800Y-443485462D02*
X661043233Y-449030029D01*
X661043233Y-449030029D02*
X650053329Y-449030029D01*
X650053329Y-449030029D02*
X645078900Y-444055600D01*
X645078900Y-444055600D02*
X645078900Y-440555600D01*
D18*
X647618900Y-440555600D02*
X647618900Y-443055600D01*
X647618900Y-443055600D02*
X651493320Y-446930020D01*
X651493320Y-446930020D02*
X660173380Y-446930020D01*
X660173380Y-446930020D02*
X664047800Y-443055600D01*
X664047800Y-443055600D02*
X664047800Y-440555600D01*
X661507800Y-440555600D02*
X661507800Y-443055600D01*
X661507800Y-443055600D02*
X659233390Y-445330010D01*
X659233390Y-445330010D02*
X652433310Y-445330010D01*
X652433310Y-445330010D02*
X650158900Y-443055600D01*
X650158900Y-443055600D02*
X650158900Y-440555600D01*
D17*
X657098000Y-443230000D02*
X658967800Y-441360200D01*
X658967800Y-441360200D02*
X658967800Y-440555600D01*
X653796000Y-443230000D02*
X657098000Y-443230000D01*
X652698900Y-442132900D02*
X653796000Y-443230000D01*
X652698900Y-440555600D02*
X652698900Y-442132900D01*
X666587800Y-607222300D02*
X666587800Y-603722300D01*
X645078900Y-603722200D02*
X645078900Y-607222200D01*
X666587800Y-603722300D02*
X661839471Y-598973971D01*
X661839471Y-598973971D02*
X649827129Y-598973971D01*
X649827129Y-598973971D02*
X645078900Y-603722200D01*
D18*
X647618900Y-607222200D02*
X647618900Y-604722200D01*
X647618900Y-604722200D02*
X651267120Y-601073980D01*
X651267120Y-601073980D02*
X660399480Y-601073980D01*
X660399480Y-601073980D02*
X664047800Y-604722300D01*
X664047800Y-604722300D02*
X664047800Y-607222300D01*
X650158900Y-607222200D02*
X650158900Y-604722200D01*
X650158900Y-604722200D02*
X652207110Y-602673990D01*
X652207110Y-602673990D02*
X659459490Y-602673990D01*
X659459490Y-602673990D02*
X661507800Y-604722300D01*
X661507800Y-604722300D02*
X661507800Y-607222300D01*
D17*
X654558000Y-604774000D02*
X652698900Y-606633100D01*
X652698900Y-606633100D02*
X652698900Y-607222200D01*
X656844000Y-604774000D02*
X654558000Y-604774000D01*
X658967800Y-606897800D02*
X656844000Y-604774000D01*
X658967800Y-607222300D02*
X658967800Y-606897800D01*
X650748000Y-594614000D02*
X663748500Y-594614000D01*
X663748500Y-594614000D02*
X672856700Y-603722200D01*
X672856700Y-603722200D02*
X672856700Y-607222200D01*
X645160000Y-589026000D02*
X650748000Y-594614000D01*
X645160000Y-581063886D02*
X645160000Y-589026000D01*
X645078900Y-579444400D02*
X645078900Y-580982786D01*
X645078900Y-580982786D02*
X645160000Y-581063886D01*
D18*
X647954000Y-588850138D02*
X651617852Y-592513990D01*
X651617852Y-592513990D02*
X664618353Y-592513991D01*
X664618353Y-592513991D02*
X675396700Y-603292338D01*
X675396700Y-603292338D02*
X675396700Y-604722200D01*
X675396700Y-604722200D02*
X675396700Y-607222200D01*
X647618900Y-579444400D02*
X647618900Y-580275679D01*
X647618900Y-580275679D02*
X647954000Y-580610779D01*
X647954000Y-580610779D02*
X647954000Y-588850138D01*
X650158900Y-588690900D02*
X652381981Y-590913981D01*
X677936700Y-604722200D02*
X677936700Y-607222200D01*
X652381981Y-590913981D02*
X665281099Y-590913983D01*
X677936700Y-603569584D02*
X677936700Y-604722200D01*
X665281099Y-590913983D02*
X677936700Y-603569584D01*
X650158900Y-579444400D02*
X650158900Y-588690900D01*
D17*
X654558000Y-588518000D02*
X665854978Y-588518000D01*
X665854978Y-588518000D02*
X680476700Y-603139722D01*
X680476700Y-603139722D02*
X680476700Y-603722200D01*
X680476700Y-603722200D02*
X680476700Y-607222200D01*
X652780000Y-581063886D02*
X652780000Y-586740000D01*
X652780000Y-586740000D02*
X654558000Y-588518000D01*
X652698900Y-579444400D02*
X652698900Y-580982786D01*
X652698900Y-580982786D02*
X652780000Y-581063886D01*
X680476700Y-121111100D02*
X680476700Y-148653779D01*
X680476700Y-148653779D02*
X671946449Y-157184030D01*
X671946449Y-157184030D02*
X664333067Y-157184029D01*
X664333067Y-157184029D02*
X659145790Y-151996752D01*
X659145790Y-151996752D02*
X659145790Y-149066890D01*
X659145790Y-149066890D02*
X658967800Y-148888900D01*
D18*
X661507800Y-148888900D02*
X661507800Y-151388900D01*
X661507800Y-151388900D02*
X665202920Y-155084020D01*
X665202920Y-155084020D02*
X671076597Y-155084020D01*
X671076597Y-155084020D02*
X677936700Y-148223917D01*
X677936700Y-148223917D02*
X677936700Y-123611100D01*
X677936700Y-123611100D02*
X677936700Y-121111100D01*
X675396700Y-121111100D02*
X675396700Y-148501162D01*
X675396700Y-148501162D02*
X670413852Y-153484010D01*
X670413852Y-153484010D02*
X666142910Y-153484010D01*
X666142910Y-153484010D02*
X664047800Y-151388900D01*
X664047800Y-151388900D02*
X664047800Y-148888900D01*
D17*
X669544000Y-151384000D02*
X672856700Y-148071300D01*
X672856700Y-148071300D02*
X672856700Y-121111100D01*
X668782000Y-151384000D02*
X669544000Y-151384000D01*
X666587800Y-149189800D02*
X668782000Y-151384000D01*
X666587800Y-148888900D02*
X666587800Y-149189800D01*
X667004000Y-526542000D02*
X666587800Y-526125800D01*
X666587800Y-526125800D02*
X666587800Y-523888900D01*
X670306000Y-526542000D02*
X667004000Y-526542000D01*
X672338000Y-524510000D02*
X670306000Y-526542000D01*
X672338000Y-482346000D02*
X672338000Y-524510000D01*
X670560000Y-480568000D02*
X672338000Y-482346000D01*
X668528000Y-480568000D02*
X670560000Y-480568000D01*
X666873800Y-482222200D02*
X668528000Y-480568000D01*
X666587800Y-482222200D02*
X666873800Y-482222200D01*
D18*
X664047800Y-482222200D02*
X664047800Y-479722200D01*
X671429853Y-478467991D02*
X674438010Y-481476148D01*
X664047800Y-479722200D02*
X665302010Y-478467990D01*
X665302010Y-478467990D02*
X671429853Y-478467991D01*
X674438010Y-481476148D02*
X674438009Y-525379853D01*
X664047800Y-526555662D02*
X664047800Y-526388900D01*
X674438009Y-525379853D02*
X671175852Y-528642010D01*
X666134147Y-528642009D02*
X664047800Y-526555662D01*
X671175852Y-528642010D02*
X666134147Y-528642009D01*
X664047800Y-526388900D02*
X664047800Y-523888900D01*
X661507800Y-523888900D02*
X661507800Y-526388900D01*
X661507800Y-526388900D02*
X665360919Y-530242019D01*
X676038018Y-480813402D02*
X672092597Y-476867982D01*
X665360919Y-530242019D02*
X671838598Y-530242018D01*
X671838598Y-530242018D02*
X676038018Y-526042597D01*
X676038018Y-526042597D02*
X676038018Y-480813402D01*
X672092597Y-476867982D02*
X664362018Y-476867982D01*
X664362018Y-476867982D02*
X661507800Y-479722200D01*
X661507800Y-479722200D02*
X661507800Y-482222200D01*
D17*
X658967800Y-482222200D02*
X658967800Y-478722200D01*
X658967800Y-478722200D02*
X662922027Y-474767973D01*
X662922027Y-474767973D02*
X672962450Y-474767973D01*
X672962450Y-474767973D02*
X678138028Y-479943550D01*
X678138028Y-479943550D02*
X678138027Y-526912450D01*
X658967800Y-527388900D02*
X658967800Y-523888900D01*
X678138027Y-526912450D02*
X672708447Y-532342028D01*
X672708447Y-532342028D02*
X663920928Y-532342028D01*
X663920928Y-532342028D02*
X658967800Y-527388900D01*
X686745600Y-190555600D02*
X686745600Y-189667600D01*
X686745600Y-189667600D02*
X684784000Y-187706000D01*
X684784000Y-187706000D02*
X682498000Y-187706000D01*
X682498000Y-187706000D02*
X680476700Y-189727300D01*
X680476700Y-189727300D02*
X680476700Y-218333300D01*
D18*
X677936700Y-218333300D02*
X677936700Y-189297438D01*
X677936700Y-189297438D02*
X681628148Y-185605990D01*
X681628148Y-185605990D02*
X686835990Y-185605990D01*
X686835990Y-185605990D02*
X689285600Y-188055600D01*
X689285600Y-188055600D02*
X689285600Y-190555600D01*
X691825600Y-190555600D02*
X691825600Y-188055600D01*
X691825600Y-188055600D02*
X687775980Y-184005980D01*
X687775980Y-184005980D02*
X680965403Y-184005980D01*
X680965403Y-184005980D02*
X675396700Y-189574683D01*
X675396700Y-189574683D02*
X675396700Y-215833300D01*
X675396700Y-215833300D02*
X675396700Y-218333300D01*
D17*
X672856700Y-218333300D02*
X672856700Y-189144821D01*
X672856700Y-189144821D02*
X680095550Y-181905971D01*
X680095550Y-181905971D02*
X689215971Y-181905971D01*
X689215971Y-181905971D02*
X694365600Y-187055600D01*
X694365600Y-187055600D02*
X694365600Y-190555600D01*
X708254400Y-107222200D02*
X708254400Y-110152062D01*
X708254400Y-110152062D02*
X702624433Y-115782029D01*
X702624433Y-115782029D02*
X691805429Y-115782029D01*
X691805429Y-115782029D02*
X686745600Y-110722200D01*
X686745600Y-110722200D02*
X686745600Y-107222200D01*
D18*
X689285600Y-107222200D02*
X689285600Y-109722200D01*
X693245420Y-113682020D02*
X701754580Y-113682020D01*
X689285600Y-109722200D02*
X693245420Y-113682020D01*
X701754580Y-113682020D02*
X705714400Y-109722200D01*
X705714400Y-109722200D02*
X705714400Y-107222200D01*
X703174400Y-107222200D02*
X703174400Y-109722200D01*
X703174400Y-109722200D02*
X700814590Y-112082010D01*
X700814590Y-112082010D02*
X694185410Y-112082010D01*
X694185410Y-112082010D02*
X691825600Y-109722200D01*
X691825600Y-109722200D02*
X691825600Y-107222200D01*
D17*
X696214000Y-109982000D02*
X694365600Y-108133600D01*
X694365600Y-108133600D02*
X694365600Y-107222200D01*
X699412986Y-109982000D02*
X696214000Y-109982000D01*
X700634400Y-107222200D02*
X700634400Y-108760586D01*
X700634400Y-108760586D02*
X699412986Y-109982000D01*
X696722000Y-535432000D02*
X694365600Y-537788400D01*
X694365600Y-537788400D02*
X694365600Y-593333300D01*
X698754000Y-535432000D02*
X696722000Y-535432000D01*
X700634400Y-537312400D02*
X698754000Y-535432000D01*
X700634400Y-537777800D02*
X700634400Y-537312400D01*
D18*
X691825600Y-593333300D02*
X691825600Y-537358538D01*
X691825600Y-537358538D02*
X695852148Y-533331990D01*
X703174400Y-535277800D02*
X703174400Y-537777800D01*
X695852148Y-533331990D02*
X701228590Y-533331990D01*
X701228590Y-533331990D02*
X703174400Y-535277800D01*
X705714400Y-537777800D02*
X705714400Y-535277800D01*
X705714400Y-535277800D02*
X702168580Y-531731980D01*
X702168580Y-531731980D02*
X695189403Y-531731980D01*
X695189403Y-531731980D02*
X689285600Y-537635783D01*
X689285600Y-537635783D02*
X689285600Y-590833300D01*
X689285600Y-590833300D02*
X689285600Y-593333300D01*
D17*
X686745600Y-593333300D02*
X686745600Y-537205921D01*
X686745600Y-537205921D02*
X694319550Y-529631971D01*
X694319550Y-529631971D02*
X703608571Y-529631971D01*
X703608571Y-529631971D02*
X708254400Y-534277800D01*
X708254400Y-534277800D02*
X708254400Y-537777800D01*
X711708000Y-132080000D02*
X708254400Y-135533600D01*
X708254400Y-135533600D02*
X708254400Y-162777800D01*
X712978000Y-132080000D02*
X711708000Y-132080000D01*
X714523300Y-133625300D02*
X712978000Y-132080000D01*
X714523300Y-135000000D02*
X714523300Y-133625300D01*
D18*
X705714400Y-162777800D02*
X705714400Y-135103738D01*
X705714400Y-135103738D02*
X710838148Y-129979990D01*
X710838148Y-129979990D02*
X714543290Y-129979990D01*
X714543290Y-129979990D02*
X717063300Y-132500000D01*
X717063300Y-132500000D02*
X717063300Y-135000000D01*
X719603300Y-135000000D02*
X719603300Y-132500000D01*
X719603300Y-132500000D02*
X715483280Y-128379980D01*
X703174400Y-135380983D02*
X703174400Y-160277800D01*
X715483280Y-128379980D02*
X710175403Y-128379980D01*
X703174400Y-160277800D02*
X703174400Y-162777800D01*
X710175403Y-128379980D02*
X703174400Y-135380983D01*
D17*
X700634400Y-162777800D02*
X700634400Y-134951121D01*
X700634400Y-134951121D02*
X709305550Y-126279971D01*
X709305550Y-126279971D02*
X716923271Y-126279971D01*
X716923271Y-126279971D02*
X722143300Y-131500000D01*
X722143300Y-131500000D02*
X722143300Y-135000000D01*
X700634400Y-454444400D02*
X700634400Y-469568879D01*
X700634400Y-469568879D02*
X708543549Y-477478028D01*
X708543549Y-477478028D02*
X716498572Y-477478028D01*
X716498572Y-477478028D02*
X722143300Y-471833300D01*
X722143300Y-471833300D02*
X722143300Y-468333300D01*
D18*
X719603300Y-468333300D02*
X719603300Y-470833300D01*
X719603300Y-470833300D02*
X715058581Y-475378019D01*
X703174400Y-456944400D02*
X703174400Y-454444400D01*
X715058581Y-475378019D02*
X709413402Y-475378019D01*
X709413402Y-475378019D02*
X703174400Y-469139017D01*
X703174400Y-469139017D02*
X703174400Y-456944400D01*
X705714400Y-454444400D02*
X705714400Y-469416262D01*
X705714400Y-469416262D02*
X710076147Y-473778009D01*
X710076147Y-473778009D02*
X714118591Y-473778009D01*
X714118591Y-473778009D02*
X717063300Y-470833300D01*
X717063300Y-470833300D02*
X717063300Y-468333300D01*
D17*
X710946000Y-471678000D02*
X708254400Y-468986400D01*
X708254400Y-468986400D02*
X708254400Y-454444400D01*
X713232000Y-471678000D02*
X710946000Y-471678000D01*
X714523300Y-470386700D02*
X713232000Y-471678000D01*
X714523300Y-468333300D02*
X714523300Y-470386700D01*
X726186000Y-493268000D02*
X728412200Y-495494200D01*
X728412200Y-495494200D02*
X728412200Y-496111100D01*
X724154000Y-493268000D02*
X726186000Y-493268000D01*
X722143300Y-495278700D02*
X724154000Y-493268000D01*
X722143300Y-496111100D02*
X722143300Y-495278700D01*
D18*
X719603300Y-496111100D02*
X719603300Y-494848838D01*
X719603300Y-494848838D02*
X723284148Y-491167990D01*
X723284148Y-491167990D02*
X728509090Y-491167990D01*
X728509090Y-491167990D02*
X730952200Y-493611100D01*
X730952200Y-493611100D02*
X730952200Y-496111100D01*
X733492200Y-496111100D02*
X733492200Y-493611100D01*
X733492200Y-493611100D02*
X729449080Y-489567980D01*
X729449080Y-489567980D02*
X721106420Y-489567980D01*
X721106420Y-489567980D02*
X717063300Y-493611100D01*
X717063300Y-493611100D02*
X717063300Y-496111100D01*
D17*
X714523300Y-496111100D02*
X714523300Y-493181238D01*
X714523300Y-493181238D02*
X720236568Y-487467970D01*
X720236568Y-487467970D02*
X730318933Y-487467971D01*
X735854210Y-493003248D02*
X735854210Y-495933110D01*
X730318933Y-487467971D02*
X735854210Y-493003248D01*
X735854210Y-495933110D02*
X736032200Y-496111100D01*
X749921100Y-440555600D02*
X749921100Y-453605379D01*
X749921100Y-453605379D02*
X740780450Y-462746029D01*
X733213729Y-462746029D02*
X728412200Y-457944500D01*
X740780450Y-462746029D02*
X733213729Y-462746029D01*
X728412200Y-457944500D02*
X728412200Y-454444500D01*
D18*
X730952200Y-454444500D02*
X730952200Y-456944500D01*
X739910597Y-460646020D02*
X747381100Y-453175517D01*
X730952200Y-456944500D02*
X734653720Y-460646020D01*
X734653720Y-460646020D02*
X739910597Y-460646020D01*
X747381100Y-453175517D02*
X747381100Y-443055600D01*
X747381100Y-443055600D02*
X747381100Y-440555600D01*
X744841100Y-440555600D02*
X744841100Y-453452762D01*
X744841100Y-453452762D02*
X739247852Y-459046010D01*
X739247852Y-459046010D02*
X735593710Y-459046010D01*
X735593710Y-459046010D02*
X733492200Y-456944500D01*
X733492200Y-456944500D02*
X733492200Y-454444500D01*
D17*
X738378000Y-456946000D02*
X742301100Y-453022900D01*
X742301100Y-453022900D02*
X742301100Y-440555600D01*
X737870000Y-456946000D02*
X738378000Y-456946000D01*
X736032200Y-455108200D02*
X737870000Y-456946000D01*
X736032200Y-454444500D02*
X736032200Y-455108200D01*
X728412200Y-607222200D02*
X728412200Y-604292338D01*
X746188871Y-599989971D02*
X749921100Y-603722200D01*
X728412200Y-604292338D02*
X732714567Y-599989971D01*
X732714567Y-599989971D02*
X746188871Y-599989971D01*
X749921100Y-603722200D02*
X749921100Y-607222200D01*
D18*
X747381100Y-607222200D02*
X747381100Y-606390921D01*
X743080159Y-602089980D02*
X733584420Y-602089980D01*
X747381100Y-606390921D02*
X743080159Y-602089980D01*
X733584420Y-602089980D02*
X730952200Y-604722200D01*
X730952200Y-604722200D02*
X730952200Y-607222200D01*
X733492200Y-607222200D02*
X733492200Y-604722200D01*
X744401109Y-606782209D02*
X744841100Y-607222200D01*
X733492200Y-604722200D02*
X734524410Y-603689990D01*
X734524410Y-603689990D02*
X742140169Y-603689990D01*
X742140169Y-603689990D02*
X744401109Y-605950930D01*
X744401109Y-605950930D02*
X744401109Y-606782209D01*
D17*
X742301100Y-607222200D02*
X742301100Y-606919100D01*
X742301100Y-606919100D02*
X741172000Y-605790000D01*
X741172000Y-605790000D02*
X737362000Y-605790000D01*
X737362000Y-605790000D02*
X737362000Y-605892400D01*
X737362000Y-605892400D02*
X736032200Y-607222200D01*
X753110000Y-603250000D02*
X756190000Y-606330000D01*
X756190000Y-606330000D02*
X756190000Y-607222200D01*
X728412200Y-593333400D02*
X728412200Y-599380200D01*
X728412200Y-599380200D02*
X728472000Y-599440000D01*
D18*
X730952200Y-593333400D02*
X730952200Y-595833400D01*
X730952200Y-595833400D02*
X733008761Y-597889961D01*
X733008761Y-597889961D02*
X751897761Y-597889961D01*
X751897761Y-597889961D02*
X758730000Y-604722200D01*
X758730000Y-604722200D02*
X758730000Y-607222200D01*
X733492200Y-593333400D02*
X733492200Y-595833400D01*
X733492200Y-595833400D02*
X733948751Y-596289951D01*
X761270000Y-604722200D02*
X761270000Y-607222200D01*
X733948751Y-596289951D02*
X752837751Y-596289951D01*
X752837751Y-596289951D02*
X761270000Y-604722200D01*
D17*
X736032200Y-593333400D02*
X753421200Y-593333400D01*
X753421200Y-593333400D02*
X763810000Y-603722200D01*
X763810000Y-603722200D02*
X763810000Y-607222200D01*
X753364000Y-569214000D02*
X752841500Y-569214000D01*
X752841500Y-569214000D02*
X749921100Y-566293600D01*
X749921100Y-566293600D02*
X749921100Y-565555600D01*
X755650000Y-566928000D02*
X753364000Y-569214000D01*
X755650000Y-482346000D02*
X755650000Y-566928000D01*
X754126000Y-480822000D02*
X755650000Y-482346000D01*
X751078000Y-480822000D02*
X754126000Y-480822000D01*
X749921100Y-481978900D02*
X751078000Y-480822000D01*
X749921100Y-482222200D02*
X749921100Y-481978900D01*
D18*
X747381100Y-482222200D02*
X747381100Y-479722200D01*
X747381100Y-479722200D02*
X748381310Y-478721990D01*
X750639509Y-571314009D02*
X747381100Y-568055600D01*
X748381310Y-478721990D02*
X754995853Y-478721991D01*
X754233853Y-571314009D02*
X750639509Y-571314009D01*
X754995853Y-478721991D02*
X757750010Y-481476148D01*
X757750010Y-481476148D02*
X757750009Y-567797853D01*
X747381100Y-568055600D02*
X747381100Y-565555600D01*
X757750009Y-567797853D02*
X754233853Y-571314009D01*
X744841100Y-565555600D02*
X744841100Y-568055600D01*
X744841100Y-568055600D02*
X749699519Y-572914019D01*
X749699519Y-572914019D02*
X754896598Y-572914019D01*
X754896598Y-572914019D02*
X759350018Y-568460597D01*
X744841100Y-479722200D02*
X744841100Y-482222200D01*
X759350018Y-568460597D02*
X759350018Y-480813402D01*
X759350018Y-480813402D02*
X755658597Y-477121982D01*
X755658597Y-477121982D02*
X747441318Y-477121982D01*
X747441318Y-477121982D02*
X744841100Y-479722200D01*
D17*
X742301100Y-482222200D02*
X742301100Y-479292338D01*
X742301100Y-479292338D02*
X746571466Y-475021972D01*
X756528450Y-475021973D02*
X761450028Y-479943550D01*
X755766450Y-575014029D02*
X748829666Y-575014028D01*
X746571466Y-475021972D02*
X756528450Y-475021973D01*
X761450028Y-569330449D02*
X755766450Y-575014029D01*
X761450028Y-479943550D02*
X761450028Y-569330449D01*
X748829666Y-575014028D02*
X742479090Y-568663452D01*
X742479090Y-568663452D02*
X742479090Y-565733590D01*
X742479090Y-565733590D02*
X742301100Y-565555600D01*
X777698900Y-440555600D02*
X777698900Y-443485462D01*
X777698900Y-443485462D02*
X772408334Y-448776028D01*
X772408334Y-448776028D02*
X760910428Y-448776028D01*
X760910428Y-448776028D02*
X756190000Y-444055600D01*
X756190000Y-444055600D02*
X756190000Y-440555600D01*
D18*
X758730000Y-440555600D02*
X758730000Y-443055600D01*
X758730000Y-443055600D02*
X762350419Y-446676019D01*
X775158900Y-443055600D02*
X775158900Y-440555600D01*
X762350419Y-446676019D02*
X771538481Y-446676019D01*
X771538481Y-446676019D02*
X775158900Y-443055600D01*
X772618900Y-440555600D02*
X772618900Y-443055600D01*
X770598491Y-445076009D02*
X763290409Y-445076009D01*
X772618900Y-443055600D02*
X770598491Y-445076009D01*
X763290409Y-445076009D02*
X761270000Y-443055600D01*
X761270000Y-443055600D02*
X761270000Y-440555600D01*
D17*
X768604000Y-442976000D02*
X770078900Y-441501100D01*
X770078900Y-441501100D02*
X770078900Y-440555600D01*
X764794000Y-442976000D02*
X768604000Y-442976000D01*
X763810000Y-441992000D02*
X764794000Y-442976000D01*
X763810000Y-440555600D02*
X763810000Y-441992000D01*
X780034000Y-576326000D02*
X777698900Y-578661100D01*
X777698900Y-578661100D02*
X777698900Y-607222200D01*
X781812000Y-576326000D02*
X780034000Y-576326000D01*
X783967800Y-578481800D02*
X781812000Y-576326000D01*
X783967800Y-579444400D02*
X783967800Y-578481800D01*
D18*
X775158900Y-607222200D02*
X775158900Y-578231238D01*
X775158900Y-578231238D02*
X779164148Y-574225990D01*
X779164148Y-574225990D02*
X783789390Y-574225990D01*
X783789390Y-574225990D02*
X786507800Y-576944400D01*
X786507800Y-576944400D02*
X786507800Y-579444400D01*
X789047800Y-579444400D02*
X789047800Y-576944400D01*
X789047800Y-576944400D02*
X784729380Y-572625980D01*
X784729380Y-572625980D02*
X778501403Y-572625980D01*
X778501403Y-572625980D02*
X772618900Y-578508483D01*
X772618900Y-578508483D02*
X772618900Y-604722200D01*
X772618900Y-604722200D02*
X772618900Y-607222200D01*
D17*
X770078900Y-607222200D02*
X770078900Y-578078621D01*
X770078900Y-578078621D02*
X777631550Y-570525971D01*
X777631550Y-570525971D02*
X786169371Y-570525971D01*
X786169371Y-570525971D02*
X791587800Y-575944400D01*
X791587800Y-575944400D02*
X791587800Y-579444400D01*
X783967800Y-454444400D02*
X783967800Y-468828279D01*
X783967800Y-468828279D02*
X791347550Y-476208029D01*
X791347550Y-476208029D02*
X801101971Y-476208029D01*
X801101971Y-476208029D02*
X805476700Y-471833300D01*
X805476700Y-471833300D02*
X805476700Y-468333300D01*
D18*
X802936700Y-468333300D02*
X802936700Y-470833300D01*
X802936700Y-470833300D02*
X799661980Y-474108020D01*
X799661980Y-474108020D02*
X792217403Y-474108020D01*
X792217403Y-474108020D02*
X786507800Y-468398417D01*
X786507800Y-468398417D02*
X786507800Y-456944400D01*
X786507800Y-456944400D02*
X786507800Y-454444400D01*
X789047800Y-454444400D02*
X789047800Y-468675662D01*
X789047800Y-468675662D02*
X792880148Y-472508010D01*
X792880148Y-472508010D02*
X798721990Y-472508010D01*
X798721990Y-472508010D02*
X800396700Y-470833300D01*
X800396700Y-470833300D02*
X800396700Y-468333300D01*
D17*
X793750000Y-470408000D02*
X791587800Y-468245800D01*
X791587800Y-468245800D02*
X791587800Y-454444400D01*
X796036000Y-470408000D02*
X793750000Y-470408000D01*
X797856700Y-468587300D02*
X796036000Y-470408000D01*
X797856700Y-468333300D02*
X797856700Y-468587300D01*
D18*
X233492200Y-398888900D02*
X233492200Y-401388900D01*
X233492200Y-401388900D02*
X235201300Y-403098000D01*
X235201300Y-403098000D02*
X237268000Y-403098000D01*
X237268000Y-403098000D02*
X239268000Y-403098000D01*
X230952200Y-403418200D02*
X236664000Y-409130000D01*
X236664000Y-409130000D02*
X239268000Y-409130000D01*
X230952200Y-398888900D02*
X230952200Y-403418200D01*
X175396700Y-371111100D02*
X175396700Y-383422700D01*
X175396700Y-383422700D02*
X181864000Y-389890000D01*
X181864000Y-389890000D02*
X186436000Y-389890000D01*
X184150000Y-379222000D02*
X183642000Y-379222000D01*
X186436000Y-389890000D02*
X187960000Y-388366000D01*
X187960000Y-388366000D02*
X187960000Y-383032000D01*
X187960000Y-383032000D02*
X184150000Y-379222000D01*
X177936700Y-371111100D02*
X177936700Y-379548700D01*
X177936700Y-379548700D02*
X183642000Y-385254000D01*
X308610000Y-643128000D02*
X306610000Y-643128000D01*
X306610000Y-643128000D02*
X302936700Y-639454700D01*
X302936700Y-639454700D02*
X302936700Y-623611100D01*
X302936700Y-623611100D02*
X302936700Y-621111100D01*
X300396700Y-621111100D02*
X300396700Y-640946700D01*
X300396700Y-640946700D02*
X308610000Y-649160000D01*
X419862000Y-389636000D02*
X416183800Y-389636000D01*
X414047800Y-387500000D02*
X414047800Y-385000000D01*
X416183800Y-389636000D02*
X414047800Y-387500000D01*
X411507800Y-385000000D02*
X411507800Y-387500000D01*
X411507800Y-387500000D02*
X419675800Y-395668000D01*
X419675800Y-395668000D02*
X419862000Y-395668000D01*
X455714400Y-579444400D02*
X455714400Y-581944400D01*
X455714400Y-581944400D02*
X458478000Y-584708000D01*
X458478000Y-584708000D02*
X459264000Y-584708000D01*
X459264000Y-584708000D02*
X461264000Y-584708000D01*
X453174400Y-579444400D02*
X453174400Y-582650400D01*
X453174400Y-582650400D02*
X461264000Y-590740000D01*
X425396700Y-440555600D02*
X425396700Y-448331300D01*
X425396700Y-448331300D02*
X421608000Y-452120000D01*
X421608000Y-452120000D02*
X419608000Y-452120000D01*
X427936700Y-440555600D02*
X427936700Y-449823300D01*
X427936700Y-449823300D02*
X419608000Y-458152000D01*
X441825600Y-398888900D02*
X441825600Y-396388900D01*
X432562007Y-393957991D02*
X430969999Y-395549999D01*
X441825600Y-396388900D02*
X439394691Y-393957991D01*
X439394691Y-393957991D02*
X432562007Y-393957991D01*
X430969999Y-395549999D02*
X430969999Y-398489999D01*
X430969999Y-398489999D02*
X433070000Y-400590000D01*
X433070000Y-400590000D02*
X433070000Y-402590000D01*
X439285600Y-398888900D02*
X439285600Y-396388900D01*
X439285600Y-396388900D02*
X438454701Y-395558001D01*
X438454701Y-395558001D02*
X434069999Y-395558001D01*
X434069999Y-395558001D02*
X433070000Y-396558000D01*
X511270000Y-385000000D02*
X511270000Y-387500000D01*
X511270000Y-387500000D02*
X513152000Y-389382000D01*
X513152000Y-389382000D02*
X514890000Y-389382000D01*
X514890000Y-389382000D02*
X516890000Y-389382000D01*
X508730000Y-385000000D02*
X508730000Y-387500000D01*
X508730000Y-387500000D02*
X516644000Y-395414000D01*
X516644000Y-395414000D02*
X516890000Y-395414000D01*
X544576000Y-308610000D02*
X544576000Y-304975862D01*
X544576000Y-304975862D02*
X539047800Y-299447662D01*
X539047800Y-299447662D02*
X539047800Y-290277800D01*
X539047800Y-290277800D02*
X539047800Y-287777800D01*
X536507800Y-287777800D02*
X536507800Y-306573800D01*
X536507800Y-306573800D02*
X544576000Y-314642000D01*
X552936700Y-579444400D02*
X552936700Y-580844700D01*
X552936700Y-580844700D02*
X556546000Y-584454000D01*
X556546000Y-584454000D02*
X558546000Y-584454000D01*
X550396700Y-579444400D02*
X550396700Y-582336700D01*
X550396700Y-582336700D02*
X558546000Y-590486000D01*
X522618900Y-440555600D02*
X522618900Y-449407100D01*
X522618900Y-449407100D02*
X519144000Y-452882000D01*
X519144000Y-452882000D02*
X517144000Y-452882000D01*
X525158900Y-440555600D02*
X525158900Y-450899100D01*
X525158900Y-450899100D02*
X517144000Y-458914000D01*
X539047800Y-398888900D02*
X539047800Y-396388900D01*
X539047800Y-396388900D02*
X537124891Y-394465991D01*
X528251999Y-396057999D02*
X528251999Y-398997999D01*
X537124891Y-394465991D02*
X529844007Y-394465991D01*
X529844007Y-394465991D02*
X528251999Y-396057999D01*
X528251999Y-398997999D02*
X530352000Y-401098000D01*
X530352000Y-401098000D02*
X530352000Y-403098000D01*
X536507800Y-398888900D02*
X536507800Y-396388900D01*
X536507800Y-396388900D02*
X536184901Y-396066001D01*
X536184901Y-396066001D02*
X531351999Y-396066001D01*
X531351999Y-396066001D02*
X530352000Y-397066000D01*
X580714400Y-148888900D02*
X580714400Y-146388900D01*
X580714400Y-146388900D02*
X584609300Y-142494000D01*
X584609300Y-142494000D02*
X598202000Y-142494000D01*
X598202000Y-142494000D02*
X600202000Y-142494000D01*
X578174400Y-148888900D02*
X578174400Y-146388900D01*
X578174400Y-146388900D02*
X584169301Y-140393999D01*
X602302001Y-146425999D02*
X601201999Y-147526001D01*
X601201999Y-147526001D02*
X600202000Y-148526000D01*
X584169301Y-140393999D02*
X602082001Y-140393999D01*
X602082001Y-140393999D02*
X602302001Y-140613999D01*
X602302001Y-140613999D02*
X602302001Y-146425999D01*
X794512000Y-503682000D02*
X796512000Y-503682000D01*
X796512000Y-503682000D02*
X802936700Y-510106700D01*
X802936700Y-510106700D02*
X802936700Y-521388900D01*
X802936700Y-521388900D02*
X802936700Y-523888900D01*
X794512000Y-509714000D02*
X800396700Y-515598700D01*
X800396700Y-515598700D02*
X800396700Y-523888900D01*
D17*
X283967800Y-426666700D02*
X283967800Y-432566200D01*
X283967800Y-432566200D02*
X282194000Y-434340000D01*
X277698900Y-496111100D02*
X277698900Y-499040963D01*
X265414450Y-502411129D02*
X260137970Y-497134649D01*
X277698900Y-499040963D02*
X274328734Y-502411129D01*
X274328734Y-502411129D02*
X265414450Y-502411129D01*
X260137970Y-497134649D02*
X260137970Y-454364030D01*
D18*
X286507800Y-426666700D02*
X286507800Y-434340541D01*
X286507800Y-434340541D02*
X268296351Y-452551990D01*
X268296351Y-452551990D02*
X267131393Y-452551990D01*
X267131393Y-452551990D02*
X262237980Y-457445403D01*
X273458880Y-500311120D02*
X275158900Y-498611100D01*
X262237980Y-457445403D02*
X262237980Y-496264797D01*
X262237980Y-496264797D02*
X266284303Y-500311120D01*
X275158900Y-498611100D02*
X275158900Y-496111100D01*
X266284303Y-500311120D02*
X273458880Y-500311120D01*
X267794138Y-454152000D02*
X270325959Y-454152000D01*
X270325959Y-454152000D02*
X289047800Y-435430159D01*
X289047800Y-435430159D02*
X289047800Y-429166700D01*
X289047800Y-429166700D02*
X289047800Y-426666700D01*
X272618900Y-496942379D02*
X270850169Y-498711110D01*
X270850169Y-498711110D02*
X266947048Y-498711110D01*
X263837990Y-458108148D02*
X267794138Y-454152000D01*
X266947048Y-498711110D02*
X263837990Y-495602052D01*
X263837990Y-495602052D02*
X263837990Y-458108148D01*
X272618900Y-496111100D02*
X272618900Y-496942379D01*
D17*
X290576000Y-440182000D02*
X291587800Y-439170200D01*
X291587800Y-439170200D02*
X291587800Y-426666700D01*
X265938000Y-459486000D02*
X267208000Y-458216000D01*
X265938000Y-474472000D02*
X265938000Y-459486000D01*
X265938000Y-494732200D02*
X265938000Y-474472000D01*
X270078900Y-496111100D02*
X267316900Y-496111100D01*
X267316900Y-496111100D02*
X265938000Y-494732200D01*
M02*
