<?xml version="1.0" standalone="no"?>
 <!DOCTYPE svg PUBLIC "-//W3C//DTD SVG 1.1//EN" 
 "http://www.w3.org/Graphics/SVG/1.1/DTD/svg11.dtd"> 
<svg xmlns="http://www.w3.org/2000/svg" version="1.1" 
    width="118.9cm" height="84.0994cm" viewBox="0 0 468110 331100 ">
<title>SVG Picture created as sign-Edge.Cuts.svg date 2017/07/10 00:28:36 </title>
  <desc>Picture generated by PCBNEW </desc>
<g style="fill:#000000; fill-opacity:1;stroke:#000000; stroke-opacity:1;
stroke-linecap:round; stroke-linejoin:round; "
 transform="translate(0 0) scale(1 1)">
</g>
<g style="fill:#000000; fill-opacity:0.0; 
stroke:#000000; stroke-width:-0.000393701; stroke-opacity:1; 
stroke-linecap:round; stroke-linejoin:round;">
</g>
<g style="fill:#000000; fill-opacity:0.0; 
stroke:#000000; stroke-width:59.0551; stroke-opacity:1; 
stroke-linecap:round; stroke-linejoin:round;">
<path d="M137117 14085
L137904 14085
" />
<path d="M137117 14085
L137117 14873
" />
<path d="M138692 14085
L142585 14085
" />
<path d="M142585 14085
L143372 14085
" />
<path d="M137904 14085
L138692 14085
" />
<path d="M144160 14085
L148053 14085
" />
<path d="M148053 14085
L148840 14085
" />
<path d="M143372 14085
L144160 14085
" />
<path d="M149628 14085
L153521 14085
" />
<path d="M153521 14085
L154308 14085
" />
<path d="M148840 14085
L149628 14085
" />
<path d="M155096 14085
L155096 14873
" />
<path d="M154308 14085
L155096 14085
" />
<path d="M208202 14085
L208989 14085
" />
<path d="M208202 14085
L208202 14873
" />
<path d="M209776 14085
L213670 14085
" />
<path d="M213670 14085
L214457 14085
" />
<path d="M208989 14085
L209776 14085
" />
<path d="M215244 14085
L219138 14085
" />
<path d="M219138 14085
L219925 14085
" />
<path d="M214457 14085
L215244 14085
" />
<path d="M220713 14085
L224606 14085
" />
<path d="M224606 14085
L225393 14085
" />
<path d="M219925 14085
L220713 14085
" />
<path d="M226181 14085
L226181 14873
" />
<path d="M225393 14085
L226181 14085
" />
<path d="M131649 19553
L132436 19553
" />
<path d="M131649 19553
L131649 20341
" />
<path d="M137117 14873
L137117 15660
" />
<path d="M133223 19553
L137117 19553
" />
<path d="M132436 19553
L133223 19553
" />
<path d="M137117 15660
L137117 19553
" />
<path d="M155096 14873
L155096 15660
" />
<path d="M155096 15660
L155096 19553
" />
<path d="M155096 19553
L155096 20341
" />
<path d="M202734 19553
L203521 19553
" />
<path d="M202734 19553
L202734 20341
" />
<path d="M208202 14873
L208202 15660
" />
<path d="M204308 19553
L208202 19553
" />
<path d="M203521 19553
L204308 19553
" />
<path d="M208202 15660
L208202 19553
" />
<path d="M226181 14873
L226181 15660
" />
<path d="M226181 15660
L226181 19553
" />
<path d="M226181 19553
L226181 20341
" />
<path d="M131649 20341
L131649 21128
" />
<path d="M131649 25021
L131649 25809
" />
<path d="M131649 21128
L131649 25021
" />
<path d="M149628 21128
L153521 21128
" />
<path d="M153521 21128
L154308 21128
" />
<path d="M149628 21128
L149628 25021
" />
<path d="M149628 25021
L149628 25809
" />
<path d="M155096 20341
L155096 21128
" />
<path d="M154308 21128
L155096 21128
" />
<path d="M202734 20341
L202734 21128
" />
<path d="M202734 25021
L202734 25809
" />
<path d="M202734 21128
L202734 25021
" />
<path d="M220713 21128
L224606 21128
" />
<path d="M224606 21128
L225393 21128
" />
<path d="M220713 21128
L220713 25021
" />
<path d="M220713 25021
L220713 25809
" />
<path d="M226181 20341
L226181 21128
" />
<path d="M225393 21128
L226181 21128
" />
<path d="M131649 25809
L131649 26596
" />
<path d="M131649 30489
L131649 31277
" />
<path d="M131649 26596
L131649 30489
" />
<path d="M149628 25809
L149628 26596
" />
<path d="M149628 26596
L149628 30489
" />
<path d="M149628 30489
L149628 31277
" />
<path d="M202734 25809
L202734 26596
" />
<path d="M202734 30489
L202734 31277
" />
<path d="M202734 26596
L202734 30489
" />
<path d="M220713 25809
L220713 26596
" />
<path d="M220713 26596
L220713 30489
" />
<path d="M220713 30489
L220713 31277
" />
<path d="M131649 31277
L131649 32064
" />
<path d="M131649 35957
L131649 36745
" />
<path d="M131649 32064
L131649 35957
" />
<path d="M149628 31277
L149628 32064
" />
<path d="M149628 32064
L149628 35957
" />
<path d="M149628 35957
L149628 36745
" />
<path d="M202734 31277
L202734 32064
" />
<path d="M202734 35957
L202734 36745
" />
<path d="M202734 32064
L202734 35957
" />
<path d="M220713 31277
L220713 32064
" />
<path d="M220713 32064
L220713 35957
" />
<path d="M220713 35957
L220713 36745
" />
<path d="M38692 41426
L39479 41426
" />
<path d="M38692 41426
L38692 42213
" />
<path d="M40266 41426
L44160 41426
" />
<path d="M44160 41426
L44947 41426
" />
<path d="M39479 41426
L40266 41426
" />
<path d="M45734 41426
L49628 41426
" />
<path d="M49628 41426
L50415 41426
" />
<path d="M44947 41426
L45734 41426
" />
<path d="M51202 41426
L55096 41426
" />
<path d="M55096 41426
L55883 41426
" />
<path d="M50415 41426
L51202 41426
" />
<path d="M56671 41426
L60564 41426
" />
<path d="M60564 41426
L61351 41426
" />
<path d="M55883 41426
L56671 41426
" />
<path d="M62139 41426
L66032 41426
" />
<path d="M66032 41426
L66819 41426
" />
<path d="M61351 41426
L62139 41426
" />
<path d="M67607 41426
L67607 42213
" />
<path d="M66819 41426
L67607 41426
" />
<path d="M104308 41426
L105096 41426
" />
<path d="M104308 41426
L104308 42213
" />
<path d="M105883 41426
L109776 41426
" />
<path d="M109776 41426
L110564 41426
" />
<path d="M105096 41426
L105883 41426
" />
<path d="M111351 41426
L115244 41426
" />
<path d="M115244 41426
L116032 41426
" />
<path d="M110564 41426
L111351 41426
" />
<path d="M116819 41426
L120713 41426
" />
<path d="M120713 41426
L121500 41426
" />
<path d="M116032 41426
L116819 41426
" />
<path d="M126181 41426
L126968 41426
" />
<path d="M126181 41426
L126181 42213
" />
<path d="M122287 41426
L122287 42213
" />
<path d="M121500 41426
L122287 41426
" />
<path d="M131649 36745
L131649 37532
" />
<path d="M127755 41426
L131649 41426
" />
<path d="M126968 41426
L127755 41426
" />
<path d="M131649 37532
L131649 41426
" />
<path d="M149628 36745
L149628 37532
" />
<path d="M149628 37532
L149628 41426
" />
<path d="M149628 41426
L149628 42213
" />
<path d="M175393 41426
L176181 41426
" />
<path d="M175393 41426
L175393 42213
" />
<path d="M176968 41426
L180861 41426
" />
<path d="M180861 41426
L181649 41426
" />
<path d="M176181 41426
L176968 41426
" />
<path d="M182436 41426
L186329 41426
" />
<path d="M186329 41426
L187117 41426
" />
<path d="M181649 41426
L182436 41426
" />
<path d="M187904 41426
L191797 41426
" />
<path d="M191797 41426
L192585 41426
" />
<path d="M187117 41426
L187904 41426
" />
<path d="M197265 41426
L198053 41426
" />
<path d="M197265 41426
L197265 42213
" />
<path d="M193372 41426
L193372 42213
" />
<path d="M192585 41426
L193372 41426
" />
<path d="M202734 36745
L202734 37532
" />
<path d="M198840 41426
L202734 41426
" />
<path d="M198053 41426
L198840 41426
" />
<path d="M202734 37532
L202734 41426
" />
<path d="M220713 36745
L220713 37532
" />
<path d="M220713 37532
L220713 41426
" />
<path d="M220713 41426
L220713 42213
" />
<path d="M230074 41426
L230861 41426
" />
<path d="M230074 41426
L230074 42213
" />
<path d="M231649 41426
L235542 41426
" />
<path d="M235542 41426
L236329 41426
" />
<path d="M230861 41426
L231649 41426
" />
<path d="M237117 41426
L241010 41426
" />
<path d="M241010 41426
L241797 41426
" />
<path d="M236329 41426
L237117 41426
" />
<path d="M242585 41426
L242585 42213
" />
<path d="M241797 41426
L242585 41426
" />
<path d="M268350 41426
L269138 41426
" />
<path d="M268350 41426
L268350 42213
" />
<path d="M269925 41426
L273818 41426
" />
<path d="M273818 41426
L274606 41426
" />
<path d="M269138 41426
L269925 41426
" />
<path d="M275393 41426
L279286 41426
" />
<path d="M279286 41426
L280074 41426
" />
<path d="M274606 41426
L275393 41426
" />
<path d="M280861 41426
L284755 41426
" />
<path d="M284755 41426
L285542 41426
" />
<path d="M280074 41426
L280861 41426
" />
<path d="M286329 41426
L286329 42213
" />
<path d="M285542 41426
L286329 41426
" />
<path d="M27755 46894
L28543 46894
" />
<path d="M27755 46894
L27755 47681
" />
<path d="M29330 46894
L33223 46894
" />
<path d="M33223 46894
L34011 46894
" />
<path d="M28543 46894
L29330 46894
" />
<path d="M38692 42213
L38692 43000
" />
<path d="M34798 46894
L38692 46894
" />
<path d="M34011 46894
L34798 46894
" />
<path d="M38692 43000
L38692 46894
" />
<path d="M67607 42213
L67607 43000
" />
<path d="M67607 43000
L67607 46894
" />
<path d="M67607 46894
L71500 46894
" />
<path d="M71500 46894
L72287 46894
" />
<path d="M73075 46894
L73075 47681
" />
<path d="M72287 46894
L73075 46894
" />
<path d="M93372 46894
L94160 46894
" />
<path d="M93372 46894
L93372 47681
" />
<path d="M94947 46894
L98840 46894
" />
<path d="M98840 46894
L99628 46894
" />
<path d="M94160 46894
L94947 46894
" />
<path d="M104308 42213
L104308 43000
" />
<path d="M100415 46894
L104308 46894
" />
<path d="M99628 46894
L100415 46894
" />
<path d="M104308 43000
L104308 46894
" />
<path d="M122287 42213
L122287 43000
" />
<path d="M126181 42213
L126181 43000
" />
<path d="M126181 43000
L126181 46894
" />
<path d="M122287 46894
L126181 46894
" />
<path d="M122287 43000
L122287 46894
" />
<path d="M149628 42213
L149628 43000
" />
<path d="M149628 43000
L149628 46894
" />
<path d="M149628 46894
L149628 47681
" />
<path d="M164457 46894
L165244 46894
" />
<path d="M164457 46894
L164457 47681
" />
<path d="M166032 46894
L169925 46894
" />
<path d="M169925 46894
L170713 46894
" />
<path d="M165244 46894
L166032 46894
" />
<path d="M175393 42213
L175393 43000
" />
<path d="M171500 46894
L175393 46894
" />
<path d="M170713 46894
L171500 46894
" />
<path d="M175393 43000
L175393 46894
" />
<path d="M193372 42213
L193372 43000
" />
<path d="M197265 42213
L197265 43000
" />
<path d="M197265 43000
L197265 46894
" />
<path d="M193372 46894
L197265 46894
" />
<path d="M193372 43000
L193372 46894
" />
<path d="M220713 42213
L220713 43000
" />
<path d="M224606 46894
L225393 46894
" />
<path d="M224606 46894
L224606 47681
" />
<path d="M220713 46894
L220713 47681
" />
<path d="M220713 43000
L220713 46894
" />
<path d="M230074 42213
L230074 43000
" />
<path d="M226181 46894
L230074 46894
" />
<path d="M225393 46894
L226181 46894
" />
<path d="M230074 43000
L230074 46894
" />
<path d="M242585 42213
L242585 43000
" />
<path d="M242585 43000
L242585 46894
" />
<path d="M242585 46894
L242585 47681
" />
<path d="M262882 46894
L263670 46894
" />
<path d="M262882 46894
L262882 47681
" />
<path d="M268350 42213
L268350 43000
" />
<path d="M264457 46894
L268350 46894
" />
<path d="M263670 46894
L264457 46894
" />
<path d="M268350 43000
L268350 46894
" />
<path d="M286329 42213
L286329 43000
" />
<path d="M286329 43000
L286329 46894
" />
<path d="M286329 46894
L286329 47681
" />
<path d="M27755 47681
L27755 48468
" />
<path d="M27755 52362
L27755 53149
" />
<path d="M27755 48468
L27755 52362
" />
<path d="M73075 47681
L73075 48468
" />
<path d="M73075 48468
L73075 52362
" />
<path d="M73075 52362
L76968 52362
" />
<path d="M76968 52362
L77755 52362
" />
<path d="M78543 52362
L78543 53149
" />
<path d="M77755 52362
L78543 52362
" />
<path d="M87904 52362
L88692 52362
" />
<path d="M87904 52362
L87904 53149
" />
<path d="M93372 47681
L93372 48468
" />
<path d="M89479 52362
L93372 52362
" />
<path d="M88692 52362
L89479 52362
" />
<path d="M93372 48468
L93372 52362
" />
<path d="M144160 48468
L148053 48468
" />
<path d="M148053 48468
L148840 48468
" />
<path d="M144160 48468
L144160 52362
" />
<path d="M144160 52362
L144160 53149
" />
<path d="M149628 47681
L149628 48468
" />
<path d="M148840 48468
L149628 48468
" />
<path d="M158989 52362
L159776 52362
" />
<path d="M158989 52362
L158989 53149
" />
<path d="M164457 47681
L164457 48468
" />
<path d="M160564 52362
L164457 52362
" />
<path d="M159776 52362
L160564 52362
" />
<path d="M164457 48468
L164457 52362
" />
<path d="M215244 48468
L219138 48468
" />
<path d="M219138 48468
L219925 48468
" />
<path d="M215244 48468
L215244 52362
" />
<path d="M215244 52362
L215244 53149
" />
<path d="M220713 47681
L220713 48468
" />
<path d="M224606 47681
L224606 48468
" />
<path d="M224606 52362
L224606 53149
" />
<path d="M219925 48468
L220713 48468
" />
<path d="M224606 48468
L224606 52362
" />
<path d="M242585 47681
L242585 48468
" />
<path d="M242585 48468
L242585 52362
" />
<path d="M242585 52362
L246478 52362
" />
<path d="M246478 52362
L247265 52362
" />
<path d="M248053 52362
L248053 53149
" />
<path d="M247265 52362
L248053 52362
" />
<path d="M262882 47681
L262882 48468
" />
<path d="M262882 52362
L262882 53149
" />
<path d="M262882 48468
L262882 52362
" />
<path d="M286329 47681
L286329 48468
" />
<path d="M286329 48468
L286329 52362
" />
<path d="M286329 52362
L286329 53149
" />
<path d="M22287 57830
L23075 57830
" />
<path d="M22287 57830
L22287 58617
" />
<path d="M27755 53149
L27755 53937
" />
<path d="M23862 57830
L27755 57830
" />
<path d="M23075 57830
L23862 57830
" />
<path d="M27755 53937
L27755 57830
" />
<path d="M55096 57830
L55096 58617
" />
<path d="M51202 57830
L51202 58617
" />
<path d="M51202 53937
L55096 53937
" />
<path d="M55096 53937
L55096 57830
" />
<path d="M51202 53937
L51202 57830
" />
<path d="M78543 53149
L78543 53937
" />
<path d="M78543 53937
L78543 57830
" />
<path d="M78543 57830
L78543 58617
" />
<path d="M87904 53149
L87904 53937
" />
<path d="M87904 57830
L87904 58617
" />
<path d="M87904 53937
L87904 57830
" />
<path d="M144160 53149
L144160 53937
" />
<path d="M144160 53937
L144160 57830
" />
<path d="M144160 57830
L144160 58617
" />
<path d="M158989 53149
L158989 53937
" />
<path d="M158989 57830
L158989 58617
" />
<path d="M158989 53937
L158989 57830
" />
<path d="M215244 53149
L215244 53937
" />
<path d="M215244 53937
L215244 57830
" />
<path d="M215244 57830
L215244 58617
" />
<path d="M224606 53149
L224606 53937
" />
<path d="M224606 57830
L224606 58617
" />
<path d="M224606 53937
L224606 57830
" />
<path d="M248053 53149
L248053 53937
" />
<path d="M248053 53937
L248053 57830
" />
<path d="M248053 57830
L248053 58617
" />
<path d="M257414 57830
L258202 57830
" />
<path d="M257414 57830
L257414 58617
" />
<path d="M262882 53149
L262882 53937
" />
<path d="M258989 57830
L262882 57830
" />
<path d="M258202 57830
L258989 57830
" />
<path d="M262882 53937
L262882 57830
" />
<path d="M280861 53937
L284755 53937
" />
<path d="M284755 53937
L285542 53937
" />
<path d="M280861 53937
L280861 57830
" />
<path d="M280861 57830
L280861 58617
" />
<path d="M286329 53149
L286329 53937
" />
<path d="M285542 53937
L286329 53937
" />
<path d="M16819 63298
L17607 63298
" />
<path d="M16819 63298
L16819 64085
" />
<path d="M22287 58617
L22287 59405
" />
<path d="M18394 63298
L22287 63298
" />
<path d="M17607 63298
L18394 63298
" />
<path d="M22287 59405
L22287 63298
" />
<path d="M40266 59405
L44160 59405
" />
<path d="M44160 59405
L44947 59405
" />
<path d="M40266 59405
L40266 63298
" />
<path d="M40266 63298
L40266 64085
" />
<path d="M45734 59405
L49628 59405
" />
<path d="M49628 59405
L50415 59405
" />
<path d="M44947 59405
L45734 59405
" />
<path d="M51202 58617
L51202 59405
" />
<path d="M55096 58617
L55096 59405
" />
<path d="M55096 59405
L55883 59405
" />
<path d="M55096 63298
L55883 63298
" />
<path d="M55096 63298
L55096 64085
" />
<path d="M50415 59405
L51202 59405
" />
<path d="M55883 63298
L56671 63298
" />
<path d="M55883 59405
L56671 59405
" />
<path d="M56671 59405
L60564 59405
" />
<path d="M60564 59405
L60564 63298
" />
<path d="M56671 63298
L60564 63298
" />
<path d="M78543 58617
L78543 59405
" />
<path d="M78543 59405
L78543 63298
" />
<path d="M78543 63298
L78543 64085
" />
<path d="M87904 58617
L87904 59405
" />
<path d="M87904 63298
L87904 64085
" />
<path d="M87904 59405
L87904 63298
" />
<path d="M111351 59405
L115244 59405
" />
<path d="M115244 59405
L116032 59405
" />
<path d="M111351 59405
L111351 63298
" />
<path d="M111351 63298
L111351 64085
" />
<path d="M116819 59405
L120713 59405
" />
<path d="M120713 59405
L120713 63298
" />
<path d="M120713 63298
L120713 64085
" />
<path d="M116032 59405
L116819 59405
" />
<path d="M144160 58617
L144160 59405
" />
<path d="M144160 59405
L144160 63298
" />
<path d="M144160 63298
L144160 64085
" />
<path d="M158989 58617
L158989 59405
" />
<path d="M158989 63298
L158989 64085
" />
<path d="M158989 59405
L158989 63298
" />
<path d="M182436 59405
L186329 59405
" />
<path d="M186329 59405
L187117 59405
" />
<path d="M182436 59405
L182436 63298
" />
<path d="M182436 63298
L182436 64085
" />
<path d="M187904 59405
L191797 59405
" />
<path d="M191797 59405
L191797 63298
" />
<path d="M191797 63298
L191797 64085
" />
<path d="M187117 59405
L187904 59405
" />
<path d="M215244 58617
L215244 59405
" />
<path d="M215244 59405
L215244 63298
" />
<path d="M215244 63298
L215244 64085
" />
<path d="M224606 58617
L224606 59405
" />
<path d="M224606 59405
L225393 59405
" />
<path d="M226181 59405
L230074 59405
" />
<path d="M230074 59405
L230074 63298
" />
<path d="M230074 63298
L230074 64085
" />
<path d="M225393 59405
L226181 59405
" />
<path d="M248053 58617
L248053 59405
" />
<path d="M248053 59405
L248053 63298
" />
<path d="M248053 63298
L248053 64085
" />
<path d="M257414 58617
L257414 59405
" />
<path d="M257414 63298
L257414 64085
" />
<path d="M257414 59405
L257414 63298
" />
<path d="M280861 58617
L280861 59405
" />
<path d="M280861 59405
L280861 63298
" />
<path d="M280861 63298
L280861 64085
" />
<path d="M16819 64085
L16819 64873
" />
<path d="M16819 68766
L16819 69553
" />
<path d="M16819 64873
L16819 68766
" />
<path d="M40266 64085
L40266 64873
" />
<path d="M40266 64873
L40266 68766
" />
<path d="M40266 68766
L44160 68766
" />
<path d="M44160 68766
L44947 68766
" />
<path d="M45734 68766
L49628 68766
" />
<path d="M49628 68766
L50415 68766
" />
<path d="M44947 68766
L45734 68766
" />
<path d="M55096 64085
L55096 64873
" />
<path d="M51202 68766
L55096 68766
" />
<path d="M50415 68766
L51202 68766
" />
<path d="M55096 64873
L55096 68766
" />
<path d="M73075 64873
L76968 64873
" />
<path d="M76968 64873
L77755 64873
" />
<path d="M73075 64873
L73075 68766
" />
<path d="M73075 68766
L73075 69553
" />
<path d="M78543 64085
L78543 64873
" />
<path d="M82436 68766
L83223 68766
" />
<path d="M82436 68766
L82436 69553
" />
<path d="M77755 64873
L78543 64873
" />
<path d="M87904 64085
L87904 64873
" />
<path d="M84011 68766
L87904 68766
" />
<path d="M83223 68766
L84011 68766
" />
<path d="M87904 64873
L87904 68766
" />
<path d="M105883 64873
L109776 64873
" />
<path d="M109776 64873
L110564 64873
" />
<path d="M105883 64873
L105883 68766
" />
<path d="M105883 68766
L105883 69553
" />
<path d="M111351 64085
L111351 64873
" />
<path d="M110564 64873
L111351 64873
" />
<path d="M120713 64085
L120713 64873
" />
<path d="M120713 64873
L121500 64873
" />
<path d="M120713 68766
L121500 68766
" />
<path d="M120713 68766
L120713 69553
" />
<path d="M121500 68766
L122287 68766
" />
<path d="M121500 64873
L122287 64873
" />
<path d="M122287 64873
L126181 64873
" />
<path d="M126181 64873
L126181 68766
" />
<path d="M122287 68766
L126181 68766
" />
<path d="M144160 64085
L144160 64873
" />
<path d="M144160 64873
L144160 68766
" />
<path d="M144160 68766
L144160 69553
" />
<path d="M153521 68766
L154308 68766
" />
<path d="M153521 68766
L153521 69553
" />
<path d="M158989 64085
L158989 64873
" />
<path d="M155096 68766
L158989 68766
" />
<path d="M154308 68766
L155096 68766
" />
<path d="M158989 64873
L158989 68766
" />
<path d="M176968 64873
L180861 64873
" />
<path d="M180861 64873
L181649 64873
" />
<path d="M176968 64873
L176968 68766
" />
<path d="M176968 68766
L176968 69553
" />
<path d="M182436 64085
L182436 64873
" />
<path d="M181649 64873
L182436 64873
" />
<path d="M191797 64085
L191797 64873
" />
<path d="M191797 64873
L192585 64873
" />
<path d="M191797 68766
L192585 68766
" />
<path d="M191797 68766
L191797 69553
" />
<path d="M192585 68766
L193372 68766
" />
<path d="M192585 64873
L193372 64873
" />
<path d="M193372 64873
L197265 64873
" />
<path d="M197265 64873
L197265 68766
" />
<path d="M193372 68766
L197265 68766
" />
<path d="M215244 64085
L215244 64873
" />
<path d="M215244 64873
L215244 68766
" />
<path d="M215244 68766
L215244 69553
" />
<path d="M230074 64085
L230074 64873
" />
<path d="M230074 68766
L230074 69553
" />
<path d="M230074 64873
L230074 68766
" />
<path d="M248053 64085
L248053 64873
" />
<path d="M251946 68766
L252734 68766
" />
<path d="M251946 68766
L251946 69553
" />
<path d="M248053 68766
L248053 69553
" />
<path d="M248053 64873
L248053 68766
" />
<path d="M257414 64085
L257414 64873
" />
<path d="M253521 68766
L257414 68766
" />
<path d="M252734 68766
L253521 68766
" />
<path d="M257414 64873
L257414 68766
" />
<path d="M275393 64873
L279286 64873
" />
<path d="M279286 64873
L280074 64873
" />
<path d="M275393 64873
L275393 68766
" />
<path d="M275393 68766
L275393 69553
" />
<path d="M280861 64085
L280861 64873
" />
<path d="M280074 64873
L280861 64873
" />
<path d="M16819 69553
L16819 70341
" />
<path d="M16819 74234
L16819 75021
" />
<path d="M16819 70341
L16819 74234
" />
<path d="M73075 69553
L73075 70341
" />
<path d="M73075 70341
L73075 74234
" />
<path d="M73075 74234
L73075 75021
" />
<path d="M82436 69553
L82436 70341
" />
<path d="M82436 74234
L82436 75021
" />
<path d="M82436 70341
L82436 74234
" />
<path d="M105883 69553
L105883 70341
" />
<path d="M105883 70341
L105883 74234
" />
<path d="M105883 74234
L105883 75021
" />
<path d="M120713 69553
L120713 70341
" />
<path d="M120713 74234
L120713 75021
" />
<path d="M120713 70341
L120713 74234
" />
<path d="M138692 70341
L142585 70341
" />
<path d="M142585 70341
L143372 70341
" />
<path d="M138692 70341
L138692 74234
" />
<path d="M138692 74234
L138692 75021
" />
<path d="M144160 69553
L144160 70341
" />
<path d="M143372 70341
L144160 70341
" />
<path d="M153521 69553
L153521 70341
" />
<path d="M153521 74234
L153521 75021
" />
<path d="M153521 70341
L153521 74234
" />
<path d="M176968 69553
L176968 70341
" />
<path d="M176968 70341
L176968 74234
" />
<path d="M176968 74234
L176968 75021
" />
<path d="M191797 69553
L191797 70341
" />
<path d="M191797 74234
L191797 75021
" />
<path d="M191797 70341
L191797 74234
" />
<path d="M209776 70341
L213670 70341
" />
<path d="M213670 70341
L214457 70341
" />
<path d="M209776 70341
L209776 74234
" />
<path d="M209776 74234
L209776 75021
" />
<path d="M215244 69553
L215244 70341
" />
<path d="M214457 70341
L215244 70341
" />
<path d="M230074 69553
L230074 70341
" />
<path d="M230074 74234
L230074 75021
" />
<path d="M230074 70341
L230074 74234
" />
<path d="M248053 69553
L248053 70341
" />
<path d="M251946 69553
L251946 70341
" />
<path d="M251946 74234
L251946 75021
" />
<path d="M248053 74234
L248053 75021
" />
<path d="M251946 70341
L251946 74234
" />
<path d="M248053 70341
L248053 74234
" />
<path d="M275393 69553
L275393 70341
" />
<path d="M275393 70341
L275393 74234
" />
<path d="M275393 74234
L275393 75021
" />
<path d="M16819 75021
L16819 75809
" />
<path d="M16819 79702
L16819 80489
" />
<path d="M16819 75809
L16819 79702
" />
<path d="M62139 75809
L66032 75809
" />
<path d="M66032 75809
L66819 75809
" />
<path d="M62139 75809
L62139 79702
" />
<path d="M62139 79702
L62139 80489
" />
<path d="M67607 75809
L71500 75809
" />
<path d="M71500 75809
L72287 75809
" />
<path d="M66819 75809
L67607 75809
" />
<path d="M73075 75021
L73075 75809
" />
<path d="M72287 75809
L73075 75809
" />
<path d="M82436 75021
L82436 75809
" />
<path d="M82436 79702
L82436 80489
" />
<path d="M82436 75809
L82436 79702
" />
<path d="M100415 75809
L104308 75809
" />
<path d="M104308 75809
L105096 75809
" />
<path d="M100415 75809
L100415 79702
" />
<path d="M100415 79702
L100415 80489
" />
<path d="M105883 75021
L105883 75809
" />
<path d="M105096 75809
L105883 75809
" />
<path d="M120713 75021
L120713 75809
" />
<path d="M120713 79702
L120713 80489
" />
<path d="M120713 75809
L120713 79702
" />
<path d="M138692 75021
L138692 75809
" />
<path d="M138692 75809
L138692 79702
" />
<path d="M138692 79702
L138692 80489
" />
<path d="M153521 75021
L153521 75809
" />
<path d="M153521 79702
L153521 80489
" />
<path d="M153521 75809
L153521 79702
" />
<path d="M171500 75809
L175393 75809
" />
<path d="M175393 75809
L176181 75809
" />
<path d="M171500 75809
L171500 79702
" />
<path d="M171500 79702
L171500 80489
" />
<path d="M176968 75021
L176968 75809
" />
<path d="M176181 75809
L176968 75809
" />
<path d="M191797 75021
L191797 75809
" />
<path d="M191797 79702
L191797 80489
" />
<path d="M191797 75809
L191797 79702
" />
<path d="M209776 75021
L209776 75809
" />
<path d="M209776 75809
L209776 79702
" />
<path d="M209776 79702
L209776 80489
" />
<path d="M230074 75021
L230074 75809
" />
<path d="M230074 79702
L230074 80489
" />
<path d="M230074 75809
L230074 79702
" />
<path d="M248053 75021
L248053 75809
" />
<path d="M251946 75021
L251946 75809
" />
<path d="M251946 75809
L251946 79702
" />
<path d="M248053 79702
L251946 79702
" />
<path d="M248053 75809
L248053 79702
" />
<path d="M269925 75809
L273818 75809
" />
<path d="M273818 75809
L274606 75809
" />
<path d="M269925 75809
L269925 79702
" />
<path d="M269925 79702
L269925 80489
" />
<path d="M275393 75021
L275393 75809
" />
<path d="M274606 75809
L275393 75809
" />
<path d="M16819 80489
L16819 81277
" />
<path d="M16819 85170
L16819 85957
" />
<path d="M16819 81277
L16819 85170
" />
<path d="M34798 81277
L38692 81277
" />
<path d="M38692 81277
L39479 81277
" />
<path d="M34798 81277
L34798 85170
" />
<path d="M34798 85170
L34798 85957
" />
<path d="M40266 81277
L44160 81277
" />
<path d="M44160 81277
L44947 81277
" />
<path d="M39479 81277
L40266 81277
" />
<path d="M45734 81277
L49628 81277
" />
<path d="M49628 81277
L50415 81277
" />
<path d="M44947 81277
L45734 81277
" />
<path d="M51202 81277
L55096 81277
" />
<path d="M55096 81277
L55883 81277
" />
<path d="M50415 81277
L51202 81277
" />
<path d="M56671 81277
L60564 81277
" />
<path d="M60564 81277
L61351 81277
" />
<path d="M55883 81277
L56671 81277
" />
<path d="M62139 80489
L62139 81277
" />
<path d="M61351 81277
L62139 81277
" />
<path d="M82436 80489
L82436 81277
" />
<path d="M82436 85170
L82436 85957
" />
<path d="M82436 81277
L82436 85170
" />
<path d="M100415 80489
L100415 81277
" />
<path d="M100415 81277
L100415 85170
" />
<path d="M100415 85170
L100415 85957
" />
<path d="M115244 85170
L116032 85170
" />
<path d="M115244 85170
L115244 85957
" />
<path d="M120713 80489
L120713 81277
" />
<path d="M116819 85170
L120713 85170
" />
<path d="M116032 85170
L116819 85170
" />
<path d="M120713 81277
L120713 85170
" />
<path d="M138692 80489
L138692 81277
" />
<path d="M138692 81277
L138692 85170
" />
<path d="M138692 85170
L138692 85957
" />
<path d="M153521 80489
L153521 81277
" />
<path d="M153521 85170
L153521 85957
" />
<path d="M153521 81277
L153521 85170
" />
<path d="M171500 80489
L171500 81277
" />
<path d="M171500 81277
L171500 85170
" />
<path d="M171500 85170
L171500 85957
" />
<path d="M186329 85170
L187117 85170
" />
<path d="M186329 85170
L186329 85957
" />
<path d="M191797 80489
L191797 81277
" />
<path d="M187904 85170
L191797 85170
" />
<path d="M187117 85170
L187904 85170
" />
<path d="M191797 81277
L191797 85170
" />
<path d="M209776 80489
L209776 81277
" />
<path d="M209776 81277
L209776 85170
" />
<path d="M209776 85170
L209776 85957
" />
<path d="M230074 80489
L230074 81277
" />
<path d="M230074 85170
L230074 85957
" />
<path d="M230074 81277
L230074 85170
" />
<path d="M269925 80489
L269925 81277
" />
<path d="M269925 81277
L269925 85170
" />
<path d="M269925 85170
L269925 85957
" />
<path d="M16819 85957
L16819 86745
" />
<path d="M16819 90638
L16819 91426
" />
<path d="M16819 86745
L16819 90638
" />
<path d="M34798 85957
L34798 86745
" />
<path d="M34798 86745
L34798 90638
" />
<path d="M34798 90638
L38692 90638
" />
<path d="M38692 90638
L39479 90638
" />
<path d="M40266 90638
L44160 90638
" />
<path d="M44160 90638
L44947 90638
" />
<path d="M39479 90638
L40266 90638
" />
<path d="M49628 90638
L50415 90638
" />
<path d="M49628 90638
L49628 91426
" />
<path d="M45734 90638
L45734 91426
" />
<path d="M44947 90638
L45734 90638
" />
<path d="M51202 90638
L55096 90638
" />
<path d="M55096 90638
L55883 90638
" />
<path d="M50415 90638
L51202 90638
" />
<path d="M56671 90638
L60564 90638
" />
<path d="M60564 90638
L61351 90638
" />
<path d="M55883 90638
L56671 90638
" />
<path d="M62139 90638
L66032 90638
" />
<path d="M66032 90638
L66819 90638
" />
<path d="M61351 90638
L62139 90638
" />
<path d="M67607 90638
L67607 91426
" />
<path d="M66819 90638
L67607 90638
" />
<path d="M82436 85957
L82436 86745
" />
<path d="M82436 90638
L82436 91426
" />
<path d="M82436 86745
L82436 90638
" />
<path d="M100415 85957
L100415 86745
" />
<path d="M100415 86745
L100415 90638
" />
<path d="M100415 90638
L104308 90638
" />
<path d="M104308 90638
L105096 90638
" />
<path d="M105883 90638
L109776 90638
" />
<path d="M109776 90638
L110564 90638
" />
<path d="M105096 90638
L105883 90638
" />
<path d="M115244 85957
L115244 86745
" />
<path d="M111351 90638
L115244 90638
" />
<path d="M110564 90638
L111351 90638
" />
<path d="M115244 86745
L115244 90638
" />
<path d="M138692 85957
L138692 86745
" />
<path d="M138692 86745
L138692 90638
" />
<path d="M138692 90638
L138692 91426
" />
<path d="M153521 85957
L153521 86745
" />
<path d="M153521 90638
L153521 91426
" />
<path d="M153521 86745
L153521 90638
" />
<path d="M171500 85957
L171500 86745
" />
<path d="M171500 86745
L171500 90638
" />
<path d="M171500 90638
L175393 90638
" />
<path d="M175393 90638
L176181 90638
" />
<path d="M176968 90638
L180861 90638
" />
<path d="M180861 90638
L181649 90638
" />
<path d="M176181 90638
L176968 90638
" />
<path d="M186329 85957
L186329 86745
" />
<path d="M182436 90638
L186329 90638
" />
<path d="M181649 90638
L182436 90638
" />
<path d="M186329 86745
L186329 90638
" />
<path d="M209776 85957
L209776 86745
" />
<path d="M209776 86745
L209776 90638
" />
<path d="M209776 90638
L209776 91426
" />
<path d="M230074 85957
L230074 86745
" />
<path d="M230074 90638
L230074 91426
" />
<path d="M230074 86745
L230074 90638
" />
<path d="M264457 86745
L268350 86745
" />
<path d="M268350 86745
L269138 86745
" />
<path d="M264457 86745
L264457 90638
" />
<path d="M264457 90638
L264457 91426
" />
<path d="M269925 85957
L269925 86745
" />
<path d="M269138 86745
L269925 86745
" />
<path d="M16819 91426
L16819 92213
" />
<path d="M16819 96106
L16819 96894
" />
<path d="M16819 92213
L16819 96106
" />
<path d="M45734 91426
L45734 92213
" />
<path d="M49628 91426
L49628 92213
" />
<path d="M49628 92213
L49628 96106
" />
<path d="M45734 96106
L49628 96106
" />
<path d="M45734 92213
L45734 96106
" />
<path d="M67607 91426
L67607 92213
" />
<path d="M67607 92213
L67607 96106
" />
<path d="M67607 96106
L67607 96894
" />
<path d="M82436 91426
L82436 92213
" />
<path d="M82436 96106
L82436 96894
" />
<path d="M82436 92213
L82436 96106
" />
<path d="M138692 91426
L138692 92213
" />
<path d="M138692 92213
L138692 96106
" />
<path d="M138692 96106
L138692 96894
" />
<path d="M153521 91426
L153521 92213
" />
<path d="M153521 96106
L153521 96894
" />
<path d="M153521 92213
L153521 96106
" />
<path d="M209776 91426
L209776 92213
" />
<path d="M209776 92213
L209776 96106
" />
<path d="M209776 96106
L209776 96894
" />
<path d="M230074 91426
L230074 92213
" />
<path d="M230074 92213
L230861 92213
" />
<path d="M231649 92213
L235542 92213
" />
<path d="M235542 92213
L235542 96106
" />
<path d="M235542 96106
L235542 96894
" />
<path d="M230861 92213
L231649 92213
" />
<path d="M258989 92213
L262882 92213
" />
<path d="M262882 92213
L263670 92213
" />
<path d="M258989 92213
L258989 96106
" />
<path d="M258989 96106
L258989 96894
" />
<path d="M264457 91426
L264457 92213
" />
<path d="M263670 92213
L264457 92213
" />
<path d="M16819 96894
L16819 97681
" />
<path d="M16819 97681
L17607 97681
" />
<path d="M18394 97681
L22287 97681
" />
<path d="M22287 97681
L22287 101574
" />
<path d="M22287 101574
L22287 102362
" />
<path d="M17607 97681
L18394 97681
" />
<path d="M67607 96894
L67607 97681
" />
<path d="M67607 97681
L67607 101574
" />
<path d="M67607 101574
L67607 102362
" />
<path d="M82436 96894
L82436 97681
" />
<path d="M82436 97681
L83223 97681
" />
<path d="M84011 97681
L87904 97681
" />
<path d="M87904 97681
L87904 101574
" />
<path d="M87904 101574
L87904 102362
" />
<path d="M83223 97681
L84011 97681
" />
<path d="M133223 97681
L137117 97681
" />
<path d="M137117 97681
L137904 97681
" />
<path d="M133223 97681
L133223 101574
" />
<path d="M133223 101574
L133223 102362
" />
<path d="M138692 96894
L138692 97681
" />
<path d="M137904 97681
L138692 97681
" />
<path d="M153521 96894
L153521 97681
" />
<path d="M153521 97681
L154308 97681
" />
<path d="M155096 97681
L158989 97681
" />
<path d="M158989 97681
L158989 101574
" />
<path d="M158989 101574
L158989 102362
" />
<path d="M154308 97681
L155096 97681
" />
<path d="M204308 97681
L208202 97681
" />
<path d="M208202 97681
L208989 97681
" />
<path d="M204308 97681
L204308 101574
" />
<path d="M204308 101574
L204308 102362
" />
<path d="M209776 96894
L209776 97681
" />
<path d="M208989 97681
L209776 97681
" />
<path d="M235542 96894
L235542 97681
" />
<path d="M235542 101574
L235542 102362
" />
<path d="M235542 97681
L235542 101574
" />
<path d="M258989 96894
L258989 97681
" />
<path d="M258989 97681
L258989 101574
" />
<path d="M258989 101574
L258989 102362
" />
<path d="M22287 102362
L22287 103149
" />
<path d="M22287 103149
L23075 103149
" />
<path d="M23862 103149
L27755 103149
" />
<path d="M27755 103149
L27755 107042
" />
<path d="M27755 107042
L27755 107830
" />
<path d="M23075 103149
L23862 103149
" />
<path d="M62139 103149
L66032 103149
" />
<path d="M66032 103149
L66819 103149
" />
<path d="M62139 103149
L62139 107042
" />
<path d="M62139 107042
L62139 107830
" />
<path d="M67607 102362
L67607 103149
" />
<path d="M66819 103149
L67607 103149
" />
<path d="M87904 102362
L87904 103149
" />
<path d="M87904 103149
L88692 103149
" />
<path d="M89479 103149
L93372 103149
" />
<path d="M93372 103149
L93372 107042
" />
<path d="M93372 107042
L93372 107830
" />
<path d="M88692 103149
L89479 103149
" />
<path d="M111351 103149
L115244 103149
" />
<path d="M115244 103149
L116032 103149
" />
<path d="M111351 103149
L111351 107042
" />
<path d="M111351 107042
L111351 107830
" />
<path d="M116819 103149
L120713 103149
" />
<path d="M120713 103149
L120713 107042
" />
<path d="M120713 107042
L120713 107830
" />
<path d="M116032 103149
L116819 103149
" />
<path d="M133223 102362
L133223 103149
" />
<path d="M133223 103149
L133223 107042
" />
<path d="M133223 107042
L133223 107830
" />
<path d="M158989 102362
L158989 103149
" />
<path d="M158989 103149
L159776 103149
" />
<path d="M160564 103149
L164457 103149
" />
<path d="M164457 103149
L164457 107042
" />
<path d="M164457 107042
L164457 107830
" />
<path d="M159776 103149
L160564 103149
" />
<path d="M182436 103149
L186329 103149
" />
<path d="M186329 103149
L187117 103149
" />
<path d="M182436 103149
L182436 107042
" />
<path d="M182436 107042
L182436 107830
" />
<path d="M187904 103149
L191797 103149
" />
<path d="M191797 103149
L191797 107042
" />
<path d="M191797 107042
L191797 107830
" />
<path d="M187117 103149
L187904 103149
" />
<path d="M204308 102362
L204308 103149
" />
<path d="M204308 103149
L204308 107042
" />
<path d="M204308 107042
L204308 107830
" />
<path d="M235542 102362
L235542 103149
" />
<path d="M235542 107042
L235542 107830
" />
<path d="M235542 103149
L235542 107042
" />
<path d="M253521 103149
L257414 103149
" />
<path d="M257414 103149
L258202 103149
" />
<path d="M253521 103149
L253521 107042
" />
<path d="M253521 107042
L253521 107830
" />
<path d="M258989 102362
L258989 103149
" />
<path d="M258202 103149
L258989 103149
" />
<path d="M27755 107830
L27755 108617
" />
<path d="M27755 108617
L28543 108617
" />
<path d="M29330 108617
L33223 108617
" />
<path d="M33223 108617
L34011 108617
" />
<path d="M28543 108617
L29330 108617
" />
<path d="M34798 108617
L38692 108617
" />
<path d="M38692 108617
L39479 108617
" />
<path d="M34011 108617
L34798 108617
" />
<path d="M40266 108617
L44160 108617
" />
<path d="M44160 108617
L44947 108617
" />
<path d="M39479 108617
L40266 108617
" />
<path d="M45734 108617
L49628 108617
" />
<path d="M49628 108617
L50415 108617
" />
<path d="M44947 108617
L45734 108617
" />
<path d="M51202 108617
L55096 108617
" />
<path d="M55096 108617
L55883 108617
" />
<path d="M50415 108617
L51202 108617
" />
<path d="M56671 108617
L60564 108617
" />
<path d="M60564 108617
L61351 108617
" />
<path d="M55883 108617
L56671 108617
" />
<path d="M62139 107830
L62139 108617
" />
<path d="M61351 108617
L62139 108617
" />
<path d="M93372 107830
L93372 108617
" />
<path d="M93372 108617
L94160 108617
" />
<path d="M94947 108617
L98840 108617
" />
<path d="M98840 108617
L99628 108617
" />
<path d="M94160 108617
L94947 108617
" />
<path d="M100415 108617
L104308 108617
" />
<path d="M104308 108617
L105096 108617
" />
<path d="M99628 108617
L100415 108617
" />
<path d="M105883 108617
L109776 108617
" />
<path d="M109776 108617
L110564 108617
" />
<path d="M105096 108617
L105883 108617
" />
<path d="M111351 107830
L111351 108617
" />
<path d="M110564 108617
L111351 108617
" />
<path d="M120713 107830
L120713 108617
" />
<path d="M120713 108617
L121500 108617
" />
<path d="M122287 108617
L126181 108617
" />
<path d="M126181 108617
L126968 108617
" />
<path d="M121500 108617
L122287 108617
" />
<path d="M127755 108617
L131649 108617
" />
<path d="M131649 108617
L132436 108617
" />
<path d="M126968 108617
L127755 108617
" />
<path d="M133223 107830
L133223 108617
" />
<path d="M132436 108617
L133223 108617
" />
<path d="M164457 107830
L164457 108617
" />
<path d="M164457 108617
L165244 108617
" />
<path d="M166032 108617
L169925 108617
" />
<path d="M169925 108617
L170713 108617
" />
<path d="M165244 108617
L166032 108617
" />
<path d="M171500 108617
L175393 108617
" />
<path d="M175393 108617
L176181 108617
" />
<path d="M170713 108617
L171500 108617
" />
<path d="M176968 108617
L180861 108617
" />
<path d="M180861 108617
L181649 108617
" />
<path d="M176181 108617
L176968 108617
" />
<path d="M182436 107830
L182436 108617
" />
<path d="M181649 108617
L182436 108617
" />
<path d="M191797 107830
L191797 108617
" />
<path d="M191797 108617
L192585 108617
" />
<path d="M193372 108617
L197265 108617
" />
<path d="M197265 108617
L198053 108617
" />
<path d="M192585 108617
L193372 108617
" />
<path d="M198840 108617
L202734 108617
" />
<path d="M202734 108617
L203521 108617
" />
<path d="M198053 108617
L198840 108617
" />
<path d="M204308 107830
L204308 108617
" />
<path d="M208202 112510
L208989 112510
" />
<path d="M208202 112510
L208202 113298
" />
<path d="M203521 108617
L204308 108617
" />
<path d="M209776 112510
L213670 112510
" />
<path d="M213670 112510
L214457 112510
" />
<path d="M208989 112510
L209776 112510
" />
<path d="M215244 112510
L219138 112510
" />
<path d="M219138 112510
L219925 112510
" />
<path d="M214457 112510
L215244 112510
" />
<path d="M220713 112510
L220713 113298
" />
<path d="M219925 112510
L220713 112510
" />
<path d="M230074 112510
L230861 112510
" />
<path d="M230074 112510
L230074 113298
" />
<path d="M235542 107830
L235542 108617
" />
<path d="M231649 112510
L235542 112510
" />
<path d="M230861 112510
L231649 112510
" />
<path d="M235542 108617
L235542 112510
" />
<path d="M253521 107830
L253521 108617
" />
<path d="M253521 108617
L253521 112510
" />
<path d="M253521 112510
L253521 113298
" />
<path d="M208202 113298
L208202 114085
" />
<path d="M208202 117979
L208202 118766
" />
<path d="M208202 114085
L208202 117979
" />
<path d="M220713 113298
L220713 114085
" />
<path d="M220713 114085
L220713 117979
" />
<path d="M220713 117979
L224606 117979
" />
<path d="M224606 117979
L225393 117979
" />
<path d="M230074 113298
L230074 114085
" />
<path d="M226181 117979
L230074 117979
" />
<path d="M225393 117979
L226181 117979
" />
<path d="M230074 114085
L230074 117979
" />
<path d="M248053 114085
L251946 114085
" />
<path d="M251946 114085
L252734 114085
" />
<path d="M248053 114085
L248053 117979
" />
<path d="M248053 117979
L248053 118766
" />
<path d="M253521 113298
L253521 114085
" />
<path d="M252734 114085
L253521 114085
" />
<path d="M208202 118766
L208202 119553
" />
<path d="M208202 123447
L208202 124234
" />
<path d="M208202 119553
L208202 123447
" />
<path d="M248053 118766
L248053 119553
" />
<path d="M248053 119553
L248053 123447
" />
<path d="M248053 123447
L248053 124234
" />
<path d="M208202 124234
L208202 125021
" />
<path d="M208202 128915
L208202 129702
" />
<path d="M208202 125021
L208202 128915
" />
<path d="M242585 125021
L246478 125021
" />
<path d="M246478 125021
L247265 125021
" />
<path d="M242585 125021
L242585 128915
" />
<path d="M242585 128915
L242585 129702
" />
<path d="M248053 124234
L248053 125021
" />
<path d="M247265 125021
L248053 125021
" />
<path d="M76968 134383
L77755 134383
" />
<path d="M76968 134383
L76968 135170
" />
<path d="M78543 134383
L82436 134383
" />
<path d="M82436 134383
L83223 134383
" />
<path d="M77755 134383
L78543 134383
" />
<path d="M84011 134383
L87904 134383
" />
<path d="M87904 134383
L88692 134383
" />
<path d="M83223 134383
L84011 134383
" />
<path d="M89479 134383
L93372 134383
" />
<path d="M93372 134383
L94160 134383
" />
<path d="M88692 134383
L89479 134383
" />
<path d="M94947 134383
L98840 134383
" />
<path d="M98840 134383
L99628 134383
" />
<path d="M94160 134383
L94947 134383
" />
<path d="M100415 134383
L100415 135170
" />
<path d="M99628 134383
L100415 134383
" />
<path d="M208202 129702
L208202 130489
" />
<path d="M208202 130489
L208989 130489
" />
<path d="M209776 130489
L213670 130489
" />
<path d="M213670 130489
L213670 134383
" />
<path d="M213670 134383
L213670 135170
" />
<path d="M208989 130489
L209776 130489
" />
<path d="M231649 130489
L235542 130489
" />
<path d="M235542 130489
L236329 130489
" />
<path d="M231649 130489
L231649 134383
" />
<path d="M231649 134383
L231649 135170
" />
<path d="M237117 130489
L241010 130489
" />
<path d="M241010 130489
L241797 130489
" />
<path d="M236329 130489
L237117 130489
" />
<path d="M242585 129702
L242585 130489
" />
<path d="M241797 130489
L242585 130489
" />
<path d="M71500 139851
L72287 139851
" />
<path d="M71500 139851
L71500 140638
" />
<path d="M76968 135170
L76968 135957
" />
<path d="M73075 139851
L76968 139851
" />
<path d="M72287 139851
L73075 139851
" />
<path d="M76968 135957
L76968 139851
" />
<path d="M100415 135170
L100415 135957
" />
<path d="M100415 135957
L100415 139851
" />
<path d="M100415 139851
L104308 139851
" />
<path d="M104308 139851
L105096 139851
" />
<path d="M105883 139851
L105883 140638
" />
<path d="M105096 139851
L105883 139851
" />
<path d="M213670 135170
L213670 135957
" />
<path d="M213670 135957
L214457 135957
" />
<path d="M215244 135957
L219138 135957
" />
<path d="M219138 135957
L219925 135957
" />
<path d="M214457 135957
L215244 135957
" />
<path d="M220713 135957
L224606 135957
" />
<path d="M224606 135957
L225393 135957
" />
<path d="M219925 135957
L220713 135957
" />
<path d="M226181 135957
L230074 135957
" />
<path d="M230074 135957
L230861 135957
" />
<path d="M225393 135957
L226181 135957
" />
<path d="M231649 135170
L231649 135957
" />
<path d="M230861 135957
L231649 135957
" />
<path d="M66032 145319
L66819 145319
" />
<path d="M66032 145319
L66032 146106
" />
<path d="M71500 140638
L71500 141426
" />
<path d="M67607 145319
L71500 145319
" />
<path d="M66819 145319
L67607 145319
" />
<path d="M71500 141426
L71500 145319
" />
<path d="M105883 140638
L105883 141426
" />
<path d="M105883 141426
L105883 145319
" />
<path d="M105883 145319
L105883 146106
" />
<path d="M164457 145319
L165244 145319
" />
<path d="M164457 145319
L164457 146106
" />
<path d="M166032 145319
L169925 145319
" />
<path d="M169925 145319
L170713 145319
" />
<path d="M165244 145319
L166032 145319
" />
<path d="M171500 145319
L175393 145319
" />
<path d="M175393 145319
L176181 145319
" />
<path d="M170713 145319
L171500 145319
" />
<path d="M176968 145319
L176968 146106
" />
<path d="M176181 145319
L176968 145319
" />
<path d="M202734 145319
L203521 145319
" />
<path d="M202734 145319
L202734 146106
" />
<path d="M204308 145319
L208202 145319
" />
<path d="M208202 145319
L208989 145319
" />
<path d="M203521 145319
L204308 145319
" />
<path d="M209776 145319
L213670 145319
" />
<path d="M213670 145319
L214457 145319
" />
<path d="M208989 145319
L209776 145319
" />
<path d="M215244 145319
L215244 146106
" />
<path d="M214457 145319
L215244 145319
" />
<path d="M66032 146106
L66032 146894
" />
<path d="M66032 150787
L66032 151574
" />
<path d="M66032 146894
L66032 150787
" />
<path d="M87904 150787
L87904 151574
" />
<path d="M84011 150787
L84011 151574
" />
<path d="M84011 146894
L87904 146894
" />
<path d="M87904 146894
L87904 150787
" />
<path d="M84011 146894
L84011 150787
" />
<path d="M105883 146106
L105883 146894
" />
<path d="M105883 146894
L105883 150787
" />
<path d="M105883 150787
L105883 151574
" />
<path d="M158989 150787
L159776 150787
" />
<path d="M158989 150787
L158989 151574
" />
<path d="M164457 146106
L164457 146894
" />
<path d="M160564 150787
L164457 150787
" />
<path d="M159776 150787
L160564 150787
" />
<path d="M164457 146894
L164457 150787
" />
<path d="M176968 146106
L176968 146894
" />
<path d="M176968 146894
L176968 150787
" />
<path d="M176968 150787
L176968 151574
" />
<path d="M197265 150787
L198053 150787
" />
<path d="M197265 150787
L197265 151574
" />
<path d="M202734 146106
L202734 146894
" />
<path d="M198840 150787
L202734 150787
" />
<path d="M198053 150787
L198840 150787
" />
<path d="M202734 146894
L202734 150787
" />
<path d="M215244 146106
L215244 146894
" />
<path d="M215244 146894
L215244 150787
" />
<path d="M215244 150787
L215244 151574
" />
<path d="M66032 151574
L66032 152362
" />
<path d="M66032 156255
L66032 157042
" />
<path d="M66032 152362
L66032 156255
" />
<path d="M82436 152362
L83223 152362
" />
<path d="M82436 156255
L83223 156255
" />
<path d="M78543 152362
L82436 152362
" />
<path d="M78543 156255
L82436 156255
" />
<path d="M78543 152362
L78543 156255
" />
<path d="M84011 151574
L84011 152362
" />
<path d="M87904 151574
L87904 152362
" />
<path d="M87904 152362
L88692 152362
" />
<path d="M87904 156255
L88692 156255
" />
<path d="M87904 156255
L87904 157042
" />
<path d="M84011 156255
L84011 157042
" />
<path d="M83223 156255
L84011 156255
" />
<path d="M83223 152362
L84011 152362
" />
<path d="M88692 156255
L89479 156255
" />
<path d="M88692 152362
L89479 152362
" />
<path d="M89479 152362
L93372 152362
" />
<path d="M93372 152362
L93372 156255
" />
<path d="M89479 156255
L93372 156255
" />
<path d="M105883 151574
L105883 152362
" />
<path d="M105883 152362
L105883 156255
" />
<path d="M105883 156255
L105883 157042
" />
<path d="M158989 151574
L158989 152362
" />
<path d="M158989 156255
L158989 157042
" />
<path d="M158989 152362
L158989 156255
" />
<path d="M176968 151574
L176968 152362
" />
<path d="M176968 152362
L176968 156255
" />
<path d="M176968 156255
L176968 157042
" />
<path d="M197265 151574
L197265 152362
" />
<path d="M197265 156255
L197265 157042
" />
<path d="M197265 152362
L197265 156255
" />
<path d="M215244 151574
L215244 152362
" />
<path d="M215244 152362
L215244 156255
" />
<path d="M215244 156255
L215244 157042
" />
<path d="M66032 157042
L66032 157830
" />
<path d="M66032 161723
L66032 162510
" />
<path d="M66032 157830
L66032 161723
" />
<path d="M84011 157042
L84011 157830
" />
<path d="M87904 157042
L87904 157830
" />
<path d="M87904 157830
L87904 161723
" />
<path d="M84011 161723
L87904 161723
" />
<path d="M84011 157830
L84011 161723
" />
<path d="M105883 157042
L105883 157830
" />
<path d="M105883 157830
L105883 161723
" />
<path d="M105883 161723
L105883 162510
" />
<path d="M158989 157042
L158989 157830
" />
<path d="M158989 161723
L158989 162510
" />
<path d="M158989 157830
L158989 161723
" />
<path d="M171500 157830
L175393 157830
" />
<path d="M175393 157830
L176181 157830
" />
<path d="M171500 157830
L171500 161723
" />
<path d="M171500 161723
L171500 162510
" />
<path d="M176968 157042
L176968 157830
" />
<path d="M176181 157830
L176968 157830
" />
<path d="M197265 157042
L197265 157830
" />
<path d="M197265 161723
L197265 162510
" />
<path d="M197265 157830
L197265 161723
" />
<path d="M209776 157830
L213670 157830
" />
<path d="M213670 157830
L214457 157830
" />
<path d="M209776 157830
L209776 161723
" />
<path d="M209776 161723
L209776 162510
" />
<path d="M215244 157042
L215244 157830
" />
<path d="M214457 157830
L215244 157830
" />
<path d="M60564 167191
L61351 167191
" />
<path d="M60564 167191
L60564 167979
" />
<path d="M66032 162510
L66032 163298
" />
<path d="M62139 167191
L66032 167191
" />
<path d="M61351 167191
L62139 167191
" />
<path d="M66032 163298
L66032 167191
" />
<path d="M104308 163298
L105096 163298
" />
<path d="M104308 167191
L105096 167191
" />
<path d="M104308 167191
L104308 167979
" />
<path d="M100415 167191
L100415 167979
" />
<path d="M100415 163298
L104308 163298
" />
<path d="M100415 163298
L100415 167191
" />
<path d="M105883 162510
L105883 163298
" />
<path d="M109776 167191
L110564 167191
" />
<path d="M105096 167191
L105883 167191
" />
<path d="M105096 163298
L105883 163298
" />
<path d="M105883 167191
L109776 167191
" />
<path d="M111351 167191
L115244 167191
" />
<path d="M115244 167191
L116032 167191
" />
<path d="M110564 167191
L111351 167191
" />
<path d="M116819 167191
L116819 167979
" />
<path d="M116032 167191
L116819 167191
" />
<path d="M158989 162510
L158989 163298
" />
<path d="M158989 163298
L159776 163298
" />
<path d="M160564 163298
L164457 163298
" />
<path d="M164457 163298
L165244 163298
" />
<path d="M159776 163298
L160564 163298
" />
<path d="M166032 163298
L169925 163298
" />
<path d="M169925 163298
L170713 163298
" />
<path d="M165244 163298
L166032 163298
" />
<path d="M171500 162510
L171500 163298
" />
<path d="M170713 163298
L171500 163298
" />
<path d="M197265 162510
L197265 163298
" />
<path d="M197265 163298
L198053 163298
" />
<path d="M198840 163298
L202734 163298
" />
<path d="M202734 163298
L203521 163298
" />
<path d="M198053 163298
L198840 163298
" />
<path d="M204308 163298
L208202 163298
" />
<path d="M208202 163298
L208989 163298
" />
<path d="M203521 163298
L204308 163298
" />
<path d="M209776 162510
L209776 163298
" />
<path d="M208989 163298
L209776 163298
" />
<path d="M55096 172659
L55883 172659
" />
<path d="M55096 172659
L55096 173447
" />
<path d="M60564 167979
L60564 168766
" />
<path d="M56671 172659
L60564 172659
" />
<path d="M55883 172659
L56671 172659
" />
<path d="M60564 168766
L60564 172659
" />
<path d="M93372 168766
L94160 168766
" />
<path d="M93372 172659
L94160 172659
" />
<path d="M89479 168766
L93372 168766
" />
<path d="M89479 172659
L93372 172659
" />
<path d="M89479 168766
L89479 172659
" />
<path d="M98840 168766
L99628 168766
" />
<path d="M98840 172659
L99628 172659
" />
<path d="M98840 172659
L98840 173447
" />
<path d="M94947 172659
L94947 173447
" />
<path d="M94160 172659
L94947 172659
" />
<path d="M94160 168766
L94947 168766
" />
<path d="M94947 168766
L98840 168766
" />
<path d="M100415 167979
L100415 168766
" />
<path d="M104308 167979
L104308 168766
" />
<path d="M99628 172659
L100415 172659
" />
<path d="M99628 168766
L100415 168766
" />
<path d="M104308 168766
L104308 172659
" />
<path d="M100415 172659
L104308 172659
" />
<path d="M116819 167979
L116819 168766
" />
<path d="M116819 168766
L116819 172659
" />
<path d="M116819 172659
L116819 173447
" />
<path d="M153521 172659
L154308 172659
" />
<path d="M153521 172659
L153521 173447
" />
<path d="M155096 172659
L158989 172659
" />
<path d="M158989 172659
L159776 172659
" />
<path d="M154308 172659
L155096 172659
" />
<path d="M160564 172659
L164457 172659
" />
<path d="M164457 172659
L165244 172659
" />
<path d="M159776 172659
L160564 172659
" />
<path d="M166032 172659
L169925 172659
" />
<path d="M169925 172659
L170713 172659
" />
<path d="M165244 172659
L166032 172659
" />
<path d="M171500 172659
L171500 173447
" />
<path d="M170713 172659
L171500 172659
" />
<path d="M191797 172659
L192585 172659
" />
<path d="M191797 172659
L191797 173447
" />
<path d="M193372 172659
L197265 172659
" />
<path d="M197265 172659
L198053 172659
" />
<path d="M192585 172659
L193372 172659
" />
<path d="M198840 172659
L202734 172659
" />
<path d="M202734 172659
L203521 172659
" />
<path d="M198053 172659
L198840 172659
" />
<path d="M204308 172659
L208202 172659
" />
<path d="M208202 172659
L208989 172659
" />
<path d="M203521 172659
L204308 172659
" />
<path d="M209776 172659
L209776 173447
" />
<path d="M208989 172659
L209776 172659
" />
<path d="M230074 172659
L230861 172659
" />
<path d="M230074 172659
L230074 173447
" />
<path d="M231649 172659
L235542 172659
" />
<path d="M235542 172659
L236329 172659
" />
<path d="M230861 172659
L231649 172659
" />
<path d="M237117 172659
L241010 172659
" />
<path d="M241010 172659
L241797 172659
" />
<path d="M236329 172659
L237117 172659
" />
<path d="M242585 172659
L242585 173447
" />
<path d="M241797 172659
L242585 172659
" />
<path d="M251946 172659
L252734 172659
" />
<path d="M251946 172659
L251946 173447
" />
<path d="M253521 172659
L257414 172659
" />
<path d="M257414 172659
L258202 172659
" />
<path d="M252734 172659
L253521 172659
" />
<path d="M258989 172659
L262882 172659
" />
<path d="M262882 172659
L263670 172659
" />
<path d="M258202 172659
L258989 172659
" />
<path d="M264457 172659
L268350 172659
" />
<path d="M268350 172659
L269138 172659
" />
<path d="M263670 172659
L264457 172659
" />
<path d="M269925 172659
L273818 172659
" />
<path d="M273818 172659
L274606 172659
" />
<path d="M269138 172659
L269925 172659
" />
<path d="M275393 172659
L275393 173447
" />
<path d="M274606 172659
L275393 172659
" />
<path d="M290223 172659
L291010 172659
" />
<path d="M290223 172659
L290223 173447
" />
<path d="M291797 172659
L295691 172659
" />
<path d="M295691 172659
L296478 172659
" />
<path d="M291010 172659
L291797 172659
" />
<path d="M297265 172659
L301159 172659
" />
<path d="M301159 172659
L301946 172659
" />
<path d="M296478 172659
L297265 172659
" />
<path d="M302734 172659
L306627 172659
" />
<path d="M306627 172659
L307414 172659
" />
<path d="M301946 172659
L302734 172659
" />
<path d="M308202 172659
L308202 173447
" />
<path d="M307414 172659
L308202 172659
" />
<path d="M55096 173447
L55096 174234
" />
<path d="M55096 178127
L55096 178915
" />
<path d="M55096 174234
L55096 178127
" />
<path d="M94947 173447
L94947 174234
" />
<path d="M98840 173447
L98840 174234
" />
<path d="M98840 178127
L98840 178915
" />
<path d="M94947 178127
L94947 178915
" />
<path d="M98840 174234
L98840 178127
" />
<path d="M94947 174234
L94947 178127
" />
<path d="M116819 173447
L116819 174234
" />
<path d="M116819 174234
L116819 178127
" />
<path d="M116819 178127
L116819 178915
" />
<path d="M153521 173447
L153521 174234
" />
<path d="M153521 178127
L153521 178915
" />
<path d="M153521 174234
L153521 178127
" />
<path d="M171500 173447
L171500 174234
" />
<path d="M171500 174234
L171500 178127
" />
<path d="M171500 178127
L171500 178915
" />
<path d="M191797 173447
L191797 174234
" />
<path d="M191797 178127
L191797 178915
" />
<path d="M191797 174234
L191797 178127
" />
<path d="M209776 173447
L209776 174234
" />
<path d="M209776 174234
L209776 178127
" />
<path d="M209776 178127
L209776 178915
" />
<path d="M230074 173447
L230074 174234
" />
<path d="M230074 178127
L230074 178915
" />
<path d="M230074 174234
L230074 178127
" />
<path d="M242585 173447
L242585 174234
" />
<path d="M246478 178127
L247265 178127
" />
<path d="M246478 178127
L246478 178915
" />
<path d="M242585 178127
L242585 178915
" />
<path d="M242585 174234
L242585 178127
" />
<path d="M251946 173447
L251946 174234
" />
<path d="M248053 178127
L251946 178127
" />
<path d="M247265 178127
L248053 178127
" />
<path d="M251946 174234
L251946 178127
" />
<path d="M275393 173447
L275393 174234
" />
<path d="M275393 174234
L275393 178127
" />
<path d="M275393 178127
L279286 178127
" />
<path d="M279286 178127
L280074 178127
" />
<path d="M284755 178127
L285542 178127
" />
<path d="M284755 178127
L284755 178915
" />
<path d="M280861 178127
L280861 178915
" />
<path d="M280074 178127
L280861 178127
" />
<path d="M290223 173447
L290223 174234
" />
<path d="M286329 178127
L290223 178127
" />
<path d="M285542 178127
L286329 178127
" />
<path d="M290223 174234
L290223 178127
" />
<path d="M308202 173447
L308202 174234
" />
<path d="M308202 174234
L308202 178127
" />
<path d="M308202 178127
L312095 178127
" />
<path d="M312095 178127
L312882 178127
" />
<path d="M313670 178127
L313670 178915
" />
<path d="M312882 178127
L313670 178127
" />
<path d="M55096 178915
L55096 179702
" />
<path d="M55096 183595
L55096 184383
" />
<path d="M55096 179702
L55096 183595
" />
<path d="M76968 183595
L76968 184383
" />
<path d="M73075 183595
L73075 184383
" />
<path d="M73075 179702
L76968 179702
" />
<path d="M76968 179702
L76968 183595
" />
<path d="M73075 179702
L73075 183595
" />
<path d="M94947 178915
L94947 179702
" />
<path d="M98840 178915
L98840 179702
" />
<path d="M98840 179702
L98840 183595
" />
<path d="M94947 183595
L98840 183595
" />
<path d="M94947 179702
L94947 183595
" />
<path d="M111351 179702
L115244 179702
" />
<path d="M115244 179702
L116032 179702
" />
<path d="M111351 179702
L111351 183595
" />
<path d="M111351 183595
L111351 184383
" />
<path d="M116819 178915
L116819 179702
" />
<path d="M116032 179702
L116819 179702
" />
<path d="M148053 183595
L148840 183595
" />
<path d="M148053 183595
L148053 184383
" />
<path d="M153521 178915
L153521 179702
" />
<path d="M149628 183595
L153521 183595
" />
<path d="M148840 183595
L149628 183595
" />
<path d="M153521 179702
L153521 183595
" />
<path d="M171500 178915
L171500 179702
" />
<path d="M171500 179702
L171500 183595
" />
<path d="M171500 183595
L171500 184383
" />
<path d="M186329 183595
L187117 183595
" />
<path d="M186329 183595
L186329 184383
" />
<path d="M191797 178915
L191797 179702
" />
<path d="M187904 183595
L191797 183595
" />
<path d="M187117 183595
L187904 183595
" />
<path d="M191797 179702
L191797 183595
" />
<path d="M209776 178915
L209776 179702
" />
<path d="M209776 179702
L209776 183595
" />
<path d="M209776 183595
L209776 184383
" />
<path d="M224606 183595
L225393 183595
" />
<path d="M224606 183595
L224606 184383
" />
<path d="M230074 178915
L230074 179702
" />
<path d="M226181 183595
L230074 183595
" />
<path d="M225393 183595
L226181 183595
" />
<path d="M230074 179702
L230074 183595
" />
<path d="M242585 178915
L242585 179702
" />
<path d="M246478 178915
L246478 179702
" />
<path d="M246478 179702
L246478 183595
" />
<path d="M242585 183595
L246478 183595
" />
<path d="M242585 179702
L242585 183595
" />
<path d="M280861 178915
L280861 179702
" />
<path d="M284755 178915
L284755 179702
" />
<path d="M284755 179702
L284755 183595
" />
<path d="M280861 183595
L284755 183595
" />
<path d="M280861 179702
L280861 183595
" />
<path d="M313670 178915
L313670 179702
" />
<path d="M313670 179702
L313670 183595
" />
<path d="M313670 183595
L317563 183595
" />
<path d="M317563 183595
L318350 183595
" />
<path d="M319138 183595
L319138 184383
" />
<path d="M318350 183595
L319138 183595
" />
<path d="M55096 184383
L55096 185170
" />
<path d="M55096 189063
L55096 189851
" />
<path d="M55096 185170
L55096 189063
" />
<path d="M71500 185170
L72287 185170
" />
<path d="M71500 189063
L72287 189063
" />
<path d="M67607 185170
L71500 185170
" />
<path d="M67607 189063
L71500 189063
" />
<path d="M67607 185170
L67607 189063
" />
<path d="M73075 184383
L73075 185170
" />
<path d="M76968 184383
L76968 185170
" />
<path d="M76968 185170
L77755 185170
" />
<path d="M73075 189063
L73075 189851
" />
<path d="M72287 189063
L73075 189063
" />
<path d="M72287 185170
L73075 185170
" />
<path d="M78543 185170
L82436 185170
" />
<path d="M82436 185170
L82436 189063
" />
<path d="M82436 189063
L82436 189851
" />
<path d="M77755 185170
L78543 185170
" />
<path d="M111351 184383
L111351 185170
" />
<path d="M111351 185170
L111351 189063
" />
<path d="M111351 189063
L111351 189851
" />
<path d="M148053 184383
L148053 185170
" />
<path d="M148053 189063
L148053 189851
" />
<path d="M148053 185170
L148053 189063
" />
<path d="M171500 184383
L171500 185170
" />
<path d="M171500 185170
L171500 189063
" />
<path d="M171500 189063
L171500 189851
" />
<path d="M186329 184383
L186329 185170
" />
<path d="M186329 189063
L186329 189851
" />
<path d="M186329 185170
L186329 189063
" />
<path d="M209776 184383
L209776 185170
" />
<path d="M209776 185170
L209776 189063
" />
<path d="M209776 189063
L209776 189851
" />
<path d="M224606 184383
L224606 185170
" />
<path d="M224606 189063
L224606 189851
" />
<path d="M224606 185170
L224606 189063
" />
<path d="M319138 184383
L319138 185170
" />
<path d="M319138 185170
L319138 189063
" />
<path d="M319138 189063
L319138 189851
" />
<path d="M55096 189851
L55096 190638
" />
<path d="M55096 194531
L55096 195319
" />
<path d="M55096 190638
L55096 194531
" />
<path d="M73075 189851
L73075 190638
" />
<path d="M73075 190638
L73075 194531
" />
<path d="M73075 194531
L76968 194531
" />
<path d="M76968 194531
L77755 194531
" />
<path d="M82436 189851
L82436 190638
" />
<path d="M78543 194531
L82436 194531
" />
<path d="M77755 194531
L78543 194531
" />
<path d="M82436 190638
L82436 194531
" />
<path d="M109776 190638
L110564 190638
" />
<path d="M109776 194531
L110564 194531
" />
<path d="M105883 190638
L109776 190638
" />
<path d="M105883 194531
L109776 194531
" />
<path d="M105883 190638
L105883 194531
" />
<path d="M111351 189851
L111351 190638
" />
<path d="M111351 194531
L111351 195319
" />
<path d="M110564 194531
L111351 194531
" />
<path d="M110564 190638
L111351 190638
" />
<path d="M148053 189851
L148053 190638
" />
<path d="M148053 194531
L148053 195319
" />
<path d="M148053 190638
L148053 194531
" />
<path d="M166032 190638
L169925 190638
" />
<path d="M169925 190638
L170713 190638
" />
<path d="M166032 190638
L166032 194531
" />
<path d="M166032 194531
L166032 195319
" />
<path d="M171500 189851
L171500 190638
" />
<path d="M170713 190638
L171500 190638
" />
<path d="M186329 189851
L186329 190638
" />
<path d="M186329 194531
L186329 195319
" />
<path d="M186329 190638
L186329 194531
" />
<path d="M204308 190638
L208202 190638
" />
<path d="M208202 190638
L208989 190638
" />
<path d="M204308 190638
L204308 194531
" />
<path d="M204308 194531
L204308 195319
" />
<path d="M209776 189851
L209776 190638
" />
<path d="M208989 190638
L209776 190638
" />
<path d="M224606 189851
L224606 190638
" />
<path d="M224606 194531
L224606 195319
" />
<path d="M224606 190638
L224606 194531
" />
<path d="M253521 190638
L257414 190638
" />
<path d="M257414 190638
L258202 190638
" />
<path d="M253521 190638
L253521 194531
" />
<path d="M253521 194531
L253521 195319
" />
<path d="M258989 190638
L262882 190638
" />
<path d="M262882 190638
L262882 194531
" />
<path d="M262882 194531
L262882 195319
" />
<path d="M258202 190638
L258989 190638
" />
<path d="M295691 194531
L295691 195319
" />
<path d="M291797 194531
L291797 195319
" />
<path d="M291797 190638
L295691 190638
" />
<path d="M295691 190638
L295691 194531
" />
<path d="M291797 190638
L291797 194531
" />
<path d="M319138 189851
L319138 190638
" />
<path d="M319138 190638
L319138 194531
" />
<path d="M319138 194531
L319138 195319
" />
<path d="M55096 195319
L55096 196106
" />
<path d="M55096 200000
L55096 200787
" />
<path d="M55096 196106
L55096 200000
" />
<path d="M111351 195319
L111351 196106
" />
<path d="M111351 196106
L111351 200000
" />
<path d="M111351 200000
L111351 200787
" />
<path d="M148053 195319
L148053 196106
" />
<path d="M148053 200000
L148053 200787
" />
<path d="M148053 196106
L148053 200000
" />
<path d="M166032 195319
L166032 196106
" />
<path d="M166032 196106
L166032 200000
" />
<path d="M166032 200000
L166032 200787
" />
<path d="M186329 195319
L186329 196106
" />
<path d="M186329 200000
L186329 200787
" />
<path d="M186329 196106
L186329 200000
" />
<path d="M204308 195319
L204308 196106
" />
<path d="M204308 196106
L204308 200000
" />
<path d="M204308 200000
L204308 200787
" />
<path d="M224606 195319
L224606 196106
" />
<path d="M224606 200000
L224606 200787
" />
<path d="M224606 196106
L224606 200000
" />
<path d="M248053 196106
L251946 196106
" />
<path d="M251946 196106
L252734 196106
" />
<path d="M248053 196106
L248053 200000
" />
<path d="M248053 200000
L248053 200787
" />
<path d="M253521 195319
L253521 196106
" />
<path d="M252734 196106
L253521 196106
" />
<path d="M262882 195319
L262882 196106
" />
<path d="M262882 200000
L262882 200787
" />
<path d="M262882 196106
L262882 200000
" />
<path d="M280861 196106
L284755 196106
" />
<path d="M284755 196106
L285542 196106
" />
<path d="M280861 196106
L280861 200000
" />
<path d="M280861 200000
L280861 200787
" />
<path d="M286329 196106
L290223 196106
" />
<path d="M290223 196106
L291010 196106
" />
<path d="M285542 196106
L286329 196106
" />
<path d="M291797 195319
L291797 196106
" />
<path d="M295691 195319
L295691 196106
" />
<path d="M295691 200000
L295691 200787
" />
<path d="M291010 196106
L291797 196106
" />
<path d="M295691 196106
L295691 200000
" />
<path d="M319138 195319
L319138 196106
" />
<path d="M319138 196106
L319138 200000
" />
<path d="M319138 200000
L319138 200787
" />
<path d="M55096 200787
L55096 201574
" />
<path d="M55096 201574
L55883 201574
" />
<path d="M56671 201574
L60564 201574
" />
<path d="M60564 201574
L60564 205468
" />
<path d="M60564 205468
L60564 206255
" />
<path d="M55883 201574
L56671 201574
" />
<path d="M93372 205468
L93372 206255
" />
<path d="M89479 205468
L89479 206255
" />
<path d="M89479 201574
L93372 201574
" />
<path d="M93372 201574
L93372 205468
" />
<path d="M89479 201574
L89479 205468
" />
<path d="M111351 200787
L111351 201574
" />
<path d="M111351 201574
L111351 205468
" />
<path d="M111351 205468
L111351 206255
" />
<path d="M148053 200787
L148053 201574
" />
<path d="M148053 205468
L148053 206255
" />
<path d="M148053 201574
L148053 205468
" />
<path d="M166032 200787
L166032 201574
" />
<path d="M166032 201574
L166032 205468
" />
<path d="M166032 205468
L166032 206255
" />
<path d="M186329 200787
L186329 201574
" />
<path d="M186329 205468
L186329 206255
" />
<path d="M186329 201574
L186329 205468
" />
<path d="M204308 200787
L204308 201574
" />
<path d="M204308 201574
L204308 205468
" />
<path d="M204308 205468
L204308 206255
" />
<path d="M224606 200787
L224606 201574
" />
<path d="M224606 205468
L224606 206255
" />
<path d="M224606 201574
L224606 205468
" />
<path d="M242585 201574
L246478 201574
" />
<path d="M246478 201574
L247265 201574
" />
<path d="M242585 201574
L242585 205468
" />
<path d="M242585 205468
L242585 206255
" />
<path d="M248053 200787
L248053 201574
" />
<path d="M247265 201574
L248053 201574
" />
<path d="M257414 205468
L258202 205468
" />
<path d="M257414 205468
L257414 206255
" />
<path d="M262882 200787
L262882 201574
" />
<path d="M258989 205468
L262882 205468
" />
<path d="M258202 205468
L258989 205468
" />
<path d="M262882 201574
L262882 205468
" />
<path d="M280861 200787
L280861 201574
" />
<path d="M280861 201574
L280861 205468
" />
<path d="M280861 205468
L280861 206255
" />
<path d="M295691 200787
L295691 201574
" />
<path d="M295691 205468
L295691 206255
" />
<path d="M295691 201574
L295691 205468
" />
<path d="M319138 200787
L319138 201574
" />
<path d="M319138 201574
L319138 205468
" />
<path d="M319138 205468
L319138 206255
" />
<path d="M60564 206255
L60564 207042
" />
<path d="M60564 207042
L61351 207042
" />
<path d="M62139 207042
L66032 207042
" />
<path d="M66032 207042
L66819 207042
" />
<path d="M61351 207042
L62139 207042
" />
<path d="M67607 207042
L71500 207042
" />
<path d="M71500 207042
L72287 207042
" />
<path d="M66819 207042
L67607 207042
" />
<path d="M73075 207042
L76968 207042
" />
<path d="M76968 207042
L77755 207042
" />
<path d="M72287 207042
L73075 207042
" />
<path d="M78543 207042
L82436 207042
" />
<path d="M82436 207042
L83223 207042
" />
<path d="M77755 207042
L78543 207042
" />
<path d="M84011 207042
L87904 207042
" />
<path d="M87904 207042
L88692 207042
" />
<path d="M83223 207042
L84011 207042
" />
<path d="M89479 206255
L89479 207042
" />
<path d="M93372 206255
L93372 207042
" />
<path d="M93372 207042
L94160 207042
" />
<path d="M88692 207042
L89479 207042
" />
<path d="M94947 207042
L98840 207042
" />
<path d="M98840 207042
L99628 207042
" />
<path d="M94160 207042
L94947 207042
" />
<path d="M100415 207042
L104308 207042
" />
<path d="M104308 207042
L105096 207042
" />
<path d="M99628 207042
L100415 207042
" />
<path d="M105883 207042
L109776 207042
" />
<path d="M109776 207042
L110564 207042
" />
<path d="M105096 207042
L105883 207042
" />
<path d="M111351 206255
L111351 207042
" />
<path d="M110564 207042
L111351 207042
" />
<path d="M142585 210936
L143372 210936
" />
<path d="M142585 210936
L142585 211723
" />
<path d="M148053 206255
L148053 207042
" />
<path d="M144160 210936
L148053 210936
" />
<path d="M143372 210936
L144160 210936
" />
<path d="M148053 207042
L148053 210936
" />
<path d="M166032 206255
L166032 207042
" />
<path d="M166032 207042
L166032 210936
" />
<path d="M166032 210936
L166032 211723
" />
<path d="M180861 210936
L181649 210936
" />
<path d="M180861 210936
L180861 211723
" />
<path d="M186329 206255
L186329 207042
" />
<path d="M182436 210936
L186329 210936
" />
<path d="M181649 210936
L182436 210936
" />
<path d="M186329 207042
L186329 210936
" />
<path d="M204308 206255
L204308 207042
" />
<path d="M204308 207042
L204308 210936
" />
<path d="M204308 210936
L204308 211723
" />
<path d="M219138 210936
L219925 210936
" />
<path d="M219138 210936
L219138 211723
" />
<path d="M224606 206255
L224606 207042
" />
<path d="M220713 210936
L224606 210936
" />
<path d="M219925 210936
L220713 210936
" />
<path d="M224606 207042
L224606 210936
" />
<path d="M242585 206255
L242585 207042
" />
<path d="M242585 207042
L242585 210936
" />
<path d="M242585 210936
L242585 211723
" />
<path d="M257414 206255
L257414 207042
" />
<path d="M257414 210936
L257414 211723
" />
<path d="M257414 207042
L257414 210936
" />
<path d="M280861 206255
L280861 207042
" />
<path d="M280861 207042
L280861 210936
" />
<path d="M280861 210936
L280861 211723
" />
<path d="M295691 206255
L295691 207042
" />
<path d="M295691 210936
L295691 211723
" />
<path d="M295691 207042
L295691 210936
" />
<path d="M313670 207042
L317563 207042
" />
<path d="M317563 207042
L318350 207042
" />
<path d="M313670 207042
L313670 210936
" />
<path d="M313670 210936
L313670 211723
" />
<path d="M319138 206255
L319138 207042
" />
<path d="M318350 207042
L319138 207042
" />
<path d="M142585 211723
L142585 212510
" />
<path d="M142585 216404
L142585 217191
" />
<path d="M142585 212510
L142585 216404
" />
<path d="M166032 211723
L166032 212510
" />
<path d="M166032 212510
L166032 216404
" />
<path d="M166032 216404
L166032 217191
" />
<path d="M180861 211723
L180861 212510
" />
<path d="M180861 216404
L180861 217191
" />
<path d="M180861 212510
L180861 216404
" />
<path d="M204308 211723
L204308 212510
" />
<path d="M204308 212510
L204308 216404
" />
<path d="M204308 216404
L204308 217191
" />
<path d="M219138 211723
L219138 212510
" />
<path d="M219138 216404
L219138 217191
" />
<path d="M219138 212510
L219138 216404
" />
<path d="M242585 211723
L242585 212510
" />
<path d="M242585 212510
L242585 216404
" />
<path d="M242585 216404
L242585 217191
" />
<path d="M257414 211723
L257414 212510
" />
<path d="M257414 216404
L257414 217191
" />
<path d="M257414 212510
L257414 216404
" />
<path d="M275393 212510
L279286 212510
" />
<path d="M279286 212510
L280074 212510
" />
<path d="M275393 212510
L275393 216404
" />
<path d="M275393 216404
L275393 217191
" />
<path d="M280861 211723
L280861 212510
" />
<path d="M280074 212510
L280861 212510
" />
<path d="M295691 211723
L295691 212510
" />
<path d="M295691 216404
L295691 217191
" />
<path d="M295691 212510
L295691 216404
" />
<path d="M313670 211723
L313670 212510
" />
<path d="M313670 212510
L313670 216404
" />
<path d="M313670 216404
L313670 217191
" />
<path d="M142585 217191
L142585 217979
" />
<path d="M142585 221872
L142585 222659
" />
<path d="M142585 217979
L142585 221872
" />
<path d="M160564 217979
L164457 217979
" />
<path d="M164457 217979
L165244 217979
" />
<path d="M160564 217979
L160564 221872
" />
<path d="M160564 221872
L160564 222659
" />
<path d="M166032 217191
L166032 217979
" />
<path d="M165244 217979
L166032 217979
" />
<path d="M180861 217191
L180861 217979
" />
<path d="M180861 221872
L180861 222659
" />
<path d="M180861 217979
L180861 221872
" />
<path d="M198840 217979
L202734 217979
" />
<path d="M202734 217979
L203521 217979
" />
<path d="M198840 217979
L198840 221872
" />
<path d="M198840 221872
L198840 222659
" />
<path d="M204308 217191
L204308 217979
" />
<path d="M203521 217979
L204308 217979
" />
<path d="M219138 217191
L219138 217979
" />
<path d="M219138 221872
L219138 222659
" />
<path d="M219138 217979
L219138 221872
" />
<path d="M237117 217979
L241010 217979
" />
<path d="M241010 217979
L241797 217979
" />
<path d="M237117 217979
L237117 221872
" />
<path d="M237117 221872
L237117 222659
" />
<path d="M242585 217191
L242585 217979
" />
<path d="M241797 217979
L242585 217979
" />
<path d="M257414 217191
L257414 217979
" />
<path d="M257414 221872
L257414 222659
" />
<path d="M257414 217979
L257414 221872
" />
<path d="M275393 217191
L275393 217979
" />
<path d="M275393 217979
L275393 221872
" />
<path d="M275393 221872
L275393 222659
" />
<path d="M290223 221872
L291010 221872
" />
<path d="M290223 221872
L290223 222659
" />
<path d="M295691 217191
L295691 217979
" />
<path d="M291797 221872
L295691 221872
" />
<path d="M291010 221872
L291797 221872
" />
<path d="M295691 217979
L295691 221872
" />
<path d="M313670 217191
L313670 217979
" />
<path d="M313670 217979
L313670 221872
" />
<path d="M313670 221872
L313670 222659
" />
<path d="M142585 222659
L142585 223447
" />
<path d="M142585 227340
L142585 228127
" />
<path d="M142585 223447
L142585 227340
" />
<path d="M160564 222659
L160564 223447
" />
<path d="M160564 223447
L160564 227340
" />
<path d="M160564 227340
L160564 228127
" />
<path d="M175393 227340
L176181 227340
" />
<path d="M175393 227340
L175393 228127
" />
<path d="M180861 222659
L180861 223447
" />
<path d="M176968 227340
L180861 227340
" />
<path d="M176181 227340
L176968 227340
" />
<path d="M180861 223447
L180861 227340
" />
<path d="M198840 222659
L198840 223447
" />
<path d="M198840 223447
L198840 227340
" />
<path d="M198840 227340
L198840 228127
" />
<path d="M213670 227340
L214457 227340
" />
<path d="M213670 227340
L213670 228127
" />
<path d="M219138 222659
L219138 223447
" />
<path d="M215244 227340
L219138 227340
" />
<path d="M214457 227340
L215244 227340
" />
<path d="M219138 223447
L219138 227340
" />
<path d="M237117 222659
L237117 223447
" />
<path d="M237117 223447
L237117 227340
" />
<path d="M237117 227340
L237117 228127
" />
<path d="M251946 227340
L252734 227340
" />
<path d="M251946 227340
L251946 228127
" />
<path d="M257414 222659
L257414 223447
" />
<path d="M253521 227340
L257414 227340
" />
<path d="M252734 227340
L253521 227340
" />
<path d="M257414 223447
L257414 227340
" />
<path d="M275393 222659
L275393 223447
" />
<path d="M275393 223447
L275393 227340
" />
<path d="M275393 227340
L275393 228127
" />
<path d="M290223 222659
L290223 223447
" />
<path d="M290223 227340
L290223 228127
" />
<path d="M290223 223447
L290223 227340
" />
<path d="M313670 222659
L313670 223447
" />
<path d="M313670 223447
L313670 227340
" />
<path d="M313670 227340
L313670 228127
" />
<path d="M142585 228127
L142585 228915
" />
<path d="M142585 232808
L142585 233595
" />
<path d="M142585 228915
L142585 232808
" />
<path d="M160564 228127
L160564 228915
" />
<path d="M160564 228915
L160564 232808
" />
<path d="M160564 232808
L160564 233595
" />
<path d="M175393 228127
L175393 228915
" />
<path d="M175393 232808
L175393 233595
" />
<path d="M175393 228915
L175393 232808
" />
<path d="M198840 228127
L198840 228915
" />
<path d="M198840 228915
L198840 232808
" />
<path d="M198840 232808
L198840 233595
" />
<path d="M213670 228127
L213670 228915
" />
<path d="M213670 232808
L213670 233595
" />
<path d="M213670 228915
L213670 232808
" />
<path d="M237117 228127
L237117 228915
" />
<path d="M237117 228915
L237117 232808
" />
<path d="M237117 232808
L237117 233595
" />
<path d="M251946 228127
L251946 228915
" />
<path d="M251946 232808
L251946 233595
" />
<path d="M251946 228915
L251946 232808
" />
<path d="M275393 228127
L275393 228915
" />
<path d="M275393 228915
L275393 232808
" />
<path d="M275393 232808
L275393 233595
" />
<path d="M284755 232808
L285542 232808
" />
<path d="M284755 232808
L284755 233595
" />
<path d="M290223 228127
L290223 228915
" />
<path d="M286329 232808
L290223 232808
" />
<path d="M285542 232808
L286329 232808
" />
<path d="M290223 228915
L290223 232808
" />
<path d="M308202 228915
L312095 228915
" />
<path d="M312095 228915
L312882 228915
" />
<path d="M308202 228915
L308202 232808
" />
<path d="M308202 232808
L308202 233595
" />
<path d="M313670 228127
L313670 228915
" />
<path d="M312882 228915
L313670 228915
" />
<path d="M137117 238276
L137904 238276
" />
<path d="M137117 238276
L137117 239063
" />
<path d="M142585 233595
L142585 234383
" />
<path d="M138692 238276
L142585 238276
" />
<path d="M137904 238276
L138692 238276
" />
<path d="M142585 234383
L142585 238276
" />
<path d="M160564 233595
L160564 234383
" />
<path d="M160564 234383
L160564 238276
" />
<path d="M160564 238276
L160564 239063
" />
<path d="M175393 233595
L175393 234383
" />
<path d="M175393 238276
L175393 239063
" />
<path d="M175393 234383
L175393 238276
" />
<path d="M198840 233595
L198840 234383
" />
<path d="M198840 234383
L198840 238276
" />
<path d="M198840 238276
L198840 239063
" />
<path d="M213670 233595
L213670 234383
" />
<path d="M213670 238276
L213670 239063
" />
<path d="M213670 234383
L213670 238276
" />
<path d="M237117 233595
L237117 234383
" />
<path d="M237117 234383
L237117 238276
" />
<path d="M237117 238276
L237117 239063
" />
<path d="M251946 233595
L251946 234383
" />
<path d="M251946 238276
L251946 239063
" />
<path d="M251946 234383
L251946 238276
" />
<path d="M269925 234383
L273818 234383
" />
<path d="M273818 234383
L274606 234383
" />
<path d="M269925 234383
L269925 238276
" />
<path d="M269925 238276
L269925 239063
" />
<path d="M275393 233595
L275393 234383
" />
<path d="M274606 234383
L275393 234383
" />
<path d="M284755 233595
L284755 234383
" />
<path d="M284755 238276
L284755 239063
" />
<path d="M284755 234383
L284755 238276
" />
<path d="M308202 233595
L308202 234383
" />
<path d="M308202 234383
L308202 238276
" />
<path d="M308202 238276
L308202 239063
" />
<path d="M115244 243744
L116032 243744
" />
<path d="M115244 243744
L115244 244531
" />
<path d="M116819 243744
L120713 243744
" />
<path d="M120713 243744
L121500 243744
" />
<path d="M116032 243744
L116819 243744
" />
<path d="M122287 243744
L126181 243744
" />
<path d="M126181 243744
L126968 243744
" />
<path d="M121500 243744
L122287 243744
" />
<path d="M127755 243744
L127755 244531
" />
<path d="M126968 243744
L127755 243744
" />
<path d="M137117 239063
L137117 239851
" />
<path d="M137117 243744
L137117 244531
" />
<path d="M137117 239851
L137117 243744
" />
<path d="M160564 239063
L160564 239851
" />
<path d="M160564 239851
L160564 243744
" />
<path d="M160564 243744
L160564 244531
" />
<path d="M175393 239063
L175393 239851
" />
<path d="M175393 239851
L176181 239851
" />
<path d="M176968 239851
L180861 239851
" />
<path d="M180861 239851
L181649 239851
" />
<path d="M176181 239851
L176968 239851
" />
<path d="M182436 239851
L186329 239851
" />
<path d="M186329 239851
L187117 239851
" />
<path d="M181649 239851
L182436 239851
" />
<path d="M187904 239851
L191797 239851
" />
<path d="M191797 239851
L192585 239851
" />
<path d="M187117 239851
L187904 239851
" />
<path d="M193372 239851
L197265 239851
" />
<path d="M197265 239851
L198053 239851
" />
<path d="M192585 239851
L193372 239851
" />
<path d="M198840 239063
L198840 239851
" />
<path d="M198053 239851
L198840 239851
" />
<path d="M213670 239063
L213670 239851
" />
<path d="M213670 239851
L214457 239851
" />
<path d="M215244 239851
L219138 239851
" />
<path d="M219138 239851
L219925 239851
" />
<path d="M214457 239851
L215244 239851
" />
<path d="M220713 239851
L224606 239851
" />
<path d="M224606 239851
L225393 239851
" />
<path d="M219925 239851
L220713 239851
" />
<path d="M226181 239851
L230074 239851
" />
<path d="M230074 239851
L230861 239851
" />
<path d="M225393 239851
L226181 239851
" />
<path d="M231649 239851
L235542 239851
" />
<path d="M235542 239851
L236329 239851
" />
<path d="M230861 239851
L231649 239851
" />
<path d="M237117 239063
L237117 239851
" />
<path d="M236329 239851
L237117 239851
" />
<path d="M251946 239063
L251946 239851
" />
<path d="M251946 239851
L252734 239851
" />
<path d="M253521 239851
L257414 239851
" />
<path d="M257414 239851
L258202 239851
" />
<path d="M252734 239851
L253521 239851
" />
<path d="M258989 239851
L262882 239851
" />
<path d="M262882 239851
L263670 239851
" />
<path d="M258202 239851
L258989 239851
" />
<path d="M264457 239851
L268350 239851
" />
<path d="M268350 239851
L269138 239851
" />
<path d="M263670 239851
L264457 239851
" />
<path d="M269925 239063
L269925 239851
" />
<path d="M269138 239851
L269925 239851
" />
<path d="M284755 239063
L284755 239851
" />
<path d="M284755 239851
L285542 239851
" />
<path d="M286329 239851
L290223 239851
" />
<path d="M290223 239851
L291010 239851
" />
<path d="M285542 239851
L286329 239851
" />
<path d="M291797 239851
L295691 239851
" />
<path d="M295691 239851
L296478 239851
" />
<path d="M291010 239851
L291797 239851
" />
<path d="M297265 239851
L301159 239851
" />
<path d="M301159 239851
L301946 239851
" />
<path d="M296478 239851
L297265 239851
" />
<path d="M302734 239851
L306627 239851
" />
<path d="M306627 239851
L307414 239851
" />
<path d="M301946 239851
L302734 239851
" />
<path d="M308202 239063
L308202 239851
" />
<path d="M307414 239851
L308202 239851
" />
<path d="M115244 244531
L115244 245319
" />
<path d="M115244 249212
L115244 250000
" />
<path d="M115244 245319
L115244 249212
" />
<path d="M127755 244531
L127755 245319
" />
<path d="M127755 245319
L127755 249212
" />
<path d="M127755 249212
L131649 249212
" />
<path d="M131649 249212
L132436 249212
" />
<path d="M137117 244531
L137117 245319
" />
<path d="M133223 249212
L137117 249212
" />
<path d="M132436 249212
L133223 249212
" />
<path d="M137117 245319
L137117 249212
" />
<path d="M155096 245319
L158989 245319
" />
<path d="M158989 245319
L159776 245319
" />
<path d="M155096 245319
L155096 249212
" />
<path d="M155096 249212
L155096 250000
" />
<path d="M160564 244531
L160564 245319
" />
<path d="M159776 245319
L160564 245319
" />
<path d="M115244 250000
L115244 250787
" />
<path d="M115244 254680
L115244 255468
" />
<path d="M115244 250787
L115244 254680
" />
<path d="M155096 250000
L155096 250787
" />
<path d="M155096 250787
L155096 254680
" />
<path d="M155096 254680
L155096 255468
" />
<path d="M115244 255468
L115244 256255
" />
<path d="M115244 260148
L115244 260936
" />
<path d="M115244 256255
L115244 260148
" />
<path d="M149628 256255
L153521 256255
" />
<path d="M153521 256255
L154308 256255
" />
<path d="M149628 256255
L149628 260148
" />
<path d="M149628 260148
L149628 260936
" />
<path d="M155096 255468
L155096 256255
" />
<path d="M154308 256255
L155096 256255
" />
<path d="M115244 260936
L115244 261723
" />
<path d="M115244 261723
L116032 261723
" />
<path d="M116819 261723
L120713 261723
" />
<path d="M120713 261723
L120713 265616
" />
<path d="M120713 265616
L120713 266404
" />
<path d="M116032 261723
L116819 261723
" />
<path d="M138692 261723
L142585 261723
" />
<path d="M142585 261723
L143372 261723
" />
<path d="M138692 261723
L138692 265616
" />
<path d="M138692 265616
L138692 266404
" />
<path d="M144160 261723
L148053 261723
" />
<path d="M148053 261723
L148840 261723
" />
<path d="M143372 261723
L144160 261723
" />
<path d="M149628 260936
L149628 261723
" />
<path d="M148840 261723
L149628 261723
" />
<path d="M120713 266404
L120713 267191
" />
<path d="M120713 267191
L121500 267191
" />
<path d="M122287 267191
L126181 267191
" />
<path d="M126181 267191
L126968 267191
" />
<path d="M121500 267191
L122287 267191
" />
<path d="M127755 267191
L131649 267191
" />
<path d="M131649 267191
L132436 267191
" />
<path d="M126968 267191
L127755 267191
" />
<path d="M133223 267191
L137117 267191
" />
<path d="M137117 267191
L137904 267191
" />
<path d="M132436 267191
L133223 267191
" />
<path d="M138692 266404
L138692 267191
" />
<path d="M137904 267191
L138692 267191
" />
</g> 
</svg>
