M48
;DRILL file {KiCad 4.0.6} date Mon Jul 10 00:28:24 2017
;FORMAT={-:-/ absolute / metric / decimal}
FMAT,2
METRIC,TZ
T1C0.400
T2C0.762
T3C0.800
T4C1.600
%
G90
G05
M71
T1
X260.138Y-454.364
X267.208Y-458.216
X282.194Y-434.34
X290.576Y-440.182
X363.22Y-68.58
X366.163Y-51.203
X367.301Y-68.343
X378.714Y-41.656
X387.604Y-46.99
X388.81Y-43.116
X542.798Y-65.532
X547.878Y-63.5
X548.132Y-49.022
X558.546Y-39.37
X568.198Y-46.99
X569.214Y-43.434
X728.472Y-599.44
X753.11Y-603.25
T2
X47.857Y-162.778
X47.857Y-246.111
X50.397Y-162.778
X50.397Y-246.111
X52.937Y-162.778
X52.937Y-246.111
X55.477Y-162.778
X55.477Y-246.111
X61.746Y-148.889
X61.746Y-260.
X64.286Y-148.889
X64.286Y-260.
X66.826Y-148.889
X66.826Y-260.
X69.366Y-148.889
X69.366Y-260.
X75.634Y-121.111
X75.634Y-273.889
X78.174Y-121.111
X78.174Y-273.889
X80.714Y-121.111
X80.714Y-273.889
X83.254Y-121.111
X83.254Y-273.889
X89.523Y-121.111
X89.523Y-204.444
X89.523Y-232.222
X89.523Y-273.889
X92.063Y-121.111
X92.063Y-204.444
X92.063Y-232.222
X92.063Y-273.889
X94.603Y-121.111
X94.603Y-204.444
X94.603Y-232.222
X94.603Y-273.889
X97.143Y-121.111
X97.143Y-204.444
X97.143Y-232.222
X97.143Y-273.889
X103.412Y-107.222
X103.412Y-148.889
X103.412Y-176.667
X103.412Y-204.444
X103.412Y-232.222
X103.412Y-273.889
X105.952Y-107.222
X105.952Y-148.889
X105.952Y-176.667
X105.952Y-204.444
X105.952Y-232.222
X105.952Y-273.889
X108.492Y-107.222
X108.492Y-148.889
X108.492Y-176.667
X108.492Y-204.444
X108.492Y-232.222
X108.492Y-273.889
X111.032Y-107.222
X111.032Y-148.889
X111.032Y-176.667
X111.032Y-204.444
X111.032Y-232.222
X111.032Y-273.889
X117.301Y-107.222
X117.301Y-148.889
X117.301Y-176.667
X117.301Y-204.444
X117.301Y-246.111
X117.301Y-273.889
X119.841Y-107.222
X119.841Y-148.889
X119.841Y-176.667
X119.841Y-204.444
X119.841Y-246.111
X119.841Y-273.889
X122.381Y-107.222
X122.381Y-148.889
X122.381Y-176.667
X122.381Y-204.444
X122.381Y-246.111
X122.381Y-273.889
X124.921Y-107.222
X124.921Y-148.889
X124.921Y-176.667
X124.921Y-204.444
X124.921Y-246.111
X124.921Y-273.889
X131.19Y-107.222
X131.19Y-135.
X131.19Y-176.667
X131.19Y-204.444
X131.19Y-232.222
X131.19Y-273.889
X133.73Y-107.222
X133.73Y-135.
X133.73Y-176.667
X133.73Y-204.444
X133.73Y-232.222
X133.73Y-273.889
X136.27Y-107.222
X136.27Y-135.
X136.27Y-176.667
X136.27Y-204.444
X136.27Y-232.222
X136.27Y-273.889
X138.81Y-107.222
X138.81Y-135.
X138.81Y-176.667
X138.81Y-204.444
X138.81Y-232.222
X138.81Y-273.889
X145.079Y-107.222
X145.079Y-148.889
X145.079Y-162.778
X145.079Y-204.444
X145.079Y-232.222
X145.079Y-273.889
X145.079Y-440.556
X145.079Y-510.
X147.619Y-107.222
X147.619Y-148.889
X147.619Y-162.778
X147.619Y-204.444
X147.619Y-232.222
X147.619Y-273.889
X147.619Y-440.556
X147.619Y-510.
X150.159Y-107.222
X150.159Y-148.889
X150.159Y-162.778
X150.159Y-204.444
X150.159Y-232.222
X150.159Y-273.889
X150.159Y-440.556
X150.159Y-510.
X152.699Y-107.222
X152.699Y-148.889
X152.699Y-162.778
X152.699Y-204.444
X152.699Y-232.222
X152.699Y-273.889
X152.699Y-440.556
X152.699Y-510.
X158.968Y-107.222
X158.968Y-190.556
X158.968Y-232.222
X158.968Y-260.
X158.968Y-426.667
X158.968Y-523.889
X161.508Y-107.222
X161.508Y-190.556
X161.508Y-232.222
X161.508Y-260.
X161.508Y-426.667
X161.508Y-523.889
X164.048Y-107.222
X164.048Y-190.556
X164.048Y-232.222
X164.048Y-260.
X164.048Y-426.667
X164.048Y-523.889
X166.588Y-107.222
X166.588Y-190.556
X166.588Y-232.222
X166.588Y-260.
X166.588Y-426.667
X166.588Y-523.889
X172.857Y-121.111
X172.857Y-190.555
X172.857Y-371.111
X172.857Y-468.333
X172.857Y-482.222
X172.857Y-523.889
X175.397Y-121.111
X175.397Y-190.555
X175.397Y-371.111
X175.397Y-468.333
X175.397Y-482.222
X175.397Y-523.889
X177.937Y-121.111
X177.937Y-190.555
X177.937Y-371.111
X177.937Y-468.333
X177.937Y-482.222
X177.937Y-523.889
X180.477Y-121.111
X180.477Y-190.555
X180.477Y-371.111
X180.477Y-468.333
X180.477Y-482.222
X180.477Y-523.889
X186.746Y-135.
X186.746Y-162.778
X186.746Y-357.222
X186.746Y-454.444
X186.746Y-496.111
X186.746Y-523.889
X189.286Y-135.
X189.286Y-162.778
X189.286Y-357.222
X189.286Y-454.444
X189.286Y-496.111
X189.286Y-523.889
X191.826Y-135.
X191.826Y-162.778
X191.826Y-357.222
X191.826Y-454.444
X191.826Y-496.111
X191.826Y-523.889
X194.366Y-135.
X194.366Y-162.778
X194.366Y-357.222
X194.366Y-454.444
X194.366Y-496.111
X194.366Y-523.889
X200.634Y-343.333
X200.634Y-385.
X200.634Y-398.889
X200.634Y-468.333
X200.634Y-496.111
X200.634Y-523.889
X203.174Y-343.333
X203.174Y-385.
X203.174Y-398.889
X203.174Y-468.333
X203.174Y-496.111
X203.174Y-523.889
X205.714Y-343.333
X205.714Y-385.
X205.714Y-398.889
X205.714Y-468.333
X205.714Y-496.111
X205.714Y-523.889
X208.254Y-343.333
X208.254Y-385.
X208.254Y-398.889
X208.254Y-468.333
X208.254Y-496.111
X208.254Y-523.889
X214.523Y-176.667
X214.523Y-246.111
X214.523Y-343.333
X214.523Y-371.111
X214.523Y-412.778
X214.523Y-523.889
X217.063Y-176.667
X217.063Y-246.111
X217.063Y-343.333
X217.063Y-371.111
X217.063Y-412.778
X217.063Y-523.889
X219.603Y-176.667
X219.603Y-246.111
X219.603Y-343.333
X219.603Y-371.111
X219.603Y-412.778
X219.603Y-523.889
X222.143Y-176.667
X222.143Y-246.111
X222.143Y-343.333
X222.143Y-371.111
X222.143Y-412.778
X222.143Y-523.889
X228.412Y-135.
X228.412Y-260.
X228.412Y-343.333
X228.412Y-385.
X228.412Y-398.889
X228.412Y-426.667
X228.412Y-440.556
X228.412Y-510.
X230.952Y-135.
X230.952Y-260.
X230.952Y-343.333
X230.952Y-385.
X230.952Y-398.889
X230.952Y-426.667
X230.952Y-440.556
X230.952Y-510.
X233.492Y-135.
X233.492Y-260.
X233.492Y-343.333
X233.492Y-385.
X233.492Y-398.889
X233.492Y-426.667
X233.492Y-440.556
X233.492Y-510.
X236.032Y-135.
X236.032Y-260.
X236.032Y-343.333
X236.032Y-385.
X236.032Y-398.889
X236.032Y-426.667
X236.032Y-440.556
X236.032Y-510.
X242.301Y-121.111
X242.301Y-273.889
X242.301Y-343.333
X242.301Y-426.667
X242.301Y-468.333
X242.301Y-523.889
X244.841Y-121.111
X244.841Y-273.889
X244.841Y-343.333
X244.841Y-426.667
X244.841Y-468.333
X244.841Y-523.889
X247.381Y-121.111
X247.381Y-273.889
X247.381Y-343.333
X247.381Y-426.667
X247.381Y-468.333
X247.381Y-523.889
X249.921Y-121.111
X249.921Y-273.889
X249.921Y-343.333
X249.921Y-426.667
X249.921Y-468.333
X249.921Y-523.889
X256.19Y-121.111
X256.19Y-190.555
X256.19Y-232.222
X256.19Y-273.889
X256.19Y-357.222
X256.19Y-412.778
X256.19Y-440.555
X256.19Y-523.889
X258.73Y-121.111
X258.73Y-190.555
X258.73Y-232.222
X258.73Y-273.889
X258.73Y-357.222
X258.73Y-412.778
X258.73Y-440.555
X258.73Y-523.889
X261.27Y-121.111
X261.27Y-190.555
X261.27Y-232.222
X261.27Y-273.889
X261.27Y-357.222
X261.27Y-412.778
X261.27Y-440.555
X261.27Y-523.889
X263.81Y-121.111
X263.81Y-190.555
X263.81Y-232.222
X263.81Y-273.889
X263.81Y-357.222
X263.81Y-412.778
X263.81Y-440.555
X263.81Y-523.889
X270.079Y-107.222
X270.079Y-162.778
X270.079Y-232.222
X270.079Y-273.889
X270.079Y-426.667
X270.079Y-482.222
X270.079Y-496.111
X270.079Y-523.889
X272.619Y-107.222
X272.619Y-162.778
X272.619Y-232.222
X272.619Y-273.889
X272.619Y-426.667
X272.619Y-482.222
X272.619Y-496.111
X272.619Y-523.889
X275.159Y-107.222
X275.159Y-162.778
X275.159Y-232.222
X275.159Y-273.889
X275.159Y-426.667
X275.159Y-482.222
X275.159Y-496.111
X275.159Y-523.889
X277.699Y-107.222
X277.699Y-162.778
X277.699Y-232.222
X277.699Y-273.889
X277.699Y-426.667
X277.699Y-482.222
X277.699Y-496.111
X277.699Y-523.889
X283.968Y-107.222
X283.968Y-148.889
X283.968Y-232.222
X283.968Y-260.
X283.968Y-426.667
X283.968Y-454.445
X286.508Y-107.222
X286.508Y-148.889
X286.508Y-232.222
X286.508Y-260.
X286.508Y-426.667
X286.508Y-454.445
X289.048Y-107.222
X289.048Y-148.889
X289.048Y-232.222
X289.048Y-260.
X289.048Y-426.667
X289.048Y-454.445
X291.588Y-107.222
X291.588Y-148.889
X291.588Y-232.222
X291.588Y-260.
X291.588Y-426.667
X291.588Y-454.445
X297.857Y-107.222
X297.857Y-148.889
X297.857Y-218.333
X297.857Y-260.
X297.857Y-621.111
X297.857Y-662.778
X300.397Y-107.222
X300.397Y-148.889
X300.397Y-218.333
X300.397Y-260.
X300.397Y-621.111
X300.397Y-662.778
X302.937Y-107.222
X302.937Y-148.889
X302.937Y-218.333
X302.937Y-260.
X302.937Y-621.111
X302.937Y-662.778
X305.477Y-107.222
X305.477Y-148.889
X305.477Y-218.333
X305.477Y-260.
X305.477Y-621.111
X305.477Y-662.778
X311.746Y-121.111
X311.746Y-162.778
X311.746Y-176.667
X311.746Y-273.889
X311.746Y-621.111
X311.746Y-676.667
X314.286Y-121.111
X314.286Y-162.778
X314.286Y-176.667
X314.286Y-273.889
X314.286Y-621.111
X314.286Y-676.667
X316.826Y-121.111
X316.826Y-162.778
X316.826Y-176.667
X316.826Y-273.889
X316.826Y-621.111
X316.826Y-676.667
X319.366Y-121.111
X319.366Y-162.778
X319.366Y-176.667
X319.366Y-273.889
X319.366Y-621.111
X319.366Y-676.667
X325.634Y-107.222
X325.634Y-273.889
X325.634Y-635.
X325.634Y-676.667
X328.174Y-107.222
X328.174Y-273.889
X328.174Y-635.
X328.174Y-676.667
X330.714Y-107.222
X330.714Y-273.889
X330.714Y-635.
X330.714Y-676.667
X333.254Y-107.222
X333.254Y-273.889
X333.254Y-635.
X333.254Y-676.667
X339.523Y-51.667
X339.523Y-246.111
X339.523Y-635.
X339.523Y-676.667
X342.063Y-51.667
X342.063Y-246.111
X342.063Y-635.
X342.063Y-676.667
X344.603Y-51.667
X344.603Y-246.111
X344.603Y-635.
X344.603Y-676.667
X347.143Y-51.667
X347.143Y-246.111
X347.143Y-635.
X347.143Y-676.667
X353.412Y-37.778
X353.412Y-176.667
X353.412Y-607.222
X353.412Y-662.778
X355.952Y-37.778
X355.952Y-176.667
X355.952Y-607.222
X355.952Y-662.778
X358.492Y-37.778
X358.492Y-176.667
X358.492Y-607.222
X358.492Y-662.778
X361.032Y-37.778
X361.032Y-176.667
X361.032Y-607.222
X361.032Y-662.778
X367.301Y-37.778
X367.301Y-121.111
X367.301Y-537.778
X367.301Y-662.778
X369.841Y-37.778
X369.841Y-121.111
X369.841Y-537.778
X369.841Y-662.778
X372.381Y-37.778
X372.381Y-121.111
X372.381Y-537.778
X372.381Y-662.778
X374.921Y-37.778
X374.921Y-121.111
X374.921Y-537.778
X374.921Y-662.778
X381.19Y-37.778
X381.19Y-51.667
X381.19Y-468.333
X381.19Y-648.889
X383.73Y-37.778
X383.73Y-51.667
X383.73Y-468.333
X383.73Y-648.889
X386.27Y-37.778
X386.27Y-51.667
X386.27Y-468.333
X386.27Y-648.889
X388.81Y-37.778
X388.81Y-51.667
X388.81Y-468.333
X388.81Y-648.889
X395.079Y-176.667
X395.079Y-246.111
X395.079Y-440.555
X395.079Y-621.111
X397.619Y-176.667
X397.619Y-246.111
X397.619Y-440.555
X397.619Y-621.111
X400.159Y-176.667
X400.159Y-246.111
X400.159Y-440.555
X400.159Y-621.111
X402.699Y-176.667
X402.699Y-246.111
X402.699Y-440.555
X402.699Y-621.111
X408.968Y-135.
X408.968Y-260.
X408.968Y-385.
X408.968Y-412.778
X408.968Y-440.555
X408.968Y-551.667
X411.508Y-135.
X411.508Y-260.
X411.508Y-385.
X411.508Y-412.778
X411.508Y-440.555
X411.508Y-551.667
X414.048Y-135.
X414.048Y-260.
X414.048Y-385.
X414.048Y-412.778
X414.048Y-440.555
X414.048Y-551.667
X416.588Y-135.
X416.588Y-260.
X416.588Y-385.
X416.588Y-412.778
X416.588Y-440.555
X416.588Y-551.667
X422.857Y-121.111
X422.857Y-273.889
X422.857Y-371.111
X422.857Y-412.778
X422.857Y-440.556
X422.857Y-482.222
X425.397Y-121.111
X425.397Y-273.889
X425.397Y-371.111
X425.397Y-412.778
X425.397Y-440.556
X425.397Y-482.222
X427.937Y-121.111
X427.937Y-273.889
X427.937Y-371.111
X427.937Y-412.778
X427.937Y-440.556
X427.937Y-482.222
X430.477Y-121.111
X430.477Y-273.889
X430.477Y-371.111
X430.477Y-412.778
X430.477Y-440.556
X430.477Y-482.222
X436.746Y-121.111
X436.746Y-190.555
X436.746Y-232.222
X436.746Y-273.889
X436.746Y-371.111
X436.746Y-398.889
X439.286Y-121.111
X439.286Y-190.555
X439.286Y-232.222
X439.286Y-273.889
X439.286Y-371.111
X439.286Y-398.889
X441.826Y-121.111
X441.826Y-190.555
X441.826Y-232.222
X441.826Y-273.889
X441.826Y-371.111
X441.826Y-398.889
X444.366Y-121.111
X444.366Y-190.555
X444.366Y-232.222
X444.366Y-273.889
X444.366Y-371.111
X444.366Y-398.889
X450.634Y-107.222
X450.634Y-162.778
X450.634Y-232.222
X450.634Y-273.889
X450.634Y-579.444
X450.634Y-607.222
X453.174Y-107.222
X453.174Y-162.778
X453.174Y-232.222
X453.174Y-273.889
X453.174Y-579.444
X453.174Y-607.222
X455.714Y-107.222
X455.714Y-162.778
X455.714Y-232.222
X455.714Y-273.889
X455.714Y-579.444
X455.714Y-607.222
X458.254Y-107.222
X458.254Y-162.778
X458.254Y-232.222
X458.254Y-273.889
X458.254Y-579.444
X458.254Y-607.222
X464.523Y-107.222
X464.523Y-148.889
X464.523Y-232.222
X464.523Y-260.
X464.523Y-537.778
X464.523Y-607.222
X467.063Y-107.222
X467.063Y-148.889
X467.063Y-232.222
X467.063Y-260.
X467.063Y-537.778
X467.063Y-607.222
X469.603Y-107.222
X469.603Y-148.889
X469.603Y-232.222
X469.603Y-260.
X469.603Y-537.778
X469.603Y-607.222
X472.143Y-107.222
X472.143Y-148.889
X472.143Y-232.222
X472.143Y-260.
X472.143Y-537.778
X472.143Y-607.222
X478.412Y-107.222
X478.412Y-148.889
X478.412Y-218.333
X478.412Y-260.
X478.412Y-468.333
X478.412Y-607.222
X480.952Y-107.222
X480.952Y-148.889
X480.952Y-218.333
X480.952Y-260.
X480.952Y-468.333
X480.952Y-607.222
X483.492Y-107.222
X483.492Y-148.889
X483.492Y-218.333
X483.492Y-260.
X483.492Y-468.333
X483.492Y-607.222
X486.032Y-107.222
X486.032Y-148.889
X486.032Y-218.333
X486.032Y-260.
X486.032Y-468.333
X486.032Y-607.222
X492.301Y-121.111
X492.301Y-162.778
X492.301Y-176.667
X492.301Y-273.889
X492.301Y-440.556
X492.301Y-607.222
X494.841Y-121.111
X494.841Y-162.778
X494.841Y-176.667
X494.841Y-273.889
X494.841Y-440.556
X494.841Y-607.222
X497.381Y-121.111
X497.381Y-162.778
X497.381Y-176.667
X497.381Y-273.889
X497.381Y-440.556
X497.381Y-607.222
X499.921Y-121.111
X499.921Y-162.778
X499.921Y-176.667
X499.921Y-273.889
X499.921Y-440.556
X499.921Y-607.222
X506.19Y-107.222
X506.19Y-273.889
X506.19Y-385.
X506.19Y-412.778
X506.19Y-440.555
X506.19Y-551.667
X508.73Y-107.222
X508.73Y-273.889
X508.73Y-385.
X508.73Y-412.778
X508.73Y-440.555
X508.73Y-551.667
X511.27Y-107.222
X511.27Y-273.889
X511.27Y-385.
X511.27Y-412.778
X511.27Y-440.555
X511.27Y-551.667
X513.81Y-107.222
X513.81Y-273.889
X513.81Y-385.
X513.81Y-412.778
X513.81Y-440.555
X513.81Y-551.667
X520.079Y-51.667
X520.079Y-246.111
X520.079Y-371.111
X520.079Y-412.778
X520.079Y-440.556
X520.079Y-482.222
X522.619Y-51.667
X522.619Y-246.111
X522.619Y-371.111
X522.619Y-412.778
X522.619Y-440.556
X522.619Y-482.222
X525.159Y-51.667
X525.159Y-246.111
X525.159Y-371.111
X525.159Y-412.778
X525.159Y-440.556
X525.159Y-482.222
X527.699Y-51.667
X527.699Y-246.111
X527.699Y-371.111
X527.699Y-412.778
X527.699Y-440.556
X527.699Y-482.222
X533.968Y-37.778
X533.968Y-176.667
X533.968Y-287.778
X533.968Y-329.444
X533.968Y-371.111
X533.968Y-398.889
X536.508Y-37.778
X536.508Y-176.667
X536.508Y-287.778
X536.508Y-329.444
X536.508Y-371.111
X536.508Y-398.889
X539.048Y-37.778
X539.048Y-176.667
X539.048Y-287.778
X539.048Y-329.444
X539.048Y-371.111
X539.048Y-398.889
X541.588Y-37.778
X541.588Y-176.667
X541.588Y-287.778
X541.588Y-329.444
X541.588Y-371.111
X541.588Y-398.889
X547.857Y-37.778
X547.857Y-121.111
X547.857Y-287.778
X547.857Y-343.333
X547.857Y-579.444
X547.857Y-607.222
X550.397Y-37.778
X550.397Y-121.111
X550.397Y-287.778
X550.397Y-343.333
X550.397Y-579.444
X550.397Y-607.222
X552.937Y-37.778
X552.937Y-121.111
X552.937Y-287.778
X552.937Y-343.333
X552.937Y-579.444
X552.937Y-607.222
X555.477Y-37.778
X555.477Y-121.111
X555.477Y-287.778
X555.477Y-343.333
X555.477Y-579.444
X555.477Y-607.222
X561.746Y-37.778
X561.746Y-51.667
X561.746Y-301.667
X561.746Y-343.333
X561.746Y-537.778
X561.746Y-607.222
X564.286Y-37.778
X564.286Y-51.667
X564.286Y-301.667
X564.286Y-343.333
X564.286Y-537.778
X564.286Y-607.222
X566.826Y-37.778
X566.826Y-51.667
X566.826Y-301.667
X566.826Y-343.333
X566.826Y-537.778
X566.826Y-607.222
X569.366Y-37.778
X569.366Y-51.667
X569.366Y-301.667
X569.366Y-343.333
X569.366Y-537.778
X569.366Y-607.222
X575.634Y-121.111
X575.634Y-148.889
X575.634Y-301.667
X575.634Y-343.333
X575.634Y-468.333
X575.634Y-607.222
X578.174Y-121.111
X578.174Y-148.889
X578.174Y-301.667
X578.174Y-343.333
X578.174Y-468.333
X578.174Y-607.222
X580.714Y-121.111
X580.714Y-148.889
X580.714Y-301.667
X580.714Y-343.333
X580.714Y-468.333
X580.714Y-607.222
X583.254Y-121.111
X583.254Y-148.889
X583.254Y-301.667
X583.254Y-343.333
X583.254Y-468.333
X583.254Y-607.222
X589.523Y-107.222
X589.523Y-232.222
X589.523Y-287.778
X589.523Y-329.444
X589.523Y-440.556
X589.523Y-607.222
X592.063Y-107.222
X592.063Y-232.222
X592.063Y-287.778
X592.063Y-329.444
X592.063Y-440.556
X592.063Y-607.222
X594.603Y-107.222
X594.603Y-232.222
X594.603Y-287.778
X594.603Y-329.444
X594.603Y-440.556
X594.603Y-607.222
X597.143Y-107.222
X597.143Y-232.222
X597.143Y-287.778
X597.143Y-329.444
X597.143Y-440.556
X597.143Y-607.222
X603.412Y-107.222
X603.412Y-329.444
X603.412Y-440.555
X603.412Y-551.667
X605.952Y-107.222
X605.952Y-329.444
X605.952Y-440.555
X605.952Y-551.667
X608.492Y-107.222
X608.492Y-329.444
X608.492Y-440.555
X608.492Y-551.667
X611.032Y-107.222
X611.032Y-329.444
X611.032Y-440.555
X611.032Y-551.667
X617.301Y-135.
X617.301Y-315.556
X617.301Y-468.333
X617.301Y-510.
X619.841Y-135.
X619.841Y-315.556
X619.841Y-468.333
X619.841Y-510.
X622.381Y-135.
X622.381Y-315.556
X622.381Y-468.333
X622.381Y-510.
X624.921Y-135.
X624.921Y-315.556
X624.921Y-468.333
X624.921Y-510.
X631.19Y-204.444
X631.19Y-287.778
X631.19Y-454.445
X631.19Y-496.111
X633.73Y-204.444
X633.73Y-287.778
X633.73Y-454.445
X633.73Y-496.111
X636.27Y-204.444
X636.27Y-287.778
X636.27Y-454.445
X636.27Y-496.111
X638.81Y-204.444
X638.81Y-287.778
X638.81Y-454.445
X638.81Y-496.111
X645.079Y-176.667
X645.079Y-260.
X645.079Y-440.556
X645.079Y-482.222
X645.079Y-579.444
X645.079Y-607.222
X647.619Y-176.667
X647.619Y-260.
X647.619Y-440.556
X647.619Y-482.222
X647.619Y-579.444
X647.619Y-607.222
X650.159Y-176.667
X650.159Y-260.
X650.159Y-440.556
X650.159Y-482.222
X650.159Y-579.444
X650.159Y-607.222
X652.699Y-176.667
X652.699Y-260.
X652.699Y-440.556
X652.699Y-482.222
X652.699Y-579.444
X652.699Y-607.222
X658.968Y-148.889
X658.968Y-232.222
X658.968Y-440.556
X658.968Y-482.222
X658.968Y-523.889
X658.968Y-607.222
X661.508Y-148.889
X661.508Y-232.222
X661.508Y-440.556
X661.508Y-482.222
X661.508Y-523.889
X661.508Y-607.222
X664.048Y-148.889
X664.048Y-232.222
X664.048Y-440.556
X664.048Y-482.222
X664.048Y-523.889
X664.048Y-607.222
X666.588Y-148.889
X666.588Y-232.222
X666.588Y-440.556
X666.588Y-482.222
X666.588Y-523.889
X666.588Y-607.222
X672.857Y-121.111
X672.857Y-218.333
X672.857Y-440.556
X672.857Y-607.222
X675.397Y-121.111
X675.397Y-218.333
X675.397Y-440.556
X675.397Y-607.222
X677.937Y-121.111
X677.937Y-218.333
X677.937Y-440.556
X677.937Y-607.222
X680.477Y-121.111
X680.477Y-218.333
X680.477Y-440.556
X680.477Y-607.222
X686.746Y-107.222
X686.746Y-190.556
X686.746Y-440.555
X686.746Y-593.333
X689.286Y-107.222
X689.286Y-190.556
X689.286Y-440.555
X689.286Y-593.333
X691.826Y-107.222
X691.826Y-190.556
X691.826Y-440.555
X691.826Y-593.333
X694.366Y-107.222
X694.366Y-190.556
X694.366Y-440.555
X694.366Y-593.333
X700.634Y-107.222
X700.634Y-162.778
X700.634Y-454.444
X700.634Y-537.778
X703.174Y-107.222
X703.174Y-162.778
X703.174Y-454.444
X703.174Y-537.778
X705.714Y-107.222
X705.714Y-162.778
X705.714Y-454.444
X705.714Y-537.778
X708.254Y-107.222
X708.254Y-162.778
X708.254Y-454.444
X708.254Y-537.778
X714.523Y-107.222
X714.523Y-135.
X714.523Y-468.333
X714.523Y-496.111
X717.063Y-107.222
X717.063Y-135.
X717.063Y-468.333
X717.063Y-496.111
X719.603Y-107.222
X719.603Y-135.
X719.603Y-468.333
X719.603Y-496.111
X722.143Y-107.222
X722.143Y-135.
X722.143Y-468.333
X722.143Y-496.111
X728.412Y-454.445
X728.412Y-496.111
X728.412Y-593.333
X728.412Y-607.222
X730.952Y-454.445
X730.952Y-496.111
X730.952Y-593.333
X730.952Y-607.222
X733.492Y-454.445
X733.492Y-496.111
X733.492Y-593.333
X733.492Y-607.222
X736.032Y-454.445
X736.032Y-496.111
X736.032Y-593.333
X736.032Y-607.222
X742.301Y-440.556
X742.301Y-482.222
X742.301Y-565.556
X742.301Y-607.222
X744.841Y-440.556
X744.841Y-482.222
X744.841Y-565.556
X744.841Y-607.222
X747.381Y-440.556
X747.381Y-482.222
X747.381Y-565.556
X747.381Y-607.222
X749.921Y-440.556
X749.921Y-482.222
X749.921Y-565.556
X749.921Y-607.222
X756.19Y-440.556
X756.19Y-607.222
X758.73Y-440.556
X758.73Y-607.222
X761.27Y-440.556
X761.27Y-607.222
X763.81Y-440.556
X763.81Y-607.222
X770.079Y-440.556
X770.079Y-607.222
X772.619Y-440.556
X772.619Y-607.222
X775.159Y-440.556
X775.159Y-607.222
X777.699Y-440.556
X777.699Y-607.222
X783.968Y-454.444
X783.968Y-579.444
X786.508Y-454.444
X786.508Y-579.444
X789.048Y-454.444
X789.048Y-579.444
X791.588Y-454.444
X791.588Y-579.444
X797.857Y-468.333
X797.857Y-523.889
X800.397Y-468.333
X800.397Y-523.889
X802.937Y-468.333
X802.937Y-523.889
X805.477Y-468.333
X805.477Y-523.889
T3
X58.674Y-171.45
X58.674Y-177.482
X114.046Y-184.912
X114.046Y-190.944
X183.642Y-379.222
X183.642Y-385.254
X225.298Y-186.182
X225.298Y-192.214
X239.268Y-403.098
X239.268Y-409.13
X252.984Y-175.006
X252.984Y-181.038
X308.61Y-643.128
X308.61Y-649.16
X405.892Y-183.896
X405.892Y-189.928
X419.608Y-452.12
X419.608Y-458.152
X419.862Y-389.636
X419.862Y-395.668
X433.07Y-396.558
X433.07Y-402.59
X433.578Y-173.228
X433.578Y-179.26
X461.264Y-584.708
X461.264Y-590.74
X516.89Y-389.382
X516.89Y-395.414
X517.144Y-452.882
X517.144Y-458.914
X530.352Y-397.066
X530.352Y-403.098
X544.576Y-308.61
X544.576Y-314.642
X558.546Y-584.454
X558.546Y-590.486
X600.202Y-142.494
X600.202Y-148.526
X794.512Y-503.682
X794.512Y-509.714
T4
X58.674Y-181.102
X58.674Y-187.134
X211.328Y-432.562
X211.328Y-438.594
X225.298Y-200.406
X225.298Y-206.438
X322.58Y-650.748
X322.58Y-656.78
X405.892Y-197.358
X405.892Y-203.39
X433.578Y-383.032
X433.578Y-389.064
X475.234Y-587.248
X475.234Y-593.28
X530.86Y-383.794
X530.86Y-389.826
X558.546Y-316.23
X558.546Y-322.262
X572.516Y-584.2
X572.516Y-590.232
T0
M30
