M48
;DRILL file {KiCad 4.0.6} date Fri Jun 30 11:13:18 2017
;FORMAT={-:-/ absolute / inch / decimal}
FMAT,2
INCH,TZ
T1C0.030
T2C0.040
%
G90
G05
M72
T1
X1.8841Y-6.4086
X1.8841Y-9.6894
X1.9841Y-6.4086
X1.9841Y-9.6894
X2.0841Y-6.4086
X2.0841Y-9.6894
X2.1841Y-6.4086
X2.1841Y-9.6894
X2.4309Y-5.8618
X2.4309Y-10.2362
X2.5309Y-5.8618
X2.5309Y-10.2362
X2.6309Y-5.8618
X2.6309Y-10.2362
X2.7309Y-5.8618
X2.7309Y-10.2362
X2.9777Y-4.7682
X2.9777Y-10.783
X3.0777Y-4.7682
X3.0777Y-10.783
X3.1777Y-4.7682
X3.1777Y-10.783
X3.2777Y-4.7682
X3.2777Y-10.783
X3.5245Y-4.7682
X3.5245Y-8.049
X3.5245Y-9.1426
X3.5245Y-10.783
X3.6245Y-4.7682
X3.6245Y-8.049
X3.6245Y-9.1426
X3.6245Y-10.783
X3.7245Y-4.7682
X3.7245Y-8.049
X3.7245Y-9.1426
X3.7245Y-10.783
X3.8245Y-4.7682
X3.8245Y-8.049
X3.8245Y-9.1426
X3.8245Y-10.783
X4.0713Y-4.2214
X4.0713Y-5.8618
X4.0713Y-6.9554
X4.0713Y-8.049
X4.0713Y-9.1426
X4.0713Y-10.783
X4.1713Y-4.2214
X4.1713Y-5.8618
X4.1713Y-6.9554
X4.1713Y-8.049
X4.1713Y-9.1426
X4.1713Y-10.783
X4.2713Y-4.2214
X4.2713Y-5.8618
X4.2713Y-6.9554
X4.2713Y-8.049
X4.2713Y-9.1426
X4.2713Y-10.783
X4.3713Y-4.2214
X4.3713Y-5.8618
X4.3713Y-6.9554
X4.3713Y-8.049
X4.3713Y-9.1426
X4.3713Y-10.783
X4.6182Y-4.2214
X4.6182Y-5.8618
X4.6182Y-6.9554
X4.6182Y-8.049
X4.6182Y-9.6894
X4.6182Y-10.783
X4.7182Y-4.2214
X4.7182Y-5.8618
X4.7182Y-6.9554
X4.7182Y-8.049
X4.7182Y-9.6894
X4.7182Y-10.783
X4.8182Y-4.2214
X4.8182Y-5.8618
X4.8182Y-6.9554
X4.8182Y-8.049
X4.8182Y-9.6894
X4.8182Y-10.783
X4.9182Y-4.2214
X4.9182Y-5.8618
X4.9182Y-6.9554
X4.9182Y-8.049
X4.9182Y-9.6894
X4.9182Y-10.783
X5.165Y-4.2213
X5.165Y-5.315
X5.165Y-6.9554
X5.165Y-8.049
X5.165Y-9.1426
X5.165Y-10.783
X5.265Y-4.2213
X5.265Y-5.315
X5.265Y-6.9554
X5.265Y-8.049
X5.265Y-9.1426
X5.265Y-10.783
X5.365Y-4.2213
X5.365Y-5.315
X5.365Y-6.9554
X5.365Y-8.049
X5.365Y-9.1426
X5.365Y-10.783
X5.465Y-4.2213
X5.465Y-5.315
X5.465Y-6.9554
X5.465Y-8.049
X5.465Y-9.1426
X5.465Y-10.783
X5.7118Y-4.2214
X5.7118Y-5.8618
X5.7118Y-6.4086
X5.7118Y-8.049
X5.7118Y-9.1426
X5.7118Y-10.783
X5.7118Y-17.3447
X5.7118Y-20.0787
X5.8118Y-4.2214
X5.8118Y-5.8618
X5.8118Y-6.4086
X5.8118Y-8.049
X5.8118Y-9.1426
X5.8118Y-10.783
X5.8118Y-17.3447
X5.8118Y-20.0787
X5.9118Y-4.2214
X5.9118Y-5.8618
X5.9118Y-6.4086
X5.9118Y-8.049
X5.9118Y-9.1426
X5.9118Y-10.783
X5.9118Y-17.3447
X5.9118Y-20.0787
X6.0118Y-4.2214
X6.0118Y-5.8618
X6.0118Y-6.4086
X6.0118Y-8.049
X6.0118Y-9.1426
X6.0118Y-10.783
X6.0118Y-17.3447
X6.0118Y-20.0787
X6.2586Y-4.2213
X6.2586Y-7.5022
X6.2586Y-9.1426
X6.2586Y-10.2362
X6.2586Y-16.7979
X6.2586Y-20.6255
X6.3586Y-4.2213
X6.3586Y-7.5022
X6.3586Y-9.1426
X6.3586Y-10.2362
X6.3586Y-16.7979
X6.3586Y-20.6255
X6.4586Y-4.2213
X6.4586Y-7.5022
X6.4586Y-9.1426
X6.4586Y-10.2362
X6.4586Y-16.7979
X6.4586Y-20.6255
X6.5586Y-4.2213
X6.5586Y-7.5022
X6.5586Y-9.1426
X6.5586Y-10.2362
X6.5586Y-16.7979
X6.5586Y-20.6255
X6.8054Y-4.7682
X6.8054Y-7.5022
X6.8054Y-14.6107
X6.8054Y-18.4383
X6.8054Y-18.9851
X6.8054Y-20.6255
X6.9054Y-4.7682
X6.9054Y-7.5022
X6.9054Y-14.6107
X6.9054Y-18.4383
X6.9054Y-18.9851
X6.9054Y-20.6255
X7.0054Y-4.7682
X7.0054Y-7.5022
X7.0054Y-14.6107
X7.0054Y-18.4383
X7.0054Y-18.9851
X7.0054Y-20.6255
X7.1054Y-4.7682
X7.1054Y-7.5022
X7.1054Y-14.6107
X7.1054Y-18.4383
X7.1054Y-18.9851
X7.1054Y-20.6255
X7.3522Y-5.315
X7.3522Y-6.4086
X7.3522Y-14.0639
X7.3522Y-17.8915
X7.3522Y-19.5319
X7.3522Y-20.6255
X7.4522Y-5.315
X7.4522Y-6.4086
X7.4522Y-14.0639
X7.4522Y-17.8915
X7.4522Y-19.5319
X7.4522Y-20.6255
X7.5522Y-5.315
X7.5522Y-6.4086
X7.5522Y-14.0639
X7.5522Y-17.8915
X7.5522Y-19.5319
X7.5522Y-20.6255
X7.6522Y-5.315
X7.6522Y-6.4086
X7.6522Y-14.0639
X7.6522Y-17.8915
X7.6522Y-19.5319
X7.6522Y-20.6255
X7.899Y-13.5171
X7.899Y-15.1575
X7.899Y-15.7043
X7.899Y-18.4383
X7.899Y-19.5319
X7.899Y-20.6255
X7.999Y-13.5171
X7.999Y-15.1575
X7.999Y-15.7043
X7.999Y-18.4383
X7.999Y-19.5319
X7.999Y-20.6255
X8.099Y-13.5171
X8.099Y-15.1575
X8.099Y-15.7043
X8.099Y-18.4383
X8.099Y-19.5319
X8.099Y-20.6255
X8.199Y-13.5171
X8.199Y-15.1575
X8.199Y-15.7043
X8.199Y-18.4383
X8.199Y-19.5319
X8.199Y-20.6255
X8.4458Y-6.9554
X8.4458Y-9.6894
X8.4458Y-13.5171
X8.4458Y-14.6107
X8.4458Y-16.2511
X8.4458Y-20.6255
X8.5458Y-6.9554
X8.5458Y-9.6894
X8.5458Y-13.5171
X8.5458Y-14.6107
X8.5458Y-16.2511
X8.5458Y-20.6255
X8.6458Y-6.9554
X8.6458Y-9.6894
X8.6458Y-13.5171
X8.6458Y-14.6107
X8.6458Y-16.2511
X8.6458Y-20.6255
X8.7458Y-6.9554
X8.7458Y-9.6894
X8.7458Y-13.5171
X8.7458Y-14.6107
X8.7458Y-16.2511
X8.7458Y-20.6255
X8.9926Y-5.315
X8.9926Y-10.2362
X8.9926Y-13.5171
X8.9926Y-15.1575
X8.9926Y-15.7043
X8.9926Y-16.7979
X8.9926Y-17.3447
X8.9926Y-20.0787
X9.0926Y-5.315
X9.0926Y-10.2362
X9.0926Y-13.5171
X9.0926Y-15.1575
X9.0926Y-15.7043
X9.0926Y-16.7979
X9.0926Y-17.3447
X9.0926Y-20.0787
X9.1926Y-5.315
X9.1926Y-10.2362
X9.1926Y-13.5171
X9.1926Y-15.1575
X9.1926Y-15.7043
X9.1926Y-16.7979
X9.1926Y-17.3447
X9.1926Y-20.0787
X9.2926Y-5.315
X9.2926Y-10.2362
X9.2926Y-13.5171
X9.2926Y-15.1575
X9.2926Y-15.7043
X9.2926Y-16.7979
X9.2926Y-17.3447
X9.2926Y-20.0787
X9.5394Y-4.7682
X9.5394Y-10.783
X9.5394Y-13.5171
X9.5394Y-16.7979
X9.5394Y-18.4383
X9.5394Y-20.6255
X9.6394Y-4.7682
X9.6394Y-10.783
X9.6394Y-13.5171
X9.6394Y-16.7979
X9.6394Y-18.4383
X9.6394Y-20.6255
X9.7394Y-4.7682
X9.7394Y-10.783
X9.7394Y-13.5171
X9.7394Y-16.7979
X9.7394Y-18.4383
X9.7394Y-20.6255
X9.8394Y-4.7682
X9.8394Y-10.783
X9.8394Y-13.5171
X9.8394Y-16.7979
X9.8394Y-18.4383
X9.8394Y-20.6255
X10.0862Y-4.7682
X10.0862Y-7.5022
X10.0862Y-9.1426
X10.0862Y-10.783
X10.0862Y-14.0639
X10.0862Y-16.2511
X10.0862Y-17.3447
X10.0862Y-20.6255
X10.1862Y-4.7682
X10.1862Y-7.5022
X10.1862Y-9.1426
X10.1862Y-10.783
X10.1862Y-14.0639
X10.1862Y-16.2511
X10.1862Y-17.3447
X10.1862Y-20.6255
X10.2862Y-4.7682
X10.2862Y-7.5022
X10.2862Y-9.1426
X10.2862Y-10.783
X10.2862Y-14.0639
X10.2862Y-16.2511
X10.2862Y-17.3447
X10.2862Y-20.6255
X10.3862Y-4.7682
X10.3862Y-7.5022
X10.3862Y-9.1426
X10.3862Y-10.783
X10.3862Y-14.0639
X10.3862Y-16.2511
X10.3862Y-17.3447
X10.3862Y-20.6255
X10.633Y-4.2213
X10.633Y-6.4086
X10.633Y-9.1426
X10.633Y-10.783
X10.633Y-16.7979
X10.633Y-18.9851
X10.633Y-19.5319
X10.633Y-20.6255
X10.733Y-4.2213
X10.733Y-6.4086
X10.733Y-9.1426
X10.733Y-10.783
X10.733Y-16.7979
X10.733Y-18.9851
X10.733Y-19.5319
X10.733Y-20.6255
X10.833Y-4.2213
X10.833Y-6.4086
X10.833Y-9.1426
X10.833Y-10.783
X10.833Y-16.7979
X10.833Y-18.9851
X10.833Y-19.5319
X10.833Y-20.6255
X10.933Y-4.2213
X10.933Y-6.4086
X10.933Y-9.1426
X10.933Y-10.783
X10.933Y-16.7979
X10.933Y-18.9851
X10.933Y-19.5319
X10.933Y-20.6255
X11.1798Y-4.2214
X11.1798Y-5.8618
X11.1798Y-9.1426
X11.1798Y-10.2362
X11.1798Y-16.7979
X11.1798Y-17.8915
X11.2798Y-4.2214
X11.2798Y-5.8618
X11.2798Y-9.1426
X11.2798Y-10.2362
X11.2798Y-16.7979
X11.2798Y-17.8915
X11.3798Y-4.2214
X11.3798Y-5.8618
X11.3798Y-9.1426
X11.3798Y-10.2362
X11.3798Y-16.7979
X11.3798Y-17.8915
X11.4798Y-4.2214
X11.4798Y-5.8618
X11.4798Y-9.1426
X11.4798Y-10.2362
X11.4798Y-16.7979
X11.4798Y-17.8915
X11.7266Y-4.2214
X11.7266Y-5.8618
X11.7266Y-8.5958
X11.7266Y-10.2362
X11.7266Y-24.4532
X11.7266Y-26.0936
X11.8266Y-4.2214
X11.8266Y-5.8618
X11.8266Y-8.5958
X11.8266Y-10.2362
X11.8266Y-24.4532
X11.8266Y-26.0936
X11.9266Y-4.2214
X11.9266Y-5.8618
X11.9266Y-8.5958
X11.9266Y-10.2362
X11.9266Y-24.4532
X11.9266Y-26.0936
X12.0266Y-4.2214
X12.0266Y-5.8618
X12.0266Y-8.5958
X12.0266Y-10.2362
X12.0266Y-24.4532
X12.0266Y-26.0936
X12.2734Y-4.7682
X12.2734Y-6.4086
X12.2734Y-6.9554
X12.2734Y-10.783
X12.2734Y-24.4532
X12.2734Y-26.6404
X12.3734Y-4.7682
X12.3734Y-6.4086
X12.3734Y-6.9554
X12.3734Y-10.783
X12.3734Y-24.4532
X12.3734Y-26.6404
X12.4734Y-4.7682
X12.4734Y-6.4086
X12.4734Y-6.9554
X12.4734Y-10.783
X12.4734Y-24.4532
X12.4734Y-26.6404
X12.5734Y-4.7682
X12.5734Y-6.4086
X12.5734Y-6.9554
X12.5734Y-10.783
X12.5734Y-24.4532
X12.5734Y-26.6404
X12.8203Y-4.2214
X12.8203Y-10.783
X12.8203Y-25.
X12.8203Y-26.6404
X12.9203Y-4.2214
X12.9203Y-10.783
X12.9203Y-25.
X12.9203Y-26.6404
X13.0203Y-4.2214
X13.0203Y-10.783
X13.0203Y-25.
X13.0203Y-26.6404
X13.1203Y-4.2214
X13.1203Y-10.783
X13.1203Y-25.
X13.1203Y-26.6404
X13.3671Y-2.0341
X13.3671Y-9.6894
X13.3671Y-25.
X13.3671Y-26.6404
X13.4671Y-2.0341
X13.4671Y-9.6894
X13.4671Y-25.
X13.4671Y-26.6404
X13.5671Y-2.0341
X13.5671Y-9.6894
X13.5671Y-25.
X13.5671Y-26.6404
X13.6671Y-2.0341
X13.6671Y-9.6894
X13.6671Y-25.
X13.6671Y-26.6404
X13.9139Y-1.4873
X13.9139Y-6.9554
X13.9139Y-23.9064
X13.9139Y-26.0936
X14.0139Y-1.4873
X14.0139Y-6.9554
X14.0139Y-23.9064
X14.0139Y-26.0936
X14.1139Y-1.4873
X14.1139Y-6.9554
X14.1139Y-23.9064
X14.1139Y-26.0936
X14.2139Y-1.4873
X14.2139Y-6.9554
X14.2139Y-23.9064
X14.2139Y-26.0936
X14.4607Y-1.4873
X14.4607Y-4.7682
X14.4607Y-21.1724
X14.4607Y-26.0936
X14.5607Y-1.4873
X14.5607Y-4.7682
X14.5607Y-21.1724
X14.5607Y-26.0936
X14.6607Y-1.4873
X14.6607Y-4.7682
X14.6607Y-21.1724
X14.6607Y-26.0936
X14.7607Y-1.4873
X14.7607Y-4.7682
X14.7607Y-21.1724
X14.7607Y-26.0936
X15.0075Y-1.4873
X15.0075Y-2.0341
X15.0075Y-18.4383
X15.0075Y-25.5468
X15.1075Y-1.4873
X15.1075Y-2.0341
X15.1075Y-18.4383
X15.1075Y-25.5468
X15.2075Y-1.4873
X15.2075Y-2.0341
X15.2075Y-18.4383
X15.2075Y-25.5468
X15.3075Y-1.4873
X15.3075Y-2.0341
X15.3075Y-18.4383
X15.3075Y-25.5468
X15.5543Y-6.9554
X15.5543Y-9.6894
X15.5543Y-17.3447
X15.5543Y-24.4532
X15.6543Y-6.9554
X15.6543Y-9.6894
X15.6543Y-17.3447
X15.6543Y-24.4532
X15.7543Y-6.9554
X15.7543Y-9.6894
X15.7543Y-17.3447
X15.7543Y-24.4532
X15.8543Y-6.9554
X15.8543Y-9.6894
X15.8543Y-17.3447
X15.8543Y-24.4532
X16.1011Y-5.315
X16.1011Y-10.2362
X16.1011Y-15.1575
X16.1011Y-16.2511
X16.1011Y-17.3447
X16.1011Y-21.7192
X16.2011Y-5.315
X16.2011Y-10.2362
X16.2011Y-15.1575
X16.2011Y-16.2511
X16.2011Y-17.3447
X16.2011Y-21.7192
X16.3011Y-5.315
X16.3011Y-10.2362
X16.3011Y-15.1575
X16.3011Y-16.2511
X16.3011Y-17.3447
X16.3011Y-21.7192
X16.4011Y-5.315
X16.4011Y-10.2362
X16.4011Y-15.1575
X16.4011Y-16.2511
X16.4011Y-17.3447
X16.4011Y-21.7192
X16.6479Y-4.7682
X16.6479Y-10.783
X16.6479Y-14.6107
X16.6479Y-16.2511
X16.6479Y-17.3447
X16.6479Y-18.9851
X16.7479Y-4.7682
X16.7479Y-10.783
X16.7479Y-14.6107
X16.7479Y-16.2511
X16.7479Y-17.3447
X16.7479Y-18.9851
X16.8479Y-4.7682
X16.8479Y-10.783
X16.8479Y-14.6107
X16.8479Y-16.2511
X16.8479Y-17.3447
X16.8479Y-18.9851
X16.9479Y-4.7682
X16.9479Y-10.783
X16.9479Y-14.6107
X16.9479Y-16.2511
X16.9479Y-17.3447
X16.9479Y-18.9851
X17.1947Y-4.7682
X17.1947Y-7.5022
X17.1947Y-9.1426
X17.1947Y-10.783
X17.1947Y-14.6107
X17.1947Y-15.7043
X17.2947Y-4.7682
X17.2947Y-7.5022
X17.2947Y-9.1426
X17.2947Y-10.783
X17.2947Y-14.6107
X17.2947Y-15.7043
X17.3947Y-4.7682
X17.3947Y-7.5022
X17.3947Y-9.1426
X17.3947Y-10.783
X17.3947Y-14.6107
X17.3947Y-15.7043
X17.4947Y-4.7682
X17.4947Y-7.5022
X17.4947Y-9.1426
X17.4947Y-10.783
X17.4947Y-14.6107
X17.4947Y-15.7043
X17.7415Y-4.2213
X17.7415Y-6.4086
X17.7415Y-9.1426
X17.7415Y-10.783
X17.7415Y-22.8128
X17.7415Y-23.9064
X17.8415Y-4.2213
X17.8415Y-6.4086
X17.8415Y-9.1426
X17.8415Y-10.783
X17.8415Y-22.8128
X17.8415Y-23.9064
X17.9415Y-4.2213
X17.9415Y-6.4086
X17.9415Y-9.1426
X17.9415Y-10.783
X17.9415Y-22.8128
X17.9415Y-23.9064
X18.0415Y-4.2213
X18.0415Y-6.4086
X18.0415Y-9.1426
X18.0415Y-10.783
X18.0415Y-22.8128
X18.0415Y-23.9064
X18.2883Y-4.2214
X18.2883Y-5.8618
X18.2883Y-9.1426
X18.2883Y-10.2362
X18.2883Y-21.1724
X18.2883Y-23.9064
X18.3883Y-4.2214
X18.3883Y-5.8618
X18.3883Y-9.1426
X18.3883Y-10.2362
X18.3883Y-21.1724
X18.3883Y-23.9064
X18.4883Y-4.2214
X18.4883Y-5.8618
X18.4883Y-9.1426
X18.4883Y-10.2362
X18.4883Y-21.1724
X18.4883Y-23.9064
X18.5883Y-4.2214
X18.5883Y-5.8618
X18.5883Y-9.1426
X18.5883Y-10.2362
X18.5883Y-21.1724
X18.5883Y-23.9064
X18.8351Y-4.2214
X18.8351Y-5.8618
X18.8351Y-8.5958
X18.8351Y-10.2362
X18.8351Y-18.4383
X18.8351Y-23.9064
X18.9351Y-4.2214
X18.9351Y-5.8618
X18.9351Y-8.5958
X18.9351Y-10.2362
X18.9351Y-18.4383
X18.9351Y-23.9064
X19.0351Y-4.2214
X19.0351Y-5.8618
X19.0351Y-8.5958
X19.0351Y-10.2362
X19.0351Y-18.4383
X19.0351Y-23.9064
X19.1351Y-4.2214
X19.1351Y-5.8618
X19.1351Y-8.5958
X19.1351Y-10.2362
X19.1351Y-18.4383
X19.1351Y-23.9064
X19.3819Y-4.7682
X19.3819Y-6.4086
X19.3819Y-6.9554
X19.3819Y-10.783
X19.3819Y-17.3447
X19.3819Y-23.9064
X19.4819Y-4.7682
X19.4819Y-6.4086
X19.4819Y-6.9554
X19.4819Y-10.783
X19.4819Y-17.3447
X19.4819Y-23.9064
X19.5819Y-4.7682
X19.5819Y-6.4086
X19.5819Y-6.9554
X19.5819Y-10.783
X19.5819Y-17.3447
X19.5819Y-23.9064
X19.6819Y-4.7682
X19.6819Y-6.4086
X19.6819Y-6.9554
X19.6819Y-10.783
X19.6819Y-17.3447
X19.6819Y-23.9064
X19.9287Y-4.2214
X19.9287Y-10.783
X19.9287Y-15.1575
X19.9287Y-16.2511
X19.9287Y-17.3447
X19.9287Y-21.7192
X20.0287Y-4.2214
X20.0287Y-10.783
X20.0287Y-15.1575
X20.0287Y-16.2511
X20.0287Y-17.3447
X20.0287Y-21.7192
X20.1287Y-4.2214
X20.1287Y-10.783
X20.1287Y-15.1575
X20.1287Y-16.2511
X20.1287Y-17.3447
X20.1287Y-21.7192
X20.2287Y-4.2214
X20.2287Y-10.783
X20.2287Y-15.1575
X20.2287Y-16.2511
X20.2287Y-17.3447
X20.2287Y-21.7192
X20.4755Y-2.0341
X20.4755Y-9.6894
X20.4755Y-14.6107
X20.4755Y-16.2511
X20.4755Y-17.3447
X20.4755Y-18.9851
X20.5755Y-2.0341
X20.5755Y-9.6894
X20.5755Y-14.6107
X20.5755Y-16.2511
X20.5755Y-17.3447
X20.5755Y-18.9851
X20.6755Y-2.0341
X20.6755Y-9.6894
X20.6755Y-14.6107
X20.6755Y-16.2511
X20.6755Y-17.3447
X20.6755Y-18.9851
X20.7755Y-2.0341
X20.7755Y-9.6894
X20.7755Y-14.6107
X20.7755Y-16.2511
X20.7755Y-17.3447
X20.7755Y-18.9851
X21.0224Y-1.4873
X21.0224Y-6.9554
X21.0224Y-11.3298
X21.0224Y-12.9703
X21.0224Y-14.6107
X21.0224Y-15.7043
X21.1224Y-1.4873
X21.1224Y-6.9554
X21.1224Y-11.3298
X21.1224Y-12.9703
X21.1224Y-14.6107
X21.1224Y-15.7043
X21.2224Y-1.4873
X21.2224Y-6.9554
X21.2224Y-11.3298
X21.2224Y-12.9703
X21.2224Y-14.6107
X21.2224Y-15.7043
X21.3224Y-1.4873
X21.3224Y-6.9554
X21.3224Y-11.3298
X21.3224Y-12.9703
X21.3224Y-14.6107
X21.3224Y-15.7043
X21.5692Y-1.4873
X21.5692Y-4.7682
X21.5692Y-11.3298
X21.5692Y-13.5171
X21.5692Y-22.8128
X21.5692Y-23.9064
X21.6692Y-1.4873
X21.6692Y-4.7682
X21.6692Y-11.3298
X21.6692Y-13.5171
X21.6692Y-22.8128
X21.6692Y-23.9064
X21.7692Y-1.4873
X21.7692Y-4.7682
X21.7692Y-11.3298
X21.7692Y-13.5171
X21.7692Y-22.8128
X21.7692Y-23.9064
X21.8692Y-1.4873
X21.8692Y-4.7682
X21.8692Y-11.3298
X21.8692Y-13.5171
X21.8692Y-22.8128
X21.8692Y-23.9064
X22.116Y-1.4873
X22.116Y-2.0341
X22.116Y-11.8766
X22.116Y-13.5171
X22.116Y-21.1724
X22.116Y-23.9064
X22.216Y-1.4873
X22.216Y-2.0341
X22.216Y-11.8766
X22.216Y-13.5171
X22.216Y-21.1724
X22.216Y-23.9064
X22.316Y-1.4873
X22.316Y-2.0341
X22.316Y-11.8766
X22.316Y-13.5171
X22.316Y-21.1724
X22.316Y-23.9064
X22.416Y-1.4873
X22.416Y-2.0341
X22.416Y-11.8766
X22.416Y-13.5171
X22.416Y-21.1724
X22.416Y-23.9064
X22.6628Y-4.7682
X22.6628Y-5.8618
X22.6628Y-11.8766
X22.6628Y-13.5171
X22.6628Y-18.4383
X22.6628Y-23.9064
X22.7628Y-4.7682
X22.7628Y-5.8618
X22.7628Y-11.8766
X22.7628Y-13.5171
X22.7628Y-18.4383
X22.7628Y-23.9064
X22.8628Y-4.7682
X22.8628Y-5.8618
X22.8628Y-11.8766
X22.8628Y-13.5171
X22.8628Y-18.4383
X22.8628Y-23.9064
X22.9628Y-4.7682
X22.9628Y-5.8618
X22.9628Y-11.8766
X22.9628Y-13.5171
X22.9628Y-18.4383
X22.9628Y-23.9064
X23.2096Y-4.2213
X23.2096Y-9.1426
X23.2096Y-11.3298
X23.2096Y-12.9703
X23.2096Y-17.3447
X23.2096Y-23.9064
X23.3096Y-4.2213
X23.3096Y-9.1426
X23.3096Y-11.3298
X23.3096Y-12.9703
X23.3096Y-17.3447
X23.3096Y-23.9064
X23.4096Y-4.2213
X23.4096Y-9.1426
X23.4096Y-11.3298
X23.4096Y-12.9703
X23.4096Y-17.3447
X23.4096Y-23.9064
X23.5096Y-4.2213
X23.5096Y-9.1426
X23.5096Y-11.3298
X23.5096Y-12.9703
X23.5096Y-17.3447
X23.5096Y-23.9064
X23.7564Y-4.2213
X23.7564Y-12.9703
X23.7564Y-17.3447
X23.7564Y-21.7192
X23.8564Y-4.2213
X23.8564Y-12.9703
X23.8564Y-17.3447
X23.8564Y-21.7192
X23.9564Y-4.2213
X23.9564Y-12.9703
X23.9564Y-17.3447
X23.9564Y-21.7192
X24.0564Y-4.2213
X24.0564Y-12.9703
X24.0564Y-17.3447
X24.0564Y-21.7192
X24.3032Y-5.315
X24.3032Y-12.4234
X24.3032Y-18.4383
X24.3032Y-20.0787
X24.4032Y-5.315
X24.4032Y-12.4234
X24.4032Y-18.4383
X24.4032Y-20.0787
X24.5032Y-5.315
X24.5032Y-12.4234
X24.5032Y-18.4383
X24.5032Y-20.0787
X24.6032Y-5.315
X24.6032Y-12.4234
X24.6032Y-18.4383
X24.6032Y-20.0787
X24.85Y-8.049
X24.85Y-11.3298
X24.85Y-17.8915
X24.85Y-19.5319
X24.95Y-8.049
X24.95Y-11.3298
X24.95Y-17.8915
X24.95Y-19.5319
X25.05Y-8.049
X25.05Y-11.3298
X25.05Y-17.8915
X25.05Y-19.5319
X25.15Y-8.049
X25.15Y-11.3298
X25.15Y-17.8915
X25.15Y-19.5319
X25.3968Y-6.9554
X25.3968Y-10.2362
X25.3968Y-17.3447
X25.3968Y-18.9851
X25.3968Y-22.8128
X25.3968Y-23.9064
X25.4968Y-6.9554
X25.4968Y-10.2362
X25.4968Y-17.3447
X25.4968Y-18.9851
X25.4968Y-22.8128
X25.4968Y-23.9064
X25.5968Y-6.9554
X25.5968Y-10.2362
X25.5968Y-17.3447
X25.5968Y-18.9851
X25.5968Y-22.8128
X25.5968Y-23.9064
X25.6968Y-6.9554
X25.6968Y-10.2362
X25.6968Y-17.3447
X25.6968Y-18.9851
X25.6968Y-22.8128
X25.6968Y-23.9064
X25.9436Y-5.8618
X25.9436Y-9.1426
X25.9436Y-17.3447
X25.9436Y-18.9851
X25.9436Y-20.6255
X25.9436Y-23.9064
X26.0436Y-5.8618
X26.0436Y-9.1426
X26.0436Y-17.3447
X26.0436Y-18.9851
X26.0436Y-20.6255
X26.0436Y-23.9064
X26.1436Y-5.8618
X26.1436Y-9.1426
X26.1436Y-17.3447
X26.1436Y-18.9851
X26.1436Y-20.6255
X26.1436Y-23.9064
X26.2436Y-5.8618
X26.2436Y-9.1426
X26.2436Y-17.3447
X26.2436Y-18.9851
X26.2436Y-20.6255
X26.2436Y-23.9064
X26.4904Y-4.7682
X26.4904Y-8.5958
X26.4904Y-17.3447
X26.4904Y-23.9064
X26.5904Y-4.7682
X26.5904Y-8.5958
X26.5904Y-17.3447
X26.5904Y-23.9064
X26.6904Y-4.7682
X26.6904Y-8.5958
X26.6904Y-17.3447
X26.6904Y-23.9064
X26.7904Y-4.7682
X26.7904Y-8.5958
X26.7904Y-17.3447
X26.7904Y-23.9064
X27.0372Y-4.2213
X27.0372Y-7.5022
X27.0372Y-17.3447
X27.0372Y-23.3596
X27.1372Y-4.2213
X27.1372Y-7.5022
X27.1372Y-17.3447
X27.1372Y-23.3596
X27.2372Y-4.2213
X27.2372Y-7.5022
X27.2372Y-17.3447
X27.2372Y-23.3596
X27.3372Y-4.2213
X27.3372Y-7.5022
X27.3372Y-17.3447
X27.3372Y-23.3596
X27.584Y-4.2213
X27.584Y-6.4086
X27.584Y-17.8915
X27.584Y-21.1724
X27.684Y-4.2213
X27.684Y-6.4086
X27.684Y-17.8915
X27.684Y-21.1724
X27.784Y-4.2213
X27.784Y-6.4086
X27.784Y-17.8915
X27.784Y-21.1724
X27.884Y-4.2213
X27.884Y-6.4086
X27.884Y-17.8915
X27.884Y-21.1724
X28.1308Y-4.2213
X28.1308Y-5.315
X28.1308Y-18.4383
X28.1308Y-19.5319
X28.2308Y-4.2213
X28.2308Y-5.315
X28.2308Y-18.4383
X28.2308Y-19.5319
X28.3308Y-4.2213
X28.3308Y-5.315
X28.3308Y-18.4383
X28.3308Y-19.5319
X28.4308Y-4.2213
X28.4308Y-5.315
X28.4308Y-18.4383
X28.4308Y-19.5319
X28.6776Y-17.8915
X28.6776Y-19.5319
X28.6776Y-23.3596
X28.6776Y-23.9064
X28.7776Y-17.8915
X28.7776Y-19.5319
X28.7776Y-23.3596
X28.7776Y-23.9064
X28.8776Y-17.8915
X28.8776Y-19.5319
X28.8776Y-23.3596
X28.8776Y-23.9064
X28.9776Y-17.8915
X28.9776Y-19.5319
X28.9776Y-23.3596
X28.9776Y-23.9064
X29.2245Y-17.3447
X29.2245Y-18.9851
X29.2245Y-22.266
X29.2245Y-23.9064
X29.3245Y-17.3447
X29.3245Y-18.9851
X29.3245Y-22.266
X29.3245Y-23.9064
X29.4245Y-17.3447
X29.4245Y-18.9851
X29.4245Y-22.266
X29.4245Y-23.9064
X29.5245Y-17.3447
X29.5245Y-18.9851
X29.5245Y-22.266
X29.5245Y-23.9064
X29.7713Y-17.3447
X29.7713Y-23.9064
X29.8713Y-17.3447
X29.8713Y-23.9064
X29.9713Y-17.3447
X29.9713Y-23.9064
X30.0713Y-17.3447
X30.0713Y-23.9064
X30.3181Y-17.3447
X30.3181Y-23.9064
X30.4181Y-17.3447
X30.4181Y-23.9064
X30.5181Y-17.3447
X30.5181Y-23.9064
X30.6181Y-17.3447
X30.6181Y-23.9064
X30.8649Y-17.8915
X30.8649Y-22.8128
X30.9649Y-17.8915
X30.9649Y-22.8128
X31.0649Y-17.8915
X31.0649Y-22.8128
X31.1649Y-17.8915
X31.1649Y-22.8128
X31.4117Y-18.4383
X31.4117Y-20.6255
X31.5117Y-18.4383
X31.5117Y-20.6255
X31.6117Y-18.4383
X31.6117Y-20.6255
X31.7117Y-18.4383
X31.7117Y-20.6255
T2
X1.1096Y-7.7361
X1.1096Y-7.7361
X1.1096Y-7.7361
X1.2096Y-7.7361
X1.2096Y-7.7361
X1.2096Y-7.7361
T0
M30
