G04 #@! TF.FileFunction,Copper,L2,Bot,Signal*
%FSLAX46Y46*%
G04 Gerber Fmt 4.6, Leading zero omitted, Abs format (unit mm)*
G04 Created by KiCad (PCBNEW 4.0.6) date Mon Jul 10 19:19:58 2017*
%MOMM*%
%LPD*%
G01*
G04 APERTURE LIST*
%ADD10C,0.100000*%
%ADD11O,1.524000X3.000000*%
%ADD12R,2.000000X2.000000*%
%ADD13O,2.000000X2.000000*%
%ADD14R,3.000000X3.000000*%
%ADD15O,3.000000X3.000000*%
%ADD16C,2.000000*%
%ADD17C,1.000000*%
G04 APERTURE END LIST*
D10*
D11*
X73952400Y-196158400D03*
X71412400Y-196158400D03*
X68872400Y-196158400D03*
X66332400Y-196158400D03*
X73952400Y-223936200D03*
X71412400Y-223936200D03*
X68872400Y-223936200D03*
X66332400Y-223936200D03*
X80221300Y-223936200D03*
X82761300Y-223936200D03*
X85301300Y-223936200D03*
X87841300Y-223936200D03*
X80221300Y-154491800D03*
X82761300Y-154491800D03*
X85301300Y-154491800D03*
X87841300Y-154491800D03*
X101730200Y-85047400D03*
X99190200Y-85047400D03*
X96650200Y-85047400D03*
X94110200Y-85047400D03*
X101730200Y-223936200D03*
X99190200Y-223936200D03*
X96650200Y-223936200D03*
X94110200Y-223936200D03*
X107999100Y-223936200D03*
X110539100Y-223936200D03*
X113079100Y-223936200D03*
X115619100Y-223936200D03*
X107999100Y-57269600D03*
X110539100Y-57269600D03*
X113079100Y-57269600D03*
X115619100Y-57269600D03*
X129508000Y-57269500D03*
X126968000Y-57269500D03*
X124428000Y-57269500D03*
X121888000Y-57269500D03*
X129508000Y-168380700D03*
X126968000Y-168380700D03*
X124428000Y-168380700D03*
X121888000Y-168380700D03*
X135776900Y-98936200D03*
X138316900Y-98936200D03*
X140856900Y-98936200D03*
X143396900Y-98936200D03*
X135776900Y-57269600D03*
X138316900Y-57269600D03*
X140856900Y-57269600D03*
X143396900Y-57269600D03*
D12*
X132842000Y-69596000D03*
D13*
X132842000Y-75628000D03*
D12*
X76962000Y-201422000D03*
D13*
X76962000Y-207454000D03*
D14*
X90932000Y-203962000D03*
D15*
X90932000Y-209994000D03*
D16*
X66332400Y-196158400D02*
X66332400Y-200672402D01*
X66332400Y-200672402D02*
X77153997Y-211493999D01*
X77153997Y-211493999D02*
X89432001Y-211493999D01*
X89432001Y-211493999D02*
X90932000Y-209994000D01*
X73952400Y-196158400D02*
X86628400Y-196158400D01*
X90932000Y-200462000D02*
X90932000Y-203962000D01*
X86628400Y-196158400D02*
X90932000Y-200462000D01*
X73952400Y-223936200D02*
X73952400Y-223735600D01*
X73952400Y-223735600D02*
X75692000Y-221996000D01*
X75692000Y-221996000D02*
X78281100Y-221996000D01*
X78281100Y-221996000D02*
X80221300Y-223936200D01*
D17*
X71412400Y-223936200D02*
X71412400Y-221436200D01*
X71412400Y-221436200D02*
X72952610Y-219895990D01*
X72952610Y-219895990D02*
X81221090Y-219895990D01*
X81221090Y-219895990D02*
X82761300Y-221436200D01*
X82761300Y-221436200D02*
X82761300Y-223936200D01*
X85301300Y-223936200D02*
X85301300Y-221713445D01*
X85301300Y-221713445D02*
X81883835Y-218295980D01*
X81883835Y-218295980D02*
X72012620Y-218295980D01*
X72012620Y-218295980D02*
X68872400Y-221436200D01*
X68872400Y-221436200D02*
X68872400Y-223936200D01*
D16*
X66332400Y-223936200D02*
X66332400Y-221006338D01*
X66332400Y-221006338D02*
X71142767Y-216195971D01*
X71142767Y-216195971D02*
X83601071Y-216195971D01*
X83601071Y-216195971D02*
X87841300Y-220436200D01*
X87841300Y-220436200D02*
X87841300Y-223936200D01*
X101730200Y-85047400D02*
X101730200Y-155900279D01*
X84747529Y-162518029D02*
X80221300Y-157991800D01*
X101730200Y-155900279D02*
X95112450Y-162518029D01*
X95112450Y-162518029D02*
X84747529Y-162518029D01*
X80221300Y-157991800D02*
X80221300Y-154491800D01*
D17*
X82761300Y-154491800D02*
X82761300Y-156991800D01*
X82761300Y-156991800D02*
X86187520Y-160418020D01*
X86187520Y-160418020D02*
X94242597Y-160418020D01*
X94242597Y-160418020D02*
X99190200Y-155470417D01*
X99190200Y-155470417D02*
X99190200Y-87547400D01*
X99190200Y-87547400D02*
X99190200Y-85047400D01*
X96650200Y-85047400D02*
X96650200Y-155747662D01*
X96650200Y-155747662D02*
X93579852Y-158818010D01*
X85301300Y-156991800D02*
X85301300Y-154491800D01*
X93579852Y-158818010D02*
X87127510Y-158818010D01*
X87127510Y-158818010D02*
X85301300Y-156991800D01*
D16*
X92710000Y-156718000D02*
X94110200Y-155317800D01*
X94110200Y-155317800D02*
X94110200Y-85047400D01*
X89329500Y-156718000D02*
X92710000Y-156718000D01*
X87841300Y-154491800D02*
X87841300Y-155229800D01*
X87841300Y-155229800D02*
X89329500Y-156718000D01*
X106172000Y-221742000D02*
X107999100Y-223569100D01*
X107999100Y-223569100D02*
X107999100Y-223936200D01*
X103632000Y-221742000D02*
X106172000Y-221742000D01*
X101730200Y-223643800D02*
X103632000Y-221742000D01*
X101730200Y-223936200D02*
X101730200Y-223643800D01*
D17*
X99190200Y-223936200D02*
X99190200Y-221436200D01*
X99190200Y-221436200D02*
X100984410Y-219641990D01*
X100984410Y-219641990D02*
X108744890Y-219641990D01*
X108744890Y-219641990D02*
X110539100Y-221436200D01*
X110539100Y-221436200D02*
X110539100Y-223936200D01*
X113079100Y-223936200D02*
X113079100Y-221436200D01*
X113079100Y-221436200D02*
X109684880Y-218041980D01*
X109684880Y-218041980D02*
X100044420Y-218041980D01*
X100044420Y-218041980D02*
X96650200Y-221436200D01*
X96650200Y-221436200D02*
X96650200Y-223936200D01*
D16*
X94110200Y-223936200D02*
X94110200Y-220436200D01*
X94110200Y-220436200D02*
X98604429Y-215941971D01*
X98604429Y-215941971D02*
X111124871Y-215941971D01*
X111124871Y-215941971D02*
X115619100Y-220436200D01*
X115619100Y-220436200D02*
X115619100Y-223936200D01*
X107999100Y-57269600D02*
X107999100Y-60199462D01*
X107999100Y-60199462D02*
X113035667Y-65236029D01*
X113035667Y-65236029D02*
X125041471Y-65236029D01*
X125041471Y-65236029D02*
X129508000Y-60769500D01*
X129508000Y-60769500D02*
X129508000Y-57269500D01*
D17*
X126968000Y-57269500D02*
X126968000Y-59769500D01*
X126968000Y-59769500D02*
X123601480Y-63136020D01*
X123601480Y-63136020D02*
X113905520Y-63136020D01*
X113905520Y-63136020D02*
X110539100Y-59769600D01*
X110539100Y-59769600D02*
X110539100Y-57269600D01*
X113079100Y-57269600D02*
X113079100Y-59152962D01*
X115462148Y-61536010D02*
X122661490Y-61536010D01*
X113079100Y-59152962D02*
X115462148Y-61536010D01*
X122661490Y-61536010D02*
X124428000Y-59769500D01*
X124428000Y-59769500D02*
X124428000Y-57269500D01*
D16*
X121888000Y-57269500D02*
X121888000Y-57944000D01*
X121888000Y-57944000D02*
X120396000Y-59436000D01*
X120396000Y-59436000D02*
X116332000Y-59436000D01*
X116332000Y-59436000D02*
X115619100Y-58723100D01*
X115619100Y-58723100D02*
X115619100Y-57269600D01*
X130556000Y-97536000D02*
X129508000Y-98584000D01*
X129508000Y-98584000D02*
X129508000Y-168380700D01*
X134620000Y-97536000D02*
X130556000Y-97536000D01*
X135776900Y-98692900D02*
X134620000Y-97536000D01*
X135776900Y-98936200D02*
X135776900Y-98692900D01*
D17*
X126968000Y-168380700D02*
X126968000Y-98154138D01*
X138316900Y-96436200D02*
X138316900Y-98936200D01*
X126968000Y-98154138D02*
X129686148Y-95435990D01*
X129686148Y-95435990D02*
X137316690Y-95435990D01*
X137316690Y-95435990D02*
X138316900Y-96436200D01*
X140856900Y-98936200D02*
X140856900Y-96436200D01*
X140856900Y-96436200D02*
X138256680Y-93835980D01*
X129023403Y-93835980D02*
X124428000Y-98431383D01*
X138256680Y-93835980D02*
X129023403Y-93835980D01*
X124428000Y-98431383D02*
X124428000Y-165880700D01*
X124428000Y-165880700D02*
X124428000Y-168380700D01*
D16*
X121888000Y-168380700D02*
X121888000Y-98001521D01*
X143396900Y-95436200D02*
X143396900Y-98936200D01*
X121888000Y-98001521D02*
X128153550Y-91735971D01*
X128153550Y-91735971D02*
X139696671Y-91735971D01*
X139696671Y-91735971D02*
X143396900Y-95436200D01*
D17*
X71412400Y-196158400D02*
X71412400Y-198658400D01*
X71412400Y-198658400D02*
X74176000Y-201422000D01*
X74176000Y-201422000D02*
X74962000Y-201422000D01*
X74962000Y-201422000D02*
X76962000Y-201422000D01*
X68872400Y-196158400D02*
X68872400Y-199364400D01*
X68872400Y-199364400D02*
X76962000Y-207454000D01*
X138316900Y-57269600D02*
X138316900Y-66121100D01*
X138316900Y-66121100D02*
X134842000Y-69596000D01*
X134842000Y-69596000D02*
X132842000Y-69596000D01*
X140856900Y-57269600D02*
X140856900Y-67613100D01*
X140856900Y-67613100D02*
X132842000Y-75628000D01*
M02*
