M48
;DRILL file {KiCad 4.0.6} date Mon Jul 10 19:19:59 2017
;FORMAT={-:-/ absolute / metric / decimal}
FMAT,2
METRIC,TZ
T1C0.600
%
G90
G05
M71
T1
X66.332Y-196.158
X66.332Y-223.936
X68.872Y-196.158
X68.872Y-223.936
X71.412Y-196.158
X71.412Y-223.936
X73.952Y-196.158
X73.952Y-223.936
X76.962Y-201.422
X76.962Y-207.454
X80.221Y-154.492
X80.221Y-223.936
X82.761Y-154.492
X82.761Y-223.936
X85.301Y-154.492
X85.301Y-223.936
X87.841Y-154.492
X87.841Y-223.936
X90.932Y-203.962
X90.932Y-209.994
X94.11Y-85.047
X94.11Y-223.936
X96.65Y-85.047
X96.65Y-223.936
X99.19Y-85.047
X99.19Y-223.936
X101.73Y-85.047
X101.73Y-223.936
X107.999Y-57.27
X107.999Y-223.936
X110.539Y-57.27
X110.539Y-223.936
X113.079Y-57.27
X113.079Y-223.936
X115.619Y-57.27
X115.619Y-223.936
X121.888Y-57.27
X121.888Y-168.381
X124.428Y-57.27
X124.428Y-168.381
X126.968Y-57.27
X126.968Y-168.381
X129.508Y-57.27
X129.508Y-168.381
X132.842Y-69.596
X132.842Y-75.628
X135.777Y-57.27
X135.777Y-98.936
X138.317Y-57.27
X138.317Y-98.936
X140.857Y-57.27
X140.857Y-98.936
X143.397Y-57.27
X143.397Y-98.936
T0
M30
