G04 #@! TF.FileFunction,Copper,L2,Bot,Signal*
%FSLAX46Y46*%
G04 Gerber Fmt 4.6, Leading zero omitted, Abs format (unit mm)*
G04 Created by KiCad (PCBNEW 4.0.6) date Mon Jul 10 19:19:38 2017*
%MOMM*%
%LPD*%
G01*
G04 APERTURE LIST*
%ADD10C,0.100000*%
%ADD11O,1.524000X3.000000*%
%ADD12R,2.000000X2.000000*%
%ADD13O,2.000000X2.000000*%
%ADD14R,3.000000X3.000000*%
%ADD15O,3.000000X3.000000*%
%ADD16C,0.600000*%
%ADD17C,2.000000*%
%ADD18C,1.000000*%
G04 APERTURE END LIST*
D10*
D11*
X27918700Y-158820400D03*
X25378700Y-158820400D03*
X22838700Y-158820400D03*
X20298700Y-158820400D03*
X27918700Y-186598200D03*
X25378700Y-186598200D03*
X22838700Y-186598200D03*
X20298700Y-186598200D03*
X34187600Y-186598200D03*
X36727600Y-186598200D03*
X39267600Y-186598200D03*
X41807600Y-186598200D03*
X34187600Y-117153800D03*
X36727600Y-117153800D03*
X39267600Y-117153800D03*
X41807600Y-117153800D03*
X55696400Y-47709400D03*
X53156400Y-47709400D03*
X50616400Y-47709400D03*
X48076400Y-47709400D03*
X55696400Y-186598200D03*
X53156400Y-186598200D03*
X50616400Y-186598200D03*
X48076400Y-186598200D03*
X61965300Y-186598200D03*
X64505300Y-186598200D03*
X67045300Y-186598200D03*
X69585300Y-186598200D03*
X61965300Y-19931600D03*
X64505300Y-19931600D03*
X67045300Y-19931600D03*
X69585300Y-19931600D03*
X83474200Y-19931500D03*
X80934200Y-19931500D03*
X78394200Y-19931500D03*
X75854200Y-19931500D03*
X83474200Y-131042700D03*
X80934200Y-131042700D03*
X78394200Y-131042700D03*
X75854200Y-131042700D03*
X89743100Y-89376000D03*
X92283100Y-89376000D03*
X94823100Y-89376000D03*
X97363100Y-89376000D03*
X89743100Y-47709400D03*
X92283100Y-47709400D03*
X94823100Y-47709400D03*
X97363100Y-47709400D03*
X111252000Y-33820500D03*
X108712000Y-33820500D03*
X106172000Y-33820500D03*
X103632000Y-33820500D03*
X111252000Y-75487100D03*
X108712000Y-75487100D03*
X106172000Y-75487100D03*
X103632000Y-75487100D03*
X117520900Y-61598200D03*
X120060900Y-61598200D03*
X122600900Y-61598200D03*
X125140900Y-61598200D03*
X117520900Y-19931600D03*
X120060900Y-19931600D03*
X122600900Y-19931600D03*
X125140900Y-19931600D03*
X117520900Y-186598200D03*
X120060900Y-186598200D03*
X122600900Y-186598200D03*
X125140900Y-186598200D03*
X117520900Y-158820400D03*
X120060900Y-158820400D03*
X122600900Y-158820400D03*
X125140900Y-158820400D03*
X139029800Y-19931600D03*
X136489800Y-19931600D03*
X133949800Y-19931600D03*
X131409800Y-19931600D03*
X139029800Y-61598200D03*
X136489800Y-61598200D03*
X133949800Y-61598200D03*
X131409800Y-61598200D03*
X139029800Y-103264900D03*
X136489800Y-103264900D03*
X133949800Y-103264900D03*
X131409800Y-103264900D03*
X139029800Y-186598300D03*
X136489800Y-186598300D03*
X133949800Y-186598300D03*
X131409800Y-186598300D03*
X145298700Y-186598200D03*
X147838700Y-186598200D03*
X150378700Y-186598200D03*
X152918700Y-186598200D03*
X145298700Y-19931600D03*
X147838700Y-19931600D03*
X150378700Y-19931600D03*
X152918700Y-19931600D03*
X166807600Y-19931500D03*
X164267600Y-19931500D03*
X161727600Y-19931500D03*
X159187600Y-19931500D03*
X166807600Y-172709300D03*
X164267600Y-172709300D03*
X161727600Y-172709300D03*
X159187600Y-172709300D03*
X173076400Y-117153800D03*
X175616400Y-117153800D03*
X178156400Y-117153800D03*
X180696400Y-117153800D03*
X173076400Y-33820400D03*
X175616400Y-33820400D03*
X178156400Y-33820400D03*
X180696400Y-33820400D03*
X194585300Y-47709300D03*
X192045300Y-47709300D03*
X189505300Y-47709300D03*
X186965300Y-47709300D03*
X194585300Y-75487100D03*
X192045300Y-75487100D03*
X189505300Y-75487100D03*
X186965300Y-75487100D03*
X200854200Y-75487100D03*
X203394200Y-75487100D03*
X205934200Y-75487100D03*
X208474200Y-75487100D03*
X200854200Y-33820500D03*
X203394200Y-33820500D03*
X205934200Y-33820500D03*
X208474200Y-33820500D03*
X200854200Y-186598200D03*
X203394200Y-186598200D03*
X205934200Y-186598200D03*
X208474200Y-186598200D03*
X200854200Y-172709400D03*
X203394200Y-172709400D03*
X205934200Y-172709400D03*
X208474200Y-172709400D03*
X222363100Y-19931600D03*
X219823100Y-19931600D03*
X217283100Y-19931600D03*
X214743100Y-19931600D03*
X222363100Y-61598200D03*
X219823100Y-61598200D03*
X217283100Y-61598200D03*
X214743100Y-61598200D03*
X222363100Y-144931600D03*
X219823100Y-144931600D03*
X217283100Y-144931600D03*
X214743100Y-144931600D03*
X222363100Y-186598200D03*
X219823100Y-186598200D03*
X217283100Y-186598200D03*
X214743100Y-186598200D03*
X228632000Y-186598200D03*
X231172000Y-186598200D03*
X233712000Y-186598200D03*
X236252000Y-186598200D03*
X228632000Y-19931600D03*
X231172000Y-19931600D03*
X233712000Y-19931600D03*
X236252000Y-19931600D03*
X250140900Y-19931600D03*
X247600900Y-19931600D03*
X245060900Y-19931600D03*
X242520900Y-19931600D03*
X250140900Y-186598200D03*
X247600900Y-186598200D03*
X245060900Y-186598200D03*
X242520900Y-186598200D03*
X256409800Y-158820400D03*
X258949800Y-158820400D03*
X261489800Y-158820400D03*
X264029800Y-158820400D03*
X256409800Y-33820400D03*
X258949800Y-33820400D03*
X261489800Y-33820400D03*
X264029800Y-33820400D03*
X277918700Y-47709300D03*
X275378700Y-47709300D03*
X272838700Y-47709300D03*
X270298700Y-47709300D03*
X277918700Y-103264900D03*
X275378700Y-103264900D03*
X272838700Y-103264900D03*
X270298700Y-103264900D03*
D12*
X266954000Y-83058000D03*
D13*
X266954000Y-89090000D03*
D12*
X30988000Y-163830000D03*
D13*
X30988000Y-169862000D03*
D14*
X44958000Y-163576000D03*
D15*
X44958000Y-169608000D03*
D16*
X225552000Y-182626000D03*
X200914000Y-178816000D03*
D17*
X23114000Y-173228000D02*
X41338000Y-173228000D01*
X41338000Y-173228000D02*
X44958000Y-169608000D01*
X20298700Y-158820400D02*
X20298700Y-170412700D01*
X20298700Y-170412700D02*
X23114000Y-173228000D01*
X27918700Y-158820400D02*
X43702400Y-158820400D01*
X44958000Y-160076000D02*
X44958000Y-163576000D01*
X43702400Y-158820400D02*
X44958000Y-160076000D01*
X33020000Y-184404000D02*
X34187600Y-185571600D01*
X34187600Y-185571600D02*
X34187600Y-186598200D01*
X29464000Y-184404000D02*
X33020000Y-184404000D01*
X27918700Y-185949300D02*
X29464000Y-184404000D01*
X27918700Y-186598200D02*
X27918700Y-185949300D01*
D18*
X25378700Y-186598200D02*
X25378700Y-184098200D01*
X25378700Y-184098200D02*
X27172910Y-182303990D01*
X27172910Y-182303990D02*
X34933390Y-182303990D01*
X34933390Y-182303990D02*
X36727600Y-184098200D01*
X36727600Y-184098200D02*
X36727600Y-186598200D01*
X39267600Y-186598200D02*
X39267600Y-184098200D01*
X26232920Y-180703980D02*
X22838700Y-184098200D01*
X39267600Y-184098200D02*
X35873380Y-180703980D01*
X35873380Y-180703980D02*
X26232920Y-180703980D01*
X22838700Y-184098200D02*
X22838700Y-186598200D01*
D17*
X20298700Y-186598200D02*
X20298700Y-183098200D01*
X20298700Y-183098200D02*
X24792929Y-178603971D01*
X24792929Y-178603971D02*
X37313371Y-178603971D01*
X37313371Y-178603971D02*
X41807600Y-183098200D01*
X41807600Y-183098200D02*
X41807600Y-186598200D01*
X34187600Y-117153800D02*
X34187600Y-120083662D01*
X39791966Y-125688028D02*
X48376450Y-125688027D01*
X34187600Y-120083662D02*
X39791966Y-125688028D01*
X48376450Y-125688027D02*
X55696400Y-118368077D01*
X55696400Y-118368077D02*
X55696400Y-51209400D01*
X55696400Y-51209400D02*
X55696400Y-47709400D01*
D18*
X53156400Y-47709400D02*
X53156400Y-117938216D01*
X53156400Y-117938216D02*
X47506597Y-123588018D01*
X47506597Y-123588018D02*
X40661818Y-123588018D01*
X40661818Y-123588018D02*
X36727600Y-119653800D01*
X36727600Y-119653800D02*
X36727600Y-117153800D01*
X39267600Y-117153800D02*
X39267600Y-119653800D01*
X50616400Y-50209400D02*
X50616400Y-47709400D01*
X39267600Y-119653800D02*
X41601810Y-121988010D01*
X41601810Y-121988010D02*
X46843853Y-121988009D01*
X50616400Y-118215462D02*
X50616400Y-50209400D01*
X46843853Y-121988009D02*
X50616400Y-118215462D01*
D17*
X45974000Y-119888000D02*
X48076400Y-117785600D01*
X48076400Y-117785600D02*
X48076400Y-47709400D01*
X43942000Y-119888000D02*
X45974000Y-119888000D01*
X41807600Y-117753600D02*
X43942000Y-119888000D01*
X41807600Y-117153800D02*
X41807600Y-117753600D01*
X60452000Y-184150000D02*
X61965300Y-185663300D01*
X61965300Y-185663300D02*
X61965300Y-186598200D01*
X57912000Y-184150000D02*
X60452000Y-184150000D01*
X55696400Y-186365600D02*
X57912000Y-184150000D01*
X55696400Y-186598200D02*
X55696400Y-186365600D01*
D18*
X64505300Y-186598200D02*
X64505300Y-184098200D01*
X64505300Y-184098200D02*
X62457090Y-182049990D01*
X62457090Y-182049990D02*
X55204610Y-182049990D01*
X55204610Y-182049990D02*
X53156400Y-184098200D01*
X53156400Y-184098200D02*
X53156400Y-186598200D01*
X50616400Y-186598200D02*
X50616400Y-184098200D01*
X50616400Y-184098200D02*
X54264620Y-180449980D01*
X54264620Y-180449980D02*
X63397080Y-180449980D01*
X63397080Y-180449980D02*
X67045300Y-184098200D01*
X67045300Y-184098200D02*
X67045300Y-186598200D01*
D17*
X69585300Y-186598200D02*
X69585300Y-183668338D01*
X69585300Y-183668338D02*
X64266933Y-178349971D01*
X64266933Y-178349971D02*
X52824629Y-178349971D01*
X52824629Y-178349971D02*
X48076400Y-183098200D01*
X48076400Y-183098200D02*
X48076400Y-186598200D01*
X83474200Y-19931500D02*
X83474200Y-22861362D01*
X83474200Y-22861362D02*
X77929533Y-28406029D01*
X77929533Y-28406029D02*
X66939729Y-28406029D01*
X66939729Y-28406029D02*
X61965300Y-23431600D01*
X61965300Y-23431600D02*
X61965300Y-19931600D01*
D18*
X64505300Y-19931600D02*
X64505300Y-22154355D01*
X64505300Y-22154355D02*
X68656965Y-26306020D01*
X68656965Y-26306020D02*
X77059680Y-26306020D01*
X77059680Y-26306020D02*
X80934200Y-22431500D01*
X80934200Y-22431500D02*
X80934200Y-19931500D01*
X78394200Y-19931500D02*
X78394200Y-22431500D01*
X78394200Y-22431500D02*
X76119690Y-24706010D01*
X76119690Y-24706010D02*
X69319710Y-24706010D01*
X69319710Y-24706010D02*
X67045300Y-22431600D01*
X67045300Y-22431600D02*
X67045300Y-19931600D01*
D17*
X73914000Y-22606000D02*
X75854200Y-20665800D01*
X75854200Y-20665800D02*
X75854200Y-19931500D01*
X71120000Y-22606000D02*
X73914000Y-22606000D01*
X69585300Y-21071300D02*
X71120000Y-22606000D01*
X69585300Y-19931600D02*
X69585300Y-21071300D01*
X85852000Y-87122000D02*
X83474200Y-89499800D01*
X83474200Y-89499800D02*
X83474200Y-131042700D01*
X87884000Y-87122000D02*
X85852000Y-87122000D01*
X89743100Y-88981100D02*
X87884000Y-87122000D01*
X89743100Y-89376000D02*
X89743100Y-88981100D01*
D18*
X80934200Y-131042700D02*
X80934200Y-89069938D01*
X80934200Y-89069938D02*
X84982148Y-85021990D01*
X84982148Y-85021990D02*
X90429090Y-85021990D01*
X90429090Y-85021990D02*
X92283100Y-86876000D01*
X92283100Y-86876000D02*
X92283100Y-89376000D01*
X94823100Y-89376000D02*
X94823100Y-86876000D01*
X94823100Y-86876000D02*
X91369080Y-83421980D01*
X78394200Y-128542700D02*
X78394200Y-131042700D01*
X91369080Y-83421980D02*
X84319403Y-83421980D01*
X84319403Y-83421980D02*
X78394200Y-89347183D01*
X78394200Y-89347183D02*
X78394200Y-128542700D01*
D17*
X75854200Y-131042700D02*
X75854200Y-88917321D01*
X75854200Y-88917321D02*
X83449550Y-81321971D01*
X83449550Y-81321971D02*
X92809071Y-81321971D01*
X97363100Y-85876000D02*
X97363100Y-89376000D01*
X92809071Y-81321971D02*
X97363100Y-85876000D01*
X111252000Y-33820500D02*
X111252000Y-47826479D01*
X111252000Y-47826479D02*
X102732450Y-56346029D01*
X102732450Y-56346029D02*
X94879729Y-56346029D01*
X94879729Y-56346029D02*
X89743100Y-51209400D01*
X89743100Y-51209400D02*
X89743100Y-47709400D01*
D18*
X92283100Y-47709400D02*
X92283100Y-50209400D01*
X96319720Y-54246020D02*
X101862597Y-54246020D01*
X92283100Y-50209400D02*
X96319720Y-54246020D01*
X101862597Y-54246020D02*
X108712000Y-47396617D01*
X108712000Y-47396617D02*
X108712000Y-36320500D01*
X108712000Y-36320500D02*
X108712000Y-33820500D01*
X106172000Y-33820500D02*
X106172000Y-47673862D01*
X97259710Y-52646010D02*
X94823100Y-50209400D01*
X106172000Y-47673862D02*
X101199852Y-52646010D01*
X94823100Y-50209400D02*
X94823100Y-47709400D01*
X101199852Y-52646010D02*
X97259710Y-52646010D01*
D17*
X100330000Y-50546000D02*
X103632000Y-47244000D01*
X103632000Y-47244000D02*
X103632000Y-33820500D01*
X99060000Y-50546000D02*
X100330000Y-50546000D01*
X97363100Y-48849100D02*
X99060000Y-50546000D01*
X97363100Y-47709400D02*
X97363100Y-48849100D01*
X116078000Y-59182000D02*
X117520900Y-60624900D01*
X117520900Y-60624900D02*
X117520900Y-61598200D01*
X113030000Y-59182000D02*
X116078000Y-59182000D01*
X111252000Y-60960000D02*
X113030000Y-59182000D01*
X111252000Y-75487100D02*
X111252000Y-60960000D01*
D18*
X120060900Y-61598200D02*
X120060900Y-59098200D01*
X118044690Y-57081990D02*
X112160147Y-57081991D01*
X112160147Y-57081991D02*
X108712000Y-60530138D01*
X120060900Y-59098200D02*
X118044690Y-57081990D01*
X108712000Y-60530138D02*
X108712000Y-72987100D01*
X108712000Y-72987100D02*
X108712000Y-75487100D01*
X106172000Y-75487100D02*
X106172000Y-60807384D01*
X106172000Y-60807384D02*
X111497403Y-55481982D01*
X118984682Y-55481982D02*
X122600900Y-59098200D01*
X111497403Y-55481982D02*
X118984682Y-55481982D01*
X122600900Y-59098200D02*
X122600900Y-61598200D01*
D17*
X125140900Y-61598200D02*
X125140900Y-58098200D01*
X125140900Y-58098200D02*
X119366700Y-52324000D01*
X119366700Y-52324000D02*
X111685522Y-52324000D01*
X111685522Y-52324000D02*
X103632000Y-60377522D01*
X103632000Y-60377522D02*
X103632000Y-71987100D01*
X103632000Y-71987100D02*
X103632000Y-75487100D01*
X139029800Y-19931600D02*
X139029800Y-22861462D01*
X139029800Y-22861462D02*
X133485233Y-28406029D01*
X133485233Y-28406029D02*
X122495329Y-28406029D01*
X122495329Y-28406029D02*
X117520900Y-23431600D01*
X117520900Y-23431600D02*
X117520900Y-19931600D01*
D18*
X120060900Y-19931600D02*
X120060900Y-22431600D01*
X120060900Y-22431600D02*
X123935320Y-26306020D01*
X123935320Y-26306020D02*
X132615380Y-26306020D01*
X132615380Y-26306020D02*
X136489800Y-22431600D01*
X136489800Y-22431600D02*
X136489800Y-19931600D01*
X133949800Y-19931600D02*
X133949800Y-22431600D01*
X133949800Y-22431600D02*
X131675390Y-24706010D01*
X131675390Y-24706010D02*
X124875310Y-24706010D01*
X124875310Y-24706010D02*
X122600900Y-22431600D01*
X122600900Y-22431600D02*
X122600900Y-19931600D01*
D17*
X129540000Y-22606000D02*
X131409800Y-20736200D01*
X131409800Y-20736200D02*
X131409800Y-19931600D01*
X126238000Y-22606000D02*
X129540000Y-22606000D01*
X125140900Y-21508900D02*
X126238000Y-22606000D01*
X125140900Y-19931600D02*
X125140900Y-21508900D01*
X139029800Y-186598300D02*
X139029800Y-183098300D01*
X117520900Y-183098200D02*
X117520900Y-186598200D01*
X139029800Y-183098300D02*
X134281471Y-178349971D01*
X134281471Y-178349971D02*
X122269129Y-178349971D01*
X122269129Y-178349971D02*
X117520900Y-183098200D01*
D18*
X120060900Y-186598200D02*
X120060900Y-184098200D01*
X120060900Y-184098200D02*
X123709120Y-180449980D01*
X123709120Y-180449980D02*
X132841480Y-180449980D01*
X132841480Y-180449980D02*
X136489800Y-184098300D01*
X136489800Y-184098300D02*
X136489800Y-186598300D01*
X122600900Y-186598200D02*
X122600900Y-184098200D01*
X122600900Y-184098200D02*
X124649110Y-182049990D01*
X124649110Y-182049990D02*
X131901490Y-182049990D01*
X131901490Y-182049990D02*
X133949800Y-184098300D01*
X133949800Y-184098300D02*
X133949800Y-186598300D01*
D17*
X127000000Y-184150000D02*
X125140900Y-186009100D01*
X125140900Y-186009100D02*
X125140900Y-186598200D01*
X129286000Y-184150000D02*
X127000000Y-184150000D01*
X131409800Y-186273800D02*
X129286000Y-184150000D01*
X131409800Y-186598300D02*
X131409800Y-186273800D01*
X123190000Y-173990000D02*
X136190500Y-173990000D01*
X136190500Y-173990000D02*
X145298700Y-183098200D01*
X145298700Y-183098200D02*
X145298700Y-186598200D01*
X117602000Y-168402000D02*
X123190000Y-173990000D01*
X117602000Y-160439886D02*
X117602000Y-168402000D01*
X117520900Y-158820400D02*
X117520900Y-160358786D01*
X117520900Y-160358786D02*
X117602000Y-160439886D01*
D18*
X120396000Y-168226138D02*
X124059852Y-171889990D01*
X124059852Y-171889990D02*
X137060353Y-171889991D01*
X137060353Y-171889991D02*
X147838700Y-182668338D01*
X147838700Y-182668338D02*
X147838700Y-184098200D01*
X147838700Y-184098200D02*
X147838700Y-186598200D01*
X120060900Y-158820400D02*
X120060900Y-159651679D01*
X120060900Y-159651679D02*
X120396000Y-159986779D01*
X120396000Y-159986779D02*
X120396000Y-168226138D01*
X122600900Y-168066900D02*
X124823981Y-170289981D01*
X150378700Y-184098200D02*
X150378700Y-186598200D01*
X124823981Y-170289981D02*
X137723099Y-170289983D01*
X150378700Y-182945584D02*
X150378700Y-184098200D01*
X137723099Y-170289983D02*
X150378700Y-182945584D01*
X122600900Y-158820400D02*
X122600900Y-168066900D01*
D17*
X127000000Y-167894000D02*
X138296978Y-167894000D01*
X138296978Y-167894000D02*
X152918700Y-182515722D01*
X152918700Y-182515722D02*
X152918700Y-183098200D01*
X152918700Y-183098200D02*
X152918700Y-186598200D01*
X125222000Y-160439886D02*
X125222000Y-166116000D01*
X125222000Y-166116000D02*
X127000000Y-167894000D01*
X125140900Y-158820400D02*
X125140900Y-160358786D01*
X125140900Y-160358786D02*
X125222000Y-160439886D01*
X139446000Y-105918000D02*
X139029800Y-105501800D01*
X139029800Y-105501800D02*
X139029800Y-103264900D01*
X142748000Y-105918000D02*
X139446000Y-105918000D01*
X144780000Y-103886000D02*
X142748000Y-105918000D01*
X144780000Y-61722000D02*
X144780000Y-103886000D01*
X143002000Y-59944000D02*
X144780000Y-61722000D01*
X140970000Y-59944000D02*
X143002000Y-59944000D01*
X139315800Y-61598200D02*
X140970000Y-59944000D01*
X139029800Y-61598200D02*
X139315800Y-61598200D01*
D18*
X136489800Y-61598200D02*
X136489800Y-59098200D01*
X143871853Y-57843991D02*
X146880010Y-60852148D01*
X136489800Y-59098200D02*
X137744010Y-57843990D01*
X137744010Y-57843990D02*
X143871853Y-57843991D01*
X146880010Y-60852148D02*
X146880009Y-104755853D01*
X136489800Y-105931662D02*
X136489800Y-105764900D01*
X146880009Y-104755853D02*
X143617852Y-108018010D01*
X138576147Y-108018009D02*
X136489800Y-105931662D01*
X143617852Y-108018010D02*
X138576147Y-108018009D01*
X136489800Y-105764900D02*
X136489800Y-103264900D01*
X133949800Y-103264900D02*
X133949800Y-105764900D01*
X133949800Y-105764900D02*
X137802919Y-109618019D01*
X148480018Y-60189402D02*
X144534597Y-56243982D01*
X137802919Y-109618019D02*
X144280598Y-109618018D01*
X144280598Y-109618018D02*
X148480018Y-105418597D01*
X148480018Y-105418597D02*
X148480018Y-60189402D01*
X144534597Y-56243982D02*
X136804018Y-56243982D01*
X136804018Y-56243982D02*
X133949800Y-59098200D01*
X133949800Y-59098200D02*
X133949800Y-61598200D01*
D17*
X131409800Y-61598200D02*
X131409800Y-58098200D01*
X131409800Y-58098200D02*
X135364027Y-54143973D01*
X135364027Y-54143973D02*
X145404450Y-54143973D01*
X145404450Y-54143973D02*
X150580028Y-59319550D01*
X150580028Y-59319550D02*
X150580027Y-106288450D01*
X131409800Y-106764900D02*
X131409800Y-103264900D01*
X150580027Y-106288450D02*
X145150447Y-111718028D01*
X145150447Y-111718028D02*
X136362928Y-111718028D01*
X136362928Y-111718028D02*
X131409800Y-106764900D01*
X169164000Y-114808000D02*
X166807600Y-117164400D01*
X166807600Y-117164400D02*
X166807600Y-172709300D01*
X171196000Y-114808000D02*
X169164000Y-114808000D01*
X173076400Y-116688400D02*
X171196000Y-114808000D01*
X173076400Y-117153800D02*
X173076400Y-116688400D01*
D18*
X164267600Y-172709300D02*
X164267600Y-116734538D01*
X164267600Y-116734538D02*
X168294148Y-112707990D01*
X175616400Y-114653800D02*
X175616400Y-117153800D01*
X168294148Y-112707990D02*
X173670590Y-112707990D01*
X173670590Y-112707990D02*
X175616400Y-114653800D01*
X178156400Y-117153800D02*
X178156400Y-114653800D01*
X178156400Y-114653800D02*
X174610580Y-111107980D01*
X174610580Y-111107980D02*
X167631403Y-111107980D01*
X167631403Y-111107980D02*
X161727600Y-117011783D01*
X161727600Y-117011783D02*
X161727600Y-170209300D01*
X161727600Y-170209300D02*
X161727600Y-172709300D01*
D17*
X159187600Y-172709300D02*
X159187600Y-116581921D01*
X159187600Y-116581921D02*
X166761550Y-109007971D01*
X166761550Y-109007971D02*
X176050571Y-109007971D01*
X176050571Y-109007971D02*
X180696400Y-113653800D01*
X180696400Y-113653800D02*
X180696400Y-117153800D01*
X173076400Y-33820400D02*
X173076400Y-48944879D01*
X173076400Y-48944879D02*
X180985549Y-56854028D01*
X180985549Y-56854028D02*
X188940572Y-56854028D01*
X188940572Y-56854028D02*
X194585300Y-51209300D01*
X194585300Y-51209300D02*
X194585300Y-47709300D01*
D18*
X192045300Y-47709300D02*
X192045300Y-50209300D01*
X192045300Y-50209300D02*
X187500581Y-54754019D01*
X175616400Y-36320400D02*
X175616400Y-33820400D01*
X187500581Y-54754019D02*
X181855402Y-54754019D01*
X181855402Y-54754019D02*
X175616400Y-48515017D01*
X175616400Y-48515017D02*
X175616400Y-36320400D01*
X178156400Y-33820400D02*
X178156400Y-48792262D01*
X178156400Y-48792262D02*
X182518147Y-53154009D01*
X182518147Y-53154009D02*
X186560591Y-53154009D01*
X186560591Y-53154009D02*
X189505300Y-50209300D01*
X189505300Y-50209300D02*
X189505300Y-47709300D01*
D17*
X183388000Y-51054000D02*
X180696400Y-48362400D01*
X180696400Y-48362400D02*
X180696400Y-33820400D01*
X185674000Y-51054000D02*
X183388000Y-51054000D01*
X186965300Y-49762700D02*
X185674000Y-51054000D01*
X186965300Y-47709300D02*
X186965300Y-49762700D01*
X198628000Y-72644000D02*
X200854200Y-74870200D01*
X200854200Y-74870200D02*
X200854200Y-75487100D01*
X196596000Y-72644000D02*
X198628000Y-72644000D01*
X194585300Y-74654700D02*
X196596000Y-72644000D01*
X194585300Y-75487100D02*
X194585300Y-74654700D01*
D18*
X192045300Y-75487100D02*
X192045300Y-74224838D01*
X192045300Y-74224838D02*
X195726148Y-70543990D01*
X195726148Y-70543990D02*
X200951090Y-70543990D01*
X200951090Y-70543990D02*
X203394200Y-72987100D01*
X203394200Y-72987100D02*
X203394200Y-75487100D01*
X205934200Y-75487100D02*
X205934200Y-72987100D01*
X205934200Y-72987100D02*
X201891080Y-68943980D01*
X201891080Y-68943980D02*
X193548420Y-68943980D01*
X193548420Y-68943980D02*
X189505300Y-72987100D01*
X189505300Y-72987100D02*
X189505300Y-75487100D01*
D17*
X186965300Y-75487100D02*
X186965300Y-72557238D01*
X186965300Y-72557238D02*
X192678568Y-66843970D01*
X192678568Y-66843970D02*
X202760933Y-66843971D01*
X208296210Y-72379248D02*
X208296210Y-75309110D01*
X202760933Y-66843971D02*
X208296210Y-72379248D01*
X208296210Y-75309110D02*
X208474200Y-75487100D01*
X222363100Y-19931600D02*
X222363100Y-32981379D01*
X222363100Y-32981379D02*
X213222450Y-42122029D01*
X205655729Y-42122029D02*
X200854200Y-37320500D01*
X213222450Y-42122029D02*
X205655729Y-42122029D01*
X200854200Y-37320500D02*
X200854200Y-33820500D01*
D18*
X203394200Y-33820500D02*
X203394200Y-36320500D01*
X212352597Y-40022020D02*
X219823100Y-32551517D01*
X203394200Y-36320500D02*
X207095720Y-40022020D01*
X207095720Y-40022020D02*
X212352597Y-40022020D01*
X219823100Y-32551517D02*
X219823100Y-22431600D01*
X219823100Y-22431600D02*
X219823100Y-19931600D01*
X217283100Y-19931600D02*
X217283100Y-32828762D01*
X217283100Y-32828762D02*
X211689852Y-38422010D01*
X211689852Y-38422010D02*
X208035710Y-38422010D01*
X208035710Y-38422010D02*
X205934200Y-36320500D01*
X205934200Y-36320500D02*
X205934200Y-33820500D01*
D17*
X210820000Y-36322000D02*
X214743100Y-32398900D01*
X214743100Y-32398900D02*
X214743100Y-19931600D01*
X210312000Y-36322000D02*
X210820000Y-36322000D01*
X208474200Y-34484200D02*
X210312000Y-36322000D01*
X208474200Y-33820500D02*
X208474200Y-34484200D01*
X200854200Y-186598200D02*
X200854200Y-183668338D01*
X218630871Y-179365971D02*
X222363100Y-183098200D01*
X200854200Y-183668338D02*
X205156567Y-179365971D01*
X205156567Y-179365971D02*
X218630871Y-179365971D01*
X222363100Y-183098200D02*
X222363100Y-186598200D01*
D18*
X219823100Y-186598200D02*
X219823100Y-185766921D01*
X215522159Y-181465980D02*
X206026420Y-181465980D01*
X219823100Y-185766921D02*
X215522159Y-181465980D01*
X206026420Y-181465980D02*
X203394200Y-184098200D01*
X203394200Y-184098200D02*
X203394200Y-186598200D01*
X205934200Y-186598200D02*
X205934200Y-184098200D01*
X216843109Y-186158209D02*
X217283100Y-186598200D01*
X205934200Y-184098200D02*
X206966410Y-183065990D01*
X206966410Y-183065990D02*
X214582169Y-183065990D01*
X214582169Y-183065990D02*
X216843109Y-185326930D01*
X216843109Y-185326930D02*
X216843109Y-186158209D01*
D17*
X214743100Y-186598200D02*
X214743100Y-186295100D01*
X214743100Y-186295100D02*
X213614000Y-185166000D01*
X213614000Y-185166000D02*
X209804000Y-185166000D01*
X209804000Y-185166000D02*
X209804000Y-185268400D01*
X209804000Y-185268400D02*
X208474200Y-186598200D01*
X225552000Y-182626000D02*
X228632000Y-185706000D01*
X228632000Y-185706000D02*
X228632000Y-186598200D01*
X200854200Y-172709400D02*
X200854200Y-178756200D01*
X200854200Y-178756200D02*
X200914000Y-178816000D01*
D18*
X203394200Y-172709400D02*
X203394200Y-175209400D01*
X203394200Y-175209400D02*
X205450761Y-177265961D01*
X205450761Y-177265961D02*
X224339761Y-177265961D01*
X224339761Y-177265961D02*
X231172000Y-184098200D01*
X231172000Y-184098200D02*
X231172000Y-186598200D01*
X205934200Y-172709400D02*
X205934200Y-175209400D01*
X205934200Y-175209400D02*
X206390751Y-175665951D01*
X233712000Y-184098200D02*
X233712000Y-186598200D01*
X206390751Y-175665951D02*
X225279751Y-175665951D01*
X225279751Y-175665951D02*
X233712000Y-184098200D01*
D17*
X208474200Y-172709400D02*
X225863200Y-172709400D01*
X225863200Y-172709400D02*
X236252000Y-183098200D01*
X236252000Y-183098200D02*
X236252000Y-186598200D01*
X225806000Y-148590000D02*
X225283500Y-148590000D01*
X225283500Y-148590000D02*
X222363100Y-145669600D01*
X222363100Y-145669600D02*
X222363100Y-144931600D01*
X228092000Y-146304000D02*
X225806000Y-148590000D01*
X228092000Y-61722000D02*
X228092000Y-146304000D01*
X226568000Y-60198000D02*
X228092000Y-61722000D01*
X223520000Y-60198000D02*
X226568000Y-60198000D01*
X222363100Y-61354900D02*
X223520000Y-60198000D01*
X222363100Y-61598200D02*
X222363100Y-61354900D01*
D18*
X219823100Y-61598200D02*
X219823100Y-59098200D01*
X219823100Y-59098200D02*
X220823310Y-58097990D01*
X223081509Y-150690009D02*
X219823100Y-147431600D01*
X220823310Y-58097990D02*
X227437853Y-58097991D01*
X226675853Y-150690009D02*
X223081509Y-150690009D01*
X227437853Y-58097991D02*
X230192010Y-60852148D01*
X230192010Y-60852148D02*
X230192009Y-147173853D01*
X219823100Y-147431600D02*
X219823100Y-144931600D01*
X230192009Y-147173853D02*
X226675853Y-150690009D01*
X217283100Y-144931600D02*
X217283100Y-147431600D01*
X217283100Y-147431600D02*
X222141519Y-152290019D01*
X222141519Y-152290019D02*
X227338598Y-152290019D01*
X227338598Y-152290019D02*
X231792018Y-147836597D01*
X217283100Y-59098200D02*
X217283100Y-61598200D01*
X231792018Y-147836597D02*
X231792018Y-60189402D01*
X231792018Y-60189402D02*
X228100597Y-56497982D01*
X228100597Y-56497982D02*
X219883318Y-56497982D01*
X219883318Y-56497982D02*
X217283100Y-59098200D01*
D17*
X214743100Y-61598200D02*
X214743100Y-58668338D01*
X214743100Y-58668338D02*
X219013466Y-54397972D01*
X228970450Y-54397973D02*
X233892028Y-59319550D01*
X228208450Y-154390029D02*
X221271666Y-154390028D01*
X219013466Y-54397972D02*
X228970450Y-54397973D01*
X233892028Y-148706449D02*
X228208450Y-154390029D01*
X233892028Y-59319550D02*
X233892028Y-148706449D01*
X221271666Y-154390028D02*
X214921090Y-148039452D01*
X214921090Y-148039452D02*
X214921090Y-145109590D01*
X214921090Y-145109590D02*
X214743100Y-144931600D01*
X250140900Y-19931600D02*
X250140900Y-22861462D01*
X250140900Y-22861462D02*
X244850334Y-28152028D01*
X244850334Y-28152028D02*
X233352428Y-28152028D01*
X233352428Y-28152028D02*
X228632000Y-23431600D01*
X228632000Y-23431600D02*
X228632000Y-19931600D01*
D18*
X231172000Y-19931600D02*
X231172000Y-22431600D01*
X231172000Y-22431600D02*
X234792419Y-26052019D01*
X247600900Y-22431600D02*
X247600900Y-19931600D01*
X234792419Y-26052019D02*
X243980481Y-26052019D01*
X243980481Y-26052019D02*
X247600900Y-22431600D01*
X245060900Y-19931600D02*
X245060900Y-22431600D01*
X243040491Y-24452009D02*
X235732409Y-24452009D01*
X245060900Y-22431600D02*
X243040491Y-24452009D01*
X235732409Y-24452009D02*
X233712000Y-22431600D01*
X233712000Y-22431600D02*
X233712000Y-19931600D01*
D17*
X241046000Y-22352000D02*
X242520900Y-20877100D01*
X242520900Y-20877100D02*
X242520900Y-19931600D01*
X237236000Y-22352000D02*
X241046000Y-22352000D01*
X236252000Y-21368000D02*
X237236000Y-22352000D01*
X236252000Y-19931600D02*
X236252000Y-21368000D01*
X252476000Y-155702000D02*
X250140900Y-158037100D01*
X250140900Y-158037100D02*
X250140900Y-186598200D01*
X254254000Y-155702000D02*
X252476000Y-155702000D01*
X256409800Y-157857800D02*
X254254000Y-155702000D01*
X256409800Y-158820400D02*
X256409800Y-157857800D01*
D18*
X247600900Y-186598200D02*
X247600900Y-157607238D01*
X247600900Y-157607238D02*
X251606148Y-153601990D01*
X251606148Y-153601990D02*
X256231390Y-153601990D01*
X256231390Y-153601990D02*
X258949800Y-156320400D01*
X258949800Y-156320400D02*
X258949800Y-158820400D01*
X261489800Y-158820400D02*
X261489800Y-156320400D01*
X261489800Y-156320400D02*
X257171380Y-152001980D01*
X257171380Y-152001980D02*
X250943403Y-152001980D01*
X250943403Y-152001980D02*
X245060900Y-157884483D01*
X245060900Y-157884483D02*
X245060900Y-184098200D01*
X245060900Y-184098200D02*
X245060900Y-186598200D01*
D17*
X242520900Y-186598200D02*
X242520900Y-157454621D01*
X242520900Y-157454621D02*
X250073550Y-149901971D01*
X250073550Y-149901971D02*
X258611371Y-149901971D01*
X258611371Y-149901971D02*
X264029800Y-155320400D01*
X264029800Y-155320400D02*
X264029800Y-158820400D01*
X256409800Y-33820400D02*
X256409800Y-48204279D01*
X256409800Y-48204279D02*
X263789550Y-55584029D01*
X263789550Y-55584029D02*
X273543971Y-55584029D01*
X273543971Y-55584029D02*
X277918700Y-51209300D01*
X277918700Y-51209300D02*
X277918700Y-47709300D01*
D18*
X275378700Y-47709300D02*
X275378700Y-50209300D01*
X275378700Y-50209300D02*
X272103980Y-53484020D01*
X272103980Y-53484020D02*
X264659403Y-53484020D01*
X264659403Y-53484020D02*
X258949800Y-47774417D01*
X258949800Y-47774417D02*
X258949800Y-36320400D01*
X258949800Y-36320400D02*
X258949800Y-33820400D01*
X261489800Y-33820400D02*
X261489800Y-48051662D01*
X261489800Y-48051662D02*
X265322148Y-51884010D01*
X265322148Y-51884010D02*
X271163990Y-51884010D01*
X271163990Y-51884010D02*
X272838700Y-50209300D01*
X272838700Y-50209300D02*
X272838700Y-47709300D01*
D17*
X266192000Y-49784000D02*
X264029800Y-47621800D01*
X264029800Y-47621800D02*
X264029800Y-33820400D01*
X268478000Y-49784000D02*
X266192000Y-49784000D01*
X270298700Y-47963300D02*
X268478000Y-49784000D01*
X270298700Y-47709300D02*
X270298700Y-47963300D01*
D18*
X25378700Y-158820400D02*
X25378700Y-160220700D01*
X25378700Y-160220700D02*
X28988000Y-163830000D01*
X28988000Y-163830000D02*
X30988000Y-163830000D01*
X22838700Y-158820400D02*
X22838700Y-161712700D01*
X22838700Y-161712700D02*
X30988000Y-169862000D01*
X266954000Y-83058000D02*
X268954000Y-83058000D01*
X268954000Y-83058000D02*
X275378700Y-89482700D01*
X275378700Y-89482700D02*
X275378700Y-100764900D01*
X275378700Y-100764900D02*
X275378700Y-103264900D01*
X266954000Y-89090000D02*
X272838700Y-94974700D01*
X272838700Y-94974700D02*
X272838700Y-103264900D01*
M02*
