G04 #@! TF.FileFunction,Profile,NP*
%FSLAX46Y46*%
G04 Gerber Fmt 4.6, Leading zero omitted, Abs format (unit mm)*
G04 Created by KiCad (PCBNEW 4.0.6) date Mon Jul 10 19:19:38 2017*
%MOMM*%
%LPD*%
G01*
G04 APERTURE LIST*
%ADD10C,0.100000*%
%ADD11C,0.150000*%
G04 APERTURE END LIST*
D10*
D11*
X56830900Y-17931600D02*
X58830900Y-17931600D01*
X56830900Y-17931600D02*
X56830900Y-19931600D01*
X60830900Y-17931600D02*
X70719800Y-17931600D01*
X70719800Y-17931600D02*
X72719800Y-17931600D01*
X58830900Y-17931600D02*
X60830900Y-17931600D01*
X74719800Y-17931600D02*
X84608700Y-17931600D01*
X84608700Y-17931600D02*
X86608700Y-17931600D01*
X72719800Y-17931600D02*
X74719800Y-17931600D01*
X88608700Y-17931600D02*
X88608700Y-19931600D01*
X86608700Y-17931600D02*
X88608700Y-17931600D01*
X112386400Y-17931600D02*
X114386400Y-17931600D01*
X112386400Y-17931600D02*
X112386400Y-19931600D01*
X116386400Y-17931600D02*
X126275300Y-17931600D01*
X126275300Y-17931600D02*
X128275300Y-17931600D01*
X114386400Y-17931600D02*
X116386400Y-17931600D01*
X130275300Y-17931600D02*
X140164200Y-17931600D01*
X140164200Y-17931600D02*
X142164200Y-17931600D01*
X128275300Y-17931600D02*
X130275300Y-17931600D01*
X144164200Y-17931600D02*
X154053100Y-17931600D01*
X154053100Y-17931600D02*
X156053100Y-17931600D01*
X142164200Y-17931600D02*
X144164200Y-17931600D01*
X158053100Y-17931600D02*
X167942000Y-17931600D01*
X167942000Y-17931600D02*
X169942000Y-17931600D01*
X156053100Y-17931600D02*
X158053100Y-17931600D01*
X171942000Y-17931600D02*
X171942000Y-19931600D01*
X169942000Y-17931600D02*
X171942000Y-17931600D01*
X209608700Y-17931600D02*
X211608700Y-17931600D01*
X209608700Y-17931600D02*
X209608700Y-19931600D01*
X213608700Y-17931600D02*
X223497600Y-17931600D01*
X223497600Y-17931600D02*
X225497600Y-17931600D01*
X211608700Y-17931600D02*
X213608700Y-17931600D01*
X227497600Y-17931600D02*
X237386400Y-17931600D01*
X237386400Y-17931600D02*
X239386400Y-17931600D01*
X225497600Y-17931600D02*
X227497600Y-17931600D01*
X241386400Y-17931600D02*
X251275300Y-17931600D01*
X251275300Y-17931600D02*
X253275300Y-17931600D01*
X239386400Y-17931600D02*
X241386400Y-17931600D01*
X255275300Y-17931600D02*
X255275300Y-19931600D01*
X253275300Y-17931600D02*
X255275300Y-17931600D01*
X56830900Y-19931600D02*
X56830900Y-21931600D01*
X56830900Y-31820400D02*
X56830900Y-33820400D01*
X56830900Y-21931600D02*
X56830900Y-31820400D01*
X88608700Y-19931600D02*
X88608700Y-21931600D01*
X98497600Y-31820400D02*
X100497600Y-31820400D01*
X98497600Y-31820400D02*
X98497600Y-33820400D01*
X88608700Y-31820400D02*
X88608700Y-33820400D01*
X88608700Y-21931600D02*
X88608700Y-31820400D01*
X112386400Y-19931600D02*
X112386400Y-21931600D01*
X102497600Y-31820400D02*
X112386400Y-31820400D01*
X100497600Y-31820400D02*
X102497600Y-31820400D01*
X112386400Y-21931600D02*
X112386400Y-31820400D01*
X171942000Y-19931600D02*
X171942000Y-21931600D01*
X171942000Y-21931600D02*
X171942000Y-31820400D01*
X171942000Y-31820400D02*
X181830900Y-31820400D01*
X181830900Y-31820400D02*
X183830900Y-31820400D01*
X195719800Y-31820400D02*
X197719800Y-31820400D01*
X195719800Y-31820400D02*
X195719800Y-33820400D01*
X185830900Y-31820400D02*
X185830900Y-33820400D01*
X183830900Y-31820400D02*
X185830900Y-31820400D01*
X209608700Y-19931600D02*
X209608700Y-21931600D01*
X199719800Y-31820400D02*
X209608700Y-31820400D01*
X197719800Y-31820400D02*
X199719800Y-31820400D01*
X209608700Y-21931600D02*
X209608700Y-31820400D01*
X255275300Y-19931600D02*
X255275300Y-21931600D01*
X255275300Y-21931600D02*
X255275300Y-31820400D01*
X255275300Y-31820400D02*
X265164200Y-31820400D01*
X265164200Y-31820400D02*
X267164200Y-31820400D01*
X269164200Y-31820400D02*
X269164200Y-33820400D01*
X267164200Y-31820400D02*
X269164200Y-31820400D01*
X42942000Y-45709300D02*
X44942000Y-45709300D01*
X42942000Y-45709300D02*
X42942000Y-47709300D01*
X56830900Y-33820400D02*
X56830900Y-35820400D01*
X46942000Y-45709300D02*
X56830900Y-45709300D01*
X44942000Y-45709300D02*
X46942000Y-45709300D01*
X56830900Y-35820400D02*
X56830900Y-45709300D01*
X88608700Y-33820400D02*
X88608700Y-35820400D01*
X98497600Y-33820400D02*
X98497600Y-35820400D01*
X98497600Y-35820400D02*
X98497600Y-45709300D01*
X88608700Y-45709300D02*
X98497600Y-45709300D01*
X88608700Y-35820400D02*
X88608700Y-45709300D01*
X185830900Y-33820400D02*
X185830900Y-35820400D01*
X195719800Y-33820400D02*
X195719800Y-35820400D01*
X195719800Y-35820400D02*
X195719800Y-45709300D01*
X185830900Y-45709300D02*
X195719800Y-45709300D01*
X185830900Y-35820400D02*
X185830900Y-45709300D01*
X269164200Y-33820400D02*
X269164200Y-35820400D01*
X269164200Y-35820400D02*
X269164200Y-45709300D01*
X269164200Y-45709300D02*
X279053100Y-45709300D01*
X279053100Y-45709300D02*
X281053100Y-45709300D01*
X283053100Y-45709300D02*
X283053100Y-47709300D01*
X281053100Y-45709300D02*
X283053100Y-45709300D01*
X42942000Y-47709300D02*
X42942000Y-49709300D01*
X42942000Y-59598200D02*
X42942000Y-61598200D01*
X42942000Y-49709300D02*
X42942000Y-59598200D01*
X283053100Y-47709300D02*
X283053100Y-49709300D01*
X283053100Y-49709300D02*
X283053100Y-59598200D01*
X283053100Y-59598200D02*
X283053100Y-61598200D01*
X42942000Y-61598200D02*
X42942000Y-63598200D01*
X42942000Y-73487100D02*
X42942000Y-75487100D01*
X42942000Y-63598200D02*
X42942000Y-73487100D01*
X116386400Y-63598200D02*
X126275300Y-63598200D01*
X126275300Y-63598200D02*
X128275300Y-63598200D01*
X116386400Y-63598200D02*
X116386400Y-73487100D01*
X116386400Y-73487100D02*
X116386400Y-75487100D01*
X130275300Y-63598200D02*
X140164200Y-63598200D01*
X140164200Y-63598200D02*
X140164200Y-73487100D01*
X140164200Y-73487100D02*
X140164200Y-75487100D01*
X128275300Y-63598200D02*
X130275300Y-63598200D01*
X223497600Y-73487100D02*
X223497600Y-75487100D01*
X213608700Y-73487100D02*
X213608700Y-75487100D01*
X213608700Y-63598200D02*
X223497600Y-63598200D01*
X223497600Y-63598200D02*
X223497600Y-73487100D01*
X213608700Y-63598200D02*
X213608700Y-73487100D01*
X283053100Y-61598200D02*
X283053100Y-63598200D01*
X283053100Y-63598200D02*
X283053100Y-73487100D01*
X283053100Y-73487100D02*
X283053100Y-75487100D01*
X42942000Y-75487100D02*
X42942000Y-77487100D01*
X42942000Y-87376000D02*
X42942000Y-89376000D01*
X42942000Y-77487100D02*
X42942000Y-87376000D01*
X102497600Y-77487100D02*
X112386400Y-77487100D01*
X112386400Y-77487100D02*
X114386400Y-77487100D01*
X102497600Y-77487100D02*
X102497600Y-87376000D01*
X102497600Y-87376000D02*
X102497600Y-89376000D01*
X116386400Y-75487100D02*
X116386400Y-77487100D01*
X114386400Y-77487100D02*
X116386400Y-77487100D01*
X140164200Y-75487100D02*
X140164200Y-77487100D01*
X140164200Y-87376000D02*
X140164200Y-89376000D01*
X140164200Y-77487100D02*
X140164200Y-87376000D01*
X185830900Y-77487100D02*
X195719800Y-77487100D01*
X195719800Y-77487100D02*
X197719800Y-77487100D01*
X185830900Y-77487100D02*
X185830900Y-87376000D01*
X185830900Y-87376000D02*
X185830900Y-89376000D01*
X199719800Y-77487100D02*
X209608700Y-77487100D01*
X209608700Y-77487100D02*
X211608700Y-77487100D01*
X197719800Y-77487100D02*
X199719800Y-77487100D01*
X213608700Y-75487100D02*
X213608700Y-77487100D01*
X223497600Y-75487100D02*
X223497600Y-77487100D01*
X223497600Y-87376000D02*
X223497600Y-89376000D01*
X211608700Y-77487100D02*
X213608700Y-77487100D01*
X223497600Y-77487100D02*
X223497600Y-87376000D01*
X283053100Y-75487100D02*
X283053100Y-77487100D01*
X283053100Y-77487100D02*
X283053100Y-87376000D01*
X283053100Y-87376000D02*
X283053100Y-89376000D01*
X42942000Y-89376000D02*
X42942000Y-91376000D01*
X42942000Y-101264900D02*
X42942000Y-103264900D01*
X42942000Y-91376000D02*
X42942000Y-101264900D01*
X88608700Y-91376000D02*
X98497600Y-91376000D01*
X98497600Y-91376000D02*
X100497600Y-91376000D01*
X88608700Y-91376000D02*
X88608700Y-101264900D01*
X88608700Y-101264900D02*
X88608700Y-103264900D01*
X102497600Y-89376000D02*
X102497600Y-91376000D01*
X100497600Y-91376000D02*
X102497600Y-91376000D01*
X126275300Y-101264900D02*
X128275300Y-101264900D01*
X126275300Y-101264900D02*
X126275300Y-103264900D01*
X140164200Y-89376000D02*
X140164200Y-91376000D01*
X130275300Y-101264900D02*
X140164200Y-101264900D01*
X128275300Y-101264900D02*
X130275300Y-101264900D01*
X140164200Y-91376000D02*
X140164200Y-101264900D01*
X185830900Y-89376000D02*
X185830900Y-91376000D01*
X185830900Y-91376000D02*
X185830900Y-101264900D01*
X185830900Y-101264900D02*
X185830900Y-103264900D01*
X223497600Y-89376000D02*
X223497600Y-91376000D01*
X223497600Y-101264900D02*
X223497600Y-103264900D01*
X223497600Y-91376000D02*
X223497600Y-101264900D01*
X283053100Y-89376000D02*
X283053100Y-91376000D01*
X283053100Y-91376000D02*
X283053100Y-101264900D01*
X283053100Y-101264900D02*
X283053100Y-103264900D01*
X29053100Y-115153800D02*
X31053100Y-115153800D01*
X29053100Y-115153800D02*
X29053100Y-117153800D01*
X42942000Y-103264900D02*
X42942000Y-105264900D01*
X33053100Y-115153800D02*
X42942000Y-115153800D01*
X31053100Y-115153800D02*
X33053100Y-115153800D01*
X42942000Y-105264900D02*
X42942000Y-115153800D01*
X88608700Y-103264900D02*
X88608700Y-105264900D01*
X88608700Y-105264900D02*
X88608700Y-115153800D01*
X88608700Y-115153800D02*
X88608700Y-117153800D01*
X126275300Y-103264900D02*
X126275300Y-105264900D01*
X126275300Y-115153800D02*
X126275300Y-117153800D01*
X126275300Y-105264900D02*
X126275300Y-115153800D01*
X185830900Y-103264900D02*
X185830900Y-105264900D01*
X185830900Y-105264900D02*
X185830900Y-115153800D01*
X185830900Y-115153800D02*
X185830900Y-117153800D01*
X223497600Y-103264900D02*
X223497600Y-105264900D01*
X223497600Y-115153800D02*
X223497600Y-117153800D01*
X223497600Y-105264900D02*
X223497600Y-115153800D01*
X269164200Y-105264900D02*
X279053100Y-105264900D01*
X279053100Y-105264900D02*
X281053100Y-105264900D01*
X269164200Y-105264900D02*
X269164200Y-115153800D01*
X269164200Y-115153800D02*
X269164200Y-117153800D01*
X283053100Y-103264900D02*
X283053100Y-105264900D01*
X281053100Y-105264900D02*
X283053100Y-105264900D01*
X29053100Y-117153800D02*
X29053100Y-119153800D01*
X29053100Y-129042700D02*
X29053100Y-131042700D01*
X29053100Y-119153800D02*
X29053100Y-129042700D01*
X88608700Y-117153800D02*
X88608700Y-119153800D01*
X88608700Y-119153800D02*
X88608700Y-129042700D01*
X88608700Y-129042700D02*
X88608700Y-131042700D01*
X126275300Y-117153800D02*
X126275300Y-119153800D01*
X126275300Y-129042700D02*
X126275300Y-131042700D01*
X126275300Y-119153800D02*
X126275300Y-129042700D01*
X171942000Y-119153800D02*
X181830900Y-119153800D01*
X181830900Y-119153800D02*
X183830900Y-119153800D01*
X171942000Y-119153800D02*
X171942000Y-129042700D01*
X171942000Y-129042700D02*
X171942000Y-131042700D01*
X185830900Y-117153800D02*
X185830900Y-119153800D01*
X183830900Y-119153800D02*
X185830900Y-119153800D01*
X223497600Y-117153800D02*
X223497600Y-119153800D01*
X223497600Y-129042700D02*
X223497600Y-131042700D01*
X223497600Y-119153800D02*
X223497600Y-129042700D01*
X269164200Y-117153800D02*
X269164200Y-119153800D01*
X269164200Y-119153800D02*
X269164200Y-129042700D01*
X269164200Y-129042700D02*
X269164200Y-131042700D01*
X29053100Y-131042700D02*
X29053100Y-133042700D01*
X29053100Y-142931600D02*
X29053100Y-144931600D01*
X29053100Y-133042700D02*
X29053100Y-142931600D01*
X74719800Y-133042700D02*
X84608700Y-133042700D01*
X84608700Y-133042700D02*
X86608700Y-133042700D01*
X74719800Y-133042700D02*
X74719800Y-142931600D01*
X74719800Y-142931600D02*
X74719800Y-144931600D01*
X88608700Y-131042700D02*
X88608700Y-133042700D01*
X86608700Y-133042700D02*
X88608700Y-133042700D01*
X126275300Y-131042700D02*
X126275300Y-133042700D01*
X126275300Y-142931600D02*
X126275300Y-144931600D01*
X126275300Y-133042700D02*
X126275300Y-142931600D01*
X171942000Y-131042700D02*
X171942000Y-133042700D01*
X171942000Y-133042700D02*
X171942000Y-142931600D01*
X171942000Y-142931600D02*
X171942000Y-144931600D01*
X209608700Y-142931600D02*
X211608700Y-142931600D01*
X209608700Y-142931600D02*
X209608700Y-144931600D01*
X223497600Y-131042700D02*
X223497600Y-133042700D01*
X213608700Y-142931600D02*
X223497600Y-142931600D01*
X211608700Y-142931600D02*
X213608700Y-142931600D01*
X223497600Y-133042700D02*
X223497600Y-142931600D01*
X269164200Y-131042700D02*
X269164200Y-133042700D01*
X269164200Y-133042700D02*
X269164200Y-142931600D01*
X269164200Y-142931600D02*
X269164200Y-144931600D01*
X15164200Y-156820400D02*
X17164200Y-156820400D01*
X15164200Y-156820400D02*
X15164200Y-158820400D01*
X29053100Y-144931600D02*
X29053100Y-146931600D01*
X19164200Y-156820400D02*
X29053100Y-156820400D01*
X17164200Y-156820400D02*
X19164200Y-156820400D01*
X29053100Y-146931600D02*
X29053100Y-156820400D01*
X74719800Y-144931600D02*
X74719800Y-146931600D01*
X74719800Y-146931600D02*
X74719800Y-156820400D01*
X74719800Y-156820400D02*
X74719800Y-158820400D01*
X112386400Y-156820400D02*
X114386400Y-156820400D01*
X112386400Y-156820400D02*
X112386400Y-158820400D01*
X126275300Y-144931600D02*
X126275300Y-146931600D01*
X116386400Y-156820400D02*
X126275300Y-156820400D01*
X114386400Y-156820400D02*
X116386400Y-156820400D01*
X126275300Y-146931600D02*
X126275300Y-156820400D01*
X171942000Y-144931600D02*
X171942000Y-146931600D01*
X171942000Y-146931600D02*
X171942000Y-156820400D01*
X171942000Y-156820400D02*
X171942000Y-158820400D01*
X209608700Y-144931600D02*
X209608700Y-146931600D01*
X209608700Y-156820400D02*
X209608700Y-158820400D01*
X209608700Y-146931600D02*
X209608700Y-156820400D01*
X269164200Y-144931600D02*
X269164200Y-146931600D01*
X269164200Y-146931600D02*
X269164200Y-156820400D01*
X269164200Y-156820400D02*
X269164200Y-158820400D01*
X15164200Y-158820400D02*
X15164200Y-160820400D01*
X15164200Y-170709300D02*
X15164200Y-172709300D01*
X15164200Y-160820400D02*
X15164200Y-170709300D01*
X74719800Y-158820400D02*
X74719800Y-160820400D01*
X74719800Y-160820400D02*
X74719800Y-170709300D01*
X74719800Y-170709300D02*
X74719800Y-172709300D01*
X112386400Y-158820400D02*
X112386400Y-160820400D01*
X112386400Y-170709300D02*
X112386400Y-172709300D01*
X112386400Y-160820400D02*
X112386400Y-170709300D01*
X171942000Y-158820400D02*
X171942000Y-160820400D01*
X171942000Y-160820400D02*
X171942000Y-170709300D01*
X171942000Y-170709300D02*
X171942000Y-172709300D01*
X195719800Y-170709300D02*
X197719800Y-170709300D01*
X195719800Y-170709300D02*
X195719800Y-172709300D01*
X209608700Y-158820400D02*
X209608700Y-160820400D01*
X199719800Y-170709300D02*
X209608700Y-170709300D01*
X197719800Y-170709300D02*
X199719800Y-170709300D01*
X209608700Y-160820400D02*
X209608700Y-170709300D01*
X255275300Y-160820400D02*
X265164200Y-160820400D01*
X265164200Y-160820400D02*
X267164200Y-160820400D01*
X255275300Y-160820400D02*
X255275300Y-170709300D01*
X255275300Y-170709300D02*
X255275300Y-172709300D01*
X269164200Y-158820400D02*
X269164200Y-160820400D01*
X267164200Y-160820400D02*
X269164200Y-160820400D01*
X15164200Y-172709300D02*
X15164200Y-174709300D01*
X15164200Y-184598200D02*
X15164200Y-186598200D01*
X15164200Y-174709300D02*
X15164200Y-184598200D01*
X74719800Y-172709300D02*
X74719800Y-174709300D01*
X74719800Y-174709300D02*
X74719800Y-184598200D01*
X74719800Y-184598200D02*
X74719800Y-186598200D01*
X112386400Y-172709300D02*
X112386400Y-174709300D01*
X112386400Y-184598200D02*
X112386400Y-186598200D01*
X112386400Y-174709300D02*
X112386400Y-184598200D01*
X158053100Y-174709300D02*
X167942000Y-174709300D01*
X167942000Y-174709300D02*
X169942000Y-174709300D01*
X158053100Y-174709300D02*
X158053100Y-184598200D01*
X158053100Y-184598200D02*
X158053100Y-186598200D01*
X171942000Y-172709300D02*
X171942000Y-174709300D01*
X169942000Y-174709300D02*
X171942000Y-174709300D01*
X195719800Y-172709300D02*
X195719800Y-174709300D01*
X195719800Y-184598200D02*
X195719800Y-186598200D01*
X195719800Y-174709300D02*
X195719800Y-184598200D01*
X255275300Y-172709300D02*
X255275300Y-174709300D01*
X255275300Y-174709300D02*
X255275300Y-184598200D01*
X255275300Y-184598200D02*
X255275300Y-186598200D01*
X15164200Y-186598200D02*
X15164200Y-188598200D01*
X15164200Y-188598200D02*
X17164200Y-188598200D01*
X19164200Y-188598200D02*
X29053100Y-188598200D01*
X29053100Y-188598200D02*
X31053100Y-188598200D01*
X17164200Y-188598200D02*
X19164200Y-188598200D01*
X33053100Y-188598200D02*
X42942000Y-188598200D01*
X42942000Y-188598200D02*
X44942000Y-188598200D01*
X31053100Y-188598200D02*
X33053100Y-188598200D01*
X46942000Y-188598200D02*
X56830900Y-188598200D01*
X56830900Y-188598200D02*
X58830900Y-188598200D01*
X44942000Y-188598200D02*
X46942000Y-188598200D01*
X60830900Y-188598200D02*
X70719800Y-188598200D01*
X70719800Y-188598200D02*
X72719800Y-188598200D01*
X58830900Y-188598200D02*
X60830900Y-188598200D01*
X74719800Y-186598200D02*
X74719800Y-188598200D01*
X72719800Y-188598200D02*
X74719800Y-188598200D01*
X112386400Y-186598200D02*
X112386400Y-188598200D01*
X112386400Y-188598200D02*
X114386400Y-188598200D01*
X116386400Y-188598200D02*
X126275300Y-188598200D01*
X126275300Y-188598200D02*
X128275300Y-188598200D01*
X114386400Y-188598200D02*
X116386400Y-188598200D01*
X130275300Y-188598200D02*
X140164200Y-188598200D01*
X140164200Y-188598200D02*
X142164200Y-188598200D01*
X128275300Y-188598200D02*
X130275300Y-188598200D01*
X144164200Y-188598200D02*
X154053100Y-188598200D01*
X154053100Y-188598200D02*
X156053100Y-188598200D01*
X142164200Y-188598200D02*
X144164200Y-188598200D01*
X158053100Y-186598200D02*
X158053100Y-188598200D01*
X156053100Y-188598200D02*
X158053100Y-188598200D01*
X195719800Y-186598200D02*
X195719800Y-188598200D01*
X195719800Y-188598200D02*
X197719800Y-188598200D01*
X199719800Y-188598200D02*
X209608700Y-188598200D01*
X209608700Y-188598200D02*
X211608700Y-188598200D01*
X197719800Y-188598200D02*
X199719800Y-188598200D01*
X213608700Y-188598200D02*
X223497600Y-188598200D01*
X223497600Y-188598200D02*
X225497600Y-188598200D01*
X211608700Y-188598200D02*
X213608700Y-188598200D01*
X227497600Y-188598200D02*
X237386400Y-188598200D01*
X237386400Y-188598200D02*
X239386400Y-188598200D01*
X225497600Y-188598200D02*
X227497600Y-188598200D01*
X241386400Y-188598200D02*
X251275300Y-188598200D01*
X251275300Y-188598200D02*
X253275300Y-188598200D01*
X239386400Y-188598200D02*
X241386400Y-188598200D01*
X255275300Y-186598200D02*
X255275300Y-188598200D01*
X253275300Y-188598200D02*
X255275300Y-188598200D01*
M02*
