M48
;DRILL file {KiCad 4.0.6} date Mon Jul 10 19:19:40 2017
;FORMAT={-:-/ absolute / metric / decimal}
FMAT,2
METRIC,TZ
T1C0.600
%
G90
G05
M71
T1
X20.299Y-158.82
X20.299Y-186.598
X22.839Y-158.82
X22.839Y-186.598
X25.379Y-158.82
X25.379Y-186.598
X27.919Y-158.82
X27.919Y-186.598
X30.988Y-163.83
X30.988Y-169.862
X34.188Y-117.154
X34.188Y-186.598
X36.728Y-117.154
X36.728Y-186.598
X39.268Y-117.154
X39.268Y-186.598
X41.808Y-117.154
X41.808Y-186.598
X44.958Y-163.576
X44.958Y-169.608
X48.076Y-47.709
X48.076Y-186.598
X50.616Y-47.709
X50.616Y-186.598
X53.156Y-47.709
X53.156Y-186.598
X55.696Y-47.709
X55.696Y-186.598
X61.965Y-19.932
X61.965Y-186.598
X64.505Y-19.932
X64.505Y-186.598
X67.045Y-19.932
X67.045Y-186.598
X69.585Y-19.932
X69.585Y-186.598
X75.854Y-19.931
X75.854Y-131.043
X78.394Y-19.931
X78.394Y-131.043
X80.934Y-19.931
X80.934Y-131.043
X83.474Y-19.931
X83.474Y-131.043
X89.743Y-47.709
X89.743Y-89.376
X92.283Y-47.709
X92.283Y-89.376
X94.823Y-47.709
X94.823Y-89.376
X97.363Y-47.709
X97.363Y-89.376
X103.632Y-33.82
X103.632Y-75.487
X106.172Y-33.82
X106.172Y-75.487
X108.712Y-33.82
X108.712Y-75.487
X111.252Y-33.82
X111.252Y-75.487
X117.521Y-19.932
X117.521Y-61.598
X117.521Y-158.82
X117.521Y-186.598
X120.061Y-19.932
X120.061Y-61.598
X120.061Y-158.82
X120.061Y-186.598
X122.601Y-19.932
X122.601Y-61.598
X122.601Y-158.82
X122.601Y-186.598
X125.141Y-19.932
X125.141Y-61.598
X125.141Y-158.82
X125.141Y-186.598
X131.41Y-19.932
X131.41Y-61.598
X131.41Y-103.265
X131.41Y-186.598
X133.95Y-19.932
X133.95Y-61.598
X133.95Y-103.265
X133.95Y-186.598
X136.49Y-19.932
X136.49Y-61.598
X136.49Y-103.265
X136.49Y-186.598
X139.03Y-19.932
X139.03Y-61.598
X139.03Y-103.265
X139.03Y-186.598
X145.299Y-19.932
X145.299Y-186.598
X147.839Y-19.932
X147.839Y-186.598
X150.379Y-19.932
X150.379Y-186.598
X152.919Y-19.932
X152.919Y-186.598
X159.188Y-19.931
X159.188Y-172.709
X161.728Y-19.931
X161.728Y-172.709
X164.268Y-19.931
X164.268Y-172.709
X166.808Y-19.931
X166.808Y-172.709
X173.076Y-33.82
X173.076Y-117.154
X175.616Y-33.82
X175.616Y-117.154
X178.156Y-33.82
X178.156Y-117.154
X180.696Y-33.82
X180.696Y-117.154
X186.965Y-47.709
X186.965Y-75.487
X189.505Y-47.709
X189.505Y-75.487
X192.045Y-47.709
X192.045Y-75.487
X194.585Y-47.709
X194.585Y-75.487
X200.854Y-33.82
X200.854Y-75.487
X200.854Y-172.709
X200.854Y-186.598
X200.914Y-178.816
X203.394Y-33.82
X203.394Y-75.487
X203.394Y-172.709
X203.394Y-186.598
X205.934Y-33.82
X205.934Y-75.487
X205.934Y-172.709
X205.934Y-186.598
X208.474Y-33.82
X208.474Y-75.487
X208.474Y-172.709
X208.474Y-186.598
X214.743Y-19.932
X214.743Y-61.598
X214.743Y-144.932
X214.743Y-186.598
X217.283Y-19.932
X217.283Y-61.598
X217.283Y-144.932
X217.283Y-186.598
X219.823Y-19.932
X219.823Y-61.598
X219.823Y-144.932
X219.823Y-186.598
X222.363Y-19.932
X222.363Y-61.598
X222.363Y-144.932
X222.363Y-186.598
X225.552Y-182.626
X228.632Y-19.932
X228.632Y-186.598
X231.172Y-19.932
X231.172Y-186.598
X233.712Y-19.932
X233.712Y-186.598
X236.252Y-19.932
X236.252Y-186.598
X242.521Y-19.932
X242.521Y-186.598
X245.061Y-19.932
X245.061Y-186.598
X247.601Y-19.932
X247.601Y-186.598
X250.141Y-19.932
X250.141Y-186.598
X256.41Y-33.82
X256.41Y-158.82
X258.95Y-33.82
X258.95Y-158.82
X261.49Y-33.82
X261.49Y-158.82
X264.03Y-33.82
X264.03Y-158.82
X266.954Y-83.058
X266.954Y-89.09
X270.299Y-47.709
X270.299Y-103.265
X272.839Y-47.709
X272.839Y-103.265
X275.379Y-47.709
X275.379Y-103.265
X277.919Y-47.709
X277.919Y-103.265
T0
M30
