G04 #@! TF.FileFunction,Profile,NP*
%FSLAX46Y46*%
G04 Gerber Fmt 4.6, Leading zero omitted, Abs format (unit mm)*
G04 Created by KiCad (PCBNEW 4.0.6) date Tue Jul 11 20:45:52 2017*
%MOMM*%
%LPD*%
G01*
G04 APERTURE LIST*
%ADD10C,0.100000*%
%ADD11C,0.150000*%
G04 APERTURE END LIST*
D10*
D11*
X14564400Y-811100D02*
X16564400Y-811100D01*
X14564400Y-811100D02*
X14564400Y-2811100D01*
X18564400Y-811100D02*
X28453300Y-811100D01*
X28453300Y-811100D02*
X30453300Y-811100D01*
X16564400Y-811100D02*
X18564400Y-811100D01*
X32453300Y-811100D02*
X42342200Y-811100D01*
X42342200Y-811100D02*
X44342200Y-811100D01*
X30453300Y-811100D02*
X32453300Y-811100D01*
X46342200Y-811100D02*
X46342200Y-2811100D01*
X44342200Y-811100D02*
X46342200Y-811100D01*
X675600Y-14700000D02*
X2675600Y-14700000D01*
X675600Y-14700000D02*
X675600Y-16700000D01*
X14564400Y-2811100D02*
X14564400Y-4811100D01*
X4675600Y-14700000D02*
X14564400Y-14700000D01*
X2675600Y-14700000D02*
X4675600Y-14700000D01*
X14564400Y-4811100D02*
X14564400Y-14700000D01*
X46342200Y-2811100D02*
X46342200Y-4811100D01*
X46342200Y-4811100D02*
X46342200Y-14700000D01*
X46342200Y-14700000D02*
X46342200Y-16700000D01*
X675600Y-16700000D02*
X675600Y-18700000D01*
X675600Y-28588900D02*
X675600Y-30588900D01*
X675600Y-18700000D02*
X675600Y-28588900D01*
X46342200Y-16700000D02*
X46342200Y-18700000D01*
X46342200Y-18700000D02*
X46342200Y-28588900D01*
X46342200Y-28588900D02*
X46342200Y-30588900D01*
X675600Y-30588900D02*
X675600Y-32588900D01*
X675600Y-42477800D02*
X675600Y-44477800D01*
X675600Y-32588900D02*
X675600Y-42477800D01*
X32453300Y-32588900D02*
X42342200Y-32588900D01*
X42342200Y-32588900D02*
X44342200Y-32588900D01*
X32453300Y-32588900D02*
X32453300Y-42477800D01*
X32453300Y-42477800D02*
X32453300Y-44477800D01*
X46342200Y-30588900D02*
X46342200Y-32588900D01*
X44342200Y-32588900D02*
X46342200Y-32588900D01*
X675600Y-44477800D02*
X675600Y-46477800D01*
X675600Y-46477800D02*
X2675600Y-46477800D01*
X4675600Y-46477800D02*
X14564400Y-46477800D01*
X14564400Y-46477800D02*
X16564400Y-46477800D01*
X2675600Y-46477800D02*
X4675600Y-46477800D01*
X18564400Y-46477800D02*
X28453300Y-46477800D01*
X28453300Y-46477800D02*
X30453300Y-46477800D01*
X16564400Y-46477800D02*
X18564400Y-46477800D01*
X32453300Y-44477800D02*
X32453300Y-46477800D01*
X30453300Y-46477800D02*
X32453300Y-46477800D01*
M02*
