G04 #@! TF.FileFunction,Copper,L2,Bot,Signal*
%FSLAX46Y46*%
G04 Gerber Fmt 4.6, Leading zero omitted, Abs format (unit mm)*
G04 Created by KiCad (PCBNEW 4.0.6) date Mon Jul 10 19:19:14 2017*
%MOMM*%
%LPD*%
G01*
G04 APERTURE LIST*
%ADD10C,0.100000*%
%ADD11O,1.524000X3.000000*%
%ADD12R,2.000000X2.000000*%
%ADD13O,2.000000X2.000000*%
%ADD14R,3.000000X3.000000*%
%ADD15O,3.000000X3.000000*%
%ADD16C,2.000000*%
%ADD17C,1.000000*%
G04 APERTURE END LIST*
D10*
D11*
X46704000Y-47942000D03*
X44164000Y-47942000D03*
X41624000Y-47942000D03*
X39084000Y-47942000D03*
X46704000Y-75719800D03*
X44164000Y-75719800D03*
X41624000Y-75719800D03*
X39084000Y-75719800D03*
X52972900Y-75719700D03*
X55512900Y-75719700D03*
X58052900Y-75719700D03*
X60592900Y-75719700D03*
X52972900Y-34053100D03*
X55512900Y-34053100D03*
X58052900Y-34053100D03*
X60592900Y-34053100D03*
X74481800Y-34053100D03*
X71941800Y-34053100D03*
X69401800Y-34053100D03*
X66861800Y-34053100D03*
X74481800Y-61830900D03*
X71941800Y-61830900D03*
X69401800Y-61830900D03*
X66861800Y-61830900D03*
D12*
X63246000Y-66040000D03*
D13*
X63246000Y-60008000D03*
D12*
X49784000Y-52324000D03*
D13*
X49784000Y-58356000D03*
D14*
X63754000Y-46736000D03*
D15*
X63754000Y-52768000D03*
D16*
X39084000Y-47942000D02*
X39084000Y-51442000D01*
X48598001Y-60956001D02*
X55565999Y-60956001D01*
X39084000Y-51442000D02*
X48598001Y-60956001D01*
X55565999Y-60956001D02*
X62254001Y-54267999D01*
X62254001Y-54267999D02*
X63754000Y-52768000D01*
X46704000Y-47942000D02*
X62548000Y-47942000D01*
X62548000Y-47942000D02*
X63754000Y-46736000D01*
X52070000Y-73406000D02*
X52972900Y-74308900D01*
X52972900Y-74308900D02*
X52972900Y-75719700D01*
X48514000Y-73406000D02*
X52070000Y-73406000D01*
X46704000Y-75216000D02*
X48514000Y-73406000D01*
X46704000Y-75719800D02*
X46704000Y-75216000D01*
D17*
X55512900Y-75719700D02*
X55512900Y-73219700D01*
X55512900Y-73219700D02*
X53599190Y-71305990D01*
X53599190Y-71305990D02*
X46077810Y-71305990D01*
X46077810Y-71305990D02*
X44164000Y-73219800D01*
X44164000Y-73219800D02*
X44164000Y-75719800D01*
X41624000Y-75719800D02*
X41624000Y-73219800D01*
X41624000Y-73219800D02*
X45137820Y-69705980D01*
X45137820Y-69705980D02*
X54539180Y-69705980D01*
X54539180Y-69705980D02*
X58052900Y-73219700D01*
X58052900Y-73219700D02*
X58052900Y-75719700D01*
D16*
X60592900Y-75719700D02*
X60592900Y-72789838D01*
X60592900Y-72789838D02*
X55409033Y-67605971D01*
X55409033Y-67605971D02*
X43697829Y-67605971D01*
X43697829Y-67605971D02*
X39084000Y-72219800D01*
X39084000Y-72219800D02*
X39084000Y-75719800D01*
X74481800Y-34053100D02*
X74481800Y-36982962D01*
X52972900Y-37553100D02*
X52972900Y-34053100D01*
X74481800Y-36982962D02*
X69850733Y-41614029D01*
X69850733Y-41614029D02*
X57033829Y-41614029D01*
X57033829Y-41614029D02*
X52972900Y-37553100D01*
D17*
X55512900Y-34053100D02*
X55512900Y-36553100D01*
X55512900Y-36553100D02*
X58473820Y-39514020D01*
X58473820Y-39514020D02*
X68980880Y-39514020D01*
X68980880Y-39514020D02*
X71941800Y-36553100D01*
X71941800Y-36553100D02*
X71941800Y-34053100D01*
X69401800Y-34053100D02*
X69401800Y-36553100D01*
X69401800Y-36553100D02*
X68040890Y-37914010D01*
X68040890Y-37914010D02*
X59413810Y-37914010D01*
X58052900Y-36553100D02*
X58052900Y-34053100D01*
X59413810Y-37914010D02*
X58052900Y-36553100D01*
D16*
X65024000Y-35814000D02*
X66784900Y-34053100D01*
X66784900Y-34053100D02*
X66861800Y-34053100D01*
X62230000Y-35814000D02*
X65024000Y-35814000D01*
X60592900Y-34176900D02*
X62230000Y-35814000D01*
X60592900Y-34053100D02*
X60592900Y-34176900D01*
D17*
X44164000Y-47942000D02*
X44164000Y-50442000D01*
X44164000Y-50442000D02*
X46046000Y-52324000D01*
X46046000Y-52324000D02*
X47784000Y-52324000D01*
X47784000Y-52324000D02*
X49784000Y-52324000D01*
X41624000Y-47942000D02*
X41624000Y-50442000D01*
X41624000Y-50442000D02*
X49538000Y-58356000D01*
X49538000Y-58356000D02*
X49784000Y-58356000D01*
X71941800Y-61830900D02*
X71941800Y-59330900D01*
X71941800Y-59330900D02*
X70018891Y-57407991D01*
X61145999Y-58999999D02*
X61145999Y-61939999D01*
X70018891Y-57407991D02*
X62738007Y-57407991D01*
X62738007Y-57407991D02*
X61145999Y-58999999D01*
X61145999Y-61939999D02*
X63246000Y-64040000D01*
X63246000Y-64040000D02*
X63246000Y-66040000D01*
X69401800Y-61830900D02*
X69401800Y-59330900D01*
X69401800Y-59330900D02*
X69078901Y-59008001D01*
X69078901Y-59008001D02*
X64245999Y-59008001D01*
X64245999Y-59008001D02*
X63246000Y-60008000D01*
M02*
