G04 #@! TF.FileFunction,Profile,NP*
%FSLAX46Y46*%
G04 Gerber Fmt 4.6, Leading zero omitted, Abs format (unit mm)*
G04 Created by KiCad (PCBNEW 4.0.6) date Mon Jul 10 19:19:14 2017*
%MOMM*%
%LPD*%
G01*
G04 APERTURE LIST*
%ADD10C,0.100000*%
%ADD11C,0.150000*%
G04 APERTURE END LIST*
D10*
D11*
X47838400Y-32053100D02*
X49838400Y-32053100D01*
X47838400Y-32053100D02*
X47838400Y-34053100D01*
X51838400Y-32053100D02*
X61727300Y-32053100D01*
X61727300Y-32053100D02*
X63727300Y-32053100D01*
X49838400Y-32053100D02*
X51838400Y-32053100D01*
X65727300Y-32053100D02*
X75616200Y-32053100D01*
X75616200Y-32053100D02*
X77616200Y-32053100D01*
X63727300Y-32053100D02*
X65727300Y-32053100D01*
X79616200Y-32053100D02*
X79616200Y-34053100D01*
X77616200Y-32053100D02*
X79616200Y-32053100D01*
X33949600Y-45942000D02*
X35949600Y-45942000D01*
X33949600Y-45942000D02*
X33949600Y-47942000D01*
X47838400Y-34053100D02*
X47838400Y-36053100D01*
X37949600Y-45942000D02*
X47838400Y-45942000D01*
X35949600Y-45942000D02*
X37949600Y-45942000D01*
X47838400Y-36053100D02*
X47838400Y-45942000D01*
X79616200Y-34053100D02*
X79616200Y-36053100D01*
X79616200Y-36053100D02*
X79616200Y-45942000D01*
X79616200Y-45942000D02*
X79616200Y-47942000D01*
X33949600Y-47942000D02*
X33949600Y-49942000D01*
X33949600Y-59830900D02*
X33949600Y-61830900D01*
X33949600Y-49942000D02*
X33949600Y-59830900D01*
X79616200Y-47942000D02*
X79616200Y-49942000D01*
X79616200Y-49942000D02*
X79616200Y-59830900D01*
X79616200Y-59830900D02*
X79616200Y-61830900D01*
X33949600Y-61830900D02*
X33949600Y-63830900D01*
X33949600Y-73719800D02*
X33949600Y-75719800D01*
X33949600Y-63830900D02*
X33949600Y-73719800D01*
X65727300Y-63830900D02*
X75616200Y-63830900D01*
X75616200Y-63830900D02*
X77616200Y-63830900D01*
X65727300Y-63830900D02*
X65727300Y-73719800D01*
X65727300Y-73719800D02*
X65727300Y-75719800D01*
X79616200Y-61830900D02*
X79616200Y-63830900D01*
X77616200Y-63830900D02*
X79616200Y-63830900D01*
X33949600Y-75719800D02*
X33949600Y-77719800D01*
X33949600Y-77719800D02*
X35949600Y-77719800D01*
X37949600Y-77719800D02*
X47838400Y-77719800D01*
X47838400Y-77719800D02*
X49838400Y-77719800D01*
X35949600Y-77719800D02*
X37949600Y-77719800D01*
X51838400Y-77719800D02*
X61727300Y-77719800D01*
X61727300Y-77719800D02*
X63727300Y-77719800D01*
X49838400Y-77719800D02*
X51838400Y-77719800D01*
X65727300Y-75719800D02*
X65727300Y-77719800D01*
X63727300Y-77719800D02*
X65727300Y-77719800D01*
M02*
