M48
;DRILL file {KiCad 4.0.6} date Mon Jul 10 19:19:16 2017
;FORMAT={-:-/ absolute / metric / decimal}
FMAT,2
METRIC,TZ
T1C0.600
%
G90
G05
M71
T1
X39.084Y-47.942
X39.084Y-75.72
X41.624Y-47.942
X41.624Y-75.72
X44.164Y-47.942
X44.164Y-75.72
X46.704Y-47.942
X46.704Y-75.72
X49.784Y-52.324
X49.784Y-58.356
X52.973Y-34.053
X52.973Y-75.72
X55.513Y-34.053
X55.513Y-75.72
X58.053Y-34.053
X58.053Y-75.72
X60.593Y-34.053
X60.593Y-75.72
X63.246Y-60.008
X63.246Y-66.04
X63.754Y-46.736
X63.754Y-52.768
X66.862Y-34.053
X66.862Y-61.831
X69.402Y-34.053
X69.402Y-61.831
X71.942Y-34.053
X71.942Y-61.831
X74.482Y-34.053
X74.482Y-61.831
T0
M30
