M48
;DRILL file {KiCad 4.0.6} date Tue Jul 11 20:45:53 2017
;FORMAT={-:-/ absolute / metric / decimal}
FMAT,2
METRIC,TZ
T1C0.600
%
G90
G05
M71
T1
X5.81Y-16.7
X5.81Y-44.478
X8.35Y-16.7
X8.35Y-44.478
X10.89Y-16.7
X10.89Y-44.478
X13.43Y-16.7
X13.43Y-44.478
X16.51Y-21.082
X16.51Y-27.114
X19.699Y-2.811
X19.699Y-44.478
X22.239Y-2.811
X22.239Y-44.478
X24.779Y-2.811
X24.779Y-44.478
X27.319Y-2.811
X27.319Y-44.478
X29.972Y-28.766
X29.972Y-34.798
X30.48Y-15.494
X30.48Y-21.526
X33.588Y-2.811
X33.588Y-30.589
X36.128Y-2.811
X36.128Y-30.589
X38.668Y-2.811
X38.668Y-30.589
X41.208Y-2.811
X41.208Y-30.589
T0
M30
